<svg xmlns="http://www.w3.org/2000/svg" width="14" height="14" viewBox="0 0 14 14">
    <path fill="#2E8BFF" fill-rule="nonzero" d="M4.067 0h5.866a4.072 4.072 0 0 1 4.062 3.864l.005.203v5.866a4.072 4.072 0 0 1-3.864 4.062L9.933 14H4.067a4.072 4.072 0 0 1-4.062-3.864L0 9.933V4.067A4.072 4.072 0 0 1 3.864.005L4.067 0h5.866zm5.866 1.094H4.067a2.977 2.977 0 0 0-2.968 2.798l-.005.175v5.866c0 1.581 1.24 2.878 2.798 2.968l.175.005h5.866c1.581 0 2.878-1.24 2.968-2.798l.005-.175V4.067a2.976 2.976 0 0 0-2.973-2.973zM7 3.227A3.778 3.778 0 0 1 10.773 7 3.778 3.778 0 0 1 7 10.773 3.778 3.778 0 0 1 3.227 7 3.778 3.778 0 0 1 7 3.227zM7 4.32A2.683 2.683 0 0 0 4.32 7 2.683 2.683 0 0 0 7 9.68 2.683 2.683 0 0 0 9.68 7 2.683 2.683 0 0 0 7 4.32zm3.828-1.695a.547.547 0 1 1 0 1.094.547.547 0 0 1 0-1.094z"/>
</svg>
