<svg xmlns="http://www.w3.org/2000/svg" width="14" height="13" viewBox="0 0 14 13">
    <path fill="#2E8BFF" fill-rule="nonzero" d="M3.326 4.515v8.295H.564V4.515h2.762zm.176-2.561c.008.795-.594 1.43-1.557 1.43h-.017C1 3.385.405 2.75.405 1.955c0-.812.62-1.432 1.557-1.432.946 0 1.531.62 1.54 1.432zm4.101 3.74c.364-.568 1.02-1.372 2.486-1.372 1.817 0 3.173 1.189 3.173 3.734v4.754h-2.754V8.374c0-1.114-.402-1.875-1.398-1.875-.762 0-1.214.51-1.414 1.004-.067.184-.093.427-.093.678v4.63H4.85c.033-7.518 0-8.296 0-8.296h2.753v1.179z"/>
</svg>
