<svg width="60" height="60" viewBox="0 0 60 60" fill="none" xmlns="http://www.w3.org/2000/svg">
<rect width="60" height="60" rx="16" fill="#F7DCE3"/>
<path fill-rule="evenodd" clip-rule="evenodd" d="M13 42.3627C13 42.7726 13.1628 43.1658 13.4527 43.4557C13.7425 43.7456 14.1356 43.9084 14.5455 43.9084H16.0909C21.4193 43.9084 26.5296 41.7913 30.2973 38.0228C34.0651 34.2543 36.1818 29.1432 36.1818 23.8137V18.2722L38.1832 20.2662C38.4788 20.5195 38.8591 20.6518 39.2481 20.6368C39.637 20.6217 40.006 20.4605 40.2812 20.1852C40.5565 19.9099 40.7177 19.5409 40.7327 19.1518C40.7478 18.7628 40.6155 18.3824 40.3623 18.0867L35.7259 13.4495C35.4363 13.1616 35.0446 13 34.6364 13C34.2281 13 33.8364 13.1616 33.5468 13.4495L28.9105 18.0867C28.6573 18.3824 28.525 18.7628 28.54 19.1518C28.555 19.5409 28.7163 19.9099 28.9915 20.1852C29.2667 20.4605 29.6357 20.6217 30.0246 20.6368C30.4136 20.6518 30.7939 20.5195 31.0895 20.2662L33.0909 18.2722V23.8137C33.0909 28.3232 31.2998 32.6481 28.1117 35.8368C24.9236 39.0255 20.5996 40.8169 16.0909 40.8169H14.5455C14.1356 40.8169 13.7425 40.9798 13.4527 41.2697C13.1628 41.5595 13 41.9527 13 42.3627ZM15.0017 32.6321C15.2912 32.92 15.6829 33.0816 16.0912 33.0816C16.4995 33.0816 16.8912 32.92 17.1808 32.6321L19.9548 29.8653L22.7289 32.6321C23.0246 32.8854 23.4049 33.0177 23.7938 33.0027C24.1828 32.9876 24.5518 32.8264 24.827 32.5511C25.1022 32.2758 25.2635 31.9068 25.2785 31.5177C25.2935 31.1287 25.1612 30.7483 24.908 30.4526L22.1417 27.678L24.908 24.9034C25.1612 24.6077 25.2935 24.2273 25.2785 23.8383C25.2635 23.4493 25.1022 23.0802 24.827 22.805C24.5518 22.5297 24.1828 22.3684 23.7938 22.3534C23.4049 22.3383 23.0246 22.4707 22.7289 22.7239L19.9548 25.4908L17.1808 22.7239C16.8851 22.4707 16.5048 22.3383 16.1159 22.3534C15.7269 22.3684 15.3579 22.5297 15.0827 22.805C14.8075 23.0802 14.6462 23.4493 14.6312 23.8383C14.6162 24.2273 14.7485 24.6077 15.0017 24.9034L17.768 27.678L15.0017 30.4526C14.7138 30.7422 14.5523 31.134 14.5523 31.5424C14.5523 31.9507 14.7138 32.3425 15.0017 32.6321ZM45.9584 37.3817C46.6376 38.3985 47.0002 39.5939 47.0002 40.8168C47.0002 42.4566 46.3489 44.0293 45.1896 45.1888C44.0303 46.3483 42.4579 46.9998 40.8184 46.9998C39.5957 46.9998 38.4005 46.6371 37.3839 45.9577C36.3673 45.2783 35.575 44.3127 35.1071 43.1829C34.6392 42.0531 34.5168 40.8099 34.7553 39.6105C34.9939 38.4112 35.5826 37.3095 36.4472 36.4447C37.3117 35.58 38.4132 34.9912 39.6124 34.7526C40.8115 34.514 42.0545 34.6365 43.184 35.1044C44.3136 35.5724 45.2791 36.3649 45.9584 37.3817ZM39.1011 43.3873C39.6094 43.727 40.207 43.9083 40.8184 43.9083C41.6381 43.9083 42.4243 43.5826 43.004 43.0028C43.5836 42.423 43.9093 41.6367 43.9093 40.8168C43.9093 40.2053 43.728 39.6076 43.3884 39.0992C43.0487 38.5908 42.566 38.1946 42.0012 37.9606C41.4364 37.7266 40.8149 37.6654 40.2154 37.7847C39.6158 37.904 39.065 38.1984 38.6328 38.6308C38.2005 39.0631 37.9061 39.614 37.7868 40.2137C37.6676 40.8133 37.7288 41.4349 37.9627 41.9998C38.1967 42.5647 38.5928 43.0476 39.1011 43.3873Z" fill="#F5496B"/>
</svg>
