<svg width="60" height="60" viewBox="0 0 60 60" fill="none" xmlns="http://www.w3.org/2000/svg">
<g id="Group 22 Copy 4">
<rect id="Rectangle Copy 27" width="60" height="60" rx="16" fill="#C9D1F3"/>
<path id="Vector" d="M17.4167 44.1667C17.0409 44.1667 16.6806 44.3159 16.4149 44.5816C16.1493 44.8473 16 45.2076 16 45.5833C16 45.9591 16.1493 46.3194 16.4149 46.5851C16.6806 46.8507 17.0409 47 17.4167 47H42.9167C43.2924 47 43.6527 46.8507 43.9184 46.5851C44.1841 46.3194 44.3333 45.9591 44.3333 45.5833C44.3333 45.2076 44.1841 44.8473 43.9184 44.5816C43.6527 44.3159 43.2924 44.1667 42.9167 44.1667H31.5833V31.4167H34.4167C37.0467 31.4167 39.5691 30.3719 41.4288 28.5121C43.2885 26.6524 44.3333 24.1301 44.3333 21.5C44.3333 21.1243 44.1841 20.7639 43.9184 20.4983C43.6527 20.2326 43.2924 20.0833 42.9167 20.0833H38.6667C37.3461 20.0826 36.0388 20.3468 34.8221 20.8602C33.6055 21.3736 32.5041 22.1259 31.5833 23.0725V22.9167C31.5833 20.2866 30.5385 17.7643 28.6788 15.9045C26.8191 14.0448 24.2967 13 21.6667 13H17.4167C17.0409 13 16.6806 13.1493 16.4149 13.4149C16.1493 13.6806 16 14.0409 16 14.4167C16 17.0467 17.0448 19.5691 18.9045 21.4288C20.7643 23.2885 23.2866 24.3333 25.9167 24.3333H28.75V30.1558C27.8292 29.2092 26.7279 28.457 25.5112 27.9435C24.2945 27.4301 22.9872 27.1659 21.6667 27.1667H17.4167C17.0409 27.1667 16.6806 27.3159 16.4149 27.5816C16.1493 27.8473 16 28.2076 16 28.5833C16 31.2134 17.0448 33.7357 18.9045 35.5955C20.7643 37.4552 23.2866 38.5 25.9167 38.5H28.75V44.1667H17.4167ZM38.6667 22.9167H41.3583C41.0318 24.5166 40.1624 25.9546 38.8974 26.9872C37.6325 28.0198 36.0496 28.5837 34.4167 28.5833H31.725C32.0516 26.9834 32.9209 25.5454 34.1859 24.5128C35.4509 23.4802 37.0337 22.9163 38.6667 22.9167ZM25.9167 21.5C24.2837 21.5003 22.7009 20.9365 21.4359 19.9039C20.1709 18.8712 19.3016 17.4333 18.975 15.8333H21.6667C23.2996 15.833 24.8825 16.3969 26.1474 17.4295C27.4124 18.4621 28.2817 19.9001 28.6083 21.5H25.9167ZM25.9167 35.6667C24.2837 35.667 22.7009 35.1031 21.4359 34.0705C20.1709 33.0379 19.3016 31.5999 18.975 30H21.6667C23.2996 29.9997 24.8825 30.5635 26.1474 31.5961C27.4124 32.6288 28.2817 34.0667 28.6083 35.6667H25.9167Z" fill="#1F40CC"/>
</g>
</svg>
