<svg width="64" height="64" viewBox="0 0 64 64" fill="none" xmlns="http://www.w3.org/2000/svg">
<g id="Group 22 Copy">
<rect id="Rectangle Copy 27" opacity="0.2" width="64" height="64" rx="20" fill="white"/>
<path id="Shape" fill-rule="evenodd" clip-rule="evenodd" d="M31.4815 16.8721C31.9305 16.1623 32.7969 15.8381 33.6016 16.0787C34.3988 16.321 34.9414 17.059 34.935 17.8921V27.9992H42.9353C43.4224 28 43.8704 28.2664 44.1036 28.6941C44.3369 29.1218 44.3184 29.6426 44.0553 30.0526L33.0549 47.1266C32.7134 47.67 32.1166 47.9999 31.4748 48C31.2919 47.9991 31.1101 47.9722 30.9348 47.92C30.1376 47.6778 29.595 46.9397 29.6014 46.1066V35.9995H21.6011C21.1118 36.0003 20.6613 35.7329 20.4276 35.303C20.1938 34.8731 20.2144 34.3497 20.4811 33.9394L31.4815 16.8721ZM32.2661 43.46L40.4931 30.6661H33.5994C32.863 30.6661 32.2661 30.0692 32.2661 29.3327V20.5391L24.0391 33.3329H30.9327C31.6691 33.3329 32.2661 33.9299 32.2661 34.6663V43.46Z" fill="white"/>
</g>
</svg>
