<svg width="1199" height="440" viewBox="0 0 1199 440" fill="none" xmlns="http://www.w3.org/2000/svg">
<path d="M66.2 398H63.8V385.4H66.2V398Z" fill="black"/>
<path d="M193.7 398H191.3V385.4H193.7V398ZM198.7 398H196.3V385.4H198.7V398Z" fill="black"/>
<path d="M321.2 398H318.8V385.4H321.2V398ZM326.2 398H323.8V385.4H326.2V398ZM331.2 398H328.8V385.4H331.2V398Z" fill="black"/>
<path d="M450.399 398H447.999V385.4H450.399V398ZM456.299 398L451.799 385.4H454.299L457.499 394.6L460.699 385.4H463.199L458.699 398H456.299Z" fill="black"/>
<path d="M583.799 398L579.299 385.4H581.799L584.999 394.6L588.199 385.4H590.699L586.199 398H583.799Z" fill="black"/>
<path d="M711.299 398L706.799 385.4H709.299L712.499 394.6L715.699 385.4H718.199L713.699 398H711.299ZM722.001 398H719.601V385.4H722.001V398Z" fill="black"/>
<path d="M841.299 398L836.799 385.4H839.299L842.499 394.6L845.699 385.4H848.199L843.699 398H841.299ZM852.001 398H849.601V385.4H852.001V398ZM857.001 398H854.601V385.4H857.001V398Z" fill="black"/>
<path d="M979.299 398L974.799 385.4H977.299L980.499 394.6L983.699 385.4H986.199L981.699 398H979.299ZM990.001 398H987.601V385.4H990.001V398ZM995.001 398H992.601V385.4H995.001V398ZM1000 398H997.601V385.4H1000V398Z" fill="black"/>
<path d="M1124.1 398H1121.7V385.4H1124.1V398ZM1133.6 385.4H1136.3L1132.4 391.6L1136.5 398H1133.8L1131 393.42L1128.2 398H1125.5L1129.6 391.6L1125.7 385.4H1128.4L1131 389.8L1133.6 385.4Z" fill="black"/>
<rect x="619" y="106" width="185" height="48" rx="8" fill="#F7DCE3"/>
<rect opacity="0.3" x="627" y="124" width="2" height="12" rx="1" fill="#F5496B"/>
<rect opacity="0.3" x="792" y="124" width="2" height="12" rx="1" fill="#F5496B"/>
<path d="M646.22 136H644.69L641.09 124.66H643.25L645.5 132.04L647.84 124.66H649.1L651.44 132.04L653.69 124.66H655.85L652.25 136H650.72L648.47 128.89L646.22 136ZM658.2 131.86C658.2 132.544 658.398 133.09 658.794 133.498C659.19 133.906 659.682 134.11 660.27 134.11C660.858 134.11 661.35 133.906 661.746 133.498C662.142 133.09 662.34 132.544 662.34 131.86C662.34 131.176 662.142 130.63 661.746 130.222C661.35 129.814 660.858 129.61 660.27 129.61C659.682 129.61 659.19 129.814 658.794 130.222C658.398 130.63 658.2 131.176 658.2 131.86ZM664.41 131.86C664.41 132.448 664.296 133 664.068 133.516C663.852 134.02 663.552 134.464 663.168 134.848C662.796 135.232 662.358 135.538 661.854 135.766C661.362 135.982 660.834 136.09 660.27 136.09C659.706 136.09 659.172 135.982 658.668 135.766C658.176 135.538 657.738 135.232 657.354 134.848C656.982 134.464 656.682 134.02 656.454 133.516C656.238 133 656.13 132.448 656.13 131.86C656.13 131.272 656.238 130.726 656.454 130.222C656.682 129.706 656.982 129.256 657.354 128.872C657.738 128.488 658.176 128.188 658.668 127.972C659.172 127.744 659.706 127.63 660.27 127.63C660.834 127.63 661.362 127.744 661.854 127.972C662.358 128.188 662.796 128.488 663.168 128.872C663.552 129.256 663.852 129.706 664.068 130.222C664.296 130.726 664.41 131.272 664.41 131.86ZM669.801 127.63C669.897 127.63 669.981 127.636 670.053 127.648C670.125 127.66 670.191 127.672 670.251 127.684C670.311 127.696 670.371 127.708 670.431 127.72V129.88C670.371 129.868 670.305 129.856 670.233 129.844C670.173 129.832 670.095 129.82 669.999 129.808C669.915 129.796 669.819 129.79 669.711 129.79C669.207 129.79 668.793 129.958 668.469 130.294C668.157 130.618 668.001 131.05 668.001 131.59V136H665.931V127.72H667.461L667.821 128.62C667.965 128.44 668.139 128.278 668.343 128.134C668.511 128.002 668.715 127.888 668.955 127.792C669.207 127.684 669.489 127.63 669.801 127.63ZM676.735 136L673.855 132.22V136H671.785V124.66H673.855V131.14L676.375 127.72H678.715L675.745 131.68L679.075 136H676.735ZM681.243 133.39C681.291 133.666 681.423 133.9 681.639 134.092C681.855 134.284 682.143 134.38 682.503 134.38C682.863 134.38 683.145 134.29 683.349 134.11C683.565 133.918 683.673 133.708 683.673 133.48C683.673 133.288 683.565 133.138 683.349 133.03C683.145 132.922 682.887 132.826 682.575 132.742C682.263 132.646 681.921 132.55 681.549 132.454C681.189 132.358 680.853 132.22 680.541 132.04C680.229 131.848 679.965 131.608 679.749 131.32C679.545 131.02 679.443 130.63 679.443 130.15C679.443 129.814 679.509 129.496 679.641 129.196C679.785 128.884 679.989 128.614 680.253 128.386C680.517 128.158 680.829 127.978 681.189 127.846C681.549 127.702 681.957 127.63 682.413 127.63C683.409 127.63 684.171 127.87 684.699 128.35C685.239 128.83 685.557 129.43 685.653 130.15H683.673C683.625 129.97 683.493 129.79 683.277 129.61C683.073 129.43 682.815 129.34 682.503 129.34C682.191 129.34 681.945 129.418 681.765 129.574C681.597 129.73 681.513 129.922 681.513 130.15C681.513 130.342 681.615 130.492 681.819 130.6C682.035 130.708 682.299 130.81 682.611 130.906C682.923 130.99 683.259 131.086 683.619 131.194C683.991 131.29 684.333 131.434 684.645 131.626C684.957 131.818 685.215 132.07 685.419 132.382C685.635 132.682 685.743 133.078 685.743 133.57C685.743 133.906 685.671 134.23 685.527 134.542C685.383 134.842 685.179 135.106 684.915 135.334C684.651 135.562 684.327 135.748 683.943 135.892C683.571 136.024 683.151 136.09 682.683 136.09C681.603 136.09 680.781 135.844 680.217 135.352C679.665 134.86 679.347 134.206 679.263 133.39H681.243ZM691.681 127.63C692.125 127.63 692.539 127.714 692.923 127.882C693.319 128.038 693.655 128.272 693.931 128.584C694.207 128.884 694.423 129.25 694.579 129.682C694.747 130.114 694.831 130.6 694.831 131.14V136H692.761V131.41C692.761 130.87 692.599 130.438 692.275 130.114C691.963 129.778 691.555 129.61 691.051 129.61C690.547 129.61 690.133 129.778 689.809 130.114C689.497 130.438 689.341 130.87 689.341 131.41V136H687.271V124.66H689.341V128.53C689.497 128.362 689.683 128.212 689.899 128.08C690.091 127.972 690.331 127.87 690.619 127.774C690.919 127.678 691.273 127.63 691.681 127.63ZM698.348 131.86C698.348 132.544 698.546 133.09 698.942 133.498C699.338 133.906 699.83 134.11 700.418 134.11C701.006 134.11 701.498 133.906 701.894 133.498C702.29 133.09 702.488 132.544 702.488 131.86C702.488 131.176 702.29 130.63 701.894 130.222C701.498 129.814 701.006 129.61 700.418 129.61C699.83 129.61 699.338 129.814 698.942 130.222C698.546 130.63 698.348 131.176 698.348 131.86ZM704.558 131.86C704.558 132.448 704.444 133 704.216 133.516C704 134.02 703.7 134.464 703.316 134.848C702.944 135.232 702.506 135.538 702.002 135.766C701.51 135.982 700.982 136.09 700.418 136.09C699.854 136.09 699.32 135.982 698.816 135.766C698.324 135.538 697.886 135.232 697.502 134.848C697.13 134.464 696.83 134.02 696.602 133.516C696.386 133 696.278 132.448 696.278 131.86C696.278 131.272 696.386 130.726 696.602 130.222C696.83 129.706 697.13 129.256 697.502 128.872C697.886 128.488 698.324 128.188 698.816 127.972C699.32 127.744 699.854 127.63 700.418 127.63C700.982 127.63 701.51 127.744 702.002 127.972C702.506 128.188 702.944 128.488 703.316 128.872C703.7 129.256 704 129.706 704.216 130.222C704.444 130.726 704.558 131.272 704.558 131.86ZM710.31 127.63C710.826 127.63 711.318 127.738 711.786 127.954C712.254 128.158 712.662 128.452 713.01 128.836C713.37 129.208 713.652 129.652 713.856 130.168C714.072 130.684 714.18 131.248 714.18 131.86C714.18 132.472 714.072 133.036 713.856 133.552C713.652 134.068 713.37 134.518 713.01 134.902C712.662 135.274 712.254 135.568 711.786 135.784C711.318 135.988 710.826 136.09 710.31 136.09C709.962 136.09 709.656 136.048 709.392 135.964C709.14 135.88 708.918 135.79 708.726 135.694C708.51 135.574 708.318 135.436 708.15 135.28V138.88H706.08V127.72H707.61L707.97 128.53C708.15 128.362 708.36 128.212 708.6 128.08C708.804 127.972 709.05 127.87 709.338 127.774C709.626 127.678 709.95 127.63 710.31 127.63ZM707.97 131.86C707.97 132.544 708.168 133.09 708.564 133.498C708.96 133.906 709.452 134.11 710.04 134.11C710.628 134.11 711.12 133.906 711.516 133.498C711.912 133.09 712.11 132.544 712.11 131.86C712.11 131.176 711.912 130.63 711.516 130.222C711.12 129.814 710.628 129.61 710.04 129.61C709.452 129.61 708.96 129.814 708.564 130.222C708.168 130.63 707.97 131.176 707.97 131.86ZM717.243 133.39C717.291 133.666 717.423 133.9 717.639 134.092C717.855 134.284 718.143 134.38 718.503 134.38C718.863 134.38 719.145 134.29 719.349 134.11C719.565 133.918 719.673 133.708 719.673 133.48C719.673 133.288 719.565 133.138 719.349 133.03C719.145 132.922 718.887 132.826 718.575 132.742C718.263 132.646 717.921 132.55 717.549 132.454C717.189 132.358 716.853 132.22 716.541 132.04C716.229 131.848 715.965 131.608 715.749 131.32C715.545 131.02 715.443 130.63 715.443 130.15C715.443 129.814 715.509 129.496 715.641 129.196C715.785 128.884 715.989 128.614 716.253 128.386C716.517 128.158 716.829 127.978 717.189 127.846C717.549 127.702 717.957 127.63 718.413 127.63C719.409 127.63 720.171 127.87 720.699 128.35C721.239 128.83 721.557 129.43 721.653 130.15H719.673C719.625 129.97 719.493 129.79 719.277 129.61C719.073 129.43 718.815 129.34 718.503 129.34C718.191 129.34 717.945 129.418 717.765 129.574C717.597 129.73 717.513 129.922 717.513 130.15C717.513 130.342 717.615 130.492 717.819 130.6C718.035 130.708 718.299 130.81 718.611 130.906C718.923 130.99 719.259 131.086 719.619 131.194C719.991 131.29 720.333 131.434 720.645 131.626C720.957 131.818 721.215 132.07 721.419 132.382C721.635 132.682 721.743 133.078 721.743 133.57C721.743 133.906 721.671 134.23 721.527 134.542C721.383 134.842 721.179 135.106 720.915 135.334C720.651 135.562 720.327 135.748 719.943 135.892C719.571 136.024 719.151 136.09 718.683 136.09C717.603 136.09 716.781 135.844 716.217 135.352C715.665 134.86 715.347 134.206 715.263 133.39H717.243Z" fill="#F5496B"/>
<path d="M733.562 135.5H732.281V125.422H733.562V135.5ZM741.086 131.898C741.086 131.513 741.023 131.164 740.898 130.852C740.779 130.539 740.617 130.271 740.414 130.047C740.211 129.823 739.971 129.651 739.695 129.531C739.424 129.406 739.141 129.344 738.844 129.344C738.547 129.344 738.26 129.406 737.984 129.531C737.714 129.651 737.477 129.823 737.273 130.047C737.07 130.271 736.906 130.539 736.781 130.852C736.661 131.164 736.602 131.513 736.602 131.898C736.602 132.284 736.661 132.635 736.781 132.953C736.906 133.266 737.07 133.534 737.273 133.758C737.477 133.982 737.714 134.156 737.984 134.281C738.26 134.401 738.547 134.461 738.844 134.461C739.141 134.461 739.424 134.401 739.695 134.281C739.971 134.156 740.211 133.982 740.414 133.758C740.617 133.534 740.779 133.266 740.898 132.953C741.023 132.635 741.086 132.284 741.086 131.898ZM740.922 134.703C740.76 134.875 740.581 135.023 740.383 135.148C740.201 135.268 739.974 135.37 739.703 135.453C739.438 135.536 739.125 135.578 738.766 135.578C738.307 135.578 737.872 135.49 737.461 135.312C737.049 135.13 736.69 134.878 736.383 134.555C736.081 134.227 735.841 133.839 735.664 133.391C735.492 132.943 735.406 132.445 735.406 131.898C735.406 131.357 735.492 130.862 735.664 130.414C735.841 129.966 736.081 129.581 736.383 129.258C736.69 128.93 737.049 128.674 737.461 128.492C737.872 128.31 738.307 128.219 738.766 128.219C739.13 128.219 739.445 128.271 739.711 128.375C739.977 128.474 740.201 128.583 740.383 128.703C740.586 128.844 740.766 129.003 740.922 129.18V125.422H742.125V135.5H741.242L740.922 134.703ZM750.133 133.578C750.013 133.833 749.862 134.086 749.68 134.336C749.497 134.581 749.284 134.794 749.039 134.977C748.794 135.154 748.516 135.299 748.203 135.414C747.896 135.523 747.552 135.578 747.172 135.578C746.714 135.578 746.279 135.49 745.867 135.312C745.456 135.13 745.096 134.878 744.789 134.555C744.487 134.227 744.247 133.839 744.07 133.391C743.898 132.943 743.812 132.445 743.812 131.898C743.812 131.357 743.898 130.862 744.07 130.414C744.247 129.966 744.484 129.581 744.781 129.258C745.083 128.93 745.435 128.674 745.836 128.492C746.237 128.31 746.656 128.219 747.094 128.219C747.531 128.219 747.943 128.305 748.328 128.477C748.719 128.648 749.057 128.893 749.344 129.211C749.635 129.523 749.865 129.901 750.031 130.344C750.203 130.786 750.289 131.279 750.289 131.82C750.289 131.924 750.284 132.016 750.273 132.094C750.263 132.167 750.253 132.229 750.242 132.281C750.232 132.344 750.221 132.404 750.211 132.461H745.094C745.115 132.716 745.185 132.966 745.305 133.211C745.43 133.456 745.583 133.669 745.766 133.852C745.953 134.034 746.169 134.182 746.414 134.297C746.664 134.406 746.917 134.461 747.172 134.461C747.396 134.461 747.594 134.43 747.766 134.367C747.943 134.299 748.104 134.224 748.25 134.141C748.396 134.057 748.516 133.966 748.609 133.867C748.708 133.763 748.789 133.667 748.852 133.578H750.133ZM747.094 129.344C746.849 129.344 746.615 129.396 746.391 129.5C746.172 129.604 745.971 129.747 745.789 129.93C745.612 130.112 745.461 130.331 745.336 130.586C745.216 130.841 745.135 131.12 745.094 131.422H749.008C748.924 130.781 748.703 130.276 748.344 129.906C747.99 129.531 747.573 129.344 747.094 129.344ZM754.602 128.219C754.997 128.219 755.362 128.286 755.695 128.422C756.034 128.552 756.323 128.729 756.562 128.953C756.802 129.177 756.987 129.44 757.117 129.742C757.253 130.039 757.32 130.359 757.32 130.703V135.5H756.445L756.125 134.703C755.964 134.875 755.781 135.023 755.578 135.148C755.396 135.268 755.172 135.37 754.906 135.453C754.641 135.536 754.326 135.578 753.961 135.578C753.596 135.578 753.268 135.523 752.977 135.414C752.685 135.299 752.435 135.143 752.227 134.945C752.018 134.747 751.854 134.518 751.734 134.258C751.62 133.997 751.562 133.719 751.562 133.422C751.562 133.078 751.63 132.766 751.766 132.484C751.906 132.203 752.146 131.958 752.484 131.75C752.828 131.542 753.297 131.383 753.891 131.273C754.484 131.159 755.229 131.102 756.125 131.102V130.703C756.125 130.339 755.982 130.021 755.695 129.75C755.414 129.479 755.049 129.344 754.602 129.344C754.154 129.344 753.823 129.438 753.609 129.625C753.396 129.807 753.247 130.06 753.164 130.383H751.883C751.924 130.086 752.016 129.807 752.156 129.547C752.297 129.281 752.482 129.049 752.711 128.852C752.94 128.654 753.211 128.5 753.523 128.391C753.836 128.276 754.195 128.219 754.602 128.219ZM753.961 134.461C754.279 134.461 754.57 134.411 754.836 134.312C755.107 134.208 755.336 134.078 755.523 133.922C755.711 133.76 755.857 133.581 755.961 133.383C756.07 133.185 756.125 132.984 756.125 132.781V132.219C755.401 132.219 754.82 132.25 754.383 132.312C753.945 132.37 753.604 132.456 753.359 132.57C753.12 132.68 752.961 132.812 752.883 132.969C752.805 133.12 752.766 133.297 752.766 133.5C752.766 133.745 752.872 133.966 753.086 134.164C753.305 134.362 753.596 134.461 753.961 134.461ZM759.883 126.383H760.922V128.297H762.523V129.422H760.922V133.18C760.922 133.586 761.031 133.901 761.25 134.125C761.469 134.349 761.76 134.461 762.125 134.461C762.229 134.461 762.326 134.451 762.414 134.43C762.456 134.419 762.492 134.404 762.523 134.383V135.422C762.471 135.453 762.414 135.479 762.352 135.5C762.211 135.552 762.029 135.578 761.805 135.578C761.529 135.578 761.266 135.521 761.016 135.406C760.766 135.286 760.544 135.122 760.352 134.914C760.159 134.706 760.005 134.456 759.891 134.164C759.781 133.872 759.727 133.544 759.727 133.18V129.422H758.445V128.297H759.008C759.596 128.297 759.888 128.005 759.883 127.422V126.383ZM765.492 135.5H764.289V128.297H765.492V135.5ZM764.133 126.266C764.133 126.042 764.203 125.859 764.344 125.719C764.49 125.573 764.669 125.5 764.883 125.5C765.107 125.5 765.289 125.573 765.43 125.719C765.576 125.859 765.648 126.042 765.648 126.266C765.648 126.479 765.576 126.659 765.43 126.805C765.289 126.951 765.107 127.023 764.883 127.023C764.669 127.023 764.49 126.951 764.344 126.805C764.203 126.659 764.133 126.479 764.133 126.266ZM768.289 131.898C768.289 132.284 768.346 132.635 768.461 132.953C768.581 133.266 768.742 133.534 768.945 133.758C769.148 133.982 769.38 134.156 769.641 134.281C769.906 134.401 770.177 134.461 770.453 134.461C770.729 134.461 770.997 134.401 771.258 134.281C771.518 134.156 771.747 133.982 771.945 133.758C772.143 133.534 772.302 133.266 772.422 132.953C772.547 132.635 772.609 132.284 772.609 131.898C772.609 131.513 772.547 131.164 772.422 130.852C772.302 130.539 772.143 130.271 771.945 130.047C771.747 129.823 771.518 129.651 771.258 129.531C770.997 129.406 770.729 129.344 770.453 129.344C770.177 129.344 769.906 129.406 769.641 129.531C769.38 129.651 769.148 129.823 768.945 130.047C768.742 130.271 768.581 130.539 768.461 130.852C768.346 131.164 768.289 131.513 768.289 131.898ZM773.812 131.898C773.812 132.44 773.724 132.938 773.547 133.391C773.37 133.839 773.13 134.227 772.828 134.555C772.526 134.878 772.169 135.13 771.758 135.312C771.346 135.49 770.911 135.578 770.453 135.578C769.995 135.578 769.56 135.49 769.148 135.312C768.737 135.13 768.378 134.878 768.07 134.555C767.768 134.227 767.529 133.839 767.352 133.391C767.18 132.943 767.094 132.445 767.094 131.898C767.094 131.357 767.18 130.862 767.352 130.414C767.529 129.966 767.768 129.581 768.07 129.258C768.378 128.93 768.737 128.674 769.148 128.492C769.56 128.31 769.995 128.219 770.453 128.219C770.911 128.219 771.346 128.31 771.758 128.492C772.169 128.674 772.526 128.93 772.828 129.258C773.13 129.581 773.37 129.966 773.547 130.414C773.724 130.862 773.812 131.357 773.812 131.898ZM778.695 128.219C779.081 128.219 779.44 128.297 779.773 128.453C780.112 128.609 780.409 128.823 780.664 129.094C780.919 129.365 781.12 129.693 781.266 130.078C781.417 130.458 781.492 130.88 781.492 131.344V135.5H780.297V131.344C780.297 131.047 780.247 130.776 780.148 130.531C780.055 130.281 779.927 130.068 779.766 129.891C779.604 129.714 779.417 129.578 779.203 129.484C778.995 129.391 778.771 129.344 778.531 129.344C777.964 129.344 777.503 129.526 777.148 129.891C776.794 130.25 776.617 130.734 776.617 131.344V135.5H775.414V128.297H776.297L776.617 129.102C776.768 128.94 776.943 128.797 777.141 128.672C777.323 128.552 777.542 128.448 777.797 128.359C778.052 128.266 778.352 128.219 778.695 128.219Z" fill="#F5496B"/>
<rect x="661" y="226" width="402" height="48" rx="8" fill="#DBF1EE"/>
<rect opacity="0.3" x="669" y="244" width="2" height="12" rx="1" fill="#48CFAD"/>
<rect opacity="0.3" x="1051" y="244" width="2" height="12" rx="1" fill="#48CFAD"/>
<path d="M688.58 254.02C689.3 254.02 689.87 253.81 690.29 253.39C690.71 252.97 690.92 252.4 690.92 251.68V244.66H693.08V251.68C693.08 252.316 692.966 252.904 692.738 253.444C692.522 253.972 692.21 254.434 691.802 254.83C691.406 255.226 690.932 255.538 690.38 255.766C689.828 255.982 689.228 256.09 688.58 256.09C687.932 256.09 687.332 255.982 686.78 255.766C686.228 255.538 685.748 255.226 685.34 254.83C684.944 254.434 684.632 253.972 684.404 253.444C684.188 252.904 684.08 252.316 684.08 251.68V244.66H686.24V251.68C686.24 252.4 686.45 252.97 686.87 253.39C687.29 253.81 687.86 254.02 688.58 254.02ZM701.542 244.66H703.972L700.462 250.24L704.152 256H701.722L699.202 251.878L696.682 256H694.252L697.942 250.24L694.432 244.66H696.862L699.202 248.62L701.542 244.66ZM706.214 259.24H704.234L708.914 244.66H710.894L706.214 259.24ZM716.476 254.02C717.196 254.02 717.766 253.81 718.186 253.39C718.606 252.97 718.816 252.4 718.816 251.68V244.66H720.976V251.68C720.976 252.316 720.862 252.904 720.634 253.444C720.418 253.972 720.106 254.434 719.698 254.83C719.302 255.226 718.828 255.538 718.276 255.766C717.724 255.982 717.124 256.09 716.476 256.09C715.828 256.09 715.228 255.982 714.676 255.766C714.124 255.538 713.644 255.226 713.236 254.83C712.84 254.434 712.528 253.972 712.3 253.444C712.084 252.904 711.976 252.316 711.976 251.68V244.66H714.136V251.68C714.136 252.4 714.346 252.97 714.766 253.39C715.186 253.81 715.756 254.02 716.476 254.02ZM725.389 256H723.229V244.66H725.389V256Z" fill="#48CFAD"/>
<path d="M739.719 245.422C740.156 245.422 740.57 245.505 740.961 245.672C741.352 245.833 741.69 246.06 741.977 246.352C742.263 246.638 742.492 246.971 742.664 247.352C742.836 247.727 742.922 248.122 742.922 248.539C742.922 248.956 742.836 249.354 742.664 249.734C742.492 250.109 742.263 250.443 741.977 250.734C741.69 251.021 741.352 251.247 740.961 251.414C740.57 251.576 740.156 251.656 739.719 251.656H737.562V255.5H736.281V245.422H739.719ZM739.719 250.539C739.974 250.539 740.219 250.49 740.453 250.391C740.688 250.286 740.893 250.146 741.07 249.969C741.247 249.786 741.385 249.573 741.484 249.328C741.589 249.078 741.641 248.815 741.641 248.539C741.641 248.263 741.589 248.003 741.484 247.758C741.385 247.513 741.247 247.299 741.07 247.117C740.893 246.935 740.688 246.794 740.453 246.695C740.219 246.591 739.974 246.539 739.719 246.539H737.562V250.539H739.719ZM748.039 249.422H747.719C747.151 249.422 746.69 249.604 746.336 249.969C745.982 250.328 745.805 250.812 745.805 251.422V255.5H744.602V248.297H745.484L745.805 249.102C745.956 248.94 746.13 248.797 746.328 248.672C746.51 248.552 746.729 248.448 746.984 248.359C747.24 248.266 747.539 248.219 747.883 248.219H748.039V249.422ZM750.039 251.898C750.039 252.284 750.096 252.635 750.211 252.953C750.331 253.266 750.492 253.534 750.695 253.758C750.898 253.982 751.13 254.156 751.391 254.281C751.656 254.401 751.927 254.461 752.203 254.461C752.479 254.461 752.747 254.401 753.008 254.281C753.268 254.156 753.497 253.982 753.695 253.758C753.893 253.534 754.052 253.266 754.172 252.953C754.297 252.635 754.359 252.284 754.359 251.898C754.359 251.513 754.297 251.164 754.172 250.852C754.052 250.539 753.893 250.271 753.695 250.047C753.497 249.823 753.268 249.651 753.008 249.531C752.747 249.406 752.479 249.344 752.203 249.344C751.927 249.344 751.656 249.406 751.391 249.531C751.13 249.651 750.898 249.823 750.695 250.047C750.492 250.271 750.331 250.539 750.211 250.852C750.096 251.164 750.039 251.513 750.039 251.898ZM755.562 251.898C755.562 252.44 755.474 252.938 755.297 253.391C755.12 253.839 754.88 254.227 754.578 254.555C754.276 254.878 753.919 255.13 753.508 255.312C753.096 255.49 752.661 255.578 752.203 255.578C751.745 255.578 751.31 255.49 750.898 255.312C750.487 255.13 750.128 254.878 749.82 254.555C749.518 254.227 749.279 253.839 749.102 253.391C748.93 252.943 748.844 252.445 748.844 251.898C748.844 251.357 748.93 250.862 749.102 250.414C749.279 249.966 749.518 249.581 749.82 249.258C750.128 248.93 750.487 248.674 750.898 248.492C751.31 248.31 751.745 248.219 752.203 248.219C752.661 248.219 753.096 248.31 753.508 248.492C753.919 248.674 754.276 248.93 754.578 249.258C754.88 249.581 755.12 249.966 755.297 250.414C755.474 250.862 755.562 251.357 755.562 251.898ZM757.883 246.383H758.922V248.297H760.523V249.422H758.922V253.18C758.922 253.586 759.031 253.901 759.25 254.125C759.469 254.349 759.76 254.461 760.125 254.461C760.229 254.461 760.326 254.451 760.414 254.43C760.456 254.419 760.492 254.404 760.523 254.383V255.422C760.471 255.453 760.414 255.479 760.352 255.5C760.211 255.552 760.029 255.578 759.805 255.578C759.529 255.578 759.266 255.521 759.016 255.406C758.766 255.286 758.544 255.122 758.352 254.914C758.159 254.706 758.005 254.456 757.891 254.164C757.781 253.872 757.727 253.544 757.727 253.18V249.422H756.445V248.297H757.008C757.596 248.297 757.888 248.005 757.883 247.422V246.383ZM762.852 251.898C762.852 252.284 762.909 252.635 763.023 252.953C763.143 253.266 763.305 253.534 763.508 253.758C763.711 253.982 763.943 254.156 764.203 254.281C764.469 254.401 764.74 254.461 765.016 254.461C765.292 254.461 765.56 254.401 765.82 254.281C766.081 254.156 766.31 253.982 766.508 253.758C766.706 253.534 766.865 253.266 766.984 252.953C767.109 252.635 767.172 252.284 767.172 251.898C767.172 251.513 767.109 251.164 766.984 250.852C766.865 250.539 766.706 250.271 766.508 250.047C766.31 249.823 766.081 249.651 765.82 249.531C765.56 249.406 765.292 249.344 765.016 249.344C764.74 249.344 764.469 249.406 764.203 249.531C763.943 249.651 763.711 249.823 763.508 250.047C763.305 250.271 763.143 250.539 763.023 250.852C762.909 251.164 762.852 251.513 762.852 251.898ZM768.375 251.898C768.375 252.44 768.286 252.938 768.109 253.391C767.932 253.839 767.693 254.227 767.391 254.555C767.089 254.878 766.732 255.13 766.32 255.312C765.909 255.49 765.474 255.578 765.016 255.578C764.557 255.578 764.122 255.49 763.711 255.312C763.299 255.13 762.94 254.878 762.633 254.555C762.331 254.227 762.091 253.839 761.914 253.391C761.742 252.943 761.656 252.445 761.656 251.898C761.656 251.357 761.742 250.862 761.914 250.414C762.091 249.966 762.331 249.581 762.633 249.258C762.94 248.93 763.299 248.674 763.711 248.492C764.122 248.31 764.557 248.219 765.016 248.219C765.474 248.219 765.909 248.31 766.32 248.492C766.732 248.674 767.089 248.93 767.391 249.258C767.693 249.581 767.932 249.966 768.109 250.414C768.286 250.862 768.375 251.357 768.375 251.898ZM770.695 246.383H771.734V248.297H773.336V249.422H771.734V253.18C771.734 253.586 771.844 253.901 772.062 254.125C772.281 254.349 772.573 254.461 772.938 254.461C773.042 254.461 773.138 254.451 773.227 254.43C773.268 254.419 773.305 254.404 773.336 254.383V255.422C773.284 255.453 773.227 255.479 773.164 255.5C773.023 255.552 772.841 255.578 772.617 255.578C772.341 255.578 772.078 255.521 771.828 255.406C771.578 255.286 771.357 255.122 771.164 254.914C770.971 254.706 770.818 254.456 770.703 254.164C770.594 253.872 770.539 253.544 770.539 253.18V249.422H769.258V248.297H769.82C770.409 248.297 770.701 248.005 770.695 247.422V246.383ZM774.141 248.297H775.422L777.586 253.82L779.742 248.297H781.023L777.906 256.141C777.62 256.865 777.318 257.378 777 257.68C776.688 257.987 776.297 258.141 775.828 258.141C775.766 258.141 775.706 258.138 775.648 258.133C775.596 258.128 775.544 258.12 775.492 258.109C775.44 258.099 775.391 258.083 775.344 258.062V257.102C775.708 257.102 775.979 257.021 776.156 256.859C776.339 256.698 776.495 256.458 776.625 256.141L776.945 255.344L774.141 248.297ZM783.266 251.898C783.266 252.284 783.326 252.635 783.445 252.953C783.57 253.266 783.734 253.534 783.938 253.758C784.141 253.982 784.378 254.156 784.648 254.281C784.924 254.401 785.211 254.461 785.508 254.461C785.805 254.461 786.089 254.401 786.359 254.281C786.635 254.156 786.875 253.982 787.078 253.758C787.281 253.534 787.443 253.266 787.562 252.953C787.688 252.635 787.75 252.284 787.75 251.898C787.75 251.513 787.688 251.164 787.562 250.852C787.443 250.539 787.281 250.271 787.078 250.047C786.875 249.823 786.635 249.651 786.359 249.531C786.089 249.406 785.805 249.344 785.508 249.344C785.211 249.344 784.924 249.406 784.648 249.531C784.378 249.651 784.141 249.823 783.938 250.047C783.734 250.271 783.57 250.539 783.445 250.852C783.326 251.164 783.266 251.513 783.266 251.898ZM783.43 249.102C783.581 248.94 783.76 248.797 783.969 248.672C784.151 248.552 784.375 248.448 784.641 248.359C784.911 248.266 785.227 248.219 785.586 248.219C786.044 248.219 786.479 248.31 786.891 248.492C787.302 248.674 787.659 248.93 787.961 249.258C788.268 249.581 788.508 249.966 788.68 250.414C788.857 250.862 788.945 251.357 788.945 251.898C788.945 252.44 788.857 252.938 788.68 253.391C788.508 253.839 788.268 254.227 787.961 254.555C787.659 254.878 787.302 255.13 786.891 255.312C786.479 255.49 786.044 255.578 785.586 255.578C785.221 255.578 784.906 255.529 784.641 255.43C784.375 255.326 784.151 255.216 783.969 255.102C783.755 254.961 783.576 254.799 783.43 254.617V258.062H782.227V248.297H783.109L783.43 249.102ZM791.742 255.5H790.539V248.297H791.742V255.5ZM790.383 246.266C790.383 246.042 790.453 245.859 790.594 245.719C790.74 245.573 790.919 245.5 791.133 245.5C791.357 245.5 791.539 245.573 791.68 245.719C791.826 245.859 791.898 246.042 791.898 246.266C791.898 246.479 791.826 246.659 791.68 246.805C791.539 246.951 791.357 247.023 791.133 247.023C790.919 247.023 790.74 246.951 790.594 246.805C790.453 246.659 790.383 246.479 790.383 246.266ZM797.102 248.219C797.487 248.219 797.846 248.297 798.18 248.453C798.518 248.609 798.815 248.823 799.07 249.094C799.326 249.365 799.526 249.693 799.672 250.078C799.823 250.458 799.898 250.88 799.898 251.344V255.5H798.703V251.344C798.703 251.047 798.654 250.776 798.555 250.531C798.461 250.281 798.333 250.068 798.172 249.891C798.01 249.714 797.823 249.578 797.609 249.484C797.401 249.391 797.177 249.344 796.938 249.344C796.37 249.344 795.909 249.526 795.555 249.891C795.201 250.25 795.023 250.734 795.023 251.344V255.5H793.82V248.297H794.703L795.023 249.102C795.174 248.94 795.349 248.797 795.547 248.672C795.729 248.552 795.948 248.448 796.203 248.359C796.458 248.266 796.758 248.219 797.102 248.219ZM806.781 254.297C806.641 254.479 806.474 254.641 806.281 254.781C806.109 254.901 805.893 255.01 805.633 255.109C805.372 255.208 805.062 255.258 804.703 255.258C804.245 255.258 803.815 255.174 803.414 255.008C803.013 254.836 802.664 254.596 802.367 254.289C802.076 253.977 801.844 253.604 801.672 253.172C801.505 252.74 801.422 252.263 801.422 251.742C801.422 251.221 801.505 250.745 801.672 250.312C801.844 249.875 802.076 249.503 802.367 249.195C802.664 248.888 803.01 248.648 803.406 248.477C803.807 248.305 804.24 248.219 804.703 248.219C805.068 248.219 805.38 248.266 805.641 248.359C805.901 248.448 806.115 248.552 806.281 248.672C806.474 248.802 806.641 248.945 806.781 249.102L807.102 248.297H807.977V255.258C807.977 255.674 807.898 256.062 807.742 256.422C807.591 256.786 807.375 257.102 807.094 257.367C806.818 257.638 806.482 257.846 806.086 257.992C805.695 258.143 805.26 258.219 804.781 258.219C804.365 258.219 803.99 258.161 803.656 258.047C803.328 257.938 803.042 257.784 802.797 257.586C802.552 257.388 802.346 257.159 802.18 256.898C802.013 256.638 801.893 256.359 801.82 256.062H803.016C803.135 256.339 803.328 256.581 803.594 256.789C803.859 256.997 804.255 257.102 804.781 257.102C805.391 257.102 805.875 256.924 806.234 256.57C806.599 256.221 806.781 255.784 806.781 255.258V254.297ZM802.617 251.742C802.617 252.107 802.672 252.435 802.781 252.727C802.896 253.018 803.052 253.268 803.25 253.477C803.448 253.685 803.677 253.849 803.938 253.969C804.198 254.083 804.479 254.141 804.781 254.141C805.078 254.141 805.357 254.083 805.617 253.969C805.878 253.849 806.107 253.685 806.305 253.477C806.503 253.268 806.656 253.018 806.766 252.727C806.88 252.43 806.938 252.102 806.938 251.742C806.938 251.378 806.88 251.049 806.766 250.758C806.656 250.461 806.503 250.211 806.305 250.008C806.107 249.799 805.878 249.638 805.617 249.523C805.357 249.404 805.078 249.344 804.781 249.344C804.484 249.344 804.203 249.404 803.938 249.523C803.677 249.638 803.448 249.799 803.25 250.008C803.052 250.211 802.896 250.461 802.781 250.758C802.672 251.049 802.617 251.378 802.617 251.742Z" fill="#48CFAD"/>
<rect x="1007" y="166" width="188" height="48" rx="8" fill="#DAE6FB"/>
<rect opacity="0.3" x="1015" y="184" width="2" height="12" rx="1" fill="#4285FF"/>
<rect opacity="0.3" x="1183" y="184" width="2" height="12" rx="1" fill="#4285FF"/>
<path d="M1033.77 193.93C1034.21 193.93 1034.64 193.834 1035.05 193.642C1035.47 193.45 1035.83 193.192 1036.15 192.868C1036.47 192.544 1036.72 192.166 1036.9 191.734C1037.09 191.29 1037.19 190.822 1037.19 190.33C1037.19 189.838 1037.09 189.376 1036.9 188.944C1036.72 188.5 1036.47 188.116 1036.15 187.792C1035.83 187.468 1035.47 187.21 1035.05 187.018C1034.64 186.826 1034.21 186.73 1033.77 186.73H1032.33V193.93H1033.77ZM1030.17 196V184.66H1033.77C1034.51 184.66 1035.22 184.816 1035.89 185.128C1036.57 185.428 1037.16 185.836 1037.68 186.352C1038.19 186.868 1038.6 187.468 1038.9 188.152C1039.2 188.836 1039.35 189.562 1039.35 190.33C1039.35 191.098 1039.2 191.824 1038.9 192.508C1038.6 193.192 1038.19 193.792 1037.68 194.308C1037.16 194.824 1036.57 195.238 1035.89 195.55C1035.22 195.85 1034.51 196 1033.77 196H1030.17ZM1048.27 193.48C1048.16 193.792 1047.99 194.104 1047.76 194.416C1047.55 194.728 1047.28 195.01 1046.95 195.262C1046.64 195.502 1046.28 195.7 1045.87 195.856C1045.48 196.012 1045.05 196.09 1044.58 196.09C1044.01 196.09 1043.48 195.982 1042.98 195.766C1042.48 195.538 1042.05 195.232 1041.66 194.848C1041.29 194.464 1040.99 194.02 1040.76 193.516C1040.55 193 1040.44 192.448 1040.44 191.86C1040.44 191.272 1040.55 190.726 1040.76 190.222C1040.99 189.706 1041.29 189.256 1041.66 188.872C1042.05 188.488 1042.48 188.188 1042.98 187.972C1043.48 187.744 1044.01 187.63 1044.58 187.63C1045.12 187.63 1045.63 187.732 1046.11 187.936C1046.59 188.14 1047.01 188.428 1047.37 188.8C1047.73 189.172 1048.01 189.622 1048.21 190.15C1048.43 190.666 1048.54 191.236 1048.54 191.86C1048.54 191.956 1048.53 192.052 1048.52 192.148C1048.51 192.232 1048.5 192.316 1048.48 192.4C1048.47 192.496 1048.46 192.586 1048.45 192.67H1042.69C1042.78 193.078 1042.99 193.42 1043.3 193.696C1043.61 193.972 1044.04 194.11 1044.58 194.11C1044.85 194.11 1045.08 194.08 1045.26 194.02C1045.45 193.96 1045.62 193.888 1045.75 193.804C1045.89 193.708 1046.01 193.6 1046.11 193.48H1048.27ZM1044.58 189.61C1044.04 189.61 1043.59 189.766 1043.25 190.078C1042.91 190.39 1042.69 190.774 1042.6 191.23H1046.56C1046.46 190.774 1046.24 190.39 1045.89 190.078C1045.56 189.766 1045.12 189.61 1044.58 189.61ZM1057.36 187.72L1054.21 196H1052.23L1049.08 187.72H1051.24L1053.22 193.444L1055.2 187.72H1057.36ZM1065.81 193.48C1065.7 193.792 1065.54 194.104 1065.31 194.416C1065.09 194.728 1064.82 195.01 1064.5 195.262C1064.19 195.502 1063.83 195.7 1063.42 195.856C1063.02 196.012 1062.59 196.09 1062.12 196.09C1061.56 196.09 1061.02 195.982 1060.52 195.766C1060.03 195.538 1059.59 195.232 1059.21 194.848C1058.83 194.464 1058.53 194.02 1058.31 193.516C1058.09 193 1057.98 192.448 1057.98 191.86C1057.98 191.272 1058.09 190.726 1058.31 190.222C1058.53 189.706 1058.83 189.256 1059.21 188.872C1059.59 188.488 1060.03 188.188 1060.52 187.972C1061.02 187.744 1061.56 187.63 1062.12 187.63C1062.66 187.63 1063.17 187.732 1063.65 187.936C1064.13 188.14 1064.55 188.428 1064.91 188.8C1065.27 189.172 1065.55 189.622 1065.76 190.15C1065.97 190.666 1066.08 191.236 1066.08 191.86C1066.08 191.956 1066.08 192.052 1066.06 192.148C1066.05 192.232 1066.04 192.316 1066.03 192.4C1066.02 192.496 1066 192.586 1065.99 192.67H1060.23C1060.33 193.078 1060.53 193.42 1060.84 193.696C1061.16 193.972 1061.58 194.11 1062.12 194.11C1062.4 194.11 1062.63 194.08 1062.81 194.02C1063 193.96 1063.16 193.888 1063.29 193.804C1063.44 193.708 1063.56 193.6 1063.65 193.48H1065.81ZM1062.12 189.61C1061.58 189.61 1061.14 189.766 1060.79 190.078C1060.45 190.39 1060.24 190.774 1060.14 191.23H1064.1C1064.01 190.774 1063.78 190.39 1063.44 190.078C1063.1 189.766 1062.66 189.61 1062.12 189.61ZM1069.68 196H1067.61V184.66H1069.68V196ZM1073.27 191.86C1073.27 192.544 1073.47 193.09 1073.86 193.498C1074.26 193.906 1074.75 194.11 1075.34 194.11C1075.93 194.11 1076.42 193.906 1076.82 193.498C1077.21 193.09 1077.41 192.544 1077.41 191.86C1077.41 191.176 1077.21 190.63 1076.82 190.222C1076.42 189.814 1075.93 189.61 1075.34 189.61C1074.75 189.61 1074.26 189.814 1073.86 190.222C1073.47 190.63 1073.27 191.176 1073.27 191.86ZM1079.48 191.86C1079.48 192.448 1079.37 193 1079.14 193.516C1078.92 194.02 1078.62 194.464 1078.24 194.848C1077.87 195.232 1077.43 195.538 1076.92 195.766C1076.43 195.982 1075.9 196.09 1075.34 196.09C1074.78 196.09 1074.24 195.982 1073.74 195.766C1073.25 195.538 1072.81 195.232 1072.42 194.848C1072.05 194.464 1071.75 194.02 1071.52 193.516C1071.31 193 1071.2 192.448 1071.2 191.86C1071.2 191.272 1071.31 190.726 1071.52 190.222C1071.75 189.706 1072.05 189.256 1072.42 188.872C1072.81 188.488 1073.25 188.188 1073.74 187.972C1074.24 187.744 1074.78 187.63 1075.34 187.63C1075.9 187.63 1076.43 187.744 1076.92 187.972C1077.43 188.188 1077.87 188.488 1078.24 188.872C1078.62 189.256 1078.92 189.706 1079.14 190.222C1079.37 190.726 1079.48 191.272 1079.48 191.86ZM1085.23 187.63C1085.75 187.63 1086.24 187.738 1086.71 187.954C1087.18 188.158 1087.58 188.452 1087.93 188.836C1088.29 189.208 1088.57 189.652 1088.78 190.168C1088.99 190.684 1089.1 191.248 1089.1 191.86C1089.1 192.472 1088.99 193.036 1088.78 193.552C1088.57 194.068 1088.29 194.518 1087.93 194.902C1087.58 195.274 1087.18 195.568 1086.71 195.784C1086.24 195.988 1085.75 196.09 1085.23 196.09C1084.88 196.09 1084.58 196.048 1084.31 195.964C1084.06 195.88 1083.84 195.79 1083.65 195.694C1083.43 195.574 1083.24 195.436 1083.07 195.28V198.88H1081V187.72H1082.53L1082.89 188.53C1083.07 188.362 1083.28 188.212 1083.52 188.08C1083.73 187.972 1083.97 187.87 1084.26 187.774C1084.55 187.678 1084.87 187.63 1085.23 187.63ZM1082.89 191.86C1082.89 192.544 1083.09 193.09 1083.49 193.498C1083.88 193.906 1084.37 194.11 1084.96 194.11C1085.55 194.11 1086.04 193.906 1086.44 193.498C1086.83 193.09 1087.03 192.544 1087.03 191.86C1087.03 191.176 1086.83 190.63 1086.44 190.222C1086.04 189.814 1085.55 189.61 1084.96 189.61C1084.37 189.61 1083.88 189.814 1083.49 190.222C1083.09 190.63 1082.89 191.176 1082.89 191.86ZM1094.5 187.63C1094.92 187.63 1095.28 187.69 1095.58 187.81C1095.88 187.918 1096.13 188.038 1096.32 188.17C1096.54 188.326 1096.71 188.506 1096.84 188.71C1097.04 188.506 1097.26 188.326 1097.51 188.17C1097.73 188.038 1097.98 187.918 1098.28 187.81C1098.58 187.69 1098.91 187.63 1099.27 187.63C1100.17 187.63 1100.89 187.918 1101.43 188.494C1101.97 189.07 1102.24 189.922 1102.24 191.05V196H1100.17V191.23C1100.17 190.726 1100.04 190.33 1099.76 190.042C1099.5 189.754 1099.18 189.61 1098.82 189.61C1098.46 189.61 1098.15 189.754 1097.87 190.042C1097.61 190.33 1097.47 190.726 1097.47 191.23V196H1095.4V191.23C1095.4 190.726 1095.27 190.33 1094.99 190.042C1094.73 189.754 1094.41 189.61 1094.05 189.61C1093.69 189.61 1093.38 189.754 1093.1 190.042C1092.84 190.33 1092.7 190.726 1092.7 191.23V196H1090.63V187.72H1092.16L1092.52 188.53C1092.69 188.362 1092.88 188.212 1093.08 188.08C1093.25 187.972 1093.45 187.87 1093.69 187.774C1093.93 187.678 1094.2 187.63 1094.5 187.63ZM1111.51 193.48C1111.41 193.792 1111.24 194.104 1111.01 194.416C1110.79 194.728 1110.52 195.01 1110.2 195.262C1109.89 195.502 1109.53 195.7 1109.12 195.856C1108.72 196.012 1108.29 196.09 1107.82 196.09C1107.26 196.09 1106.73 195.982 1106.22 195.766C1105.73 195.538 1105.29 195.232 1104.91 194.848C1104.54 194.464 1104.24 194.02 1104.01 193.516C1103.79 193 1103.68 192.448 1103.68 191.86C1103.68 191.272 1103.79 190.726 1104.01 190.222C1104.24 189.706 1104.54 189.256 1104.91 188.872C1105.29 188.488 1105.73 188.188 1106.22 187.972C1106.73 187.744 1107.26 187.63 1107.82 187.63C1108.36 187.63 1108.87 187.732 1109.35 187.936C1109.83 188.14 1110.25 188.428 1110.61 188.8C1110.97 189.172 1111.26 189.622 1111.46 190.15C1111.68 190.666 1111.78 191.236 1111.78 191.86C1111.78 191.956 1111.78 192.052 1111.77 192.148C1111.75 192.232 1111.74 192.316 1111.73 192.4C1111.72 192.496 1111.71 192.586 1111.69 192.67H1105.93C1106.03 193.078 1106.23 193.42 1106.55 193.696C1106.86 193.972 1107.28 194.11 1107.82 194.11C1108.1 194.11 1108.33 194.08 1108.51 194.02C1108.7 193.96 1108.86 193.888 1108.99 193.804C1109.14 193.708 1109.26 193.6 1109.35 193.48H1111.51ZM1107.82 189.61C1107.28 189.61 1106.84 189.766 1106.49 190.078C1106.16 190.39 1105.94 190.774 1105.84 191.23H1109.8C1109.71 190.774 1109.49 190.39 1109.14 190.078C1108.8 189.766 1108.36 189.61 1107.82 189.61ZM1117.54 187.63C1118.03 187.63 1118.48 187.714 1118.89 187.882C1119.3 188.038 1119.65 188.272 1119.93 188.584C1120.23 188.884 1120.46 189.25 1120.62 189.682C1120.79 190.114 1120.87 190.6 1120.87 191.14V196H1118.8V191.41C1118.8 190.87 1118.64 190.438 1118.31 190.114C1118 189.778 1117.59 189.61 1117.09 189.61C1116.59 189.61 1116.17 189.778 1115.85 190.114C1115.54 190.438 1115.38 190.87 1115.38 191.41V196H1113.31V187.72H1114.84L1115.2 188.53C1115.4 188.362 1115.63 188.212 1115.87 188.08C1116.07 187.972 1116.31 187.87 1116.59 187.774C1116.87 187.678 1117.19 187.63 1117.54 187.63ZM1123.67 185.74H1125.47V187.72H1127.27V189.61H1125.47V193.03C1125.47 193.39 1125.57 193.678 1125.77 193.894C1125.99 194.098 1126.28 194.2 1126.64 194.2C1126.73 194.2 1126.81 194.2 1126.87 194.2C1126.93 194.188 1126.99 194.176 1127.03 194.164C1127.08 194.152 1127.13 194.134 1127.18 194.11V195.91C1127.09 195.946 1127 195.976 1126.89 196C1126.69 196.06 1126.45 196.09 1126.19 196.09C1125.78 196.09 1125.4 196.024 1125.05 195.892C1124.72 195.748 1124.42 195.544 1124.17 195.28C1123.93 195.016 1123.74 194.704 1123.6 194.344C1123.46 193.984 1123.4 193.576 1123.4 193.12V189.61H1122.14V187.9H1122.68C1123.34 187.9 1123.67 187.57 1123.67 186.91V185.74Z" fill="#4285FF"/>
<path d="M1136.72 188.062C1136.72 187.719 1136.8 187.385 1136.96 187.062C1137.12 186.734 1137.35 186.443 1137.64 186.188C1137.93 185.932 1138.28 185.729 1138.68 185.578C1139.08 185.422 1139.52 185.344 1140 185.344C1140.44 185.344 1140.84 185.424 1141.22 185.586C1141.6 185.742 1141.93 185.956 1142.21 186.227C1142.5 186.497 1142.72 186.82 1142.88 187.195C1143.04 187.57 1143.12 187.966 1143.12 188.383H1141.84C1141.84 187.815 1141.67 187.354 1141.31 187C1140.96 186.641 1140.52 186.461 1140 186.461C1139.7 186.461 1139.43 186.508 1139.18 186.602C1138.93 186.69 1138.72 186.81 1138.55 186.961C1138.38 187.107 1138.24 187.276 1138.14 187.469C1138.05 187.661 1138 187.859 1138 188.062C1138 188.479 1138.13 188.802 1138.4 189.031C1138.66 189.26 1138.99 189.453 1139.39 189.609C1139.79 189.76 1140.22 189.904 1140.68 190.039C1141.14 190.169 1141.57 190.344 1141.97 190.562C1142.36 190.781 1142.7 191.07 1142.96 191.43C1143.23 191.784 1143.36 192.26 1143.36 192.859C1143.36 193.224 1143.28 193.57 1143.12 193.898C1142.97 194.221 1142.75 194.508 1142.46 194.758C1142.17 195.008 1141.82 195.208 1141.41 195.359C1140.99 195.505 1140.52 195.578 1140 195.578C1139.48 195.578 1139.01 195.505 1138.59 195.359C1138.18 195.208 1137.82 194.997 1137.53 194.727C1137.24 194.451 1137.02 194.128 1136.87 193.758C1136.72 193.383 1136.64 192.977 1136.64 192.539H1137.92C1137.92 193.148 1138.1 193.622 1138.45 193.961C1138.8 194.294 1139.32 194.461 1140 194.461C1140.68 194.461 1141.2 194.307 1141.55 194C1141.9 193.688 1142.08 193.307 1142.08 192.859C1142.08 192.443 1141.95 192.12 1141.68 191.891C1141.41 191.661 1141.08 191.471 1140.69 191.32C1140.29 191.164 1139.86 191.021 1139.4 190.891C1138.93 190.755 1138.51 190.578 1138.11 190.359C1137.72 190.141 1137.39 189.854 1137.12 189.5C1136.85 189.141 1136.72 188.661 1136.72 188.062ZM1150.8 193.578C1150.68 193.833 1150.53 194.086 1150.35 194.336C1150.17 194.581 1149.96 194.794 1149.71 194.977C1149.47 195.154 1149.19 195.299 1148.88 195.414C1148.57 195.523 1148.22 195.578 1147.84 195.578C1147.39 195.578 1146.95 195.49 1146.54 195.312C1146.13 195.13 1145.77 194.878 1145.46 194.555C1145.16 194.227 1144.92 193.839 1144.74 193.391C1144.57 192.943 1144.48 192.445 1144.48 191.898C1144.48 191.357 1144.57 190.862 1144.74 190.414C1144.92 189.966 1145.16 189.581 1145.45 189.258C1145.76 188.93 1146.11 188.674 1146.51 188.492C1146.91 188.31 1147.33 188.219 1147.77 188.219C1148.2 188.219 1148.61 188.305 1149 188.477C1149.39 188.648 1149.73 188.893 1150.02 189.211C1150.31 189.523 1150.54 189.901 1150.7 190.344C1150.88 190.786 1150.96 191.279 1150.96 191.82C1150.96 191.924 1150.96 192.016 1150.95 192.094C1150.93 192.167 1150.92 192.229 1150.91 192.281C1150.9 192.344 1150.89 192.404 1150.88 192.461H1145.77C1145.79 192.716 1145.86 192.966 1145.98 193.211C1146.1 193.456 1146.26 193.669 1146.44 193.852C1146.62 194.034 1146.84 194.182 1147.09 194.297C1147.34 194.406 1147.59 194.461 1147.84 194.461C1148.07 194.461 1148.27 194.43 1148.44 194.367C1148.61 194.299 1148.78 194.224 1148.92 194.141C1149.07 194.057 1149.19 193.966 1149.28 193.867C1149.38 193.763 1149.46 193.667 1149.52 193.578H1150.8ZM1147.77 189.344C1147.52 189.344 1147.29 189.396 1147.06 189.5C1146.84 189.604 1146.64 189.747 1146.46 189.93C1146.28 190.112 1146.13 190.331 1146.01 190.586C1145.89 190.841 1145.81 191.12 1145.77 191.422H1149.68C1149.6 190.781 1149.38 190.276 1149.02 189.906C1148.66 189.531 1148.24 189.344 1147.77 189.344ZM1153.27 186.383H1154.31V188.297H1155.91V189.422H1154.31V193.18C1154.31 193.586 1154.42 193.901 1154.64 194.125C1154.86 194.349 1155.15 194.461 1155.52 194.461C1155.62 194.461 1155.72 194.451 1155.8 194.43C1155.85 194.419 1155.88 194.404 1155.91 194.383V195.422C1155.86 195.453 1155.8 195.479 1155.74 195.5C1155.6 195.552 1155.42 195.578 1155.2 195.578C1154.92 195.578 1154.66 195.521 1154.41 195.406C1154.16 195.286 1153.93 195.122 1153.74 194.914C1153.55 194.706 1153.4 194.456 1153.28 194.164C1153.17 193.872 1153.12 193.544 1153.12 193.18V189.422H1151.84V188.297H1152.4C1152.99 188.297 1153.28 188.005 1153.27 187.422V186.383ZM1160.41 195.578C1160.02 195.578 1159.66 195.503 1159.32 195.352C1158.99 195.195 1158.69 194.982 1158.43 194.711C1158.17 194.435 1157.97 194.107 1157.82 193.727C1157.67 193.341 1157.6 192.919 1157.6 192.461V188.297H1158.8V192.461C1158.8 192.758 1158.85 193.029 1158.94 193.273C1159.03 193.518 1159.16 193.729 1159.31 193.906C1159.47 194.083 1159.66 194.221 1159.88 194.32C1160.09 194.414 1160.32 194.461 1160.56 194.461C1161.13 194.461 1161.59 194.281 1161.95 193.922C1162.3 193.557 1162.48 193.07 1162.48 192.461V188.297H1163.68V195.5H1162.8L1162.48 194.703C1162.33 194.875 1162.16 195.023 1161.95 195.148C1161.77 195.268 1161.55 195.37 1161.3 195.453C1161.05 195.536 1160.75 195.578 1160.41 195.578ZM1166.8 191.898C1166.8 192.284 1166.86 192.635 1166.98 192.953C1167.1 193.266 1167.27 193.534 1167.47 193.758C1167.67 193.982 1167.91 194.156 1168.18 194.281C1168.46 194.401 1168.74 194.461 1169.04 194.461C1169.34 194.461 1169.62 194.401 1169.89 194.281C1170.17 194.156 1170.41 193.982 1170.61 193.758C1170.81 193.534 1170.97 193.266 1171.09 192.953C1171.22 192.635 1171.28 192.284 1171.28 191.898C1171.28 191.513 1171.22 191.164 1171.09 190.852C1170.97 190.539 1170.81 190.271 1170.61 190.047C1170.41 189.823 1170.17 189.651 1169.89 189.531C1169.62 189.406 1169.34 189.344 1169.04 189.344C1168.74 189.344 1168.46 189.406 1168.18 189.531C1167.91 189.651 1167.67 189.823 1167.47 190.047C1167.27 190.271 1167.1 190.539 1166.98 190.852C1166.86 191.164 1166.8 191.513 1166.8 191.898ZM1166.96 189.102C1167.11 188.94 1167.29 188.797 1167.5 188.672C1167.68 188.552 1167.91 188.448 1168.17 188.359C1168.44 188.266 1168.76 188.219 1169.12 188.219C1169.58 188.219 1170.01 188.31 1170.42 188.492C1170.83 188.674 1171.19 188.93 1171.49 189.258C1171.8 189.581 1172.04 189.966 1172.21 190.414C1172.39 190.862 1172.48 191.357 1172.48 191.898C1172.48 192.44 1172.39 192.938 1172.21 193.391C1172.04 193.839 1171.8 194.227 1171.49 194.555C1171.19 194.878 1170.83 195.13 1170.42 195.312C1170.01 195.49 1169.58 195.578 1169.12 195.578C1168.75 195.578 1168.44 195.529 1168.17 195.43C1167.91 195.326 1167.68 195.216 1167.5 195.102C1167.29 194.961 1167.11 194.799 1166.96 194.617V198.062H1165.76V188.297H1166.64L1166.96 189.102Z" fill="#4285FF"/>
<rect x="795" y="286" width="268" height="48" rx="8" fill="#DAE6FB"/>
<rect opacity="0.3" x="803" y="304" width="2" height="12" rx="1" fill="#4285FF"/>
<rect opacity="0.3" x="1051" y="304" width="2" height="12" rx="1" fill="#4285FF"/>
<path d="M822.58 314.02C823.3 314.02 823.87 313.81 824.29 313.39C824.71 312.97 824.92 312.4 824.92 311.68V304.66H827.08V311.68C827.08 312.316 826.966 312.904 826.738 313.444C826.522 313.972 826.21 314.434 825.802 314.83C825.406 315.226 824.932 315.538 824.38 315.766C823.828 315.982 823.228 316.09 822.58 316.09C821.932 316.09 821.332 315.982 820.78 315.766C820.228 315.538 819.748 315.226 819.34 314.83C818.944 314.434 818.632 313.972 818.404 313.444C818.188 312.904 818.08 312.316 818.08 311.68V304.66H820.24V311.68C820.24 312.4 820.45 312.97 820.87 313.39C821.29 313.81 821.86 314.02 822.58 314.02ZM830.682 313.39C830.73 313.666 830.862 313.9 831.078 314.092C831.294 314.284 831.582 314.38 831.942 314.38C832.302 314.38 832.584 314.29 832.788 314.11C833.004 313.918 833.112 313.708 833.112 313.48C833.112 313.288 833.004 313.138 832.788 313.03C832.584 312.922 832.326 312.826 832.014 312.742C831.702 312.646 831.36 312.55 830.988 312.454C830.628 312.358 830.292 312.22 829.98 312.04C829.668 311.848 829.404 311.608 829.188 311.32C828.984 311.02 828.882 310.63 828.882 310.15C828.882 309.814 828.948 309.496 829.08 309.196C829.224 308.884 829.428 308.614 829.692 308.386C829.956 308.158 830.268 307.978 830.628 307.846C830.988 307.702 831.396 307.63 831.852 307.63C832.848 307.63 833.61 307.87 834.138 308.35C834.678 308.83 834.996 309.43 835.092 310.15H833.112C833.064 309.97 832.932 309.79 832.716 309.61C832.512 309.43 832.254 309.34 831.942 309.34C831.63 309.34 831.384 309.418 831.204 309.574C831.036 309.73 830.952 309.922 830.952 310.15C830.952 310.342 831.054 310.492 831.258 310.6C831.474 310.708 831.738 310.81 832.05 310.906C832.362 310.99 832.698 311.086 833.058 311.194C833.43 311.29 833.772 311.434 834.084 311.626C834.396 311.818 834.654 312.07 834.858 312.382C835.074 312.682 835.182 313.078 835.182 313.57C835.182 313.906 835.11 314.23 834.966 314.542C834.822 314.842 834.618 315.106 834.354 315.334C834.09 315.562 833.766 315.748 833.382 315.892C833.01 316.024 832.59 316.09 832.122 316.09C831.042 316.09 830.22 315.844 829.656 315.352C829.104 314.86 828.786 314.206 828.702 313.39H830.682ZM844.091 313.48C843.983 313.792 843.815 314.104 843.587 314.416C843.371 314.728 843.101 315.01 842.777 315.262C842.465 315.502 842.105 315.7 841.697 315.856C841.301 316.012 840.869 316.09 840.401 316.09C839.837 316.09 839.303 315.982 838.799 315.766C838.307 315.538 837.869 315.232 837.485 314.848C837.113 314.464 836.813 314.02 836.585 313.516C836.369 313 836.261 312.448 836.261 311.86C836.261 311.272 836.369 310.726 836.585 310.222C836.813 309.706 837.113 309.256 837.485 308.872C837.869 308.488 838.307 308.188 838.799 307.972C839.303 307.744 839.837 307.63 840.401 307.63C840.941 307.63 841.451 307.732 841.931 307.936C842.411 308.14 842.831 308.428 843.191 308.8C843.551 309.172 843.833 309.622 844.037 310.15C844.253 310.666 844.361 311.236 844.361 311.86C844.361 311.956 844.355 312.052 844.343 312.148C844.331 312.232 844.319 312.316 844.307 312.4C844.295 312.496 844.283 312.586 844.271 312.67H838.511C838.607 313.078 838.811 313.42 839.123 313.696C839.435 313.972 839.861 314.11 840.401 314.11C840.677 314.11 840.905 314.08 841.085 314.02C841.277 313.96 841.439 313.888 841.571 313.804C841.715 313.708 841.835 313.6 841.931 313.48H844.091ZM840.401 309.61C839.861 309.61 839.417 309.766 839.069 310.078C838.733 310.39 838.517 310.774 838.421 311.23H842.381C842.285 310.774 842.063 310.39 841.715 310.078C841.379 309.766 840.941 309.61 840.401 309.61ZM849.756 307.63C849.852 307.63 849.936 307.636 850.008 307.648C850.08 307.66 850.146 307.672 850.206 307.684C850.266 307.696 850.326 307.708 850.386 307.72V309.88C850.326 309.868 850.26 309.856 850.188 309.844C850.128 309.832 850.05 309.82 849.954 309.808C849.87 309.796 849.774 309.79 849.666 309.79C849.162 309.79 848.748 309.958 848.424 310.294C848.112 310.618 847.956 311.05 847.956 311.59V316H845.886V307.72H847.416L847.776 308.62C847.92 308.44 848.094 308.278 848.298 308.134C848.466 308.002 848.67 307.888 848.91 307.792C849.162 307.684 849.444 307.63 849.756 307.63ZM856.683 305.74H858.483V307.72H860.283V309.61H858.483V313.03C858.483 313.39 858.585 313.678 858.789 313.894C859.005 314.098 859.293 314.2 859.653 314.2C859.749 314.2 859.827 314.2 859.887 314.2C859.947 314.188 860.001 314.176 860.049 314.164C860.097 314.152 860.145 314.134 860.193 314.11V315.91C860.109 315.946 860.013 315.976 859.905 316C859.701 316.06 859.467 316.09 859.203 316.09C858.795 316.09 858.417 316.024 858.069 315.892C857.733 315.748 857.439 315.544 857.187 315.28C856.947 315.016 856.755 314.704 856.611 314.344C856.479 313.984 856.413 313.576 856.413 313.12V309.61H855.153V307.9H855.693C856.353 307.9 856.683 307.57 856.683 306.91V305.74ZM869.192 313.48C869.084 313.792 868.916 314.104 868.688 314.416C868.472 314.728 868.202 315.01 867.878 315.262C867.566 315.502 867.206 315.7 866.798 315.856C866.402 316.012 865.97 316.09 865.502 316.09C864.938 316.09 864.404 315.982 863.9 315.766C863.408 315.538 862.97 315.232 862.586 314.848C862.214 314.464 861.914 314.02 861.686 313.516C861.47 313 861.362 312.448 861.362 311.86C861.362 311.272 861.47 310.726 861.686 310.222C861.914 309.706 862.214 309.256 862.586 308.872C862.97 308.488 863.408 308.188 863.9 307.972C864.404 307.744 864.938 307.63 865.502 307.63C866.042 307.63 866.552 307.732 867.032 307.936C867.512 308.14 867.932 308.428 868.292 308.8C868.652 309.172 868.934 309.622 869.138 310.15C869.354 310.666 869.462 311.236 869.462 311.86C869.462 311.956 869.456 312.052 869.444 312.148C869.432 312.232 869.42 312.316 869.408 312.4C869.396 312.496 869.384 312.586 869.372 312.67H863.612C863.708 313.078 863.912 313.42 864.224 313.696C864.536 313.972 864.962 314.11 865.502 314.11C865.778 314.11 866.006 314.08 866.186 314.02C866.378 313.96 866.54 313.888 866.672 313.804C866.816 313.708 866.936 313.6 867.032 313.48H869.192ZM865.502 309.61C864.962 309.61 864.518 309.766 864.17 310.078C863.834 310.39 863.618 310.774 863.522 311.23H867.482C867.386 310.774 867.164 310.39 866.816 310.078C866.48 309.766 866.042 309.61 865.502 309.61ZM872.518 313.39C872.566 313.666 872.698 313.9 872.914 314.092C873.13 314.284 873.418 314.38 873.778 314.38C874.138 314.38 874.42 314.29 874.624 314.11C874.84 313.918 874.948 313.708 874.948 313.48C874.948 313.288 874.84 313.138 874.624 313.03C874.42 312.922 874.162 312.826 873.85 312.742C873.538 312.646 873.196 312.55 872.824 312.454C872.464 312.358 872.128 312.22 871.816 312.04C871.504 311.848 871.24 311.608 871.024 311.32C870.82 311.02 870.718 310.63 870.718 310.15C870.718 309.814 870.784 309.496 870.916 309.196C871.06 308.884 871.264 308.614 871.528 308.386C871.792 308.158 872.104 307.978 872.464 307.846C872.824 307.702 873.232 307.63 873.688 307.63C874.684 307.63 875.446 307.87 875.974 308.35C876.514 308.83 876.832 309.43 876.928 310.15H874.948C874.9 309.97 874.768 309.79 874.552 309.61C874.348 309.43 874.09 309.34 873.778 309.34C873.466 309.34 873.22 309.418 873.04 309.574C872.872 309.73 872.788 309.922 872.788 310.15C872.788 310.342 872.89 310.492 873.094 310.6C873.31 310.708 873.574 310.81 873.886 310.906C874.198 310.99 874.534 311.086 874.894 311.194C875.266 311.29 875.608 311.434 875.92 311.626C876.232 311.818 876.49 312.07 876.694 312.382C876.91 312.682 877.018 313.078 877.018 313.57C877.018 313.906 876.946 314.23 876.802 314.542C876.658 314.842 876.454 315.106 876.19 315.334C875.926 315.562 875.602 315.748 875.218 315.892C874.846 316.024 874.426 316.09 873.958 316.09C872.878 316.09 872.056 315.844 871.492 315.352C870.94 314.86 870.622 314.206 870.538 313.39H872.518ZM879.447 305.74H881.247V307.72H883.047V309.61H881.247V313.03C881.247 313.39 881.349 313.678 881.553 313.894C881.769 314.098 882.057 314.2 882.417 314.2C882.513 314.2 882.591 314.2 882.651 314.2C882.711 314.188 882.765 314.176 882.813 314.164C882.861 314.152 882.909 314.134 882.957 314.11V315.91C882.873 315.946 882.777 315.976 882.669 316C882.465 316.06 882.231 316.09 881.967 316.09C881.559 316.09 881.181 316.024 880.833 315.892C880.497 315.748 880.203 315.544 879.951 315.28C879.711 315.016 879.519 314.704 879.375 314.344C879.243 313.984 879.177 313.576 879.177 313.12V309.61H877.917V307.9H878.457C879.117 307.9 879.447 307.57 879.447 306.91V305.74ZM886.822 316H884.752V307.72H886.822V316ZM885.832 306.64C885.52 306.64 885.244 306.526 885.004 306.298C884.776 306.058 884.662 305.782 884.662 305.47C884.662 305.158 884.776 304.888 885.004 304.66C885.244 304.42 885.52 304.3 885.832 304.3C886.144 304.3 886.414 304.42 886.642 304.66C886.882 304.888 887.002 305.158 887.002 305.47C887.002 305.782 886.882 306.058 886.642 306.298C886.414 306.526 886.144 306.64 885.832 306.64ZM893.025 307.63C893.517 307.63 893.967 307.714 894.375 307.882C894.783 308.038 895.131 308.272 895.419 308.584C895.719 308.884 895.947 309.25 896.103 309.682C896.271 310.114 896.355 310.6 896.355 311.14V316H894.285V311.41C894.285 310.87 894.123 310.438 893.799 310.114C893.487 309.778 893.079 309.61 892.575 309.61C892.071 309.61 891.657 309.778 891.333 310.114C891.021 310.438 890.865 310.87 890.865 311.41V316H888.795V307.72H890.325L890.685 308.53C890.889 308.362 891.111 308.212 891.351 308.08C891.555 307.972 891.795 307.87 892.071 307.774C892.359 307.678 892.677 307.63 893.025 307.63ZM901.582 307.63C901.942 307.63 902.266 307.678 902.554 307.774C902.842 307.87 903.088 307.972 903.292 308.08C903.52 308.212 903.73 308.362 903.922 308.53L904.282 307.72H905.812V315.46C905.812 316.54 905.464 317.41 904.768 318.07C904.084 318.73 903.112 319.06 901.852 319.06C901.084 319.06 900.46 318.922 899.98 318.646C899.512 318.37 899.14 318.058 898.864 317.71C898.552 317.314 898.318 316.864 898.162 316.36H900.232C900.316 316.516 900.43 316.654 900.574 316.774C900.706 316.87 900.874 316.96 901.078 317.044C901.282 317.128 901.54 317.17 901.852 317.17C902.44 317.17 902.902 317.008 903.238 316.684C903.574 316.372 903.742 315.964 903.742 315.46V314.83C903.574 314.998 903.382 315.148 903.166 315.28C902.974 315.4 902.746 315.508 902.482 315.604C902.218 315.688 901.918 315.73 901.582 315.73C901.066 315.73 900.574 315.628 900.106 315.424C899.65 315.22 899.248 314.938 898.9 314.578C898.564 314.218 898.294 313.792 898.09 313.3C897.898 312.808 897.802 312.268 897.802 311.68C897.802 311.092 897.898 310.552 898.09 310.06C898.294 309.568 898.564 309.142 898.9 308.782C899.248 308.422 899.65 308.14 900.106 307.936C900.574 307.732 901.066 307.63 901.582 307.63ZM899.872 311.68C899.872 311.968 899.92 312.238 900.016 312.49C900.124 312.742 900.268 312.964 900.448 313.156C900.628 313.336 900.838 313.48 901.078 313.588C901.318 313.696 901.576 313.75 901.852 313.75C902.116 313.75 902.368 313.696 902.608 313.588C902.848 313.48 903.058 313.336 903.238 313.156C903.418 312.964 903.562 312.742 903.67 312.49C903.778 312.238 903.832 311.968 903.832 311.68C903.832 311.392 903.778 311.122 903.67 310.87C903.562 310.618 903.418 310.402 903.238 310.222C903.058 310.03 902.848 309.88 902.608 309.772C902.368 309.664 902.116 309.61 901.852 309.61C901.576 309.61 901.318 309.664 901.078 309.772C900.838 309.88 900.628 310.03 900.448 310.222C900.268 310.402 900.124 310.618 900.016 310.87C899.92 311.122 899.872 311.392 899.872 311.68Z" fill="#4285FF"/>
<path d="M924.844 305.422H925.883V315.5H924.602V308.703L921.477 315.5H920.68L917.562 308.703V315.5H916.281V305.422H917.32L921.078 313.5L924.844 305.422ZM932.273 315.5H931L927.312 305.422H928.68L931.633 313.656L934.594 305.422H935.953L932.273 315.5ZM940.828 305.422C941.266 305.422 941.68 305.505 942.07 305.672C942.461 305.833 942.799 306.06 943.086 306.352C943.372 306.638 943.602 306.971 943.773 307.352C943.945 307.727 944.031 308.122 944.031 308.539C944.031 308.956 943.945 309.354 943.773 309.734C943.602 310.109 943.372 310.443 943.086 310.734C942.799 311.021 942.461 311.247 942.07 311.414C941.68 311.576 941.266 311.656 940.828 311.656H938.672V315.5H937.391V305.422H940.828ZM940.828 310.539C941.083 310.539 941.328 310.49 941.562 310.391C941.797 310.286 942.003 310.146 942.18 309.969C942.357 309.786 942.495 309.573 942.594 309.328C942.698 309.078 942.75 308.815 942.75 308.539C942.75 308.263 942.698 308.003 942.594 307.758C942.495 307.513 942.357 307.299 942.18 307.117C942.003 306.935 941.797 306.794 941.562 306.695C941.328 306.591 941.083 306.539 940.828 306.539H938.672V310.539H940.828ZM952.828 305.422C953.266 305.422 953.68 305.505 954.07 305.672C954.461 305.833 954.799 306.06 955.086 306.352C955.372 306.638 955.602 306.971 955.773 307.352C955.945 307.727 956.031 308.122 956.031 308.539C956.031 308.956 955.945 309.354 955.773 309.734C955.602 310.109 955.372 310.443 955.086 310.734C954.799 311.021 954.461 311.247 954.07 311.414C953.68 311.576 953.266 311.656 952.828 311.656H950.672V315.5H949.391V305.422H952.828ZM952.828 310.539C953.083 310.539 953.328 310.49 953.562 310.391C953.797 310.286 954.003 310.146 954.18 309.969C954.357 309.786 954.495 309.573 954.594 309.328C954.698 309.078 954.75 308.815 954.75 308.539C954.75 308.263 954.698 308.003 954.594 307.758C954.495 307.513 954.357 307.299 954.18 307.117C954.003 306.935 953.797 306.794 953.562 306.695C953.328 306.591 953.083 306.539 952.828 306.539H950.672V310.539H952.828ZM961.148 309.422H960.828C960.26 309.422 959.799 309.604 959.445 309.969C959.091 310.328 958.914 310.812 958.914 311.422V315.5H957.711V308.297H958.594L958.914 309.102C959.065 308.94 959.24 308.797 959.438 308.672C959.62 308.552 959.839 308.448 960.094 308.359C960.349 308.266 960.648 308.219 960.992 308.219H961.148V309.422ZM963.148 311.898C963.148 312.284 963.206 312.635 963.32 312.953C963.44 313.266 963.602 313.534 963.805 313.758C964.008 313.982 964.24 314.156 964.5 314.281C964.766 314.401 965.036 314.461 965.312 314.461C965.589 314.461 965.857 314.401 966.117 314.281C966.378 314.156 966.607 313.982 966.805 313.758C967.003 313.534 967.161 313.266 967.281 312.953C967.406 312.635 967.469 312.284 967.469 311.898C967.469 311.513 967.406 311.164 967.281 310.852C967.161 310.539 967.003 310.271 966.805 310.047C966.607 309.823 966.378 309.651 966.117 309.531C965.857 309.406 965.589 309.344 965.312 309.344C965.036 309.344 964.766 309.406 964.5 309.531C964.24 309.651 964.008 309.823 963.805 310.047C963.602 310.271 963.44 310.539 963.32 310.852C963.206 311.164 963.148 311.513 963.148 311.898ZM968.672 311.898C968.672 312.44 968.583 312.938 968.406 313.391C968.229 313.839 967.99 314.227 967.688 314.555C967.385 314.878 967.029 315.13 966.617 315.312C966.206 315.49 965.771 315.578 965.312 315.578C964.854 315.578 964.419 315.49 964.008 315.312C963.596 315.13 963.237 314.878 962.93 314.555C962.628 314.227 962.388 313.839 962.211 313.391C962.039 312.943 961.953 312.445 961.953 311.898C961.953 311.357 962.039 310.862 962.211 310.414C962.388 309.966 962.628 309.581 962.93 309.258C963.237 308.93 963.596 308.674 964.008 308.492C964.419 308.31 964.854 308.219 965.312 308.219C965.771 308.219 966.206 308.31 966.617 308.492C967.029 308.674 967.385 308.93 967.688 309.258C967.99 309.581 968.229 309.966 968.406 310.414C968.583 310.862 968.672 311.357 968.672 311.898ZM975.477 311.898C975.477 311.513 975.414 311.164 975.289 310.852C975.169 310.539 975.008 310.271 974.805 310.047C974.602 309.823 974.362 309.651 974.086 309.531C973.815 309.406 973.531 309.344 973.234 309.344C972.938 309.344 972.651 309.406 972.375 309.531C972.104 309.651 971.867 309.823 971.664 310.047C971.461 310.271 971.297 310.539 971.172 310.852C971.052 311.164 970.992 311.513 970.992 311.898C970.992 312.284 971.052 312.635 971.172 312.953C971.297 313.266 971.461 313.534 971.664 313.758C971.867 313.982 972.104 314.156 972.375 314.281C972.651 314.401 972.938 314.461 973.234 314.461C973.531 314.461 973.815 314.401 974.086 314.281C974.362 314.156 974.602 313.982 974.805 313.758C975.008 313.534 975.169 313.266 975.289 312.953C975.414 312.635 975.477 312.284 975.477 311.898ZM975.312 314.703C975.151 314.875 974.971 315.023 974.773 315.148C974.591 315.268 974.365 315.37 974.094 315.453C973.828 315.536 973.516 315.578 973.156 315.578C972.698 315.578 972.263 315.49 971.852 315.312C971.44 315.13 971.081 314.878 970.773 314.555C970.471 314.227 970.232 313.839 970.055 313.391C969.883 312.943 969.797 312.445 969.797 311.898C969.797 311.357 969.883 310.862 970.055 310.414C970.232 309.966 970.471 309.581 970.773 309.258C971.081 308.93 971.44 308.674 971.852 308.492C972.263 308.31 972.698 308.219 973.156 308.219C973.521 308.219 973.836 308.271 974.102 308.375C974.367 308.474 974.591 308.583 974.773 308.703C974.977 308.844 975.156 309.003 975.312 309.18V305.422H976.516V315.5H975.633L975.312 314.703ZM981.484 315.578C981.099 315.578 980.737 315.503 980.398 315.352C980.065 315.195 979.768 314.982 979.508 314.711C979.253 314.435 979.049 314.107 978.898 313.727C978.753 313.341 978.68 312.919 978.68 312.461V308.297H979.883V312.461C979.883 312.758 979.927 313.029 980.016 313.273C980.109 313.518 980.234 313.729 980.391 313.906C980.552 314.083 980.74 314.221 980.953 314.32C981.167 314.414 981.396 314.461 981.641 314.461C982.208 314.461 982.669 314.281 983.023 313.922C983.383 313.557 983.562 313.07 983.562 312.461V308.297H984.758V315.5H983.883L983.562 314.703C983.411 314.875 983.234 315.023 983.031 315.148C982.849 315.268 982.63 315.37 982.375 315.453C982.125 315.536 981.828 315.578 981.484 315.578ZM989.719 309.344C989.443 309.344 989.172 309.406 988.906 309.531C988.646 309.651 988.414 309.823 988.211 310.047C988.008 310.271 987.846 310.539 987.727 310.852C987.612 311.164 987.555 311.513 987.555 311.898C987.555 312.284 987.612 312.635 987.727 312.953C987.846 313.266 988.008 313.534 988.211 313.758C988.414 313.982 988.646 314.156 988.906 314.281C989.172 314.401 989.443 314.461 989.719 314.461C989.953 314.461 990.174 314.419 990.383 314.336C990.591 314.247 990.776 314.135 990.938 314C991.104 313.859 991.245 313.698 991.359 313.516C991.479 313.333 991.573 313.141 991.641 312.938H992.836C992.753 313.302 992.62 313.646 992.438 313.969C992.255 314.286 992.029 314.565 991.758 314.805C991.487 315.044 991.177 315.234 990.828 315.375C990.484 315.51 990.115 315.578 989.719 315.578C989.26 315.578 988.826 315.49 988.414 315.312C988.003 315.13 987.643 314.878 987.336 314.555C987.034 314.227 986.794 313.839 986.617 313.391C986.445 312.943 986.359 312.445 986.359 311.898C986.359 311.357 986.445 310.862 986.617 310.414C986.794 309.966 987.034 309.581 987.336 309.258C987.643 308.93 988.003 308.674 988.414 308.492C988.826 308.31 989.26 308.219 989.719 308.219C990.115 308.219 990.484 308.289 990.828 308.43C991.177 308.565 991.487 308.755 991.758 309C992.029 309.24 992.255 309.518 992.438 309.836C992.62 310.154 992.753 310.495 992.836 310.859H991.641C991.578 310.656 991.487 310.466 991.367 310.289C991.247 310.107 991.104 309.945 990.938 309.805C990.776 309.664 990.591 309.552 990.383 309.469C990.174 309.385 989.953 309.344 989.719 309.344ZM995.07 306.383H996.109V308.297H997.711V309.422H996.109V313.18C996.109 313.586 996.219 313.901 996.438 314.125C996.656 314.349 996.948 314.461 997.312 314.461C997.417 314.461 997.513 314.451 997.602 314.43C997.643 314.419 997.68 314.404 997.711 314.383V315.422C997.659 315.453 997.602 315.479 997.539 315.5C997.398 315.552 997.216 315.578 996.992 315.578C996.716 315.578 996.453 315.521 996.203 315.406C995.953 315.286 995.732 315.122 995.539 314.914C995.346 314.706 995.193 314.456 995.078 314.164C994.969 313.872 994.914 313.544 994.914 313.18V309.422H993.633V308.297H994.195C994.784 308.297 995.076 308.005 995.07 307.422V306.383Z" fill="#4285FF"/>
<rect x="1" y="166" width="660" height="48" rx="8" fill="#F9F0D9"/>
<rect opacity="0.3" x="9" y="184" width="2" height="12" rx="1" fill="#FFCE54"/>
<rect opacity="0.3" x="649" y="184" width="2" height="12" rx="1" fill="#FFCE54"/>
<path d="M27.95 191.86H26.33V196H24.17V184.66H28.67C29.21 184.66 29.708 184.756 30.164 184.948C30.632 185.128 31.034 185.38 31.37 185.704C31.706 186.028 31.97 186.406 32.162 186.838C32.354 187.258 32.45 187.702 32.45 188.17C32.45 188.806 32.324 189.334 32.072 189.754C31.82 190.174 31.538 190.516 31.226 190.78C30.866 191.092 30.464 191.332 30.02 191.5L32.72 196H30.29L27.95 191.86ZM26.33 189.79H28.67C29.126 189.79 29.51 189.64 29.822 189.34C30.134 189.028 30.29 188.668 30.29 188.26C30.29 187.852 30.134 187.498 29.822 187.198C29.51 186.886 29.126 186.73 28.67 186.73H26.33V189.79ZM41.4423 193.48C41.3343 193.792 41.1663 194.104 40.9383 194.416C40.7223 194.728 40.4523 195.01 40.1283 195.262C39.8163 195.502 39.4563 195.7 39.0483 195.856C38.6523 196.012 38.2203 196.09 37.7523 196.09C37.1883 196.09 36.6543 195.982 36.1503 195.766C35.6583 195.538 35.2203 195.232 34.8363 194.848C34.4643 194.464 34.1643 194.02 33.9363 193.516C33.7203 193 33.6123 192.448 33.6123 191.86C33.6123 191.272 33.7203 190.726 33.9363 190.222C34.1643 189.706 34.4643 189.256 34.8363 188.872C35.2203 188.488 35.6583 188.188 36.1503 187.972C36.6543 187.744 37.1883 187.63 37.7523 187.63C38.2923 187.63 38.8023 187.732 39.2823 187.936C39.7623 188.14 40.1823 188.428 40.5423 188.8C40.9023 189.172 41.1843 189.622 41.3883 190.15C41.6043 190.666 41.7123 191.236 41.7123 191.86C41.7123 191.956 41.7063 192.052 41.6943 192.148C41.6823 192.232 41.6703 192.316 41.6583 192.4C41.6463 192.496 41.6343 192.586 41.6223 192.67H35.8623C35.9583 193.078 36.1623 193.42 36.4743 193.696C36.7863 193.972 37.2123 194.11 37.7523 194.11C38.0283 194.11 38.2563 194.08 38.4363 194.02C38.6283 193.96 38.7903 193.888 38.9223 193.804C39.0663 193.708 39.1863 193.6 39.2823 193.48H41.4423ZM37.7523 189.61C37.2123 189.61 36.7683 189.766 36.4203 190.078C36.0843 190.39 35.8683 190.774 35.7723 191.23H39.7323C39.6363 190.774 39.4143 190.39 39.0663 190.078C38.7303 189.766 38.2923 189.61 37.7523 189.61ZM44.768 193.39C44.816 193.666 44.948 193.9 45.164 194.092C45.38 194.284 45.668 194.38 46.028 194.38C46.388 194.38 46.67 194.29 46.874 194.11C47.09 193.918 47.198 193.708 47.198 193.48C47.198 193.288 47.09 193.138 46.874 193.03C46.67 192.922 46.412 192.826 46.1 192.742C45.788 192.646 45.446 192.55 45.074 192.454C44.714 192.358 44.378 192.22 44.066 192.04C43.754 191.848 43.49 191.608 43.274 191.32C43.07 191.02 42.968 190.63 42.968 190.15C42.968 189.814 43.034 189.496 43.166 189.196C43.31 188.884 43.514 188.614 43.778 188.386C44.042 188.158 44.354 187.978 44.714 187.846C45.074 187.702 45.482 187.63 45.938 187.63C46.934 187.63 47.696 187.87 48.224 188.35C48.764 188.83 49.082 189.43 49.178 190.15H47.198C47.15 189.97 47.018 189.79 46.802 189.61C46.598 189.43 46.34 189.34 46.028 189.34C45.716 189.34 45.47 189.418 45.29 189.574C45.122 189.73 45.038 189.922 45.038 190.15C45.038 190.342 45.14 190.492 45.344 190.6C45.56 190.708 45.824 190.81 46.136 190.906C46.448 190.99 46.784 191.086 47.144 191.194C47.516 191.29 47.858 191.434 48.17 191.626C48.482 191.818 48.74 192.07 48.944 192.382C49.16 192.682 49.268 193.078 49.268 193.57C49.268 193.906 49.196 194.23 49.052 194.542C48.908 194.842 48.704 195.106 48.44 195.334C48.176 195.562 47.852 195.748 47.468 195.892C47.096 196.024 46.676 196.09 46.208 196.09C45.128 196.09 44.306 195.844 43.742 195.352C43.19 194.86 42.872 194.206 42.788 193.39H44.768ZM58.1766 193.48C58.0686 193.792 57.9006 194.104 57.6726 194.416C57.4566 194.728 57.1866 195.01 56.8626 195.262C56.5506 195.502 56.1906 195.7 55.7826 195.856C55.3866 196.012 54.9546 196.09 54.4866 196.09C53.9226 196.09 53.3886 195.982 52.8846 195.766C52.3926 195.538 51.9546 195.232 51.5706 194.848C51.1986 194.464 50.8986 194.02 50.6706 193.516C50.4546 193 50.3466 192.448 50.3466 191.86C50.3466 191.272 50.4546 190.726 50.6706 190.222C50.8986 189.706 51.1986 189.256 51.5706 188.872C51.9546 188.488 52.3926 188.188 52.8846 187.972C53.3886 187.744 53.9226 187.63 54.4866 187.63C55.0266 187.63 55.5366 187.732 56.0166 187.936C56.4966 188.14 56.9166 188.428 57.2766 188.8C57.6366 189.172 57.9186 189.622 58.1226 190.15C58.3386 190.666 58.4466 191.236 58.4466 191.86C58.4466 191.956 58.4406 192.052 58.4286 192.148C58.4166 192.232 58.4046 192.316 58.3926 192.4C58.3806 192.496 58.3686 192.586 58.3566 192.67H52.5966C52.6926 193.078 52.8966 193.42 53.2086 193.696C53.5206 193.972 53.9466 194.11 54.4866 194.11C54.7626 194.11 54.9906 194.08 55.1706 194.02C55.3626 193.96 55.5246 193.888 55.6566 193.804C55.8006 193.708 55.9206 193.6 56.0166 193.48H58.1766ZM54.4866 189.61C53.9466 189.61 53.5026 189.766 53.1546 190.078C52.8186 190.39 52.6026 190.774 52.5066 191.23H56.4666C56.3706 190.774 56.1486 190.39 55.8006 190.078C55.4646 189.766 55.0266 189.61 54.4866 189.61ZM63.3924 187.63C63.8604 187.63 64.2924 187.714 64.6884 187.882C65.0844 188.038 65.4264 188.26 65.7144 188.548C66.0024 188.836 66.2244 189.178 66.3804 189.574C66.5484 189.97 66.6324 190.402 66.6324 190.87V196H65.1024L64.7424 195.19C64.5504 195.358 64.3404 195.508 64.1124 195.64C63.9084 195.76 63.6624 195.868 63.3744 195.964C63.0864 196.048 62.7624 196.09 62.4024 196.09C61.5024 196.09 60.8124 195.874 60.3324 195.442C59.8524 194.998 59.6124 194.434 59.6124 193.75C59.6124 193.342 59.6904 192.97 59.8464 192.634C60.0144 192.286 60.2904 191.992 60.6744 191.752C61.0584 191.5 61.5624 191.308 62.1864 191.176C62.8224 191.032 63.6144 190.96 64.5624 190.96C64.5624 190.504 64.4364 190.15 64.1844 189.898C63.9444 189.646 63.6204 189.52 63.2124 189.52C62.9364 189.52 62.7144 189.568 62.5464 189.664C62.3904 189.76 62.2644 189.862 62.1684 189.97C62.0604 190.102 61.9884 190.252 61.9524 190.42H59.8824C59.9304 190.036 60.0384 189.676 60.2064 189.34C60.3864 189.004 60.6264 188.71 60.9264 188.458C61.2264 188.206 61.5804 188.008 61.9884 187.864C62.4084 187.708 62.8764 187.63 63.3924 187.63ZM62.7624 194.47C63.3024 194.47 63.7344 194.314 64.0584 194.002C64.3944 193.678 64.5624 193.264 64.5624 192.76V192.4C63.9504 192.4 63.4584 192.43 63.0864 192.49C62.7144 192.538 62.4204 192.616 62.2044 192.724C62.0004 192.82 61.8624 192.94 61.7904 193.084C61.7184 193.228 61.6824 193.39 61.6824 193.57C61.6824 193.798 61.7844 194.008 61.9884 194.2C62.1924 194.38 62.4504 194.47 62.7624 194.47ZM72.3854 187.63C72.4814 187.63 72.5654 187.636 72.6374 187.648C72.7094 187.66 72.7754 187.672 72.8354 187.684C72.8954 187.696 72.9554 187.708 73.0154 187.72V189.88C72.9554 189.868 72.8894 189.856 72.8174 189.844C72.7574 189.832 72.6794 189.82 72.5834 189.808C72.4994 189.796 72.4034 189.79 72.2954 189.79C71.7914 189.79 71.3774 189.958 71.0534 190.294C70.7414 190.618 70.5854 191.05 70.5854 191.59V196H68.5154V187.72H70.0454L70.4054 188.62C70.5494 188.44 70.7234 188.278 70.9274 188.134C71.0954 188.002 71.2994 187.888 71.5394 187.792C71.7914 187.684 72.0734 187.63 72.3854 187.63ZM81.841 192.94C81.745 193.348 81.583 193.744 81.355 194.128C81.127 194.5 80.845 194.836 80.509 195.136C80.173 195.424 79.789 195.658 79.357 195.838C78.925 196.006 78.463 196.09 77.971 196.09C77.407 196.09 76.873 195.982 76.369 195.766C75.877 195.538 75.439 195.232 75.055 194.848C74.683 194.464 74.383 194.02 74.155 193.516C73.939 193 73.831 192.448 73.831 191.86C73.831 191.272 73.939 190.726 74.155 190.222C74.383 189.706 74.683 189.256 75.055 188.872C75.439 188.488 75.877 188.188 76.369 187.972C76.873 187.744 77.407 187.63 77.971 187.63C78.463 187.63 78.925 187.72 79.357 187.9C79.789 188.068 80.173 188.302 80.509 188.602C80.845 188.89 81.127 189.226 81.355 189.61C81.583 189.982 81.745 190.372 81.841 190.78H79.771C79.675 190.564 79.543 190.372 79.375 190.204C79.231 190.06 79.045 189.928 78.817 189.808C78.589 189.676 78.307 189.61 77.971 189.61C77.383 189.61 76.891 189.814 76.495 190.222C76.099 190.63 75.901 191.176 75.901 191.86C75.901 192.544 76.099 193.09 76.495 193.498C76.891 193.906 77.383 194.11 77.971 194.11C78.307 194.11 78.589 194.05 78.817 193.93C79.045 193.81 79.231 193.678 79.375 193.534C79.543 193.366 79.675 193.168 79.771 192.94H81.841ZM87.691 187.63C88.135 187.63 88.549 187.714 88.933 187.882C89.329 188.038 89.665 188.272 89.941 188.584C90.217 188.884 90.433 189.25 90.589 189.682C90.757 190.114 90.841 190.6 90.841 191.14V196H88.771V191.41C88.771 190.87 88.609 190.438 88.285 190.114C87.973 189.778 87.565 189.61 87.061 189.61C86.557 189.61 86.143 189.778 85.819 190.114C85.507 190.438 85.351 190.87 85.351 191.41V196H83.281V184.66H85.351V188.53C85.507 188.362 85.693 188.212 85.909 188.08C86.101 187.972 86.341 187.87 86.629 187.774C86.929 187.678 87.283 187.63 87.691 187.63Z" fill="#FFCE54"/>
<path d="M104.078 194.383C104.536 194.383 104.979 194.284 105.406 194.086C105.833 193.888 106.208 193.615 106.531 193.266C106.859 192.911 107.12 192.497 107.312 192.023C107.505 191.544 107.602 191.023 107.602 190.461C107.602 189.909 107.505 189.393 107.312 188.914C107.12 188.43 106.859 188.013 106.531 187.664C106.208 187.31 105.833 187.034 105.406 186.836C104.979 186.638 104.536 186.539 104.078 186.539H102.562V194.383H104.078ZM108.883 190.461C108.883 191.185 108.755 191.854 108.5 192.469C108.25 193.083 107.906 193.615 107.469 194.062C107.031 194.51 106.521 194.862 105.938 195.117C105.359 195.372 104.74 195.5 104.078 195.5H101.281V185.422H104.078C104.74 185.422 105.359 185.549 105.938 185.805C106.521 186.06 107.031 186.411 107.469 186.859C107.906 187.307 108.25 187.841 108.5 188.461C108.755 189.081 108.883 189.747 108.883 190.461ZM116.398 193.578C116.279 193.833 116.128 194.086 115.945 194.336C115.763 194.581 115.549 194.794 115.305 194.977C115.06 195.154 114.781 195.299 114.469 195.414C114.161 195.523 113.818 195.578 113.438 195.578C112.979 195.578 112.544 195.49 112.133 195.312C111.721 195.13 111.362 194.878 111.055 194.555C110.753 194.227 110.513 193.839 110.336 193.391C110.164 192.943 110.078 192.445 110.078 191.898C110.078 191.357 110.164 190.862 110.336 190.414C110.513 189.966 110.75 189.581 111.047 189.258C111.349 188.93 111.701 188.674 112.102 188.492C112.503 188.31 112.922 188.219 113.359 188.219C113.797 188.219 114.208 188.305 114.594 188.477C114.984 188.648 115.323 188.893 115.609 189.211C115.901 189.523 116.13 189.901 116.297 190.344C116.469 190.786 116.555 191.279 116.555 191.82C116.555 191.924 116.549 192.016 116.539 192.094C116.529 192.167 116.518 192.229 116.508 192.281C116.497 192.344 116.487 192.404 116.477 192.461H111.359C111.38 192.716 111.451 192.966 111.57 193.211C111.695 193.456 111.849 193.669 112.031 193.852C112.219 194.034 112.435 194.182 112.68 194.297C112.93 194.406 113.182 194.461 113.438 194.461C113.661 194.461 113.859 194.43 114.031 194.367C114.208 194.299 114.37 194.224 114.516 194.141C114.661 194.057 114.781 193.966 114.875 193.867C114.974 193.763 115.055 193.667 115.117 193.578H116.398ZM113.359 189.344C113.115 189.344 112.88 189.396 112.656 189.5C112.438 189.604 112.237 189.747 112.055 189.93C111.878 190.112 111.727 190.331 111.602 190.586C111.482 190.841 111.401 191.12 111.359 191.422H115.273C115.19 190.781 114.969 190.276 114.609 189.906C114.255 189.531 113.839 189.344 113.359 189.344ZM122.867 193.422C122.867 193.719 122.807 193.997 122.688 194.258C122.573 194.518 122.409 194.747 122.195 194.945C121.982 195.143 121.724 195.299 121.422 195.414C121.12 195.523 120.776 195.578 120.391 195.578C119.589 195.578 118.958 195.365 118.5 194.938C118.042 194.51 117.792 193.979 117.75 193.344H118.953C118.995 193.661 119.133 193.927 119.367 194.141C119.602 194.354 119.943 194.461 120.391 194.461C120.797 194.461 121.112 194.357 121.336 194.148C121.56 193.94 121.672 193.698 121.672 193.422C121.672 193.156 121.578 192.956 121.391 192.82C121.203 192.685 120.971 192.578 120.695 192.5C120.419 192.422 120.117 192.349 119.789 192.281C119.466 192.208 119.164 192.104 118.883 191.969C118.607 191.828 118.375 191.63 118.188 191.375C118 191.115 117.906 190.755 117.906 190.297C117.906 190.021 117.964 189.758 118.078 189.508C118.198 189.258 118.362 189.036 118.57 188.844C118.779 188.651 119.029 188.5 119.32 188.391C119.617 188.276 119.948 188.219 120.312 188.219C121.078 188.219 121.672 188.419 122.094 188.82C122.516 189.221 122.747 189.742 122.789 190.383H121.586C121.544 190.065 121.422 189.812 121.219 189.625C121.016 189.438 120.714 189.344 120.312 189.344C119.948 189.344 119.656 189.443 119.438 189.641C119.219 189.833 119.109 190.052 119.109 190.297C119.109 190.562 119.203 190.763 119.391 190.898C119.578 191.034 119.81 191.143 120.086 191.227C120.362 191.305 120.661 191.378 120.984 191.445C121.312 191.513 121.615 191.617 121.891 191.758C122.172 191.893 122.404 192.094 122.586 192.359C122.773 192.62 122.867 192.974 122.867 193.422ZM125.742 195.5H124.539V185.422H125.742V195.5ZM128.781 195.5L125.742 191.742L128.461 188.297H129.82L127.102 191.656L130.219 195.5H128.781ZM141.016 195.5L139.656 194.141C139.464 194.417 139.229 194.656 138.953 194.859C138.719 195.042 138.435 195.208 138.102 195.359C137.773 195.505 137.385 195.578 136.938 195.578C136.531 195.578 136.167 195.518 135.844 195.398C135.526 195.273 135.25 195.104 135.016 194.891C134.781 194.677 134.602 194.424 134.477 194.133C134.357 193.841 134.297 193.523 134.297 193.18C134.297 192.763 134.388 192.383 134.57 192.039C134.753 191.69 134.956 191.393 135.18 191.148C135.435 190.862 135.727 190.607 136.055 190.383L135.336 189.578C135.185 189.438 135.052 189.273 134.938 189.086C134.833 188.924 134.74 188.729 134.656 188.5C134.578 188.271 134.539 188.018 134.539 187.742C134.539 187.445 134.602 187.159 134.727 186.883C134.857 186.602 135.034 186.352 135.258 186.133C135.482 185.914 135.737 185.742 136.023 185.617C136.315 185.487 136.62 185.422 136.938 185.422C137.255 185.422 137.555 185.484 137.836 185.609C138.122 185.729 138.37 185.893 138.578 186.102C138.786 186.31 138.951 186.555 139.07 186.836C139.195 187.117 139.258 187.419 139.258 187.742C139.258 188.018 139.201 188.279 139.086 188.523C138.977 188.768 138.857 188.982 138.727 189.164C138.576 189.378 138.406 189.57 138.219 189.742L137.516 190.383L139.578 192.461L140.539 190.859H141.898L140.375 193.258L142.539 195.5H141.016ZM136.859 189.656L137.5 189.102C137.62 188.982 137.727 188.854 137.82 188.719C137.904 188.599 137.977 188.458 138.039 188.297C138.107 188.13 138.141 187.945 138.141 187.742C138.141 187.424 138.031 187.146 137.812 186.906C137.594 186.661 137.302 186.539 136.938 186.539C136.573 186.539 136.268 186.659 136.023 186.898C135.779 187.138 135.656 187.419 135.656 187.742C135.656 187.924 135.688 188.096 135.75 188.258C135.818 188.414 135.893 188.557 135.977 188.688C136.07 188.839 136.177 188.977 136.297 189.102L136.859 189.656ZM136.938 194.539C137.224 194.539 137.495 194.484 137.75 194.375C138.01 194.26 138.229 194.128 138.406 193.977C138.62 193.815 138.823 193.63 139.016 193.422L136.859 191.18C136.594 191.341 136.365 191.523 136.172 191.727C136 191.909 135.844 192.122 135.703 192.367C135.568 192.612 135.5 192.883 135.5 193.18C135.5 193.544 135.628 193.862 135.883 194.133C136.138 194.404 136.49 194.539 136.938 194.539ZM150.297 195.578C149.755 195.578 149.26 195.49 148.812 195.312C148.365 195.13 147.977 194.88 147.648 194.562C147.326 194.24 147.073 193.859 146.891 193.422C146.708 192.984 146.617 192.503 146.617 191.977V185.422H147.898V191.977C147.898 192.742 148.117 193.349 148.555 193.797C148.992 194.24 149.573 194.461 150.297 194.461C151.021 194.461 151.602 194.24 152.039 193.797C152.482 193.354 152.703 192.747 152.703 191.977V185.422H153.977V191.977C153.977 192.497 153.885 192.979 153.703 193.422C153.526 193.859 153.273 194.24 152.945 194.562C152.622 194.88 152.234 195.13 151.781 195.312C151.333 195.49 150.839 195.578 150.297 195.578ZM160.852 193.422C160.852 193.719 160.792 193.997 160.672 194.258C160.557 194.518 160.393 194.747 160.18 194.945C159.966 195.143 159.708 195.299 159.406 195.414C159.104 195.523 158.76 195.578 158.375 195.578C157.573 195.578 156.943 195.365 156.484 194.938C156.026 194.51 155.776 193.979 155.734 193.344H156.938C156.979 193.661 157.117 193.927 157.352 194.141C157.586 194.354 157.927 194.461 158.375 194.461C158.781 194.461 159.096 194.357 159.32 194.148C159.544 193.94 159.656 193.698 159.656 193.422C159.656 193.156 159.562 192.956 159.375 192.82C159.188 192.685 158.956 192.578 158.68 192.5C158.404 192.422 158.102 192.349 157.773 192.281C157.451 192.208 157.148 192.104 156.867 191.969C156.591 191.828 156.359 191.63 156.172 191.375C155.984 191.115 155.891 190.755 155.891 190.297C155.891 190.021 155.948 189.758 156.062 189.508C156.182 189.258 156.346 189.036 156.555 188.844C156.763 188.651 157.013 188.5 157.305 188.391C157.602 188.276 157.932 188.219 158.297 188.219C159.062 188.219 159.656 188.419 160.078 188.82C160.5 189.221 160.732 189.742 160.773 190.383H159.57C159.529 190.065 159.406 189.812 159.203 189.625C159 189.438 158.698 189.344 158.297 189.344C157.932 189.344 157.641 189.443 157.422 189.641C157.203 189.833 157.094 190.052 157.094 190.297C157.094 190.562 157.188 190.763 157.375 190.898C157.562 191.034 157.794 191.143 158.07 191.227C158.346 191.305 158.646 191.378 158.969 191.445C159.297 191.513 159.599 191.617 159.875 191.758C160.156 191.893 160.388 192.094 160.57 192.359C160.758 192.62 160.852 192.974 160.852 193.422ZM168.289 193.578C168.169 193.833 168.018 194.086 167.836 194.336C167.654 194.581 167.44 194.794 167.195 194.977C166.951 195.154 166.672 195.299 166.359 195.414C166.052 195.523 165.708 195.578 165.328 195.578C164.87 195.578 164.435 195.49 164.023 195.312C163.612 195.13 163.253 194.878 162.945 194.555C162.643 194.227 162.404 193.839 162.227 193.391C162.055 192.943 161.969 192.445 161.969 191.898C161.969 191.357 162.055 190.862 162.227 190.414C162.404 189.966 162.641 189.581 162.938 189.258C163.24 188.93 163.591 188.674 163.992 188.492C164.393 188.31 164.812 188.219 165.25 188.219C165.688 188.219 166.099 188.305 166.484 188.477C166.875 188.648 167.214 188.893 167.5 189.211C167.792 189.523 168.021 189.901 168.188 190.344C168.359 190.786 168.445 191.279 168.445 191.82C168.445 191.924 168.44 192.016 168.43 192.094C168.419 192.167 168.409 192.229 168.398 192.281C168.388 192.344 168.378 192.404 168.367 192.461H163.25C163.271 192.716 163.341 192.966 163.461 193.211C163.586 193.456 163.74 193.669 163.922 193.852C164.109 194.034 164.326 194.182 164.57 194.297C164.82 194.406 165.073 194.461 165.328 194.461C165.552 194.461 165.75 194.43 165.922 194.367C166.099 194.299 166.26 194.224 166.406 194.141C166.552 194.057 166.672 193.966 166.766 193.867C166.865 193.763 166.945 193.667 167.008 193.578H168.289ZM165.25 189.344C165.005 189.344 164.771 189.396 164.547 189.5C164.328 189.604 164.128 189.747 163.945 189.93C163.768 190.112 163.617 190.331 163.492 190.586C163.372 190.841 163.292 191.12 163.25 191.422H167.164C167.081 190.781 166.859 190.276 166.5 189.906C166.146 189.531 165.729 189.344 165.25 189.344ZM173.477 189.422H173.156C172.589 189.422 172.128 189.604 171.773 189.969C171.419 190.328 171.242 190.812 171.242 191.422V195.5H170.039V188.297H170.922L171.242 189.102C171.393 188.94 171.568 188.797 171.766 188.672C171.948 188.552 172.167 188.448 172.422 188.359C172.677 188.266 172.977 188.219 173.32 188.219H173.477V189.422ZM181.711 189.422H181.391C180.823 189.422 180.362 189.604 180.008 189.969C179.654 190.328 179.477 190.812 179.477 191.422V195.5H178.273V188.297H179.156L179.477 189.102C179.628 188.94 179.802 188.797 180 188.672C180.182 188.552 180.401 188.448 180.656 188.359C180.911 188.266 181.211 188.219 181.555 188.219H181.711V189.422ZM188.836 193.578C188.716 193.833 188.565 194.086 188.383 194.336C188.201 194.581 187.987 194.794 187.742 194.977C187.497 195.154 187.219 195.299 186.906 195.414C186.599 195.523 186.255 195.578 185.875 195.578C185.417 195.578 184.982 195.49 184.57 195.312C184.159 195.13 183.799 194.878 183.492 194.555C183.19 194.227 182.951 193.839 182.773 193.391C182.602 192.943 182.516 192.445 182.516 191.898C182.516 191.357 182.602 190.862 182.773 190.414C182.951 189.966 183.188 189.581 183.484 189.258C183.786 188.93 184.138 188.674 184.539 188.492C184.94 188.31 185.359 188.219 185.797 188.219C186.234 188.219 186.646 188.305 187.031 188.477C187.422 188.648 187.76 188.893 188.047 189.211C188.339 189.523 188.568 189.901 188.734 190.344C188.906 190.786 188.992 191.279 188.992 191.82C188.992 191.924 188.987 192.016 188.977 192.094C188.966 192.167 188.956 192.229 188.945 192.281C188.935 192.344 188.924 192.404 188.914 192.461H183.797C183.818 192.716 183.888 192.966 184.008 193.211C184.133 193.456 184.286 193.669 184.469 193.852C184.656 194.034 184.872 194.182 185.117 194.297C185.367 194.406 185.62 194.461 185.875 194.461C186.099 194.461 186.297 194.43 186.469 194.367C186.646 194.299 186.807 194.224 186.953 194.141C187.099 194.057 187.219 193.966 187.312 193.867C187.411 193.763 187.492 193.667 187.555 193.578H188.836ZM185.797 189.344C185.552 189.344 185.318 189.396 185.094 189.5C184.875 189.604 184.674 189.747 184.492 189.93C184.315 190.112 184.164 190.331 184.039 190.586C183.919 190.841 183.839 191.12 183.797 191.422H187.711C187.628 190.781 187.406 190.276 187.047 189.906C186.693 189.531 186.276 189.344 185.797 189.344ZM195.305 193.422C195.305 193.719 195.245 193.997 195.125 194.258C195.01 194.518 194.846 194.747 194.633 194.945C194.419 195.143 194.161 195.299 193.859 195.414C193.557 195.523 193.214 195.578 192.828 195.578C192.026 195.578 191.396 195.365 190.938 194.938C190.479 194.51 190.229 193.979 190.188 193.344H191.391C191.432 193.661 191.57 193.927 191.805 194.141C192.039 194.354 192.38 194.461 192.828 194.461C193.234 194.461 193.549 194.357 193.773 194.148C193.997 193.94 194.109 193.698 194.109 193.422C194.109 193.156 194.016 192.956 193.828 192.82C193.641 192.685 193.409 192.578 193.133 192.5C192.857 192.422 192.555 192.349 192.227 192.281C191.904 192.208 191.602 192.104 191.32 191.969C191.044 191.828 190.812 191.63 190.625 191.375C190.438 191.115 190.344 190.755 190.344 190.297C190.344 190.021 190.401 189.758 190.516 189.508C190.635 189.258 190.799 189.036 191.008 188.844C191.216 188.651 191.466 188.5 191.758 188.391C192.055 188.276 192.385 188.219 192.75 188.219C193.516 188.219 194.109 188.419 194.531 188.82C194.953 189.221 195.185 189.742 195.227 190.383H194.023C193.982 190.065 193.859 189.812 193.656 189.625C193.453 189.438 193.151 189.344 192.75 189.344C192.385 189.344 192.094 189.443 191.875 189.641C191.656 189.833 191.547 190.052 191.547 190.297C191.547 190.562 191.641 190.763 191.828 190.898C192.016 191.034 192.247 191.143 192.523 191.227C192.799 191.305 193.099 191.378 193.422 191.445C193.75 191.513 194.052 191.617 194.328 191.758C194.609 191.893 194.841 192.094 195.023 192.359C195.211 192.62 195.305 192.974 195.305 193.422ZM202.742 193.578C202.622 193.833 202.471 194.086 202.289 194.336C202.107 194.581 201.893 194.794 201.648 194.977C201.404 195.154 201.125 195.299 200.812 195.414C200.505 195.523 200.161 195.578 199.781 195.578C199.323 195.578 198.888 195.49 198.477 195.312C198.065 195.13 197.706 194.878 197.398 194.555C197.096 194.227 196.857 193.839 196.68 193.391C196.508 192.943 196.422 192.445 196.422 191.898C196.422 191.357 196.508 190.862 196.68 190.414C196.857 189.966 197.094 189.581 197.391 189.258C197.693 188.93 198.044 188.674 198.445 188.492C198.846 188.31 199.266 188.219 199.703 188.219C200.141 188.219 200.552 188.305 200.938 188.477C201.328 188.648 201.667 188.893 201.953 189.211C202.245 189.523 202.474 189.901 202.641 190.344C202.812 190.786 202.898 191.279 202.898 191.82C202.898 191.924 202.893 192.016 202.883 192.094C202.872 192.167 202.862 192.229 202.852 192.281C202.841 192.344 202.831 192.404 202.82 192.461H197.703C197.724 192.716 197.794 192.966 197.914 193.211C198.039 193.456 198.193 193.669 198.375 193.852C198.562 194.034 198.779 194.182 199.023 194.297C199.273 194.406 199.526 194.461 199.781 194.461C200.005 194.461 200.203 194.43 200.375 194.367C200.552 194.299 200.714 194.224 200.859 194.141C201.005 194.057 201.125 193.966 201.219 193.867C201.318 193.763 201.398 193.667 201.461 193.578H202.742ZM199.703 189.344C199.458 189.344 199.224 189.396 199 189.5C198.781 189.604 198.581 189.747 198.398 189.93C198.221 190.112 198.07 190.331 197.945 190.586C197.826 190.841 197.745 191.12 197.703 191.422H201.617C201.534 190.781 201.312 190.276 200.953 189.906C200.599 189.531 200.182 189.344 199.703 189.344ZM207.211 188.219C207.607 188.219 207.971 188.286 208.305 188.422C208.643 188.552 208.932 188.729 209.172 188.953C209.411 189.177 209.596 189.44 209.727 189.742C209.862 190.039 209.93 190.359 209.93 190.703V195.5H209.055L208.734 194.703C208.573 194.875 208.391 195.023 208.188 195.148C208.005 195.268 207.781 195.37 207.516 195.453C207.25 195.536 206.935 195.578 206.57 195.578C206.206 195.578 205.878 195.523 205.586 195.414C205.294 195.299 205.044 195.143 204.836 194.945C204.628 194.747 204.464 194.518 204.344 194.258C204.229 193.997 204.172 193.719 204.172 193.422C204.172 193.078 204.24 192.766 204.375 192.484C204.516 192.203 204.755 191.958 205.094 191.75C205.438 191.542 205.906 191.383 206.5 191.273C207.094 191.159 207.839 191.102 208.734 191.102V190.703C208.734 190.339 208.591 190.021 208.305 189.75C208.023 189.479 207.659 189.344 207.211 189.344C206.763 189.344 206.432 189.438 206.219 189.625C206.005 189.807 205.857 190.06 205.773 190.383H204.492C204.534 190.086 204.625 189.807 204.766 189.547C204.906 189.281 205.091 189.049 205.32 188.852C205.549 188.654 205.82 188.5 206.133 188.391C206.445 188.276 206.805 188.219 207.211 188.219ZM206.57 194.461C206.888 194.461 207.18 194.411 207.445 194.312C207.716 194.208 207.945 194.078 208.133 193.922C208.32 193.76 208.466 193.581 208.57 193.383C208.68 193.185 208.734 192.984 208.734 192.781V192.219C208.01 192.219 207.43 192.25 206.992 192.312C206.555 192.37 206.214 192.456 205.969 192.57C205.729 192.68 205.57 192.812 205.492 192.969C205.414 193.12 205.375 193.297 205.375 193.5C205.375 193.745 205.482 193.966 205.695 194.164C205.914 194.362 206.206 194.461 206.57 194.461ZM215.367 189.422H215.047C214.479 189.422 214.018 189.604 213.664 189.969C213.31 190.328 213.133 190.812 213.133 191.422V195.5H211.93V188.297H212.812L213.133 189.102C213.284 188.94 213.458 188.797 213.656 188.672C213.839 188.552 214.057 188.448 214.312 188.359C214.568 188.266 214.867 188.219 215.211 188.219H215.367V189.422ZM219.531 189.344C219.255 189.344 218.984 189.406 218.719 189.531C218.458 189.651 218.227 189.823 218.023 190.047C217.82 190.271 217.659 190.539 217.539 190.852C217.424 191.164 217.367 191.513 217.367 191.898C217.367 192.284 217.424 192.635 217.539 192.953C217.659 193.266 217.82 193.534 218.023 193.758C218.227 193.982 218.458 194.156 218.719 194.281C218.984 194.401 219.255 194.461 219.531 194.461C219.766 194.461 219.987 194.419 220.195 194.336C220.404 194.247 220.589 194.135 220.75 194C220.917 193.859 221.057 193.698 221.172 193.516C221.292 193.333 221.385 193.141 221.453 192.938H222.648C222.565 193.302 222.432 193.646 222.25 193.969C222.068 194.286 221.841 194.565 221.57 194.805C221.299 195.044 220.99 195.234 220.641 195.375C220.297 195.51 219.927 195.578 219.531 195.578C219.073 195.578 218.638 195.49 218.227 195.312C217.815 195.13 217.456 194.878 217.148 194.555C216.846 194.227 216.607 193.839 216.43 193.391C216.258 192.943 216.172 192.445 216.172 191.898C216.172 191.357 216.258 190.862 216.43 190.414C216.607 189.966 216.846 189.581 217.148 189.258C217.456 188.93 217.815 188.674 218.227 188.492C218.638 188.31 219.073 188.219 219.531 188.219C219.927 188.219 220.297 188.289 220.641 188.43C220.99 188.565 221.299 188.755 221.57 189C221.841 189.24 222.068 189.518 222.25 189.836C222.432 190.154 222.565 190.495 222.648 190.859H221.453C221.391 190.656 221.299 190.466 221.18 190.289C221.06 190.107 220.917 189.945 220.75 189.805C220.589 189.664 220.404 189.552 220.195 189.469C219.987 189.385 219.766 189.344 219.531 189.344ZM227.523 188.219C227.909 188.219 228.268 188.297 228.602 188.453C228.94 188.609 229.237 188.823 229.492 189.094C229.747 189.365 229.951 189.693 230.102 190.078C230.253 190.458 230.328 190.88 230.328 191.344V195.5H229.125V191.344C229.125 191.047 229.076 190.776 228.977 190.531C228.883 190.281 228.755 190.068 228.594 189.891C228.438 189.714 228.253 189.578 228.039 189.484C227.826 189.391 227.602 189.344 227.367 189.344C226.799 189.344 226.336 189.526 225.977 189.891C225.622 190.25 225.445 190.734 225.445 191.344V195.5H224.242V185.422H225.445V189.18C225.596 188.997 225.773 188.839 225.977 188.703C226.159 188.583 226.375 188.474 226.625 188.375C226.88 188.271 227.18 188.219 227.523 188.219Z" fill="#FFCE54"/>
<path d="M1 0V440" stroke="#EBECED"/>
<path d="M533 0V440" stroke="#EBECED"/>
<path d="M267 0V440" stroke="#EBECED"/>
<path d="M799 0V440" stroke="#EBECED"/>
<path d="M134 0V440" stroke="#EBECED"/>
<path d="M666 0V440" stroke="#EBECED"/>
<path d="M400 0V440" stroke="#EBECED"/>
<path d="M932 0V440" stroke="#EBECED"/>
<path d="M1065 0V440" stroke="#EBECED"/>
<path d="M1198 0V440" stroke="#EBECED"/>
</svg>
