<svg width="32" height="32" viewBox="0 0 32 32" fill="none" xmlns="http://www.w3.org/2000/svg">
<rect width="32" height="32" rx="8" fill="white" fill-opacity="0.2"/>
<path d="M16.0031 11.892C13.7341 11.892 11.8981 13.731 11.8981 15.997C11.8981 18.265 13.7371 20.102 16.0031 20.102C18.2721 20.102 20.1081 18.263 20.1081 15.997C20.1081 13.728 18.2691 11.892 16.0031 11.892ZM16.0031 18.662C14.5311 18.662 13.3381 17.469 13.3381 15.997C13.3381 14.525 14.5311 13.332 16.0031 13.332C17.4751 13.332 18.6681 14.524 18.6681 15.997C18.6681 17.469 17.4751 18.662 16.0031 18.662Z" fill="white"/>
<path d="M19.299 8.04993C17.827 7.98093 14.181 7.98393 12.707 8.04993C11.412 8.11093 10.27 8.42393 9.35 9.34393C7.811 10.8829 8.008 12.9559 8.008 15.9969C8.008 19.1089 7.835 21.1349 9.35 22.6499C10.894 24.1939 12.998 23.9919 16.003 23.9919C19.686 23.9919 23.716 24.3449 23.95 19.2929C24.019 17.8199 24.016 14.1749 23.95 12.7019C23.818 9.89293 22.31 8.18993 19.299 8.04993ZM21.628 21.6319C20.619 22.6409 19.22 22.5509 15.982 22.5509C12.649 22.5509 11.312 22.5999 10.336 21.6219C9.212 20.5039 9.416 18.7079 9.416 15.9869C9.416 9.33693 9.797 9.42193 15.972 9.42193L16.002 9.44193C22.624 9.44193 22.556 9.87093 22.556 15.9969C22.557 19.2909 22.62 20.6359 21.628 21.6319Z" fill="white"/>
<path d="M20.2711 12.6891C20.8007 12.6891 21.2301 12.2597 21.2301 11.7301C21.2301 11.2004 20.8007 10.7711 20.2711 10.7711C19.7414 10.7711 19.3121 11.2004 19.3121 11.7301C19.3121 12.2597 19.7414 12.6891 20.2711 12.6891Z" fill="white"/>
</svg>
