<svg width="32" height="32" viewBox="0 0 32 32" fill="none" xmlns="http://www.w3.org/2000/svg">
<rect width="32" height="32" rx="8" fill="white" fill-opacity="0.2"/>
<path d="M23.9959 24.0001L23.9999 23.9991V18.1311C23.9999 15.2601 23.3819 13.0491 20.0259 13.0491C18.4129 13.0491 17.3299 13.9341 16.8879 14.7741H16.8419V13.3171H13.6599V23.9991H16.9739V18.7101C16.9739 17.3171 17.2379 15.9711 18.9629 15.9711C20.6619 15.9711 20.6879 17.5601 20.6879 18.8001V24.0001H23.9959Z" fill="white"/>
<path d="M8.26398 13.3181H11.581V24.0001H8.26398V13.3181Z" fill="white"/>
<path d="M9.921 8C8.861 8 8 8.861 8 9.921C8 10.982 8.861 11.86 9.921 11.86C10.981 11.86 11.842 10.982 11.842 9.921C11.842 8.861 10.981 8 9.921 8Z" fill="white"/>
</svg>
