<svg xmlns="http://www.w3.org/2000/svg" xmlns:xlink="http://www.w3.org/1999/xlink" width="178" height="178" viewBox="0 0 178 178">
    <defs>
        <circle id="prefix__a" cx="89" cy="89" r="89"/>
    </defs>
    <g fill="none" fill-rule="evenodd">
        <mask id="prefix__b" fill="#fff">
            <use xlink:href="#prefix__a"/>
        </mask>
        <circle cx="6.5" cy="6.5" r="1.5" fill="#06F" mask="url(#prefix__b)"/>
        <circle cx="17.5" cy="6.5" r="1.5" fill="#06F" mask="url(#prefix__b)"/>
        <circle cx="28.5" cy="6.5" r="1.5" fill="#06F" mask="url(#prefix__b)"/>
        <circle cx="39.5" cy="6.5" r="1.5" fill="#06F" mask="url(#prefix__b)"/>
        <circle cx="50.5" cy="6.5" r="1.5" fill="#06F" mask="url(#prefix__b)"/>
        <circle cx="61.5" cy="6.5" r="1.5" fill="#06F" mask="url(#prefix__b)"/>
        <circle cx="72.5" cy="6.5" r="1.5" fill="#06F" mask="url(#prefix__b)"/>
        <circle cx="83.5" cy="6.5" r="1.5" fill="#06F" mask="url(#prefix__b)"/>
        <circle cx="94.5" cy="6.5" r="1.5" fill="#06F" mask="url(#prefix__b)"/>
        <circle cx="105.5" cy="6.5" r="1.5" fill="#06F" mask="url(#prefix__b)"/>
        <circle cx="116.5" cy="6.5" r="1.5" fill="#06F" mask="url(#prefix__b)"/>
        <circle cx="127.5" cy="6.5" r="1.5" fill="#06F" mask="url(#prefix__b)"/>
        <circle cx="138.5" cy="6.5" r="1.5" fill="#06F" mask="url(#prefix__b)"/>
        <circle cx="149.5" cy="6.5" r="1.5" fill="#06F" mask="url(#prefix__b)"/>
        <circle cx="160.5" cy="6.5" r="1.5" fill="#06F" mask="url(#prefix__b)"/>
        <circle cx="171.5" cy="6.5" r="1.5" fill="#06F" mask="url(#prefix__b)"/>
        <circle cx="6.5" cy="17.5" r="1.5" fill="#06F" mask="url(#prefix__b)"/>
        <circle cx="17.5" cy="17.5" r="1.5" fill="#06F" mask="url(#prefix__b)"/>
        <circle cx="28.5" cy="17.5" r="1.5" fill="#06F" mask="url(#prefix__b)"/>
        <circle cx="39.5" cy="17.5" r="1.5" fill="#06F" mask="url(#prefix__b)"/>
        <circle cx="50.5" cy="17.5" r="1.5" fill="#06F" mask="url(#prefix__b)"/>
        <circle cx="61.5" cy="17.5" r="1.5" fill="#06F" mask="url(#prefix__b)"/>
        <circle cx="72.5" cy="17.5" r="1.5" fill="#06F" mask="url(#prefix__b)"/>
        <circle cx="83.5" cy="17.5" r="1.5" fill="#06F" mask="url(#prefix__b)"/>
        <circle cx="94.5" cy="17.5" r="1.5" fill="#06F" mask="url(#prefix__b)"/>
        <circle cx="105.5" cy="17.5" r="1.5" fill="#06F" mask="url(#prefix__b)"/>
        <circle cx="116.5" cy="17.5" r="1.5" fill="#06F" mask="url(#prefix__b)"/>
        <circle cx="127.5" cy="17.5" r="1.5" fill="#06F" mask="url(#prefix__b)"/>
        <circle cx="138.5" cy="17.5" r="1.5" fill="#06F" mask="url(#prefix__b)"/>
        <circle cx="149.5" cy="17.5" r="1.5" fill="#06F" mask="url(#prefix__b)"/>
        <circle cx="160.5" cy="17.5" r="1.5" fill="#06F" mask="url(#prefix__b)"/>
        <circle cx="171.5" cy="17.5" r="1.5" fill="#06F" mask="url(#prefix__b)"/>
        <circle cx="6.5" cy="28.5" r="1.5" fill="#06F" mask="url(#prefix__b)"/>
        <circle cx="17.5" cy="28.5" r="1.5" fill="#06F" mask="url(#prefix__b)"/>
        <circle cx="28.5" cy="28.5" r="1.5" fill="#06F" mask="url(#prefix__b)"/>
        <circle cx="39.5" cy="28.5" r="1.5" fill="#06F" mask="url(#prefix__b)"/>
        <circle cx="50.5" cy="28.5" r="1.5" fill="#06F" mask="url(#prefix__b)"/>
        <circle cx="61.5" cy="28.5" r="1.5" fill="#06F" mask="url(#prefix__b)"/>
        <circle cx="72.5" cy="28.5" r="1.5" fill="#06F" mask="url(#prefix__b)"/>
        <circle cx="83.5" cy="28.5" r="1.5" fill="#06F" mask="url(#prefix__b)"/>
        <circle cx="94.5" cy="28.5" r="1.5" fill="#06F" mask="url(#prefix__b)"/>
        <circle cx="105.5" cy="28.5" r="1.5" fill="#06F" mask="url(#prefix__b)"/>
        <circle cx="116.5" cy="28.5" r="1.5" fill="#06F" mask="url(#prefix__b)"/>
        <circle cx="127.5" cy="28.5" r="1.5" fill="#06F" mask="url(#prefix__b)"/>
        <circle cx="138.5" cy="28.5" r="1.5" fill="#06F" mask="url(#prefix__b)"/>
        <circle cx="149.5" cy="28.5" r="1.5" fill="#06F" mask="url(#prefix__b)"/>
        <circle cx="160.5" cy="28.5" r="1.5" fill="#06F" mask="url(#prefix__b)"/>
        <circle cx="171.5" cy="28.5" r="1.5" fill="#06F" mask="url(#prefix__b)"/>
        <circle cx="6.5" cy="39.5" r="1.5" fill="#06F" mask="url(#prefix__b)"/>
        <circle cx="17.5" cy="39.5" r="1.5" fill="#06F" mask="url(#prefix__b)"/>
        <circle cx="28.5" cy="39.5" r="1.5" fill="#06F" mask="url(#prefix__b)"/>
        <circle cx="39.5" cy="39.5" r="1.5" fill="#06F" mask="url(#prefix__b)"/>
        <circle cx="50.5" cy="39.5" r="1.5" fill="#06F" mask="url(#prefix__b)"/>
        <circle cx="61.5" cy="39.5" r="1.5" fill="#06F" mask="url(#prefix__b)"/>
        <circle cx="72.5" cy="39.5" r="1.5" fill="#06F" mask="url(#prefix__b)"/>
        <circle cx="83.5" cy="39.5" r="1.5" fill="#06F" mask="url(#prefix__b)"/>
        <circle cx="94.5" cy="39.5" r="1.5" fill="#06F" mask="url(#prefix__b)"/>
        <circle cx="105.5" cy="39.5" r="1.5" fill="#06F" mask="url(#prefix__b)"/>
        <circle cx="116.5" cy="39.5" r="1.5" fill="#06F" mask="url(#prefix__b)"/>
        <circle cx="127.5" cy="39.5" r="1.5" fill="#06F" mask="url(#prefix__b)"/>
        <circle cx="138.5" cy="39.5" r="1.5" fill="#06F" mask="url(#prefix__b)"/>
        <circle cx="149.5" cy="39.5" r="1.5" fill="#06F" mask="url(#prefix__b)"/>
        <circle cx="160.5" cy="39.5" r="1.5" fill="#06F" mask="url(#prefix__b)"/>
        <circle cx="171.5" cy="39.5" r="1.5" fill="#06F" mask="url(#prefix__b)"/>
        <circle cx="6.5" cy="50.5" r="1.5" fill="#06F" mask="url(#prefix__b)"/>
        <circle cx="17.5" cy="50.5" r="1.5" fill="#06F" mask="url(#prefix__b)"/>
        <circle cx="28.5" cy="50.5" r="1.5" fill="#06F" mask="url(#prefix__b)"/>
        <circle cx="39.5" cy="50.5" r="1.5" fill="#06F" mask="url(#prefix__b)"/>
        <circle cx="50.5" cy="50.5" r="1.5" fill="#06F" mask="url(#prefix__b)"/>
        <circle cx="61.5" cy="50.5" r="1.5" fill="#06F" mask="url(#prefix__b)"/>
        <circle cx="72.5" cy="50.5" r="1.5" fill="#06F" mask="url(#prefix__b)"/>
        <circle cx="83.5" cy="50.5" r="1.5" fill="#06F" mask="url(#prefix__b)"/>
        <circle cx="94.5" cy="50.5" r="1.5" fill="#06F" mask="url(#prefix__b)"/>
        <circle cx="105.5" cy="50.5" r="1.5" fill="#06F" mask="url(#prefix__b)"/>
        <circle cx="116.5" cy="50.5" r="1.5" fill="#06F" mask="url(#prefix__b)"/>
        <circle cx="127.5" cy="50.5" r="1.5" fill="#06F" mask="url(#prefix__b)"/>
        <circle cx="138.5" cy="50.5" r="1.5" fill="#06F" mask="url(#prefix__b)"/>
        <circle cx="149.5" cy="50.5" r="1.5" fill="#06F" mask="url(#prefix__b)"/>
        <circle cx="160.5" cy="50.5" r="1.5" fill="#06F" mask="url(#prefix__b)"/>
        <circle cx="171.5" cy="50.5" r="1.5" fill="#06F" mask="url(#prefix__b)"/>
        <circle cx="6.5" cy="61.5" r="1.5" fill="#06F" mask="url(#prefix__b)"/>
        <circle cx="17.5" cy="61.5" r="1.5" fill="#06F" mask="url(#prefix__b)"/>
        <circle cx="28.5" cy="61.5" r="1.5" fill="#06F" mask="url(#prefix__b)"/>
        <circle cx="39.5" cy="61.5" r="1.5" fill="#06F" mask="url(#prefix__b)"/>
        <circle cx="50.5" cy="61.5" r="1.5" fill="#06F" mask="url(#prefix__b)"/>
        <circle cx="61.5" cy="61.5" r="1.5" fill="#06F" mask="url(#prefix__b)"/>
        <circle cx="72.5" cy="61.5" r="1.5" fill="#06F" mask="url(#prefix__b)"/>
        <circle cx="83.5" cy="61.5" r="1.5" fill="#06F" mask="url(#prefix__b)"/>
        <circle cx="94.5" cy="61.5" r="1.5" fill="#06F" mask="url(#prefix__b)"/>
        <circle cx="105.5" cy="61.5" r="1.5" fill="#06F" mask="url(#prefix__b)"/>
        <circle cx="116.5" cy="61.5" r="1.5" fill="#06F" mask="url(#prefix__b)"/>
        <circle cx="127.5" cy="61.5" r="1.5" fill="#06F" mask="url(#prefix__b)"/>
        <circle cx="138.5" cy="61.5" r="1.5" fill="#06F" mask="url(#prefix__b)"/>
        <circle cx="149.5" cy="61.5" r="1.5" fill="#06F" mask="url(#prefix__b)"/>
        <circle cx="160.5" cy="61.5" r="1.5" fill="#06F" mask="url(#prefix__b)"/>
        <circle cx="171.5" cy="61.5" r="1.5" fill="#06F" mask="url(#prefix__b)"/>
        <circle cx="6.5" cy="72.5" r="1.5" fill="#06F" mask="url(#prefix__b)"/>
        <circle cx="17.5" cy="72.5" r="1.5" fill="#06F" mask="url(#prefix__b)"/>
        <circle cx="28.5" cy="72.5" r="1.5" fill="#06F" mask="url(#prefix__b)"/>
        <circle cx="39.5" cy="72.5" r="1.5" fill="#06F" mask="url(#prefix__b)"/>
        <circle cx="50.5" cy="72.5" r="1.5" fill="#06F" mask="url(#prefix__b)"/>
        <circle cx="61.5" cy="72.5" r="1.5" fill="#06F" mask="url(#prefix__b)"/>
        <circle cx="72.5" cy="72.5" r="1.5" fill="#06F" mask="url(#prefix__b)"/>
        <circle cx="83.5" cy="72.5" r="1.5" fill="#06F" mask="url(#prefix__b)"/>
        <circle cx="94.5" cy="72.5" r="1.5" fill="#06F" mask="url(#prefix__b)"/>
        <circle cx="105.5" cy="72.5" r="1.5" fill="#06F" mask="url(#prefix__b)"/>
        <circle cx="116.5" cy="72.5" r="1.5" fill="#06F" mask="url(#prefix__b)"/>
        <circle cx="127.5" cy="72.5" r="1.5" fill="#06F" mask="url(#prefix__b)"/>
        <circle cx="138.5" cy="72.5" r="1.5" fill="#06F" mask="url(#prefix__b)"/>
        <circle cx="149.5" cy="72.5" r="1.5" fill="#06F" mask="url(#prefix__b)"/>
        <circle cx="160.5" cy="72.5" r="1.5" fill="#06F" mask="url(#prefix__b)"/>
        <circle cx="171.5" cy="72.5" r="1.5" fill="#06F" mask="url(#prefix__b)"/>
        <circle cx="6.5" cy="83.5" r="1.5" fill="#06F" mask="url(#prefix__b)"/>
        <circle cx="17.5" cy="83.5" r="1.5" fill="#06F" mask="url(#prefix__b)"/>
        <circle cx="28.5" cy="83.5" r="1.5" fill="#06F" mask="url(#prefix__b)"/>
        <circle cx="39.5" cy="83.5" r="1.5" fill="#06F" mask="url(#prefix__b)"/>
        <circle cx="50.5" cy="83.5" r="1.5" fill="#06F" mask="url(#prefix__b)"/>
        <circle cx="61.5" cy="83.5" r="1.5" fill="#06F" mask="url(#prefix__b)"/>
        <circle cx="72.5" cy="83.5" r="1.5" fill="#06F" mask="url(#prefix__b)"/>
        <circle cx="83.5" cy="83.5" r="1.5" fill="#06F" mask="url(#prefix__b)"/>
        <circle cx="94.5" cy="83.5" r="1.5" fill="#06F" mask="url(#prefix__b)"/>
        <circle cx="105.5" cy="83.5" r="1.5" fill="#06F" mask="url(#prefix__b)"/>
        <circle cx="116.5" cy="83.5" r="1.5" fill="#06F" mask="url(#prefix__b)"/>
        <circle cx="127.5" cy="83.5" r="1.5" fill="#06F" mask="url(#prefix__b)"/>
        <circle cx="138.5" cy="83.5" r="1.5" fill="#06F" mask="url(#prefix__b)"/>
        <circle cx="149.5" cy="83.5" r="1.5" fill="#06F" mask="url(#prefix__b)"/>
        <circle cx="160.5" cy="83.5" r="1.5" fill="#06F" mask="url(#prefix__b)"/>
        <circle cx="171.5" cy="83.5" r="1.5" fill="#06F" mask="url(#prefix__b)"/>
        <circle cx="6.5" cy="94.5" r="1.5" fill="#06F" mask="url(#prefix__b)"/>
        <circle cx="17.5" cy="94.5" r="1.5" fill="#06F" mask="url(#prefix__b)"/>
        <circle cx="28.5" cy="94.5" r="1.5" fill="#06F" mask="url(#prefix__b)"/>
        <circle cx="39.5" cy="94.5" r="1.5" fill="#06F" mask="url(#prefix__b)"/>
        <circle cx="50.5" cy="94.5" r="1.5" fill="#06F" mask="url(#prefix__b)"/>
        <circle cx="61.5" cy="94.5" r="1.5" fill="#06F" mask="url(#prefix__b)"/>
        <circle cx="72.5" cy="94.5" r="1.5" fill="#06F" mask="url(#prefix__b)"/>
        <circle cx="83.5" cy="94.5" r="1.5" fill="#06F" mask="url(#prefix__b)"/>
        <circle cx="94.5" cy="94.5" r="1.5" fill="#06F" mask="url(#prefix__b)"/>
        <circle cx="105.5" cy="94.5" r="1.5" fill="#06F" mask="url(#prefix__b)"/>
        <circle cx="116.5" cy="94.5" r="1.5" fill="#06F" mask="url(#prefix__b)"/>
        <circle cx="127.5" cy="94.5" r="1.5" fill="#06F" mask="url(#prefix__b)"/>
        <circle cx="138.5" cy="94.5" r="1.5" fill="#06F" mask="url(#prefix__b)"/>
        <circle cx="149.5" cy="94.5" r="1.5" fill="#06F" mask="url(#prefix__b)"/>
        <circle cx="160.5" cy="94.5" r="1.5" fill="#06F" mask="url(#prefix__b)"/>
        <circle cx="171.5" cy="94.5" r="1.5" fill="#06F" mask="url(#prefix__b)"/>
        <circle cx="6.5" cy="105.5" r="1.5" fill="#06F" mask="url(#prefix__b)"/>
        <circle cx="17.5" cy="105.5" r="1.5" fill="#06F" mask="url(#prefix__b)"/>
        <circle cx="28.5" cy="105.5" r="1.5" fill="#06F" mask="url(#prefix__b)"/>
        <circle cx="39.5" cy="105.5" r="1.5" fill="#06F" mask="url(#prefix__b)"/>
        <circle cx="50.5" cy="105.5" r="1.5" fill="#06F" mask="url(#prefix__b)"/>
        <circle cx="61.5" cy="105.5" r="1.5" fill="#06F" mask="url(#prefix__b)"/>
        <circle cx="72.5" cy="105.5" r="1.5" fill="#06F" mask="url(#prefix__b)"/>
        <circle cx="83.5" cy="105.5" r="1.5" fill="#06F" mask="url(#prefix__b)"/>
        <circle cx="94.5" cy="105.5" r="1.5" fill="#06F" mask="url(#prefix__b)"/>
        <circle cx="105.5" cy="105.5" r="1.5" fill="#06F" mask="url(#prefix__b)"/>
        <circle cx="116.5" cy="105.5" r="1.5" fill="#06F" mask="url(#prefix__b)"/>
        <circle cx="127.5" cy="105.5" r="1.5" fill="#06F" mask="url(#prefix__b)"/>
        <circle cx="138.5" cy="105.5" r="1.5" fill="#06F" mask="url(#prefix__b)"/>
        <circle cx="149.5" cy="105.5" r="1.5" fill="#06F" mask="url(#prefix__b)"/>
        <circle cx="160.5" cy="105.5" r="1.5" fill="#06F" mask="url(#prefix__b)"/>
        <circle cx="171.5" cy="105.5" r="1.5" fill="#06F" mask="url(#prefix__b)"/>
        <circle cx="6.5" cy="116.5" r="1.5" fill="#06F" mask="url(#prefix__b)"/>
        <circle cx="17.5" cy="116.5" r="1.5" fill="#06F" mask="url(#prefix__b)"/>
        <circle cx="28.5" cy="116.5" r="1.5" fill="#06F" mask="url(#prefix__b)"/>
        <circle cx="39.5" cy="116.5" r="1.5" fill="#06F" mask="url(#prefix__b)"/>
        <circle cx="50.5" cy="116.5" r="1.5" fill="#06F" mask="url(#prefix__b)"/>
        <circle cx="61.5" cy="116.5" r="1.5" fill="#06F" mask="url(#prefix__b)"/>
        <circle cx="72.5" cy="116.5" r="1.5" fill="#06F" mask="url(#prefix__b)"/>
        <circle cx="83.5" cy="116.5" r="1.5" fill="#06F" mask="url(#prefix__b)"/>
        <circle cx="94.5" cy="116.5" r="1.5" fill="#06F" mask="url(#prefix__b)"/>
        <circle cx="105.5" cy="116.5" r="1.5" fill="#06F" mask="url(#prefix__b)"/>
        <circle cx="116.5" cy="116.5" r="1.5" fill="#06F" mask="url(#prefix__b)"/>
        <circle cx="127.5" cy="116.5" r="1.5" fill="#06F" mask="url(#prefix__b)"/>
        <circle cx="138.5" cy="116.5" r="1.5" fill="#06F" mask="url(#prefix__b)"/>
        <circle cx="149.5" cy="116.5" r="1.5" fill="#06F" mask="url(#prefix__b)"/>
        <circle cx="160.5" cy="116.5" r="1.5" fill="#06F" mask="url(#prefix__b)"/>
        <circle cx="171.5" cy="116.5" r="1.5" fill="#06F" mask="url(#prefix__b)"/>
        <circle cx="6.5" cy="127.5" r="1.5" fill="#06F" mask="url(#prefix__b)"/>
        <circle cx="17.5" cy="127.5" r="1.5" fill="#06F" mask="url(#prefix__b)"/>
        <circle cx="28.5" cy="127.5" r="1.5" fill="#06F" mask="url(#prefix__b)"/>
        <circle cx="39.5" cy="127.5" r="1.5" fill="#06F" mask="url(#prefix__b)"/>
        <circle cx="50.5" cy="127.5" r="1.5" fill="#06F" mask="url(#prefix__b)"/>
        <circle cx="61.5" cy="127.5" r="1.5" fill="#06F" mask="url(#prefix__b)"/>
        <circle cx="72.5" cy="127.5" r="1.5" fill="#06F" mask="url(#prefix__b)"/>
        <circle cx="83.5" cy="127.5" r="1.5" fill="#06F" mask="url(#prefix__b)"/>
        <circle cx="94.5" cy="127.5" r="1.5" fill="#06F" mask="url(#prefix__b)"/>
        <circle cx="105.5" cy="127.5" r="1.5" fill="#06F" mask="url(#prefix__b)"/>
        <circle cx="116.5" cy="127.5" r="1.5" fill="#06F" mask="url(#prefix__b)"/>
        <circle cx="127.5" cy="127.5" r="1.5" fill="#06F" mask="url(#prefix__b)"/>
        <circle cx="138.5" cy="127.5" r="1.5" fill="#06F" mask="url(#prefix__b)"/>
        <circle cx="149.5" cy="127.5" r="1.5" fill="#06F" mask="url(#prefix__b)"/>
        <circle cx="160.5" cy="127.5" r="1.5" fill="#06F" mask="url(#prefix__b)"/>
        <circle cx="171.5" cy="127.5" r="1.5" fill="#06F" mask="url(#prefix__b)"/>
        <circle cx="6.5" cy="138.5" r="1.5" fill="#06F" mask="url(#prefix__b)"/>
        <circle cx="17.5" cy="138.5" r="1.5" fill="#06F" mask="url(#prefix__b)"/>
        <circle cx="28.5" cy="138.5" r="1.5" fill="#06F" mask="url(#prefix__b)"/>
        <circle cx="39.5" cy="138.5" r="1.5" fill="#06F" mask="url(#prefix__b)"/>
        <circle cx="50.5" cy="138.5" r="1.5" fill="#06F" mask="url(#prefix__b)"/>
        <circle cx="61.5" cy="138.5" r="1.5" fill="#06F" mask="url(#prefix__b)"/>
        <circle cx="72.5" cy="138.5" r="1.5" fill="#06F" mask="url(#prefix__b)"/>
        <circle cx="83.5" cy="138.5" r="1.5" fill="#06F" mask="url(#prefix__b)"/>
        <circle cx="94.5" cy="138.5" r="1.5" fill="#06F" mask="url(#prefix__b)"/>
        <circle cx="105.5" cy="138.5" r="1.5" fill="#06F" mask="url(#prefix__b)"/>
        <circle cx="116.5" cy="138.5" r="1.5" fill="#06F" mask="url(#prefix__b)"/>
        <circle cx="127.5" cy="138.5" r="1.5" fill="#06F" mask="url(#prefix__b)"/>
        <circle cx="138.5" cy="138.5" r="1.5" fill="#06F" mask="url(#prefix__b)"/>
        <circle cx="149.5" cy="138.5" r="1.5" fill="#06F" mask="url(#prefix__b)"/>
        <circle cx="160.5" cy="138.5" r="1.5" fill="#06F" mask="url(#prefix__b)"/>
        <circle cx="171.5" cy="138.5" r="1.5" fill="#06F" mask="url(#prefix__b)"/>
        <circle cx="6.5" cy="149.5" r="1.5" fill="#06F" mask="url(#prefix__b)"/>
        <circle cx="17.5" cy="149.5" r="1.5" fill="#06F" mask="url(#prefix__b)"/>
        <circle cx="28.5" cy="149.5" r="1.5" fill="#06F" mask="url(#prefix__b)"/>
        <circle cx="39.5" cy="149.5" r="1.5" fill="#06F" mask="url(#prefix__b)"/>
        <circle cx="50.5" cy="149.5" r="1.5" fill="#06F" mask="url(#prefix__b)"/>
        <circle cx="61.5" cy="149.5" r="1.5" fill="#06F" mask="url(#prefix__b)"/>
        <circle cx="72.5" cy="149.5" r="1.5" fill="#06F" mask="url(#prefix__b)"/>
        <circle cx="83.5" cy="149.5" r="1.5" fill="#06F" mask="url(#prefix__b)"/>
        <circle cx="94.5" cy="149.5" r="1.5" fill="#06F" mask="url(#prefix__b)"/>
        <circle cx="105.5" cy="149.5" r="1.5" fill="#06F" mask="url(#prefix__b)"/>
        <circle cx="116.5" cy="149.5" r="1.5" fill="#06F" mask="url(#prefix__b)"/>
        <circle cx="127.5" cy="149.5" r="1.5" fill="#06F" mask="url(#prefix__b)"/>
        <circle cx="138.5" cy="149.5" r="1.5" fill="#06F" mask="url(#prefix__b)"/>
        <circle cx="149.5" cy="149.5" r="1.5" fill="#06F" mask="url(#prefix__b)"/>
        <circle cx="160.5" cy="149.5" r="1.5" fill="#06F" mask="url(#prefix__b)"/>
        <circle cx="171.5" cy="149.5" r="1.5" fill="#06F" mask="url(#prefix__b)"/>
        <circle cx="6.5" cy="160.5" r="1.5" fill="#06F" mask="url(#prefix__b)"/>
        <circle cx="17.5" cy="160.5" r="1.5" fill="#06F" mask="url(#prefix__b)"/>
        <circle cx="28.5" cy="160.5" r="1.5" fill="#06F" mask="url(#prefix__b)"/>
        <circle cx="39.5" cy="160.5" r="1.5" fill="#06F" mask="url(#prefix__b)"/>
        <circle cx="50.5" cy="160.5" r="1.5" fill="#06F" mask="url(#prefix__b)"/>
        <circle cx="61.5" cy="160.5" r="1.5" fill="#06F" mask="url(#prefix__b)"/>
        <circle cx="72.5" cy="160.5" r="1.5" fill="#06F" mask="url(#prefix__b)"/>
        <circle cx="83.5" cy="160.5" r="1.5" fill="#06F" mask="url(#prefix__b)"/>
        <circle cx="94.5" cy="160.5" r="1.5" fill="#06F" mask="url(#prefix__b)"/>
        <circle cx="105.5" cy="160.5" r="1.5" fill="#06F" mask="url(#prefix__b)"/>
        <circle cx="116.5" cy="160.5" r="1.5" fill="#06F" mask="url(#prefix__b)"/>
        <circle cx="127.5" cy="160.5" r="1.5" fill="#06F" mask="url(#prefix__b)"/>
        <circle cx="138.5" cy="160.5" r="1.5" fill="#06F" mask="url(#prefix__b)"/>
        <circle cx="149.5" cy="160.5" r="1.5" fill="#06F" mask="url(#prefix__b)"/>
        <circle cx="160.5" cy="160.5" r="1.5" fill="#06F" mask="url(#prefix__b)"/>
        <circle cx="171.5" cy="160.5" r="1.5" fill="#06F" mask="url(#prefix__b)"/>
        <circle cx="6.5" cy="171.5" r="1.5" fill="#06F" mask="url(#prefix__b)"/>
        <circle cx="17.5" cy="171.5" r="1.5" fill="#06F" mask="url(#prefix__b)"/>
        <circle cx="28.5" cy="171.5" r="1.5" fill="#06F" mask="url(#prefix__b)"/>
        <circle cx="39.5" cy="171.5" r="1.5" fill="#06F" mask="url(#prefix__b)"/>
        <circle cx="50.5" cy="171.5" r="1.5" fill="#06F" mask="url(#prefix__b)"/>
        <circle cx="61.5" cy="171.5" r="1.5" fill="#06F" mask="url(#prefix__b)"/>
        <circle cx="72.5" cy="171.5" r="1.5" fill="#06F" mask="url(#prefix__b)"/>
        <circle cx="83.5" cy="171.5" r="1.5" fill="#06F" mask="url(#prefix__b)"/>
        <circle cx="94.5" cy="171.5" r="1.5" fill="#06F" mask="url(#prefix__b)"/>
        <circle cx="105.5" cy="171.5" r="1.5" fill="#06F" mask="url(#prefix__b)"/>
        <circle cx="116.5" cy="171.5" r="1.5" fill="#06F" mask="url(#prefix__b)"/>
        <circle cx="127.5" cy="171.5" r="1.5" fill="#06F" mask="url(#prefix__b)"/>
        <circle cx="138.5" cy="171.5" r="1.5" fill="#06F" mask="url(#prefix__b)"/>
        <circle cx="149.5" cy="171.5" r="1.5" fill="#06F" mask="url(#prefix__b)"/>
        <circle cx="160.5" cy="171.5" r="1.5" fill="#06F" mask="url(#prefix__b)"/>
        <circle cx="171.5" cy="171.5" r="1.5" fill="#06F" mask="url(#prefix__b)"/>
    </g>
</svg>
