<?xml version="1.0" encoding="UTF-8"?>
<svg width="19px" height="18px" viewBox="0 0 19 18" version="1.1" xmlns="http://www.w3.org/2000/svg" xmlns:xlink="http://www.w3.org/1999/xlink">
    <!-- Generator: Sketch 55.2 (78181) - https://sketchapp.com -->
    <title>noun_send_975411</title>
    <desc>Created with Sketch.</desc>
    <g id="Symbols" stroke="none" stroke-width="1" fill="none" fill-rule="evenodd">
        <g id="Button/Blue-send" transform="translate(-149.000000, -23.000000)" fill="#FFFFFF" fill-rule="nonzero">
            <g id="noun_send_975411" transform="translate(149.000000, 23.000000)">
                <path d="M18.4293626,0.904227638 L16.9469755,16.1768212 C16.9203852,16.4936633 16.744939,16.7790606 16.4742307,16.9458327 C16.2035224,17.1126049 15.8697109,17.14094 15.5747658,17.0221825 L10.6808852,15.1291341 L7.93646582,17.701276 C7.75604681,17.8746351 7.51559379,17.9715341 7.26538517,17.9717846 C7.00050468,17.9749295 6.74539195,17.8718157 6.55714044,17.6854467 C6.36888893,17.4990777 6.26321649,17.2450142 6.26377227,16.9801147 C6.26377227,15.8026779 6.66456853,14.6603118 7.40021621,13.7409752 L12.8744174,6.89988248 C12.977729,6.77124178 12.9980468,6.59472757 12.9266644,6.4459786 C12.8552819,6.29722964 12.7048687,6.20264671 12.5398787,6.2027599 C12.438565,6.20377702 12.3410572,6.241499 12.2654368,6.30893086 L4.64316259,12.7913696 L0.626694849,11.2368663 C0.270387471,11.0992682 0.0265517909,10.7671168 0.0020298794,10.3859516 C-0.0224920321,10.0047865 0.176772393,9.64412857 0.512510978,9.46200828 L17.2033884,0.106943767 C17.4712152,-0.04499025 17.8015259,-0.0343536203 18.0590228,0.134496811 C18.3165197,0.303347242 18.4579398,0.602042266 18.4253561,0.90823409 L18.4293626,0.904227638 Z" id="Path"></path>
            </g>
        </g>
    </g>
</svg>