<svg width="60" height="60" viewBox="0 0 60 60" fill="none" xmlns="http://www.w3.org/2000/svg">
<rect opacity="0.2" width="60" height="60" rx="16" fill="#FF6B00"/>
<path d="M49.1006 31.2421C48.6011 30.7652 48.0535 30.3415 47.4664 29.9777C45.5715 28.8388 43.8592 29.1035 42.3002 29.6839V23.76C43.6722 23.032 45.0042 22.048 45.5162 20.016C45.6282 19.568 45.7042 19.112 45.7762 18.668C45.8449 17.946 46.037 17.2411 46.3442 16.584C46.4578 16.3912 46.5185 16.1718 46.5202 15.948C46.5189 15.6888 46.4337 15.4369 46.2773 15.2302C46.1208 15.0235 45.9016 14.8731 45.6525 14.8015C45.4033 14.7298 45.1377 14.7409 44.8953 14.8329C44.653 14.9249 44.447 15.093 44.3082 15.312C43.8201 16.2357 43.5146 17.2447 43.4082 18.284C43.3402 18.692 43.2762 19.08 43.1882 19.432C43.0835 19.8498 42.8899 20.24 42.6207 20.5762C42.3515 20.9123 42.013 21.1865 41.6282 21.38C38.0937 19.3342 34.0821 18.257 29.9982 18.257C25.9144 18.257 21.9027 19.3342 18.3682 21.38C17.9844 21.1857 17.6469 20.9113 17.3784 20.5752C17.11 20.2391 16.9169 19.8492 16.8122 19.432C16.7242 19.08 16.6602 18.692 16.5922 18.284C16.4859 17.2447 16.1803 16.2357 15.6922 15.312C15.588 15.1394 15.4406 14.997 15.2646 14.8987C15.0885 14.8005 14.8898 14.75 14.6882 14.752C14.4739 14.7513 14.2633 14.8077 14.0782 14.9155C13.893 15.0233 13.7399 15.1785 13.6347 15.3652C13.5295 15.5519 13.4761 15.7633 13.4799 15.9775C13.4837 16.1918 13.5445 16.4011 13.6562 16.584C13.9634 17.2411 14.1556 17.946 14.2242 18.668C14.2962 19.112 14.3722 19.568 14.4842 20.016C14.9962 22.048 16.3282 23.032 17.7002 23.76V29.684C16.1409 29.1035 14.4284 28.8388 12.5344 29.9777C11.9472 30.3414 11.3995 30.7651 10.8999 31.2421C10.7828 31.349 10.688 31.478 10.621 31.6217C10.5541 31.7655 10.5163 31.921 10.5098 32.0795C10.5033 32.2379 10.5283 32.396 10.5833 32.5448C10.6383 32.6935 10.7222 32.8298 10.8302 32.9459C10.9382 33.062 11.0681 33.1556 11.2125 33.2212C11.3568 33.2867 11.5128 33.3231 11.6712 33.328C11.8297 33.333 11.9876 33.3065 12.1358 33.2501C12.284 33.1937 12.4195 33.1085 12.5346 32.9994C12.9125 32.6364 13.3267 32.3131 13.7707 32.0348C15.0395 31.2704 16.0688 31.5539 17.7218 32.2901C17.7411 34.5887 18.0796 36.8736 18.7275 39.0791C18.703 39.091 18.678 39.1042 18.6535 39.116C16.995 39.918 15.1149 40.827 14.4836 43.3332C14.3703 43.7828 14.2961 44.2399 14.2242 44.6817C14.1562 45.4041 13.9643 46.1095 13.6569 46.7668C13.5349 46.9688 13.4743 47.2019 13.4825 47.4377C13.4907 47.6735 13.5672 47.9019 13.7029 48.095H13.7029C13.8169 48.2557 13.9688 48.3858 14.1452 48.4738C14.3216 48.5617 14.517 48.6046 14.714 48.5989C14.911 48.5931 15.1035 48.5388 15.2744 48.4407C15.4454 48.3427 15.5895 48.2039 15.6939 48.0368C16.1806 47.1135 16.4858 46.1054 16.593 45.0672C16.6598 44.657 16.7227 44.2695 16.811 43.9191C17.149 42.5776 18.0681 42.0662 19.6574 41.297C21.1522 44.0806 23.3083 45.3191 25.4242 46.532C26.7802 47.2318 28.0344 48.1133 29.1522 49.152L30.0002 50L30.8482 49.152C31.9661 48.1133 33.2203 47.2319 34.5762 46.532C36.6922 45.3191 38.8484 44.0805 40.3432 41.2969C41.9321 42.0663 42.8515 42.5778 43.1895 43.9192C43.2778 44.2696 43.3407 44.6571 43.4075 45.0676C43.5147 46.1057 43.8199 47.1136 44.3066 48.0368C44.411 48.2039 44.5551 48.3427 44.726 48.4408C44.897 48.5388 45.0895 48.5931 45.2865 48.5989C45.4835 48.6047 45.6788 48.5617 45.8552 48.4738C46.0316 48.3859 46.1836 48.2558 46.2976 48.095C46.4332 47.9019 46.5098 47.6736 46.5179 47.4377C46.5261 47.2019 46.4655 46.9688 46.3436 46.7668C46.0362 46.1096 45.8443 45.4044 45.7762 44.6821C45.7043 44.2399 45.6301 43.7829 45.5168 43.3332C44.8856 40.8266 43.0055 39.9176 41.3461 39.116C41.322 39.1043 41.2971 39.0912 41.2729 39.0795C41.9209 36.8738 42.2593 34.5888 42.2786 32.29C43.9314 31.5544 44.9599 31.2714 46.2301 32.0348C46.6739 32.3131 47.088 32.6364 47.4658 32.9994C47.5809 33.1085 47.7164 33.1937 47.8646 33.2502C48.0128 33.3066 48.1707 33.3331 48.3292 33.3282C48.4877 33.3232 48.6437 33.2869 48.788 33.2213C48.9324 33.1557 49.0624 33.0622 49.1704 32.9461C49.2784 32.83 49.3623 32.6936 49.4173 32.5449C49.4723 32.3962 49.4973 32.238 49.4908 32.0796C49.4843 31.9211 49.4465 31.7655 49.3795 31.6218C49.3125 31.478 49.2177 31.349 49.1006 31.2421H49.1006ZM33.3802 44.452C32.189 45.0918 31.0578 45.8375 30.0002 46.68C28.942 45.8384 27.8109 45.0928 26.6202 44.452C23.1202 42.448 20.1002 40.716 20.1002 30.98V23.16C20.2642 23.072 20.4242 22.988 20.5882 22.904C23.5052 21.4249 26.7297 20.654 30.0002 20.654C33.2708 20.654 36.4953 21.4249 39.4123 22.904C39.5763 22.988 39.7363 23.072 39.9003 23.16V30.98C39.9002 40.716 36.8802 42.448 33.3802 44.452Z" fill="#FF6B00"/>
<path d="M30.0003 12.4C31.1739 12.4013 32.3109 12.8082 33.2189 13.5517C34.1269 14.2953 34.75 15.3298 34.9826 16.4801C35.033 16.7578 35.1784 17.0093 35.3941 17.1914C35.6097 17.3735 35.882 17.4749 36.1642 17.4781C36.3421 17.4776 36.5178 17.4376 36.6784 17.3611C36.8391 17.2846 36.9809 17.1734 37.0935 17.0356C37.206 16.8978 37.2867 16.7368 37.3296 16.564C37.3725 16.3913 37.3767 16.2113 37.3417 16.0368C37.0068 14.3359 36.0917 12.804 34.7527 11.703C33.4138 10.6019 31.734 10 30.0005 10C28.2669 10 26.5872 10.6019 25.2482 11.703C23.9092 12.804 22.9941 14.3359 22.6592 16.0368C22.6243 16.2113 22.6284 16.3913 22.6713 16.564C22.7142 16.7368 22.7949 16.8978 22.9075 17.0356C23.0201 17.1734 23.1618 17.2846 23.3225 17.3611C23.4831 17.4376 23.6588 17.4776 23.8367 17.4781C24.119 17.4749 24.3913 17.3735 24.6069 17.1914C24.8225 17.0093 24.968 16.7578 25.0183 16.48C25.2509 15.3298 25.8739 14.2953 26.7818 13.5517C27.6897 12.8082 28.8267 12.4013 30.0003 12.4Z" fill="#FF6B00"/>
<path d="M31.6967 32.3759L34.6249 29.4478C34.7365 29.3364 34.8251 29.2041 34.8856 29.0585C34.9461 28.9129 34.9772 28.7567 34.9773 28.599C34.9774 28.4413 34.9464 28.2852 34.8861 28.1395C34.8258 27.9938 34.7374 27.8614 34.6259 27.7499C34.5144 27.6384 34.382 27.5499 34.2363 27.4896C34.0906 27.4293 33.9344 27.3983 33.7767 27.3984C33.619 27.3985 33.4629 27.4297 33.3173 27.4902C33.1716 27.5507 33.0394 27.6393 32.928 27.7509L29.9999 30.679L27.0717 27.7509C26.8466 27.5263 26.5416 27.4003 26.2236 27.4005C25.9056 27.4007 25.6007 27.5271 25.3759 27.7519C25.1511 27.9768 25.0247 28.2817 25.0245 28.5996C25.0243 28.9176 25.1503 29.2227 25.3749 29.4478L28.303 32.3759L25.3749 35.304C25.1499 35.529 25.0234 35.8342 25.0234 36.1525C25.0234 36.4707 25.1499 36.7759 25.3749 37.0009C25.5999 37.2259 25.9051 37.3523 26.2233 37.3523C26.5415 37.3523 26.8467 37.2259 27.0717 37.0009L29.9999 34.0728L32.928 37.0009C33.153 37.2259 33.4582 37.3523 33.7764 37.3523C34.0947 37.3523 34.3998 37.2259 34.6249 37.0009C34.8499 36.7759 34.9763 36.4707 34.9763 36.1525C34.9763 35.8342 34.8499 35.529 34.6249 35.304L31.6967 32.3759Z" fill="#FF6B00"/>
</svg>
