<svg width="60" height="60" viewBox="0 0 60 60" fill="none" xmlns="http://www.w3.org/2000/svg">
<g id="Group 22 Copy 11">
<rect id="Rectangle Copy 27" opacity="0.2" width="60" height="60" rx="16" fill="#FFB800"/>
<g id="chart-pie-slice">
<path id="Vector" d="M30 30V15" stroke="#FFB800" stroke-width="3" stroke-linecap="round" stroke-linejoin="round"/>
<path id="Vector_2" d="M42.9905 22.5L17.0098 37.5" stroke="#FFB800" stroke-width="3" stroke-linecap="round" stroke-linejoin="round"/>
<path id="Vector_3" d="M15.2501 32.7422C14.6007 29.2275 15.2255 25.5964 17.0125 22.501C18.7994 19.4056 21.6314 17.0487 24.9998 15.8535V27.1132L15.2501 32.7422Z" stroke="#FFB800" stroke-width="3" stroke-linecap="round" stroke-linejoin="round"/>
<path id="Vector_4" d="M30.0003 15C32.6284 15.0005 35.2101 15.6914 37.4871 17.0036C39.7641 18.3158 41.6564 20.2032 42.9745 22.4768C44.2926 24.7503 44.9902 27.3303 44.9975 29.9583C45.0048 32.5863 44.3215 35.1702 43.0161 37.451C41.7106 39.7319 39.8289 41.6298 37.5592 42.9546C35.2895 44.2794 32.7116 44.9847 30.0837 44.9998C27.4557 45.0148 24.8699 44.3392 22.5851 43.0405C20.3004 41.7419 18.397 39.8657 17.0654 37.6" stroke="#FFB800" stroke-width="3" stroke-linecap="round" stroke-linejoin="round"/>
</g>
</g>
</svg>
