<svg width="80" height="80" viewBox="0 0 80 80" fill="none" xmlns="http://www.w3.org/2000/svg">
<rect opacity="0.2" width="80" height="80" rx="24" fill="#005D63"/>
<path fill-rule="evenodd" clip-rule="evenodd" d="M20 54.5378C20 55.542 20.814 56.356 21.8182 56.356H23.6364C36.6904 56.356 47.2727 45.7736 47.2727 32.7196V26.2014L49.6273 28.5469C50.3487 29.1647 51.424 29.1231 52.0956 28.4516C52.7672 27.78 52.8087 26.7046 52.1909 25.9833L46.7364 20.5287C46.0272 19.8238 44.8819 19.8238 44.1727 20.5287L38.7182 25.9833C38.1004 26.7046 38.1419 27.78 38.8135 28.4516C39.4851 29.1231 40.5604 29.1647 41.2818 28.5469L43.6364 26.2014V32.7196C43.6364 43.7653 34.6821 52.7196 23.6364 52.7196H21.8182C20.814 52.7196 20 53.5336 20 54.5378ZM52.7268 45.4474C56.7434 45.4474 59.9996 48.7035 59.9996 52.7201C59.9996 56.7367 56.7434 59.9928 52.7268 59.9928C48.7102 59.9928 45.4541 56.7367 45.4541 52.7201C45.4541 48.7035 48.7102 45.4474 52.7268 45.4474ZM49.0928 52.721C49.0928 54.7293 50.7208 56.3573 52.7291 56.3573C54.7374 56.3573 56.3655 54.7293 56.3655 52.721C56.3655 50.7127 54.7374 49.0846 52.7291 49.0846C50.7208 49.0846 49.0928 50.7127 49.0928 52.721ZM24.9185 43.0915C24.2094 43.7965 23.064 43.7965 22.3549 43.0915C21.6499 42.3823 21.6499 41.237 22.3549 40.5279L25.6094 37.2642L22.3549 34.0006C21.7371 33.2792 21.7786 32.2039 22.4502 31.5323C23.1218 30.8607 24.1971 30.8192 24.9185 31.437L28.1822 34.6915L31.4458 31.437C32.1672 30.8192 33.2425 30.8607 33.9141 31.5323C34.5857 32.2039 34.6272 33.2792 34.0094 34.0006L30.7549 37.2642L34.0094 40.5279C34.6272 41.2492 34.5857 42.3246 33.9141 42.9962C33.2425 43.6677 32.1672 43.7093 31.4458 43.0915L28.1822 39.837L24.9185 43.0915Z" fill="#005D63"/>
</svg>
