<svg fill="none" height="80" viewBox="0 0 80 80" width="80" xmlns="http://www.w3.org/2000/svg"><path d="m65.3333 23.8281v9.9796c0 .6617-.2661 1.2963-.7398 1.7642s-1.1162.7307-1.7861.7307-1.3124-.2628-1.7861-.7307-.7398-1.1025-.7398-1.7642v-3.6924l-15.7869 17.8136c-.2367.2661-.5281.4794-.8547.6256-.3267.1463-.6811.2222-1.0397.2226-.3469.0088-.6919-.0532-1.0135-.1819-.3216-.1288-.6129-.3217-.8557-.5665l-5.658-5.6385-15.9133 18.0131c-.2138.2623-.4793.4791-.7803.6374-.301.1582-.6313.2547-.971.2834-.3397.0288-.6818-.0107-1.0057-.116s-.6228-.2743-.8788-.4968-.4637-.4939-.6106-.7978c-.147-.3039-.2301-.634-.2444-.9705s.0405-.6724.1612-.9874c.1206-.315.3046-.6026.5408-.8455l17.6813-19.9592c.2275-.2574.5062-.466.8186-.6127.3125-.1467.6522-.2284.9979-.2401.3458-.0117.6903.0469 1.0122.1721.3219.1253.6144.3145.8592.556l5.8601 5.5885 14.3219-16.2917h-4.2183c-.6699 0-1.3124-.2628-1.7861-.7307s-.7398-1.1025-.7398-1.7642c0-.6616.2661-1.2962.7398-1.7641s1.1162-.7307 1.7861-.7307h10.1036c.6699 0 1.3124.2628 1.7861.7307s.7398 1.1025.7398 1.7641z" fill="#3faeec"/><rect fill="#509fe8" height="80" opacity=".195" rx="24" width="80"/></svg>