<svg width="60" height="60" viewBox="0 0 60 60" fill="none" xmlns="http://www.w3.org/2000/svg">
<g id="Group 22 Copy 11">
<rect id="Rectangle Copy 27" opacity="0.2" width="60" height="60" rx="18" fill="#0066FF"/>
<path id="Vector" d="M45.5833 25.6364H44.1667C43.0395 25.6364 41.9585 26.0961 41.1615 26.9144C40.3644 27.7328 39.9167 28.8427 39.9167 30V35.8182C39.9167 36.204 39.7674 36.5739 39.5017 36.8467C39.2361 37.1195 38.8757 37.2727 38.5 37.2727C38.1243 37.2727 37.7639 37.1195 37.4983 36.8467C37.2326 36.5739 37.0833 36.204 37.0833 35.8182V18.3636C37.0833 17.2063 36.6356 16.0964 35.8385 15.2781C35.0415 14.4597 33.9605 14 32.8333 14C31.7062 14 30.6252 14.4597 29.8281 15.2781C29.0311 16.0964 28.5833 17.2063 28.5833 18.3636V41.6364C28.5833 42.0221 28.4341 42.3921 28.1684 42.6649C27.9027 42.9377 27.5424 43.0909 27.1667 43.0909C26.7909 43.0909 26.4306 42.9377 26.1649 42.6649C25.8993 42.3921 25.75 42.0221 25.75 41.6364V24.1818C25.75 23.0245 25.3022 21.9146 24.5052 21.0963C23.7082 20.2779 22.6272 19.8182 21.5 19.8182C20.3728 19.8182 19.2918 20.2779 18.4948 21.0963C17.6978 21.9146 17.25 23.0245 17.25 24.1818V30C17.25 30.3858 17.1007 30.7557 16.8351 31.0285C16.5694 31.3013 16.2091 31.4545 15.8333 31.4545H14.4167C14.0409 31.4545 13.6806 31.6078 13.4149 31.8806C13.1493 32.1534 13 32.5233 13 32.9091C13 33.2949 13.1493 33.6648 13.4149 33.9376C13.6806 34.2104 14.0409 34.3636 14.4167 34.3636H15.8333C16.9605 34.3636 18.0415 33.9039 18.8385 33.0856C19.6356 32.2672 20.0833 31.1573 20.0833 30V24.1818C20.0833 23.796 20.2326 23.4261 20.4983 23.1533C20.7639 22.8805 21.1243 22.7273 21.5 22.7273C21.8757 22.7273 22.2361 22.8805 22.5017 23.1533C22.7674 23.4261 22.9167 23.796 22.9167 24.1818V41.6364C22.9167 42.7937 23.3644 43.9036 24.1615 44.7219C24.9585 45.5403 26.0395 46 27.1667 46C28.2938 46 29.3748 45.5403 30.1719 44.7219C30.9689 43.9036 31.4167 42.7937 31.4167 41.6364V18.3636C31.4167 17.9779 31.5659 17.6079 31.8316 17.3351C32.0973 17.0623 32.4576 16.9091 32.8333 16.9091C33.2091 16.9091 33.5694 17.0623 33.8351 17.3351C34.1007 17.6079 34.25 17.9779 34.25 18.3636V35.8182C34.25 36.9755 34.6978 38.0854 35.4948 38.9037C36.2918 39.7221 37.3728 40.1818 38.5 40.1818C39.6272 40.1818 40.7082 39.7221 41.5052 38.9037C42.3022 38.0854 42.75 36.9755 42.75 35.8182V30C42.75 29.6142 42.8993 29.2443 43.1649 28.9715C43.4306 28.6987 43.7909 28.5455 44.1667 28.5455H45.5833C45.9591 28.5455 46.3194 28.3922 46.5851 28.1194C46.8507 27.8466 47 27.4767 47 27.0909C47 26.7051 46.8507 26.3352 46.5851 26.0624C46.3194 25.7896 45.9591 25.6364 45.5833 25.6364Z" fill="#0066FF"/>
</g>
</svg>
