<svg width="60" height="60" viewBox="0 0 60 60" fill="none" xmlns="http://www.w3.org/2000/svg">
<g id="Group 22 Copy 10">
<rect id="Rectangle Copy 27" opacity="0.2" width="60" height="60" rx="16" fill="#7000FF"/>
<path id="Vector" d="M45.12 39.63L36 36.435V35.9025C38.6383 35.5322 41.1005 34.3652 43.0575 32.5575C43.2141 32.4033 43.3349 32.2165 43.4114 32.0105C43.4879 31.8044 43.5181 31.5841 43.5 31.365C43.4811 31.1457 43.4142 30.9333 43.3041 30.7427C43.1939 30.5522 43.0431 30.3882 42.8625 30.2625C42.69 30.15 39 27.4725 39 19.44C38.8275 15.405 34.71 12 30 12C25.29 12 21.1725 15.405 21 19.5C21 27.4725 17.31 30.15 17.1675 30.255C16.9822 30.3768 16.8263 30.5382 16.7108 30.7276C16.5954 30.9169 16.5234 31.1295 16.5 31.35C16.4787 31.5709 16.5066 31.7938 16.5818 32.0026C16.6571 32.2114 16.7777 32.4009 16.935 32.5575C18.894 34.3666 21.3591 35.5337 24 35.9025V36.435L14.88 39.63C14.0378 39.9254 13.3082 40.4753 12.7923 41.2036C12.2763 41.9319 11.9994 42.8025 12 43.695V46.5C12 46.8978 12.158 47.2794 12.4393 47.5607C12.7206 47.842 13.1022 48 13.5 48H46.5C46.8978 48 47.2794 47.842 47.5607 47.5607C47.842 47.2794 48 46.8978 48 46.5V43.695C48.0006 42.8025 47.7237 41.9319 47.2077 41.2036C46.6918 40.4753 45.9622 39.9254 45.12 39.63ZM45 45H15V43.695C15.0013 43.4235 15.0862 43.1591 15.2432 42.9376C15.4002 42.7162 15.6217 42.5485 15.8775 42.4575L25.995 38.9175C26.2889 38.8148 26.5436 38.6231 26.7237 38.3691C26.9037 38.1151 27.0003 37.8114 27 37.5V34.5C27 34.1022 26.842 33.7206 26.5607 33.4393C26.2794 33.158 25.8978 33 25.5 33C23.6309 32.9744 21.8085 32.4121 20.25 31.38C21.75 29.6025 24 25.95 24 19.56C24.0975 17.13 26.9025 15 30 15C33.0975 15 35.9025 17.13 36 19.5C36 25.935 38.19 29.6025 39.75 31.3875C38.1918 32.4193 36.3688 32.9792 34.5 33C34.1022 33 33.7206 33.158 33.4393 33.4393C33.158 33.7206 33 34.1022 33 34.5V37.5C32.9997 37.8114 33.0963 38.1151 33.2763 38.3691C33.4564 38.6231 33.7111 38.8148 34.005 38.9175L44.1225 42.4575C44.3783 42.5485 44.5998 42.7162 44.7568 42.9376C44.9138 43.1591 44.9987 43.4235 45 43.695V45Z" fill="#7000FF"/>
</g>
</svg>
