<svg width="60" height="60" viewBox="0 0 60 60" fill="none" xmlns="http://www.w3.org/2000/svg">
<rect opacity="0.195126" width="60" height="60" rx="16" fill="#FF0000"/>
<path d="M30 31.25C32.7614 31.25 35 29.0114 35 26.25C35 23.4886 32.7614 21.25 30 21.25C27.2386 21.25 25 23.4886 25 26.25C25 29.0114 27.2386 31.25 30 31.25Z" stroke="#FF0000" stroke-width="3" stroke-linecap="round" stroke-linejoin="round"/>
<path d="M42.5 26.25C42.5 37.5 30 46.25 30 46.25C30 46.25 17.5 37.5 17.5 26.25C17.5 22.9348 18.817 19.7554 21.1612 17.4112C23.5054 15.067 26.6848 13.75 30 13.75C33.3152 13.75 36.4946 15.067 38.8388 17.4112C41.183 19.7554 42.5 22.9348 42.5 26.25V26.25Z" stroke="#FF0000" stroke-width="3" stroke-linecap="round" stroke-linejoin="round"/>
</svg>
