<svg width="60" height="60" viewBox="0 0 60 60" fill="none" xmlns="http://www.w3.org/2000/svg">
<g id="Group 22 Copy 10">
<rect id="Rectangle Copy 27" opacity="0.2" width="60" height="60" rx="16" fill="#7000FF"/>
<g id="hard-drives">
<path id="Vector" d="M42.5 32.5H17.5C16.8096 32.5 16.25 33.0596 16.25 33.75V41.25C16.25 41.9404 16.8096 42.5 17.5 42.5H42.5C43.1904 42.5 43.75 41.9404 43.75 41.25V33.75C43.75 33.0596 43.1904 32.5 42.5 32.5Z" stroke="#7000FF" stroke-width="3" stroke-linecap="round" stroke-linejoin="round"/>
<path id="Vector_2" d="M42.5 17.5H17.5C16.8096 17.5 16.25 18.0596 16.25 18.75V26.25C16.25 26.9404 16.8096 27.5 17.5 27.5H42.5C43.1904 27.5 43.75 26.9404 43.75 26.25V18.75C43.75 18.0596 43.1904 17.5 42.5 17.5Z" stroke="#7000FF" stroke-width="3" stroke-linecap="round" stroke-linejoin="round"/>
<path id="Vector_3" d="M38.125 24.375C39.1605 24.375 40 23.5355 40 22.5C40 21.4645 39.1605 20.625 38.125 20.625C37.0895 20.625 36.25 21.4645 36.25 22.5C36.25 23.5355 37.0895 24.375 38.125 24.375Z" fill="#7000FF"/>
<path id="Vector_4" d="M38.125 39.375C39.1605 39.375 40 38.5355 40 37.5C40 36.4645 39.1605 35.625 38.125 35.625C37.0895 35.625 36.25 36.4645 36.25 37.5C36.25 38.5355 37.0895 39.375 38.125 39.375Z" fill="#7000FF"/>
</g>
</g>
</svg>
