<svg xmlns="http://www.w3.org/2000/svg" width="15" height="12" viewBox="0 0 15 12">
    <path fill="#2E8BFF" fill-rule="nonzero" d="M13.594.535c.39 0 .722.137.996.41.273.274.41.606.41.996v8.438c0 .39-.137.722-.41.996-.274.273-.606.41-.996.41H1.406c-.39 0-.722-.137-.996-.41a1.356 1.356 0 0 1-.41-.996V1.94c0-.39.137-.722.41-.996.274-.273.606-.41.996-.41h12.188zm0 1.406H1.406v1.201c.684.547 2.002 1.583 3.955 3.106l.264.234c.39.332.703.567.937.703.372.254.684.381.938.381.254 0 .566-.127.937-.38.235-.137.547-.372.938-.704l.264-.234c1.953-1.504 3.271-2.54 3.955-3.106v-1.2zM1.406 10.38h12.188v-5.45l-3.399 2.696c-.488.41-.888.703-1.2.879-.528.312-1.026.469-1.495.469-.469 0-.977-.157-1.523-.47-.293-.175-.694-.468-1.202-.878L1.406 4.93v5.449z"/>
</svg>
