<?xml version="1.0"?>
<!--Icons from directory ""-->
<svg xmlns="http://www.w3.org/2000/svg" width="15" height="54" viewBox="0 0 15 54"><svg width="15" height="12" id="envelope" y="0"><path fill="#2E8BFF" d="M13.594.535c.39 0 .722.137.996.41.273.274.41.606.41.996v8.438c0 .39-.137.722-.41.996a1.36 1.36 0 0 1-.996.41H1.406a1.36 1.36 0 0 1-.996-.41 1.356 1.356 0 0 1-.41-.996V1.94c0-.39.137-.722.41-.996a1.36 1.36 0 0 1 .996-.41h12.188zm0 1.406H1.406v1.201c.684.547 2.002 1.583 3.955 3.106l.264.234c.39.332.703.567.937.703.372.254.684.381.938.381.254 0 .566-.127.937-.38.235-.137.547-.372.938-.704l.264-.234c1.953-1.504 3.271-2.54 3.955-3.106v-1.2zM1.406 10.38h12.188V4.93l-3.399 2.696c-.488.41-.888.703-1.2.879-.528.312-1.026.469-1.495.469-.469 0-.977-.157-1.523-.47-.293-.175-.694-.468-1.202-.878L1.406 4.93v5.449z"/></svg><svg width="8" height="15" id="facebook" y="12"><path fill="#2E8BFF" d="M7.242.384v2.21H5.927c-1.03 0-1.222.493-1.222 1.205v1.582h2.453L6.83 7.859H4.705v6.353H2.144V7.859H.009V5.38h2.135V3.556c0-2.118 1.297-3.273 3.19-3.273.903 0 1.682.067 1.908.1z"/></svg><svg width="14" height="14" id="instagram" y="27"><path fill="#2E8BFF" d="M4.067 0h5.866a4.072 4.072 0 0 1 4.062 3.864l.005.203v5.866a4.072 4.072 0 0 1-3.864 4.062L9.933 14H4.067a4.072 4.072 0 0 1-4.062-3.864L0 9.933V4.067A4.072 4.072 0 0 1 3.864.005L4.067 0h5.866zm5.866 1.094H4.067a2.977 2.977 0 0 0-2.968 2.798l-.005.175v5.866a2.976 2.976 0 0 0 2.798 2.968l.175.005h5.866a2.976 2.976 0 0 0 2.968-2.798l.005-.175V4.067a2.976 2.976 0 0 0-2.973-2.973zM7 3.227A3.778 3.778 0 0 1 10.773 7 3.778 3.778 0 0 1 7 10.773 3.778 3.778 0 0 1 3.227 7 3.778 3.778 0 0 1 7 3.227zM7 4.32A2.683 2.683 0 0 0 4.32 7 2.683 2.683 0 0 0 7 9.68 2.683 2.683 0 0 0 9.68 7 2.683 2.683 0 0 0 7 4.32zm3.828-1.695a.547.547 0 1 1 0 1.094.547.547 0 0 1 0-1.094z"/></svg><svg width="14" height="13" id="linkedin" y="41"><path fill="#2E8BFF" d="M3.326 4.515v8.295H.564V4.515h2.762zm.176-2.561c.008.795-.594 1.43-1.557 1.43h-.017C1 3.385.405 2.75.405 1.955c0-.812.62-1.432 1.557-1.432.946 0 1.531.62 1.54 1.432zm4.101 3.74c.364-.568 1.02-1.372 2.486-1.372 1.817 0 3.173 1.189 3.173 3.734v4.754h-2.754V8.374c0-1.114-.402-1.875-1.398-1.875-.762 0-1.214.51-1.414 1.004a2.074 2.074 0 0 0-.093.678v4.63H4.85c.033-7.518 0-8.296 0-8.296h2.753v1.179z"/></svg></svg>
