<svg width="745" height="700" viewBox="0 0 745 700" fill="none" xmlns="http://www.w3.org/2000/svg">
<g opacity="0.1">
<path fill-rule="evenodd" clip-rule="evenodd" d="M243.814 119.223H243.815L243.815 458.489H243.814C167.881 458.489 106.323 396.939 106.323 321.014V256.699C106.323 180.773 167.881 119.223 243.814 119.223Z" stroke="white" stroke-width="3.658"/>
<path fill-rule="evenodd" clip-rule="evenodd" d="M171.265 119.223L671.133 119.223C742.864 119.223 801.015 177.367 801.015 249.091L171.265 249.091C135.399 249.091 106.323 220.019 106.323 184.158C106.323 148.295 135.399 119.223 171.265 119.223Z" stroke="white" stroke-width="3.658"/>
<path fill-rule="evenodd" clip-rule="evenodd" d="M622.519 772.028V772.028C721.1 772.028 801.016 692.122 801.016 593.552V249.091H734.146C672.496 249.091 622.519 299.062 622.519 360.705V772.028Z" stroke="white" stroke-width="3.658"/>
<path fill-rule="evenodd" clip-rule="evenodd" d="M521.641 249.091C521.641 304.798 566.805 349.957 622.519 349.957C678.231 349.957 723.395 304.798 723.395 249.091C723.395 193.384 678.231 148.226 622.519 148.226C566.805 148.226 521.641 193.384 521.641 249.091Z" stroke="white" stroke-width="3.658"/>
<path fill-rule="evenodd" clip-rule="evenodd" d="M248.17 393.972H471.884C507.52 393.972 536.408 422.857 536.408 458.489C536.408 494.121 507.52 523.006 471.884 523.006H248.17C212.534 523.006 183.646 494.121 183.646 458.489C183.646 422.857 212.534 393.972 248.17 393.972Z" stroke="white" stroke-width="3.658"/>
<path fill-rule="evenodd" clip-rule="evenodd" d="M312.695 458.489C312.695 422.857 283.807 393.972 248.171 393.972C212.534 393.972 183.646 422.857 183.646 458.489C183.646 494.121 212.534 523.006 248.171 523.006C283.807 523.006 312.695 494.121 312.695 458.489Z" stroke="white" stroke-width="3.658"/>
<path fill-rule="evenodd" clip-rule="evenodd" d="M210.648 -25.6875C210.648 -83.298 163.941 -130 106.324 -130C48.7074 -130 2 -83.298 2 -25.6875C2 31.9222 48.7074 78.624 106.324 78.624C163.941 78.624 210.648 31.9222 210.648 -25.6875Z" stroke="white" stroke-width="3.658"/>
<path d="M106.324 292.466L106.324 -25.6876" stroke="white" stroke-width="3.658" stroke-linecap="round" stroke-linejoin="round"/>
<path fill-rule="evenodd" clip-rule="evenodd" d="M299.124 249.091H243.815V393.972H444.021C444.021 313.957 379.149 249.091 299.124 249.091Z" stroke="white" stroke-width="3.658"/>
<path d="M403.082 172.686V64.1534" stroke="white" stroke-width="3.658" stroke-linecap="round" stroke-linejoin="round"/>
<path fill-rule="evenodd" clip-rule="evenodd" d="M444.021 522.805H622.518V772.028C523.937 772.028 444.021 692.121 444.021 593.552V522.805Z" stroke="white" stroke-width="3.658"/>
<path fill-rule="evenodd" clip-rule="evenodd" d="M107.73 62.093C107.73 62.093 108.686 78.0712 130.546 74.3531C130.546 74.3531 116.524 79.7801 106.323 78.6244L107.73 62.093Z" fill="white"/>
<path fill-rule="evenodd" clip-rule="evenodd" d="M107.932 188.999C107.932 188.999 108.798 197.223 112.187 197.675C116.709 198.278 121.568 190.712 121.568 190.712L113.814 211.828L106.324 233.71L107.532 196.684L107.932 188.999Z" fill="white"/>
<path fill-rule="evenodd" clip-rule="evenodd" d="M671.164 266.882C671.164 266.882 680.343 261.054 680.343 255.895C680.343 250.736 662.252 250.535 662.252 250.535L664.664 249.463H711.767L707.437 252.307C707.437 252.307 679.244 262.964 673.304 267.113L671.164 266.882Z" fill="white"/>
<path fill-rule="evenodd" clip-rule="evenodd" d="M522.315 500.997C522.315 500.997 514.442 510.238 522.516 516.925C528.394 521.796 541.712 521.397 541.712 521.397L488.042 523.006L488.604 520.817C488.604 520.817 512.934 511.784 522.315 500.997Z" fill="white"/>
<path fill-rule="evenodd" clip-rule="evenodd" d="M304.118 423.819C304.118 423.819 295.676 412.162 299.797 403.72C303.918 395.279 321.908 395.379 321.908 395.379L315.476 393.972L258.689 394.374C258.689 394.374 290.299 401.509 304.118 423.819Z" fill="white"/>
<path fill-rule="evenodd" clip-rule="evenodd" d="M220.766 247.721C220.766 247.721 242.407 247.578 242.407 225.47L244.217 228.761L243.815 249.091L222.173 248.725L220.766 247.721Z" fill="white"/>
</g>
</svg>
