<svg width="184" height="98" viewBox="0 0 184 98" fill="none" xmlns="http://www.w3.org/2000/svg">
<path d="M17.4043 19.1319C17.4043 14.5922 14.5101 12.1385 11.2032 12.1385C7.89584 12.1385 5.00204 14.5922 5.00204 19.1319C5.00204 23.7126 7.89584 26.1672 11.2032 26.1672C14.5101 26.1672 17.4043 23.7126 17.4043 19.1319ZM21.3727 19.1319C21.3727 25.1447 17.156 29.6023 11.2032 29.6023C5.24988 29.6023 1.0332 25.1447 1.0332 19.1319C1.0332 13.1606 5.24988 8.7025 11.2032 8.7025C17.156 8.7025 21.3727 13.1606 21.3727 19.1319Z" fill="url(#paint0_linear)"/>
<path d="M27.4589 22.6494C27.7069 24.6943 29.2781 26.33 32.0892 26.33C34.2801 26.33 35.4791 25.1034 35.4791 23.7126C35.4791 22.4857 34.5699 21.5446 32.9161 21.177L29.5265 20.4408C26.4254 19.7865 24.565 17.7003 24.565 14.9198C24.565 11.5654 27.7484 8.7025 31.6345 8.7025C37.0918 8.7025 38.7867 12.2197 39.2003 13.9789L35.7687 15.2465C35.6029 14.2244 34.7763 11.9745 31.6345 11.9745C29.65 11.9745 28.3272 13.2422 28.3272 14.5922C28.3272 15.778 29.0715 16.6374 30.6004 16.9647L33.8259 17.6598C37.4227 18.437 39.3241 20.6045 39.3241 23.5084C39.3241 26.2895 36.9674 29.6023 32.0481 29.6023C26.5912 29.6023 24.2757 26.1261 23.9453 23.8763L27.4589 22.6494Z" fill="url(#paint1_linear)"/>
<path d="M69.4403 19.1319C69.4403 14.5922 66.5463 12.1385 63.2393 12.1385C59.932 12.1385 57.038 14.5922 57.038 19.1319C57.038 23.7126 59.932 26.1672 63.2393 26.1672C66.5463 26.1672 69.4403 23.7126 69.4403 19.1319ZM73.4088 19.1319C73.4088 25.1447 69.192 29.6023 63.2393 29.6023C57.2859 29.6023 53.0693 25.1447 53.0693 19.1319C53.0693 13.1606 57.2859 8.7025 63.2393 8.7025C69.192 8.7025 73.4088 13.1606 73.4088 19.1319Z" fill="url(#paint2_linear)"/>
<path d="M2.68652 43.5608H6.5313V63.2334H2.68652V43.5608Z" fill="url(#paint3_linear)"/>
<path d="M16.2055 63.2334H12.3193V43.5608H16.1229V46.3831C17.57 43.9288 19.926 42.988 22.2415 42.988C26.9959 42.988 29.3519 46.3831 29.3519 50.7594V63.2334H25.4662V51.4135C25.4662 48.6732 24.3085 46.4652 20.8358 46.4652C17.7768 46.4652 16.2055 48.8779 16.2055 51.8629V63.2334Z" fill="url(#paint4_linear)"/>
<path d="M38.6124 63.2334H34.7266V43.5608H38.5303V46.3831C39.9769 43.9288 42.3327 42.988 44.6487 42.988C49.4029 42.988 51.7593 46.3831 51.7593 50.7594V63.2334H47.8732V51.4135C47.8732 48.6732 46.7158 46.4652 43.2428 46.4652C40.1833 46.4652 38.6124 48.8779 38.6124 51.8629V63.2334Z" fill="url(#paint5_linear)"/>
<path d="M71.8515 53.3765C71.8515 48.8365 68.9572 46.3831 65.6505 46.3831C62.3429 46.3831 59.4492 48.8365 59.4492 53.3765C59.4492 57.9577 62.3429 60.4115 65.6505 60.4115C68.9572 60.4115 71.8515 57.9577 71.8515 53.3765ZM75.8204 53.3765C75.8204 59.389 71.6031 63.8472 65.6505 63.8472C59.6973 63.8472 55.4805 59.389 55.4805 53.3765C55.4805 47.406 59.6973 42.9474 65.6505 42.9474C71.6031 42.9474 75.8204 47.406 75.8204 53.3765Z" fill="url(#paint6_linear)"/>
<path d="M89.0505 63.2334H85.123L77.0615 43.5608H81.4435L87.1069 58.7353L92.8123 43.5608H96.9876L89.0505 63.2334Z" fill="url(#paint7_linear)"/>
<path d="M111.582 54.8086V53.9079L105.505 54.8086C103.851 55.0533 102.61 55.9941 102.61 57.7528C102.61 59.2254 103.851 60.6162 105.834 60.6162C109.018 60.6162 111.582 59.1025 111.582 54.8086ZM104.677 51.9865L110.052 51.209C111.251 51.0456 111.582 50.4323 111.582 49.7372C111.582 47.8141 110.299 46.2194 107.282 46.2194C104.553 46.2194 103.023 47.8965 102.776 50.1865L99.0543 49.3275C99.4682 45.5645 102.9 42.9474 107.199 42.9474C113.152 42.9474 115.468 46.3012 115.468 50.1455V60.0029C115.468 61.7205 115.633 62.7435 115.716 63.2333H111.913C111.829 62.7435 111.705 62.0073 111.705 60.5751C110.838 61.9654 108.853 63.8472 105.298 63.8472C101.246 63.8472 98.6416 61.0664 98.6416 57.9577C98.6416 54.4405 101.246 52.4772 104.677 51.9865Z" fill="url(#paint8_linear)"/>
<path d="M125.886 43.5609H130.185V47.0374H125.886V57.2623C125.886 59.062 126.63 59.9615 128.655 59.9615C129.151 59.9615 129.853 59.8803 130.185 59.7984V63.0702C129.853 63.1928 128.862 63.438 127.539 63.438C124.149 63.438 121.999 61.3931 121.999 57.8348V47.0374H118.196V43.5609H119.271C121.42 43.5609 122.33 42.2522 122.33 40.5341V37.3442H125.886V43.5609Z" fill="url(#paint9_linear)"/>
<path d="M134.526 43.5608H138.371V63.2334H134.526V43.5608Z" fill="url(#paint10_linear)"/>
<path d="M158.876 53.3765C158.876 48.8365 155.982 46.3831 152.674 46.3831C149.367 46.3831 146.474 48.8365 146.474 53.3765C146.474 57.9577 149.367 60.4115 152.674 60.4115C155.982 60.4115 158.876 57.9577 158.876 53.3765ZM162.845 53.3765C162.845 59.389 158.628 63.8472 152.674 63.8472C146.722 63.8472 142.505 59.389 142.505 53.3765C142.505 47.406 146.722 42.9474 152.674 42.9474C158.628 42.9474 162.845 47.406 162.845 53.3765Z" fill="url(#paint11_linear)"/>
<path d="M166.975 63.2439V43.5496H170.783V46.3235H170.811V46.268H170.839V46.2402H170.867V46.1848H170.895V46.1293H170.923V46.1015H170.951V46.0461H170.979V46.0183H171.007V45.9629H171.035V45.9351H171.063V45.8796H171.091V45.8519H171.119V45.8242H171.147V45.7687H171.175V45.7409H171.203V45.7132H171.231V45.6577H171.259V45.63H171.287V45.5745H171.315V45.5468H171.343V45.519H171.371V45.4913H171.399V45.4358H171.427V45.4081H171.455V45.3803H171.483V45.3526H171.511V45.3249H171.539V45.2694H171.567V45.2417H171.595V45.2139H171.623V45.1862H171.651V45.1584H171.679V45.1307H171.707V45.103H171.735V45.0752H171.763V45.0475H171.791V45.0197H171.819V44.992H171.847V44.9643H171.875V44.9365H171.903V44.9088H171.931V44.8811H171.959V44.8256H171.987V44.7978H172.043V44.7701H172.071V44.7424H172.099V44.7146H172.127V44.6869H172.155V44.6591H172.183V44.6314H172.211V44.6037H172.239V44.5759H172.295V44.5482H172.323V44.5205H172.351V44.4927H172.379V44.465H172.407V44.4372H172.463V44.4095H172.491V44.3818H172.519V44.354H172.575V44.3263H172.603V44.2985H172.631V44.2708H172.687V44.2431H172.715V44.2153H172.743V44.1876H172.799V44.1599H172.827V44.1321H172.883V44.1044H172.911V44.0766H172.967V44.0489H172.995V44.0212H173.051V43.9934H173.107V43.9657H173.135V43.9379H173.191V43.9102H173.247V43.8825H173.303V43.8547H173.331V43.827H173.387V43.7993H173.443V43.7715H173.499V43.7438H173.555V43.716H173.611V43.6883H173.667V43.6606H173.723V43.6328H173.779V43.6051H173.835V43.5773H173.891V43.5496H173.975V43.5219H174.031V43.4941H174.115V43.4664H174.171V43.4387H174.255V43.4109H174.339V43.3832H174.423V43.3554H174.507V43.3277H174.591V43.3H174.675V43.2722H174.759V43.2445H174.871V43.2167H174.983V43.189H175.095V43.1613H175.207V43.1335H175.375V43.1058H175.515V43.0781H175.683V43.0503H175.879V43.0226H176.159V42.9948H176.579V42.9671H177.251V42.9948H177.699V43.0226H177.951V43.0503H178.147V43.0781H178.315V43.1058H178.511V43.1335H178.651V43.1613H178.763V43.189H178.875V43.2167H178.987V43.2445H179.099V43.2722H179.211V43.3H179.323V43.3277H179.407V43.3554H179.491V43.3832H179.547V43.4109H179.631V43.4387H179.715V43.4664H179.771V43.4941H179.855V43.5219H179.939V43.5496H179.995V43.5773H180.079V43.6051H180.135V43.6328H180.163V43.6606H180.219V43.6883H180.276V43.716H180.332V43.7438H180.388V43.7715H180.444V43.7993H180.5V43.827H180.556V43.8547H180.612V43.8825H180.668V43.9102H180.724V43.9379H180.752V43.9657H180.808V43.9934H180.836V44.0212H180.892V44.0489H180.92V44.0766H180.976V44.1044H181.004V44.1321H181.06V44.1599H181.088V44.1876H181.144V44.2153H181.172V44.2431H181.228V44.2708H181.256V44.2985H181.284V44.3263H181.34V44.354H181.368V44.3818H181.396V44.4095H181.424V44.4372H181.452V44.465H181.48V44.4927H181.536V44.5205H181.564V44.5482H181.592V44.5759H181.62V44.6037H181.648V44.6314H181.704V44.6591H181.732V44.6869H181.76V44.7146H181.788V44.7424H181.816V44.7701H181.844V44.7978H181.872V44.8256H181.9V44.8533H181.928V44.8811H181.956V44.9088H181.984V44.9365H182.012V44.992H182.04V45.0197H182.068V45.0475H182.096V45.0752H182.124V45.103H182.152V45.1307H182.18V45.1584H182.208V45.1862H182.236V45.2139H182.264V45.2417H182.292V45.2971H182.32V45.3249H182.348V45.3526H182.376V45.4081H182.404V45.4358H182.432V45.4636H182.46V45.519H182.488V45.5468H182.516V45.5745H182.544V45.63H182.572V45.6577H182.6V45.6855H182.628V45.7409H182.656V45.7687H182.684V45.8242H182.712V45.8519H182.74V45.9074H182.768V45.9629H182.796V45.9906H182.824V46.0461H182.852V46.1015H182.88V46.1293H182.908V46.1848H182.936V46.2402H182.964V46.268H182.992V46.3235H183.02V46.3789H183.048V46.4344H183.076V46.4899H183.104V46.5454H183.132V46.6008H183.16V46.6563H183.188V46.7395H183.216V46.795H183.244V46.8505H183.272V46.906H183.3V46.9614H183.328V47.0169H183.356V47.1001H183.384V47.1833H183.412V47.2666H183.44V47.322H183.468V47.4053H183.496V47.4885H183.524V47.5717H183.552V47.6272H183.58V47.7381H183.608V47.8213H183.636V47.9323H183.664V48.0432H183.692V48.1542H183.72V48.2374H183.748V48.3484H183.776V48.4871H183.804V48.6257H183.832V48.7922H183.86V48.9309H183.888V49.0973H183.916V49.2915H183.944V49.5688H183.972V49.8185H184V63.2439H180.107V50.8726H180.079V50.5674H180.051V50.3178H180.023V50.1514H179.995V49.9572H179.967V49.8462H179.939V49.7075H179.911V49.5966H179.883V49.4856H179.855V49.4024H179.827V49.2915H179.799V49.2082H179.771V49.125H179.743V49.0418H179.715V48.9863H179.687V48.9309H179.659V48.8476H179.631V48.7922H179.603V48.709H179.575V48.6535H179.547V48.598H179.519V48.5703H179.491V48.5148H179.463V48.4593H179.435V48.4038H179.407V48.3484H179.379V48.2929H179.351V48.2651H179.323V48.2097H179.295V48.1819H179.267V48.1542H179.239V48.0987H179.211V48.071H179.183V48.0155H179.155V47.9878H179.127V47.96H179.099V47.9045H179.071V47.8768H179.043V47.8491H179.015V47.8213H178.987V47.7936H178.959V47.7659H178.931V47.7381H178.903V47.7104H178.875V47.6549H178.847V47.6272H178.819V47.5994H178.791V47.5717H178.735V47.5439H178.707V47.5162H178.679V47.4885H178.651V47.4607H178.623V47.433H178.595V47.4053H178.539V47.3775H178.511V47.3498H178.483V47.322H178.455V47.2943H178.399V47.2666H178.371V47.2388H178.315V47.2111H178.287V47.1833H178.231V47.1556H178.203V47.1279H178.147V47.1001H178.119V47.0724H178.063V47.0447H178.007V47.0169H177.951V46.9892H177.895V46.9614H177.839V46.9337H177.783V46.906H177.727V46.8782H177.671V46.8505H177.587V46.8227H177.503V46.795H177.419V46.7673H177.335V46.7395H177.279V46.7118H177.195V46.6841H177.055V46.6563H176.943V46.6286H176.831V46.6008H176.719V46.5731H176.523V46.5454H176.299V46.5176H176.103V46.4899H175.011V46.5176H174.787V46.5454H174.619V46.5731H174.451V46.6008H174.339V46.6286H174.227V46.6563H174.143V46.6841H174.031V46.7118H173.947V46.7395H173.863V46.7673H173.807V46.795H173.723V46.8227H173.667V46.8505H173.583V46.8782H173.527V46.906H173.471V46.9337H173.415V46.9614H173.359V46.9892H173.303V47.0169H173.247V47.0447H173.219V47.0724H173.163V47.1001H173.107V47.1279H173.051V47.1556H173.023V47.1833H172.995V47.2111H172.939V47.2388H172.911V47.2666H172.855V47.2943H172.827V47.322H172.799V47.3498H172.743V47.3775H172.715V47.4053H172.687V47.433H172.659V47.4607H172.603V47.4885H172.575V47.5162H172.547V47.5439H172.519V47.5717H172.491V47.5994H172.463V47.6272H172.435V47.6549H172.407V47.6826H172.379V47.7104H172.351V47.7381H172.323V47.7659H172.295V47.7936H172.267V47.8213H172.239V47.8491H172.211V47.8768H172.183V47.9323H172.155V47.96H172.127V47.9878H172.099V48.0155H172.071V48.0432H172.043V48.071H172.015V48.1265H171.987V48.1542H171.959V48.2097H171.931V48.2374H171.903V48.2929H171.875V48.3206H171.847V48.3484H171.819V48.4038H171.791V48.4316H171.763V48.4871H171.735V48.5425H171.707V48.5703H171.679V48.6257H171.651V48.6812H171.623V48.7367H171.595V48.7922H171.567V48.8199H171.539V48.8754H171.511V48.9586H171.483V49.0141H171.455V49.0696H171.427V49.125H171.399V49.2082H171.371V49.2637H171.343V49.3192H171.315V49.4024H171.287V49.4856H171.259V49.5688H171.231V49.6521H171.203V49.7353H171.175V49.8185H171.147V49.9294H171.119V50.0404H171.091V50.1514H171.063V50.2623H171.035V50.401H171.007V50.5674H170.979V50.7061H170.951V50.928H170.923V51.2054H170.895V51.7047H170.867V63.2439" fill="url(#paint12_linear)"/>
<path d="M17.9009 77.7139L23.068 92.5193L27.4506 77.7139H31.5431L25.094 97.386H21.0841L15.7923 82.417L10.6246 97.386H6.53208L0 77.7139H4.25824L8.72334 92.5193L13.8905 77.7139H17.9009Z" fill="url(#paint13_linear)"/>
<path d="M42.7322 98.0002V97.9725H42.3681V97.9448H42.1721V97.917H41.9761V97.8893H41.7521V97.8616H41.5561V97.8338H41.4161V97.8061H41.2761V97.7783H41.1641V97.7506H41.052V97.7229H40.94V97.6951H40.8V97.6674H40.688V97.6396H40.576V97.6119H40.492V97.5842H40.408V97.5564H40.324V97.5287H40.24V97.501H40.156V97.4732H40.072V97.4455H39.988V97.4177H39.904V97.39H39.82V97.3623H39.736V97.3345H39.652V97.3068H39.596V97.279H39.5119V97.2513H39.4559V97.2236H39.3999V97.1958H39.3439V97.1681H39.2879V97.1404H39.2039V97.1126H39.1479V97.0849H39.0919V97.0571H39.0359V97.0294H38.9799V97.0017H38.8959V96.9739H38.8399V96.9462H38.7839V96.9184H38.7279V96.8907H38.6719V96.863H38.6439V96.8352H38.5879V96.8075H38.5319V96.7798H38.4759V96.752H38.4479V96.7243H38.3919V96.6965H38.3359V96.6688H38.2799V96.6411H38.2519V96.6133H38.1959V96.5856H38.1399V96.5578H38.0839V96.5301H38.0559V96.5024H37.9998V96.4746H37.9438V96.4469H37.9158V96.4192H37.8598V96.3914H37.8318V96.3637H37.8038V96.3359H37.7478V96.3082H37.7198V96.2805H37.6638V96.2527H37.6358V96.225H37.6078V96.1972H37.5518V96.1695H37.5238V96.1418H37.4958V96.114H37.4398V96.0863H37.4118V96.0586H37.3558V96.0308H37.3278V96.0031H37.2998V95.9753H37.2438V95.9476H37.2158V95.9199H37.1598V95.8921H37.1318V95.8644H37.1038V95.8366H37.0758V95.8089H37.0478V95.7812H37.0198V95.7534H36.9918V95.7257H36.9358V95.698H36.9078V95.6702H36.8798V95.6425H36.8518V95.6147H36.8238V95.587H36.7958V95.5593H36.7678V95.5315H36.7398V95.5038H36.6838V95.476H36.6558V95.4483H36.6278V95.4206H36.5998V95.3928H36.5718V95.3651H36.5438V95.3374H36.5157V95.3096H36.4877V95.2819H36.4317V95.2541H36.4037V95.1987H36.3757V95.1709H36.3477V95.1432H36.3197V95.1154H36.2917V95.0877H36.2637V95.06H36.2357V95.0322H36.2077V95.0045H36.1797V94.9768H36.1517V94.949H36.1237V94.8935H36.0957V94.8658H36.0677V94.8381H36.0397V94.8103H36.0117V94.7826H35.9837V94.7548H35.9557V94.7271H35.9277V94.6994H35.8997V94.6716H35.8717V94.6439H35.8437V94.6162H35.8157V94.5607H35.7877V94.5329H35.7597V94.5052H35.7317V94.4775H35.7037V94.422H35.6757V94.3943H35.6477V94.3388H35.6197V94.311H35.5917V94.2833H35.5637V94.2278H35.5357V94.2001H35.5077V94.1723H35.4797V94.1169H35.4517V94.0891H35.4237V94.0614H35.3957V94.0059H35.3677V93.9782H35.3397V93.9504H35.3117V93.895H35.2837V93.8672H35.2557V93.8395H35.2277V93.784H35.1997V93.7563H35.1717V93.7008H35.1437V93.6453H35.1157V93.6176H35.0877V93.5621H35.0597V93.5066H35.0317V93.4789H35.0036V93.4234H34.9756V93.3679H34.9476V93.3125H34.9196V93.2847H34.8916V93.2292H34.8636V93.1738H34.8356V93.146H34.8076V93.0905H34.7796V93.0351H34.7516V93.0073H34.7236V92.9519H34.6956V92.8964H34.6676V92.8409H34.6396V92.7854H34.6116V92.7299H34.5836V92.6467H34.5556V92.5913H34.5276V92.5358H34.4996V92.4803H34.4716V92.4248H34.4436V92.3693H34.4156V92.2861H34.3876V92.2307H34.3596V92.1752H34.3316V92.1197H34.3036V92.0642H34.2756V91.981H34.2476V91.9255H34.2196V91.8423H34.1916V91.7591H34.1636V91.6759H34.1356V91.5927H34.1076V91.5095H34.0796V91.4262H34.0516V91.343H34.0236V91.2598H33.9956V91.2043H33.9676V91.1211H33.9396V91.0379H33.9116V90.9547H33.8836V90.816H33.8556V90.705H33.8276V90.5941H33.7996V90.4831H33.7716V90.3444H33.7436V90.2335H33.7156V90.1225H33.6876V90.0116H33.6596V89.8729H33.6316V89.6787H33.6036V89.4846H33.5756V89.2626H33.5476V89.0685H33.5196V88.8743H33.4916V88.5969H33.4635V88.0976H33.4355V86.9049H33.4635V86.4333H33.4916V86.1837H33.5196V85.9895H33.5476V85.7676H33.5756V85.5734H33.6036V85.3793H33.6316V85.2128H33.6596V85.1019H33.6876V84.9632H33.7156V84.8522H33.7436V84.7413H33.7716V84.6303H33.7996V84.4916H33.8276V84.3807H33.8556V84.2697H33.8836V84.1588H33.9116V84.1033H33.9396V84.0201H33.9676V83.9369H33.9956V83.8537H34.0236V83.7704H34.0516V83.6872H34.0796V83.604H34.1076V83.5208H34.1356V83.4376H34.1636V83.3544H34.1916V83.2711H34.2196V83.2157H34.2476V83.1325H34.2756V83.077H34.3036V83.0215H34.3316V82.966H34.3596V82.8828H34.3876V82.8273H34.4156V82.7719H34.4436V82.7164H34.4716V82.6332H34.4996V82.5777H34.5276V82.5222H34.5556V82.4667H34.5836V82.4113H34.6116V82.328H34.6396V82.2726H34.6676V82.2448H34.6956V82.1893H34.7236V82.1339H34.7516V82.0784H34.7796V82.0507H34.8076V81.9952H34.8356V81.9397H34.8636V81.8842H34.8916V81.8565H34.9196V81.801H34.9476V81.7455H34.9756V81.6901H35.0036V81.6623H35.0317V81.6068H35.0597V81.5514H35.0877V81.4959H35.1157V81.4681H35.1437V81.4127H35.1717V81.3849H35.1997V81.3572H35.2277V81.3017H35.2557V81.274H35.2837V81.2185H35.3117V81.1908H35.3397V81.1353H35.3677V81.1075H35.3957V81.0798H35.4237V81.0243H35.4517V80.9966H35.4797V80.9411H35.5077V80.9134H35.5357V80.8856H35.5637V80.8302H35.5917V80.8024H35.6197V80.747H35.6477V80.7192H35.6757V80.6637H35.7037V80.636H35.7317V80.6083H35.7597V80.5805H35.7877V80.5528H35.8157V80.525H35.8437V80.4973H35.8717V80.4418H35.8997V80.4141H35.9277V80.3864H35.9557V80.3586H35.9837V80.3309H36.0117V80.3031H36.0397V80.2477H36.0677V80.2199H36.0957V80.1922H36.1237V80.1644H36.1517V80.1367H36.1797V80.109H36.2077V80.0535H36.2357V80.0258H36.2637V79.998H36.2917V79.9703H36.3197V79.9425H36.3477V79.9148H36.3757V79.8871H36.4037V79.8593H36.4317V79.8316H36.4597V79.8038H36.4877V79.7761H36.5157V79.7484H36.5438V79.7206H36.5718V79.6929H36.5998V79.6652H36.6278V79.6374H36.6838V79.6097H36.7118V79.5819H36.7398V79.5542H36.7678V79.5265H36.7958V79.4987H36.8238V79.471H36.8518V79.4432H36.8798V79.4155H36.9078V79.3878H36.9358V79.36H36.9638V79.3323H36.9918V79.3046H37.0198V79.2768H37.0758V79.2491H37.1038V79.2213H37.1318V79.1936H37.1598V79.1659H37.2158V79.1381H37.2438V79.1104H37.2718V79.0826H37.3278V79.0549H37.3558V79.0272H37.3838V78.9994H37.4118V78.9717H37.4678V78.944H37.4958V78.9162H37.5238V78.8885H37.5518V78.8607H37.6078V78.833H37.6358V78.8053H37.6638V78.7775H37.7198V78.7498H37.7478V78.722H37.8038V78.6943H37.8318V78.6666H37.8878V78.6388H37.9158V78.6111H37.9718V78.5834H37.9998V78.5556H38.0559V78.5279H38.1119V78.5001H38.1399V78.4724H38.1959V78.4447H38.2239V78.4169H38.2799V78.3892H38.3079V78.3614H38.3639V78.3337H38.4199V78.306H38.4479V78.2782H38.5039V78.2505H38.5599V78.2228H38.6159V78.195H38.6719V78.1673H38.7279V78.1395H38.7839V78.1118H38.8399V78.0841H38.8959V78.0563H38.9519V78.0286H39.0079V78.0008H39.0639V77.9731H39.1199V77.9454H39.1479V77.9176H39.2039V77.8899H39.2599V77.8622H39.3159V77.8344H39.3999V77.8067H39.4839V77.7789H39.5399V77.7512H39.624V77.7235H39.68V77.6957H39.764V77.668H39.848V77.6402H39.904V77.6125H39.988V77.5848H40.072V77.557H40.128V77.5293H40.212V77.5016H40.324V77.4738H40.408V77.4461H40.52V77.4183H40.632V77.3906H40.716V77.3629H40.828V77.3351H40.94V77.3074H41.052V77.2796H41.1921V77.2519H41.3601V77.2242H41.5281V77.1964H41.6961V77.1687H41.8921V77.141H42.1161V77.1132H42.5081V77.0855H43.4602V77.1132H43.9642V77.141H44.2443V77.1687H44.4403V77.1964H44.6363V77.2242H44.8323V77.2519H45.0563V77.2796H45.1963V77.3074H45.3083V77.3351H45.4483V77.3629H45.5603V77.3906H45.6724V77.4183H45.7844V77.4461H45.8964V77.4738H46.0084V77.5016H46.1204V77.5293H46.2044V77.557H46.2884V77.5848H46.3724V77.6125H46.4564V77.6402H46.5404V77.668H46.5964V77.6957H46.6804V77.7235H46.7644V77.7512H46.8484V77.7789H46.9324V77.8067H46.9884V77.8344H47.0724V77.8622H47.1284V77.8899H47.1845V77.9176H47.2405V77.9454H47.2965V77.9731H47.3525V78.0008H47.4085V78.0286H47.4645V78.0563H47.5485V78.0841H47.6045V78.1118H47.6605V78.1395H47.7165V78.1673H47.7725V78.195H47.8285V78.2228H47.8845V78.2505H47.9405V78.2782H47.9685V78.306H48.0245V78.3337H48.0525V78.3614H48.1085V78.3892H48.1645V78.4169H48.1925V78.4447H48.2485V78.4724H48.2765V78.5001H48.3325V78.5279H48.3885V78.5556H48.4165V78.5834H48.4725V78.6111H48.5005V78.6388H48.5565V78.6666H48.6125V78.6943H48.6405V78.722H48.6966V78.7498H48.7246V78.7775H48.7526V78.8053H48.7806V78.833H48.8366V78.8607H48.8646V78.8885H48.8926V78.9162H48.9206V78.944H48.9766V78.9717H49.0046V78.9994H49.0326V79.0272H49.0606V79.0549H49.1166V79.0826H49.1446V79.1104H49.1726V79.1381H49.2006V79.1659H49.2566V79.1936H49.2846V79.2213H49.3126V79.2491H49.3406V79.2768H49.3966V79.3046H49.4246V79.3323H49.4526V79.36H49.4806V79.3878H49.5086V79.4155H49.5366V79.4432H49.5646V79.471H49.5926V79.4987H49.6206V79.5265H49.6486V79.5542H49.6766V79.5819H49.7046V79.6097H49.7326V79.6374H49.7606V79.6652H49.7886V79.6929H49.8166V79.7206H49.8446V79.7484H49.8726V79.7761H49.9006V79.8038H49.9286V79.8316H49.9566V79.8593H49.9846V79.8871H50.0126V79.9425H50.0406V79.9703H50.0686V79.998H50.0966V80.0258H50.1246V80.0535H50.1526V80.109H50.1806V80.1367H50.2087V80.1644H50.2367V80.1922H50.2647V80.2477H50.2927V80.2754H50.3207V80.3031H50.3487V80.3586H50.3767V80.3864H50.4047V80.4141H50.4327V80.4418H50.4607V80.4973H50.4887V80.525H50.5167V80.5528H50.5447V80.5805H50.5727V80.636H50.6007V80.6637H50.6287V80.6915H50.6567V80.747H50.6847V80.8024H50.7127V80.8302H50.7407V80.8856H50.7687V80.9134H50.7967V80.9689H50.8247V81.0243H50.8527V81.0521H50.8807V81.1075H50.9087V81.1353H50.9367V81.1908H50.9647V81.2185H50.9927V81.274H51.0207V81.3295H51.0487V81.3572H51.0767V81.4127H51.1047V81.4681H51.1327V81.5236H51.1607V81.5791H51.1887V81.6346H51.2167V81.6901H51.2447V81.7455H51.2727V81.801H51.3007V81.8565H51.3287V81.912H51.3567V81.9674H51.3847V82.0229H51.4127V82.0784H51.4407V82.1339H51.4687V82.1893H51.4967V82.2448H51.5247V82.3003H51.5527V82.3558H51.5807V82.439H51.6087V82.5222H51.6367V82.5777H51.6647V82.6609H51.6927V82.7441H51.7207V82.7996H51.7488V82.8828H51.7768V82.9383H51.8048V83.0215H51.8328V83.1047H51.8608V83.1602H51.8888V83.2434H51.9168V83.3544H51.9448V83.4653H51.9728V83.5485H52.0008V83.6595H52.0288V83.7427H52.0568V83.8537H52.0848V83.9369H52.1128V84.0478H52.1408V84.131H52.1688V84.2697H52.1968V84.4362H52.2248V84.5749H52.2528V84.7135H52.2808V84.8522H52.3088V85.0187H52.3368V85.1574H52.3648V85.3793H52.3928V85.6289H52.4208V85.8786H52.4488V86.1282H52.4768V86.5443H52.5048V88.1254H52.4768V88.4305H52.4488V88.6524H37.4678V88.8743H37.4958V89.2072H37.5238V89.4291H37.5518V89.5955H37.5798V89.7619H37.6078V89.9284H37.6358V90.0393H37.6638V90.1225H37.6918V90.2335H37.7198V90.3444H37.7478V90.4554H37.7758V90.5386H37.8038V90.6218H37.8318V90.705H37.8598V90.7605H37.8878V90.8437H37.9158V90.9269H37.9438V91.0102H37.9718V91.0656H37.9998V91.1211H38.0278V91.1766H38.0559V91.2321H38.0839V91.3153H38.1119V91.3708H38.1399V91.4262H38.1679V91.4817H38.1959V91.5372H38.2239V91.5927H38.2519V91.6481H38.2799V91.6759H38.3079V91.7314H38.3359V91.7868H38.3639V91.8146H38.3919V91.8701H38.4199V91.9255H38.4479V91.9533H38.4759V92.0087H38.5039V92.0642H38.5319V92.092H38.5599V92.1197H38.5879V92.1752H38.6159V92.2029H38.6439V92.2307H38.6719V92.2861H38.6999V92.3139H38.7279V92.3416H38.7559V92.3971H38.7839V92.4248H38.8119V92.4526H38.8399V92.508H38.8679V92.5358H38.8959V92.5635H38.9239V92.5913H38.9519V92.619H38.9799V92.6467H39.0079V92.6745H39.0359V92.7022H39.0639V92.7577H39.0919V92.7854H39.1199V92.8132H39.1479V92.8409H39.1759V92.8686H39.2039V92.8964H39.2319V92.9241H39.2599V92.9519H39.2879V92.9796H39.3159V93.0073H39.3439V93.0351H39.3719V93.0628H39.3999V93.0905H39.4559V93.1183H39.4839V93.146H39.5119V93.1738H39.5399V93.2015H39.568V93.2292H39.596V93.257H39.624V93.2847H39.652V93.3125H39.708V93.3402H39.736V93.3679H39.764V93.3957H39.82V93.4234H39.848V93.4511H39.904V93.4789H39.932V93.5066H39.96V93.5344H40.016V93.5621H40.044V93.5898H40.072V93.6176H40.128V93.6453H40.156V93.6731H40.212V93.7008H40.268V93.7285H40.324V93.7563H40.352V93.784H40.408V93.8117H40.464V93.8395H40.492V93.8672H40.548V93.895H40.604V93.9227H40.66V93.9504H40.716V93.9782H40.772V94.0059H40.828V94.0337H40.884V94.0614H40.968V94.0891H41.024V94.1169H41.08V94.1446H41.1361V94.1723H41.2201V94.2001H41.3041V94.2278H41.3881V94.2556H41.4721V94.2833H41.5561V94.311H41.6121V94.3388H41.7241V94.3665H41.8361V94.3943H41.9481V94.422H42.0601V94.4497H42.1721V94.4775H42.3401V94.5052H42.5361V94.5329H42.7322V94.5607H43.0122V94.5884H43.9642V94.5607H44.2443V94.5329H44.4963V94.5052H44.6923V94.4775H44.8323V94.4497H44.9723V94.422H45.1123V94.3943H45.2243V94.3665H45.3083V94.3388H45.4203V94.311H45.5043V94.2833H45.5883V94.2556H45.6724V94.2278H45.7564V94.2001H45.8124V94.1723H45.8964V94.1446H45.9804V94.1169H46.0364V94.0891H46.0924V94.0614H46.1484V94.0337H46.2044V94.0059H46.2604V93.9782H46.3164V93.9504H46.3724V93.9227H46.4284V93.895H46.4844V93.8672H46.5404V93.8395H46.5684V93.8117H46.6244V93.784H46.6804V93.7563H46.7084V93.7285H46.7644V93.7008H46.8204V93.6731H46.8484V93.6453H46.8764V93.6176H46.9324V93.5898H46.9604V93.5621H46.9884V93.5344H47.0444V93.5066H47.0724V93.4789H47.1284V93.4511H47.1564V93.4234H47.1845V93.3957H47.2125V93.3679H47.2405V93.3402H47.2965V93.3125H47.3245V93.2847H47.3525V93.257H47.3805V93.2292H47.4085V93.2015H47.4365V93.1738H47.4645V93.146H47.4925V93.1183H47.5205V93.0905H47.5485V93.0628H47.5765V93.0351H47.6045V93.0073H47.6325V92.9796H47.6605V92.9519H47.6885V92.9241H47.7165V92.8964H47.7445V92.8686H47.7725V92.8409H47.8005V92.8132H47.8285V92.7577H47.8565V92.7299H47.8845V92.7022H47.9125V92.6745H47.9405V92.619H47.9685V92.5913H47.9965V92.5635H48.0245V92.5358H48.0525V92.4803H48.0805V92.4526H48.1085V92.3971H48.1365V92.3693H48.1645V92.3416H48.1925V92.2861H48.2205V92.2584H48.2485V92.2029H48.2765V92.1752H48.3045V92.1197H48.3325V92.0642H48.3605V92.0365H48.3885V91.981H48.4165V91.9255H48.4445V91.8701H48.4725V91.8423H48.5005V91.7868H48.5285V91.7314H48.5565V91.6759H48.5845V91.6204H48.6125V91.5649H48.6405V91.5095H48.6685V91.454H48.6966V91.3985H48.7246V91.343H48.7526V91.2598H48.7806V91.2043H48.8086V91.1489H48.8366V91.0656H48.8646V91.0102H48.8926V90.9269H48.9206V90.8437H48.9486V90.7883H48.9766V90.705H49.0046V90.6218H49.0886V90.6496H49.1726V90.6773H49.2286V90.705H49.3126V90.7328H49.3966V90.7605H49.4806V90.7883H49.5646V90.816H49.6486V90.8437H49.7326V90.8715H49.8166V90.8992H49.9006V90.9269H49.9846V90.9547H50.0406V90.9824H50.1246V91.0102H50.2087V91.0379H50.2927V91.0656H50.3767V91.0934H50.4607V91.1211H50.5447V91.1489H50.6287V91.1766H50.7127V91.2043H50.7967V91.2321H50.8527V91.2598H50.9367V91.2875H51.0207V91.3153H51.1047V91.343H51.1887V91.3708H51.2727V91.3985H51.3567V91.4262H51.4407V91.454H51.5247V91.4817H51.5807V91.5095H51.6647V91.5372H51.7488V91.5649H51.8328V91.5927H51.9168V91.6204H52.0008V91.6481H52.0848V91.6759H52.1688V91.7036H52.2528V91.7314H52.3368V91.7591H52.3928V91.8423H52.3648V91.9255H52.3368V92.0087H52.3088V92.092H52.2808V92.1474H52.2528V92.2307H52.2248V92.3139H52.1968V92.3693H52.1688V92.4526H52.1408V92.508H52.1128V92.5635H52.0848V92.6467H52.0568V92.7022H52.0288V92.7577H52.0008V92.8132H51.9728V92.8964H51.9448V92.9519H51.9168V93.0073H51.8888V93.0628H51.8608V93.1183H51.8328V93.1738H51.8048V93.2292H51.7768V93.2847H51.7488V93.3402H51.7207V93.3679H51.6927V93.4234H51.6647V93.4789H51.6367V93.5344H51.6087V93.5898H51.5807V93.6453H51.5527V93.6731H51.5247V93.7285H51.4967V93.7563H51.4687V93.8117H51.4407V93.8672H51.4127V93.895H51.3847V93.9504H51.3567V93.9782H51.3287V94.0337H51.3007V94.0614H51.2727V94.1169H51.2447V94.1446H51.2167V94.2001H51.1887V94.2278H51.1607V94.2833H51.1327V94.311H51.1047V94.3388H51.0767V94.3943H51.0487V94.422H51.0207V94.4497H50.9927V94.5052H50.9647V94.5329H50.9367V94.5607H50.9087V94.6162H50.8807V94.6439H50.8527V94.6716H50.8247V94.7271H50.7967V94.7548H50.7687V94.7826H50.7407V94.8103H50.7127V94.8381H50.6847V94.8658H50.6567V94.9213H50.6287V94.949H50.6007V94.9768H50.5727V95.0045H50.5447V95.0322H50.5167V95.06H50.4887V95.0877H50.4607V95.1154H50.4327V95.1709H50.4047V95.1987H50.3767V95.2264H50.3487V95.2541H50.3207V95.2819H50.2927V95.3096H50.2647V95.3374H50.2367V95.3651H50.2087V95.3928H50.1806V95.4206H50.1526V95.4483H50.1246V95.476H50.0966V95.5038H50.0686V95.5315H50.0406V95.5593H50.0126V95.587H49.9846V95.6147H49.9566V95.6425H49.9006V95.6702H49.8726V95.698H49.8446V95.7257H49.8166V95.7534H49.7886V95.7812H49.7606V95.8089H49.7326V95.8366H49.7046V95.8644H49.6486V95.8921H49.6206V95.9199H49.5926V95.9476H49.5646V95.9753H49.5086V96.0031H49.4806V96.0308H49.4526V96.0586H49.4246V96.0863H49.3966V96.114H49.3406V96.1418H49.3126V96.1695H49.2846V96.1972H49.2566V96.225H49.2006V96.2527H49.1726V96.2805H49.1166V96.3082H49.0886V96.3359H49.0326V96.3637H49.0046V96.3914H48.9486V96.4192H48.9206V96.4469H48.8646V96.4746H48.8366V96.5024H48.8086V96.5301H48.7526V96.5578H48.7246V96.5856H48.6685V96.6133H48.6125V96.6411H48.5845V96.6688H48.5285V96.6965H48.4725V96.7243H48.4165V96.752H48.3885V96.7798H48.3325V96.8075H48.2765V96.8352H48.2205V96.863H48.1925V96.8907H48.1365V96.9184H48.0805V96.9462H48.0245V96.9739H47.9685V97.0017H47.9125V97.0294H47.8565V97.0571H47.8005V97.0849H47.7445V97.1126H47.6885V97.1404H47.6045V97.1681H47.5485V97.1958H47.4925V97.2236H47.4365V97.2513H47.3805V97.279H47.2965V97.3068H47.2405V97.3345H47.1564V97.3623H47.0724V97.39H47.0164V97.4177H46.9324V97.4455H46.8484V97.4732H46.7644V97.501H46.7084V97.5287H46.6244V97.5564H46.5124V97.5842H46.4284V97.6119H46.3164V97.6396H46.2044V97.6674H46.1204V97.6951H46.0084V97.7229H45.9244V97.7506H45.7844V97.7783H45.6444V97.8061H45.5043V97.8338H45.3363V97.8616H45.1963V97.8893H45.0003V97.917H44.7763V97.9448H44.5243V97.9725H44.2443V98.0002H42.7322ZM37.6078 85.407V85.518H48.4445V85.3515H48.4165V85.0187H48.3885V84.8245H48.3605V84.6581H48.3325V84.4916H48.3045V84.3807H48.2765V84.2697H48.2485V84.1588H48.2205V84.0201H48.1925V83.9369H48.1645V83.8814H48.1365V83.7982H48.1085V83.715H48.0805V83.6317H48.0525V83.5485H48.0245V83.4931H47.9965V83.4376H47.9685V83.3544H47.9405V83.2989H47.9125V83.2434H47.8845V83.1879H47.8565V83.1325H47.8285V83.077H47.8005V83.0215H47.7725V82.966H47.7445V82.9383H47.7165V82.8828H47.6885V82.8273H47.6605V82.7719H47.6325V82.7441H47.6045V82.6886H47.5765V82.6609H47.5485V82.6054H47.5205V82.5777H47.4925V82.5499H47.4645V82.4945H47.4365V82.4667H47.4085V82.4113H47.3805V82.3835H47.3525V82.3558H47.3245V82.3003H47.2965V82.2726H47.2685V82.2448H47.2405V82.2171H47.2125V82.1893H47.1845V82.1616H47.1564V82.1339H47.1284V82.1061H47.1004V82.0507H47.0724V82.0229H47.0444V81.9952H47.0164V81.9674H46.9884V81.9397H46.9604V81.912H46.9324V81.8842H46.8764V81.8565H46.8484V81.8287H46.8204V81.801H46.7924V81.7733H46.7644V81.7455H46.7364V81.7178H46.7084V81.6901H46.6804V81.6623H46.6524V81.6346H46.5964V81.6068H46.5684V81.5791H46.5124V81.5514H46.4844V81.5236H46.4564V81.4959H46.4004V81.4681H46.3724V81.4404H46.3164V81.4127H46.2884V81.3849H46.2604V81.3572H46.2044V81.3295H46.1484V81.3017H46.1204V81.274H46.0644V81.2462H46.0084V81.2185H45.9524V81.1908H45.9244V81.163H45.8684V81.1353H45.8124V81.1075H45.7564V81.0798H45.7004V81.0521H45.6163V81.0243H45.5603V80.9966H45.5043V80.9689H45.4483V80.9411H45.3643V80.9134H45.3083V80.8856H45.2243V80.8579H45.1403V80.8302H45.0563V80.8024H44.9723V80.7747H44.8883V80.747H44.7763V80.7192H44.6643V80.6915H44.5523V80.6637H44.4123V80.636H44.2723V80.6083H44.1042V80.5805H43.8802V80.5528H43.6562V80.525H43.2082V80.4973H42.8162V80.525H42.3961V80.5528H42.2001V80.5805H42.0321V80.6083H41.8361V80.636H41.7241V80.6637H41.6121V80.6915H41.5001V80.7192H41.3881V80.747H41.3041V80.7747H41.2201V80.8024H41.1361V80.8302H41.08V80.8579H40.996V80.8856H40.912V80.9134H40.828V80.9411H40.772V80.9689H40.716V80.9966H40.66V81.0243H40.604V81.0521H40.548V81.0798H40.492V81.1075H40.436V81.1353H40.38V81.163H40.324V81.1908H40.268V81.2185H40.24V81.2462H40.184V81.274H40.128V81.3017H40.1V81.3295H40.044V81.3572H40.016V81.3849H39.96V81.4127H39.904V81.4404H39.876V81.4681H39.848V81.4959H39.792V81.5236H39.764V81.5514H39.736V81.5791H39.68V81.6068H39.652V81.6346H39.624V81.6623H39.568V81.6901H39.5399V81.7178H39.5119V81.7455H39.4839V81.7733H39.4559V81.801H39.4279V81.8287H39.3999V81.8565H39.3439V81.8842H39.3159V81.912H39.2879V81.9397H39.2599V81.9674H39.2319V81.9952H39.2039V82.0229H39.1759V82.0507H39.1479V82.0784H39.1199V82.1061H39.0919V82.1339H39.0639V82.1616H39.0359V82.1893H39.0079V82.2448H38.9799V82.2726H38.9519V82.3003H38.9239V82.328H38.8959V82.3558H38.8679V82.3835H38.8399V82.4113H38.8119V82.4667H38.7839V82.4945H38.7559V82.5222H38.7279V82.5777H38.6999V82.6054H38.6719V82.6332H38.6439V82.6886H38.6159V82.7164H38.5879V82.7441H38.5599V82.7996H38.5319V82.8273H38.5039V82.8828H38.4759V82.9383H38.4479V82.966H38.4199V83.0215H38.3919V83.0492H38.3639V83.1047H38.3359V83.1602H38.3079V83.1879H38.2799V83.2434H38.2519V83.2989H38.2239V83.3544H38.1959V83.4098H38.1679V83.4653H38.1399V83.5208H38.1119V83.5763H38.0839V83.6317H38.0559V83.715H38.0278V83.7704H37.9998V83.8537H37.9718V83.9091H37.9438V83.9923H37.9158V84.0756H37.8878V84.131H37.8598V84.242H37.8318V84.3252H37.8038V84.4362H37.7758V84.5194H37.7478V84.6303H37.7198V84.769H37.6918V84.9077H37.6638V85.0464H37.6358V85.2406H37.6078V85.407Z" fill="url(#paint14_linear)"/>
<path d="M65.4968 98.0002V97.9725H65.1328V97.9448H64.9368V97.917H64.7128V97.8893H64.5167V97.8616H64.3207V97.8338H64.1807V97.8061H64.0407V97.7783H63.9287V97.7506H63.8167V97.7229H63.7047V97.6951H63.5647V97.6674H63.4527V97.6396H63.3407V97.6119H63.2567V97.5842H63.1727V97.5564H63.0887V97.5287H63.0046V97.501H62.9206V97.4732H62.8366V97.4455H62.7526V97.4177H62.6686V97.39H62.5846V97.3623H62.5006V97.3345H62.4166V97.3068H62.3606V97.279H62.2766V97.2513H62.2206V97.2236H62.1646V97.1958H62.1086V97.1681H62.0526V97.1404H61.9686V97.1126H61.9126V97.0849H61.8566V97.0571H61.8006V97.0294H61.7446V97.0017H61.6606V96.9739H61.6046V96.9462H61.5486V96.9184H61.4925V96.8907H61.4365V96.863H61.3805V96.8352H61.3525V96.8075H61.2965V96.7798H61.2405V96.752H61.2125V96.7243H61.1565V96.6965H61.1005V96.6688H61.0445V96.6411H61.0165V96.6133H60.9605V96.5856H60.9045V96.5578H60.8485V96.5301H60.8205V96.5024H60.7645V96.4746H60.7085V96.4469H60.6805V96.4192H60.6245V96.3914H60.5965V96.3637H60.5685V96.3359H60.5125V96.3082H60.4845V96.2805H60.4285V96.2527H60.4005V96.225H60.3725V96.1972H60.3165V96.1695H60.2885V96.1418H60.2325V96.114H60.2045V96.0863H60.1765V96.0586H60.1205V96.0308H60.0925V96.0031H60.0645V95.9753H60.0084V95.9476H59.9804V95.9199H59.9244V95.8921H59.8964V95.8644H59.8684V95.8366H59.8404V95.8089H59.8124V95.7812H59.7844V95.7534H59.7284V95.7257H59.7004V95.698H59.6724V95.6702H59.6444V95.6425H59.6164V95.6147H59.5884V95.587H59.5604V95.5593H59.5324V95.5315H59.5044V95.5038H59.4484V95.476H59.4204V95.4483H59.3924V95.4206H59.3644V95.3928H59.3364V95.3651H59.3084V95.3374H59.2804V95.3096H59.2524V95.2819H59.1964V95.2541H59.1684V95.1987H59.1404V95.1709H59.1124V95.1432H59.0844V95.1154H59.0564V95.0877H59.0284V95.06H59.0004V95.0322H58.9724V95.0045H58.9444V94.9768H58.9164V94.949H58.8884V94.9213H58.8604V94.8658H58.8324V94.8381H58.8044V94.8103H58.7764V94.7826H58.7484V94.7548H58.7204V94.7271H58.6924V94.6994H58.6644V94.6716H58.6364V94.6439H58.6084V94.6162H58.5804V94.5607H58.5524V94.5329H58.5243V94.5052H58.4963V94.4775H58.4683V94.422H58.4403V94.3943H58.4123V94.3665H58.3843V94.311H58.3563V94.2833H58.3283V94.2556H58.3003V94.2001H58.2723V94.1723H58.2443V94.1169H58.2163V94.0891H58.1883V94.0614H58.1603V94.0059H58.1323V93.9782H58.1043V93.9504H58.0763V93.895H58.0483V93.8672H58.0203V93.8395H57.9923V93.784H57.9643V93.7563H57.9363V93.7008H57.9083V93.6453H57.8803V93.6176H57.8523V93.5621H57.8243V93.5066H57.7963V93.4789H57.7683V93.4234H57.7403V93.3679H57.7123V93.3402H57.6843V93.2847H57.6563V93.2292H57.6283V93.1738H57.6003V93.146H57.5723V93.0905H57.5443V93.0351H57.5163V93.0073H57.4883V92.9519H57.4603V92.8964H57.4323V92.8409H57.4043V92.7854H57.3763V92.7299H57.3483V92.6745H57.3203V92.5913H57.2923V92.5358H57.2643V92.4803H57.2363V92.4248H57.2083V92.3693H57.1803V92.3139H57.1523V92.2307H57.1243V92.1752H57.0963V92.1197H57.0683V92.0642H57.0403V92.0087H57.0122V91.9255H56.9842V91.8423H56.9562V91.7591H56.9282V91.6759H56.9002V91.5927H56.8722V91.5095H56.8442V91.454H56.8162V91.3708H56.7882V91.2875H56.7602V91.2043H56.7322V91.1211H56.7042V91.0379H56.6762V90.9547H56.6482V90.8437H56.6202V90.705H56.5922V90.5941H56.5642V90.4831H56.5362V90.3722H56.5082V90.2335H56.4802V90.1225H56.4522V90.0116H56.4242V89.9006H56.3962V89.7065H56.3682V89.4846H56.3402V89.2904H56.3122V89.0962H56.2842V88.8743H56.2562V88.6247H56.2282V88.1531H56.2002V86.8771H56.2282V86.4056H56.2562V86.1559H56.2842V85.9618H56.3122V85.7676H56.3402V85.5734H56.3682V85.3793H56.3962V85.2128H56.4242V85.0741H56.4522V84.9632H56.4802V84.8522H56.5082V84.7413H56.5362V84.6026H56.5642V84.4916H56.5922V84.3807H56.6202V84.2697H56.6482V84.1588H56.6762V84.0756H56.7042V83.9923H56.7322V83.9091H56.7602V83.8259H56.7882V83.7427H56.8162V83.6872H56.8442V83.604H56.8722V83.5208H56.9002V83.4376H56.9282V83.3544H56.9562V83.2711H56.9842V83.1879H57.0122V83.1325H57.0403V83.077H57.0683V83.0215H57.0963V82.9383H57.1243V82.8828H57.1523V82.8273H57.1803V82.7719H57.2083V82.7164H57.2363V82.6332H57.2643V82.5777H57.2923V82.5222H57.3203V82.4667H57.3483V82.3835H57.3763V82.328H57.4043V82.2726H57.4323V82.2448H57.4603V82.1893H57.4883V82.1339H57.5163V82.0784H57.5443V82.0507H57.5723V81.9952H57.6003V81.9397H57.6283V81.8842H57.6563V81.8565H57.6843V81.801H57.7123V81.7455H57.7403V81.6901H57.7683V81.6623H57.7963V81.6068H57.8243V81.5514H57.8523V81.4959H57.8803V81.4681H57.9083V81.4127H57.9363V81.3849H57.9643V81.3295H57.9923V81.3017H58.0203V81.274H58.0483V81.2185H58.0763V81.1908H58.1043V81.1353H58.1323V81.1075H58.1603V81.0521H58.1883V81.0243H58.2163V80.9966H58.2443V80.9411H58.2723V80.9134H58.3003V80.8579H58.3283V80.8302H58.3563V80.8024H58.3843V80.747H58.4123V80.7192H58.4403V80.6637H58.4683V80.636H58.4963V80.6083H58.5243V80.5805H58.5524V80.5528H58.5804V80.525H58.6084V80.4696H58.6364V80.4418H58.6644V80.4141H58.6924V80.3864H58.7204V80.3586H58.7484V80.3309H58.7764V80.2754H58.8044V80.2477H58.8324V80.2199H58.8604V80.1922H58.8884V80.1644H58.9164V80.1367H58.9444V80.109H58.9724V80.0535H59.0004V80.0258H59.0284V79.998H59.0564V79.9703H59.0844V79.9425H59.1124V79.9148H59.1404V79.8871H59.1684V79.8593H59.1964V79.8316H59.2244V79.8038H59.2524V79.7761H59.2804V79.7484H59.3084V79.7206H59.3364V79.6929H59.3644V79.6652H59.3924V79.6374H59.4204V79.6097H59.4764V79.5819H59.5044V79.5542H59.5324V79.5265H59.5604V79.4987H59.5884V79.471H59.6164V79.4432H59.6444V79.4155H59.6724V79.3878H59.7004V79.36H59.7284V79.3323H59.7564V79.3046H59.7844V79.2768H59.8404V79.2491H59.8684V79.2213H59.8964V79.1936H59.9244V79.1659H59.9804V79.1381H60.0084V79.1104H60.0364V79.0826H60.0645V79.0549H60.1205V79.0272H60.1485V78.9994H60.1765V78.9717H60.2325V78.944H60.2605V78.9162H60.2885V78.8885H60.3165V78.8607H60.3725V78.833H60.4005V78.8053H60.4285V78.7775H60.4845V78.7498H60.5125V78.722H60.5405V78.6943H60.5965V78.6666H60.6525V78.6388H60.6805V78.6111H60.7365V78.5834H60.7645V78.5556H60.8205V78.5279H60.8765V78.5001H60.9045V78.4724H60.9605V78.4447H60.9885V78.4169H61.0445V78.3892H61.0725V78.3614H61.1285V78.3337H61.1845V78.306H61.2125V78.2782H61.2685V78.2505H61.3245V78.2228H61.3805V78.195H61.4365V78.1673H61.4645V78.1395H61.5205V78.1118H61.5766V78.0841H61.6326V78.0563H61.6886V78.0286H61.7446V78.0008H61.8006V77.9731H61.8566V77.9454H61.9126V77.9176H61.9686V77.8899H62.0246V77.8622H62.0806V77.8344H62.1646V77.8067H62.2206V77.7789H62.3046V77.7512H62.3886V77.7235H62.4446V77.6957H62.5286V77.668H62.6126V77.6402H62.6686V77.6125H62.7526V77.5848H62.8086V77.557H62.8926V77.5293H62.9766V77.5016H63.0607V77.4738H63.1727V77.4461H63.2847V77.4183H63.3967V77.3906H63.4807V77.3629H63.5927V77.3351H63.7047V77.3074H63.8167V77.2796H63.9567V77.2519H64.1247V77.2242H64.2927V77.1964H64.4607V77.1687H64.6568V77.141H64.8808V77.1132H65.2728V77.0855H66.2249V77.1132H66.7009V77.141H66.9809V77.1687H67.2049V77.1964H67.4009V77.2242H67.597V77.2519H67.821V77.2796H67.961V77.3074H68.073V77.3351H68.185V77.3629H68.325V77.3906H68.437V77.4183H68.549V77.4461H68.661V77.4738H68.773V77.5016H68.885V77.5293H68.969V77.557H69.053V77.5848H69.1371V77.6125H69.2211V77.6402H69.2771V77.668H69.3611V77.6957H69.4451V77.7235H69.5291V77.7512H69.6131V77.7789H69.6971V77.8067H69.7531V77.8344H69.8371V77.8622H69.8931V77.8899H69.9491V77.9176H70.0051V77.9454H70.0611V77.9731H70.1171V78.0008H70.1731V78.0286H70.2291V78.0563H70.2851V78.0841H70.3691V78.1118H70.4251V78.1395H70.4811V78.1673H70.5371V78.195H70.5932V78.2228H70.6492V78.2505H70.7052V78.2782H70.7332V78.306H70.7892V78.3337H70.8172V78.3614H70.8732V78.3892H70.9292V78.4169H70.9572V78.4447H71.0132V78.4724H71.0412V78.5001H71.0972V78.5279H71.1252V78.5556H71.1812V78.5834H71.2372V78.6111H71.2652V78.6388H71.3212V78.6666H71.3492V78.6943H71.4052V78.722H71.4612V78.7498H71.4892V78.7775H71.5172V78.8053H71.5452V78.833H71.6012V78.8607H71.6292V78.8885H71.6572V78.9162H71.6852V78.944H71.7412V78.9717H71.7692V78.9994H71.7972V79.0272H71.8252V79.0549H71.8812V79.0826H71.9092V79.1104H71.9372V79.1381H71.9652V79.1659H72.0212V79.1936H72.0492V79.2213H72.0772V79.2491H72.1053V79.2768H72.1613V79.3046H72.1893V79.3323H72.2173V79.36H72.2453V79.3878H72.2733V79.4155H72.3013V79.4432H72.3293V79.471H72.3573V79.4987H72.3853V79.5265H72.4133V79.5542H72.4413V79.5819H72.4693V79.6097H72.4973V79.6374H72.5253V79.6929H72.5533V79.7206H72.5813V79.7484H72.6093V79.7761H72.6373V79.8038H72.6653V79.8316H72.6933V79.8593H72.7213V79.8871H72.7493V79.9148H72.7773V79.9425H72.8053V79.9703H72.8333V79.998H72.8613V80.0258H72.8893V80.0812H72.9173V80.109H72.9453V80.1367H72.9733V80.1644H73.0013V80.2199H73.0293V80.2477H73.0573V80.2754H73.0853V80.3031H73.1133V80.3586H73.1413V80.3864H73.1693V80.4141H73.1973V80.4418H73.2253V80.4973H73.2533V80.525H73.2813V80.5528H73.3093V80.5805H73.3373V80.636H73.3653V80.6637H73.3933V80.7192H73.4213V80.747H73.4493V80.8024H73.4773V80.8302H73.5053V80.8856H73.5333V80.9134H73.5613V80.9689H73.5893V81.0243H73.6174V81.0521H73.6454V81.1075H73.6734V81.1353H73.7014V81.1908H73.7294V81.2462H73.7574V81.274H73.7854V81.3295H73.8134V81.3572H73.8414V81.4127H73.8694V81.4681H73.8974V81.5236H73.9254V81.5791H73.9534V81.6346H73.9814V81.6901H74.0094V81.7455H74.0374V81.801H74.0654V81.8565H74.0934V81.912H74.1214V81.9674H74.1494V82.0229H74.1774V82.0784H74.2054V82.1339H74.2334V82.1893H74.2614V82.2448H74.2894V82.3003H74.3174V82.3835H74.3454V82.439H74.3734V82.5222H74.4014V82.5777H74.4294V82.6609H74.4574V82.7441H74.4854V82.7996H74.5134V82.8828H74.5414V82.966H74.5694V83.0215H74.5974V83.1047H74.6254V83.1602H74.6534V83.2711H74.6814V83.3544H74.7094V83.4653H74.7374V83.5485H74.7654V83.6595H74.7934V83.7427H74.8214V83.8537H74.8494V83.9646H74.8774V84.0478H74.9054V84.1588H74.9334V84.2975H74.9614V84.4362H74.9894V84.5749H75.0174V84.7135H75.0454V84.88H75.0734V85.0187H75.1014V85.1574H75.1295V85.3793H75.1575V85.6566H75.1855V85.9063H75.2135V86.1559H75.2415V86.572H75.2695V88.0976H75.2415V88.4305H75.2135V88.6247H75.1855V88.6524H60.2325V88.902H60.2605V89.2349H60.2885V89.4291H60.3165V89.5955H60.3445V89.7897H60.3725V89.9284H60.4005V90.0393H60.4285V90.1503H60.4565V90.2612H60.4845V90.3722H60.5125V90.4554H60.5405V90.5386H60.5685V90.6218H60.5965V90.705H60.6245V90.7883H60.6525V90.8437H60.6805V90.9269H60.7085V91.0102H60.7365V91.0656H60.7645V91.1211H60.7925V91.2043H60.8205V91.2598H60.8485V91.3153H60.8765V91.3708H60.9045V91.4262H60.9325V91.4817H60.9605V91.5372H60.9885V91.5927H61.0165V91.6481H61.0445V91.6759H61.0725V91.7314H61.1005V91.7868H61.1285V91.8146H61.1565V91.8701H61.1845V91.9255H61.2125V91.9533H61.2405V92.0087H61.2685V92.0642H61.2965V92.092H61.3245V92.1197H61.3525V92.1752H61.3805V92.2029H61.4085V92.2307H61.4365V92.2861H61.4645V92.3139H61.4925V92.3416H61.5205V92.3971H61.5486V92.4248H61.5766V92.4526H61.6046V92.508H61.6326V92.5358H61.6606V92.5635H61.6886V92.5913H61.7166V92.619H61.7446V92.6467H61.7726V92.6745H61.8006V92.7299H61.8286V92.7577H61.8566V92.7854H61.8846V92.8132H61.9126V92.8409H61.9406V92.8686H61.9686V92.8964H61.9966V92.9241H62.0246V92.9519H62.0526V92.9796H62.0806V93.0073H62.1086V93.0351H62.1366V93.0628H62.1646V93.0905H62.1926V93.1183H62.2486V93.146H62.2766V93.1738H62.3046V93.2015H62.3326V93.2292H62.3606V93.257H62.3886V93.2847H62.4166V93.3125H62.4726V93.3402H62.5006V93.3679H62.5286V93.3957H62.5846V93.4234H62.6126V93.4511H62.6406V93.4789H62.6966V93.5066H62.7246V93.5344H62.7806V93.5621H62.8086V93.5898H62.8366V93.6176H62.8926V93.6453H62.9206V93.6731H62.9766V93.7008H63.0326V93.7285H63.0607V93.7563H63.1167V93.784H63.1727V93.8117H63.2287V93.8395H63.2567V93.8672H63.3127V93.895H63.3687V93.9227H63.4247V93.9504H63.4807V93.9782H63.5367V94.0059H63.5927V94.0337H63.6487V94.0614H63.7047V94.0891H63.7887V94.1169H63.8447V94.1446H63.9007V94.1723H63.9847V94.2001H64.0687V94.2278H64.1527V94.2556H64.2367V94.2833H64.2927V94.311H64.3767V94.3388H64.4887V94.3665H64.6008V94.3943H64.7128V94.422H64.8248V94.4497H64.9368V94.4775H65.1048V94.5052H65.3008V94.5329H65.4968V94.5607H65.7768V94.5884H66.7289V94.5607H67.0089V94.5329H67.2609V94.5052H67.4569V94.4775H67.597V94.4497H67.737V94.422H67.877V94.3943H67.961V94.3665H68.073V94.3388H68.185V94.311H68.269V94.2833H68.353V94.2556H68.437V94.2278H68.521V94.2001H68.577V94.1723H68.661V94.1446H68.745V94.1169H68.801V94.0891H68.857V94.0614H68.913V94.0337H68.969V94.0059H69.025V93.9782H69.081V93.9504H69.1371V93.9227H69.1931V93.895H69.2491V93.8672H69.3051V93.8395H69.3331V93.8117H69.3891V93.784H69.4451V93.7563H69.4731V93.7285H69.5291V93.7008H69.5851V93.6731H69.6131V93.6453H69.6411V93.6176H69.6971V93.5898H69.7251V93.5621H69.7531V93.5344H69.8091V93.5066H69.8371V93.4789H69.8931V93.4511H69.9211V93.4234H69.9491V93.3957H69.9771V93.3679H70.0051V93.3402H70.0331V93.3125H70.0891V93.2847H70.1171V93.257H70.1451V93.2292H70.1731V93.2015H70.2011V93.1738H70.2291V93.146H70.2571V93.1183H70.2851V93.0905H70.3131V93.0628H70.3411V93.0351H70.3691V93.0073H70.3971V92.9796H70.4251V92.9519H70.4531V92.9241H70.4811V92.8964H70.5091V92.8686H70.5371V92.8409H70.5651V92.7854H70.5932V92.7577H70.6212V92.7299H70.6492V92.7022H70.6772V92.6745H70.7052V92.619H70.7332V92.5913H70.7612V92.5635H70.7892V92.5358H70.8172V92.4803H70.8452V92.4526H70.8732V92.3971H70.9012V92.3693H70.9292V92.3139H70.9572V92.2861H70.9852V92.2584H71.0132V92.2029H71.0412V92.1752H71.0692V92.1197H71.0972V92.0642H71.1252V92.0087H71.1532V91.981H71.1812V91.9255H71.2092V91.8701H71.2372V91.8423H71.2652V91.7868H71.2932V91.7314H71.3212V91.6759H71.3492V91.6204H71.3772V91.5649H71.4052V91.5095H71.4332V91.454H71.4612V91.3985H71.4892V91.3153H71.5172V91.2598H71.5452V91.2043H71.5732V91.1211H71.6012V91.0656H71.6292V91.0102H71.6572V90.9269H71.6852V90.8437H71.7132V90.7883H71.7412V90.705H71.7692V90.6218H71.8532V90.6496H71.9092V90.6773H71.9932V90.705H72.0772V90.7328H72.1613V90.7605H72.2453V90.7883H72.3293V90.816H72.4133V90.8437H72.4973V90.8715H72.5813V90.8992H72.6653V90.9269H72.7213V90.9547H72.8053V90.9824H72.8893V91.0102H72.9733V91.0379H73.0573V91.0656H73.1413V91.0934H73.2253V91.1211H73.3093V91.1489H73.3933V91.1766H73.4773V91.2043H73.5333V91.2321H73.6174V91.2598H73.7014V91.2875H73.7854V91.3153H73.8694V91.343H73.9534V91.3708H74.0374V91.3985H74.1214V91.4262H74.2054V91.454H74.2894V91.4817H74.3454V91.5095H74.4294V91.5372H74.5134V91.5649H74.5974V91.5927H74.6814V91.6204H74.7654V91.6481H74.8494V91.6759H74.9334V91.7036H75.0174V91.7314H75.0734V91.7591H75.1575V91.8423H75.1295V91.9255H75.1014V92.0087H75.0734V92.092H75.0454V92.1474H75.0174V92.2307H74.9894V92.3139H74.9614V92.3693H74.9334V92.4526H74.9054V92.508H74.8774V92.5635H74.8494V92.6467H74.8214V92.7022H74.7934V92.7577H74.7654V92.8132H74.7374V92.8964H74.7094V92.9519H74.6814V93.0073H74.6534V93.0628H74.6254V93.1183H74.5974V93.1738H74.5694V93.2292H74.5414V93.2847H74.5134V93.3125H74.4854V93.3679H74.4574V93.4234H74.4294V93.4789H74.4014V93.5344H74.3734V93.5898H74.3454V93.6453H74.3174V93.6731H74.2894V93.7285H74.2614V93.7563H74.2334V93.8117H74.2054V93.8395H74.1774V93.895H74.1494V93.9504H74.1214V93.9782H74.0934V94.0337H74.0654V94.0614H74.0374V94.1169H74.0094V94.1446H73.9814V94.2001H73.9534V94.2278H73.9254V94.2833H73.8974V94.311H73.8694V94.3388H73.8414V94.3943H73.8134V94.422H73.7854V94.4497H73.7574V94.5052H73.7294V94.5329H73.7014V94.5607H73.6734V94.6162H73.6454V94.6439H73.6174V94.6716H73.5893V94.6994H73.5613V94.7548H73.5333V94.7826H73.5053V94.8103H73.4773V94.8381H73.4493V94.8658H73.4213V94.9213H73.3933V94.949H73.3653V94.9768H73.3373V95.0045H73.3093V95.0322H73.2813V95.06H73.2533V95.0877H73.2253V95.1154H73.1973V95.1432H73.1693V95.1987H73.1413V95.2264H73.1133V95.2541H73.0853V95.2819H73.0573V95.3096H73.0293V95.3374H73.0013V95.3651H72.9733V95.3928H72.9453V95.4206H72.9173V95.4483H72.8893V95.476H72.8613V95.5038H72.8333V95.5315H72.8053V95.5593H72.7773V95.587H72.7213V95.6147H72.6933V95.6425H72.6653V95.6702H72.6373V95.698H72.6093V95.7257H72.5813V95.7534H72.5533V95.7812H72.5253V95.8089H72.4973V95.8366H72.4693V95.8644H72.4133V95.8921H72.3853V95.9199H72.3573V95.9476H72.3293V95.9753H72.2733V96.0031H72.2453V96.0308H72.2173V96.0586H72.1893V96.0863H72.1333V96.114H72.1053V96.1418H72.0772V96.1695H72.0492V96.1972H71.9932V96.225H71.9652V96.2527H71.9372V96.2805H71.8812V96.3082H71.8532V96.3359H71.7972V96.3637H71.7692V96.3914H71.7132V96.4192H71.6852V96.4469H71.6292V96.4746H71.6012V96.5024H71.5452V96.5301H71.5172V96.5578H71.4892V96.5856H71.4332V96.6133H71.3772V96.6411H71.3492V96.6688H71.2932V96.6965H71.2372V96.7243H71.1812V96.752H71.1532V96.7798H71.0972V96.8075H71.0412V96.8352H70.9852V96.863H70.9572V96.8907H70.9012V96.9184H70.8452V96.9462H70.7892V96.9739H70.7332V97.0017H70.6772V97.0294H70.6212V97.0571H70.5651V97.0849H70.5091V97.1126H70.4531V97.1404H70.3691V97.1681H70.3131V97.1958H70.2571V97.2236H70.2011V97.2513H70.1451V97.279H70.0611V97.3068H70.0051V97.3345H69.9211V97.3623H69.8371V97.39H69.7531V97.4177H69.6971V97.4455H69.6131V97.4732H69.5291V97.501H69.4731V97.5287H69.3891V97.5564H69.2771V97.5842H69.1931V97.6119H69.081V97.6396H68.969V97.6674H68.885V97.6951H68.773V97.7229H68.689V97.7506H68.549V97.7783H68.409V97.8061H68.241V97.8338H68.101V97.8616H67.961V97.8893H67.765V97.917H67.5409V97.9448H67.2889V97.9725H67.0089V98.0002H65.4968ZM60.3445 85.4902V85.518H71.2092V85.3793H71.1812V85.0464H71.1532V84.8522H71.1252V84.6581H71.0972V84.4916H71.0692V84.3807H71.0412V84.2697H71.0132V84.1588H70.9852V84.0478H70.9572V83.9646H70.9292V83.8814H70.9012V83.7982H70.8732V83.715H70.8452V83.6317H70.8172V83.5485H70.7892V83.4931H70.7612V83.4376H70.7332V83.3544H70.7052V83.2989H70.6772V83.2434H70.6492V83.1879H70.6212V83.1325H70.5932V83.077H70.5651V83.0215H70.5371V82.966H70.5091V82.9383H70.4811V82.8828H70.4531V82.8273H70.4251V82.7996H70.3971V82.7441H70.3691V82.6886H70.3411V82.6609H70.3131V82.6054H70.2851V82.5777H70.2571V82.5499H70.2291V82.4945H70.2011V82.4667H70.1731V82.439H70.1451V82.3835H70.1171V82.3558H70.0891V82.3003H70.0611V82.2726H70.0331V82.2448H70.0051V82.2171H69.9771V82.1893H69.9491V82.1616H69.9211V82.1339H69.8931V82.1061H69.8651V82.0784H69.8371V82.0229H69.8091V81.9952H69.7811V81.9674H69.7531V81.9397H69.7251V81.912H69.6971V81.8842H69.6411V81.8565H69.6131V81.8287H69.5851V81.801H69.5571V81.7733H69.5291V81.7455H69.5011V81.7178H69.4731V81.6901H69.4451V81.6623H69.3891V81.6346H69.3611V81.6068H69.3331V81.5791H69.2771V81.5514H69.2491V81.5236H69.2211V81.4959H69.1651V81.4681H69.1371V81.4404H69.081V81.4127H69.053V81.3849H69.025V81.3572H68.969V81.3295H68.913V81.3017H68.885V81.274H68.829V81.2462H68.773V81.2185H68.717V81.1908H68.661V81.163H68.633V81.1353H68.577V81.1075H68.521V81.0798H68.465V81.0521H68.381V81.0243H68.325V80.9966H68.269V80.9689H68.213V80.9411H68.129V80.9134H68.073V80.8856H67.989V80.8579H67.905V80.8302H67.821V80.8024H67.737V80.7747H67.653V80.747H67.5409V80.7192H67.4289V80.6915H67.2889V80.6637H67.1769V80.636H67.0369V80.6083H66.8689V80.5805H66.6449V80.5528H66.4209V80.525H65.9448V80.4973H65.5808V80.525H65.1608V80.5528H64.9648V80.5805H64.7968V80.6083H64.6008V80.636H64.4887V80.6637H64.3767V80.6915H64.2647V80.7192H64.1527V80.747H64.0687V80.7747H63.9847V80.8024H63.9007V80.8302H63.8167V80.8579H63.7607V80.8856H63.6767V80.9134H63.5927V80.9411H63.5367V80.9689H63.4807V80.9966H63.4247V81.0243H63.3687V81.0521H63.3127V81.0798H63.2567V81.1075H63.2007V81.1353H63.1447V81.163H63.0887V81.1908H63.0326V81.2185H63.0046V81.2462H62.9486V81.274H62.8926V81.3017H62.8646V81.3295H62.8086V81.3572H62.7526V81.3849H62.7246V81.4127H62.6686V81.4404H62.6406V81.4681H62.6126V81.4959H62.5566V81.5236H62.5286V81.5514H62.5006V81.5791H62.4446V81.6068H62.4166V81.6346H62.3886V81.6623H62.3326V81.6901H62.3046V81.7178H62.2766V81.7455H62.2486V81.7733H62.2206V81.801H62.1926V81.8287H62.1366V81.8565H62.1086V81.8842H62.0806V81.912H62.0526V81.9397H62.0246V81.9674H61.9966V81.9952H61.9686V82.0229H61.9406V82.0507H61.9126V82.0784H61.8846V82.1061H61.8566V82.1339H61.8286V82.1616H61.8006V82.1893H61.7726V82.2448H61.7446V82.2726H61.7166V82.3003H61.6886V82.328H61.6606V82.3558H61.6326V82.3835H61.6046V82.4113H61.5766V82.4667H61.5486V82.4945H61.5205V82.5222H61.4925V82.5777H61.4645V82.6054H61.4365V82.6332H61.4085V82.6886H61.3805V82.7164H61.3525V82.7441H61.3245V82.7996H61.2965V82.8273H61.2685V82.8828H61.2405V82.9105H61.2125V82.966H61.1845V83.0215H61.1565V83.0492H61.1285V83.1047H61.1005V83.1602H61.0725V83.1879H61.0445V83.2434H61.0165V83.2989H60.9885V83.3544H60.9605V83.4098H60.9325V83.4653H60.9045V83.5208H60.8765V83.5763H60.8485V83.6317H60.8205V83.6872H60.7925V83.7704H60.7645V83.8537H60.7365V83.9091H60.7085V83.9923H60.6805V84.0478H60.6525V84.131H60.6245V84.2143H60.5965V84.3252H60.5685V84.4084H60.5405V84.5194H60.5125V84.6026H60.4845V84.7413H60.4565V84.88H60.4285V85.0464H60.4005V85.2406H60.3725V85.4902" fill="url(#paint15_linear)"/>
<path d="M88.7438 86.0166L97.3843 97.386H92.5055L86.0153 88.7161L83.245 91.456V97.386H79.4004V67.7741H83.245V86.4252L91.8439 77.7139H97.2185L88.7438 86.0166Z" fill="url(#paint16_linear)"/>
<path d="M44.0742 21.2478H47.8545V0.000165939H44.0742V21.2478Z" fill="url(#paint17_linear)"/>
<path d="M4.63219 35.6207C6.16627 35.6207 7.37735 36.8184 7.37735 38.3365C7.37735 39.8488 6.11094 41.0671 4.52763 41.0111C3.14546 40.9625 1.97606 39.8053 1.92848 38.4361C1.87433 36.8711 3.1062 35.6207 4.63219 35.6207Z" fill="url(#paint18_linear)"/>
<path d="M136.45 35.6208C137.985 35.6208 139.195 36.8185 139.195 38.3366C139.195 39.8478 137.931 41.0655 136.349 41.0114C134.966 40.964 133.795 39.8076 133.747 38.4382C133.692 36.8723 134.924 35.6208 136.45 35.6208Z" fill="url(#paint19_linear)"/>
<path d="M45.9875 29.1936C44.4533 29.1936 43.2422 27.9956 43.2422 26.4772C43.2422 24.9996 44.4533 23.8013 45.9875 23.8013C47.4817 23.8013 48.6927 24.9996 48.6927 26.4772C48.6927 27.9956 47.4817 29.1936 45.9875 29.1936Z" fill="url(#paint20_linear)"/>
<defs>
<linearGradient id="paint0_linear" x1="215.845" y1="38.7249" x2="11.9621" y2="18.8527" gradientUnits="userSpaceOnUse">
<stop stop-color="#220000"/>
<stop offset="0.443741" stop-color="#F68536"/>
<stop offset="0.845435" stop-color="#EF2E32"/>
<stop offset="0.999981" stop-color="#ED127C"/>
<stop offset="1" stop-color="#ED127C"/>
</linearGradient>
<linearGradient id="paint1_linear" x1="216.035" y1="36.7699" x2="12.1526" y2="16.8977" gradientUnits="userSpaceOnUse">
<stop stop-color="#220000"/>
<stop offset="0.443741" stop-color="#F68536"/>
<stop offset="0.845435" stop-color="#EF2E32"/>
<stop offset="0.999981" stop-color="#ED127C"/>
<stop offset="1" stop-color="#ED127C"/>
</linearGradient>
<linearGradient id="paint2_linear" x1="216.326" y1="33.7941" x2="12.4432" y2="13.922" gradientUnits="userSpaceOnUse">
<stop stop-color="#220000"/>
<stop offset="0.443741" stop-color="#F68536"/>
<stop offset="0.845435" stop-color="#EF2E32"/>
<stop offset="0.999981" stop-color="#ED127C"/>
<stop offset="1" stop-color="#ED127C"/>
</linearGradient>
<linearGradient id="paint3_linear" x1="212.477" y1="73.2783" x2="8.59382" y2="53.4062" gradientUnits="userSpaceOnUse">
<stop stop-color="#220000"/>
<stop offset="0.443741" stop-color="#F68536"/>
<stop offset="0.845435" stop-color="#EF2E32"/>
<stop offset="0.999981" stop-color="#ED127C"/>
<stop offset="1" stop-color="#ED127C"/>
</linearGradient>
<linearGradient id="paint4_linear" x1="212.624" y1="71.7724" x2="8.74149" y2="51.9002" gradientUnits="userSpaceOnUse">
<stop stop-color="#220000"/>
<stop offset="0.443741" stop-color="#F68536"/>
<stop offset="0.845435" stop-color="#EF2E32"/>
<stop offset="0.999981" stop-color="#ED127C"/>
<stop offset="1" stop-color="#ED127C"/>
</linearGradient>
<linearGradient id="paint5_linear" x1="212.831" y1="69.649" x2="8.94815" y2="49.7769" gradientUnits="userSpaceOnUse">
<stop stop-color="#220000"/>
<stop offset="0.443741" stop-color="#F68536"/>
<stop offset="0.845435" stop-color="#EF2E32"/>
<stop offset="0.999981" stop-color="#ED127C"/>
<stop offset="1" stop-color="#ED127C"/>
</linearGradient>
<linearGradient id="paint6_linear" x1="213.041" y1="67.4942" x2="9.15823" y2="47.6221" gradientUnits="userSpaceOnUse">
<stop stop-color="#220000"/>
<stop offset="0.443741" stop-color="#F68536"/>
<stop offset="0.845435" stop-color="#EF2E32"/>
<stop offset="0.999981" stop-color="#ED127C"/>
<stop offset="1" stop-color="#ED127C"/>
</linearGradient>
<linearGradient id="paint7_linear" x1="213.277" y1="65.0866" x2="9.39375" y2="45.2144" gradientUnits="userSpaceOnUse">
<stop stop-color="#220000"/>
<stop offset="0.443741" stop-color="#F68536"/>
<stop offset="0.845435" stop-color="#EF2E32"/>
<stop offset="0.999981" stop-color="#ED127C"/>
<stop offset="1" stop-color="#ED127C"/>
</linearGradient>
<linearGradient id="paint8_linear" x1="213.418" y1="63.6333" x2="9.53472" y2="43.7611" gradientUnits="userSpaceOnUse">
<stop stop-color="#220000"/>
<stop offset="0.443741" stop-color="#F68536"/>
<stop offset="0.845435" stop-color="#EF2E32"/>
<stop offset="0.999981" stop-color="#ED127C"/>
<stop offset="1" stop-color="#ED127C"/>
</linearGradient>
<linearGradient id="paint9_linear" x1="213.894" y1="58.7477" x2="10.0108" y2="38.8755" gradientUnits="userSpaceOnUse">
<stop stop-color="#220000"/>
<stop offset="0.443741" stop-color="#F68536"/>
<stop offset="0.845435" stop-color="#EF2E32"/>
<stop offset="0.999981" stop-color="#ED127C"/>
<stop offset="1" stop-color="#ED127C"/>
</linearGradient>
<linearGradient id="paint10_linear" x1="213.696" y1="60.7852" x2="9.81249" y2="40.913" gradientUnits="userSpaceOnUse">
<stop stop-color="#220000"/>
<stop offset="0.443741" stop-color="#F68536"/>
<stop offset="0.845435" stop-color="#EF2E32"/>
<stop offset="0.999981" stop-color="#ED127C"/>
<stop offset="1" stop-color="#ED127C"/>
</linearGradient>
<linearGradient id="paint11_linear" x1="213.845" y1="59.2479" x2="9.96203" y2="39.3757" gradientUnits="userSpaceOnUse">
<stop stop-color="#220000"/>
<stop offset="0.443741" stop-color="#F68536"/>
<stop offset="0.845435" stop-color="#EF2E32"/>
<stop offset="0.999981" stop-color="#ED127C"/>
<stop offset="1" stop-color="#ED127C"/>
</linearGradient>
<linearGradient id="paint12_linear" x1="214.052" y1="57.1168" x2="10.1692" y2="37.2446" gradientUnits="userSpaceOnUse">
<stop stop-color="#220000"/>
<stop offset="0.443741" stop-color="#F68536"/>
<stop offset="0.845435" stop-color="#EF2E32"/>
<stop offset="0.999981" stop-color="#ED127C"/>
<stop offset="1" stop-color="#ED127C"/>
</linearGradient>
<linearGradient id="paint13_linear" x1="209.312" y1="105.748" x2="5.42954" y2="85.8761" gradientUnits="userSpaceOnUse">
<stop stop-color="#220000"/>
<stop offset="0.443741" stop-color="#F68536"/>
<stop offset="0.845435" stop-color="#EF2E32"/>
<stop offset="0.999981" stop-color="#ED127C"/>
<stop offset="1" stop-color="#ED127C"/>
</linearGradient>
<linearGradient id="paint14_linear" x1="209.537" y1="103.455" x2="5.65474" y2="83.5826" gradientUnits="userSpaceOnUse">
<stop stop-color="#220000"/>
<stop offset="0.443741" stop-color="#F68536"/>
<stop offset="0.845435" stop-color="#EF2E32"/>
<stop offset="0.999981" stop-color="#ED127C"/>
<stop offset="1" stop-color="#ED127C"/>
</linearGradient>
<linearGradient id="paint15_linear" x1="209.747" y1="101.298" x2="5.86415" y2="81.4256" gradientUnits="userSpaceOnUse">
<stop stop-color="#220000"/>
<stop offset="0.443741" stop-color="#F68536"/>
<stop offset="0.845435" stop-color="#EF2E32"/>
<stop offset="0.999981" stop-color="#ED127C"/>
<stop offset="1" stop-color="#ED127C"/>
</linearGradient>
<linearGradient id="paint16_linear" x1="210.368" y1="94.9223" x2="6.4853" y2="75.0501" gradientUnits="userSpaceOnUse">
<stop stop-color="#220000"/>
<stop offset="0.443741" stop-color="#F68536"/>
<stop offset="0.845435" stop-color="#EF2E32"/>
<stop offset="0.999981" stop-color="#ED127C"/>
<stop offset="1" stop-color="#ED127C"/>
</linearGradient>
<linearGradient id="paint17_linear" x1="216.99" y1="26.973" x2="13.1073" y2="7.10083" gradientUnits="userSpaceOnUse">
<stop stop-color="#220000"/>
<stop offset="0.443741" stop-color="#F68536"/>
<stop offset="0.845435" stop-color="#EF2E32"/>
<stop offset="0.999981" stop-color="#ED127C"/>
<stop offset="1" stop-color="#ED127C"/>
</linearGradient>
<linearGradient id="paint18_linear" x1="213.934" y1="58.3348" x2="10.0513" y2="38.4627" gradientUnits="userSpaceOnUse">
<stop stop-color="#220000"/>
<stop offset="0.443741" stop-color="#F68536"/>
<stop offset="0.845435" stop-color="#EF2E32"/>
<stop offset="0.999981" stop-color="#ED127C"/>
<stop offset="1" stop-color="#ED127C"/>
</linearGradient>
<linearGradient id="paint19_linear" x1="215.152" y1="45.844" x2="11.268" y2="25.9717" gradientUnits="userSpaceOnUse">
<stop stop-color="#220000"/>
<stop offset="0.443741" stop-color="#F68536"/>
<stop offset="0.845435" stop-color="#EF2E32"/>
<stop offset="0.999981" stop-color="#ED127C"/>
<stop offset="1" stop-color="#ED127C"/>
</linearGradient>
<linearGradient id="paint20_linear" x1="215.456" y1="42.7064" x2="11.5736" y2="22.8343" gradientUnits="userSpaceOnUse">
<stop stop-color="#220000"/>
<stop offset="0.443741" stop-color="#F68536"/>
<stop offset="0.845435" stop-color="#EF2E32"/>
<stop offset="0.999981" stop-color="#ED127C"/>
<stop offset="1" stop-color="#ED127C"/>
</linearGradient>
</defs>
</svg>
