<svg width="184" height="57" viewBox="0 0 184 57" fill="none" xmlns="http://www.w3.org/2000/svg">
<g clip-path="url(#clip0)">
<path d="M5.62922 45.4651C2.43753 45.4651 0 47.7417 0 50.7505C0 53.746 2.451 56.0625 5.64269 56.0625C8.83437 56.0625 11.2719 53.746 11.2719 50.7505C11.2584 47.7417 8.80744 45.4651 5.62922 45.4651ZM5.65615 54.2652C3.7169 54.2652 2.06046 52.7209 2.06046 50.7505C2.06046 48.7801 3.68997 47.2624 5.65615 47.2491C7.5954 47.2491 9.18451 48.7668 9.19798 50.7372C9.19798 52.7209 7.5954 54.2652 5.65615 54.2652Z" fill="#F8CF47"/>
<path d="M14.9488 48.2342C14.9488 47.5951 15.5682 47.249 16.5244 47.249C17.3459 47.249 18.5579 47.5951 19.7026 48.2608L20.5106 46.5301C19.5006 45.8777 18.1 45.425 16.686 45.425C14.3158 45.425 12.7267 46.5966 12.7267 48.4072C12.7267 52.1217 18.4098 50.8835 18.4098 53.0669C18.4098 53.7991 17.7364 54.2119 16.5917 54.2119C15.4605 54.2119 14.0195 53.6261 12.9422 52.6808L12.0938 54.3716C13.225 55.3701 14.868 56.0358 16.5648 56.0358C18.8946 56.0358 20.6049 54.9042 20.6049 52.9471C20.6318 49.1927 14.9488 50.351 14.9488 48.2342Z" fill="#F8CF47"/>
<path d="M24.5638 54.1588V45.5051H22.5303L22.5437 55.9561H29.1291V54.1455L24.5638 54.1588Z" fill="#F8CF47"/>
<path d="M35.512 45.4385C32.3203 45.4385 29.8828 47.7151 29.8828 50.7239C29.8828 53.7194 32.3338 56.0359 35.5255 56.0359C38.7172 56.0359 41.1547 53.7194 41.1547 50.7239C41.1413 47.7284 38.6903 45.4385 35.512 45.4385ZM35.5524 54.2519C33.5997 54.2519 31.9567 52.7076 31.9567 50.7372C31.9567 48.7668 33.5862 47.2491 35.5524 47.2358C37.4917 47.2358 39.0808 48.7535 39.0943 50.7239C39.0808 52.6943 37.4782 54.2519 35.5524 54.2519Z" fill="#F8CF47"/>
<path d="M53.9618 50.4176C55.1065 50.1381 55.8068 49.2461 55.8068 48.1011C55.8068 46.4902 54.4197 45.4917 52.1707 45.4917H47.4707V55.9427H52.3054C54.716 55.9427 56.2108 54.851 56.2108 53.0537C56.2108 51.6691 55.3624 50.6706 53.9618 50.4176ZM49.4908 47.2224H52.063C53.0999 47.2091 53.7463 47.6751 53.7463 48.4606C53.7463 49.286 53.1134 49.7653 52.0764 49.7653H49.5042L49.4908 47.2224ZM52.063 54.2119H49.4908V51.4561H52.063C53.3423 51.4428 54.1234 51.962 54.1234 52.814C54.11 53.706 53.3423 54.2253 52.063 54.2119Z" fill="#F8CF47"/>
<path d="M65.2745 45.4785V51.576C65.2745 53.2535 64.2645 54.2387 62.6619 54.2387C61.0593 54.2387 59.9954 53.2402 59.982 51.5893V45.4918H57.9619V51.5893C57.9619 54.3319 59.78 56.036 62.6619 56.036C65.5304 56.036 67.2946 54.3319 67.2946 51.5893V45.4918L65.2745 45.4785Z" fill="#F8CF47"/>
<path d="M71.5904 48.1941C71.5904 47.5551 72.2098 47.2089 73.166 47.2089C73.9875 47.2089 75.1995 47.5551 76.3442 48.2208L77.1522 46.49C76.1422 45.8377 74.7416 45.385 73.3276 45.385C70.9574 45.385 69.3683 46.5566 69.3683 48.3672C69.3683 52.0816 75.0514 50.8435 75.0514 53.0269C75.0514 53.7591 74.378 54.1718 73.2333 54.1718C72.1021 54.1718 70.6611 53.586 69.5838 52.6408L68.7354 54.3316C69.8666 55.3301 71.5096 55.9958 73.2064 55.9958C75.5362 55.9958 77.2465 54.8641 77.2465 52.9071C77.2734 49.166 71.5904 50.311 71.5904 48.1941Z" fill="#F8CF47"/>
<path d="M81.1919 45.4785H79.1719V55.9295H81.1919V45.4785Z" fill="#F8CF47"/>
<path d="M91.1721 45.4651V52.6144L85.718 45.4651L83.8057 45.4784V55.9294L85.7853 55.9161V48.7801L91.226 55.9161H93.1383V45.4651H91.1721Z" fill="#F8CF47"/>
<path d="M97.7708 54.172L97.7574 51.536H102.902V49.7919H97.7574V47.2091H103.481V45.4651H95.7373V55.9161H103.669V54.1587L97.7708 54.172Z" fill="#F8CF47"/>
<path d="M107.628 48.1812C107.628 47.5421 108.248 47.196 109.204 47.196C110.026 47.196 111.238 47.5421 112.382 48.2078L113.19 46.4771C112.18 45.8247 110.78 45.3721 109.366 45.3721C106.995 45.3721 105.406 46.5436 105.406 48.3543C105.406 52.0687 111.089 50.8305 111.089 53.0139C111.089 53.7462 110.416 54.1589 109.271 54.1589C108.14 54.1589 106.699 53.5731 105.622 52.6278L104.773 54.3186C105.905 55.3171 107.548 55.9828 109.244 55.9828C111.574 55.9828 113.285 54.8512 113.285 52.8941C113.298 49.1397 107.628 50.298 107.628 48.1812Z" fill="#F8CF47"/>
<path d="M117.11 48.1678C117.11 47.5287 117.729 47.1826 118.686 47.1826C119.507 47.1826 120.719 47.5287 121.864 48.1944L122.672 46.4636C121.662 45.8113 120.261 45.3586 118.847 45.3586C116.477 45.3586 114.888 46.5302 114.888 48.3408C114.888 52.0553 120.571 50.8171 120.571 53.0005C120.571 53.7327 119.898 54.1455 118.753 54.1455C117.622 54.1455 116.181 53.5597 115.103 52.6144L114.255 54.3052C115.386 55.3037 117.029 55.9694 118.726 55.9694C121.056 55.9694 122.766 54.8377 122.766 52.8807C122.793 49.1396 117.11 50.2846 117.11 48.1678Z" fill="#F8CF47"/>
<path d="M129.242 55.8895H131.262V51.7623H136.043V50.005L131.262 50.0183L131.249 47.1958L136.514 47.1825L136.528 45.4385H129.229L129.242 55.8895Z" fill="#F8CF47"/>
<path d="M142.844 45.3721C139.652 45.3721 137.215 47.6487 137.215 50.6575C137.215 53.653 139.666 55.9695 142.858 55.9695C146.049 55.9695 148.487 53.653 148.487 50.6575C148.473 47.662 146.022 45.3721 142.844 45.3721ZM142.871 54.1855C140.918 54.1855 139.275 52.6412 139.275 50.6708C139.275 48.7004 140.905 47.1827 142.871 47.1694C144.81 47.1694 146.413 48.6871 146.413 50.6575C146.413 52.6279 144.81 54.1855 142.871 54.1855Z" fill="#F8CF47"/>
<path d="M158.964 49.0197C158.964 46.7164 157.402 45.425 154.668 45.425H150.265V55.876H152.285V52.8006H154.668C154.803 52.8006 154.924 52.8006 155.045 52.7873L156.877 55.876H159.193L156.863 52.4146C158.224 51.8421 158.964 50.6705 158.964 49.0197ZM154.668 51.0433H152.285V47.1824H154.668C156.177 47.1824 157.025 47.8081 157.025 49.0862C157.025 50.4042 156.19 51.0433 154.668 51.0433Z" fill="#F8CF47"/>
<path d="M168.284 45.425V51.5226C168.284 53.2001 167.274 54.1852 165.672 54.1852C164.069 54.1852 162.992 53.1867 162.992 51.5359V45.4384H160.972V51.5359C160.972 54.2784 162.79 55.9825 165.672 55.9825C168.54 55.9825 170.304 54.2784 170.304 51.5359V45.4384L168.284 45.425Z" fill="#F8CF47"/>
<path d="M184 45.4119H181.67L178.371 52.1218L175.044 45.4119L172.701 45.4252V55.8628H174.573V48.4074L177.697 54.7978L179.017 54.7845L182.142 48.3941L182.155 55.8628H184V45.4119Z" fill="#F8CF47"/>
<path d="M115.48 35.9592C116.934 33.443 118.012 30.9002 119.318 28.4771C121.607 24.2302 125.472 21.0217 130.092 19.5439L130.118 19.5306C134.455 18.146 141.175 18.2924 144.528 15.044C148.743 10.9701 147.693 3.82083 142.535 1.03834C138.28 -1.23825 132.96 0.399296 130.576 4.52643C129.135 7.02934 128.058 9.55888 126.765 11.9553C124.476 16.1889 120.624 19.4374 116.005 20.9285C115.978 20.9285 115.965 20.9418 115.938 20.9418C115.466 21.0882 114.968 21.2214 114.456 21.3412C110.039 22.3663 105.406 22.3663 100.989 21.3412C100.478 21.2214 99.9793 21.0882 99.5079 20.9418L99.481 20.9285C94.8483 19.4507 90.9968 16.2289 88.7074 11.9952C87.4011 9.59882 86.3237 7.05597 84.8693 4.52643C84.5595 3.98059 84.1959 3.48799 83.7919 3.03534C83.1186 2.24985 82.2836 1.55756 81.314 1.03834C79.9807 0.319416 78.5398 -0.0134179 77.1123 -0.000104526C75.6847 -0.0134179 74.2438 0.319416 72.9105 1.03834C71.9275 1.55756 71.106 2.24985 70.4326 3.03534C70.0286 3.48799 69.665 3.98059 69.3552 4.52643C67.9143 7.05597 66.8369 9.59882 65.5306 12.0085C63.2412 16.2555 59.3762 19.464 54.757 20.9418L54.7301 20.9551C50.3937 22.3397 43.6736 22.1932 40.3203 25.4417C36.1052 29.5156 37.1556 36.6648 42.3135 39.4473C46.5556 41.7239 51.8885 40.0997 54.2587 35.9726C55.7131 33.4563 56.7905 30.9135 58.0968 28.4905C60.3862 24.2435 64.2512 21.035 68.8704 19.5572L68.8974 19.5439C69.3687 19.3974 69.867 19.2643 70.3787 19.1445C74.7959 18.1194 79.4286 18.1194 83.8458 19.1445C84.3575 19.2643 84.8558 19.3974 85.3271 19.5439L85.3541 19.5572C89.9867 21.035 93.8383 24.2568 96.1277 28.4905C97.434 30.9135 98.5248 33.4563 99.9658 35.9726C100.276 36.5184 100.639 37.011 101.043 37.4636C101.717 38.2491 102.551 38.9414 103.521 39.4606C104.854 40.1796 106.295 40.5124 107.723 40.4991C109.15 40.5124 110.591 40.1796 111.925 39.4606C112.908 38.9414 113.729 38.2491 114.402 37.4636C114.806 36.9977 115.17 36.5051 115.48 35.9592ZM138.212 3.3948C140.529 3.3948 142.495 4.83264 143.262 6.84296C143.612 7.69501 143.747 8.6802 143.518 9.81183C143.222 11.3162 142.441 12.3813 141.431 13.0337C140.273 13.8857 138.751 14.2984 137.135 13.9922C135.007 13.5928 133.297 11.902 132.893 9.81183C132.246 6.3903 134.872 3.3948 138.212 3.3948ZM51.9289 32.8439C51.5114 34.9075 49.8415 36.5717 47.7676 36.9844C44.9799 37.5435 42.4751 35.9859 41.5728 33.6427C41.2226 32.7907 41.088 31.8055 41.3169 30.6738C41.6132 29.1694 42.3943 28.1044 43.4043 27.452C44.3066 26.7863 45.4243 26.3869 46.6229 26.3869C49.9762 26.4003 52.6157 29.4091 51.9289 32.8439ZM82.3105 9.81183C82.0143 11.3162 81.2332 12.3813 80.2231 13.0337C79.3478 13.6727 78.2839 14.0588 77.1123 14.0854C75.9541 14.0588 74.8767 13.6727 74.0014 13.0337C72.9913 12.368 72.2237 11.3162 71.914 9.81183C71.685 8.69351 71.8063 7.69501 72.1699 6.84296C72.9375 4.85927 74.8498 3.44805 77.1123 3.3948C79.3747 3.44805 81.287 4.85927 82.0547 6.84296C82.4183 7.69501 82.5395 8.6802 82.3105 9.81183ZM112.665 33.656C111.898 35.6397 109.985 37.0509 107.723 37.1042C105.46 37.0509 103.548 35.6397 102.78 33.656C102.43 32.804 102.296 31.8188 102.525 30.6872C102.821 29.1827 103.602 28.1177 104.612 27.4653C105.487 26.8263 106.551 26.4402 107.723 26.4136C108.881 26.4402 109.958 26.8263 110.834 27.4653C111.844 28.131 112.611 29.1827 112.921 30.6872C113.15 31.8188 113.029 32.804 112.665 33.656Z" fill="#F8CF47"/>
</g>
<defs>
<clipPath id="clip0">
<rect width="184" height="56.0625" fill="white"/>
</clipPath>
</defs>
</svg>
