<?xml version="1.0" encoding="UTF-8"?>
<svg width="55px" height="55px" viewBox="0 0 55 55" version="1.1" xmlns="http://www.w3.org/2000/svg" xmlns:xlink="http://www.w3.org/1999/xlink">
    <!-- Generator: Sketch 57.1 (83088) - https://sketch.com -->
    <title>2_2</title>
    <desc>Created with Sketch.</desc>
    <g id="NEWEST-HOMEPAGE-🔥" stroke="none" stroke-width="1" fill="none" fill-rule="evenodd">
        <g id="2_2" fill="#0066FF">
            <rect id="Rectangle" opacity="0.1" x="0" y="0" width="55" height="55" rx="14"></rect>
            <g id="011_discontent_uprising_revolution_fist_freedom_hands_2" transform="translate(10.000000, 10.000000)" fill-rule="nonzero">
                <path d="M35.3559191,19.7366222 L35.3559191,21.5026765 L35.372106,21.5026765 C35.7036387,21.5026765 35.9722222,21.7648573 35.9722222,22.0892106 L35.9722222,34.4134659 C35.9722222,34.7378192 35.7036387,35 35.372106,35 C35.0405733,35 34.7725893,34.7378192 34.7725893,34.4134659 L34.7725893,22.679264 L26.3751591,22.679264 L26.3751591,34.4134659 C26.3751591,34.7378192 26.1071751,35 25.7756424,35 C25.4441096,35 25.1755262,34.7378192 25.1755262,34.4134659 L25.1755262,22.0892106 C25.1755262,21.7672034 25.4405125,21.5079553 25.7684482,21.5038496 L25.7684482,19.7366222 C25.7684482,19.3430578 25.9638906,18.9952431 26.2606514,18.7852639 L26.2606514,16.7042408 C24.9866784,15.5194418 24.1713357,14.5205742 23.9878836,13.8906365 C23.6227779,12.6407323 24.1677386,10.3063264 24.6011892,9.51685148 C24.7522674,9.24176698 25.1341595,9.00187452 25.7384723,8.80362598 C25.7522612,8.45287857 25.7702467,8.12148678 25.7930284,7.83115238 C25.8679584,6.89621697 26.5520165,6.26862545 27.4956558,6.26862545 C28.0819831,6.26862545 28.5975674,6.55368104 28.8931292,6.98302403 C29.1251421,6.88096709 29.3937256,6.82700595 29.6922849,6.82700595 C30.2420417,6.82700595 30.7240531,7.07569642 31.0381999,7.47160696 C31.3589413,7.37658843 31.635918,7.37248269 31.8913121,7.38714604 C32.6616911,7.43230917 33.2905841,7.88159432 33.557369,8.51329158 C33.6562893,8.50859931 33.7474158,8.49745516 33.8643215,8.50625317 C34.8097594,8.57429113 35.4146717,9.20129612 35.6610731,10.3702586 C35.8852923,11.4307124 35.9572343,12.3427729 35.9572343,14.1240771 C35.9572343,15.4989131 35.3595162,16.3364839 34.9638352,16.8907586 C34.9140753,16.9599696 34.8667134,17.026248 34.8241478,17.0884206 L34.8241478,18.7606294 C35.1430906,18.9665029 35.3559191,19.3260483 35.3559191,19.7366222 Z M26.9345081,21.4973977 L34.1898591,21.4973977 L34.1898591,19.7952756 C34.1095239,19.7899968 34.0345843,19.7706412 33.9662394,19.7372088 L27.0819892,19.758324 C27.036426,19.7765066 26.9848675,19.7806123 26.9345081,19.7876507 L26.9345081,21.4973977 Z M34.4932146,10.6107376 C34.3043668,9.71744616 33.9872225,9.69515786 33.7767921,9.67990797 C33.7450177,9.67814837 33.7234351,9.68225411 33.6952578,9.68225411 L33.6952578,11.3785108 C33.6952578,11.7034507 33.4278734,11.9668046 33.0981392,11.9668046 C32.768405,11.9668046 32.5016201,11.7034507 32.5016201,11.3785108 L32.5016201,9.19953652 C32.5016201,8.85934672 32.209056,8.58484875 31.8205692,8.56197391 C31.6868769,8.55258937 31.563976,8.55200283 31.4224901,8.58836795 C31.4224901,8.59012755 31.4224901,8.59247369 31.4224901,8.59481983 L31.4230896,11.0494652 C31.4230896,11.3744051 31.1563047,11.6383454 30.8265705,11.6383454 C30.4974358,11.6383454 30.2294519,11.3749916 30.2294519,11.0494652 L30.2288523,8.59481983 C30.2288523,8.30096623 30.0448007,8.00417995 29.6922849,8.00417995 C29.2474435,8.00417995 29.1557175,8.21591878 29.1557175,8.53382028 L29.1557175,8.81301052 C29.1557175,8.82180854 29.1557175,8.83060655 29.155118,8.83940456 L29.155118,10.7696884 C29.155118,11.0952148 28.888333,11.3579821 28.5585988,11.3579821 C28.2288647,11.3579821 27.9614802,11.0952148 27.9614802,10.7696884 L27.9614802,7.8176621 C27.9614802,7.66223055 27.7846228,7.44521292 27.4956558,7.44521292 C27.37875,7.44521292 27.0214381,7.44521292 26.9824695,7.92323824 C26.8877458,9.12328708 26.8877458,11.07234 26.8877458,12.2371968 L26.8877458,13.0055565 C26.8877458,13.331083 26.6209609,13.5944368 26.2912267,13.5944368 C25.9614926,13.5944368 25.6941081,13.331083 25.6941081,13.0055565 L25.6941081,12.1673992 C25.6941081,12.1673992 25.6941081,12.1673992 25.6941081,12.1673992 C25.6941081,11.5914227 25.6947076,10.8453513 25.7060984,10.0857896 C25.671926,10.1033856 25.6437487,10.1186355 25.6215666,10.1327123 C25.296029,10.7913902 24.8811635,12.6970396 25.1341595,13.5656966 C25.2258856,13.8789058 25.9632911,14.9481576 28.0963715,16.75175 C28.3469695,16.9634888 28.3757463,17.334765 28.1611193,17.5811093 C28.043614,17.7171852 27.8763489,17.7869828 27.7084842,17.7869828 C27.6209547,17.7869828 27.5352239,17.7605887 27.4542891,17.722464 L27.4542891,18.5764577 L33.6311096,18.5764577 L33.6311096,16.9189123 C33.6311096,16.8150957 33.6586873,16.7130388 33.7120443,16.6227125 C33.7863844,16.4966077 33.882307,16.3611183 33.9884215,16.2127252 C34.3337431,15.7288345 34.7635966,15.1264639 34.7635966,14.1240771 C34.7635966,12.2371968 34.6730696,11.4606256 34.4932146,10.6107376 Z M33.7600056,20.1477827 C33.8733143,20.2533588 33.9392611,20.4070307 33.9392611,20.565395 C33.9392611,20.7184804 33.8733143,20.8651139 33.7600056,20.9771419 C33.6526922,21.0891699 33.5034125,21.1536887 33.342742,21.1536887 C33.1808725,21.1536887 33.0315929,21.0891699 32.9182842,20.9771419 C32.8049756,20.8651139 32.7456234,20.7184804 32.7456234,20.565395 C32.7456234,20.4070307 32.8049756,20.2598107 32.9182842,20.1477827 C33.1389064,19.929592 33.5453787,19.929592 33.7600056,20.1477827 Z M22.8901686,11.7926039 L22.8901686,13.5222931 C23.177337,13.7334454 23.3655853,14.0730486 23.3655853,14.4589881 L23.3655853,16.2250424 L23.3823718,16.2250424 C23.7139045,16.2250424 23.9818884,16.4872231 23.9818884,16.8115765 L23.9818884,34.4134659 C23.9818884,34.7378192 23.7139045,35 23.3823718,35 C23.050839,35 22.7822556,34.7378192 22.7822556,34.4134659 L22.7822556,17.4016298 L14.3848253,17.4016298 L14.3848253,34.4134659 C14.3848253,34.7378192 14.1168413,35 13.7853086,35 C13.4537759,35 13.1851924,34.7378192 13.1851924,34.4134659 L13.1851924,16.8115765 C13.1851924,16.4895693 13.4501788,16.2297346 13.7781144,16.2262154 L13.7781144,14.4589881 C13.7781144,14.0413758 13.9993361,13.6777246 14.3266722,13.4730242 L14.3266722,11.4084241 C13.0532987,10.2236251 12.2373565,9.22475749 12.0539044,8.59481983 C11.6887987,7.34491559 12.2337594,5.0099232 12.66721,4.22103479 C12.8182882,3.94595028 13.2001803,3.70605782 13.8050927,3.50780928 C13.818282,3.15647534 13.8362675,2.82567009 13.8590492,2.53474915 C13.9339792,1.59981375 14.6180373,0.972222222 15.5616766,0.972222222 C16.1480039,0.972222222 16.6635882,1.25727781 16.95915,1.6866208 C17.1911629,1.58515039 17.4597464,1.53118925 17.7583057,1.53118925 C18.3080625,1.53118925 18.7900739,1.77987972 19.1042207,2.17579026 C19.4249621,2.08077174 19.7019388,2.07607946 19.9579324,2.09132935 C20.7283114,2.13649248 21.3566049,2.58577762 21.6233898,3.21747489 C21.72231,3.21219608 21.8134366,3.20105193 21.9303423,3.20984994 C22.8757802,3.2778879 23.4806925,3.90547943 23.7270939,5.07444195 C23.9513131,6.13430913 24.0232551,7.04636971 24.0232551,8.82767388 C24.0232551,10.2030964 23.425537,11.0406672 23.0304555,11.5943554 C22.9800961,11.6641529 22.9327342,11.7298448 22.8901686,11.7926039 Z M14.9441744,16.2197636 L22.1995253,16.2197636 L22.1995253,14.4883148 C22.1521635,14.4801033 22.1024036,14.4777572 22.0598379,14.4595746 L15.0550849,14.4806899 C15.0185144,14.4889013 14.9831429,14.5012186 14.9441744,14.5023916 L14.9441744,16.2197636 Z M22.5592353,5.31433442 C22.3709871,4.42162946 22.0532433,4.39934117 21.8428129,4.38350474 C21.8110385,4.38174514 21.7900554,4.38643742 21.7612786,4.38643742 L21.7612786,6.0821076 C21.7612786,6.40763404 21.4944937,6.67098787 21.1647595,6.67098787 C20.8344258,6.67098787 20.5676409,6.40763404 20.5676409,6.0821076 L20.5676409,3.90371982 C20.5676409,3.56294349 20.2750768,3.28903205 19.8865899,3.26615722 C19.7534972,3.25677267 19.6299968,3.25618614 19.4885109,3.29255126 C19.4885109,3.29431086 19.4885109,3.29607046 19.4885109,3.2984166 L19.4891104,5.75364848 C19.4891104,6.07800186 19.2223255,6.34194222 18.8925913,6.34194222 C18.5634566,6.34194222 18.2954727,6.07858839 18.2954727,5.75364848 L18.2954727,3.2984166 C18.2954727,3.00514953 18.1108215,2.70777672 17.7583057,2.70777672 C17.3134643,2.70777672 17.2217383,2.92010208 17.2217383,3.23741705 L17.2217383,3.51719383 C17.2217383,3.52540531 17.2217383,3.53478985 17.2211387,3.54358787 L17.2211387,5.4738717 C17.2211387,5.79881161 16.9543538,6.06216544 16.6246196,6.06216544 C16.2948855,6.06216544 16.0281005,5.79881161 16.0281005,5.4738717 L16.0281005,2.5218454 C16.0281005,2.36582732 15.8506436,2.14939623 15.5616766,2.14939623 C15.4447708,2.14939623 15.0874589,2.14939623 15.0490898,2.62742155 C14.9537666,3.82747039 14.9537666,5.77652331 14.9537666,6.9413801 L14.9537666,7.70973982 C14.9537666,8.03526626 14.6869817,8.29803355 14.3572475,8.29803355 C14.0275133,8.29803355 13.7607284,8.03526626 13.7607284,7.70973982 L13.7607284,6.87099601 C13.7607284,6.87099601 13.7607284,6.87099601 13.7607284,6.87099601 C13.7607284,6.29501949 13.7607284,5.5495346 13.7721192,4.7899729 C13.7385463,4.80698239 13.7097695,4.82281881 13.6875874,4.8363091 C13.3620498,5.49557346 12.9471843,7.40122286 13.2001803,8.26929338 C13.2919064,8.58250261 14.0293119,9.65175434 16.1623923,11.4559333 C16.4129902,11.6670856 16.4423666,12.0383617 16.2271401,12.2852926 C16.1096348,12.4213685 15.9423696,12.4905795 15.774505,12.4905795 C15.6869755,12.4905795 15.6018442,12.464772 15.5203099,12.4266473 L15.5203099,13.2988236 L21.6971303,13.2988236 L21.6971303,11.6230956 C21.6971303,11.519279 21.7247081,11.4166355 21.7780651,11.3263093 C21.8524052,11.200791 21.9483278,11.0653016 22.0544423,10.9169085 C22.3997639,10.4330178 22.8296174,9.83006071 22.8296174,8.82767388 C22.8296174,6.9413801 22.7390903,6.16422238 22.5592353,5.31433442 Z M20.984305,14.8513794 C21.1221938,14.7164766 21.3308256,14.6513713 21.521472,14.6930152 C21.5634381,14.6988806 21.5994091,14.7100247 21.6353801,14.7223419 C21.6707516,14.7393514 21.7067226,14.757534 21.7366984,14.77513 C21.7720699,14.7985914 21.8020458,14.8220527 21.8260264,14.8513794 C21.8859781,14.9041675 21.9273448,14.9692728 21.9573206,15.0402434 C21.9872964,15.1164929 22.0052819,15.186877 22.0052819,15.2695783 C22.0052819,15.4220771 21.9393351,15.5692972 21.8260264,15.6813252 C21.7720699,15.7399786 21.7067226,15.781036 21.6353801,15.8103627 C21.5634381,15.840276 21.4861005,15.857872 21.4087628,15.857872 C21.2474928,15.857872 21.0982132,15.7927667 20.984305,15.6813252 C20.8709963,15.5692972 20.8122437,15.4220771 20.8122437,15.2695783 C20.8122437,15.186877 20.8236345,15.1164929 20.8536104,15.0402434 C20.8829867,14.9692728 20.930948,14.9041675 20.984305,14.8513794 Z M11.0964763,21.5982816 C11.0461169,21.6674926 10.998755,21.733771 10.9567889,21.7965301 L10.9567889,23.5361904 C11.2103844,23.7491022 11.375851,24.0670037 11.375851,24.4259626 L11.375851,26.1920169 L11.392038,26.1920169 C11.7235707,26.1920169 11.9921542,26.4541977 11.9921542,26.7791376 L11.9921542,34.4128793 C11.9921542,34.7372327 11.7235707,35 11.392038,35 C11.0605053,35 10.7925213,34.7372327 10.7925213,34.4128793 L10.7925213,27.3686044 L2.39509103,27.3686044 L2.39509103,34.4128793 C2.39509103,34.7372327 2.12650756,35 1.79497483,35 C1.4634421,35 1.19545814,34.7372327 1.19545814,34.4128793 L1.19545814,26.7791376 C1.19545814,26.4571303 1.459845,26.1972957 1.78838014,26.19319 L1.78838014,24.4259626 C1.78838014,23.984889 2.0347815,23.6054014 2.39329248,23.4089124 L2.39329248,21.4117637 C1.11931952,20.2275513 0.303377304,19.2280971 0.119925198,18.5981595 C-0.245180466,17.3482552 0.299780204,15.0138494 0.73323077,14.2243744 C0.884308976,13.9492899 1.26680062,13.709984 1.87111345,13.5111489 C1.88430281,13.1604015 1.90228831,12.8290097 1.92506995,12.5386753 C2,11.6037399 2.68465759,10.9761484 3.62769734,10.9761484 C4.21402467,10.9761484 4.72960902,11.261204 5.02517075,11.690547 C5.2571837,11.58849 5.52576718,11.5345289 5.82432649,11.5345289 C6.3740833,11.5345289 6.85609471,11.7832194 7.17084097,12.1797165 C7.4915824,12.0846979 7.76915863,12.0794191 8.02395322,12.094669 C8.79433217,12.1404187 9.42262566,12.5891173 9.68941058,13.2214011 C9.78833084,13.2161223 9.87945737,13.2049781 9.99636313,13.2137761 C10.9418009,13.2818141 11.5467133,13.9094056 11.7931146,15.0777816 C12.0179334,16.1382353 12.0892759,17.0502959 12.0892759,18.8316001 C12.0892759,20.2070226 11.4915578,21.0440068 11.0964763,21.5982816 Z M3.24820328,24.4470779 C3.16906708,24.484616 3.08333619,24.5104235 2.98981159,24.5104235 C2.97722174,24.5104235 2.96643044,24.5039717 2.9544401,24.5033851 L2.9544401,26.1867381 L10.2097911,26.1867381 L10.2097911,24.4805103 C10.1600312,24.4676066 10.1144679,24.4505971 10.0707032,24.4265492 L3.24820328,24.4470779 Z M10.6252561,15.3182606 C10.4370079,14.4249691 10.1192641,14.4026808 9.90883369,14.3874309 C9.87705931,14.3850848 9.85607622,14.3897771 9.82729942,14.3897771 L9.82729942,16.0860338 C9.82729942,16.4109737 9.5605145,16.6743275 9.23078032,16.6743275 C8.90044662,16.6743275 8.6336617,16.4109737 8.6336617,16.0860338 L8.6336617,13.907646 C8.6336617,13.5668697 8.34109755,13.2923717 7.95261074,13.2694969 C7.81891852,13.2601123 7.69601759,13.2595258 7.55453166,13.2958909 C7.55453166,13.2976505 7.55453166,13.2999966 7.55453166,13.3023428 L7.55513117,15.7569881 C7.55513117,16.081928 7.28834625,16.3458684 6.95861207,16.3458684 C6.6294774,16.3458684 6.36209296,16.0825146 6.36209296,15.7569881 L6.36149344,13.3023428 C6.36149344,13.0084892 6.1768423,12.7117029 5.82432649,12.7117029 C5.37948511,12.7117029 5.28775906,12.9234417 5.28775906,13.2413432 L5.28775906,13.5205335 C5.28775906,13.5293315 5.28775906,13.5381295 5.28715954,13.5469275 L5.28715954,15.4772114 C5.28715954,15.8027378 5.02037461,16.0655051 4.69064043,16.0655051 C4.36090625,16.0655051 4.09412133,15.8027378 4.09412133,15.4772114 L4.09412133,12.5251851 C4.09412133,12.3697535 3.91666439,12.1527359 3.62769734,12.1527359 C3.51079159,12.1527359 3.15347964,12.1527359 3.11511057,12.6313477 C3.01978742,13.83081 3.01978742,15.7804495 3.01978742,16.9453063 L3.01978742,17.7130795 C3.01978742,18.0386059 2.75300249,18.3019597 2.42326832,18.3019597 C2.09353414,18.3019597 1.82674921,18.0386059 1.82674921,17.7130795 L1.82674921,16.8749222 C1.82674921,16.8749222 1.82674921,16.8749222 1.82674921,16.8749222 C1.82674921,16.2989457 1.82734873,15.5528743 1.83814003,14.7933126 C1.80456709,14.8109086 1.77579029,14.8261585 1.75360817,14.8402353 C1.42807061,15.4989131 1.01320506,17.4045625 1.26680062,18.2732196 C1.35792716,18.5864288 2.09533269,19.6556805 4.22841307,21.459273 C4.47901104,21.6710118 4.50838736,22.0422879 4.29316087,22.2886323 C4.1756556,22.4252947 4.00839044,22.4945057 3.84052577,22.4945057 C3.75299633,22.4945057 3.66786496,22.4681117 3.58633069,22.429987 L3.58633069,23.2657981 L9.76315114,23.2657981 L9.76315114,21.6270217 C9.76315114,21.5226187 9.79132842,21.4205617 9.84408589,21.3302355 C9.91842596,21.2041306 10.0143486,21.0686413 10.1204631,20.9202481 C10.4657847,20.436944 10.8956382,19.8339869 10.8956382,18.8316001 C10.8956382,16.9453063 10.8051111,16.1681486 10.6252561,15.3182606 Z M10.0713027,25.2729179 C10.0713027,25.3491674 10.0533172,25.4260033 10.0239409,25.4963874 C9.99336555,25.5673581 9.95199889,25.6318768 9.89204723,25.6852514 C9.78473374,25.7966929 9.63545408,25.8559329 9.47478361,25.8559329 C9.39085127,25.8559329 9.31351362,25.8436156 9.24157162,25.8142889 C9.17022913,25.7849622 9.10488181,25.7433183 9.05032579,25.6852514 C8.99696881,25.6318768 8.94900747,25.5673581 8.91963116,25.4963874 C8.88965532,25.4260033 8.8782645,25.3491674 8.8782645,25.2729179 C8.8782645,25.1908031 8.88965532,25.120419 8.91963116,25.0435831 C8.94900747,24.973199 8.99696881,24.9080937 9.05032579,24.8553056 C9.10488181,24.8025175 9.17022913,24.7550083 9.24157162,24.7256816 C9.46219376,24.6371149 9.73077724,24.6904895 9.89204723,24.8553056 C9.95199889,24.9080937 9.99336555,24.973199 10.0239409,25.0435831 C10.0533172,25.120419 10.0713027,25.1908031 10.0713027,25.2729179 Z" id="Shape"></path>
            </g>
        </g>
    </g>
</svg>