<?xml version="1.0" encoding="UTF-8"?>
<svg width="55px" height="55px" viewBox="0 0 55 55" version="1.1" xmlns="http://www.w3.org/2000/svg" xmlns:xlink="http://www.w3.org/1999/xlink">
    <!-- Generator: Sketch 57.1 (83088) - https://sketch.com -->
    <title>4_4</title>
    <desc>Created with Sketch.</desc>
    <g id="NEWEST-HOMEPAGE-🔥" stroke="none" stroke-width="1" fill="none" fill-rule="evenodd">
        <g id="4_4">
            <path d="M17.947,0 L37.053,0 C43.293,0 45.556,0.65 47.838,1.87 C50.0927311,3.06345727 51.9365427,4.90726893 53.13,7.162 C54.35,9.444 55,11.707 55,17.947 L55,37.053 C55,43.293 54.35,45.556 53.13,47.838 C51.9365427,50.0927311 50.0927311,51.9365427 47.838,53.13 C45.556,54.35 43.293,55 37.053,55 L17.947,55 C11.707,55 9.444,54.35 7.162,53.13 C4.90726893,51.9365427 3.06345727,50.0927311 1.87,47.838 C0.65,45.556 0,43.293 0,37.053 L0,17.947 C0,11.707 0.65,9.444 1.87,7.162 C3.06345727,4.90726893 4.90726893,3.06345727 7.162,1.87 C9.444,0.65 11.707,0 17.947,0 Z" id="Path" fill="#0066FF" opacity="0.1"></path>
            <g id="Group" stroke-linecap="round" stroke-linejoin="round" transform="translate(12.000000, 13.000000)" stroke="#0066FF" stroke-width="1.5">
                <path d="M10.023,10.568 L2.25,10.568 L2.25,13.705 L1.977,14.045 C1.159,15.068 0.205,16.295 0.205,17.591 L0.205,25.227 C0.205,26.25 1.091,27.137 2.114,27.137 L2.25,27.137 L2.25,26.114 L2.25,27.682 C2.25,28.227 2.727,28.705 3.273,28.705 C3.818,28.705 4.295,28.227 4.295,27.682 L4.295,26.114 L4.295,28.159 C4.295,28.705 4.773,29.182 5.318,29.182 C5.864,29.182 6.341,28.705 6.341,28.159 L6.341,26.114 L6.341,27.682 C6.341,28.227 6.818,28.705 7.364,28.705 C7.909,28.705 8.386,28.227 8.386,27.682 L8.386,26.114 L8.386,27.682 L8.727,27.682 C9.682,27.682 10.432,26.932 10.432,25.977 L10.432,19.91 L11.182,19.91 C11.864,19.91 12.477,19.365 12.477,18.615 L12.477,17.728 C12.477,17.183 12.273,16.569 11.864,16.16 L10.227,13.5 L10.023,10.568 Z" id="Path"></path>
                <path d="M10.636,20.114 L10.636,27.886 L13.773,27.886 L14.113,28.159 C15.136,28.977 16.363,29.932 17.659,29.932 L25.364,29.932 C26.386,29.932 27.273,29.045 27.273,28.022 L27.273,27.886 L26.25,27.886 L27.818,27.886 C28.364,27.886 28.841,27.409 28.841,26.864 C28.841,26.318 28.364,25.841 27.818,25.841 L26.25,25.841 L28.295,25.841 C28.841,25.841 29.318,25.364 29.318,24.818 C29.318,24.273 28.841,23.795 28.295,23.795 L26.25,23.795 L27.818,23.795 C28.364,23.795 28.841,23.318 28.841,22.773 C28.841,22.227 28.364,21.75 27.818,21.75 L26.25,21.75 L27.818,21.75 L27.818,21.41 C27.818,20.455 27.068,19.705 26.114,19.705 L20.045,19.705 L20.045,18.955 C20.045,18.273 19.5,17.659 18.75,17.659 L17.727,17.659 C17.182,17.659 16.568,17.864 16.159,18.273 L13.569,20.113 L10.636,20.113 L10.636,20.114 Z" id="Path"></path>
                <path d="M19.977,19.5 L27.75,19.5 L27.75,16.364 L28.023,16.023 C28.841,15 29.795,13.773 29.795,12.477 L29.795,4.773 C29.795,3.75 28.909,2.863 27.886,2.863 L27.75,2.863 L27.75,3.886 L27.75,2.318 C27.75,1.773 27.273,1.295 26.727,1.295 C26.182,1.295 25.705,1.773 25.705,2.318 L25.705,3.886 L25.705,1.841 C25.705,1.295 25.227,0.818 24.682,0.818 C24.136,0.818 23.659,1.295 23.659,1.841 L23.659,3.886 L23.659,2.318 C23.659,1.773 23.182,1.295 22.636,1.295 C22.091,1.295 21.614,1.773 21.614,2.318 L21.614,3.886 L21.614,2.318 L21.273,2.318 C20.318,2.318 19.568,3.068 19.568,4.023 L19.568,10.091 L18.818,10.091 C18.136,10.091 17.523,10.636 17.523,11.386 L17.523,12.273 C17.523,12.818 17.727,13.432 18.136,13.841 L19.977,16.431 L19.977,19.5 L19.977,19.5 Z" id="Path"></path>
                <path d="M19.432,9.886 L19.432,2.114 L16.364,2.114 L16.023,1.841 C15,1.023 13.773,0.068 12.477,0.068 L4.773,0.068 C3.75,0.068 2.863,0.955 2.863,1.978 L2.863,2.114 L3.886,2.114 L2.318,2.114 C1.773,2.114 1.295,2.591 1.295,3.136 C1.295,3.682 1.773,4.159 2.318,4.159 L3.886,4.159 L1.841,4.159 C1.295,4.159 0.818,4.636 0.818,5.182 C0.818,5.727 1.295,6.205 1.841,6.205 L3.886,6.205 L2.318,6.205 C1.773,6.205 1.295,6.682 1.295,7.227 C1.295,7.773 1.773,8.25 2.318,8.25 L3.886,8.25 L2.318,8.25 L2.318,8.59 C2.318,9.545 3.068,10.295 4.023,10.295 L10.091,10.295 L10.091,11.045 C10.091,11.727 10.636,12.341 11.386,12.341 L12.273,12.341 C12.818,12.341 13.432,12.136 13.841,11.727 L16.431,9.887 L19.431,9.887 L19.432,9.886 Z" id="Path"></path>
            </g>
        </g>
    </g>
</svg>