<svg xmlns="http://www.w3.org/2000/svg" width="55" height="55" viewBox="0 0 55 55">
    <g fill="none" fill-rule="evenodd">
        <path fill="#5080F4" d="M17.947 0h19.106c6.24 0 8.503.65 10.785 1.87a12.721 12.721 0 0 1 5.292 5.292C54.35 9.444 55 11.707 55 17.947v19.106c0 6.24-.65 8.503-1.87 10.785a12.721 12.721 0 0 1-5.292 5.292C45.556 54.35 43.293 55 37.053 55H17.947c-6.24 0-8.503-.65-10.785-1.87a12.721 12.721 0 0 1-5.292-5.292C.65 45.556 0 43.293 0 37.053V17.947c0-6.24.65-8.503 1.87-10.785A12.721 12.721 0 0 1 7.162 1.87C9.444.65 11.707 0 17.947 0z" opacity=".104"/>
        <path fill="#06F" fill-rule="nonzero" d="M43.586 36.475l-1.67-5.008.053-.105c1.095-1.878 1.617-3.964 1.617-6.103 0-3.286-1.252-6.364-3.6-8.66A12.195 12.195 0 0 0 31.326 13c-2.138 0-4.277.574-6.155 1.67-.939.521-1.773 1.2-2.504 1.877h.522c.574 0 1.148.052 1.721.105 3.443-2.504 8.243-2.87 12.05-.418 2.4 1.513 4.07 3.913 4.748 6.678a10.565 10.565 0 0 1-1.409 8.085c-.104.209-.156.47-.104.678l1.304 3.86-3.86-1.304c-.105-.052-.157-.052-.261-.052a.983.983 0 0 0-.417.105c-1.148.73-2.4 1.2-3.704 1.46-.417.626-.94 1.2-1.46 1.722a12.739 12.739 0 0 0 5.581-1.617l.104-.053 5.008 1.67a.724.724 0 0 0 .47 0c.208-.052.365-.209.47-.418.104-.208.26-.417.156-.573zm-10.173-.73c.21-.262.366-.522.522-.835 3.39-5.843 1.409-13.355-4.486-16.746a12.1 12.1 0 0 0-4.434-1.512c-.574-.105-1.148-.105-1.722-.105h-.521c-3.078.157-5.947 1.409-8.138 3.6-2.296 2.243-3.6 5.32-3.6 8.607 0 2.139.574 4.278 1.617 6.103l.053.105-1.67 5.008c-.052.208-.052.417.052.574.105.156.261.313.47.417a.724.724 0 0 0 .47 0l5.007-1.67.105.053c4.903 2.817 10.954 1.878 14.763-1.878.573-.522 1.043-1.096 1.512-1.722zm-10.12 3.703c-2.034 0-4.017-.574-5.738-1.67a.983.983 0 0 0-.417-.104c-.105 0-.157 0-.261.053l-3.86 1.304 1.304-3.86c.052-.21.052-.47-.105-.679a10.715 10.715 0 0 1-1.408-8.085c.626-2.765 2.295-5.165 4.747-6.678 1.148-.73 2.4-1.2 3.704-1.46a9.912 9.912 0 0 1 2.139-.209 10.845 10.845 0 0 1 8.92 4.956c2.608 4.12 2.034 9.39-1.096 12.885-.47.521-.99.99-1.565 1.46l-.626.47a11.082 11.082 0 0 1-5.738 1.617zm0-9.65a1.043 1.043 0 1 0 0-2.087 1.043 1.043 0 0 0 0 2.086zm-4.173 0a1.043 1.043 0 1 0 0-2.087 1.043 1.043 0 0 0 0 2.086zm8.346 0a1.043 1.043 0 1 0 0-2.087 1.043 1.043 0 0 0 0 2.086z"/>
    </g>
</svg>
