<svg xmlns="http://www.w3.org/2000/svg" width="55" height="55" viewBox="0 0 55 55">
    <g fill="none" fill-rule="evenodd">
        <path fill="#5080F4" d="M17.947 0h19.106c6.24 0 8.503.65 10.785 1.87a12.721 12.721 0 0 1 5.292 5.292C54.35 9.444 55 11.707 55 17.947v19.106c0 6.24-.65 8.503-1.87 10.785a12.721 12.721 0 0 1-5.292 5.292C45.556 54.35 43.293 55 37.053 55H17.947c-6.24 0-8.503-.65-10.785-1.87a12.721 12.721 0 0 1-5.292-5.292C.65 45.556 0 43.293 0 37.053V17.947c0-6.24.65-8.503 1.87-10.785A12.721 12.721 0 0 1 7.162 1.87C9.444.65 11.707 0 17.947 0z" opacity=".104"/>
        <g stroke="#06F" stroke-linecap="round" stroke-linejoin="round" stroke-width="1.5">
            <path d="M21.183 35.791l2.226-.695c1.46-.487 4.452.278 6.26.834.835.279 1.74-.208 2.018-1.043.278-.904-.209-1.809-1.113-2.017l-5.704-1.6c-2.505-.696-5.148-.21-7.235 1.39l-5.009 3.827v7.096l6.191-2.018 7.583.835a6.162 6.162 0 0 0 3.965-.974l12.522-8.974c.626-.417.835-1.182.417-1.878-.347-.626-1.182-.904-1.878-.557L31.41 35.443"/>
            <path d="M30.574 32.87l5.356-2.992c1.183-.695 2.644-.765 3.966-.348l1.53.487M27.165 31.896l4.313-2.366c1.322-.765 2.922-.973 4.383-.626l1.391.348"/>
            <g transform="translate(18.957 12)">
                <path d="M.393 2.319h17.3"/>
                <ellipse cx="1.887" cy="1.391" rx="1" ry="1"/>
                <ellipse cx="3.067" cy="1.391" rx="1" ry="1"/>
                <ellipse cx="4.247" cy="1.391" rx="1" ry="1"/>
                <path d="M17.497 13.836H.59c-.236 0-.393-.155-.393-.387V.464C.197.232.354.077.59.077h16.907c.236 0 .393.155.393.387v12.985c0 .232-.157.387-.393.387z"/>
            </g>
            <path d="M30.385 17.887L33.207 20c.04.04.04.157 0 .196l-2.822 2.113M25.496 17.809l-2.902 1.995c-.04.04-.08.157 0 .196l2.743 2.23M29.034 16.987l-2.266 5.87"/>
        </g>
    </g>
</svg>
