<svg xmlns="http://www.w3.org/2000/svg" width="606" height="814" viewBox="0 0 606 814">
    <g fill="none" fill-rule="evenodd">
        <path fill="#F0F0F0" d="M395.994 416.25h-80.22V385.76c0-1.925-.096-3.83-.235-5.72V212.126h200.73v55.655h4v-55.655h81.723c-1.075 112.742-93.07 204.123-205.998 204.123zm-84.218 205.874c-10.26-30.618-39.182-52.75-73.193-52.75-17.21 0-33.12 5.668-45.97 15.232-4.856 2.349-12.02 4.66-17.861 1.807-6.482-3.165-8.642-13.35-9.361-19.932V385.76c0-40.381 32.833-73.232 73.192-73.232 38.48 0 70.094 29.87 72.958 67.648v40.073h.235v201.874zm-73.193 97.718c-4.266 0-8.439-.388-12.506-1.092a161.122 161.122 0 0 0 13.883-52.915l.342 6.008c0-11.84 14.623-16.91 18.97-18.155h52.155c-3.571 37.072-34.873 66.154-72.844 66.154zM78.361 810H3.404a157.607 157.607 0 0 1-45.377-6.645c23.014-13.505 38.511-38.506 38.511-67.076v-82.59H161.73c3.023 33.117 27.021 60.244 58.557 67.945-25.854 52.31-79.76 88.366-141.926 88.366zm-233.18-73.721v-48.724c10.614 46.9 41.584 86.155 83.09 107.95 2.533 1.967 6.844 5.906 6.343 9.66-.289 2.172-3.316 3.451-5.984 4.167-3.2.426-6.456.668-9.77.668-40.626 0-73.679-33.072-73.679-73.721zm0-268.293h60.31v-4.001h-60.31V153.443C-154.819 71.709-88.897 5.09-7.46 4.015V90.53c-65.004 1.073-117.555 54.305-117.555 119.596 0 65.29 52.551 118.523 117.555 119.596v319.964h-147.358V467.985zM-7.46 325.72c-62.798-1.072-113.556-52.51-113.556-115.594 0-63.084 50.758-114.523 113.556-115.595v231.19zm4.832-231.178c61.471 1.486 111.2 51.242 112.685 112.75-59.01-6.714-105.975-53.706-112.685-112.75zm-.834 63.403c.542-6.243 2.003-15.242 5.93-15.242 3.49 0 7.242 3.609 9.778 6.634 20.885 33.749 56.519 57.436 97.833 61.984-.639 62.537-51.142 113.334-113.541 114.4V157.944zm240.034 495.743c-.284 22.905-5.456 44.653-14.514 64.249-30.19-7.002-53.281-32.728-56.317-64.25h70.83zm-75.18-7.08v3.078H-3.461V587.2c0-91.387 73.77-165.86 164.854-166.937v226.346zm-316.197 7.08H-27.99c15.327 2.241 19.434 14.699 20.53 21.09v61.5c0 28.415-16.16 53.108-39.757 65.41-61.895-20.967-106.736-79.277-107.588-148zm466.504-4.002H165.469a73.062 73.062 0 0 1-.078-3.078c0-40.381 32.833-73.233 73.192-73.233 40.359 0 73.193 32.852 73.193 73.233 0 1.033-.035 2.057-.078 3.078zm-.157-337.736c-.531 4.932-1.808 11.1-4.852 14.777-5.65 6.824-12.861 3.878-16.401 1.74-13.697-12.385-31.835-19.94-51.705-19.94-42.563 0-77.191 34.647-77.191 77.234v30.513c-80.7.932-148.124 58.12-164.854 134.125V329.722c64.477-1.064 116.693-53.45 117.533-118.018 3.481.276 6.998.422 10.549.422h186.92v99.824zM-3.462 4h399.456c99.224 0 182.278 70.553 201.705 164.154 1.046 7.955 1.27 19.286-2.599 26.853-4.599 8.992-19.49 12.21-25.05 13.117h-49.782v-52.844h-3.999v52.844H124.62c-3.556 0-7.076-.153-10.56-.44C112.773 143.66 60.965 91.824-3.024 90.536a129.174 129.174 0 0 1-.438-10.565V4zm609.437 204.124C604.896 93.18 511.123 0 395.994 0H-7.461v.026c-83.641 1.075-151.356 69.477-151.356 153.417v310.54H-221v4.002h62.183v268.293c0 42.856 34.846 77.722 77.677 77.722a77.15 77.15 0 0 0 34.262-7.992A161.493 161.493 0 0 0 3.404 814h74.957c64.092 0 119.616-37.385 145.95-91.502a77.225 77.225 0 0 0 14.272 1.345c42.563 0 77.191-34.647 77.191-77.235V420.25h80.22c115.129 0 208.902-93.18 209.981-208.124H606v-4h-.025z"/>
        <path fill="#94E0FF" d="M90 652a8 8 0 1 1 16 0 8 8 0 0 1-16 0"/>
        <path fill="#06F" d="M261 81v43h-41v-2.43C220 99.164 238.356 81 261 81"/>
    </g>
</svg>
