<svg width="48" height="48" viewBox="0 0 48 48" fill="none" xmlns="http://www.w3.org/2000/svg">
<rect width="48" height="48" rx="15" fill="#C2DAFF"/>
<path d="M18.5 35C18.5 35.2761 18.2761 35.5 18 35.5C17.7239 35.5 17.5 35.2761 17.5 35C17.5 34.7239 17.7239 34.5 18 34.5C18.2761 34.5 18.5 34.7239 18.5 35Z" fill="#0066FF" stroke="#0066FF" stroke-width="3"/>
<path d="M31.5 35C31.5 35.2761 31.2761 35.5 31 35.5C30.7239 35.5 30.5 35.2761 30.5 35C30.5 34.7239 30.7239 34.5 31 34.5C31.2761 34.5 31.5 34.7239 31.5 35Z" fill="#0066FF" stroke="#0066FF" stroke-width="3"/>
<path d="M13.2875 17H35.7125L32.4125 28.55C32.2948 28.9692 32.0426 29.3381 31.6948 29.6001C31.3471 29.862 30.9229 30.0025 30.4875 30H18.5125C18.0771 30.0025 17.6529 29.862 17.3052 29.6001C16.9574 29.3381 16.7052 28.9692 16.5875 28.55L12.0625 12.725C12.0027 12.5159 11.8764 12.3321 11.7027 12.2012C11.529 12.0704 11.3174 11.9998 11.1 12H9" stroke="#0066FF" stroke-width="3" stroke-linecap="round" stroke-linejoin="round"/>
</svg>
