<svg width="48" height="48" viewBox="0 0 48 48" fill="none" xmlns="http://www.w3.org/2000/svg">
<rect width="48" height="48" rx="15" fill="#C2DAFF"/>
<path d="M19 28C22.5899 28 25.5 25.0899 25.5 21.5C25.5 17.9101 22.5899 15 19 15C15.4101 15 12.5 17.9101 12.5 21.5C12.5 25.0899 15.4101 28 19 28Z" stroke="#0066FF" stroke-width="3" stroke-miterlimit="10"/>
<path d="M27.4248 15.2375C27.9994 15.0817 28.592 15.0018 29.1873 15C30.9112 15 32.5645 15.6848 33.7835 16.9038C35.0025 18.1228 35.6873 19.7761 35.6873 21.5C35.6873 23.2239 35.0025 24.8772 33.7835 26.0962C32.5645 27.3152 30.9112 28 29.1873 28" stroke="#0066FF" stroke-width="3" stroke-linecap="round" stroke-linejoin="round"/>
<path d="M10 32.6754C11.0149 31.2312 12.3625 30.0524 13.929 29.2386C15.4955 28.4248 17.2348 28 19 28C20.7652 28 22.5045 28.4248 24.071 29.2386C25.6375 30.0524 26.9851 31.2312 28 32.6754" stroke="#0066FF" stroke-width="3" stroke-linecap="round" stroke-linejoin="round"/>
<path d="M29.1875 28C30.9529 27.9989 32.6925 28.4232 34.2592 29.237C35.8258 30.0508 37.1733 31.2301 38.1875 32.675" stroke="#0066FF" stroke-width="3" stroke-linecap="round" stroke-linejoin="round"/>
</svg>
