<svg width="48" height="48" viewBox="0 0 48 48" fill="none" xmlns="http://www.w3.org/2000/svg">
<rect width="48" height="48" rx="15" fill="#C2DAFF"/>
<path d="M24.55 31.8375L30.85 35.8375C31.6625 36.35 32.6625 35.5875 32.425 34.65L30.6 27.475C30.5506 27.2762 30.5585 27.0674 30.6226 26.8728C30.6868 26.6781 30.8046 26.5056 30.9625 26.375L36.6125 21.6625C37.35 21.05 36.975 19.8125 36.0125 19.75L28.6375 19.275C28.4363 19.2633 28.2428 19.1933 28.0808 19.0734C27.9187 18.9535 27.7951 18.789 27.725 18.6L24.975 11.675C24.9022 11.4749 24.7696 11.302 24.5952 11.1799C24.4207 11.0577 24.2129 10.9922 24 10.9922C23.787 10.9922 23.5793 11.0577 23.4048 11.1799C23.2304 11.302 23.0978 11.4749 23.025 11.675L20.275 18.6C20.2049 18.789 20.0813 18.9535 19.9192 19.0734C19.7572 19.1933 19.5637 19.2633 19.3625 19.275L11.9875 19.75C11.025 19.8125 10.65 21.05 11.3875 21.6625L17.0375 26.375C17.1954 26.5056 17.3132 26.6781 17.3774 26.8728C17.4415 27.0674 17.4493 27.2762 17.4 27.475L15.7125 34.125C15.425 35.25 16.625 36.1625 17.5875 35.55L23.45 31.8375C23.6144 31.733 23.8052 31.6775 24 31.6775C24.1948 31.6775 24.3856 31.733 24.55 31.8375V31.8375Z" stroke="#0066FF" stroke-width="3" stroke-linecap="round" stroke-linejoin="round"/>
</svg>
