<svg xmlns="http://www.w3.org/2000/svg" width="1920" height="485" viewBox="0 0 1920 485">
    <g fill="none" fill-rule="evenodd" stroke="#FEFEFE" stroke-width="4" opacity=".204">
        <path d="M0 2c27.441 0 27.441 38 54.882 38S82.323 2 109.764 2s27.441 38 54.882 38c27.442 0 27.442-38 54.884-38s27.442 38 54.884 38c27.443 0 27.443-38 54.886-38 27.442 0 27.442 38 54.885 38 27.442 0 27.442-38 54.885-38 27.442 0 27.442 38 54.884 38s27.442-38 54.884-38c27.441 0 27.441 38 54.884 38s27.443-38 54.886-38c27.442 0 27.442 38 54.884 38 27.443 0 27.443-38 54.886-38 27.442 0 27.442 38 54.884 38 27.443 0 27.443-38 54.885-38 27.443 0 27.443 38 54.886 38s27.443-38 54.885-38c27.443 0 27.443 38 54.886 38s27.443-38 54.887-38c27.443 0 27.443 38 54.886 38s27.443-38 54.886-38 27.443 38 54.887 38 27.444-38 54.887-38c27.442 0 27.442 38 54.883 38 27.444 0 27.444-38 54.887-38 27.444 0 27.444 38 54.887 38s27.443-38 54.886-38 27.443 38 54.888 38c27.443 0 27.443-38 54.887-38s27.444 38 54.887 38c27.444 0 27.444-38 54.887-38 27.445 0 27.445 38 54.889 38 27.445 0 27.445-38 54.891-38 27.446 0 27.446 38 54.891 38M0 57c27.441 0 27.441 38 54.882 38s27.441-38 54.882-38 27.441 38 54.882 38c27.442 0 27.442-38 54.884-38s27.442 38 54.884 38c27.443 0 27.443-38 54.886-38 27.442 0 27.442 38 54.885 38 27.442 0 27.442-38 54.885-38 27.442 0 27.442 38 54.884 38s27.442-38 54.884-38c27.441 0 27.441 38 54.884 38s27.443-38 54.886-38c27.442 0 27.442 38 54.884 38 27.443 0 27.443-38 54.886-38 27.442 0 27.442 38 54.884 38 27.443 0 27.443-38 54.885-38 27.443 0 27.443 38 54.886 38s27.443-38 54.885-38c27.443 0 27.443 38 54.886 38s27.443-38 54.887-38c27.443 0 27.443 38 54.886 38s27.443-38 54.886-38 27.443 38 54.887 38 27.444-38 54.887-38c27.442 0 27.442 38 54.883 38 27.444 0 27.444-38 54.887-38 27.444 0 27.444 38 54.887 38s27.443-38 54.886-38 27.443 38 54.888 38c27.443 0 27.443-38 54.887-38s27.444 38 54.887 38c27.444 0 27.444-38 54.887-38 27.445 0 27.445 38 54.889 38 27.445 0 27.445-38 54.891-38 27.446 0 27.446 38 54.891 38M0 113c27.441 0 27.441 38 54.882 38s27.441-38 54.882-38 27.441 38 54.882 38c27.442 0 27.442-38 54.884-38s27.442 38 54.884 38c27.443 0 27.443-38 54.886-38 27.442 0 27.442 38 54.885 38 27.442 0 27.442-38 54.885-38 27.442 0 27.442 38 54.884 38s27.442-38 54.884-38c27.441 0 27.441 38 54.884 38s27.443-38 54.886-38c27.442 0 27.442 38 54.884 38 27.443 0 27.443-38 54.886-38 27.442 0 27.442 38 54.884 38 27.443 0 27.443-38 54.885-38 27.443 0 27.443 38 54.886 38s27.443-38 54.885-38c27.443 0 27.443 38 54.886 38s27.443-38 54.887-38c27.443 0 27.443 38 54.886 38s27.443-38 54.886-38 27.443 38 54.887 38 27.444-38 54.887-38c27.442 0 27.442 38 54.883 38 27.444 0 27.444-38 54.887-38 27.444 0 27.444 38 54.887 38s27.443-38 54.886-38 27.443 38 54.888 38c27.443 0 27.443-38 54.887-38s27.444 38 54.887 38c27.444 0 27.444-38 54.887-38 27.445 0 27.445 38 54.889 38 27.445 0 27.445-38 54.891-38 27.446 0 27.446 38 54.891 38M0 168c27.441 0 27.441 38 54.882 38s27.441-38 54.882-38 27.441 38 54.882 38c27.442 0 27.442-38 54.884-38s27.442 38 54.884 38c27.443 0 27.443-38 54.886-38 27.442 0 27.442 38 54.885 38 27.442 0 27.442-38 54.885-38 27.442 0 27.442 38 54.884 38s27.442-38 54.884-38c27.441 0 27.441 38 54.884 38s27.443-38 54.886-38c27.442 0 27.442 38 54.884 38 27.443 0 27.443-38 54.886-38 27.442 0 27.442 38 54.884 38 27.443 0 27.443-38 54.885-38 27.443 0 27.443 38 54.886 38s27.443-38 54.885-38c27.443 0 27.443 38 54.886 38s27.443-38 54.887-38c27.443 0 27.443 38 54.886 38s27.443-38 54.886-38 27.443 38 54.887 38 27.444-38 54.887-38c27.442 0 27.442 38 54.883 38 27.444 0 27.444-38 54.887-38 27.444 0 27.444 38 54.887 38s27.443-38 54.886-38 27.443 38 54.888 38c27.443 0 27.443-38 54.887-38s27.444 38 54.887 38c27.444 0 27.444-38 54.887-38 27.445 0 27.445 38 54.889 38 27.445 0 27.445-38 54.891-38 27.446 0 27.446 38 54.891 38M0 223c27.441 0 27.441 38 54.882 38s27.441-38 54.882-38 27.441 38 54.882 38c27.442 0 27.442-38 54.884-38s27.442 38 54.884 38c27.443 0 27.443-38 54.886-38 27.442 0 27.442 38 54.885 38 27.442 0 27.442-38 54.885-38 27.442 0 27.442 38 54.884 38s27.442-38 54.884-38c27.441 0 27.441 38 54.884 38s27.443-38 54.886-38c27.442 0 27.442 38 54.884 38 27.443 0 27.443-38 54.886-38 27.442 0 27.442 38 54.884 38 27.443 0 27.443-38 54.885-38 27.443 0 27.443 38 54.886 38s27.443-38 54.885-38c27.443 0 27.443 38 54.886 38s27.443-38 54.887-38c27.443 0 27.443 38 54.886 38s27.443-38 54.886-38 27.443 38 54.887 38 27.444-38 54.887-38c27.442 0 27.442 38 54.883 38 27.444 0 27.444-38 54.887-38 27.444 0 27.444 38 54.887 38s27.443-38 54.886-38 27.443 38 54.888 38c27.443 0 27.443-38 54.887-38s27.444 38 54.887 38c27.444 0 27.444-38 54.887-38 27.445 0 27.445 38 54.889 38 27.445 0 27.445-38 54.891-38 27.446 0 27.446 38 54.891 38M0 279c27.441 0 27.441 38 54.882 38s27.441-38 54.882-38 27.441 38 54.882 38c27.442 0 27.442-38 54.884-38s27.442 38 54.884 38c27.443 0 27.443-38 54.886-38 27.442 0 27.442 38 54.885 38 27.442 0 27.442-38 54.885-38 27.442 0 27.442 38 54.884 38s27.442-38 54.884-38c27.441 0 27.441 38 54.884 38s27.443-38 54.886-38c27.442 0 27.442 38 54.884 38 27.443 0 27.443-38 54.886-38 27.442 0 27.442 38 54.884 38 27.443 0 27.443-38 54.885-38 27.443 0 27.443 38 54.886 38s27.443-38 54.885-38c27.443 0 27.443 38 54.886 38s27.443-38 54.887-38c27.443 0 27.443 38 54.886 38s27.443-38 54.886-38 27.443 38 54.887 38 27.444-38 54.887-38c27.442 0 27.442 38 54.883 38 27.444 0 27.444-38 54.887-38 27.444 0 27.444 38 54.887 38s27.443-38 54.886-38 27.443 38 54.888 38c27.443 0 27.443-38 54.887-38s27.444 38 54.887 38c27.444 0 27.444-38 54.887-38 27.445 0 27.445 38 54.889 38 27.445 0 27.445-38 54.891-38 27.446 0 27.446 38 54.891 38M0 334c27.441 0 27.441 38 54.882 38s27.441-38 54.882-38 27.441 38 54.882 38c27.442 0 27.442-38 54.884-38s27.442 38 54.884 38c27.443 0 27.443-38 54.886-38 27.442 0 27.442 38 54.885 38 27.442 0 27.442-38 54.885-38 27.442 0 27.442 38 54.884 38s27.442-38 54.884-38c27.441 0 27.441 38 54.884 38s27.443-38 54.886-38c27.442 0 27.442 38 54.884 38 27.443 0 27.443-38 54.886-38 27.442 0 27.442 38 54.884 38 27.443 0 27.443-38 54.885-38 27.443 0 27.443 38 54.886 38s27.443-38 54.885-38c27.443 0 27.443 38 54.886 38s27.443-38 54.887-38c27.443 0 27.443 38 54.886 38s27.443-38 54.886-38 27.443 38 54.887 38 27.444-38 54.887-38c27.442 0 27.442 38 54.883 38 27.444 0 27.444-38 54.887-38 27.444 0 27.444 38 54.887 38s27.443-38 54.886-38 27.443 38 54.888 38c27.443 0 27.443-38 54.887-38s27.444 38 54.887 38c27.444 0 27.444-38 54.887-38 27.445 0 27.445 38 54.889 38 27.445 0 27.445-38 54.891-38 27.446 0 27.446 38 54.891 38M0 390c27.441 0 27.441 38 54.882 38s27.441-38 54.882-38 27.441 38 54.882 38c27.442 0 27.442-38 54.884-38s27.442 38 54.884 38c27.443 0 27.443-38 54.886-38 27.442 0 27.442 38 54.885 38 27.442 0 27.442-38 54.885-38 27.442 0 27.442 38 54.884 38s27.442-38 54.884-38c27.441 0 27.441 38 54.884 38s27.443-38 54.886-38c27.442 0 27.442 38 54.884 38 27.443 0 27.443-38 54.886-38 27.442 0 27.442 38 54.884 38 27.443 0 27.443-38 54.885-38 27.443 0 27.443 38 54.886 38s27.443-38 54.885-38c27.443 0 27.443 38 54.886 38s27.443-38 54.887-38c27.443 0 27.443 38 54.886 38s27.443-38 54.886-38 27.443 38 54.887 38 27.444-38 54.887-38c27.442 0 27.442 38 54.883 38 27.444 0 27.444-38 54.887-38 27.444 0 27.444 38 54.887 38s27.443-38 54.886-38 27.443 38 54.888 38c27.443 0 27.443-38 54.887-38s27.444 38 54.887 38c27.444 0 27.444-38 54.887-38 27.445 0 27.445 38 54.889 38 27.445 0 27.445-38 54.891-38 27.446 0 27.446 38 54.891 38M0 445c27.441 0 27.441 38 54.882 38s27.441-38 54.882-38 27.441 38 54.882 38c27.442 0 27.442-38 54.884-38s27.442 38 54.884 38c27.443 0 27.443-38 54.886-38 27.442 0 27.442 38 54.885 38 27.442 0 27.442-38 54.885-38 27.442 0 27.442 38 54.884 38s27.442-38 54.884-38c27.441 0 27.441 38 54.884 38s27.443-38 54.886-38c27.442 0 27.442 38 54.884 38 27.443 0 27.443-38 54.886-38 27.442 0 27.442 38 54.884 38 27.443 0 27.443-38 54.885-38 27.443 0 27.443 38 54.886 38s27.443-38 54.885-38c27.443 0 27.443 38 54.886 38s27.443-38 54.887-38c27.443 0 27.443 38 54.886 38s27.443-38 54.886-38 27.443 38 54.887 38 27.444-38 54.887-38c27.442 0 27.442 38 54.883 38 27.444 0 27.444-38 54.887-38 27.444 0 27.444 38 54.887 38s27.443-38 54.886-38 27.443 38 54.888 38c27.443 0 27.443-38 54.887-38s27.444 38 54.887 38c27.444 0 27.444-38 54.887-38 27.445 0 27.445 38 54.889 38 27.445 0 27.445-38 54.891-38 27.446 0 27.446 38 54.891 38"/>
    </g>
</svg>
