<svg xmlns="http://www.w3.org/2000/svg" width="1000" height="445" viewBox="0 0 1000 445">
    <g fill="none" fill-rule="evenodd" stroke="#FEFEFE" stroke-width="5.714" opacity=".204">
        <path d="M0 3.429c25.019 0 25.019 35.714 50.038 35.714 25.018 0 25.018-35.714 50.037-35.714s25.019 35.714 50.037 35.714c25.02 0 25.02-35.714 50.04-35.714s25.02 35.714 50.039 35.714c25.02 0 25.02-35.714 50.04-35.714s25.02 35.714 50.041 35.714c25.02 0 25.02-35.714 50.04-35.714s25.02 35.714 50.04 35.714 25.02-35.714 50.038-35.714c25.02 0 25.02 35.714 50.04 35.714S575.45 3.429 600.47 3.429c25.02 0 25.02 35.714 50.04 35.714s25.02-35.714 50.04-35.714 25.02 35.714 50.04 35.714 25.02-35.714 50.04-35.714 25.02 35.714 50.04 35.714c25.022 0 25.022-35.714 50.041-35.714 25.02 0 25.02 35.714 50.04 35.714 25.022 0 25.022-35.714 50.043-35.714 25.02 0 25.02 35.714 50.041 35.714 25.02 0 25.02-35.714 50.042-35.714 25.02 0 25.02 35.714 50.042 35.714 25.02 0 25.02-35.714 50.041-35.714 25.02 0 25.02 35.714 50.039 35.714 25.02 0 25.02-35.714 50.041-35.714 25.022 0 25.022 35.714 50.043 35.714 25.02 0 25.02-35.714 50.04-35.714 25.022 0 25.022 35.714 50.043 35.714s25.021-35.714 50.043-35.714c25.02 0 25.02 35.714 50.042 35.714 25.021 0 25.021-35.714 50.042-35.714 25.022 0 25.022 35.714 50.043 35.714 25.023 0 25.023-35.714 50.046-35.714s25.023 35.714 50.046 35.714M0 53.429c25.019 0 25.019 35.714 50.038 35.714 25.018 0 25.018-35.714 50.037-35.714s25.019 35.714 50.037 35.714c25.02 0 25.02-35.714 50.04-35.714s25.02 35.714 50.039 35.714c25.02 0 25.02-35.714 50.04-35.714s25.02 35.714 50.041 35.714c25.02 0 25.02-35.714 50.04-35.714s25.02 35.714 50.04 35.714 25.02-35.714 50.038-35.714c25.02 0 25.02 35.714 50.04 35.714s25.02-35.714 50.041-35.714c25.02 0 25.02 35.714 50.04 35.714s25.02-35.714 50.04-35.714 25.02 35.714 50.04 35.714 25.02-35.714 50.04-35.714 25.02 35.714 50.04 35.714c25.022 0 25.022-35.714 50.041-35.714 25.02 0 25.02 35.714 50.04 35.714 25.022 0 25.022-35.714 50.043-35.714 25.02 0 25.02 35.714 50.041 35.714 25.02 0 25.02-35.714 50.042-35.714 25.02 0 25.02 35.714 50.042 35.714 25.02 0 25.02-35.714 50.041-35.714 25.02 0 25.02 35.714 50.039 35.714 25.02 0 25.02-35.714 50.041-35.714 25.022 0 25.022 35.714 50.043 35.714 25.02 0 25.02-35.714 50.04-35.714 25.022 0 25.022 35.714 50.043 35.714s25.021-35.714 50.043-35.714c25.02 0 25.02 35.714 50.042 35.714 25.021 0 25.021-35.714 50.042-35.714 25.022 0 25.022 35.714 50.043 35.714 25.023 0 25.023-35.714 50.046-35.714s25.023 35.714 50.046 35.714M0 103.429c25.019 0 25.019 35.714 50.038 35.714 25.018 0 25.018-35.714 50.037-35.714s25.019 35.714 50.037 35.714c25.02 0 25.02-35.714 50.04-35.714s25.02 35.714 50.039 35.714c25.02 0 25.02-35.714 50.04-35.714s25.02 35.714 50.041 35.714c25.02 0 25.02-35.714 50.04-35.714s25.02 35.714 50.04 35.714 25.02-35.714 50.038-35.714c25.02 0 25.02 35.714 50.04 35.714s25.02-35.714 50.041-35.714c25.02 0 25.02 35.714 50.04 35.714s25.02-35.714 50.04-35.714 25.02 35.714 50.04 35.714 25.02-35.714 50.04-35.714 25.02 35.714 50.04 35.714c25.022 0 25.022-35.714 50.041-35.714 25.02 0 25.02 35.714 50.04 35.714 25.022 0 25.022-35.714 50.043-35.714 25.02 0 25.02 35.714 50.041 35.714 25.02 0 25.02-35.714 50.042-35.714 25.02 0 25.02 35.714 50.042 35.714 25.02 0 25.02-35.714 50.041-35.714 25.02 0 25.02 35.714 50.039 35.714 25.02 0 25.02-35.714 50.041-35.714 25.022 0 25.022 35.714 50.043 35.714 25.02 0 25.02-35.714 50.04-35.714 25.022 0 25.022 35.714 50.043 35.714s25.021-35.714 50.043-35.714c25.02 0 25.02 35.714 50.042 35.714 25.021 0 25.021-35.714 50.042-35.714 25.022 0 25.022 35.714 50.043 35.714 25.023 0 25.023-35.714 50.046-35.714s25.023 35.714 50.046 35.714M0 154.857c25.019 0 25.019 35.714 50.038 35.714 25.018 0 25.018-35.714 50.037-35.714s25.019 35.714 50.037 35.714c25.02 0 25.02-35.714 50.04-35.714s25.02 35.714 50.039 35.714c25.02 0 25.02-35.714 50.04-35.714s25.02 35.714 50.041 35.714c25.02 0 25.02-35.714 50.04-35.714s25.02 35.714 50.04 35.714 25.02-35.714 50.038-35.714c25.02 0 25.02 35.714 50.04 35.714s25.02-35.714 50.041-35.714c25.02 0 25.02 35.714 50.04 35.714s25.02-35.714 50.04-35.714 25.02 35.714 50.04 35.714 25.02-35.714 50.04-35.714 25.02 35.714 50.04 35.714c25.022 0 25.022-35.714 50.041-35.714 25.02 0 25.02 35.714 50.04 35.714 25.022 0 25.022-35.714 50.043-35.714 25.02 0 25.02 35.714 50.041 35.714 25.02 0 25.02-35.714 50.042-35.714 25.02 0 25.02 35.714 50.042 35.714 25.02 0 25.02-35.714 50.041-35.714 25.02 0 25.02 35.714 50.039 35.714 25.02 0 25.02-35.714 50.041-35.714 25.022 0 25.022 35.714 50.043 35.714 25.02 0 25.02-35.714 50.04-35.714 25.022 0 25.022 35.714 50.043 35.714s25.021-35.714 50.043-35.714c25.02 0 25.02 35.714 50.042 35.714 25.021 0 25.021-35.714 50.042-35.714 25.022 0 25.022 35.714 50.043 35.714 25.023 0 25.023-35.714 50.046-35.714s25.023 35.714 50.046 35.714M0 204.857c25.019 0 25.019 35.714 50.038 35.714 25.018 0 25.018-35.714 50.037-35.714s25.019 35.714 50.037 35.714c25.02 0 25.02-35.714 50.04-35.714s25.02 35.714 50.039 35.714c25.02 0 25.02-35.714 50.04-35.714s25.02 35.714 50.041 35.714c25.02 0 25.02-35.714 50.04-35.714s25.02 35.714 50.04 35.714 25.02-35.714 50.038-35.714c25.02 0 25.02 35.714 50.04 35.714s25.02-35.714 50.041-35.714c25.02 0 25.02 35.714 50.04 35.714s25.02-35.714 50.04-35.714 25.02 35.714 50.04 35.714 25.02-35.714 50.04-35.714 25.02 35.714 50.04 35.714c25.022 0 25.022-35.714 50.041-35.714 25.02 0 25.02 35.714 50.04 35.714 25.022 0 25.022-35.714 50.043-35.714 25.02 0 25.02 35.714 50.041 35.714 25.02 0 25.02-35.714 50.042-35.714 25.02 0 25.02 35.714 50.042 35.714 25.02 0 25.02-35.714 50.041-35.714 25.02 0 25.02 35.714 50.039 35.714 25.02 0 25.02-35.714 50.041-35.714 25.022 0 25.022 35.714 50.043 35.714 25.02 0 25.02-35.714 50.04-35.714 25.022 0 25.022 35.714 50.043 35.714s25.021-35.714 50.043-35.714c25.02 0 25.02 35.714 50.042 35.714 25.021 0 25.021-35.714 50.042-35.714 25.022 0 25.022 35.714 50.043 35.714 25.023 0 25.023-35.714 50.046-35.714s25.023 35.714 50.046 35.714M0 254.857c25.019 0 25.019 35.714 50.038 35.714 25.018 0 25.018-35.714 50.037-35.714s25.019 35.714 50.037 35.714c25.02 0 25.02-35.714 50.04-35.714s25.02 35.714 50.039 35.714c25.02 0 25.02-35.714 50.04-35.714s25.02 35.714 50.041 35.714c25.02 0 25.02-35.714 50.04-35.714s25.02 35.714 50.04 35.714 25.02-35.714 50.038-35.714c25.02 0 25.02 35.714 50.04 35.714s25.02-35.714 50.041-35.714c25.02 0 25.02 35.714 50.04 35.714s25.02-35.714 50.04-35.714 25.02 35.714 50.04 35.714 25.02-35.714 50.04-35.714 25.02 35.714 50.04 35.714c25.022 0 25.022-35.714 50.041-35.714 25.02 0 25.02 35.714 50.04 35.714 25.022 0 25.022-35.714 50.043-35.714 25.02 0 25.02 35.714 50.041 35.714 25.02 0 25.02-35.714 50.042-35.714 25.02 0 25.02 35.714 50.042 35.714 25.02 0 25.02-35.714 50.041-35.714 25.02 0 25.02 35.714 50.039 35.714 25.02 0 25.02-35.714 50.041-35.714 25.022 0 25.022 35.714 50.043 35.714 25.02 0 25.02-35.714 50.04-35.714 25.022 0 25.022 35.714 50.043 35.714s25.021-35.714 50.043-35.714c25.02 0 25.02 35.714 50.042 35.714 25.021 0 25.021-35.714 50.042-35.714 25.022 0 25.022 35.714 50.043 35.714 25.023 0 25.023-35.714 50.046-35.714s25.023 35.714 50.046 35.714M0 306.286c25.019 0 25.019 35.714 50.038 35.714 25.018 0 25.018-35.714 50.037-35.714S125.094 342 150.112 342c25.02 0 25.02-35.714 50.04-35.714S225.171 342 250.19 342c25.02 0 25.02-35.714 50.04-35.714S325.252 342 350.273 342c25.02 0 25.02-35.714 50.04-35.714S425.333 342 450.353 342s25.02-35.714 50.038-35.714c25.02 0 25.02 35.714 50.04 35.714s25.02-35.714 50.041-35.714c25.02 0 25.02 35.714 50.04 35.714s25.02-35.714 50.04-35.714S725.571 342 750.591 342s25.02-35.714 50.04-35.714S825.65 342 850.67 342c25.022 0 25.022-35.714 50.041-35.714 25.02 0 25.02 35.714 50.04 35.714 25.022 0 25.022-35.714 50.043-35.714 25.02 0 25.02 35.714 50.041 35.714 25.02 0 25.02-35.714 50.042-35.714 25.02 0 25.02 35.714 50.042 35.714 25.02 0 25.02-35.714 50.041-35.714 25.02 0 25.02 35.714 50.039 35.714 25.02 0 25.02-35.714 50.041-35.714 25.022 0 25.022 35.714 50.043 35.714 25.02 0 25.02-35.714 50.04-35.714 25.022 0 25.022 35.714 50.043 35.714s25.021-35.714 50.043-35.714c25.02 0 25.02 35.714 50.042 35.714 25.021 0 25.021-35.714 50.042-35.714 25.022 0 25.022 35.714 50.043 35.714 25.023 0 25.023-35.714 50.046-35.714S1726.406 342 1751.43 342M0 356.286c25.019 0 25.019 35.714 50.038 35.714 25.018 0 25.018-35.714 50.037-35.714S125.094 392 150.112 392c25.02 0 25.02-35.714 50.04-35.714S225.171 392 250.19 392c25.02 0 25.02-35.714 50.04-35.714S325.252 392 350.273 392c25.02 0 25.02-35.714 50.04-35.714S425.333 392 450.353 392s25.02-35.714 50.038-35.714c25.02 0 25.02 35.714 50.04 35.714s25.02-35.714 50.041-35.714c25.02 0 25.02 35.714 50.04 35.714s25.02-35.714 50.04-35.714S725.571 392 750.591 392s25.02-35.714 50.04-35.714S825.65 392 850.67 392c25.022 0 25.022-35.714 50.041-35.714 25.02 0 25.02 35.714 50.04 35.714 25.022 0 25.022-35.714 50.043-35.714 25.02 0 25.02 35.714 50.041 35.714 25.02 0 25.02-35.714 50.042-35.714 25.02 0 25.02 35.714 50.042 35.714 25.02 0 25.02-35.714 50.041-35.714 25.02 0 25.02 35.714 50.039 35.714 25.02 0 25.02-35.714 50.041-35.714 25.022 0 25.022 35.714 50.043 35.714 25.02 0 25.02-35.714 50.04-35.714 25.022 0 25.022 35.714 50.043 35.714s25.021-35.714 50.043-35.714c25.02 0 25.02 35.714 50.042 35.714 25.021 0 25.021-35.714 50.042-35.714 25.022 0 25.022 35.714 50.043 35.714 25.023 0 25.023-35.714 50.046-35.714S1726.406 392 1751.43 392M0 406.286c25.019 0 25.019 35.714 50.038 35.714 25.018 0 25.018-35.714 50.037-35.714S125.094 442 150.112 442c25.02 0 25.02-35.714 50.04-35.714S225.171 442 250.19 442c25.02 0 25.02-35.714 50.04-35.714S325.252 442 350.273 442c25.02 0 25.02-35.714 50.04-35.714S425.333 442 450.353 442s25.02-35.714 50.038-35.714c25.02 0 25.02 35.714 50.04 35.714s25.02-35.714 50.041-35.714c25.02 0 25.02 35.714 50.04 35.714s25.02-35.714 50.04-35.714S725.571 442 750.591 442s25.02-35.714 50.04-35.714S825.65 442 850.67 442c25.022 0 25.022-35.714 50.041-35.714 25.02 0 25.02 35.714 50.04 35.714 25.022 0 25.022-35.714 50.043-35.714 25.02 0 25.02 35.714 50.041 35.714 25.02 0 25.02-35.714 50.042-35.714 25.02 0 25.02 35.714 50.042 35.714 25.02 0 25.02-35.714 50.041-35.714 25.02 0 25.02 35.714 50.039 35.714 25.02 0 25.02-35.714 50.041-35.714 25.022 0 25.022 35.714 50.043 35.714 25.02 0 25.02-35.714 50.04-35.714 25.022 0 25.022 35.714 50.043 35.714s25.021-35.714 50.043-35.714c25.02 0 25.02 35.714 50.042 35.714 25.021 0 25.021-35.714 50.042-35.714 25.022 0 25.022 35.714 50.043 35.714 25.023 0 25.023-35.714 50.046-35.714S1726.406 442 1751.43 442"/>
    </g>
</svg>
