<svg width="27" height="1114" viewBox="0 0 27 1114" fill="none" xmlns="http://www.w3.org/2000/svg">
<path d="M26.7071 1106.71C27.0976 1106.32 27.0976 1105.68 26.7071 1105.29L20.3431 1098.93C19.9526 1098.54 19.3195 1098.54 18.9289 1098.93C18.5384 1099.32 18.5384 1099.95 18.9289 1100.34L24.5858 1106L18.9289 1111.66C18.5384 1112.05 18.5384 1112.68 18.9289 1113.07C19.3195 1113.46 19.9526 1113.46 20.3431 1113.07L26.7071 1106.71ZM5 6V1095H7V6H5ZM17 1107H26V1105H17V1107ZM5 1095C5 1101.63 10.3726 1107 17 1107V1105C11.4772 1105 7 1100.52 7 1095H5Z" fill="#00FFD1"/>
<path fill-rule="evenodd" clip-rule="evenodd" d="M6 12C9.31371 12 12 9.31371 12 6C12 2.68629 9.31371 0 6 0C2.68629 0 0 2.68629 0 6C0 9.31371 2.68629 12 6 12Z" fill="#00FFD1"/>
<path fill-rule="evenodd" clip-rule="evenodd" d="M6 85C9.31371 85 12 82.3137 12 79C12 75.6863 9.31371 73 6 73C2.68629 73 0 75.6863 0 79C0 82.3137 2.68629 85 6 85Z" fill="#00FFD1"/>
<path fill-rule="evenodd" clip-rule="evenodd" d="M6 333.417C9.31371 333.417 12 330.731 12 327.417C12 324.104 9.31371 321.417 6 321.417C2.68629 321.417 0 324.104 0 327.417C0 330.731 2.68629 333.417 6 333.417Z" fill="#00FFD1"/>
<path fill-rule="evenodd" clip-rule="evenodd" d="M6 580.417C9.31371 580.417 12 577.731 12 574.417C12 571.104 9.31371 568.417 6 568.417C2.68629 568.417 0 571.104 0 574.417C0 577.731 2.68629 580.417 6 580.417Z" fill="#00FFD1"/>
<path fill-rule="evenodd" clip-rule="evenodd" d="M6 862C9.31371 862 12 859.314 12 856C12 852.686 9.31371 850 6 850C2.68629 850 0 852.686 0 856C0 859.314 2.68629 862 6 862Z" fill="#00FFD1"/>
</svg>
