<svg xmlns="http://www.w3.org/2000/svg" width="55" height="55" viewBox="0 0 55 55">
    <g fill="none" fill-rule="evenodd">
        <path fill="#5080F4" d="M17.947 0h19.106c6.24 0 8.503.65 10.785 1.87a12.721 12.721 0 0 1 5.292 5.292C54.35 9.444 55 11.707 55 17.947v19.106c0 6.24-.65 8.503-1.87 10.785a12.721 12.721 0 0 1-5.292 5.292C45.556 54.35 43.293 55 37.053 55H17.947c-6.24 0-8.503-.65-10.785-1.87a12.721 12.721 0 0 1-5.292-5.292C.65 45.556 0 43.293 0 37.053V17.947c0-6.24.65-8.503 1.87-10.785A12.721 12.721 0 0 1 7.162 1.87C9.444.65 11.707 0 17.947 0z" opacity=".204"/>
        <path fill="#06F" d="M20.461 13.23a.738.738 0 0 1-.976-.36.737.737 0 0 1 .36-.977c2.223-1.022 4.804-1.54 7.67-1.54 2.847 0 5.426.518 7.67 1.539a.737.737 0 1 1-.612 1.34c-2.05-.934-4.423-1.407-7.057-1.407-2.652 0-5.026.473-7.055 1.405zm-2.728 5.74a.738.738 0 0 1-1.041.006.739.739 0 0 1-.006-1.043c2.995-3.032 6.74-4.635 10.827-4.635 4.103 0 7.85 1.603 10.835 4.636a.735.735 0 1 1-1.05 1.034c-2.7-2.746-6.085-4.198-9.785-4.198-3.685 0-7.067 1.452-9.78 4.2zm9.78-2.727c6.901 0 12.515 5.614 12.515 12.515a.736.736 0 0 1-1.472 0c0-6.09-4.953-11.043-11.043-11.043-.928 0-1.85.115-2.737.34a.737.737 0 0 1-.362-1.427 12.573 12.573 0 0 1 3.099-.385zM16.473 28.77a.735.735 0 0 1-.735.725h-.012a.736.736 0 0 1-.726-.747c.053-3.356 1.344-6.478 3.637-8.796a12.528 12.528 0 0 1 2.592-2.018.737.737 0 0 1 .743 1.271c-.829.485-1.6 1.082-2.288 1.78-2.025 2.047-3.164 4.81-3.211 7.785zm2.943.17c.006 1.863-.527 3.937-1.545 6.03l-.434.775a.735.735 0 0 1-1.003.28.736.736 0 0 1-.28-1.003l.413-.736c.886-1.825 1.381-3.724 1.377-5.308 0-2.682.989-5.14 2.788-6.956a9.464 9.464 0 0 1 6.78-2.835 9.577 9.577 0 0 1 7.216 3.288.738.738 0 0 1-1.11.97 8.097 8.097 0 0 0-6.106-2.785c-2.171 0-4.206.85-5.734 2.397-1.524 1.54-2.362 3.628-2.362 5.882zm18.206 5.589l.83 2.716a.737.737 0 0 1-1.41.429L36.2 34.9c-.512-2.328-.554-4.453-.58-5.722l-.009-.4c0-.943-.155-1.85-.46-2.714a.736.736 0 1 1 1.386-.492 9.533 9.533 0 0 1 .546 3.186l.008.39c.025 1.217.065 3.25.531 5.38zm-2.002 3.925l.685 2.193a.736.736 0 0 1-1.408.437l-.68-2.183c-1.225-3.827-1.498-7.986-1.55-10.123 0-2.86-2.313-5.172-5.154-5.172-2.84 0-5.152 2.358-5.152 5.257.004 1.216-.236 5.49-3.513 10.216a.736.736 0 0 1-1.21-.84c3.11-4.486 3.253-8.578 3.25-9.352 0-3.736 2.972-6.755 6.625-6.755a6.634 6.634 0 0 1 6.626 6.626c.04 1.64.266 5.903 1.48 9.696zm-4.426-9.696c.02.859.038 8.766-6.03 16.646a.732.732 0 0 1-1.032.134.736.736 0 0 1-.134-1.032c5.748-7.468 5.744-14.907 5.723-15.731a2.217 2.217 0 0 0-2.21-2.225 2.211 2.211 0 0 0-2.208 2.208c.009.237.188 6.535-4.808 13.037a.736.736 0 0 1-1.168-.897c4.677-6.085 4.514-11.869 4.505-12.112 0-2.057 1.652-3.709 3.68-3.709a3.686 3.686 0 0 1 3.682 3.681zm-4.04 3.67a.74.74 0 0 1-.611-.846c.273-1.703.232-2.78.232-2.791a.738.738 0 0 1 .704-.768c.43-.024.748.298.767.703.003.048.051 1.224-.249 3.092a.736.736 0 0 1-.844.61zm-.352 1.535c.39.115.612.526.497.916-.976 3.291-2.594 6.367-4.81 9.14a.732.732 0 0 1-.576.278.736.736 0 0 1-.575-1.195c2.096-2.628 3.628-5.534 4.548-8.643a.736.736 0 0 1 .916-.496zm6.247 6.002l.888 2.82a.736.736 0 0 1-1.405.441l-.882-2.806c-.04-.118-.08-.237-.118-.355-.674 1.433-1.708 3.493-2.846 5.285a.733.733 0 0 1-1.015.226.736.736 0 0 1-.227-1.016c1.88-2.96 3.52-6.816 3.536-6.854a.722.722 0 0 1 .72-.448c.311.018.576.229.665.528 0 .004.33 1.122.684 2.179z"/>
    </g>
</svg>
