<svg width="167" height="50" viewBox="0 0 167 50" fill="none" xmlns="http://www.w3.org/2000/svg">
    <path fill-rule="evenodd" clip-rule="evenodd" d="M45.736 10.8569C45.736 10.3665 45.8429 9.89628 46.0575 9.44667C46.2713 8.99687 46.5756 8.60542 46.9695 8.27125C47.3634 7.93744 47.8401 7.66824 48.3999 7.46383C48.9596 7.25925 49.5919 7.15723 50.2968 7.15723C50.9463 7.15723 51.5372 7.25925 52.0694 7.46383C52.6011 7.66824 53.0609 7.95444 53.4478 8.32244C53.8346 8.69026 54.132 9.12306 54.3395 9.62029C54.5466 10.1179 54.6502 10.6595 54.6502 11.2453H52.2664C52.2664 10.6731 52.0934 10.2233 51.7479 9.89628C51.4025 9.56927 50.9187 9.40586 50.2968 9.40586C49.6748 9.40586 49.1909 9.55567 48.8456 9.8553C48.5 10.1553 48.3272 10.4823 48.3272 10.8365C48.3272 11.2183 48.4931 11.5109 48.8249 11.7155C49.1566 11.9197 49.5712 12.1039 50.0688 12.2673C50.5662 12.4309 51.1086 12.6015 51.6962 12.7784C52.2833 12.9557 52.826 13.1943 53.3236 13.4938C53.821 13.7938 54.2356 14.1857 54.5673 14.6692C54.8991 15.1532 55.065 15.7832 55.065 16.5598C55.065 17.0234 54.951 17.4732 54.7229 17.9091C54.4949 18.3454 54.1734 18.7369 53.7589 19.0845C53.3441 19.4319 52.8431 19.7113 52.2559 19.9225C51.6684 20.1339 51.0153 20.2393 50.2968 20.2393C49.5641 20.2393 48.911 20.1371 48.3377 19.9327C47.764 19.7283 47.2768 19.4389 46.8762 19.0641C46.475 18.6893 46.1677 18.2463 45.9536 17.7353C45.7392 17.2242 45.6323 16.6622 45.6323 16.049H48.12C48.12 16.6212 48.3134 17.088 48.7006 17.4492C49.0872 17.8104 49.6195 17.9907 50.2968 17.9907C51.0292 17.9907 51.5749 17.8375 51.9345 17.5309C52.2938 17.2242 52.4735 16.8664 52.4735 16.4578C52.4735 16.0626 52.3076 15.756 51.9759 15.5378C51.6443 15.3202 51.2298 15.126 50.7321 14.9552C50.2345 14.785 49.6921 14.6182 49.1048 14.4546C48.5172 14.2912 47.9748 14.0662 47.4774 13.78C46.9798 13.4938 46.5652 13.1227 46.2336 12.666C45.9017 12.2097 45.736 11.6065 45.736 10.8569Z" fill="white"/>
    <path fill-rule="evenodd" clip-rule="evenodd" d="M57.6523 8.48633H59.7253V10.735H61.7986V12.8812H59.7253V16.7649C59.7253 17.1737 59.8462 17.4977 60.0882 17.7357C60.3298 17.9745 60.6584 18.0935 61.0729 18.0935C61.1834 18.0935 61.2731 18.0903 61.3424 18.0833C61.4114 18.0765 61.4737 18.0663 61.5289 18.0525C61.584 18.0391 61.6394 18.0187 61.695 17.9913V20.0354C61.598 20.0764 61.4875 20.1104 61.3631 20.1376C61.1279 20.2058 60.8585 20.2398 60.5546 20.2398C60.0844 20.2398 59.6529 20.1612 59.259 20.0048C58.8651 19.8483 58.5262 19.6198 58.2431 19.32C57.9596 19.0205 57.7385 18.6658 57.5798 18.2571C57.4206 17.8483 57.3413 17.3851 57.3413 16.8669V12.8812H55.8901V10.9392H56.5121C57.272 10.9392 57.6523 10.5646 57.6523 9.81496V8.48633Z" fill="white"/>
    <path fill-rule="evenodd" clip-rule="evenodd" d="M66.6537 18.4002C67.2756 18.4002 67.7765 18.2198 68.1566 17.8586C68.5367 17.4978 68.7268 17.0308 68.7268 16.4584V16.0496C68.0219 16.0496 67.4552 16.0802 67.0269 16.1416C66.5983 16.203 66.2632 16.2917 66.0214 16.4072C65.7794 16.5233 65.6172 16.6628 65.5342 16.8264C65.4514 16.9898 65.4097 17.1738 65.4097 17.3782C65.4097 17.6372 65.5271 17.8724 65.7624 18.0834C65.9971 18.2948 66.2943 18.4002 66.6537 18.4002ZM67.3803 10.6328C67.9193 10.6328 68.4169 10.7248 68.8731 10.9088C69.3291 11.0926 69.7228 11.3482 70.0547 11.6752C70.3863 12.0023 70.6454 12.3907 70.8322 12.8405C71.0186 13.2899 71.1121 13.7805 71.1121 14.3121V20.1376H69.3498L68.9353 19.2178C68.7139 19.409 68.4721 19.5792 68.2096 19.729C67.9745 19.8652 67.6913 19.9844 67.3596 20.0866C67.028 20.1886 66.6548 20.2398 66.2401 20.2398C65.2036 20.2398 64.4087 19.9914 63.8561 19.4938C63.3031 18.9966 63.0269 18.3592 63.0269 17.5828C63.0269 17.1195 63.1202 16.6934 63.3068 16.3051C63.4932 15.9167 63.8074 15.5829 64.2498 15.3035C64.692 15.0245 65.2762 14.8061 66.0016 14.6493C66.7272 14.4929 67.6359 14.4141 68.7278 14.4141C68.7278 13.8967 68.5861 13.4945 68.3029 13.2083C68.0195 12.9223 67.6426 12.7791 67.173 12.7791C66.855 12.7791 66.603 12.8335 66.4164 12.9425C66.2298 13.0518 66.0811 13.1675 65.9706 13.2899C65.8462 13.4401 65.7634 13.6103 65.7217 13.8011H63.3378C63.3928 13.3651 63.5208 12.9563 63.7214 12.5747C63.9214 12.1932 64.1945 11.8592 64.5403 11.573C64.8856 11.2868 65.2969 11.0588 65.7736 10.8882C66.2503 10.718 66.786 10.6328 67.3803 10.6328Z" fill="white"/>
    <path fill-rule="evenodd" clip-rule="evenodd" d="M77.7026 10.6318C77.8132 10.6318 77.9101 10.6388 77.9931 10.6522C78.076 10.6658 78.1517 10.6798 78.2209 10.6932C78.2899 10.7068 78.359 10.7206 78.4284 10.734V13.1869C78.359 13.1735 78.2832 13.1597 78.2002 13.1461C78.1309 13.1327 78.0448 13.1191 77.941 13.1051C77.8375 13.0917 77.7235 13.0847 77.5991 13.0847C77.0184 13.0847 76.545 13.2723 76.1788 13.6469C75.8127 14.0217 75.6295 14.5155 75.6295 15.1289V20.1368H73.2455V10.734H75.0076L75.4222 11.7561C75.5883 11.5518 75.7884 11.3677 76.0235 11.2042C76.2168 11.0544 76.4553 10.9214 76.7387 10.8056C77.0219 10.6898 77.3432 10.6318 77.7026 10.6318Z" fill="white"/>
    <path fill-rule="evenodd" clip-rule="evenodd" d="M81.144 8.48535H83.2172V10.734H85.2903V12.8802H83.2172V16.7639C83.2172 17.1727 83.3379 17.4967 83.5799 17.7348C83.8215 17.9735 84.1501 18.0926 84.5647 18.0926C84.6751 18.0926 84.7648 18.0893 84.8341 18.0823C84.9031 18.0755 84.9654 18.0653 85.0207 18.0516C85.0757 18.0381 85.1311 18.0177 85.1867 17.9903V20.0344C85.0897 20.0754 84.9792 20.1094 84.8548 20.1366C84.6196 20.2048 84.3502 20.2388 84.0463 20.2388C83.5763 20.2388 83.1446 20.1602 82.7507 20.0038C82.357 19.8474 82.0179 19.6188 81.7348 19.319C81.4513 19.0195 81.2302 18.6648 81.0715 18.2561C80.9125 17.8473 80.833 17.3841 80.833 16.8659V12.8802H79.3818V10.9382H80.0038C80.7637 10.9382 81.144 10.5636 81.144 9.81398V8.48535Z" fill="white"/>
    <path fill-rule="evenodd" clip-rule="evenodd" d="M90.7837 20.2394C90.2168 20.2394 89.6985 20.1474 89.2289 19.9634C88.7589 19.7796 88.3546 19.5136 88.0161 19.1662C87.6773 18.8187 87.4148 18.3997 87.2284 17.9091C87.0418 17.4185 86.9485 16.8665 86.9485 16.2533V10.7344H89.3325V15.9469C89.3325 16.5599 89.5157 17.0541 89.8818 17.4289C90.248 17.8039 90.7214 17.9907 91.302 17.9907C91.8825 17.9907 92.3558 17.8039 92.7221 17.4289C93.0881 17.0541 93.2714 16.5599 93.2714 15.9469V10.7344H95.6556V20.1372H93.8933L93.4789 19.2173C93.2436 19.4083 92.9882 19.5787 92.7117 19.7285C92.4765 19.8646 92.1935 19.9838 91.8616 20.0862C91.53 20.1882 91.1705 20.2394 90.7837 20.2394Z" fill="white"/>
    <path fill-rule="evenodd" clip-rule="evenodd" d="M100.055 15.4353C100.055 16.2122 100.283 16.8325 100.739 17.2956C101.195 17.759 101.762 17.9904 102.439 17.9904C103.116 17.9904 103.683 17.759 104.139 17.2956C104.595 16.8325 104.823 16.2122 104.823 15.4353C104.823 14.6587 104.595 14.0387 104.139 13.5753C103.683 13.1123 103.116 12.8805 102.439 12.8805C101.762 12.8805 101.195 13.1123 100.739 13.5753C100.283 14.0387 100.055 14.6587 100.055 15.4353ZM102.75 10.6318C103.344 10.6318 103.911 10.7514 104.45 10.9895C104.989 11.2282 105.462 11.5619 105.87 11.9913C106.277 12.4205 106.602 12.9283 106.844 13.5141C107.086 14.1001 107.207 14.7403 107.207 15.4353C107.207 16.1305 107.086 16.7711 106.844 17.3568C106.602 17.943 106.277 18.4506 105.87 18.8796C105.462 19.309 104.989 19.643 104.45 19.8814C103.911 20.1198 103.344 20.239 102.75 20.239C102.349 20.239 102 20.1911 101.703 20.0958C101.405 20.0008 101.147 19.8986 100.926 19.7892C100.677 19.6532 100.455 19.4964 100.262 19.3192V23.4073H97.8781V10.734H99.6402L100.055 11.6539C100.262 11.4632 100.504 11.2928 100.78 11.143C101.015 11.0202 101.299 10.9048 101.63 10.7954C101.962 10.6864 102.335 10.6318 102.75 10.6318Z" fill="white"/>
    <path fill-rule="evenodd" clip-rule="evenodd" d="M124.723 7.25977V20.1374H122.235V14.7209H116.741V20.1374H114.253V7.25977H116.741V12.3701H122.235V7.25977H124.723Z" fill="white"/>
    <path fill-rule="evenodd" clip-rule="evenodd" d="M129.039 15.4353C129.039 16.2121 129.267 16.8324 129.723 17.2955C130.179 17.7589 130.745 17.9903 131.423 17.9903C132.1 17.9903 132.666 17.7589 133.123 17.2955C133.579 16.8324 133.807 16.2121 133.807 15.4353C133.807 14.6586 133.579 14.0386 133.123 13.5752C132.666 13.1122 132.1 12.8804 131.423 12.8804C130.745 12.8804 130.179 13.1122 129.723 13.5752C129.267 14.0386 129.039 14.6586 129.039 15.4353ZM136.192 15.4353C136.192 16.1032 136.064 16.7267 135.809 17.3058C135.553 17.8852 135.208 18.3926 134.772 18.8286C134.337 19.265 133.832 19.6088 133.259 19.8608C132.685 20.1132 132.073 20.239 131.424 20.239C130.774 20.239 130.163 20.1132 129.589 19.8608C129.015 19.6088 128.511 19.265 128.076 18.8286C127.64 18.3926 127.295 17.8852 127.039 17.3058C126.783 16.7267 126.656 16.1032 126.656 15.4353C126.656 14.7679 126.783 14.1445 127.039 13.5651C127.295 12.9859 127.64 12.4785 128.076 12.0423C128.511 11.6062 129.015 11.2624 129.589 11.0099C130.163 10.758 130.774 10.6318 131.424 10.6318C132.073 10.6318 132.685 10.758 133.259 11.0099C133.832 11.2624 134.337 11.6062 134.772 12.0423C135.208 12.4785 135.553 12.9859 135.809 13.5651C136.064 14.1445 136.192 14.7679 136.192 15.4353Z" fill="white"/>
    <path fill-rule="evenodd" clip-rule="evenodd" d="M141.636 20.2394C141.069 20.2394 140.55 20.1474 140.081 19.9634C139.611 19.7796 139.206 19.5136 138.868 19.1662C138.529 18.8187 138.267 18.3997 138.08 17.9091C137.894 17.4185 137.8 16.8665 137.8 16.2533V10.7344H140.184V15.9469C140.184 16.5599 140.368 17.0541 140.734 17.4289C141.1 17.8039 141.573 17.9907 142.154 17.9907C142.734 17.9907 143.208 17.8039 143.574 17.4289C143.94 17.0541 144.123 16.5599 144.123 15.9469V10.7344H146.507V20.1372H144.745L144.331 19.2173C144.095 19.4083 143.84 19.5787 143.564 19.7285C143.328 19.8646 143.045 19.9838 142.713 20.0862C142.382 20.1882 142.022 20.2394 141.636 20.2394Z" fill="white"/>
    <path fill-rule="evenodd" clip-rule="evenodd" d="M150.518 17.173C150.573 17.4866 150.725 17.7522 150.974 17.97C151.223 18.1882 151.554 18.2972 151.969 18.2972C152.384 18.2972 152.712 18.1916 152.954 17.9804C153.195 17.7692 153.316 17.5342 153.316 17.2752C153.316 17.0573 153.195 16.8866 152.954 16.7642C152.712 16.6414 152.411 16.529 152.052 16.4268C151.692 16.3247 151.302 16.2193 150.88 16.1101C150.459 16.0011 150.068 15.8411 149.709 15.6297C149.35 15.4185 149.049 15.1461 148.807 14.8121C148.565 14.4781 148.444 14.0387 148.444 13.4935C148.444 13.1123 148.524 12.7475 148.683 12.4001C148.842 12.0526 149.073 11.7494 149.378 11.4904C149.681 11.2318 150.041 11.0238 150.455 10.867C150.87 10.7104 151.34 10.6318 151.865 10.6318C153.012 10.6318 153.893 10.9046 154.508 11.4495C155.123 11.9947 155.486 12.6761 155.597 13.4935H153.316C153.261 13.2891 153.112 13.0847 152.871 12.8805C152.629 12.6761 152.328 12.5739 151.969 12.5739C151.609 12.5739 151.33 12.6625 151.129 12.8395C150.929 13.0167 150.829 13.2349 150.829 13.4935C150.829 13.7117 150.949 13.8819 151.192 14.0047C151.433 14.1271 151.734 14.2395 152.093 14.3419C152.453 14.4441 152.843 14.5533 153.265 14.6689C153.686 14.7847 154.076 14.9519 154.436 15.1697C154.795 15.3877 155.096 15.6704 155.338 16.018C155.579 16.3654 155.7 16.8187 155.7 17.3774C155.7 17.759 155.618 18.1236 155.452 18.471C155.286 18.8182 155.051 19.1218 154.747 19.3804C154.443 19.6394 154.073 19.8474 153.638 20.0038C153.202 20.1603 152.715 20.239 152.176 20.239C150.932 20.239 149.989 19.9598 149.347 19.401C148.704 18.8422 148.334 18.0998 148.237 17.173H150.518Z" fill="white"/>
    <path fill-rule="evenodd" clip-rule="evenodd" d="M161.569 12.8805C160.947 12.8805 160.439 13.0577 160.045 13.4119C159.651 13.7663 159.399 14.2025 159.288 14.7201H163.849C163.738 14.2025 163.486 13.7663 163.092 13.4119C162.698 13.0577 162.19 12.8805 161.569 12.8805ZM165.818 17.2753C165.694 17.6297 165.504 17.984 165.248 18.338C164.992 18.6928 164.681 19.0094 164.316 19.2886C163.949 19.568 163.534 19.7966 163.071 19.9734C162.608 20.1503 162.108 20.239 161.569 20.239C160.919 20.239 160.307 20.1132 159.734 19.8608C159.16 19.609 158.656 19.265 158.22 18.8286C157.785 18.3928 157.439 17.8852 157.184 17.306C156.928 16.7267 156.8 16.1033 156.8 15.4353C156.8 14.7681 156.928 14.1445 157.184 13.5651C157.439 12.9861 157.785 12.4786 158.22 12.0423C158.656 11.6064 159.16 11.2624 159.734 11.01C160.307 10.7582 160.919 10.6318 161.569 10.6318C162.19 10.6318 162.778 10.748 163.331 10.9794C163.883 11.2114 164.367 11.5384 164.782 11.9605C165.196 12.3832 165.525 12.8907 165.767 13.4833C166.008 14.0763 166.129 14.7271 166.129 15.4353C166.129 15.5447 166.122 15.6503 166.109 15.7523C166.095 15.8545 166.081 15.9535 166.067 16.0487C166.053 16.1581 166.039 16.2601 166.026 16.3553H159.392C159.502 16.8187 159.737 17.2072 160.097 17.5206C160.456 17.8341 160.947 17.9906 161.569 17.9906C161.886 17.9906 162.152 17.9568 162.367 17.8884C162.581 17.8204 162.764 17.7386 162.916 17.643C163.082 17.5342 163.22 17.4114 163.331 17.2753H165.818Z" fill="white"/>
    <path fill-rule="evenodd" clip-rule="evenodd" d="M47.2784 34.1027C47.5042 34.1027 47.7237 34.054 47.937 33.9567C48.1501 33.8593 48.3393 33.7249 48.5045 33.5536C48.6697 33.3825 48.8029 33.1799 48.9046 32.9461C49.0064 32.7122 49.0571 32.4562 49.0571 32.1777C49.0571 31.8994 49.0064 31.6432 48.9046 31.4093C48.8029 31.1755 48.6697 30.9731 48.5045 30.802C48.3393 30.6307 48.1501 30.4965 47.937 30.3989C47.7237 30.3015 47.5042 30.2527 47.2784 30.2527H46.4526V34.1027H47.2784ZM45.6323 34.8708V29.4844H47.2797C47.627 29.4844 47.9579 29.554 48.2729 29.6931C48.5875 29.8325 48.8636 30.0244 49.1007 30.2694C49.3379 30.5145 49.5271 30.7998 49.6681 31.1253C49.8094 31.4511 49.88 31.8019 49.88 32.1776C49.88 32.5535 49.8094 32.9043 49.6681 33.2299C49.5271 33.5555 49.3379 33.841 49.1007 34.0858C48.8636 34.3308 48.5875 34.5231 48.2729 34.6621C47.9579 34.8012 47.627 34.8708 47.2797 34.8708H45.6323Z" fill="white"/>
    <path fill-rule="evenodd" clip-rule="evenodd" d="M61.1089 34.1026V34.8708H57.4243V29.4844H61.0241V30.2526H58.2459V31.7058H60.8039V32.4783H58.2459V34.1026H61.1089Z" fill="white"/>
    <path fill-rule="evenodd" clip-rule="evenodd" d="M68.2183 29.4844H69.0863L70.6067 33.6306L72.1228 29.4844H72.9911L70.9964 34.8708H70.2171L68.2183 29.4844Z" fill="white"/>
    <path fill-rule="evenodd" clip-rule="evenodd" d="M84.0042 34.1026V34.8708H80.3198V29.4844H83.9194V30.2526H81.1413V31.7058H83.6992V32.4783H81.1413V34.1026H84.0042Z" fill="white"/>
    <path fill-rule="evenodd" clip-rule="evenodd" d="M95.1045 34.1026V34.8708H91.6785V29.4844H92.5001V34.1026H95.1045Z" fill="white"/>
    <path fill-rule="evenodd" clip-rule="evenodd" d="M106.291 32.1783C106.291 31.8889 106.241 31.6209 106.139 31.3744C106.037 31.1282 105.904 30.9152 105.741 30.7355C105.577 30.5561 105.388 30.4169 105.173 30.3181C104.959 30.2193 104.738 30.1697 104.513 30.1697C104.287 30.1697 104.067 30.2193 103.854 30.3181C103.641 30.4169 103.452 30.5561 103.286 30.7355C103.121 30.9152 102.988 31.1274 102.886 31.3723C102.785 31.6173 102.734 31.886 102.734 32.1783C102.734 32.4677 102.785 32.7349 102.886 32.98C102.988 33.2252 103.121 33.4373 103.286 33.6168C103.452 33.7963 103.641 33.9361 103.854 34.0365C104.067 34.1366 104.287 34.1869 104.513 34.1869C104.738 34.1869 104.959 34.1366 105.173 34.0365C105.388 33.9361 105.577 33.7963 105.741 33.6168C105.904 33.4373 106.037 33.2252 106.139 32.98C106.241 32.7349 106.291 32.4677 106.291 32.1783ZM107.114 32.1783C107.114 32.5653 107.043 32.9245 106.902 33.2556C106.761 33.5869 106.572 33.8764 106.335 34.1241C106.098 34.372 105.822 34.5655 105.507 34.7045C105.192 34.8438 104.861 34.9132 104.514 34.9132C104.167 34.9132 103.836 34.8438 103.521 34.7045C103.206 34.5655 102.93 34.372 102.693 34.1241C102.456 33.8764 102.266 33.5869 102.125 33.2556C101.984 32.9245 101.914 32.5653 101.914 32.1783C101.914 31.7971 101.984 31.4393 102.125 31.1053C102.266 30.7711 102.456 30.4802 102.693 30.2325C102.93 29.9848 103.206 29.7913 103.521 29.6521C103.836 29.5128 104.167 29.4434 104.514 29.4434C104.861 29.4434 105.192 29.5128 105.507 29.6521C105.822 29.7913 106.098 29.9848 106.335 30.2325C106.572 30.4802 106.761 30.7711 106.902 31.1053C107.043 31.4393 107.114 31.7971 107.114 32.1783Z" fill="white"/>
    <path fill-rule="evenodd" clip-rule="evenodd" d="M116.653 32.1358C116.774 32.1358 116.889 32.1115 116.998 32.0628C117.107 32.0141 117.204 31.9466 117.288 31.8602C117.373 31.7741 117.44 31.6739 117.489 31.5595C117.539 31.4456 117.564 31.323 117.564 31.1922C117.564 31.0669 117.539 30.9472 117.489 30.8331C117.44 30.719 117.373 30.6194 117.288 30.5346C117.204 30.4496 117.107 30.3814 116.998 30.3298C116.889 30.2785 116.774 30.2527 116.653 30.2527H115.48V32.1358H116.653ZM116.654 29.4844C116.892 29.4844 117.115 29.5295 117.325 29.6199C117.536 29.7104 117.719 29.8329 117.876 29.9873C118.033 30.1418 118.157 30.3229 118.249 30.5302C118.341 30.7377 118.387 30.9582 118.387 31.1921C118.387 31.4259 118.341 31.6473 118.249 31.8561C118.157 32.0648 118.033 32.2456 117.876 32.3988C117.719 32.5519 117.536 32.6745 117.325 32.7661C117.115 32.8581 116.892 32.9041 116.654 32.9041H115.481V34.8707H114.66V29.4844H116.654Z" fill="white"/>
    <path fill-rule="evenodd" clip-rule="evenodd" d="M131.222 29.4844V34.8708H130.396V31.5345L128.838 34.8708H128.317L126.754 31.5345V34.8708H125.932V29.4844H126.623L128.575 33.6306L130.528 29.4844H131.222Z" fill="white"/>
    <path fill-rule="evenodd" clip-rule="evenodd" d="M142.798 34.1026V34.8708H139.114V29.4844H142.713V30.2526H139.935V31.7058H142.493V32.4783H139.935V34.1026H142.798Z" fill="white"/>
    <path fill-rule="evenodd" clip-rule="evenodd" d="M154.635 29.4844V34.8708H153.941L151.294 31.021V34.8708H150.472V29.4844H151.163L153.809 33.3299V29.4844H154.635Z" fill="white"/>
    <path fill-rule="evenodd" clip-rule="evenodd" d="M162.008 29.4844H166.128V30.2526H164.477V34.8708H163.655V30.2526H162.008V29.4844Z" fill="white"/>
    <path d="M25.5014 19.6396C25.5014 19.6396 32.4145 23.8767 31.2959 33.8851L16.7639 25.598H16.7636L2.23183 33.8851C1.11324 23.8767 8.02613 19.6396 8.02613 19.6396" stroke="white" stroke-width="2.78453" stroke-linecap="round" stroke-linejoin="round"/>
    <path fill-rule="evenodd" clip-rule="evenodd" d="M16.7655 47.7815C16.7655 47.7815 18.4092 46.2112 20.2797 42.9395C21.7941 40.2912 19.849 37.0146 16.7657 37.0146H16.7653C13.682 37.0146 11.7369 40.2912 13.2512 42.9395C15.1219 46.2112 16.7655 47.7815 16.7655 47.7815Z" stroke="white" stroke-width="2.78453" stroke-linecap="round" stroke-linejoin="round"/>
    <path d="M19.5995 32.5257L23.6837 34.8506C24.5377 31.9626 25.2075 28.5714 25.4804 24.6569C26.6476 7.91556 16.7629 2 16.7629 2H16.7625C16.7625 2 6.87777 7.91556 8.04502 24.6569C8.31804 28.5714 8.98771 31.9626 9.84163 34.8506L13.9259 32.5257" stroke="white" stroke-width="2.78453" stroke-linecap="round" stroke-linejoin="round"/>
</svg>
    