<svg xmlns="http://www.w3.org/2000/svg" width="20" height="20" viewBox="0 0 20 20">
    <g fill="#06F" fill-rule="nonzero">
        <path d="M2.178 11.712h.001c.322 0 .583-.26.584-.582A7.152 7.152 0 0 1 4.87 6.055a.584.584 0 1 0-.825-.825 8.312 8.312 0 0 0-2.45 5.897c-.001.322.26.584.582.585zM17.16 11.13c0 .322.261.582.583.582h.001a.584.584 0 0 0 .583-.585 8.312 8.312 0 0 0-2.45-5.897.584.584 0 0 0-.826.825 7.152 7.152 0 0 1 2.109 5.075zM11.401 18.2a7.195 7.195 0 0 1-2.88 0 .583.583 0 1 0-.233 1.143 8.39 8.39 0 0 0 3.346 0A.584.584 0 1 0 11.4 18.2zM13.325 6.185l-.361-1.45a2.137 2.137 0 0 0-1.205-1.437c.216-.334.342-.732.342-1.158 0-1.18-.96-2.14-2.14-2.14-1.18 0-2.14.96-2.14 2.14 0 .426.126.824.342 1.158a2.137 2.137 0 0 0-1.205 1.437l-.361 1.45a.967.967 0 0 0 .177.834.967.967 0 0 0 .767.374h4.84c.302 0 .581-.136.767-.374a.967.967 0 0 0 .177-.834zM9.961 1.167a.974.974 0 0 1 0 1.946.974.974 0 0 1 0-1.946zM7.79 6.226l.301-1.208a.971.971 0 0 1 .944-.738h1.852c.448 0 .836.303.944.738l.301 1.208H7.79zM6.396 17.264a2.137 2.137 0 0 0-1.204-1.437c.216-.334.342-.731.342-1.158 0-1.18-.96-2.14-2.14-2.14-1.18 0-2.14.96-2.14 2.14 0 .427.125.824.341 1.158a2.137 2.137 0 0 0-1.204 1.437l-.362 1.45a.967.967 0 0 0 .178.834.967.967 0 0 0 .766.374h4.84c.302 0 .582-.136.767-.374a.967.967 0 0 0 .178-.834l-.362-1.45zm-3.003-3.568a.974.974 0 0 1 0 1.946.974.974 0 0 1 0-1.946zm-2.17 5.059l.3-1.208a.971.971 0 0 1 .944-.738H4.32c.447 0 .835.304.944.738l.3 1.208H1.223zM19.893 18.714l-.362-1.45a2.137 2.137 0 0 0-1.204-1.437c.216-.334.342-.731.342-1.158 0-1.18-.96-2.14-2.14-2.14-1.18 0-2.14.96-2.14 2.14 0 .427.125.824.341 1.158a2.137 2.137 0 0 0-1.204 1.437l-.361 1.45a.967.967 0 0 0 .177.834.967.967 0 0 0 .766.374h4.841c.302 0 .58-.136.767-.374a.967.967 0 0 0 .177-.834zm-3.364-5.018a.974.974 0 0 1 0 1.946.974.974 0 0 1 0-1.946zm-2.172 5.059l.302-1.208a.971.971 0 0 1 .944-.738h1.852c.447 0 .835.304.944.738l.301 1.208h-4.343zM11.494 10.032L9.06 12.466l-.632-.632a.584.584 0 0 0-.825.825l1.044 1.045a.582.582 0 0 0 .826 0l2.846-2.847a.584.584 0 0 0-.825-.825z"/>
    </g>
</svg>
