<svg xmlns="http://www.w3.org/2000/svg" xmlns:xlink="http://www.w3.org/1999/xlink" width="83" height="14" viewBox="0 0 83 14">
    <defs>
        <path id="a" d="M7.548 3.495L9.799 7.5l4.579.863-3.187 3.34.578 4.54L7.548 14.3l-4.221 1.943.578-4.54L.718 8.365l4.579-.863 2.251-4.006"/>
        <path id="b" d="M0 0h8v19H0z"/>
        <path id="d" d="M7.548 3.495L9.799 7.5l4.579.863-3.187 3.34.578 4.54L7.548 14.3l-4.221 1.943.578-4.54L.718 8.365l4.579-.863 2.251-4.006"/>
    </defs>
    <g fill="none" fill-rule="evenodd">
        <g transform="translate(68 -3)">
            <use fill="#0A0F13" xlink:href="#a"/>
            <use fill="#51637A" fill-opacity=".93" xlink:href="#a"/>
        </g>
        <g transform="translate(68 -3)">
            <mask id="c" fill="#fff">
                <use xlink:href="#b"/>
            </mask>
            <g mask="url(#c)">
                <use fill="#0A0F13" xlink:href="#d"/>
                <use fill="#FFD11A" xlink:href="#d"/>
            </g>
        </g>
        <path fill="#FFD11A" d="M60.913 4.502l4.58.863-3.189 3.34.58 4.54-4.223-1.943-4.221 1.943.578-4.54-3.188-3.34 4.58-.863L58.66.495zM41.53.48l2.182 3.881 4.436.836-3.088 3.236.56 4.398-4.09-1.882-4.09 1.882.561-4.398-3.088-3.236 4.436-.836L41.531.48M24.402.495l2.251 4.007 4.58.863-3.188 3.34.579 4.54-4.222-1.943-4.222 1.943.579-4.54-3.188-3.34 4.58-.863L24.4.495M7.514.495l2.252 4.007 4.579.863-3.188 3.34.579 4.54-4.222-1.943-4.222 1.943.579-4.54-3.188-3.34 4.58-.863L7.513.495"/>
    </g>
</svg>
