<svg xmlns="http://www.w3.org/2000/svg" width="55" height="55" viewBox="0 0 55 55">
    <g fill="#06F" fill-rule="evenodd">
        <path d="M17.947 0h19.106c6.24 0 8.503.65 10.785 1.87 2.281 1.22 4.072 3.01 5.292 5.292C54.35 9.444 55 11.707 55 17.947v19.106c0 6.24-.65 8.503-1.87 10.785-1.22 2.281-3.01 4.072-5.292 5.292C45.556 54.35 43.293 55 37.053 55H17.947c-6.24 0-8.503-.65-10.785-1.87-2.281-1.22-4.072-3.01-5.292-5.292C.65 45.556 0 43.293 0 37.053V17.947c0-6.24.65-8.503 1.87-10.785C3.09 4.881 4.88 3.09 7.162 1.87 9.444.65 11.707 0 17.947 0z" opacity=".195"/>
        <path fill-rule="nonzero" d="M26.347 16.678c0-2.58-2.099-4.678-4.678-4.678h-4.99C14.098 12 12 14.099 12 16.678c0 2.58 2.099 4.679 4.678 4.679h4.99c2.58 0 4.679-2.099 4.679-4.679zm-11.852 0c0-1.203.98-2.183 2.183-2.183h4.99c1.204 0 2.184.98 2.184 2.183 0 1.204-.98 2.184-2.183 2.184h-4.99c-1.204 0-2.184-.98-2.184-2.184zM39.26 34.581h-4.99c-2.58 0-4.678 2.099-4.678 4.678 0 2.58 2.098 4.679 4.678 4.679h4.99c2.58 0 4.679-2.1 4.679-4.679 0-2.58-2.1-4.678-4.679-4.678zm0 6.861h-4.99c-1.204 0-2.183-.979-2.183-2.183 0-1.204.98-2.183 2.183-2.183h4.99c1.204 0 2.183.98 2.183 2.183 0 1.204-.979 2.183-2.183 2.183zM27.407 39.26c0 .69-.558 1.248-1.247 1.248h-3.805c-2.408 0-4.367-1.959-4.367-4.367V25.1c0-.69.559-1.248 1.248-1.248s1.247.558 1.247 1.247v1.123h5.365c.689 0 1.248.559 1.248 1.248s-.559 1.247-1.248 1.247h-5.365v7.423c0 1.032.84 1.872 1.872 1.872h3.805c.689 0 1.247.558 1.247 1.247zm6.862-7.173h4.99c2.58 0 4.679-2.099 4.679-4.679s-2.1-4.678-4.679-4.678h-4.99c-2.58 0-4.678 2.099-4.678 4.678 0 2.58 2.098 4.679 4.678 4.679zm0-6.862h4.99c1.204 0 2.183.98 2.183 2.183 0 1.204-.979 2.184-2.183 2.184h-4.99c-1.204 0-2.183-.98-2.183-2.184 0-1.203.98-2.183 2.183-2.183z"/>
    </g>
</svg>
