<svg xmlns="http://www.w3.org/2000/svg" width="55" height="55" viewBox="0 0 55 55">
    <g fill="#06F" fill-rule="evenodd">
        <path d="M17.947 0h19.106c6.24 0 8.503.65 10.785 1.87 2.281 1.22 4.072 3.01 5.292 5.292C54.35 9.444 55 11.707 55 17.947v19.106c0 6.24-.65 8.503-1.87 10.785-1.22 2.281-3.01 4.072-5.292 5.292C45.556 54.35 43.293 55 37.053 55H17.947c-6.24 0-8.503-.65-10.785-1.87-2.281-1.22-4.072-3.01-5.292-5.292C.65 45.556 0 43.293 0 37.053V17.947c0-6.24.65-8.503 1.87-10.785C3.09 4.881 4.88 3.09 7.162 1.87 9.444.65 11.707 0 17.947 0z" opacity=".195"/>
        <path fill-rule="nonzero" d="M17.801 36.078c-3.199 0-5.801-2.588-5.801-5.77 0-1.8.828-3.463 2.214-4.545-.103-.471-.156-.954-.156-1.443 0-3.598 2.848-6.543 6.408-6.7.442-1.424 1.28-2.709 2.426-3.693C24.338 12.684 26.185 12 28.094 12c2.082 0 4.053.797 5.55 2.245 1.206 1.167 2.001 2.656 2.3 4.279 4.476.406 7.994 4.18 7.994 8.759 0 3.953-2.66 7.442-6.47 8.484-.665.182-1.351-.21-1.533-.874-.182-.665.21-1.35.874-1.533 2.728-.746 4.633-3.245 4.633-6.077 0-3.474-2.826-6.3-6.3-6.3-.686 0-.92-.1-1.164-.326-.244-.225-.387-.539-.4-.87-.104-2.968-2.514-5.292-5.484-5.292-2.71 0-4.988 1.938-5.419 4.607-.107.663-.719 1.122-1.385 1.04-.174-.022-.351-.033-.526-.033-2.322 0-4.21 1.889-4.21 4.21 0 .528.096 1.042.285 1.528.23.592-.02 1.263-.584 1.558-1.086.568-1.76 1.68-1.76 2.903 0 1.806 1.483 3.275 3.306 3.275.69 0 1.248.558 1.248 1.247 0 .69-.559 1.248-1.248 1.248zm15.532-1.435c0-3.267-2.658-5.926-5.926-5.926-3.267 0-5.926 2.659-5.926 5.926 0 3.268 2.659 5.926 5.926 5.926 3.268 0 5.926-2.658 5.926-5.926zm-2.495 0c0 1.892-1.539 3.431-3.43 3.431-1.892 0-3.431-1.539-3.431-3.43 0-1.892 1.539-3.432 3.43-3.432 1.892 0 3.431 1.54 3.431 3.431zm5.436 8.93c.487-.488.487-1.278 0-1.765l-1.747-1.747c-.487-.487-1.277-.487-1.764 0-.487.488-.487 1.277 0 1.765l1.747 1.746c.243.244.563.366.882.366.32 0 .638-.122.882-.366z"/>
    </g>
</svg>
