<svg xmlns="http://www.w3.org/2000/svg" width="55" height="55" viewBox="0 0 55 55">
    <g fill="#06F" fill-rule="evenodd">
        <path d="M17.947 0h19.106c6.24 0 8.503.65 10.785 1.87 2.281 1.22 4.072 3.01 5.292 5.292C54.35 9.444 55 11.707 55 17.947v19.106c0 6.24-.65 8.503-1.87 10.785-1.22 2.281-3.01 4.072-5.292 5.292C45.556 54.35 43.293 55 37.053 55H17.947c-6.24 0-8.503-.65-10.785-1.87-2.281-1.22-4.072-3.01-5.292-5.292C.65 45.556 0 43.293 0 37.053V17.947c0-6.24.65-8.503 1.87-10.785C3.09 4.881 4.88 3.09 7.162 1.87 9.444.65 11.707 0 17.947 0z" opacity=".195"/>
        <path fill-rule="nonzero" d="M39.26 16.677C36.245 13.661 32.235 12 27.97 12c-4.266 0-8.276 1.661-11.292 4.677C13.661 19.693 12 23.703 12 27.97c0 4.265 1.661 8.275 4.677 11.292 3.016 3.016 7.026 4.677 11.292 4.677 4.265 0 8.275-1.661 11.292-4.677 3.016-3.017 4.677-7.027 4.677-11.292 0-4.266-1.661-8.276-4.677-11.292zM29.217 41.384V38.76c0-.689-.558-1.247-1.247-1.247-.69 0-1.248.558-1.248 1.247v2.624c-6.435-.594-11.574-5.732-12.168-12.168h2.624c.69 0 1.248-.558 1.248-1.247 0-.69-.559-1.248-1.248-1.248h-2.624c.594-6.435 5.733-11.574 12.168-12.168v2.562c0 .689.559 1.248 1.248 1.248s1.247-.559 1.247-1.248v-2.562c6.436.594 11.574 5.733 12.168 12.168H38.76c-.689 0-1.247.559-1.247 1.248s.558 1.247 1.247 1.247h2.624c-.594 6.436-5.732 11.574-12.168 12.168zm4.43-6.564c0 .689-.56 1.248-1.248 1.248-.69 0-1.248-.559-1.248-1.248 0-1.506-1.233-2.73-2.749-2.73H27.6c-1.516 0-2.75 1.224-2.75 2.73 0 .689-.558 1.248-1.247 1.248-.689 0-1.247-.559-1.247-1.248 0-2.882 2.352-5.226 5.244-5.226h.802c2.892 0 5.244 2.344 5.244 5.226zM28 27.785c2.064 0 3.743-1.679 3.743-3.743 0-2.063-1.68-3.742-3.743-3.742-2.064 0-3.743 1.679-3.743 3.742 0 2.064 1.68 3.743 3.743 3.743zm0-4.99c.688 0 1.248.56 1.248 1.247 0 .688-.56 1.248-1.248 1.248s-1.248-.56-1.248-1.248c0-.687.56-1.247 1.248-1.247z"/>
    </g>
</svg>
