<svg width="60" height="60" viewBox="0 0 60 60" fill="none" xmlns="http://www.w3.org/2000/svg">
<rect width="60" height="60" rx="18" fill="#C2DAFF"/>
<path d="M21.25 25.625H15C14.3096 25.625 13.75 26.1846 13.75 26.875V33.125C13.75 33.8154 14.3096 34.375 15 34.375H21.25C21.9404 34.375 22.5 33.8154 22.5 33.125V26.875C22.5 26.1846 21.9404 25.625 21.25 25.625Z" stroke="#0066FF" stroke-width="3" stroke-linecap="round" stroke-linejoin="round"/>
<path d="M43.75 16.25H36.25C35.5596 16.25 35 16.8096 35 17.5V25C35 25.6904 35.5596 26.25 36.25 26.25H43.75C44.4404 26.25 45 25.6904 45 25V17.5C45 16.8096 44.4404 16.25 43.75 16.25Z" stroke="#0066FF" stroke-width="3" stroke-linecap="round" stroke-linejoin="round"/>
<path d="M43.75 33.75H36.25C35.5596 33.75 35 34.3096 35 35V42.5C35 43.1904 35.5596 43.75 36.25 43.75H43.75C44.4404 43.75 45 43.1904 45 42.5V35C45 34.3096 44.4404 33.75 43.75 33.75Z" stroke="#0066FF" stroke-width="3" stroke-linecap="round" stroke-linejoin="round"/>
<path d="M22.5 30H28.75" stroke="#0066FF" stroke-width="3" stroke-linecap="round" stroke-linejoin="round"/>
<path d="M35 38.75H32.5C32.007 38.7521 31.5184 38.6565 31.0625 38.4688C30.6066 38.2811 30.1924 38.0049 29.8438 37.6563C29.4951 37.3077 29.219 36.8934 29.0313 36.4375C28.8436 35.9816 28.748 35.4931 28.75 35V25C28.748 24.507 28.8436 24.0184 29.0313 23.5625C29.219 23.1066 29.4951 22.6924 29.8438 22.3438C30.1924 21.9951 30.6066 21.719 31.0625 21.5313C31.5184 21.3436 32.007 21.248 32.5 21.25H35" stroke="#0066FF" stroke-width="3" stroke-linecap="round" stroke-linejoin="round"/>
</svg>
