<svg width="60" height="60" viewBox="0 0 60 60" fill="none" xmlns="http://www.w3.org/2000/svg">
<rect width="60" height="60" rx="18" fill="#C2DAFF"/>
<path d="M32.5 45H27.5" stroke="#0066FF" stroke-width="3" stroke-linecap="round" stroke-linejoin="round"/>
<path d="M29.2187 13.0939C26.2499 15.4689 16.328 24.9689 24.9999 40.0001H34.9999C43.4999 24.9689 33.7187 15.4845 30.7812 13.0939C30.562 12.9108 30.2855 12.8105 29.9999 12.8105C29.7143 12.8105 29.4378 12.9108 29.2187 13.0939Z" stroke="#0066FF" stroke-width="3" stroke-linecap="round" stroke-linejoin="round"/>
<path d="M21.5469 27.4062L16.6406 33.2812C16.517 33.4255 16.4298 33.5972 16.3863 33.7821C16.3428 33.967 16.3443 34.1596 16.3906 34.3438L18.3125 43.0469C18.3589 43.2537 18.4571 43.4454 18.5979 43.6039C18.7388 43.7623 18.9176 43.8824 19.1176 43.9527C19.3176 44.023 19.5322 44.0413 19.7413 44.0058C19.9503 43.9704 20.1469 43.8823 20.3125 43.75L25 40" stroke="#0066FF" stroke-width="3" stroke-linecap="round" stroke-linejoin="round"/>
<path d="M38.3594 27.2812L43.3594 33.2813C43.483 33.4255 43.5702 33.5972 43.6137 33.7821C43.6572 33.967 43.6557 34.1596 43.6094 34.3438L41.6875 43.0469C41.6411 43.2537 41.5429 43.4454 41.402 43.6039C41.2612 43.7623 41.0824 43.8824 40.8824 43.9527C40.6823 44.023 40.4677 44.0413 40.2587 44.0058C40.0497 43.9704 39.8531 43.8823 39.6875 43.75L35 40" stroke="#0066FF" stroke-width="3" stroke-linecap="round" stroke-linejoin="round"/>
<path d="M30 26.875C31.0355 26.875 31.875 26.0355 31.875 25C31.875 23.9645 31.0355 23.125 30 23.125C28.9645 23.125 28.125 23.9645 28.125 25C28.125 26.0355 28.9645 26.875 30 26.875Z" fill="#0066FF"/>
</svg>
