<svg width="592" height="600" viewBox="0 0 592 600" fill="none" xmlns="http://www.w3.org/2000/svg">
<rect width="592" height="600" rx="8" fill="#F3F7F7"/>
<g clip-path="url(#clip0)">
<path d="M248.6 337.2V328.598C248.61 326.102 247.817 323.669 246.337 321.66C244.858 319.65 242.771 318.17 240.385 317.438C242.722 310.642 243.35 303.376 242.215 296.28C241.08 289.184 238.215 282.477 233.875 276.75V270.008C233.876 268.848 233.429 267.733 232.628 266.896C231.826 266.058 230.732 265.562 229.574 265.513H221.398C214.622 261.503 206.893 259.387 199.019 259.387C191.146 259.387 183.417 261.503 176.641 265.513H168.465C167.297 265.543 166.187 266.031 165.375 266.872C164.563 267.713 164.114 268.839 164.125 270.008V276.75C158.418 284.318 155.342 293.544 155.368 303.023C155.346 307.891 156.158 312.727 157.77 317.321C155.336 318.031 153.201 319.517 151.69 321.553C150.179 323.588 149.375 326.062 149.4 328.598V337.2C142.492 327.989 138.285 317.036 137.251 305.568C136.217 294.1 138.396 282.571 143.546 272.273C148.695 261.974 156.61 253.313 166.405 247.26C176.199 241.206 187.486 238 199 238C210.514 238 221.801 241.206 231.595 247.26C241.39 253.313 249.305 261.974 254.455 272.273C259.604 282.571 261.784 294.1 260.75 305.568C259.715 317.036 255.509 327.989 248.6 337.2Z" fill="#4E8278"/>
<path d="M217.831 359.093C216.901 359.403 215.933 359.674 214.964 359.907C209.756 361.295 204.389 361.999 198.999 361.999C193.637 361.99 188.299 361.3 183.111 359.945L180.205 359.093C180.826 354.544 183.074 350.374 186.533 347.355C189.992 344.336 194.427 342.673 199.018 342.673C203.609 342.673 208.045 344.336 211.504 347.355C214.963 350.374 217.211 354.544 217.831 359.093Z" fill="#E8F0EF"/>
<path d="M248.601 328.598V337.2C243.828 343.553 237.882 348.932 231.086 353.049C226.916 355.568 222.469 357.596 217.833 359.094C217.212 354.545 214.964 350.375 211.506 347.356C208.047 344.337 203.611 342.674 199.02 342.674C194.429 342.674 189.993 344.337 186.534 347.356C183.076 350.375 180.828 354.545 180.207 359.094C175.562 357.589 171.103 355.561 166.916 353.049C160.119 348.932 154.174 343.553 149.401 337.2V328.598C149.385 326.09 150.18 323.645 151.667 321.627C153.155 319.609 155.255 318.126 157.654 317.399C156.043 312.818 155.23 307.995 155.252 303.139C155.249 293.61 158.365 284.341 164.126 276.75V269.969C164.125 268.807 164.579 267.691 165.389 266.858C166.2 266.026 167.304 265.543 168.466 265.513H176.642C183.41 261.479 191.142 259.35 199.02 259.35C206.898 259.35 214.63 261.479 221.398 265.513H229.574C230.726 265.562 231.814 266.052 232.615 266.882C233.415 267.711 233.867 268.816 233.876 269.969V276.75C238.171 282.47 240.996 289.157 242.104 296.224C243.212 303.291 242.569 310.522 240.231 317.283C242.671 317.994 244.811 319.486 246.323 321.529C247.834 323.573 248.634 326.056 248.601 328.598Z" fill="#D3E2E0"/>
<path d="M235.541 299.147C235.548 302.913 234.438 306.597 232.35 309.732C230.263 312.866 227.292 315.311 223.813 316.756C220.335 318.201 216.507 318.581 212.812 317.848C209.118 317.115 205.724 315.302 203.061 312.639C200.398 309.976 198.585 306.582 197.852 302.888C197.119 299.193 197.499 295.365 198.944 291.887C200.389 288.408 202.833 285.437 205.968 283.35C209.103 281.262 212.787 280.152 216.553 280.159C221.586 280.169 226.409 282.173 229.968 285.732C233.527 289.29 235.531 294.114 235.541 299.147Z" fill="white"/>
<path d="M225.272 299.147C225.256 300.457 224.947 301.746 224.366 302.92C223.786 304.094 222.95 305.123 221.919 305.931C220.889 306.739 219.69 307.306 218.412 307.589C217.133 307.873 215.807 307.866 214.532 307.57C213.256 307.273 212.063 306.694 211.041 305.875C210.019 305.057 209.193 304.019 208.625 302.839C208.057 301.659 207.76 300.367 207.758 299.058C207.755 297.748 208.046 296.454 208.61 295.272C209.145 295.808 209.868 296.114 210.625 296.125C211.399 296.125 212.142 295.82 212.693 295.276C213.245 294.732 213.559 293.993 213.57 293.218C213.561 292.45 213.255 291.714 212.717 291.165C213.919 290.565 215.25 290.272 216.592 290.312C217.742 290.322 218.879 290.559 219.938 291.008C220.996 291.458 221.956 292.111 222.762 292.932C223.568 293.752 224.205 294.723 224.635 295.79C225.066 296.856 225.282 297.997 225.272 299.147Z" fill="#0C2A2D"/>
<path d="M200.512 299.147C200.512 302.902 199.399 306.573 197.312 309.696C195.226 312.818 192.26 315.252 188.791 316.689C185.321 318.126 181.504 318.502 177.82 317.769C174.137 317.037 170.754 315.228 168.098 312.573C165.443 309.917 163.635 306.534 162.902 302.851C162.169 299.168 162.545 295.35 163.982 291.88C165.42 288.411 167.853 285.446 170.976 283.359C174.098 281.273 177.769 280.159 181.525 280.159C186.557 280.169 191.381 282.173 194.939 285.732C198.498 289.29 200.502 294.114 200.512 299.147Z" fill="white"/>
<path d="M190.242 299.148C190.238 300.464 189.937 301.763 189.361 302.948C188.786 304.132 187.951 305.172 186.918 305.989C185.886 306.806 184.682 307.38 183.397 307.668C182.112 307.955 180.778 307.949 179.496 307.65C178.213 307.351 177.015 306.767 175.99 305.941C174.964 305.115 174.138 304.068 173.573 302.878C173.008 301.689 172.719 300.387 172.727 299.07C172.734 297.754 173.039 296.455 173.618 295.273C174.024 295.678 174.542 295.955 175.105 296.067C175.669 296.179 176.253 296.121 176.783 295.901C177.314 295.682 177.768 295.31 178.087 294.832C178.407 294.355 178.577 293.793 178.578 293.219C178.582 292.837 178.508 292.458 178.362 292.105C178.215 291.752 177.999 291.432 177.725 291.165C178.93 290.576 180.259 290.284 181.6 290.313C182.749 290.323 183.884 290.559 184.94 291.009C185.996 291.459 186.954 292.114 187.757 292.935C188.56 293.755 189.192 294.727 189.619 295.793C190.045 296.859 190.257 297.999 190.242 299.148Z" fill="#0C2A2D"/>
<path d="M206.325 304.805V310.889C206.326 311.843 206.135 312.789 205.762 313.668C205.389 314.546 204.842 315.341 204.155 316.004C202.79 317.315 200.972 318.051 199.079 318.057C198.122 318.052 197.176 317.857 196.296 317.483C195.416 317.109 194.619 316.563 193.952 315.878C193.285 315.193 192.76 314.382 192.41 313.492C192.059 312.602 191.889 311.651 191.91 310.695V304.999C191.928 303.131 192.663 301.341 193.964 300C195.299 298.647 197.101 297.857 199.001 297.791C200.894 297.78 202.717 298.505 204.084 299.815C205.451 301.124 206.254 302.913 206.325 304.805Z" fill="#FF2C02"/>
<path d="M206.362 305.154C206.362 305.154 206.362 305.425 206.362 305.619C206.224 307.469 205.385 309.196 204.017 310.449C202.649 311.702 200.854 312.386 198.999 312.361C197.575 312.342 196.188 311.905 195.012 311.102C193.835 310.3 192.921 309.169 192.383 307.85C191.846 306.531 191.709 305.083 191.99 303.687C192.271 302.291 192.956 301.008 193.962 300C195.297 298.647 197.1 297.857 198.999 297.791C200.846 297.818 202.613 298.545 203.944 299.826C205.275 301.106 206.07 302.844 206.168 304.689C206.25 304.836 206.315 304.992 206.362 305.154Z" fill="#FF8E00"/>
<path d="M299.75 267.953H308.198V324.218H334.625V331.968H299.75V267.953Z" fill="#02110C"/>
<path d="M382.404 313.795H347.064C347.436 317.211 349.135 320.344 351.796 322.519C354.456 324.693 357.864 325.735 361.286 325.42C363.793 325.549 366.289 325.007 368.517 323.849C370.744 322.691 372.622 320.959 373.957 318.833L381.009 321.623C378.537 325.984 374.686 329.4 370.062 331.336C365.437 333.272 360.301 333.617 355.459 332.318C350.617 331.019 346.344 328.149 343.309 324.158C340.275 320.167 338.652 315.282 338.694 310.269C338.564 307.294 339.051 304.325 340.124 301.547C341.197 298.77 342.833 296.245 344.93 294.13C347.026 292.015 349.537 290.358 352.305 289.261C355.074 288.163 358.039 287.651 361.014 287.755C363.951 287.672 366.873 288.205 369.591 289.32C372.31 290.435 374.765 292.106 376.798 294.227C378.831 296.348 380.398 298.871 381.397 301.634C382.396 304.397 382.805 307.338 382.598 310.269C382.598 311.393 382.521 312.594 382.404 313.795ZM374.654 306.82C374.387 303.499 372.822 300.416 370.298 298.241C367.774 296.065 364.494 294.971 361.169 295.195C357.794 294.905 354.441 295.967 351.848 298.146C349.254 300.326 347.631 303.445 347.336 306.82H374.654Z" fill="#02110C"/>
<path d="M390.309 272.604C390.239 271.454 390.517 270.31 391.107 269.32C391.697 268.33 392.571 267.541 393.615 267.055C394.66 266.57 395.826 266.41 396.963 266.596C398.1 266.783 399.154 267.308 399.988 268.102C400.823 268.896 401.398 269.923 401.641 271.05C401.883 272.176 401.78 273.349 401.346 274.416C400.912 275.483 400.167 276.395 399.208 277.032C398.248 277.67 397.119 278.004 395.967 277.99C395.241 278.011 394.518 277.887 393.84 277.627C393.162 277.367 392.542 276.976 392.017 276.475C391.491 275.974 391.069 275.375 390.776 274.71C390.483 274.046 390.324 273.33 390.309 272.604ZM391.976 288.608H400.074V332.046H391.976V288.608Z" fill="#02110C"/>
<path d="M454.75 264.893V332.046H446.651V325.149C444.951 327.663 442.631 329.697 439.917 331.054C437.202 332.412 434.183 333.047 431.151 332.899C428.205 332.924 425.285 332.346 422.57 331.202C419.855 330.057 417.403 328.37 415.363 326.244C413.324 324.117 411.741 321.596 410.711 318.836C409.681 316.076 409.226 313.134 409.374 310.191C409.209 307.26 409.649 304.326 410.666 301.572C411.684 298.818 413.258 296.303 415.29 294.184C417.322 292.065 419.769 290.387 422.478 289.254C425.186 288.121 428.099 287.558 431.035 287.6C434.072 287.417 437.103 288.037 439.824 289.397C442.545 290.758 444.859 292.811 446.535 295.35V264.893H454.75ZM446.651 310.191C446.677 308.237 446.312 306.296 445.579 304.485C444.845 302.673 443.757 301.025 442.378 299.64C440.999 298.254 439.358 297.157 437.55 296.414C435.742 295.67 433.804 295.296 431.849 295.311C429.923 295.304 428.016 295.688 426.243 296.442C424.471 297.196 422.871 298.302 421.54 299.695C420.209 301.087 419.176 302.736 418.503 304.54C417.831 306.345 417.533 308.268 417.627 310.191C417.526 312.16 417.826 314.129 418.509 315.978C419.192 317.828 420.245 319.518 421.602 320.948C422.96 322.377 424.594 323.516 426.406 324.294C428.217 325.072 430.168 325.473 432.139 325.473C434.111 325.473 436.062 325.072 437.873 324.294C439.685 323.516 441.319 322.377 442.676 320.948C444.034 319.518 445.086 317.828 445.77 315.978C446.453 314.129 446.753 312.16 446.651 310.191Z" fill="#02110C"/>
</g>
<defs>
<clipPath id="clip0">
<rect width="317.75" height="124" fill="white" transform="translate(137 238)"/>
</clipPath>
</defs>
</svg>
