<?xml version="1.0" encoding="UTF-8"?>
<svg width="18px" height="17px" viewBox="0 0 18 17" version="1.1" xmlns="http://www.w3.org/2000/svg" xmlns:xlink="http://www.w3.org/1999/xlink">
    <!-- Generator: Sketch 55.2 (78181) - https://sketchapp.com -->
    <title>Shape</title>
    <desc>Created with Sketch.</desc>
    <g id="Symbols" stroke="none" stroke-width="1" fill="none" fill-rule="evenodd">
        <g id="Button/map" transform="translate(-154.000000, -24.000000)" fill="#FFFFFF" fill-rule="nonzero">
            <path d="M171.662486,24.1243031 C171.451998,23.9851927 171.185671,23.9612374 170.953737,24.0605532 L166,26.1905486 L160.26251,24.0493033 L160.26251,24.0493033 C160.235445,24.0412751 160.207887,24.035012 160.180011,24.0305533 C160.145639,24.0184718 160.110577,24.008454 160.075011,24.0005534 L159.895011,24.0005534 L159.816261,24.0230533 L159.718762,24.0493033 L159.718762,24.0493033 L154.468773,26.2992984 C154.18343,26.4147141 153.997573,26.6927554 154,27.0005469 L154,39.7505193 C154,40.0027386 154.126879,40.2380473 154.337523,40.3767679 C154.548011,40.5158783 154.814338,40.5398336 155.046272,40.4405178 L160.018761,38.3067724 L165.737499,40.4517677 L165.759998,40.4517677 C165.836787,40.4810575 165.917867,40.497527 166,40.5005176 C166.091435,40.4981601 166.18167,40.4790964 166.266247,40.4442677 L166.296247,40.4442677 L171.546236,38.1942726 C171.823153,38.0752154 172.001887,37.8019441 172,37.5005241 L172,24.7505517 C172,24.4983324 171.87313,24.2630237 171.662486,24.1243031 Z M155.500021,27.4992958 L159.250013,25.8755493 L159.250013,37.0055252 L155.500021,38.6255217 L155.500021,27.4992958 Z M160.750009,25.8380494 L165.250009,27.5255457 L165.250009,38.6667716 L160.750009,36.9792753 L160.750009,25.8380494 Z M170.499988,37.0055252 L166.749996,38.6255217 L166.749996,27.4955458 L170.499988,25.8755493 L170.499988,37.0055252 Z" id="Shape"></path>
        </g>
    </g>
</svg>