<svg xmlns="http://www.w3.org/2000/svg" width="55" height="55" viewBox="0 0 55 55">
    <g fill="#3C00FF" fill-rule="evenodd">
        <path d="M17.947 0h19.106c6.24 0 8.503.65 10.785 1.87 2.281 1.22 4.072 3.01 5.292 5.292C54.35 9.444 55 11.707 55 17.947v19.106c0 6.24-.65 8.503-1.87 10.785-1.22 2.281-3.01 4.072-5.292 5.292C45.556 54.35 43.293 55 37.053 55H17.947c-6.24 0-8.503-.65-10.785-1.87-2.281-1.22-4.072-3.01-5.292-5.292C.65 45.556 0 43.293 0 37.053V17.947c0-6.24.65-8.503 1.87-10.785C3.09 4.881 4.88 3.09 7.162 1.87 9.444.65 11.707 0 17.947 0z" opacity=".195"/>
        <path fill-rule="nonzero" d="M42.69 43.938c-.689 0-1.248-.559-1.248-1.248 0-2.476-2.001-4.491-4.461-4.491h-1.057c-2.46 0-4.462 2.015-4.462 4.491 0 .69-.559 1.248-1.248 1.248s-1.247-.559-1.247-1.248c0-3.852 3.12-6.986 6.957-6.986h1.057c3.836 0 6.957 3.134 6.957 6.986 0 .69-.559 1.248-1.248 1.248zm-.998-15.408c0-2.923-2.379-5.302-5.302-5.302-2.924 0-5.302 2.379-5.302 5.302 0 2.924 2.378 5.302 5.302 5.302 2.923 0 5.302-2.378 5.302-5.302zm-2.495 0c0 1.548-1.26 2.807-2.807 2.807-1.548 0-2.807-1.259-2.807-2.807s1.26-2.807 2.807-2.807c1.548 0 2.807 1.26 2.807 2.807zM26.472 42.69c0-.689-.559-1.248-1.248-1.248h-5.74c-2.75 0-4.989-2.238-4.989-4.988v-16.97c0-2.75 2.238-4.989 4.99-4.989h11.48c2.751 0 4.99 2.238 4.99 4.99 0 .688.558 1.247 1.247 1.247.69 0 1.248-.559 1.248-1.248 0-4.127-3.358-7.484-7.486-7.484h-11.48C15.357 12 12 15.357 12 19.484v16.97c0 4.126 3.357 7.484 7.484 7.484h5.74c.69 0 1.248-.559 1.248-1.248zm2.058-16.53c0-.69-.558-1.248-1.247-1.248h-6.737c-.69 0-1.248.559-1.248 1.248s.559 1.247 1.248 1.247h6.737c.689 0 1.247-.558 1.247-1.247zm2.495-4.803c0-.69-.558-1.248-1.247-1.248h-9.232c-.69 0-1.248.559-1.248 1.248s.559 1.247 1.248 1.247h9.232c.689 0 1.247-.558 1.247-1.247zM28.53 35.704c0-.69-.558-1.248-1.247-1.248h-6.737c-.69 0-1.248.559-1.248 1.248s.559 1.247 1.248 1.247h6.737c.689 0 1.247-.558 1.247-1.247zm0-4.803c0-.69-.558-1.248-1.247-1.248h-6.737c-.69 0-1.248.559-1.248 1.248s.559 1.247 1.248 1.247h6.737c.689 0 1.247-.558 1.247-1.247z"/>
    </g>
</svg>
