<svg xmlns="http://www.w3.org/2000/svg" width="55" height="55" viewBox="0 0 55 55">
    <g fill="#01AB6A" fill-rule="evenodd">
        <path d="M17.947 0h19.106c6.24 0 8.503.65 10.785 1.87 2.281 1.22 4.072 3.01 5.292 5.292C54.35 9.444 55 11.707 55 17.947v19.106c0 6.24-.65 8.503-1.87 10.785-1.22 2.281-3.01 4.072-5.292 5.292C45.556 54.35 43.293 55 37.053 55H17.947c-6.24 0-8.503-.65-10.785-1.87-2.281-1.22-4.072-3.01-5.292-5.292C.65 45.556 0 43.293 0 37.053V17.947c0-6.24.65-8.503 1.87-10.785C3.09 4.881 4.88 3.09 7.162 1.87 9.444.65 11.707 0 17.947 0z" opacity=".195"/>
        <path fill-rule="nonzero" d="M40.195 34.269c-.69 0-1.248-.559-1.248-1.248v-1.746c0-.69.559-1.248 1.248-1.248s1.247.559 1.247 1.248v1.746c0 .69-.558 1.248-1.247 1.248zM16.99 33.021v-9.17c0-2.75 2.239-4.99 4.99-4.99h2.308c.69 0 1.248-.558 1.248-1.247 0-.689-.558-1.248-1.248-1.248h-2.307c-4.128 0-7.486 3.358-7.486 7.486v9.17c0 .688.559 1.247 1.248 1.247s1.247-.559 1.247-1.248zm26.948 7.174c0-2.064-1.68-3.743-3.743-3.743H15.743c-2.064 0-3.743 1.68-3.743 3.743 0 2.064 1.679 3.743 3.743 3.743h24.452c2.064 0 3.743-1.68 3.743-3.743zm-3.743-1.248c.688 0 1.247.56 1.247 1.248s-.56 1.247-1.247 1.247H15.743c-.688 0-1.248-.56-1.248-1.247 0-.688.56-1.248 1.248-1.248h24.452zM29.568 28.102l.113-.112c.607-.608 1.53-.76 2.297-.377 1.14.567 2.371.855 3.659.855h.008c2.19 0 4.252-.843 5.808-2.375 1.561-1.536 2.432-3.588 2.453-5.778.021-2.224-.824-4.314-2.38-5.885-1.553-1.567-3.631-2.43-5.853-2.43-2.208 0-4.283.868-5.845 2.445-1.56 1.576-2.409 3.658-2.39 5.863v6.912c0 .505.305.96.77 1.153.155.064.317.095.478.095.325 0 .644-.127.882-.366zm.366-3.042v-4.757-.012c-.015-1.538.577-2.99 1.667-4.09 1.09-1.1 2.535-1.706 4.072-1.706 1.55 0 3 .6 4.08 1.69 1.084 1.096 1.673 2.553 1.658 4.106-.03 3.133-2.616 5.682-5.768 5.682h-.005c-.9 0-1.757-.2-2.548-.594-.636-.317-1.32-.47-1.998-.47-.391 0-.78.05-1.158.151z"/>
    </g>
</svg>
