<svg width="512" height="416" viewBox="0 0 512 416" fill="none" xmlns="http://www.w3.org/2000/svg">
<mask id="mask0" mask-type="alpha" maskUnits="userSpaceOnUse" x="2" y="107" width="507" height="309">
<path fill-rule="evenodd" clip-rule="evenodd" d="M508.817 203.921C508.577 202.245 508.513 201.794 508.047 200.124C507.78 199.166 506.95 196.833 505.719 194.855C505.083 193.835 503.9 191.935 501.549 189.698C500.887 189.07 499.964 188.272 499.231 187.73C498.271 187.02 496.93 186.159 495.915 185.53C453.68 161.145 411.444 136.761 369.209 112.376C366.905 111.064 365.196 110.381 364.878 110.258C363.661 109.786 362.013 109.225 360.77 108.829C360.118 108.623 359.228 108.418 358.563 108.253C357.256 107.93 354.871 107.526 354.175 107.448C353.509 107.373 352.623 107.244 351.955 107.199C348.972 107 348.972 107 347.476 107C346.132 107.001 344.342 107.108 343.002 107.198C342.326 107.244 341.432 107.374 340.759 107.45C340.12 107.523 337.781 107.909 336.322 108.271C335.624 108.444 334.692 108.665 334.009 108.884C332.77 109.284 331.133 109.86 329.92 110.333C329.216 110.607 328.307 111.047 327.629 111.383C327.058 111.665 326.322 112.089 325.762 112.391C325.825 112.355 325.893 112.329 325.957 112.296C325.893 112.33 325.824 112.355 325.761 112.391L294.677 130.456L263.594 148.519L232.51 166.583L201.426 184.647L170.342 202.711L139.258 220.775L108.174 238.839L77.0909 256.903L46.0063 274.968L14.9229 293.031C15.0508 292.957 15.1859 292.899 15.3204 292.839C15.1853 292.899 15.0502 292.958 14.9217 293.032C14.1314 293.509 13.0787 294.154 12.3377 294.705C11.4135 295.391 10.2227 296.367 9.37902 297.15C8.05731 298.38 6.5056 300.245 5.60544 301.69C5.086 302.524 4.42845 303.663 4.03211 304.562C3.75348 305.195 3.41359 306.052 3.1812 306.703C3.02086 307.153 2.86053 307.77 2.72421 308.229C2.51704 308.922 2.33628 309.875 2.24321 310.593C2.1207 311.538 2.04444 312.807 2.00781 313.758L2 316.478C2.00721 317.137 2.04804 318.017 2.10269 318.675C2.14112 319.146 2.24681 319.768 2.30986 320.237C2.39934 320.905 2.60711 321.784 2.79627 322.431C2.99744 323.119 3.3025 324.026 3.55411 324.697C3.72405 325.15 4.00209 325.732 4.19905 326.173C4.53714 326.931 5.10582 327.887 5.54479 328.592C5.75016 328.921 6.5116 330.103 7.697 331.469C8.41341 332.294 9.4751 333.299 10.2756 334.044C11.1127 334.822 12.3767 335.688 13.3093 336.35C13.8084 336.704 14.523 337.102 15.043 337.424C14.9289 337.358 14.8256 337.271 14.7175 337.194C14.8262 337.271 14.9295 337.359 15.0436 337.425L27.7143 344.74L40.385 352.056L53.0556 359.371L65.7263 366.687L78.397 374.002L91.0671 381.317L103.738 388.633L116.408 395.947L129.079 403.263L141.749 410.578L141.75 410.579C144.055 411.891 145.762 412.574 146.081 412.697C147.298 413.169 148.946 413.731 150.189 414.125C150.841 414.333 151.731 414.537 152.395 414.702C153.703 415.026 156.088 415.429 156.783 415.508C157.449 415.583 158.335 415.711 159.004 415.756C161.984 415.955 161.984 415.955 163.482 415.954C164.825 415.954 166.615 415.846 167.955 415.756C168.631 415.711 169.525 415.58 170.198 415.504C170.837 415.431 173.176 415.045 174.635 414.683C175.332 414.51 176.265 414.289 176.948 414.068C178.186 413.67 179.824 413.094 181.036 412.62C181.741 412.345 182.65 411.906 183.327 411.57C183.898 411.287 184.634 410.865 185.194 410.563C185.322 410.487 185.44 410.391 185.562 410.302C185.44 410.391 185.323 410.487 185.195 410.561L216.279 392.498L247.362 374.434L278.446 356.37L309.53 338.306L340.613 320.242L371.698 302.178L402.782 284.114L433.866 266.05L464.95 247.986L496.033 229.922C496.123 229.87 496.204 229.799 496.291 229.74C496.204 229.799 496.124 229.87 496.034 229.922C497.006 229.318 498.299 228.504 499.21 227.81C500.111 227.123 501.247 226.121 502.06 225.331C502.707 224.702 503.506 223.795 504.056 223.08C504.672 222.281 505.408 221.151 505.942 220.295C506.326 219.678 506.766 218.809 507.04 218.136C507.84 216.159 507.84 216.159 508.29 214.501C508.462 213.866 508.633 213.004 508.715 212.352C508.792 211.729 508.852 210.968 508.896 210.247C508.928 209.896 508.949 209.545 508.95 209.194L508.957 206.474C508.955 206.025 508.908 204.558 508.817 203.921Z" fill="white"/>
</mask>
<g mask="url(#mask0)">
<path d="M-64 281.5L1059.4 -370" stroke="black" stroke-width="1.445" stroke-linecap="round" stroke-linejoin="round"/>
<path d="M-64 293.3L1059.4 -358.2" stroke="black" stroke-width="1.445" stroke-linecap="round" stroke-linejoin="round"/>
<path d="M-64 305.1L1059.4 -346.4" stroke="black" stroke-width="1.445" stroke-linecap="round" stroke-linejoin="round"/>
<path d="M-64 316.9L1059.4 -334.7" stroke="black" stroke-width="1.445" stroke-linecap="round" stroke-linejoin="round"/>
<path d="M-64 328.6L1059.4 -322.9" stroke="black" stroke-width="1.445" stroke-linecap="round" stroke-linejoin="round"/>
<path d="M-64 340.4L1059.4 -311.1" stroke="black" stroke-width="1.445" stroke-linecap="round" stroke-linejoin="round"/>
<path d="M-64 352.2L1059.4 -299.3" stroke="black" stroke-width="1.445" stroke-linecap="round" stroke-linejoin="round"/>
<path d="M-64 364L1059.4 -287.5" stroke="black" stroke-width="1.445" stroke-linecap="round" stroke-linejoin="round"/>
<path d="M-64 375.7L1059.4 -275.8" stroke="black" stroke-width="1.445" stroke-linecap="round" stroke-linejoin="round"/>
<path d="M-64 387.5L1059.4 -264" stroke="black" stroke-width="1.445" stroke-linecap="round" stroke-linejoin="round"/>
<path d="M-64 399.3L1059.4 -252.2" stroke="black" stroke-width="1.445" stroke-linecap="round" stroke-linejoin="round"/>
<path d="M-64 411.1L1059.4 -240.4" stroke="black" stroke-width="1.445" stroke-linecap="round" stroke-linejoin="round"/>
<path d="M-64 422.8L1059.4 -228.7" stroke="black" stroke-width="1.445" stroke-linecap="round" stroke-linejoin="round"/>
<path d="M-64 434.6L1059.4 -216.9" stroke="black" stroke-width="1.445" stroke-linecap="round" stroke-linejoin="round"/>
<path d="M-64 446.4L1059.4 -205.1" stroke="black" stroke-width="1.445" stroke-linecap="round" stroke-linejoin="round"/>
<path d="M-64 458.2L1059.4 -193.3" stroke="black" stroke-width="1.445" stroke-linecap="round" stroke-linejoin="round"/>
<path d="M-64 469.9L1059.4 -181.6" stroke="black" stroke-width="1.445" stroke-linecap="round" stroke-linejoin="round"/>
<path d="M-64 481.7L1059.4 -169.8" stroke="black" stroke-width="1.445" stroke-linecap="round" stroke-linejoin="round"/>
<path d="M-64 493.5L1059.4 -158" stroke="black" stroke-width="1.445" stroke-linecap="round" stroke-linejoin="round"/>
<path d="M-64 505.3L1059.4 -146.2" stroke="black" stroke-width="1.445" stroke-linecap="round" stroke-linejoin="round"/>
<path d="M-64 517.1L1059.4 -134.5" stroke="black" stroke-width="1.445" stroke-linecap="round" stroke-linejoin="round"/>
<path d="M-64 528.8L1059.4 -122.7" stroke="black" stroke-width="1.445" stroke-linecap="round" stroke-linejoin="round"/>
<path d="M-64 540.6L1059.4 -110.9" stroke="black" stroke-width="1.445" stroke-linecap="round" stroke-linejoin="round"/>
<path d="M-64 552.4L1059.4 -99.0996" stroke="black" stroke-width="1.445" stroke-linecap="round" stroke-linejoin="round"/>
<path d="M-64 564.2L1059.4 -87.4004" stroke="black" stroke-width="1.445" stroke-linecap="round" stroke-linejoin="round"/>
<path d="M-64 575.9L1059.4 -75.5996" stroke="black" stroke-width="1.445" stroke-linecap="round" stroke-linejoin="round"/>
<path d="M-64 587.7L1059.4 -63.7998" stroke="black" stroke-width="1.445" stroke-linecap="round" stroke-linejoin="round"/>
<path d="M-64 599.5L1059.4 -52" stroke="black" stroke-width="1.445" stroke-linecap="round" stroke-linejoin="round"/>
<path d="M-64 611.3L1059.4 -40.2998" stroke="black" stroke-width="1.445" stroke-linecap="round" stroke-linejoin="round"/>
<path d="M-64 623L1059.4 -28.5" stroke="black" stroke-width="1.445" stroke-linecap="round" stroke-linejoin="round"/>
<path d="M-64 634.8L1059.4 -16.7002" stroke="black" stroke-width="1.445" stroke-linecap="round" stroke-linejoin="round"/>
<path d="M-64 646.6L1059.4 -4.90039" stroke="black" stroke-width="1.445" stroke-linecap="round" stroke-linejoin="round"/>
<path d="M-64 658.4L1059.4 6.7998" stroke="black" stroke-width="1.445" stroke-linecap="round" stroke-linejoin="round"/>
<path d="M-64 670.1L1059.4 18.5996" stroke="black" stroke-width="1.445" stroke-linecap="round" stroke-linejoin="round"/>
<path d="M-64 681.9L1059.4 30.4004" stroke="black" stroke-width="1.445" stroke-linecap="round" stroke-linejoin="round"/>
<path d="M-64 693.7L1059.4 42.2002" stroke="black" stroke-width="1.445" stroke-linecap="round" stroke-linejoin="round"/>
<path d="M-64 705.5L1059.4 53.9004" stroke="black" stroke-width="1.445" stroke-linecap="round" stroke-linejoin="round"/>
<path d="M-64 717.2L1059.4 65.7002" stroke="black" stroke-width="1.445" stroke-linecap="round" stroke-linejoin="round"/>
<path d="M-64 729L1059.4 77.5" stroke="black" stroke-width="1.445" stroke-linecap="round" stroke-linejoin="round"/>
<path d="M-64 740.8L1059.4 89.2998" stroke="black" stroke-width="1.445" stroke-linecap="round" stroke-linejoin="round"/>
<path d="M-64 752.6L1059.4 101.1" stroke="black" stroke-width="1.445" stroke-linecap="round" stroke-linejoin="round"/>
<path d="M-64 764.3L1059.4 112.8" stroke="black" stroke-width="1.445" stroke-linecap="round" stroke-linejoin="round"/>
<path d="M-64 776.1L1059.4 124.6" stroke="black" stroke-width="1.445" stroke-linecap="round" stroke-linejoin="round"/>
<path d="M-64 787.9L1059.4 136.4" stroke="black" stroke-width="1.445" stroke-linecap="round" stroke-linejoin="round"/>
<path d="M-64 799.7L1059.4 148.2" stroke="black" stroke-width="1.445" stroke-linecap="round" stroke-linejoin="round"/>
<path d="M-64 811.4L1059.4 159.9" stroke="black" stroke-width="1.445" stroke-linecap="round" stroke-linejoin="round"/>
<path d="M-64 823.2L1059.4 171.7" stroke="black" stroke-width="1.445" stroke-linecap="round" stroke-linejoin="round"/>
<path d="M-64 835L1059.4 183.5" stroke="black" stroke-width="1.445" stroke-linecap="round" stroke-linejoin="round"/>
<path d="M-64 846.8L1059.4 195.3" stroke="black" stroke-width="1.445" stroke-linecap="round" stroke-linejoin="round"/>
<path d="M-64 858.6L1059.4 207" stroke="black" stroke-width="1.445" stroke-linecap="round" stroke-linejoin="round"/>
<path d="M-64 870.3L1059.4 218.8" stroke="black" stroke-width="1.445" stroke-linecap="round" stroke-linejoin="round"/>
<path d="M-64 882.1L1059.4 230.6" stroke="black" stroke-width="1.445" stroke-linecap="round" stroke-linejoin="round"/>
<path d="M-64 893.9L1059.4 242.4" stroke="black" stroke-width="1.445" stroke-linecap="round" stroke-linejoin="round"/>
<path d="M-64 905.7L1059.4 254.1" stroke="black" stroke-width="1.445" stroke-linecap="round" stroke-linejoin="round"/>
<path d="M-64 917.4L1059.4 265.9" stroke="black" stroke-width="1.445" stroke-linecap="round" stroke-linejoin="round"/>
<path d="M-64 929.2L1059.4 277.7" stroke="black" stroke-width="1.445" stroke-linecap="round" stroke-linejoin="round"/>
<path d="M-64 941L1059.4 289.5" stroke="black" stroke-width="1.445" stroke-linecap="round" stroke-linejoin="round"/>
<path d="M-64 952.8L1059.4 301.2" stroke="black" stroke-width="1.445" stroke-linecap="round" stroke-linejoin="round"/>
<path d="M-64 964.5L1059.4 313" stroke="black" stroke-width="1.445" stroke-linecap="round" stroke-linejoin="round"/>
<path d="M-64 976.3L1059.4 324.8" stroke="black" stroke-width="1.445" stroke-linecap="round" stroke-linejoin="round"/>
<path d="M-64 988.1L1059.4 336.6" stroke="black" stroke-width="1.445" stroke-linecap="round" stroke-linejoin="round"/>
<path d="M-64 999.9L1059.4 348.3" stroke="black" stroke-width="1.445" stroke-linecap="round" stroke-linejoin="round"/>
<path d="M-64 1011.6L1059.4 360.1" stroke="black" stroke-width="1.445" stroke-linecap="round" stroke-linejoin="round"/>
<path d="M-64 1023.4L1059.4 371.9" stroke="black" stroke-width="1.445" stroke-linecap="round" stroke-linejoin="round"/>
<path d="M-64 1035.2L1059.4 383.7" stroke="black" stroke-width="1.445" stroke-linecap="round" stroke-linejoin="round"/>
<path d="M-64 1047L1059.4 395.4" stroke="black" stroke-width="1.445" stroke-linecap="round" stroke-linejoin="round"/>
<path d="M-64 1058.7L1059.4 407.2" stroke="black" stroke-width="1.445" stroke-linecap="round" stroke-linejoin="round"/>
</g>
<mask id="path-69-inside-1" fill="white">
<path fill-rule="evenodd" clip-rule="evenodd" d="M508.817 122.19C508.577 120.514 508.513 120.063 508.047 118.394C507.78 117.436 506.95 115.102 505.719 113.125C505.083 112.105 503.9 110.205 501.549 107.968C500.887 107.34 499.964 106.541 499.231 106C498.271 105.289 496.93 104.428 495.915 103.8C453.68 79.4148 411.444 55.0306 369.209 30.6459C366.905 29.3332 365.196 28.6504 364.878 28.5273C363.661 28.0559 362.013 27.4944 360.77 27.0987C360.118 26.8927 359.228 26.6873 358.563 26.5228C357.256 26.1991 354.871 25.7956 354.175 25.7175C353.509 25.6424 352.623 25.5133 351.955 25.4683C348.972 25.2695 348.972 25.2695 347.476 25.2695C346.132 25.2701 344.342 25.3776 343.002 25.4677C342.326 25.5133 341.432 25.6436 340.759 25.7199C340.12 25.7926 337.781 26.1781 336.322 26.5408C335.624 26.7137 334.692 26.9347 334.009 27.1539C332.77 27.5533 331.133 28.1291 329.92 28.6023C329.216 28.8768 328.307 29.3169 327.629 29.6526C327.058 29.9349 326.322 30.3582 325.762 30.6603C325.825 30.6242 325.893 30.599 325.957 30.566C325.893 30.5996 325.824 30.6248 325.761 30.6609L294.677 48.7253L263.594 66.7885L232.51 84.853L201.426 102.917L170.342 120.981L139.258 139.044L108.174 157.108L77.0909 175.173L46.0063 193.237L14.9229 211.301C15.0508 211.227 15.1859 211.168 15.3204 211.108C15.1853 211.168 15.0502 211.227 14.9217 211.302C14.1314 211.778 13.0787 212.423 12.3377 212.975C11.4135 213.661 10.2227 214.636 9.37902 215.42C8.05731 216.649 6.5056 218.515 5.60544 219.96C5.086 220.793 4.42845 221.933 4.03211 222.832C3.75348 223.464 3.41359 224.322 3.1812 224.973C3.02086 225.423 2.86053 226.04 2.72421 226.499C2.51704 227.192 2.33628 228.145 2.24321 228.863C2.1207 229.807 2.04444 231.076 2.00781 232.027L2 234.747C2.00721 235.407 2.04804 236.286 2.10269 236.944C2.14112 237.416 2.24681 238.038 2.30986 238.506C2.39934 239.175 2.60711 240.053 2.79627 240.701C2.99744 241.388 3.3025 242.296 3.55411 242.967C3.72405 243.419 4.00209 244.002 4.19905 244.442C4.53714 245.201 5.10582 246.157 5.54479 246.861C5.75016 247.191 6.5116 248.373 7.697 249.738C8.41341 250.564 9.4751 251.569 10.2756 252.313C11.1127 253.091 12.3767 253.958 13.3093 254.619C13.8084 254.973 14.523 255.372 15.043 255.693C14.9289 255.628 14.8256 255.541 14.7175 255.464C14.8262 255.541 14.9295 255.629 15.0436 255.695L27.7143 263.01L40.385 270.325L53.0556 277.64L65.7263 284.956L78.397 292.271L91.0671 299.587L103.738 306.902L116.408 314.217L129.079 321.533L141.749 328.848L141.75 328.849C144.055 330.161 145.762 330.844 146.081 330.967C147.298 331.438 148.946 332 150.189 332.395C150.841 332.602 151.731 332.807 152.395 332.971C153.703 333.295 156.088 333.699 156.783 333.777C157.449 333.852 158.335 333.981 159.004 334.026C161.984 334.225 161.984 334.225 163.482 334.224C164.825 334.224 166.615 334.115 167.955 334.026C168.631 333.98 169.525 333.85 170.198 333.774C170.837 333.7 173.176 333.314 174.635 332.952C175.332 332.779 176.265 332.558 176.948 332.338C178.186 331.939 179.824 331.363 181.036 330.89C181.741 330.615 182.65 330.175 183.327 329.84C183.898 329.557 184.634 329.134 185.194 328.832C185.322 328.757 185.44 328.66 185.562 328.571C185.44 328.66 185.323 328.757 185.195 328.831L216.279 310.768L247.362 292.703L278.446 274.639L309.53 256.576L340.613 238.511L371.698 220.448L402.782 202.383L433.866 184.32L464.95 166.256L496.033 148.192C496.123 148.14 496.204 148.069 496.291 148.009C496.204 148.069 496.124 148.139 496.034 148.191C497.006 147.588 498.299 146.774 499.21 146.08C500.111 145.393 501.247 144.39 502.06 143.601C502.707 142.971 503.506 142.065 504.056 141.35C504.672 140.551 505.408 139.42 505.942 138.564C506.326 137.947 506.766 137.078 507.04 136.406C507.84 134.429 507.84 134.429 508.29 132.77C508.462 132.136 508.633 131.274 508.715 130.622C508.792 129.998 508.852 129.238 508.896 128.516C508.928 128.166 508.949 127.814 508.95 127.463L508.957 124.744C508.955 124.294 508.908 122.828 508.817 122.19Z"/>
</mask>
<path fill-rule="evenodd" clip-rule="evenodd" d="M508.817 122.19C508.577 120.514 508.513 120.063 508.047 118.394C507.78 117.436 506.95 115.102 505.719 113.125C505.083 112.105 503.9 110.205 501.549 107.968C500.887 107.34 499.964 106.541 499.231 106C498.271 105.289 496.93 104.428 495.915 103.8C453.68 79.4148 411.444 55.0306 369.209 30.6459C366.905 29.3332 365.196 28.6504 364.878 28.5273C363.661 28.0559 362.013 27.4944 360.77 27.0987C360.118 26.8927 359.228 26.6873 358.563 26.5228C357.256 26.1991 354.871 25.7956 354.175 25.7175C353.509 25.6424 352.623 25.5133 351.955 25.4683C348.972 25.2695 348.972 25.2695 347.476 25.2695C346.132 25.2701 344.342 25.3776 343.002 25.4677C342.326 25.5133 341.432 25.6436 340.759 25.7199C340.12 25.7926 337.781 26.1781 336.322 26.5408C335.624 26.7137 334.692 26.9347 334.009 27.1539C332.77 27.5533 331.133 28.1291 329.92 28.6023C329.216 28.8768 328.307 29.3169 327.629 29.6526C327.058 29.9349 326.322 30.3582 325.762 30.6603C325.825 30.6242 325.893 30.599 325.957 30.566C325.893 30.5996 325.824 30.6248 325.761 30.6609L294.677 48.7253L263.594 66.7885L232.51 84.853L201.426 102.917L170.342 120.981L139.258 139.044L108.174 157.108L77.0909 175.173L46.0063 193.237L14.9229 211.301C15.0508 211.227 15.1859 211.168 15.3204 211.108C15.1853 211.168 15.0502 211.227 14.9217 211.302C14.1314 211.778 13.0787 212.423 12.3377 212.975C11.4135 213.661 10.2227 214.636 9.37902 215.42C8.05731 216.649 6.5056 218.515 5.60544 219.96C5.086 220.793 4.42845 221.933 4.03211 222.832C3.75348 223.464 3.41359 224.322 3.1812 224.973C3.02086 225.423 2.86053 226.04 2.72421 226.499C2.51704 227.192 2.33628 228.145 2.24321 228.863C2.1207 229.807 2.04444 231.076 2.00781 232.027L2 234.747C2.00721 235.407 2.04804 236.286 2.10269 236.944C2.14112 237.416 2.24681 238.038 2.30986 238.506C2.39934 239.175 2.60711 240.053 2.79627 240.701C2.99744 241.388 3.3025 242.296 3.55411 242.967C3.72405 243.419 4.00209 244.002 4.19905 244.442C4.53714 245.201 5.10582 246.157 5.54479 246.861C5.75016 247.191 6.5116 248.373 7.697 249.738C8.41341 250.564 9.4751 251.569 10.2756 252.313C11.1127 253.091 12.3767 253.958 13.3093 254.619C13.8084 254.973 14.523 255.372 15.043 255.693C14.9289 255.628 14.8256 255.541 14.7175 255.464C14.8262 255.541 14.9295 255.629 15.0436 255.695L27.7143 263.01L40.385 270.325L53.0556 277.64L65.7263 284.956L78.397 292.271L91.0671 299.587L103.738 306.902L116.408 314.217L129.079 321.533L141.749 328.848L141.75 328.849C144.055 330.161 145.762 330.844 146.081 330.967C147.298 331.438 148.946 332 150.189 332.395C150.841 332.602 151.731 332.807 152.395 332.971C153.703 333.295 156.088 333.699 156.783 333.777C157.449 333.852 158.335 333.981 159.004 334.026C161.984 334.225 161.984 334.225 163.482 334.224C164.825 334.224 166.615 334.115 167.955 334.026C168.631 333.98 169.525 333.85 170.198 333.774C170.837 333.7 173.176 333.314 174.635 332.952C175.332 332.779 176.265 332.558 176.948 332.338C178.186 331.939 179.824 331.363 181.036 330.89C181.741 330.615 182.65 330.175 183.327 329.84C183.898 329.557 184.634 329.134 185.194 328.832C185.322 328.757 185.44 328.66 185.562 328.571C185.44 328.66 185.323 328.757 185.195 328.831L216.279 310.768L247.362 292.703L278.446 274.639L309.53 256.576L340.613 238.511L371.698 220.448L402.782 202.383L433.866 184.32L464.95 166.256L496.033 148.192C496.123 148.14 496.204 148.069 496.291 148.009C496.204 148.069 496.124 148.139 496.034 148.191C497.006 147.588 498.299 146.774 499.21 146.08C500.111 145.393 501.247 144.39 502.06 143.601C502.707 142.971 503.506 142.065 504.056 141.35C504.672 140.551 505.408 139.42 505.942 138.564C506.326 137.947 506.766 137.078 507.04 136.406C507.84 134.429 507.84 134.429 508.29 132.77C508.462 132.136 508.633 131.274 508.715 130.622C508.792 129.998 508.852 129.238 508.896 128.516C508.928 128.166 508.949 127.814 508.95 127.463L508.957 124.744C508.955 124.294 508.908 122.828 508.817 122.19Z" fill="white"/>
<path d="M368.505 31.8562C369.174 32.2448 370.031 32.0179 370.419 31.3494C370.808 30.681 370.581 29.8241 369.913 29.4355L368.505 31.8562ZM369.398 29.1843C368.691 28.8706 367.864 29.1892 367.551 29.8959C367.237 30.6026 367.555 31.4298 368.262 31.7435L369.398 29.1843ZM369.913 29.4355C369.707 29.3162 369.489 29.2246 369.398 29.1843L368.262 31.7435C368.428 31.8174 368.467 31.8338 368.505 31.8562L369.913 29.4355ZM508.817 122.19L511.589 121.793L511.589 121.793L508.817 122.19ZM508.047 118.394L510.744 117.642L510.744 117.641L508.047 118.394ZM505.719 113.125L503.342 114.605L503.342 114.605L505.719 113.125ZM501.549 107.968L503.478 105.939L503.477 105.938L501.549 107.968ZM499.231 106L497.565 108.25L497.567 108.252L499.231 106ZM495.915 103.8L497.39 101.419C497.365 101.404 497.34 101.389 497.315 101.375L495.915 103.8ZM369.209 30.6459L370.609 28.221C370.604 28.2183 370.6 28.2156 370.595 28.213L369.209 30.6459ZM364.878 28.5273L363.866 31.1381L363.869 31.1394L364.878 28.5273ZM360.77 27.0987L361.619 24.4306L361.613 24.4287L360.77 27.0987ZM358.563 26.5228L357.89 29.2407L357.891 29.2408L358.563 26.5228ZM354.175 25.7175L353.862 28.4999L353.863 28.5L354.175 25.7175ZM351.955 25.4683L352.143 22.6746L352.141 22.6745L351.955 25.4683ZM347.476 25.2695V22.4695L347.475 22.4695L347.476 25.2695ZM343.002 25.4677L342.814 22.674L342.813 22.6741L343.002 25.4677ZM340.759 25.7199L340.444 22.9377L340.443 22.9378L340.759 25.7199ZM336.322 26.5408L336.996 29.2584L336.997 29.2581L336.322 26.5408ZM334.009 27.1539L333.153 24.4877L333.149 24.4891L334.009 27.1539ZM329.92 28.6023L330.937 31.2113L330.938 31.2107L329.92 28.6023ZM327.629 29.6526L328.87 32.1623L328.871 32.1619L327.629 29.6526ZM325.762 30.6603L324.363 28.235C323.037 29 322.571 30.6882 323.317 32.0249C324.064 33.3617 325.745 33.8514 327.092 33.1243L325.762 30.6603ZM325.957 30.566L327.255 33.0468C328.622 32.3316 329.153 30.6459 328.442 29.2768C327.732 27.9076 326.049 27.3706 324.677 28.0757L325.957 30.566ZM325.761 30.6609L324.372 28.2298C324.366 28.2332 324.36 28.2366 324.354 28.24L325.761 30.6609ZM294.677 48.7253L296.084 51.1462L296.084 51.1462L294.677 48.7253ZM263.594 66.7885L262.187 64.3676L262.187 64.3677L263.594 66.7885ZM232.51 84.853L233.917 87.2739L233.917 87.2738L232.51 84.853ZM201.426 102.917L200.019 100.496L200.019 100.496L201.426 102.917ZM170.342 120.981L171.749 123.402L171.749 123.402L170.342 120.981ZM139.258 139.044L137.851 136.624L139.258 139.044ZM108.174 157.108L106.767 154.687L106.767 154.687L108.174 157.108ZM77.0909 175.173L78.4978 177.594L78.4978 177.594L77.0909 175.173ZM46.0063 193.237L44.5994 190.816L44.5994 190.816L46.0063 193.237ZM14.9229 211.301L13.5142 208.881C12.1781 209.659 11.7252 211.372 12.5025 212.709C13.2798 214.045 14.9931 214.499 16.3298 213.722L14.9229 211.301ZM15.3204 211.108L16.4619 213.665C17.8731 213.035 18.507 211.381 17.8782 209.969C17.2493 208.557 15.5955 207.922 14.1832 208.55L15.3204 211.108ZM14.9217 211.302L13.5179 208.879C13.5036 208.887 13.4894 208.896 13.4752 208.904L14.9217 211.302ZM12.3377 212.975L14.0072 215.222L14.009 215.221L12.3377 212.975ZM9.37902 215.42L7.47348 213.368L7.47215 213.37L9.37902 215.42ZM5.60544 219.96L7.98176 221.441L7.98194 221.44L5.60544 219.96ZM4.03211 222.832L1.47006 221.702L1.46984 221.703L4.03211 222.832ZM3.1812 224.973L0.544208 224.031L0.543761 224.033L3.1812 224.973ZM2.72421 226.499L5.40689 227.301L5.40824 227.296L2.72421 226.499ZM2.24321 228.863L5.01995 229.223L5.01998 229.223L2.24321 228.863ZM2.00781 232.027L-0.790119 231.92C-0.791399 231.953 -0.792086 231.986 -0.792182 232.019L2.00781 232.027ZM2 234.747L-0.799989 234.739C-0.800025 234.752 -0.799973 234.765 -0.799833 234.778L2 234.747ZM2.10269 236.944L4.89343 236.717L4.89308 236.713L2.10269 236.944ZM2.30986 238.506L5.0851 238.135L5.08483 238.133L2.30986 238.506ZM2.79627 240.701L0.108662 241.486L0.10893 241.487L2.79627 240.701ZM3.55411 242.967L0.932195 243.95L0.933105 243.952L3.55411 242.967ZM4.19905 244.442L6.75647 243.302L6.75542 243.3L4.19905 244.442ZM5.54479 246.861L7.92137 245.381L7.92112 245.38L5.54479 246.861ZM7.697 249.738L9.81192 247.903L9.81146 247.903L7.697 249.738ZM10.2756 252.313L8.36849 254.363L8.36907 254.364L10.2756 252.313ZM13.3093 254.619L14.9303 252.336L14.9287 252.335L13.3093 254.619ZM15.043 255.693L13.6497 258.122C14.9752 258.883 16.6657 258.44 17.4481 257.127C18.2306 255.814 17.816 254.117 16.5166 253.313L15.043 255.693ZM14.7175 255.464L16.3342 253.178C15.0728 252.286 13.3272 252.584 12.4335 253.844C11.5398 255.105 11.8358 256.851 13.0949 257.746L14.7175 255.464ZM15.0436 255.695L13.6407 258.118L13.6436 258.119L15.0436 255.695ZM27.7143 263.01L26.3143 265.435H26.3143L27.7143 263.01ZM40.385 270.325L38.985 272.75L38.9851 272.75L40.385 270.325ZM53.0556 277.64L54.4557 275.215L54.4556 275.215L53.0556 277.64ZM65.7263 284.956L64.3262 287.381L64.3263 287.381L65.7263 284.956ZM78.397 292.271L79.7971 289.847L79.797 289.847L78.397 292.271ZM91.0671 299.587L89.6671 302.012L89.6672 302.012L91.0671 299.587ZM103.738 306.902L105.138 304.477H105.138L103.738 306.902ZM116.408 314.217L117.809 311.792L117.808 311.792L116.408 314.217ZM129.079 321.533L127.679 323.958L127.679 323.958L129.079 321.533ZM141.749 328.848L143.293 326.512C143.246 326.481 143.198 326.451 143.149 326.423L141.749 328.848ZM141.75 328.849L140.206 331.185C140.258 331.219 140.311 331.251 140.365 331.282L141.75 328.849ZM146.081 330.967L147.093 328.356L147.09 328.355L146.081 330.967ZM150.189 332.395L151.036 329.726L151.036 329.726L150.189 332.395ZM152.395 332.971L151.722 335.689L151.722 335.689L152.395 332.971ZM156.783 333.777L156.468 336.559L156.469 336.56L156.783 333.777ZM159.004 334.026L158.815 336.82L158.817 336.82L159.004 334.026ZM163.482 334.224V331.424H163.48L163.482 334.224ZM167.955 334.026L168.142 336.82L168.144 336.819L167.955 334.026ZM170.198 333.774L170.513 336.556L170.517 336.555L170.198 333.774ZM174.635 332.952L175.309 335.67L175.31 335.67L174.635 332.952ZM176.948 332.338L176.09 329.673L176.089 329.673L176.948 332.338ZM181.036 330.89L180.018 328.281L180.017 328.282L181.036 330.89ZM183.327 329.84L184.57 332.349L184.571 332.348L183.327 329.84ZM185.194 328.832L186.523 331.297C186.553 331.281 186.582 331.264 186.611 331.247L185.194 328.832ZM185.562 328.571L187.216 330.83C188.463 329.917 188.734 328.167 187.822 326.919C186.91 325.672 185.161 325.399 183.912 326.309L185.562 328.571ZM185.195 328.831L183.788 326.41C182.452 327.186 181.997 328.898 182.772 330.234C183.546 331.571 185.257 332.028 186.595 331.256L185.195 328.831ZM216.279 310.768L217.685 313.189L217.686 313.189L216.279 310.768ZM247.362 292.703L245.955 290.282L245.955 290.282L247.362 292.703ZM278.446 274.639L277.039 272.218L278.446 274.639ZM309.53 256.576L310.937 258.996L310.937 258.996L309.53 256.576ZM340.613 238.511L339.207 236.09L339.207 236.09L340.613 238.511ZM371.698 220.448L373.104 222.869L373.104 222.869L371.698 220.448ZM402.782 202.383L401.375 199.963L401.375 199.963L402.782 202.383ZM433.866 184.32L432.459 181.899L433.866 184.32ZM464.95 166.256L466.356 168.677L466.356 168.677L464.95 166.256ZM496.033 148.192L494.628 145.77L494.626 145.771L496.033 148.192ZM497.877 150.317C499.151 149.441 499.474 147.697 498.598 146.423C497.722 145.149 495.979 144.826 494.704 145.702L497.877 150.317ZM496.034 148.191L494.557 145.813C493.256 146.621 492.845 148.324 493.636 149.636C494.426 150.948 496.123 151.382 497.446 150.609L496.034 148.191ZM499.21 146.08L500.906 148.307L500.907 148.307L499.21 146.08ZM502.06 143.601L504.011 145.608L504.011 145.608L502.06 143.601ZM504.056 141.35L501.839 139.64L501.838 139.642L504.056 141.35ZM505.942 138.564L508.318 140.045L508.318 140.045L505.942 138.564ZM507.04 136.406L509.634 137.46L509.635 137.457L507.04 136.406ZM508.29 132.77L510.992 133.503L510.993 133.502L508.29 132.77ZM508.715 130.622L511.493 130.97L511.494 130.964L508.715 130.622ZM508.896 128.516L506.108 128.259C506.105 128.288 506.103 128.317 506.101 128.347L508.896 128.516ZM508.95 127.463L511.75 127.473V127.471L508.95 127.463ZM508.957 124.744L511.757 124.751C511.757 124.744 511.757 124.737 511.757 124.729L508.957 124.744ZM511.589 121.793C511.339 120.051 511.254 119.47 510.744 117.642L505.35 119.146C505.771 120.656 505.815 120.977 506.045 122.587L511.589 121.793ZM510.744 117.641C510.428 116.508 509.506 113.91 508.095 111.645L503.342 114.605C504.394 116.295 505.132 118.364 505.35 119.146L510.744 117.641ZM508.095 111.645C507.413 110.55 506.083 108.417 503.478 105.939L499.619 109.996C501.717 111.992 502.753 113.66 503.342 114.605L508.095 111.645ZM503.477 105.938C502.757 105.253 501.744 104.375 500.894 103.748L497.567 108.252C498.184 108.708 499.018 109.426 499.62 109.998L503.477 105.938ZM500.897 103.749C499.839 102.967 498.417 102.056 497.39 101.419L494.441 106.18C495.443 106.801 496.703 107.612 497.565 108.25L500.897 103.749ZM497.315 101.375C476.198 89.1823 455.08 76.9901 433.962 64.7978C412.844 52.6056 391.727 40.4134 370.609 28.221L367.809 33.0707C388.927 45.2631 410.044 57.4553 431.162 69.6476C452.28 81.8398 473.398 94.032 494.515 106.224L497.315 101.375ZM370.595 28.213C368.143 26.8158 366.302 26.0759 365.886 25.9152L363.869 31.1394C364.091 31.2249 365.667 31.8506 367.823 33.0787L370.595 28.213ZM365.889 25.9164C364.6 25.417 362.894 24.8363 361.619 24.4306L359.921 29.7667C361.133 30.1526 362.722 30.6948 363.866 31.1381L365.889 25.9164ZM361.613 24.4287C360.85 24.1875 359.817 23.9487 359.236 23.8048L357.891 29.2408C358.639 29.4259 359.386 29.5979 359.927 29.7687L361.613 24.4287ZM359.236 23.8049C357.808 23.4512 355.302 23.0264 354.488 22.935L353.863 28.5C354.439 28.5647 356.704 28.947 357.89 29.2407L359.236 23.8049ZM354.489 22.9351C353.979 22.8777 352.888 22.7249 352.143 22.6746L351.766 28.262C352.358 28.3018 353.04 28.4072 353.862 28.4999L354.489 22.9351ZM352.141 22.6745C349.144 22.4748 349.069 22.4695 347.476 22.4695V28.0695C348.875 28.0695 348.8 28.0643 351.768 28.2621L352.141 22.6745ZM347.475 22.4695C346.025 22.4702 344.148 22.5843 342.814 22.674L343.189 28.2614C344.536 28.1709 346.239 28.0701 347.477 28.0695L347.475 22.4695ZM342.813 22.6741C342.059 22.725 340.964 22.8788 340.444 22.9377L341.075 28.5021C341.9 28.4085 342.594 28.3016 343.19 28.2613L342.813 22.6741ZM340.443 22.9378C339.692 23.0233 337.232 23.4294 335.646 23.8235L336.997 29.2581C338.33 28.9268 340.549 28.5619 341.076 28.502L340.443 22.9378ZM335.648 23.8232C335.015 23.98 333.953 24.2314 333.153 24.4877L334.864 29.8201C335.431 29.6381 336.234 29.4475 336.996 29.2584L335.648 23.8232ZM333.149 24.4891C331.866 24.903 330.174 25.4975 328.902 25.994L330.938 31.2107C332.091 30.7608 333.675 30.2035 334.868 29.8188L333.149 24.4891ZM328.904 25.9934C328.068 26.3188 327.055 26.8122 326.386 27.1434L328.871 32.1619C329.558 31.8217 330.363 31.4347 330.937 31.2113L328.904 25.9934ZM326.387 27.143C325.763 27.4517 324.877 27.9564 324.433 28.1962L327.092 33.1243C327.767 32.7601 328.353 32.418 328.87 32.1623L326.387 27.143ZM327.162 33.0856C327.11 33.1151 327.07 33.1359 327.046 33.1473C327.025 33.158 327.011 33.1641 327.019 33.1603C327.025 33.1576 327.026 33.157 327.04 33.1509C327.05 33.1463 327.066 33.1392 327.083 33.131C327.118 33.1149 327.173 33.0891 327.237 33.0563L324.677 28.0757C324.709 28.0594 324.731 28.0492 324.733 28.0482C324.734 28.0476 324.734 28.0479 324.727 28.0508C324.724 28.0521 324.709 28.0589 324.699 28.0637C324.657 28.0828 324.519 28.1449 324.363 28.235L327.162 33.0856ZM324.659 28.0852C324.695 28.0664 324.72 28.0543 324.726 28.0517C324.729 28.0503 324.73 28.0501 324.725 28.0523C324.722 28.0533 324.72 28.0546 324.715 28.0565C324.711 28.0583 324.706 28.0608 324.7 28.0635C324.678 28.0734 324.633 28.094 324.58 28.1197C324.526 28.1461 324.454 28.1829 324.372 28.2298L327.15 33.092C327.1 33.1209 327.06 33.141 327.038 33.1515C327.018 33.1612 327.006 33.1667 327.017 33.1616C327.02 33.1605 327.022 33.1593 327.027 33.1573C327.031 33.1555 327.036 33.153 327.042 33.1503C327.054 33.145 327.071 33.1372 327.09 33.1282C327.129 33.1103 327.187 33.0824 327.255 33.0468L324.659 28.0852ZM324.354 28.24L293.27 46.3044L296.084 51.1462L327.168 33.0818L324.354 28.24ZM293.27 46.3044L262.187 64.3676L265.001 69.2094L296.084 51.1462L293.27 46.3044ZM262.187 64.3677L231.103 82.4321L233.917 87.2738L265.001 69.2094L262.187 64.3677ZM231.103 82.4321L200.019 100.496L202.833 105.338L233.917 87.2739L231.103 82.4321ZM200.019 100.496L168.935 118.56L171.749 123.402L202.833 105.338L200.019 100.496ZM168.935 118.56L137.851 136.624L140.665 141.465L171.749 123.402L168.935 118.56ZM137.851 136.624L106.767 154.687L109.581 159.529L140.665 141.465L137.851 136.624ZM106.767 154.687L75.684 172.752L78.4978 177.594L109.581 159.529L106.767 154.687ZM75.684 172.752L44.5994 190.816L47.4132 195.658L78.4978 177.594L75.684 172.752ZM44.5994 190.816L13.516 208.88L16.3298 213.722L47.4132 195.658L44.5994 190.816ZM16.3316 213.721C16.3015 213.738 16.2891 213.743 16.3127 213.732C16.324 213.727 16.3401 213.719 16.3658 213.708C16.3785 213.702 16.3922 213.696 16.4085 213.689C16.4237 213.682 16.4431 213.673 16.4619 213.665L14.179 208.551C14.1013 208.586 13.8028 208.713 13.5142 208.881L16.3316 213.721ZM14.1832 208.55C14.09 208.591 13.8031 208.714 13.5179 208.879L16.3255 213.724C16.3001 213.739 16.2912 213.742 16.3146 213.731C16.326 213.726 16.3419 213.718 16.3664 213.707C16.3934 213.695 16.4175 213.685 16.4576 213.667L14.1832 208.55ZM13.4752 208.904C12.7024 209.37 11.5337 210.083 10.6665 210.728L14.009 215.221C14.6238 214.764 15.5604 214.186 16.3682 213.699L13.4752 208.904ZM10.6683 210.727C9.67517 211.464 8.40348 212.504 7.47348 213.368L11.2846 217.471C12.042 216.768 13.1519 215.858 14.0072 215.222L10.6683 210.727ZM7.47215 213.37C5.98108 214.756 4.26796 216.811 3.22894 218.479L7.98194 221.44C8.74323 220.218 10.1335 218.542 11.2859 217.47L7.47215 213.37ZM3.22912 218.479C2.68775 219.347 1.94715 220.62 1.47006 221.702L6.59416 223.961C6.90975 223.246 7.48425 222.239 7.98176 221.441L3.22912 218.479ZM1.46984 221.703C1.16268 222.4 0.798068 223.32 0.544209 224.031L5.81818 225.914C6.02912 225.323 6.34428 224.529 6.59439 223.961L1.46984 221.703ZM0.543761 224.033C0.351448 224.572 0.128802 225.403 0.0401791 225.701L5.40824 227.296C5.59225 226.677 5.69027 226.273 5.81863 225.913L0.543761 224.033ZM0.0415305 225.697C-0.221508 226.576 -0.427736 227.686 -0.533573 228.503L5.01998 229.223C5.1003 228.603 5.25558 227.807 5.40689 227.301L0.0415305 225.697ZM-0.533541 228.503C-0.672444 229.574 -0.752478 230.942 -0.790119 231.92L4.80573 232.135C4.84135 231.21 4.91385 230.041 5.01995 229.223L-0.533541 228.503ZM-0.792182 232.019L-0.799989 234.739L4.79999 234.755L4.8078 232.035L-0.792182 232.019ZM-0.799833 234.778C-0.791904 235.503 -0.747996 236.45 -0.687712 237.176L4.89308 236.713C4.84408 236.122 4.80632 235.31 4.79983 234.717L-0.799833 234.778ZM-0.688054 237.172C-0.642077 237.736 -0.505975 238.576 -0.465109 238.88L5.08483 238.133C4.99959 237.5 4.92431 237.096 4.89343 236.717L-0.688054 237.172ZM-0.46538 238.878C-0.351062 239.732 -0.104663 240.756 0.108663 241.486L5.48388 239.915C5.31889 239.351 5.14973 238.618 5.0851 238.135L-0.46538 238.878ZM0.10893 241.487C0.331085 242.246 0.658454 243.219 0.932196 243.95L6.17602 241.984C5.94654 241.372 5.6638 240.53 5.48361 239.914L0.10893 241.487ZM0.933105 243.952C1.14291 244.51 1.49619 245.257 1.64268 245.585L6.75542 243.3C6.50798 242.746 6.30519 242.328 6.17512 241.982L0.933105 243.952ZM1.64164 245.582C2.0659 246.534 2.72713 247.634 3.16846 248.342L7.92112 245.38C7.48451 244.68 7.00838 243.867 6.75647 243.302L1.64164 245.582ZM3.16821 248.342C3.4227 248.75 4.27046 250.062 5.58255 251.574L9.81146 247.903C8.75274 246.683 8.07762 245.632 7.92137 245.381L3.16821 248.342ZM5.58209 251.573C6.41174 252.529 7.58225 253.632 8.36849 254.363L12.1827 250.263C11.368 249.505 10.4151 248.598 9.81192 247.903L5.58209 251.573ZM8.36907 254.364C9.37966 255.303 10.8507 256.308 11.6899 256.903L14.9287 252.335C13.9028 251.608 12.8457 250.879 12.1821 250.262L8.36907 254.364ZM11.6884 256.902C12.2757 257.319 13.2389 257.87 13.5694 258.074L16.5166 253.313C15.807 252.873 15.341 252.628 14.9303 252.336L11.6884 256.902ZM16.4363 253.265C16.4812 253.29 16.5133 253.312 16.5293 253.322C16.5448 253.333 16.5509 253.338 16.5407 253.33C16.5359 253.327 16.5292 253.322 16.5183 253.313C16.5128 253.309 16.5073 253.305 16.5003 253.3C16.4937 253.295 16.4858 253.289 16.4776 253.283C16.4465 253.26 16.3969 253.222 16.3402 253.182L13.0949 257.746C13.0922 257.744 13.096 257.747 13.1182 257.763C13.1317 257.773 13.1772 257.808 13.2153 257.836C13.2967 257.896 13.4526 258.009 13.6497 258.122L16.4363 253.265ZM13.1008 257.75C13.0959 257.747 13.0981 257.748 13.1185 257.763C13.1277 257.77 13.1771 257.808 13.2113 257.833C13.2898 257.891 13.4449 258.004 13.6407 258.118L16.4465 253.271C16.491 253.297 16.5225 253.318 16.5376 253.328C16.5521 253.338 16.5574 253.342 16.5458 253.334C16.5402 253.33 16.533 253.324 16.5212 253.315C16.5123 253.309 16.4932 253.294 16.4781 253.283C16.445 253.258 16.3935 253.22 16.3342 253.178L13.1008 257.75ZM13.6436 258.119L26.3143 265.435L29.1143 260.585L16.4436 253.27L13.6436 258.119ZM26.3143 265.435L38.985 272.75L41.785 267.9L29.1143 260.585L26.3143 265.435ZM38.9851 272.75L51.6557 280.065L54.4556 275.215L41.7849 267.9L38.9851 272.75ZM51.6556 280.065L64.3262 287.381L67.1264 282.531L54.4557 275.215L51.6556 280.065ZM64.3263 287.381L76.997 294.696L79.797 289.847L67.1263 282.531L64.3263 287.381ZM76.997 294.696L89.6671 302.012L92.4671 297.162L79.7971 289.847L76.997 294.696ZM89.6672 302.012L102.338 309.327L105.138 304.477L92.467 297.162L89.6672 302.012ZM102.338 309.327L115.009 316.642L117.808 311.792L105.138 304.477L102.338 309.327ZM115.008 316.642L127.679 323.958L130.479 319.108L117.809 311.792L115.008 316.642ZM127.679 323.958L140.349 331.273L143.149 326.423L130.479 319.108L127.679 323.958ZM140.205 331.184L140.206 331.185L143.294 326.513L143.293 326.512L140.205 331.184ZM140.365 331.282C142.817 332.678 144.656 333.418 145.073 333.579L147.09 328.355C146.868 328.269 145.292 327.644 143.136 326.416L140.365 331.282ZM145.07 333.578C146.358 334.077 148.065 334.658 149.342 335.064L151.036 329.726C149.827 329.342 148.238 328.8 147.093 328.356L145.07 333.578ZM149.341 335.063C150.107 335.307 151.145 335.546 151.722 335.689L153.068 330.254C152.317 330.067 151.574 329.897 151.036 329.726L149.341 335.063ZM151.722 335.689C153.151 336.043 155.656 336.468 156.468 336.559L157.098 330.995C156.519 330.93 154.254 330.547 153.068 330.253L151.722 335.689ZM156.469 336.56C156.982 336.617 158.069 336.769 158.815 336.82L159.192 331.232C158.6 331.192 157.916 331.087 157.097 330.995L156.469 336.56ZM158.817 336.82C161.812 337.019 161.888 337.025 163.483 337.024L163.48 331.424C162.081 331.425 162.157 331.43 159.19 331.232L158.817 336.82ZM163.482 337.024C164.932 337.024 166.811 336.908 168.142 336.82L167.769 331.232C166.419 331.322 164.718 331.424 163.482 331.424V337.024ZM168.144 336.819C168.898 336.769 169.993 336.615 170.513 336.556L169.882 330.991C169.057 331.085 168.363 331.192 167.767 331.232L168.144 336.819ZM170.517 336.555C171.266 336.469 173.725 336.063 175.309 335.67L173.961 330.234C172.627 330.566 170.407 330.931 169.879 330.992L170.517 336.555ZM175.31 335.67C175.941 335.513 177.006 335.261 177.807 335.003L176.089 329.673C175.523 329.855 174.723 330.045 173.961 330.235L175.31 335.67ZM177.806 335.003C179.09 334.589 180.782 333.995 182.054 333.498L180.017 328.282C178.865 328.732 177.282 329.289 176.09 329.673L177.806 335.003ZM182.053 333.499C182.888 333.173 183.9 332.681 184.57 332.349L182.084 327.331C181.4 327.67 180.593 328.057 180.018 328.281L182.053 333.499ZM184.571 332.348C185.192 332.04 186.077 331.537 186.523 331.297L183.865 326.367C183.19 326.731 182.603 327.074 182.083 327.331L184.571 332.348ZM186.611 331.247C186.798 331.137 186.949 331.029 187.04 330.962C187.25 330.807 187.081 330.928 187.211 330.834L183.912 326.309C183.862 326.346 183.816 326.38 183.786 326.403C183.751 326.429 183.735 326.441 183.72 326.452C183.707 326.462 183.707 326.462 183.715 326.456C183.723 326.45 183.745 326.436 183.777 326.417L186.611 331.247ZM183.907 326.313C183.858 326.349 183.812 326.383 183.784 326.404C183.751 326.43 183.736 326.441 183.723 326.451C183.711 326.459 183.713 326.457 183.724 326.45C183.735 326.443 183.759 326.427 183.794 326.406L186.595 331.256C186.788 331.144 186.944 331.032 187.039 330.963C187.086 330.928 187.131 330.894 187.158 330.874C187.19 330.85 187.205 330.839 187.216 330.83L183.907 326.313ZM186.601 331.252L217.685 313.189L214.872 308.347L183.788 326.41L186.601 331.252ZM217.686 313.189L248.769 295.124L245.955 290.282L214.872 308.347L217.686 313.189ZM248.769 295.124L279.853 277.06L277.039 272.218L245.955 290.282L248.769 295.124ZM279.853 277.06L310.937 258.996L308.123 254.155L277.039 272.218L279.853 277.06ZM310.937 258.996L342.02 240.932L339.207 236.09L308.123 254.155L310.937 258.996ZM342.02 240.932L373.104 222.869L370.291 218.027L339.207 236.09L342.02 240.932ZM373.104 222.869L404.188 204.804L401.375 199.963L370.291 218.027L373.104 222.869ZM404.188 204.804L435.272 186.741L432.459 181.899L401.375 199.963L404.188 204.804ZM435.272 186.741L466.356 168.677L463.543 163.835L432.459 181.899L435.272 186.741ZM466.356 168.677L497.44 150.613L494.626 145.771L463.543 163.835L466.356 168.677ZM497.438 150.614C497.631 150.502 497.781 150.39 497.84 150.345C497.857 150.333 497.873 150.321 497.882 150.314C497.894 150.305 497.899 150.302 497.903 150.299C497.911 150.292 497.899 150.302 497.877 150.317L494.704 145.702C494.639 145.747 494.584 145.787 494.55 145.813C494.533 145.826 494.517 145.838 494.507 145.845C494.496 145.854 494.49 145.858 494.486 145.861C494.477 145.868 494.488 145.86 494.509 145.845C494.531 145.83 494.572 145.803 494.628 145.77L497.438 150.614ZM494.704 145.702C494.639 145.747 494.585 145.787 494.551 145.812C494.534 145.825 494.518 145.837 494.508 145.845C494.496 145.854 494.49 145.858 494.485 145.862C494.476 145.869 494.486 145.861 494.507 145.847C494.528 145.832 494.568 145.805 494.622 145.773L497.446 150.609C497.635 150.499 497.783 150.388 497.841 150.345C497.858 150.332 497.873 150.321 497.882 150.314C497.893 150.305 497.898 150.302 497.902 150.299C497.91 150.293 497.898 150.302 497.877 150.317L494.704 145.702ZM497.512 150.57C498.464 149.978 499.872 149.095 500.906 148.307L497.513 143.853C496.726 144.452 495.547 145.198 494.557 145.813L497.512 150.57ZM500.907 148.307C501.917 147.537 503.138 146.457 504.011 145.608L500.108 141.593C499.356 142.323 498.305 143.249 497.512 143.853L500.907 148.307ZM504.011 145.608C504.763 144.878 505.65 143.87 506.275 143.058L501.838 139.642C501.362 140.26 500.651 141.065 500.108 141.593L504.011 145.608ZM506.274 143.059C506.979 142.144 507.775 140.916 508.318 140.045L503.566 137.083C503.041 137.925 502.366 138.957 501.839 139.64L506.274 143.059ZM508.318 140.045C508.79 139.288 509.302 138.275 509.634 137.46L504.445 135.352C504.23 135.882 503.862 136.607 503.566 137.083L508.318 140.045ZM509.635 137.457C510.023 136.499 510.257 135.922 510.444 135.379C510.637 134.819 510.775 134.306 510.992 133.503L505.587 132.038C505.355 132.893 505.268 133.21 505.148 133.558C505.022 133.925 504.857 134.336 504.444 135.355L509.635 137.457ZM510.993 133.502C511.197 132.746 511.395 131.756 511.493 130.97L505.937 130.274C505.872 130.792 505.726 131.525 505.587 132.039L510.993 133.502ZM511.494 130.964C511.581 130.258 511.645 129.432 511.691 128.686L506.101 128.347C506.059 129.043 506.003 129.739 505.936 130.279L511.494 130.964ZM511.684 128.774C511.722 128.361 511.748 127.925 511.75 127.473L506.15 127.454C506.149 127.704 506.134 127.97 506.108 128.259L511.684 128.774ZM511.75 127.471L511.757 124.751L506.157 124.737L506.15 127.456L511.75 127.471ZM511.757 124.729C511.755 124.275 511.71 122.639 511.589 121.793L506.045 122.587C506.07 122.757 506.1 123.159 506.123 123.667C506.145 124.144 506.156 124.583 506.157 124.759L511.757 124.729Z" fill="black" mask="url(#path-69-inside-1)"/>
<path fill-rule="evenodd" clip-rule="evenodd" d="M490.7 104.228C499.825 109.496 499.873 118.036 490.808 123.305L179.969 303.944C170.903 309.213 156.159 309.213 147.034 303.944C104.799 279.559 62.5633 255.175 20.3279 230.791C11.2026 225.522 11.1503 216.98 20.2162 211.711C123.829 151.498 227.442 91.2845 331.055 31.0718C340.12 25.8029 354.868 25.8047 363.993 31.0742C406.229 55.4583 448.464 79.8431 490.7 104.228Z" fill="#FFB800"/>
<path fill-rule="evenodd" clip-rule="evenodd" d="M146.688 281.525C156.1 286.959 171.307 286.957 180.659 281.522L146.688 281.525Z" fill="white"/>
<path d="M146.688 281.525C156.1 286.959 171.307 286.957 180.659 281.522" stroke="black" stroke-width="1.445" stroke-linecap="round" stroke-linejoin="round"/>
<path fill-rule="evenodd" clip-rule="evenodd" d="M364.686 9.24962C355.278 3.81744 340.068 3.81744 330.716 9.25202L364.686 9.24962Z" fill="white"/>
<path d="M364.686 9.24962C355.278 3.81744 340.068 3.81744 330.716 9.25202" stroke="black" stroke-width="1.445" stroke-linecap="round" stroke-linejoin="round"/>
<path d="M474.75 70.9875C474.824 71.0149 474.896 71.0486 474.965 71.0881L480.449 74.2548C484.283 76.4679 488.116 78.6811 491.949 80.8937L491.249 82.1062L491.949 80.8938C496.766 83.6745 499.502 87.5125 499.525 91.637C499.548 95.7654 496.852 99.6101 492.061 102.394C388.448 162.608 284.835 222.821 181.223 283.034C176.425 285.821 170.215 287.174 164.074 287.174C157.932 287.174 151.709 285.821 146.884 283.036L141.896 280.156C101.323 256.731 60.7505 233.306 20.1776 209.882L20.1775 209.882C15.361 207.101 12.6246 203.263 12.6002 199.138C12.5757 195.009 15.2717 191.164 20.063 188.379L20.7665 189.59L20.0631 188.379L330.901 7.74033C335.698 4.95226 341.91 3.59954 348.052 3.6C354.194 3.60046 360.418 4.95429 365.243 7.74011L373.824 12.6943L382.404 17.6485C382.497 17.702 382.583 17.766 382.662 17.8392L382.671 17.8482L382.677 17.8537C383.178 18.3288 383.549 18.9615 383.608 19.71C383.668 20.4633 383.398 21.1525 382.957 21.7052C382.848 21.8413 382.715 21.9558 382.564 22.043L380.902 23.0042L474.75 70.9875ZM474.75 70.9875L474.734 70.9815L474.71 70.9729M474.75 70.9875L474.71 70.9729M474.71 70.9729C473.428 70.5248 471.889 70.4821 470.57 70.8393C470.456 70.8699 470.348 70.9146 470.246 70.9723M474.71 70.9729L470.246 70.9723M470.246 70.9723C469.275 71.5216 468.686 71.8596 468.484 71.9791M470.246 70.9723L468.484 71.9791M468.484 71.9791L468.483 71.9782C466.058 73.3876 462.785 74.1329 459.432 74.1329C456.078 74.1329 452.795 73.3877 450.351 71.9763L449.651 73.1887L450.351 71.9762L380.947 31.9069C378.494 30.4902 377.576 28.8286 377.57 27.4533C377.564 26.0817 378.461 24.4239 380.9 23.0056L468.484 71.9791Z" fill="white" stroke="black" stroke-width="2.8" stroke-linecap="round" stroke-linejoin="round"/>
<path fill-rule="evenodd" clip-rule="evenodd" d="M336.19 35.9991C337.01 36.4729 337.014 37.2385 336.203 37.7105C335.392 38.1819 334.069 38.1819 333.249 37.7087L320.907 30.5825C320.091 30.1111 320.086 29.3455 320.898 28.8741C321.709 28.4027 323.031 28.4027 323.848 28.8741L336.19 35.9991Z" fill="#FFB800"/>
<path fill-rule="evenodd" clip-rule="evenodd" d="M337.855 31.1173C338.675 31.5911 338.679 32.3567 337.865 32.8311C337.053 33.3025 335.731 33.3025 334.911 32.8287L325.946 27.653C325.13 27.1816 325.125 26.4159 325.937 25.9445C326.752 25.4707 328.075 25.4707 328.891 25.9421L337.855 31.1173Z" fill="#FFEEC2"/>
<path fill-rule="evenodd" clip-rule="evenodd" d="M346.273 30.14C347.093 30.6138 347.098 31.3788 346.282 31.8532C345.471 32.3246 344.149 32.3246 343.329 31.8514L330.986 24.7252C330.17 24.2538 330.166 23.4882 330.977 23.0168C331.792 22.543 333.115 22.543 333.931 23.0144L346.273 30.14Z" fill="#FFB800"/>
<path fill-rule="evenodd" clip-rule="evenodd" d="M502 109C502 109 512.5 124 496.37 136.557C474.5 152 482.5 153 464.781 165C464.5 165.221 466.5 165 466.5 165C466.5 165 495.134 151.528 498.959 146.979C502.782 142.43 507.922 139.706 509.794 130.703C511.666 121.701 505.726 108.476 502 109Z" fill="black"/>
<mask id="mask1" mask-type="alpha" maskUnits="userSpaceOnUse" x="14" y="5" width="485" height="281">
<path d="M469.9 74.3936C469.896 74.3955 469.893 74.3973 469.89 74.3992C466.936 76.1155 463.148 76.9329 459.432 76.9329C455.715 76.9329 451.92 76.1153 448.951 74.4011L379.547 34.3318L380.247 33.1193L379.547 34.3317C376.587 32.6222 374.783 30.1886 374.77 27.4665C374.757 24.7412 376.542 22.3 379.495 20.5834L379.498 20.5819L380.69 19.892L372.424 15.1191L363.843 10.165L364.543 8.95253L363.843 10.1649C359.543 7.68193 353.831 6.40044 348.051 6.4C342.272 6.39956 336.577 7.68036 332.308 10.1611L331.605 8.95073L332.308 10.1612L21.4699 190.8C17.1949 193.285 15.3837 196.345 15.4001 199.121C15.4166 201.902 17.2688 204.969 21.5776 207.457C21.5776 207.457 21.5776 207.457 21.5777 207.457L20.8776 208.67L469.9 74.3936ZM469.9 74.3936C469.904 74.3913 469.908 74.3889 469.912 74.3864" fill="white" stroke="black" stroke-width="2.8" stroke-linecap="round" stroke-linejoin="round"/>
</mask>
<g mask="url(#mask1)">
<path fill-rule="evenodd" clip-rule="evenodd" d="M135.37 103.946L103.16 122.665C97.5918 125.901 97.6206 131.147 103.226 134.384L248.892 218.484C254.498 221.72 263.555 221.72 269.124 218.484L301.333 199.766C306.902 196.529 306.872 191.283 301.267 188.047L155.601 103.946C152.799 102.328 149.133 101.52 145.472 101.52C141.811 101.52 138.154 102.328 135.37 103.946Z" fill="#FFEEC2"/>
</g>
<path fill-rule="evenodd" clip-rule="evenodd" d="M301.268 175.253C306.873 178.489 306.902 183.735 301.334 186.971L269.124 205.69C263.555 208.926 254.498 208.926 248.892 205.69L103.226 121.589C97.6212 118.353 97.5912 113.107 103.16 109.87L135.37 91.1516C140.939 87.9155 149.996 87.9155 155.601 91.1522L301.268 175.253Z" fill="white"/>
<path fill-rule="evenodd" clip-rule="evenodd" d="M301.268 175.253C306.873 178.489 306.903 183.735 301.334 186.971L269.124 205.69C263.555 208.926 254.498 208.926 248.892 205.69L103.226 121.589C97.6212 118.353 97.5912 113.107 103.16 109.87L135.37 91.1516C140.939 87.9155 149.996 87.9155 155.601 91.1522L301.268 175.253Z" stroke="black" stroke-width="2.8" stroke-linecap="round" stroke-linejoin="round"/>
<path d="M114.078 94.4697L129.724 103.503" stroke="black" stroke-width="2.8" stroke-linecap="round" stroke-linejoin="round"/>
<path fill-rule="evenodd" clip-rule="evenodd" d="M218.91 137.411C221.022 138.631 221.033 140.61 218.935 141.829C216.836 143.049 213.42 143.049 211.307 141.829L175.149 120.954C173.037 119.734 173.037 117.761 175.136 116.542C177.234 115.322 180.639 115.316 182.752 116.535L218.91 137.411Z" fill="#FFEEC2"/>
<path fill-rule="evenodd" clip-rule="evenodd" d="M199.687 138.976C201.8 140.195 201.811 142.174 199.713 143.394C197.614 144.613 194.197 144.613 192.085 143.394L166.629 128.697C164.517 127.477 164.516 125.505 166.615 124.285C168.714 123.065 172.119 123.059 174.231 124.278L199.687 138.976Z" fill="#FFB800"/>
<path fill-rule="evenodd" clip-rule="evenodd" d="M217.341 149.167C219.453 150.387 219.464 152.366 217.365 153.585C215.267 154.805 211.851 154.805 209.738 153.585L203.412 149.932C201.3 148.713 201.3 146.741 203.398 145.522C205.497 144.302 208.902 144.296 211.015 145.515L217.341 149.167Z" fill="#FFB800"/>
<path fill-rule="evenodd" clip-rule="evenodd" d="M163.718 104.061C167.625 106.317 169.588 109.274 169.605 112.231C169.618 115.186 167.691 118.141 163.81 120.397C159.928 122.653 154.833 123.778 149.731 123.781C144.626 123.781 139.515 122.653 135.608 120.397C131.701 118.141 129.741 115.186 129.724 112.23C129.708 109.272 131.638 106.32 135.519 104.064L135.24 103.902L135.519 104.064C139.401 101.808 144.493 100.68 149.597 100.68C154.703 100.68 159.811 101.806 163.718 104.061Z" fill="#FFB800"/>
<mask id="mask2" mask-type="alpha" maskUnits="userSpaceOnUse" x="14" y="5" width="485" height="281">
<path d="M469.9 74.3936C469.896 74.3955 469.893 74.3973 469.89 74.3992C466.936 76.1155 463.148 76.9329 459.432 76.9329C455.715 76.9329 451.92 76.1153 448.951 74.4011L379.547 34.3318L380.247 33.1193L379.547 34.3317C376.587 32.6222 374.783 30.1886 374.77 27.4665C374.757 24.7412 376.542 22.3 379.495 20.5834L379.498 20.5819L380.69 19.892L372.424 15.1191L363.843 10.165L364.543 8.95253L363.843 10.1649C359.543 7.68193 353.831 6.40044 348.051 6.4C342.272 6.39956 336.577 7.68036 332.308 10.1611L331.605 8.95073L332.308 10.1612L21.4699 190.8C17.1949 193.285 15.3837 196.345 15.4001 199.121C15.4166 201.902 17.2688 204.969 21.5776 207.457C21.5776 207.457 21.5776 207.457 21.5777 207.457L20.8776 208.67L469.9 74.3936ZM469.9 74.3936C469.904 74.3913 469.908 74.3889 469.912 74.3864" fill="white" stroke="black" stroke-width="2.8" stroke-linecap="round" stroke-linejoin="round"/>
</mask>
<g mask="url(#mask2)">
<path fill-rule="evenodd" clip-rule="evenodd" d="M280.149 32.4858L186.281 87.0358C182.396 89.2937 182.417 92.9532 186.327 95.2105L323.29 174.286C327.195 176.541 333.514 176.541 337.398 174.283L431.265 119.734C435.15 117.476 435.13 113.817 431.223 111.561L294.262 32.4858C292.306 31.3574 289.749 30.793 287.195 30.793C284.642 30.793 282.091 31.3574 280.149 32.4858Z" fill="#FFEEC2"/>
</g>
<path fill-rule="evenodd" clip-rule="evenodd" d="M431.222 99.447C435.128 101.702 435.149 105.362 431.264 107.619L337.397 162.169C333.512 164.427 327.194 164.427 323.288 162.171L186.326 83.0958C182.416 80.8391 182.395 77.179 186.28 74.9211L280.148 20.3717C284.032 18.1144 290.35 18.1144 294.26 20.3717L431.222 99.447Z" fill="white"/>
<path fill-rule="evenodd" clip-rule="evenodd" d="M431.222 99.447C435.128 101.702 435.149 105.362 431.264 107.619L337.397 162.169C333.512 164.427 327.194 164.427 323.288 162.171L186.326 83.0958C182.416 80.8391 182.395 77.179 186.28 74.9211L280.148 20.3717C284.032 18.1144 290.35 18.1144 294.26 20.3717L431.222 99.447Z" stroke="black" stroke-width="2.8" stroke-linecap="round" stroke-linejoin="round"/>
<path fill-rule="evenodd" clip-rule="evenodd" d="M407.078 101.903C407.244 101.999 407.363 102.123 407.41 102.264C407.535 102.646 407.108 103.01 406.448 103.081C406.41 103.085 403.237 103.432 398.634 103.494C394.026 103.552 387.98 103.339 382.151 102.188C378.266 101.424 374.485 100.233 371.345 98.4205C370.69 98.0434 370.253 97.7642 369.829 97.4651C368.935 96.843 368.073 96.2839 367.219 95.7903C364.756 94.3773 362.443 93.4928 359.663 92.9691C356.891 92.4491 353.592 92.2888 349.251 92.4227C340.547 92.6935 327.745 94.1419 306.945 95.9236C298.397 96.6478 291.469 96.5638 285.889 95.8486C280.309 95.1334 276.075 93.778 272.997 92.0005C270.411 90.5077 268.66 88.735 267.552 86.8284C266.46 84.9229 266.003 82.8884 265.999 80.8485C265.999 76.7657 267.809 72.6558 270.077 69.4743C271.844 66.9954 272.629 64.9783 272.652 63.441C272.673 61.8947 271.97 60.8775 270.839 60.2241C269.762 59.6026 268.171 59.2513 266.023 59.2249C263.876 59.1979 261.224 59.5173 258.259 60.1977C254.099 61.1531 250.207 61.944 246.342 62.246C242.479 62.5481 238.627 62.3439 234.801 61.2948C232.235 60.6024 229.698 59.5443 227.112 58.0521C225.62 57.1898 224.11 56.1857 222.57 55.0123C222.084 54.6346 221.553 54.2929 221.006 53.9686C218.105 52.2938 214.364 51.3294 210.281 50.8412C206.205 50.3566 201.818 50.356 197.738 50.5878C189.572 51.0538 182.668 52.4536 181.91 52.6091C181.388 52.725 180.893 52.6535 180.569 52.4662C180.057 51.8489 180.377 51.4495 180.998 51.321C181.036 51.3072 184.966 50.4677 190.578 49.8101C196.196 49.1478 203.496 48.6686 210.334 49.4276C214.893 49.9344 219.279 51.0051 222.704 52.982C223.335 53.3465 223.928 53.7423 224.49 54.1728C225.969 55.2928 227.408 56.2566 228.809 57.0655C231.234 58.4646 233.555 59.4158 235.822 60.0332C238.081 60.6463 240.283 60.9267 242.554 60.9705C247.08 61.0594 251.9 60.1575 257.362 58.9006C260.549 58.1716 263.477 57.7981 266.062 57.8293C268.631 57.8521 270.912 58.3007 272.536 59.2375C274.237 60.2199 275.096 61.6725 275.06 63.4584C275.032 65.2492 274.147 67.4218 272.298 70.0124C270.676 72.2829 269.296 75.0818 268.714 77.9607C268.124 80.8443 268.34 83.7946 269.843 86.3888C270.842 88.117 272.409 89.6946 274.694 91.0139C277.418 92.5866 281.199 93.8134 286.411 94.4848C291.615 95.1508 298.25 95.2529 306.592 94.5419C329.946 92.5512 343.152 90.9472 352.326 90.9827C355.387 90.9965 358.019 91.1958 360.4 91.6402C363.579 92.2353 366.277 93.2802 368.917 94.8043C369.832 95.3327 370.748 95.9236 371.68 96.577C372.111 96.879 372.573 97.1625 373.043 97.4345C375.774 99.0114 379.086 100.082 382.58 100.797C386.074 101.513 389.736 101.872 393.104 102.019C399.832 102.317 405.352 101.774 405.95 101.713C406.405 101.664 406.804 101.745 407.078 101.903Z" fill="#FFB800"/>
<path fill-rule="evenodd" clip-rule="evenodd" d="M316.189 92.3705C317.342 93.0358 317.921 93.909 317.927 94.7809C317.93 95.6529 317.361 96.5248 316.216 97.1902C315.071 97.8555 313.568 98.1882 312.063 98.1882C310.556 98.1882 309.049 97.8555 307.896 97.1902C306.743 96.5248 306.165 95.6529 306.16 94.7809C306.155 93.9084 306.725 93.0364 307.87 92.3711L307.788 92.3236L307.87 92.3711C309.015 91.7063 310.517 91.373 312.024 91.373C313.53 91.373 315.037 91.7051 316.189 92.3705Z" fill="#FFB800"/>
<path fill-rule="evenodd" clip-rule="evenodd" d="M314.178 93.5398C314.772 93.8821 315.069 94.3313 315.072 94.7804C315.074 95.2296 314.781 95.6788 314.191 96.0217C313.602 96.364 312.828 96.5351 312.052 96.5351C311.277 96.5351 310.5 96.364 309.907 96.0217C309.314 95.6788 309.016 95.2296 309.013 94.7804C309.01 94.3313 309.304 93.8827 309.894 93.5398L309.851 93.5152L309.894 93.5398C310.483 93.1975 311.257 93.0264 312.032 93.0264C312.808 93.0264 313.584 93.1969 314.178 93.5398Z" fill="white"/>
<path fill-rule="evenodd" clip-rule="evenodd" d="M340.237 137.853C340.251 139.955 338.88 142.054 336.12 143.658C333.361 145.262 329.74 146.063 326.111 146.062C322.481 146.063 318.852 145.262 316.074 143.658L298.565 133.549C295.788 131.945 294.393 129.846 294.383 127.744C294.369 125.641 295.74 123.542 298.499 121.938C301.259 120.334 304.88 119.533 308.509 119.534C312.136 119.534 315.768 120.334 318.545 121.938L336.055 132.047C338.832 133.65 340.225 135.751 340.237 137.853Z" fill="white"/>
<path fill-rule="evenodd" clip-rule="evenodd" d="M336.413 131.839C342.166 135.161 342.196 140.544 336.481 143.866C330.764 147.188 321.47 147.188 315.717 143.866L298.208 133.757C292.455 130.435 292.424 125.052 298.14 121.73C303.856 118.409 313.15 118.409 318.904 121.73L336.413 131.839Z" fill="white"/>
<path fill-rule="evenodd" clip-rule="evenodd" d="M336.413 131.839C342.166 135.161 342.196 140.544 336.481 143.866C330.764 147.188 321.47 147.188 315.717 143.866L298.208 133.757C292.455 130.435 292.424 125.052 298.14 121.73C303.856 118.409 313.15 118.409 318.904 121.73L336.413 131.839Z" stroke="black" stroke-width="1.445" stroke-linecap="round" stroke-linejoin="round"/>
<path fill-rule="evenodd" clip-rule="evenodd" d="M317.931 118.68C320.477 120.15 321.757 122.077 321.768 124.004C321.776 125.929 320.52 127.855 317.991 129.326C315.462 130.795 312.141 131.529 308.817 131.53C305.49 131.53 302.159 130.795 299.613 129.326C297.067 127.855 295.79 125.93 295.778 124.003C295.768 122.076 297.026 120.151 299.555 118.682L299.373 118.576L299.555 118.682C302.085 117.212 305.403 116.477 308.73 116.477C312.056 116.477 315.385 117.21 317.931 118.68Z" fill="#FFB800"/>
<path fill-rule="evenodd" clip-rule="evenodd" d="M266.968 179.16C267.25 179.322 267.469 179.531 267.586 179.78L269.714 184.33C270.198 185.361 268.572 186.305 266.792 186.028L258.93 184.81C258.5 184.743 258.139 184.618 257.857 184.454C256.969 183.942 256.859 183.062 257.844 182.49L263.575 179.159C264.56 178.586 266.08 178.647 266.968 179.16Z" fill="#FFB800"/>
<path d="M255.478 16.999L277.623 29.785" stroke="black" stroke-width="2.8" stroke-linecap="round" stroke-linejoin="round"/>
<path fill-rule="evenodd" clip-rule="evenodd" d="M347.756 85.0212C350.393 86.5441 350.407 89.0152 347.787 90.5381L339.435 95.3926C336.812 96.9167 332.545 96.9167 329.908 95.3932L323.571 91.7349L317.921 91.7355L317.9 88.4615L295.781 75.6906C293.141 74.1665 293.127 71.6954 295.75 70.1713L304.103 65.3168C306.723 63.7939 310.989 63.7939 313.629 65.318L347.756 85.0212Z" fill="#FFB800"/>
<path fill-rule="evenodd" clip-rule="evenodd" d="M331.528 79.2744C332.409 79.783 332.414 80.6087 331.538 81.1174C330.662 81.6266 329.237 81.6266 328.356 81.1174L308.078 69.4105C307.196 68.9019 307.196 68.078 308.072 67.57C308.948 67.0607 310.369 67.0577 311.25 67.5669L331.528 79.2744Z" fill="#FFEEC2"/>
<path fill-rule="evenodd" clip-rule="evenodd" d="M316.725 76.6899C317.606 77.1991 317.611 78.0248 316.735 78.5334C315.859 79.0426 314.434 79.0426 313.553 78.5334L302.93 72.4004C302.049 71.8918 302.049 71.0691 302.924 70.5599C303.8 70.0507 305.221 70.0483 306.103 70.5575L316.725 76.6899Z" fill="#FFEEC2"/>
<mask id="mask3" mask-type="alpha" maskUnits="userSpaceOnUse" x="14" y="5" width="485" height="281">
<path d="M469.9 74.3936C469.896 74.3955 469.893 74.3973 469.89 74.3992C466.936 76.1155 463.148 76.9329 459.432 76.9329C455.715 76.9329 451.92 76.1153 448.951 74.4011L379.547 34.3318L380.247 33.1193L379.547 34.3317C376.587 32.6222 374.783 30.1886 374.77 27.4665C374.757 24.7412 376.542 22.3 379.495 20.5834L379.498 20.5819L380.69 19.892L372.424 15.1191L363.843 10.165L364.543 8.95253L363.843 10.1649C359.543 7.68193 353.831 6.40044 348.051 6.4C342.272 6.39956 336.577 7.68036 332.308 10.1611L331.605 8.95073L332.308 10.1612L21.4699 190.8C17.1949 193.285 15.3837 196.345 15.4001 199.121C15.4166 201.902 17.2688 204.969 21.5776 207.457C21.5776 207.457 21.5776 207.457 21.5777 207.457L20.8776 208.67L469.9 74.3936ZM469.9 74.3936C469.904 74.3913 469.908 74.3889 469.912 74.3864" fill="white" stroke="black" stroke-width="2.8" stroke-linecap="round" stroke-linejoin="round"/>
</mask>
<g mask="url(#mask3)">
<path fill-rule="evenodd" clip-rule="evenodd" d="M52.9536 153.257L15.2749 175.154C11.0779 177.592 11.1002 181.546 15.3241 183.985L75.7957 218.898C80.0203 221.337 86.8462 221.337 91.0432 218.898L128.722 197.002C132.919 194.562 132.892 190.611 128.668 188.172L68.1963 153.26C66.0831 152.039 63.3196 151.429 60.5597 151.429C57.8033 151.429 55.0506 152.038 52.9536 153.257Z" fill="#FFEEC2"/>
</g>
<path fill-rule="evenodd" clip-rule="evenodd" d="M137.256 199.382L99.5775 221.279C95.3812 223.717 95.4022 227.671 99.6274 230.11L160.098 265.023C164.323 267.462 171.149 267.462 175.346 265.023L213.025 243.127C217.222 240.687 217.195 236.736 212.971 234.297L152.5 199.384C150.386 198.164 147.623 197.554 144.863 197.554C142.107 197.554 139.353 198.163 137.256 199.382Z" fill="#FFEEC2"/>
<mask id="mask4" mask-type="alpha" maskUnits="userSpaceOnUse" x="14" y="5" width="485" height="281">
<path d="M469.9 74.3936C469.896 74.3955 469.893 74.3973 469.89 74.3992C466.936 76.1155 463.148 76.9329 459.432 76.9329C455.715 76.9329 451.92 76.1153 448.951 74.4011L379.547 34.3318L380.247 33.1193L379.547 34.3317C376.587 32.6222 374.783 30.1886 374.77 27.4665C374.757 24.7412 376.542 22.3 379.495 20.5834L379.498 20.5819L380.69 19.892L372.424 15.1191L363.843 10.165L364.543 8.95253L363.843 10.1649C359.543 7.68193 353.831 6.40044 348.051 6.4C342.272 6.39956 336.577 7.68036 332.308 10.1611L331.605 8.95073L332.308 10.1612L21.4699 190.8C17.1949 193.285 15.3837 196.345 15.4001 199.121C15.4166 201.902 17.2688 204.969 21.5776 207.457C21.5776 207.457 21.5776 207.457 21.5777 207.457L20.8776 208.67L469.9 74.3936ZM469.9 74.3936C469.904 74.3913 469.908 74.3889 469.912 74.3864" fill="white" stroke="black" stroke-width="2.8" stroke-linecap="round" stroke-linejoin="round"/>
</mask>
<g mask="url(#mask4)">
<path fill-rule="evenodd" clip-rule="evenodd" d="M221.56 245.526L183.881 267.423C179.684 269.861 179.707 273.815 183.931 276.254L244.402 311.167C248.627 313.606 255.453 313.606 259.65 311.167L297.328 289.271C301.525 286.832 301.499 282.88 297.274 280.441L236.803 245.528C234.69 244.308 231.927 243.697 229.167 243.697C226.41 243.698 223.657 244.307 221.56 245.526Z" fill="#FFEEC2"/>
</g>
<path fill-rule="evenodd" clip-rule="evenodd" d="M297.526 268.744C301.751 271.183 301.777 275.134 297.58 277.573L259.901 299.47C255.705 301.909 248.879 301.909 244.654 299.47L184.183 264.556C179.958 262.118 179.936 258.164 184.133 255.725L221.811 233.828C226.009 231.389 232.831 231.392 237.055 233.83L297.526 268.744Z" fill="white"/>
<path fill-rule="evenodd" clip-rule="evenodd" d="M297.274 268.947C301.499 271.386 301.525 275.337 297.328 277.776L259.65 299.673C255.453 302.112 248.627 302.112 244.402 299.673L183.931 264.759C179.707 262.321 179.684 258.367 183.881 255.928L221.559 234.031C225.757 231.592 232.579 231.595 236.803 234.033L297.274 268.947Z" stroke="black" stroke-width="2.8" stroke-linecap="round" stroke-linejoin="round"/>
<path fill-rule="evenodd" clip-rule="evenodd" d="M212.972 215.312C217.196 217.751 217.223 221.703 213.026 224.141L175.347 246.038C171.15 248.477 164.324 248.477 160.099 246.038L99.6278 211.125C95.4039 208.686 95.3816 204.732 99.5786 202.292L137.257 180.396C141.454 177.957 148.276 177.96 152.501 180.399L212.972 215.312Z" fill="white"/>
<path fill-rule="evenodd" clip-rule="evenodd" d="M212.972 215.312C217.196 217.751 217.223 221.703 213.026 224.141L175.347 246.038C171.15 248.477 164.324 248.477 160.099 246.038L99.6278 211.125C95.4039 208.686 95.3816 204.732 99.5786 202.292L137.257 180.396C141.454 177.957 148.276 177.96 152.501 180.399L212.972 215.312Z" stroke="black" stroke-width="2.8" stroke-linecap="round" stroke-linejoin="round"/>
<path fill-rule="evenodd" clip-rule="evenodd" d="M128.668 160.11C132.892 162.549 132.919 166.5 128.722 168.939L91.0431 190.836C86.8462 193.275 80.0202 193.275 75.7956 190.836L15.3246 155.923C11.1001 153.484 11.0779 149.53 15.2748 147.091L52.9536 125.194C57.1505 122.755 63.9723 122.758 68.1968 125.196L128.668 160.11Z" fill="white"/>
<path fill-rule="evenodd" clip-rule="evenodd" d="M128.668 160.11C132.892 162.549 132.919 166.5 128.722 168.939L91.0431 190.836C86.8462 193.275 80.0202 193.275 75.7956 190.836L15.3246 155.923C11.1001 153.484 11.0779 149.53 15.2748 147.091L52.9536 125.194C57.1505 122.755 63.9723 122.758 68.1968 125.196L128.668 160.11Z" stroke="black" stroke-width="2.8" stroke-linecap="round" stroke-linejoin="round"/>
<path d="M269.801 157.474L217.903 187.633" stroke="black" stroke-width="1.445" stroke-linecap="round" stroke-linejoin="round"/>
<path fill-rule="evenodd" clip-rule="evenodd" d="M221.255 285.774C221.255 285.774 228.122 291.029 235.974 288.893C243.826 286.757 251.558 286.444 255.253 288.352C258.949 290.26 267.185 294.823 273.067 291.405C273.067 291.405 262.989 298.873 259.65 299.673C256.311 300.471 251.976 304.687 239.761 296.968C230.203 290.926 221.255 285.774 221.255 285.774Z" fill="black"/>
<path fill-rule="evenodd" clip-rule="evenodd" d="M78.4118 142.816C80.3089 143.911 80.3187 145.688 78.4344 146.783C76.5493 147.879 73.4818 147.879 71.5847 146.783L56.0069 137.789C54.1068 136.693 54.0993 134.917 55.9844 133.822C57.8687 132.726 60.9347 132.726 62.8341 133.822L78.4118 142.816Z" fill="#FFB800"/>
<path fill-rule="evenodd" clip-rule="evenodd" d="M85.3581 161.385C87.2552 162.48 87.265 164.257 85.3806 165.353C83.4933 166.45 80.4273 166.448 78.5309 165.353L45.431 146.243C43.5317 145.147 43.5219 143.372 45.4085 142.275C47.2936 141.18 50.3596 141.178 52.2582 142.275L85.3581 161.385Z" fill="#FFEEC2"/>
<path fill-rule="evenodd" clip-rule="evenodd" d="M177.905 205.735C179.801 206.83 179.811 208.606 177.927 209.702C176.04 210.798 172.975 210.797 171.078 209.702L141.784 192.788C139.886 191.692 139.875 189.918 141.762 188.822C143.646 187.727 146.711 187.726 148.61 188.822L177.905 205.735Z" fill="#FFEEC2"/>
<path fill-rule="evenodd" clip-rule="evenodd" d="M151.83 204.993C153.727 206.088 153.737 207.865 151.853 208.96C149.968 210.055 146.901 210.055 145.004 208.96L129.43 199.968C127.531 198.872 127.523 197.096 129.408 196.001C131.292 194.906 134.357 194.905 136.256 196.001L151.83 204.993Z" fill="#FFB800"/>
<path fill-rule="evenodd" clip-rule="evenodd" d="M177.09 220.337C178.986 221.432 178.996 223.208 177.112 224.304C175.228 225.399 172.161 225.399 170.264 224.304L154.69 215.312C152.791 214.216 152.783 212.44 154.667 211.345C156.551 210.25 159.617 210.249 161.516 211.345L177.09 220.337Z" fill="#FFB800"/>
<path fill-rule="evenodd" clip-rule="evenodd" d="M270.783 264.959C273.009 266.244 273.02 268.33 270.809 269.614C268.598 270.899 264.998 270.899 262.772 269.614L224.669 247.616C222.443 246.331 222.443 244.252 224.655 242.967C226.866 241.682 230.455 241.676 232.681 242.961L270.783 264.959Z" fill="#FFEEC2"/>
<path fill-rule="evenodd" clip-rule="evenodd" d="M246.507 266.002C248.734 267.287 248.745 269.372 246.534 270.657C244.322 271.943 240.722 271.943 238.496 270.657L211.672 255.17C209.446 253.884 209.445 251.807 211.657 250.521C213.868 249.236 217.456 249.229 219.682 250.514L246.507 266.002Z" fill="#FFB800"/>
</svg>
