<svg width="506" height="930" viewBox="0 0 506 930" fill="none" xmlns="http://www.w3.org/2000/svg">
<mask id="mask0" mask-type="alpha" maskUnits="userSpaceOnUse" x="0" y="0" width="506" height="930">
<rect width="506" height="930" fill="#FFF9EB"/>
</mask>
<g mask="url(#mask0)">
<rect width="506" height="930" fill="#FFEEC2"/>
<mask id="mask1" mask-type="alpha" maskUnits="userSpaceOnUse" x="-30" y="407" width="507" height="309">
<path fill-rule="evenodd" clip-rule="evenodd" d="M476.817 503.921C476.577 502.245 476.513 501.794 476.047 500.124C475.78 499.166 474.95 496.833 473.719 494.855C473.083 493.835 471.9 491.935 469.549 489.698C468.887 489.07 467.964 488.272 467.231 487.73C466.271 487.02 464.93 486.159 463.915 485.53C421.68 461.145 379.444 436.761 337.209 412.376C334.905 411.064 333.196 410.381 332.878 410.258C331.661 409.786 330.013 409.225 328.77 408.829C328.118 408.623 327.228 408.418 326.563 408.253C325.256 407.93 322.871 407.526 322.175 407.448C321.509 407.373 320.623 407.244 319.955 407.199C316.972 407 316.972 407 315.476 407C314.132 407.001 312.342 407.108 311.002 407.198C310.326 407.244 309.432 407.374 308.759 407.45C308.12 407.523 305.781 407.909 304.322 408.271C303.624 408.444 302.692 408.665 302.009 408.884C300.77 409.284 299.133 409.86 297.92 410.333C297.216 410.607 296.307 411.047 295.629 411.383C295.058 411.665 294.322 412.089 293.762 412.391C293.825 412.355 293.893 412.329 293.957 412.296C293.893 412.33 293.824 412.355 293.761 412.391L262.677 430.456L231.594 448.519L200.51 466.583L169.426 484.647L138.342 502.711L107.258 520.775L76.1743 538.839L45.0909 556.903L14.0063 574.968L-17.0771 593.031C-16.9492 592.957 -16.8141 592.899 -16.6796 592.839C-16.8147 592.899 -16.9498 592.958 -17.0783 593.032C-17.8686 593.509 -18.9213 594.154 -19.6623 594.705C-20.5865 595.391 -21.7773 596.367 -22.621 597.15C-23.9427 598.38 -25.4944 600.245 -26.3946 601.69C-26.914 602.524 -27.5716 603.663 -27.9679 604.562C-28.2465 605.195 -28.5864 606.052 -28.8188 606.703C-28.9791 607.153 -29.1395 607.77 -29.2758 608.229C-29.483 608.922 -29.6637 609.875 -29.7568 610.593C-29.8793 611.538 -29.9556 612.807 -29.9922 613.758L-30 616.478C-29.9928 617.137 -29.952 618.017 -29.8973 618.675C-29.8589 619.146 -29.7532 619.768 -29.6901 620.237C-29.6007 620.905 -29.3929 621.784 -29.2037 622.431C-29.0026 623.119 -28.6975 624.026 -28.4459 624.697C-28.2759 625.15 -27.9979 625.732 -27.8009 626.173C-27.4629 626.931 -26.8942 627.887 -26.4552 628.592C-26.2498 628.921 -25.4884 630.103 -24.303 631.469C-23.5866 632.294 -22.5249 633.299 -21.7244 634.044C-20.8873 634.822 -19.6233 635.688 -18.6907 636.35C-18.1916 636.704 -17.477 637.102 -16.957 637.424C-17.0711 637.358 -17.1744 637.271 -17.2825 637.194C-17.1738 637.271 -17.0705 637.359 -16.9564 637.425L-4.28572 644.74L8.38496 652.056L21.0556 659.371L33.7263 666.687L46.397 674.002L59.0671 681.317L71.7384 688.633L84.4085 695.947L97.0791 703.263L109.749 710.578L109.75 710.579C112.055 711.891 113.762 712.574 114.081 712.697C115.298 713.169 116.946 713.731 118.189 714.125C118.841 714.333 119.731 714.537 120.395 714.702C121.703 715.026 124.088 715.429 124.783 715.508C125.449 715.583 126.335 715.711 127.004 715.756C129.984 715.955 129.984 715.955 131.482 715.954C132.825 715.954 134.615 715.846 135.955 715.756C136.631 715.711 137.525 715.58 138.198 715.504C138.837 715.431 141.176 715.045 142.635 714.683C143.332 714.51 144.265 714.289 144.948 714.068C146.186 713.67 147.824 713.094 149.036 712.62C149.741 712.345 150.65 711.906 151.327 711.57C151.898 711.287 152.634 710.865 153.194 710.563C153.322 710.487 153.44 710.391 153.562 710.302C153.44 710.391 153.323 710.487 153.195 710.561L184.279 692.498L215.362 674.434L246.446 656.37L277.53 638.306L308.613 620.242L339.698 602.178L370.782 584.114L401.866 566.05L432.95 547.986L464.033 529.922C464.123 529.87 464.204 529.799 464.291 529.74C464.204 529.799 464.124 529.87 464.034 529.922C465.006 529.318 466.299 528.504 467.21 527.81C468.111 527.123 469.247 526.121 470.06 525.331C470.707 524.702 471.506 523.795 472.056 523.08C472.672 522.281 473.408 521.151 473.942 520.295C474.326 519.678 474.766 518.809 475.04 518.136C475.84 516.159 475.84 516.159 476.29 514.501C476.462 513.866 476.633 513.004 476.715 512.352C476.792 511.729 476.852 510.968 476.896 510.247C476.928 509.896 476.949 509.545 476.95 509.194L476.957 506.474C476.955 506.025 476.908 504.558 476.817 503.921Z" fill="white"/>
</mask>
<g mask="url(#mask1)">
<path d="M-96 581.5L1027.4 -70" stroke="black" stroke-width="1.445" stroke-linecap="round" stroke-linejoin="round"/>
<path d="M-96 593.3L1027.4 -58.2002" stroke="black" stroke-width="1.445" stroke-linecap="round" stroke-linejoin="round"/>
<path d="M-96 605.1L1027.4 -46.3999" stroke="black" stroke-width="1.445" stroke-linecap="round" stroke-linejoin="round"/>
<path d="M-96 616.9L1027.4 -34.7002" stroke="black" stroke-width="1.445" stroke-linecap="round" stroke-linejoin="round"/>
<path d="M-96 628.6L1027.4 -22.8999" stroke="black" stroke-width="1.445" stroke-linecap="round" stroke-linejoin="round"/>
<path d="M-96 640.4L1027.4 -11.1001" stroke="black" stroke-width="1.445" stroke-linecap="round" stroke-linejoin="round"/>
<path d="M-96 652.2L1027.4 0.700195" stroke="black" stroke-width="1.445" stroke-linecap="round" stroke-linejoin="round"/>
<path d="M-96 664L1027.4 12.5" stroke="black" stroke-width="1.445" stroke-linecap="round" stroke-linejoin="round"/>
<path d="M-96 675.7L1027.4 24.2002" stroke="black" stroke-width="1.445" stroke-linecap="round" stroke-linejoin="round"/>
<path d="M-96 687.5L1027.4 36" stroke="black" stroke-width="1.445" stroke-linecap="round" stroke-linejoin="round"/>
<path d="M-96 699.3L1027.4 47.7998" stroke="black" stroke-width="1.445" stroke-linecap="round" stroke-linejoin="round"/>
<path d="M-96 711.1L1027.4 59.6001" stroke="black" stroke-width="1.445" stroke-linecap="round" stroke-linejoin="round"/>
<path d="M-96 722.8L1027.4 71.2998" stroke="black" stroke-width="1.445" stroke-linecap="round" stroke-linejoin="round"/>
<path d="M-96 734.6L1027.4 83.1001" stroke="black" stroke-width="1.445" stroke-linecap="round" stroke-linejoin="round"/>
<path d="M-96 746.4L1027.4 94.8999" stroke="black" stroke-width="1.445" stroke-linecap="round" stroke-linejoin="round"/>
<path d="M-96 758.2L1027.4 106.7" stroke="black" stroke-width="1.445" stroke-linecap="round" stroke-linejoin="round"/>
<path d="M-96 769.9L1027.4 118.4" stroke="black" stroke-width="1.445" stroke-linecap="round" stroke-linejoin="round"/>
<path d="M-96 781.7L1027.4 130.2" stroke="black" stroke-width="1.445" stroke-linecap="round" stroke-linejoin="round"/>
<path d="M-96 793.5L1027.4 142" stroke="black" stroke-width="1.445" stroke-linecap="round" stroke-linejoin="round"/>
<path d="M-96 805.3L1027.4 153.8" stroke="black" stroke-width="1.445" stroke-linecap="round" stroke-linejoin="round"/>
<path d="M-96 817.1L1027.4 165.5" stroke="black" stroke-width="1.445" stroke-linecap="round" stroke-linejoin="round"/>
<path d="M-96 828.8L1027.4 177.3" stroke="black" stroke-width="1.445" stroke-linecap="round" stroke-linejoin="round"/>
<path d="M-96 840.6L1027.4 189.1" stroke="black" stroke-width="1.445" stroke-linecap="round" stroke-linejoin="round"/>
<path d="M-96 852.4L1027.4 200.9" stroke="black" stroke-width="1.445" stroke-linecap="round" stroke-linejoin="round"/>
<path d="M-96 864.2L1027.4 212.6" stroke="black" stroke-width="1.445" stroke-linecap="round" stroke-linejoin="round"/>
<path d="M-96 875.9L1027.4 224.4" stroke="black" stroke-width="1.445" stroke-linecap="round" stroke-linejoin="round"/>
<path d="M-96 887.7L1027.4 236.2" stroke="black" stroke-width="1.445" stroke-linecap="round" stroke-linejoin="round"/>
<path d="M-96 899.5L1027.4 248" stroke="black" stroke-width="1.445" stroke-linecap="round" stroke-linejoin="round"/>
<path d="M-96 911.3L1027.4 259.7" stroke="black" stroke-width="1.445" stroke-linecap="round" stroke-linejoin="round"/>
<path d="M-96 923L1027.4 271.5" stroke="black" stroke-width="1.445" stroke-linecap="round" stroke-linejoin="round"/>
<path d="M-96 934.8L1027.4 283.3" stroke="black" stroke-width="1.445" stroke-linecap="round" stroke-linejoin="round"/>
<path d="M-96 946.6L1027.4 295.1" stroke="black" stroke-width="1.445" stroke-linecap="round" stroke-linejoin="round"/>
<path d="M-96 958.4L1027.4 306.8" stroke="black" stroke-width="1.445" stroke-linecap="round" stroke-linejoin="round"/>
<path d="M-96 970.1L1027.4 318.6" stroke="black" stroke-width="1.445" stroke-linecap="round" stroke-linejoin="round"/>
<path d="M-96 981.9L1027.4 330.4" stroke="black" stroke-width="1.445" stroke-linecap="round" stroke-linejoin="round"/>
<path d="M-96 993.7L1027.4 342.2" stroke="black" stroke-width="1.445" stroke-linecap="round" stroke-linejoin="round"/>
<path d="M-96 1005.5L1027.4 353.9" stroke="black" stroke-width="1.445" stroke-linecap="round" stroke-linejoin="round"/>
<path d="M-96 1017.2L1027.4 365.7" stroke="black" stroke-width="1.445" stroke-linecap="round" stroke-linejoin="round"/>
<path d="M-96 1029L1027.4 377.5" stroke="black" stroke-width="1.445" stroke-linecap="round" stroke-linejoin="round"/>
<path d="M-96 1040.8L1027.4 389.3" stroke="black" stroke-width="1.445" stroke-linecap="round" stroke-linejoin="round"/>
<path d="M-96 1052.6L1027.4 401.1" stroke="black" stroke-width="1.445" stroke-linecap="round" stroke-linejoin="round"/>
<path d="M-96 1064.3L1027.4 412.8" stroke="black" stroke-width="1.445" stroke-linecap="round" stroke-linejoin="round"/>
<path d="M-96 1076.1L1027.4 424.6" stroke="black" stroke-width="1.445" stroke-linecap="round" stroke-linejoin="round"/>
<path d="M-96 1087.9L1027.4 436.4" stroke="black" stroke-width="1.445" stroke-linecap="round" stroke-linejoin="round"/>
<path d="M-96 1099.7L1027.4 448.2" stroke="black" stroke-width="1.445" stroke-linecap="round" stroke-linejoin="round"/>
<path d="M-96 1111.4L1027.4 459.9" stroke="black" stroke-width="1.445" stroke-linecap="round" stroke-linejoin="round"/>
<path d="M-96 1123.2L1027.4 471.7" stroke="black" stroke-width="1.445" stroke-linecap="round" stroke-linejoin="round"/>
<path d="M-96 1135L1027.4 483.5" stroke="black" stroke-width="1.445" stroke-linecap="round" stroke-linejoin="round"/>
<path d="M-96 1146.8L1027.4 495.3" stroke="black" stroke-width="1.445" stroke-linecap="round" stroke-linejoin="round"/>
<path d="M-96 1158.6L1027.4 507" stroke="black" stroke-width="1.445" stroke-linecap="round" stroke-linejoin="round"/>
<path d="M-96 1170.3L1027.4 518.8" stroke="black" stroke-width="1.445" stroke-linecap="round" stroke-linejoin="round"/>
<path d="M-96 1182.1L1027.4 530.6" stroke="black" stroke-width="1.445" stroke-linecap="round" stroke-linejoin="round"/>
<path d="M-96 1193.9L1027.4 542.4" stroke="black" stroke-width="1.445" stroke-linecap="round" stroke-linejoin="round"/>
<path d="M-96 1205.7L1027.4 554.1" stroke="black" stroke-width="1.445" stroke-linecap="round" stroke-linejoin="round"/>
<path d="M-96 1217.4L1027.4 565.9" stroke="black" stroke-width="1.445" stroke-linecap="round" stroke-linejoin="round"/>
<path d="M-96 1229.2L1027.4 577.7" stroke="black" stroke-width="1.445" stroke-linecap="round" stroke-linejoin="round"/>
<path d="M-96 1241L1027.4 589.5" stroke="black" stroke-width="1.445" stroke-linecap="round" stroke-linejoin="round"/>
<path d="M-96 1252.8L1027.4 601.2" stroke="black" stroke-width="1.445" stroke-linecap="round" stroke-linejoin="round"/>
<path d="M-96 1264.5L1027.4 613" stroke="black" stroke-width="1.445" stroke-linecap="round" stroke-linejoin="round"/>
<path d="M-96 1276.3L1027.4 624.8" stroke="black" stroke-width="1.445" stroke-linecap="round" stroke-linejoin="round"/>
<path d="M-96 1288.1L1027.4 636.6" stroke="black" stroke-width="1.445" stroke-linecap="round" stroke-linejoin="round"/>
<path d="M-96 1299.9L1027.4 648.3" stroke="black" stroke-width="1.445" stroke-linecap="round" stroke-linejoin="round"/>
<path d="M-96 1311.6L1027.4 660.1" stroke="black" stroke-width="1.445" stroke-linecap="round" stroke-linejoin="round"/>
<path d="M-96 1323.4L1027.4 671.9" stroke="black" stroke-width="1.445" stroke-linecap="round" stroke-linejoin="round"/>
<path d="M-96 1335.2L1027.4 683.7" stroke="black" stroke-width="1.445" stroke-linecap="round" stroke-linejoin="round"/>
<path d="M-96 1347L1027.4 695.4" stroke="black" stroke-width="1.445" stroke-linecap="round" stroke-linejoin="round"/>
<path d="M-96 1358.7L1027.4 707.2" stroke="black" stroke-width="1.445" stroke-linecap="round" stroke-linejoin="round"/>
</g>
<mask id="path-71-inside-1" fill="white">
<path fill-rule="evenodd" clip-rule="evenodd" d="M476.817 422.19C476.577 420.514 476.513 420.063 476.047 418.393C475.78 417.435 474.95 415.102 473.719 413.124C473.083 412.104 471.9 410.204 469.549 407.967C468.887 407.339 467.964 406.541 467.231 405.999C466.271 405.289 464.93 404.428 463.915 403.799C421.68 379.414 379.444 355.03 337.209 330.645C334.905 329.333 333.196 328.65 332.878 328.527C331.661 328.055 330.013 327.494 328.77 327.098C328.118 326.892 327.228 326.687 326.563 326.522C325.256 326.199 322.871 325.795 322.175 325.717C321.509 325.642 320.623 325.513 319.955 325.468C316.972 325.269 316.972 325.269 315.476 325.269C314.132 325.27 312.342 325.377 311.002 325.467C310.326 325.513 309.432 325.643 308.759 325.719C308.12 325.792 305.781 326.178 304.322 326.54C303.624 326.713 302.692 326.934 302.009 327.153C300.77 327.553 299.133 328.129 297.92 328.602C297.216 328.876 296.307 329.316 295.629 329.652C295.058 329.934 294.322 330.358 293.762 330.66C293.825 330.624 293.893 330.599 293.957 330.566C293.893 330.599 293.824 330.624 293.761 330.66L262.677 348.725L231.594 366.788L200.51 384.852L169.426 402.916L138.342 420.98L107.258 439.044L76.1743 457.108L45.0909 475.172L14.0063 493.237L-17.0771 511.3C-16.9492 511.226 -16.8141 511.168 -16.6796 511.108C-16.8147 511.168 -16.9498 511.227 -17.0783 511.301C-17.8686 511.778 -18.9213 512.423 -19.6623 512.974C-20.5865 513.66 -21.7773 514.636 -22.621 515.419C-23.9427 516.649 -25.4944 518.514 -26.3946 519.959C-26.914 520.793 -27.5716 521.932 -27.9679 522.831C-28.2465 523.464 -28.5864 524.321 -28.8188 524.972C-28.9791 525.422 -29.1395 526.039 -29.2758 526.498C-29.483 527.191 -29.6637 528.144 -29.7568 528.862C-29.8793 529.807 -29.9556 531.076 -29.9922 532.027L-30 534.747C-29.9928 535.406 -29.952 536.286 -29.8973 536.944C-29.8589 537.415 -29.7532 538.037 -29.6901 538.506C-29.6007 539.174 -29.3929 540.053 -29.2037 540.7C-29.0026 541.388 -28.6975 542.295 -28.4459 542.966C-28.2759 543.419 -27.9979 544.001 -27.8009 544.442C-27.4629 545.2 -26.8942 546.156 -26.4552 546.861C-26.2498 547.19 -25.4884 548.372 -24.303 549.738C-23.5866 550.563 -22.5249 551.568 -21.7244 552.313C-20.8873 553.091 -19.6233 553.957 -18.6907 554.619C-18.1916 554.973 -17.477 555.371 -16.957 555.693C-17.0711 555.627 -17.1744 555.54 -17.2825 555.464C-17.1738 555.54 -17.0705 555.628 -16.9564 555.694L-4.28572 563.009L8.38496 570.325L21.0556 577.64L33.7263 584.956L46.397 592.271L59.0671 599.586L71.7384 606.902L84.4085 614.216L97.0791 621.532L109.749 628.847L109.75 628.848C112.055 630.16 113.762 630.843 114.081 630.966C115.298 631.438 116.946 632 118.189 632.394C118.841 632.602 119.731 632.806 120.395 632.971C121.703 633.295 124.088 633.698 124.783 633.777C125.449 633.852 126.335 633.98 127.004 634.025C129.984 634.224 129.984 634.224 131.482 634.224C132.825 634.224 134.615 634.115 135.955 634.025C136.631 633.98 137.525 633.849 138.198 633.773C138.837 633.7 141.176 633.314 142.635 632.952C143.332 632.779 144.265 632.558 144.948 632.337C146.186 631.939 147.824 631.363 149.036 630.89C149.741 630.615 150.65 630.175 151.327 629.839C151.898 629.556 152.634 629.134 153.194 628.832C153.322 628.757 153.44 628.66 153.562 628.571C153.44 628.66 153.323 628.757 153.195 628.83L184.279 610.767L215.362 592.703L246.446 574.639L277.53 556.575L308.613 538.511L339.698 520.447L370.782 502.383L401.866 484.319L432.95 466.255L464.033 448.191C464.123 448.139 464.204 448.068 464.291 448.009C464.204 448.068 464.124 448.139 464.034 448.191C465.006 447.587 466.299 446.773 467.21 446.079C468.111 445.393 469.247 444.39 470.06 443.6C470.707 442.971 471.506 442.065 472.056 441.349C472.672 440.55 473.408 439.42 473.942 438.564C474.326 437.947 474.766 437.078 475.04 436.405C475.84 434.428 475.84 434.428 476.29 432.77C476.462 432.135 476.633 431.273 476.715 430.621C476.792 429.998 476.852 429.237 476.896 428.516C476.928 428.165 476.949 427.814 476.95 427.463L476.957 424.744C476.955 424.294 476.908 422.827 476.817 422.19Z"/>
</mask>
<path fill-rule="evenodd" clip-rule="evenodd" d="M476.817 422.19C476.577 420.514 476.513 420.063 476.047 418.393C475.78 417.435 474.95 415.102 473.719 413.124C473.083 412.104 471.9 410.204 469.549 407.967C468.887 407.339 467.964 406.541 467.231 405.999C466.271 405.289 464.93 404.428 463.915 403.799C421.68 379.414 379.444 355.03 337.209 330.645C334.905 329.333 333.196 328.65 332.878 328.527C331.661 328.055 330.013 327.494 328.77 327.098C328.118 326.892 327.228 326.687 326.563 326.522C325.256 326.199 322.871 325.795 322.175 325.717C321.509 325.642 320.623 325.513 319.955 325.468C316.972 325.269 316.972 325.269 315.476 325.269C314.132 325.27 312.342 325.377 311.002 325.467C310.326 325.513 309.432 325.643 308.759 325.719C308.12 325.792 305.781 326.178 304.322 326.54C303.624 326.713 302.692 326.934 302.009 327.153C300.77 327.553 299.133 328.129 297.92 328.602C297.216 328.876 296.307 329.316 295.629 329.652C295.058 329.934 294.322 330.358 293.762 330.66C293.825 330.624 293.893 330.599 293.957 330.566C293.893 330.599 293.824 330.624 293.761 330.66L262.677 348.725L231.594 366.788L200.51 384.852L169.426 402.916L138.342 420.98L107.258 439.044L76.1743 457.108L45.0909 475.172L14.0063 493.237L-17.0771 511.3C-16.9492 511.226 -16.8141 511.168 -16.6796 511.108C-16.8147 511.168 -16.9498 511.227 -17.0783 511.301C-17.8686 511.778 -18.9213 512.423 -19.6623 512.974C-20.5865 513.66 -21.7773 514.636 -22.621 515.419C-23.9427 516.649 -25.4944 518.514 -26.3946 519.959C-26.914 520.793 -27.5716 521.932 -27.9679 522.831C-28.2465 523.464 -28.5864 524.321 -28.8188 524.972C-28.9791 525.422 -29.1395 526.039 -29.2758 526.498C-29.483 527.191 -29.6637 528.144 -29.7568 528.862C-29.8793 529.807 -29.9556 531.076 -29.9922 532.027L-30 534.747C-29.9928 535.406 -29.952 536.286 -29.8973 536.944C-29.8589 537.415 -29.7532 538.037 -29.6901 538.506C-29.6007 539.174 -29.3929 540.053 -29.2037 540.7C-29.0026 541.388 -28.6975 542.295 -28.4459 542.966C-28.2759 543.419 -27.9979 544.001 -27.8009 544.442C-27.4629 545.2 -26.8942 546.156 -26.4552 546.861C-26.2498 547.19 -25.4884 548.372 -24.303 549.738C-23.5866 550.563 -22.5249 551.568 -21.7244 552.313C-20.8873 553.091 -19.6233 553.957 -18.6907 554.619C-18.1916 554.973 -17.477 555.371 -16.957 555.693C-17.0711 555.627 -17.1744 555.54 -17.2825 555.464C-17.1738 555.54 -17.0705 555.628 -16.9564 555.694L-4.28572 563.009L8.38496 570.325L21.0556 577.64L33.7263 584.956L46.397 592.271L59.0671 599.586L71.7384 606.902L84.4085 614.216L97.0791 621.532L109.749 628.847L109.75 628.848C112.055 630.16 113.762 630.843 114.081 630.966C115.298 631.438 116.946 632 118.189 632.394C118.841 632.602 119.731 632.806 120.395 632.971C121.703 633.295 124.088 633.698 124.783 633.777C125.449 633.852 126.335 633.98 127.004 634.025C129.984 634.224 129.984 634.224 131.482 634.224C132.825 634.224 134.615 634.115 135.955 634.025C136.631 633.98 137.525 633.849 138.198 633.773C138.837 633.7 141.176 633.314 142.635 632.952C143.332 632.779 144.265 632.558 144.948 632.337C146.186 631.939 147.824 631.363 149.036 630.89C149.741 630.615 150.65 630.175 151.327 629.839C151.898 629.556 152.634 629.134 153.194 628.832C153.322 628.757 153.44 628.66 153.562 628.571C153.44 628.66 153.323 628.757 153.195 628.83L184.279 610.767L215.362 592.703L246.446 574.639L277.53 556.575L308.613 538.511L339.698 520.447L370.782 502.383L401.866 484.319L432.95 466.255L464.033 448.191C464.123 448.139 464.204 448.068 464.291 448.009C464.204 448.068 464.124 448.139 464.034 448.191C465.006 447.587 466.299 446.773 467.21 446.079C468.111 445.393 469.247 444.39 470.06 443.6C470.707 442.971 471.506 442.065 472.056 441.349C472.672 440.55 473.408 439.42 473.942 438.564C474.326 437.947 474.766 437.078 475.04 436.405C475.84 434.428 475.84 434.428 476.29 432.77C476.462 432.135 476.633 431.273 476.715 430.621C476.792 429.998 476.852 429.237 476.896 428.516C476.928 428.165 476.949 427.814 476.95 427.463L476.957 424.744C476.955 424.294 476.908 422.827 476.817 422.19Z" fill="white"/>
<path d="M336.505 331.856C337.174 332.244 338.031 332.017 338.419 331.349C338.808 330.68 338.581 329.824 337.913 329.435L336.505 331.856ZM337.398 329.184C336.691 328.87 335.864 329.189 335.551 329.895C335.237 330.602 335.555 331.429 336.262 331.743L337.398 329.184ZM337.913 329.435C337.707 329.316 337.489 329.224 337.398 329.184L336.262 331.743C336.428 331.817 336.467 331.833 336.505 331.856L337.913 329.435ZM476.817 422.19L479.589 421.793L479.589 421.792L476.817 422.19ZM476.047 418.393L478.744 417.641L478.744 417.641L476.047 418.393ZM473.719 413.124L471.342 414.604L471.342 414.605L473.719 413.124ZM469.549 407.967L471.478 405.938L471.477 405.937L469.549 407.967ZM467.231 405.999L465.565 408.25L465.567 408.251L467.231 405.999ZM463.915 403.799L465.39 401.419C465.365 401.404 465.34 401.389 465.315 401.374L463.915 403.799ZM337.209 330.645L338.609 328.221C338.604 328.218 338.6 328.215 338.595 328.213L337.209 330.645ZM332.878 328.527L331.866 331.138L331.869 331.139L332.878 328.527ZM328.77 327.098L329.619 324.43L329.613 324.428L328.77 327.098ZM326.563 326.522L325.89 329.24L325.891 329.24L326.563 326.522ZM322.175 325.717L321.862 328.499L321.863 328.5L322.175 325.717ZM319.955 325.468L320.143 322.674L320.141 322.674L319.955 325.468ZM315.476 325.269V322.469L315.475 322.469L315.476 325.269ZM311.002 325.467L310.814 322.674L310.813 322.674L311.002 325.467ZM308.759 325.719L308.444 322.937L308.443 322.937L308.759 325.719ZM304.322 326.54L304.996 329.258L304.997 329.258L304.322 326.54ZM302.009 327.153L301.153 324.487L301.149 324.489L302.009 327.153ZM297.92 328.602L298.937 331.211L298.938 331.21L297.92 328.602ZM295.629 329.652L296.87 332.162L296.871 332.161L295.629 329.652ZM293.762 330.66L292.363 328.234C291.037 328.999 290.571 330.688 291.317 332.024C292.064 333.361 293.745 333.851 295.092 333.124L293.762 330.66ZM293.957 330.566L295.255 333.046C296.622 332.331 297.153 330.645 296.442 329.276C295.732 327.907 294.049 327.37 292.677 328.075L293.957 330.566ZM293.761 330.66L292.372 328.229C292.366 328.233 292.36 328.236 292.354 328.24L293.761 330.66ZM262.677 348.725L264.084 351.146L264.084 351.146L262.677 348.725ZM231.594 366.788L230.187 364.367L230.187 364.367L231.594 366.788ZM200.51 384.852L201.917 387.273L201.917 387.273L200.51 384.852ZM169.426 402.916L168.019 400.495L168.019 400.495L169.426 402.916ZM138.342 420.98L139.749 423.401L139.749 423.401L138.342 420.98ZM107.258 439.044L105.851 436.623L107.258 439.044ZM76.1743 457.108L74.7675 454.687L74.7674 454.687L76.1743 457.108ZM45.0909 475.172L46.4978 477.593L46.4978 477.593L45.0909 475.172ZM14.0063 493.237L12.5994 490.816L12.5994 490.816L14.0063 493.237ZM-17.0771 511.3L-18.4858 508.881C-19.8219 509.658 -20.2748 511.372 -19.4975 512.708C-18.7202 514.045 -17.0069 514.498 -15.6702 513.721L-17.0771 511.3ZM-16.6796 511.108L-15.5381 513.665C-14.1269 513.034 -13.493 511.38 -14.1218 509.968C-14.7507 508.557 -16.4045 507.921 -17.8168 508.549L-16.6796 511.108ZM-17.0783 511.301L-18.4821 508.878C-18.4964 508.887 -18.5106 508.895 -18.5248 508.904L-17.0783 511.301ZM-19.6623 512.974L-17.9928 515.222L-17.991 515.221L-19.6623 512.974ZM-22.621 515.419L-24.5265 513.368L-24.5278 513.369L-22.621 515.419ZM-26.3946 519.959L-24.0182 521.44L-24.0181 521.44L-26.3946 519.959ZM-27.9679 522.831L-30.5299 521.702L-30.5302 521.702L-27.9679 522.831ZM-28.8188 524.972L-31.4558 524.031L-31.4562 524.032L-28.8188 524.972ZM-29.2758 526.498L-26.5931 527.3L-26.5918 527.296L-29.2758 526.498ZM-29.7568 528.862L-26.98 529.222L-26.98 529.222L-29.7568 528.862ZM-29.9922 532.027L-32.7901 531.919C-32.7914 531.952 -32.7921 531.986 -32.7922 532.019L-29.9922 532.027ZM-30 534.747L-32.8 534.739C-32.8 534.751 -32.8 534.764 -32.7998 534.777L-30 534.747ZM-29.8973 536.944L-27.1066 536.716L-27.1069 536.712L-29.8973 536.944ZM-29.6901 538.506L-26.9149 538.134L-26.9152 538.132L-29.6901 538.506ZM-29.2037 540.7L-31.8913 541.485L-31.8911 541.486L-29.2037 540.7ZM-28.4459 542.966L-31.0678 543.949L-31.0669 543.951L-28.4459 542.966ZM-27.8009 544.442L-25.2435 543.302L-25.2446 543.299L-27.8009 544.442ZM-26.4552 546.861L-24.0786 545.38L-24.0789 545.38L-26.4552 546.861ZM-24.303 549.738L-22.1881 547.903L-22.1885 547.902L-24.303 549.738ZM-21.7244 552.313L-23.6315 554.363L-23.6309 554.363L-21.7244 552.313ZM-18.6907 554.619L-17.0697 552.336L-17.0713 552.334L-18.6907 554.619ZM-16.957 555.693L-18.3503 558.122C-17.0248 558.882 -15.3343 558.439 -14.5519 557.127C-13.7694 555.814 -14.184 554.116 -15.4834 553.312L-16.957 555.693ZM-17.2825 555.464L-15.6658 553.177C-16.9272 552.285 -18.6728 552.584 -19.5665 553.844C-20.4602 555.104 -20.1642 556.85 -18.9051 557.745L-17.2825 555.464ZM-16.9564 555.694L-18.3593 558.117L-18.3564 558.119L-16.9564 555.694ZM-4.28572 563.009L-5.68571 565.434H-5.68571L-4.28572 563.009ZM8.38496 570.325L6.98497 572.75L6.98506 572.75L8.38496 570.325ZM21.0556 577.64L22.4557 575.215L22.4556 575.215L21.0556 577.64ZM33.7263 584.956L32.3262 587.38L32.3263 587.38L33.7263 584.956ZM46.397 592.271L47.7971 589.846L47.797 589.846L46.397 592.271ZM59.0671 599.586L57.6671 602.011L57.6672 602.011L59.0671 599.586ZM71.7384 606.902L73.1383 604.477H73.1383L71.7384 606.902ZM84.4085 614.216L85.8085 611.792L85.8084 611.792L84.4085 614.216ZM97.0791 621.532L95.6791 623.957L95.6791 623.957L97.0791 621.532ZM109.749 628.847L111.293 626.511C111.246 626.48 111.198 626.451 111.149 626.422L109.749 628.847ZM109.75 628.848L108.206 631.184C108.258 631.218 108.311 631.251 108.365 631.282L109.75 628.848ZM114.081 630.966L115.093 628.356L115.09 628.354L114.081 630.966ZM118.189 632.394L119.036 629.726L119.036 629.726L118.189 632.394ZM120.395 632.971L119.722 635.689L119.722 635.689L120.395 632.971ZM124.783 633.777L124.468 636.559L124.469 636.559L124.783 633.777ZM127.004 634.025L126.815 636.819L126.817 636.819L127.004 634.025ZM131.482 634.224V631.424H131.48L131.482 634.224ZM135.955 634.025L136.142 636.819L136.144 636.819L135.955 634.025ZM138.198 633.773L138.513 636.555L138.517 636.555L138.198 633.773ZM142.635 632.952L143.309 635.669L143.31 635.669L142.635 632.952ZM144.948 632.337L144.09 629.672L144.089 629.672L144.948 632.337ZM149.036 630.89L148.018 628.281L148.017 628.281L149.036 630.89ZM151.327 629.839L152.57 632.348L152.571 632.348L151.327 629.839ZM153.194 628.832L154.523 631.296C154.553 631.28 154.582 631.264 154.611 631.246L153.194 628.832ZM153.562 628.571L155.216 630.83C156.463 629.916 156.734 628.166 155.822 626.919C154.91 625.671 153.161 625.398 151.912 626.308L153.562 628.571ZM153.195 628.83L151.788 626.409C150.452 627.186 149.997 628.897 150.772 630.234C151.546 631.571 153.257 632.028 154.595 631.255L153.195 628.83ZM184.279 610.767L185.685 613.188L185.686 613.188L184.279 610.767ZM215.362 592.703L213.955 590.282L213.955 590.282L215.362 592.703ZM246.446 574.639L245.039 572.218L246.446 574.639ZM277.53 556.575L278.937 558.996L278.937 558.996L277.53 556.575ZM308.613 538.511L307.207 536.09L307.207 536.09L308.613 538.511ZM339.698 520.447L341.104 522.868L341.104 522.868L339.698 520.447ZM370.782 502.383L369.375 499.962L369.375 499.962L370.782 502.383ZM401.866 484.319L400.459 481.898L401.866 484.319ZM432.95 466.255L434.356 468.676L434.356 468.676L432.95 466.255ZM464.033 448.191L462.628 445.769L462.626 445.771L464.033 448.191ZM465.877 450.316C467.151 449.44 467.474 447.697 466.598 446.423C465.722 445.148 463.979 444.826 462.704 445.702L465.877 450.316ZM464.034 448.191L462.557 445.812C461.256 446.62 460.845 448.324 461.636 449.636C462.426 450.948 464.123 451.381 465.446 450.609L464.034 448.191ZM467.21 446.079L468.906 448.307L468.907 448.306L467.21 446.079ZM470.06 443.6L472.011 445.608L472.011 445.608L470.06 443.6ZM472.056 441.349L469.839 439.64L469.838 439.641L472.056 441.349ZM473.942 438.564L476.318 440.045L476.318 440.044L473.942 438.564ZM475.04 436.405L477.634 437.459L477.635 437.456L475.04 436.405ZM476.29 432.77L478.992 433.503L478.993 433.501L476.29 432.77ZM476.715 430.621L479.493 430.969L479.494 430.964L476.715 430.621ZM476.896 428.516L474.108 428.258C474.105 428.287 474.103 428.317 474.101 428.346L476.896 428.516ZM476.95 427.463L479.75 427.472V427.47L476.95 427.463ZM476.957 424.744L479.757 424.751C479.757 424.743 479.757 424.736 479.757 424.729L476.957 424.744ZM479.589 421.792C479.339 420.05 479.254 419.47 478.744 417.641L473.35 419.145C473.771 420.655 473.815 420.977 474.045 422.587L479.589 421.792ZM478.744 417.641C478.428 416.507 477.506 413.909 476.095 411.644L471.342 414.605C472.394 416.294 473.132 418.363 473.35 419.146L478.744 417.641ZM476.095 411.644C475.413 410.549 474.083 408.416 471.478 405.938L467.619 409.996C469.717 411.992 470.753 413.659 471.342 414.604L476.095 411.644ZM471.477 405.937C470.757 405.253 469.744 404.375 468.894 403.747L465.567 408.251C466.184 408.707 467.018 409.425 467.62 409.997L471.477 405.937ZM468.897 403.749C467.839 402.966 466.417 402.055 465.39 401.419L462.441 406.179C463.443 406.801 464.703 407.612 465.565 408.25L468.897 403.749ZM465.315 401.374C444.198 389.182 423.08 376.99 401.962 364.797C380.844 352.605 359.727 340.413 338.609 328.221L335.809 333.07C356.927 345.263 378.044 357.455 399.162 369.647C420.28 381.839 441.398 394.032 462.515 406.224L465.315 401.374ZM338.595 328.213C336.143 326.815 334.302 326.075 333.886 325.915L331.869 331.139C332.091 331.224 333.667 331.85 335.823 333.078L338.595 328.213ZM333.889 325.916C332.6 325.416 330.894 324.836 329.619 324.43L327.921 329.766C329.133 330.152 330.722 330.694 331.866 331.138L333.889 325.916ZM329.613 324.428C328.85 324.187 327.817 323.948 327.236 323.804L325.891 329.24C326.639 329.425 327.386 329.597 327.927 329.768L329.613 324.428ZM327.236 323.804C325.808 323.451 323.302 323.026 322.488 322.934L321.863 328.5C322.439 328.564 324.704 328.947 325.89 329.24L327.236 323.804ZM322.489 322.935C321.979 322.877 320.888 322.724 320.143 322.674L319.766 328.261C320.358 328.301 321.04 328.407 321.862 328.499L322.489 322.935ZM320.141 322.674C317.144 322.474 317.069 322.469 315.476 322.469V328.069C316.875 328.069 316.8 328.064 319.768 328.262L320.141 322.674ZM315.475 322.469C314.025 322.47 312.148 322.584 310.814 322.674L311.189 328.261C312.536 328.17 314.239 328.07 315.477 328.069L315.475 322.469ZM310.813 322.674C310.059 322.725 308.964 322.878 308.444 322.937L309.075 328.502C309.9 328.408 310.594 328.301 311.19 328.261L310.813 322.674ZM308.443 322.937C307.692 323.023 305.232 323.429 303.646 323.823L304.997 329.258C306.33 328.926 308.549 328.561 309.076 328.501L308.443 322.937ZM303.648 323.823C303.015 323.98 301.953 324.231 301.153 324.487L302.864 329.82C303.431 329.638 304.234 329.447 304.996 329.258L303.648 323.823ZM301.149 324.489C299.866 324.903 298.174 325.497 296.902 325.993L298.938 331.21C300.091 330.76 301.675 330.203 302.868 329.818L301.149 324.489ZM296.904 325.993C296.068 326.318 295.055 326.812 294.386 327.143L296.871 332.161C297.558 331.821 298.363 331.434 298.937 331.211L296.904 325.993ZM294.387 327.142C293.763 327.451 292.877 327.956 292.433 328.196L295.092 333.124C295.767 332.76 296.353 332.418 296.87 332.162L294.387 327.142ZM295.162 333.085C295.11 333.115 295.07 333.135 295.046 333.147C295.025 333.158 295.011 333.164 295.019 333.16C295.025 333.157 295.026 333.157 295.04 333.15C295.05 333.146 295.066 333.139 295.083 333.131C295.118 333.114 295.173 333.089 295.237 333.056L292.677 328.075C292.709 328.059 292.731 328.049 292.733 328.048C292.734 328.047 292.734 328.047 292.727 328.05C292.724 328.052 292.709 328.058 292.699 328.063C292.657 328.082 292.519 328.144 292.363 328.234L295.162 333.085ZM292.659 328.085C292.695 328.066 292.72 328.054 292.726 328.051C292.729 328.05 292.73 328.05 292.725 328.052C292.722 328.053 292.72 328.054 292.715 328.056C292.711 328.058 292.706 328.06 292.7 328.063C292.678 328.073 292.633 328.094 292.58 328.119C292.526 328.146 292.454 328.182 292.372 328.229L295.15 333.091C295.1 333.12 295.06 333.14 295.038 333.151C295.018 333.161 295.006 333.166 295.017 333.161C295.02 333.16 295.022 333.159 295.027 333.157C295.031 333.155 295.036 333.153 295.042 333.15C295.054 333.145 295.071 333.137 295.09 333.128C295.129 333.11 295.187 333.082 295.255 333.046L292.659 328.085ZM292.354 328.24L261.27 346.304L264.084 351.146L295.168 333.081L292.354 328.24ZM261.27 346.304L230.187 364.367L233.001 369.209L264.084 351.146L261.27 346.304ZM230.187 364.367L199.103 382.432L201.917 387.273L233.001 369.209L230.187 364.367ZM199.103 382.432L168.019 400.495L170.833 405.337L201.917 387.273L199.103 382.432ZM168.019 400.495L136.935 418.559L139.749 423.401L170.833 405.337L168.019 400.495ZM136.935 418.559L105.851 436.623L108.665 441.465L139.749 423.401L136.935 418.559ZM105.851 436.623L74.7675 454.687L77.5812 459.529L108.665 441.465L105.851 436.623ZM74.7674 454.687L43.684 472.751L46.4978 477.593L77.5812 459.529L74.7674 454.687ZM43.684 472.751L12.5994 490.816L15.4132 495.658L46.4978 477.593L43.684 472.751ZM12.5994 490.816L-18.484 508.88L-15.6702 513.721L15.4132 495.658L12.5994 490.816ZM-15.6684 513.72C-15.6985 513.738 -15.7109 513.743 -15.6873 513.732C-15.676 513.726 -15.6599 513.719 -15.6342 513.707C-15.6215 513.702 -15.6078 513.696 -15.5915 513.688C-15.5763 513.682 -15.5569 513.673 -15.5381 513.665L-17.821 508.551C-17.8987 508.586 -18.1972 508.713 -18.4858 508.881L-15.6684 513.72ZM-17.8168 508.549C-17.91 508.591 -18.1969 508.713 -18.4821 508.878L-15.6745 513.724C-15.6999 513.738 -15.7088 513.742 -15.6854 513.731C-15.674 513.725 -15.6581 513.718 -15.6336 513.707C-15.6066 513.695 -15.5825 513.684 -15.5424 513.666L-17.8168 508.549ZM-18.5248 508.904C-19.2976 509.37 -20.4663 510.082 -21.3335 510.728L-17.991 515.221C-17.3762 514.763 -16.4396 514.186 -15.6318 513.699L-18.5248 508.904ZM-21.3317 510.726C-22.3248 511.464 -23.5965 512.504 -24.5265 513.368L-20.7154 517.471C-19.958 516.767 -18.8481 515.857 -17.9928 515.222L-21.3317 510.726ZM-24.5278 513.369C-26.0189 514.756 -27.732 516.811 -28.7711 518.479L-24.0181 521.44C-23.2568 520.218 -21.8665 518.541 -20.7141 517.47L-24.5278 513.369ZM-28.7709 518.478C-29.3122 519.347 -30.0529 520.62 -30.5299 521.702L-25.4058 523.961C-25.0903 523.245 -24.5157 522.238 -24.0182 521.44L-28.7709 518.478ZM-30.5302 521.702C-30.8373 522.399 -31.2019 523.32 -31.4558 524.031L-26.1818 525.914C-25.9709 525.323 -25.6557 524.528 -25.4056 523.96L-30.5302 521.702ZM-31.4562 524.032C-31.6486 524.572 -31.8712 525.402 -31.9598 525.701L-26.5918 527.296C-26.4078 526.676 -26.3097 526.272 -26.1814 525.912L-31.4562 524.032ZM-31.9585 525.696C-32.2215 526.576 -32.4277 527.686 -32.5336 528.502L-26.98 529.222C-26.8997 528.602 -26.7444 527.806 -26.5931 527.3L-31.9585 525.696ZM-32.5335 528.502C-32.6724 529.573 -32.7525 530.942 -32.7901 531.919L-27.1943 532.135C-27.1586 531.21 -27.0862 530.041 -26.98 529.222L-32.5335 528.502ZM-32.7922 532.019L-32.8 534.739L-27.2 534.755L-27.1922 532.035L-32.7922 532.019ZM-32.7998 534.777C-32.7919 535.503 -32.748 536.45 -32.6877 537.176L-27.1069 536.712C-27.1559 536.122 -27.1937 535.309 -27.2002 534.716L-32.7998 534.777ZM-32.6881 537.171C-32.6421 537.735 -32.506 538.576 -32.4651 538.879L-26.9152 538.132C-27.0004 537.499 -27.0757 537.095 -27.1066 536.716L-32.6881 537.171ZM-32.4654 538.877C-32.3511 539.731 -32.1047 540.755 -31.8913 541.485L-26.5161 539.915C-26.6811 539.35 -26.8503 538.617 -26.9149 538.134L-32.4654 538.877ZM-31.8911 541.486C-31.6689 542.246 -31.3415 543.219 -31.0678 543.949L-25.824 541.984C-26.0535 541.371 -26.3362 540.53 -26.5164 539.914L-31.8911 541.486ZM-31.0669 543.951C-30.8571 544.51 -30.5038 545.256 -30.3573 545.584L-25.2446 543.299C-25.492 542.746 -25.6948 542.327 -25.8249 541.981L-31.0669 543.951ZM-30.3584 545.582C-29.9341 546.534 -29.2729 547.633 -28.8315 548.342L-24.0789 545.38C-24.5155 544.679 -24.9916 543.867 -25.2435 543.302L-30.3584 545.582ZM-28.8318 548.341C-28.5773 548.75 -27.7295 550.062 -26.4175 551.573L-22.1885 547.902C-23.2473 546.683 -23.9224 545.631 -24.0786 545.38L-28.8318 548.341ZM-26.4179 551.573C-25.5883 552.529 -24.4177 553.631 -23.6315 554.363L-19.8173 550.263C-20.632 549.505 -21.5849 548.598 -22.1881 547.903L-26.4179 551.573ZM-23.6309 554.363C-22.6203 555.303 -21.1493 556.308 -20.3101 556.903L-17.0713 552.334C-18.0972 551.607 -19.1543 550.879 -19.8179 550.262L-23.6309 554.363ZM-20.3116 556.902C-19.7243 557.319 -18.7611 557.869 -18.4306 558.074L-15.4834 553.312C-16.193 552.873 -16.659 552.627 -17.0697 552.336L-20.3116 556.902ZM-15.5637 553.264C-15.5188 553.29 -15.4867 553.311 -15.4707 553.322C-15.4552 553.332 -15.4491 553.337 -15.4593 553.33C-15.4641 553.326 -15.4708 553.321 -15.4817 553.313C-15.4872 553.309 -15.4927 553.305 -15.4997 553.299C-15.5063 553.294 -15.5142 553.288 -15.5224 553.282C-15.5535 553.259 -15.6031 553.222 -15.6598 553.182L-18.9051 557.745C-18.9078 557.743 -18.904 557.746 -18.8818 557.763C-18.8683 557.773 -18.8228 557.807 -18.7847 557.835C-18.7033 557.895 -18.5474 558.009 -18.3503 558.122L-15.5637 553.264ZM-18.8992 557.75C-18.9041 557.746 -18.9019 557.748 -18.8815 557.763C-18.8723 557.77 -18.8229 557.807 -18.7887 557.832C-18.7102 557.891 -18.5551 558.004 -18.3593 558.117L-15.5535 553.271C-15.509 553.297 -15.4775 553.318 -15.4624 553.328C-15.4479 553.338 -15.4426 553.342 -15.4542 553.333C-15.4598 553.329 -15.467 553.324 -15.4788 553.315C-15.4877 553.308 -15.5068 553.294 -15.5219 553.283C-15.555 553.258 -15.6065 553.219 -15.6658 553.177L-18.8992 557.75ZM-18.3564 558.119L-5.68571 565.434L-2.88573 560.585L-15.5564 553.269L-18.3564 558.119ZM-5.68571 565.434L6.98497 572.75L9.78496 567.9L-2.88573 560.585L-5.68571 565.434ZM6.98506 572.75L19.6557 580.065L22.4556 575.215L9.78487 567.9L6.98506 572.75ZM19.6556 580.064L32.3262 587.38L35.1264 582.531L22.4557 575.215L19.6556 580.064ZM32.3263 587.38L44.997 594.696L47.797 589.846L35.1263 582.531L32.3263 587.38ZM44.997 594.696L57.6671 602.011L60.4671 597.161L47.7971 589.846L44.997 594.696ZM57.6672 602.011L70.3384 609.327L73.1383 604.477L60.467 597.161L57.6672 602.011ZM70.3384 609.327L83.0085 616.641L85.8084 611.792L73.1383 604.477L70.3384 609.327ZM83.0084 616.641L95.6791 623.957L98.4792 619.108L85.8085 611.792L83.0084 616.641ZM95.6791 623.957L108.349 631.272L111.149 626.422L98.4791 619.108L95.6791 623.957ZM108.205 631.183L108.206 631.184L111.294 626.513L111.293 626.511L108.205 631.183ZM108.365 631.282C110.817 632.678 112.656 633.418 113.073 633.578L115.09 628.354C114.868 628.269 113.292 627.643 111.136 626.415L108.365 631.282ZM113.07 633.577C114.358 634.077 116.065 634.658 117.342 635.063L119.036 629.726C117.827 629.342 116.238 628.799 115.093 628.356L113.07 633.577ZM117.341 635.063C118.107 635.306 119.145 635.546 119.722 635.689L121.068 630.253C120.317 630.067 119.574 629.897 119.036 629.726L117.341 635.063ZM119.722 635.689C121.151 636.043 123.656 636.467 124.468 636.559L125.098 630.994C124.519 630.929 122.254 630.547 121.068 630.253L119.722 635.689ZM124.469 636.559C124.982 636.617 126.069 636.769 126.815 636.819L127.192 631.232C126.6 631.192 125.916 631.087 125.097 630.994L124.469 636.559ZM126.817 636.819C129.812 637.019 129.888 637.024 131.483 637.024L131.48 631.424C130.081 631.424 130.157 631.429 127.19 631.232L126.817 636.819ZM131.482 637.024C132.932 637.024 134.811 636.908 136.142 636.819L135.769 631.232C134.419 631.322 132.718 631.424 131.482 631.424V637.024ZM136.144 636.819C136.898 636.768 137.993 636.614 138.513 636.555L137.882 630.991C137.057 631.085 136.363 631.191 135.767 631.232L136.144 636.819ZM138.517 636.555C139.266 636.469 141.725 636.062 143.309 635.669L141.961 630.234C140.627 630.565 138.407 630.931 137.879 630.991L138.517 636.555ZM143.31 635.669C143.941 635.513 145.006 635.261 145.807 635.002L144.089 629.672C143.523 629.855 142.723 630.045 141.961 630.234L143.31 635.669ZM145.806 635.003C147.09 634.589 148.782 633.994 150.054 633.498L148.017 628.281C146.865 628.731 145.282 629.288 144.09 629.672L145.806 635.003ZM150.053 633.498C150.888 633.172 151.9 632.68 152.57 632.348L150.084 627.33C149.4 627.669 148.593 628.057 148.018 628.281L150.053 633.498ZM152.571 632.348C153.192 632.04 154.077 631.536 154.523 631.296L151.865 626.367C151.19 626.731 150.603 627.073 150.083 627.331L152.571 632.348ZM154.611 631.246C154.798 631.137 154.949 631.028 155.04 630.961C155.25 630.807 155.081 630.928 155.211 630.833L151.912 626.308C151.862 626.345 151.816 626.38 151.786 626.402C151.751 626.429 151.735 626.441 151.72 626.452C151.707 626.461 151.707 626.461 151.715 626.456C151.723 626.45 151.745 626.435 151.777 626.417L154.611 631.246ZM151.907 626.312C151.858 626.348 151.812 626.383 151.784 626.404C151.751 626.429 151.736 626.44 151.723 626.45C151.711 626.458 151.713 626.456 151.724 626.449C151.735 626.442 151.759 626.426 151.794 626.406L154.595 631.255C154.788 631.143 154.944 631.032 155.039 630.963C155.086 630.928 155.131 630.894 155.158 630.873C155.19 630.849 155.205 630.838 155.216 630.83L151.907 626.312ZM154.601 631.251L185.685 613.188L182.872 608.346L151.788 626.409L154.601 631.251ZM185.686 613.188L216.769 595.124L213.955 590.282L182.872 608.346L185.686 613.188ZM216.769 595.124L247.853 577.06L245.039 572.218L213.955 590.282L216.769 595.124ZM247.853 577.06L278.937 558.996L276.123 554.154L245.039 572.218L247.853 577.06ZM278.937 558.996L310.02 540.932L307.207 536.09L276.123 554.154L278.937 558.996ZM310.02 540.932L341.104 522.868L338.291 518.026L307.207 536.09L310.02 540.932ZM341.104 522.868L372.188 504.804L369.375 499.962L338.291 518.027L341.104 522.868ZM372.188 504.804L403.272 486.74L400.459 481.898L369.375 499.962L372.188 504.804ZM403.272 486.74L434.356 468.676L431.543 463.834L400.459 481.898L403.272 486.74ZM434.356 468.676L465.44 450.612L462.626 445.771L431.543 463.834L434.356 468.676ZM465.438 450.614C465.631 450.502 465.781 450.389 465.84 450.345C465.857 450.332 465.873 450.32 465.882 450.313C465.894 450.305 465.899 450.301 465.903 450.298C465.911 450.292 465.899 450.301 465.877 450.316L462.704 445.702C462.639 445.746 462.584 445.787 462.55 445.812C462.533 445.825 462.517 445.837 462.507 445.845C462.496 445.854 462.49 445.858 462.486 445.861C462.477 445.868 462.488 445.859 462.509 445.845C462.531 445.83 462.572 445.802 462.628 445.769L465.438 450.614ZM462.704 445.702C462.639 445.746 462.585 445.786 462.551 445.812C462.534 445.825 462.518 445.837 462.508 445.844C462.496 445.853 462.49 445.858 462.485 445.861C462.476 445.868 462.486 445.86 462.507 445.846C462.528 445.832 462.568 445.805 462.622 445.773L465.446 450.609C465.635 450.498 465.783 450.388 465.841 450.344C465.858 450.332 465.873 450.32 465.882 450.313C465.893 450.305 465.898 450.301 465.902 450.298C465.91 450.292 465.898 450.301 465.877 450.316L462.704 445.702ZM465.512 450.569C466.464 449.978 467.872 449.095 468.906 448.307L465.513 443.852C464.726 444.452 463.547 445.197 462.557 445.812L465.512 450.569ZM468.907 448.306C469.917 447.537 471.138 446.457 472.011 445.608L468.108 441.592C467.356 442.323 466.305 443.248 465.512 443.853L468.907 448.306ZM472.011 445.608C472.763 444.877 473.65 443.869 474.275 443.057L469.838 439.641C469.362 440.26 468.651 441.064 468.108 441.592L472.011 445.608ZM474.274 443.059C474.979 442.144 475.775 440.916 476.318 440.045L471.566 437.082C471.041 437.924 470.366 438.956 469.839 439.64L474.274 443.059ZM476.318 440.044C476.79 439.287 477.302 438.275 477.634 437.459L472.445 435.351C472.23 435.881 471.862 436.607 471.566 437.083L476.318 440.044ZM477.635 437.456C478.023 436.499 478.257 435.921 478.444 435.379C478.637 434.818 478.775 434.305 478.992 433.503L473.587 432.037C473.355 432.893 473.268 433.209 473.148 433.558C473.022 433.924 472.857 434.335 472.444 435.354L477.635 437.456ZM478.993 433.501C479.197 432.745 479.395 431.756 479.493 430.969L473.937 430.273C473.872 430.791 473.726 431.525 473.587 432.039L478.993 433.501ZM479.494 430.964C479.581 430.258 479.645 429.432 479.691 428.686L474.101 428.346C474.059 429.043 474.003 429.738 473.936 430.279L479.494 430.964ZM479.684 428.774C479.722 428.361 479.748 427.924 479.75 427.472L474.15 427.453C474.149 427.703 474.134 427.97 474.108 428.258L479.684 428.774ZM479.75 427.47L479.757 424.751L474.157 424.736L474.15 427.455L479.75 427.47ZM479.757 424.729C479.755 424.274 479.71 422.638 479.589 421.793L474.045 422.586C474.07 422.756 474.1 423.159 474.123 423.667C474.145 424.144 474.156 424.583 474.157 424.758L479.757 424.729Z" fill="black" mask="url(#path-71-inside-1)"/>
<path fill-rule="evenodd" clip-rule="evenodd" d="M458.7 404.227C467.825 409.496 467.873 418.036 458.808 423.305L147.969 603.944C138.903 609.213 124.159 609.213 115.034 603.944C72.7987 579.559 30.5633 555.174 -11.6721 530.79C-20.7974 525.521 -20.8497 516.98 -11.7838 511.711C91.8293 451.497 195.442 391.284 299.055 331.071C308.12 325.802 322.868 325.804 331.993 331.074C374.229 355.458 416.464 379.843 458.7 404.227Z" fill="#FFB800"/>
<path fill-rule="evenodd" clip-rule="evenodd" d="M114.688 581.525C124.1 586.959 139.307 586.957 148.659 581.522L114.688 581.525Z" fill="white"/>
<path d="M114.688 581.525C124.1 586.959 139.307 586.957 148.659 581.522" stroke="black" stroke-width="1.445" stroke-linecap="round" stroke-linejoin="round"/>
<path fill-rule="evenodd" clip-rule="evenodd" d="M332.686 309.25C323.278 303.817 308.068 303.817 298.716 309.252L332.686 309.25Z" fill="white"/>
<path d="M332.686 309.25C323.278 303.817 308.068 303.817 298.716 309.252" stroke="black" stroke-width="1.445" stroke-linecap="round" stroke-linejoin="round"/>
<path d="M442.75 370.987C442.824 371.015 442.896 371.049 442.965 371.088L448.449 374.255C452.283 376.468 456.116 378.681 459.949 380.894L459.249 382.106L459.949 380.894C464.766 383.675 467.502 387.512 467.525 391.637C467.548 395.765 464.852 399.61 460.061 402.394C356.448 462.608 252.835 522.821 149.223 583.034C144.425 585.821 138.215 587.174 132.074 587.174C125.932 587.174 119.709 585.821 114.884 583.036L109.896 580.156C69.3234 556.731 28.7505 533.306 -11.8224 509.882L-11.8225 509.882C-16.639 507.101 -19.3754 503.263 -19.3998 499.138C-19.4243 495.009 -16.7283 491.164 -11.937 488.379L-11.2335 489.59L-11.9369 488.379L298.901 307.74C303.698 304.952 309.91 303.6 316.052 303.6C322.194 303.6 328.418 304.954 333.243 307.74L341.824 312.694L350.404 317.648C350.497 317.702 350.583 317.766 350.662 317.839L350.671 317.848L350.677 317.854C351.178 318.329 351.549 318.961 351.608 319.71C351.668 320.463 351.398 321.152 350.957 321.705C350.848 321.841 350.715 321.956 350.564 322.043L348.902 323.004L442.75 370.987ZM442.75 370.987L442.734 370.981L442.71 370.973M442.75 370.987L442.71 370.973M442.71 370.973C441.428 370.525 439.889 370.482 438.57 370.839C438.456 370.87 438.348 370.915 438.246 370.972M442.71 370.973L438.246 370.972M438.246 370.972C437.275 371.522 436.686 371.86 436.484 371.979M438.246 370.972L436.484 371.979M436.484 371.979L436.483 371.978C434.058 373.388 430.785 374.133 427.432 374.133C424.078 374.133 420.795 373.388 418.351 371.976L417.651 373.189L418.351 371.976L348.947 331.907C346.494 330.49 345.576 328.829 345.57 327.453C345.564 326.082 346.461 324.424 348.9 323.006L436.484 371.979Z" fill="white" stroke="black" stroke-width="2.8" stroke-linecap="round" stroke-linejoin="round"/>
<path fill-rule="evenodd" clip-rule="evenodd" d="M304.19 335.999C305.01 336.472 305.014 337.238 304.203 337.71C303.392 338.181 302.069 338.181 301.249 337.708L288.907 330.582C288.091 330.111 288.086 329.345 288.898 328.874C289.709 328.402 291.031 328.402 291.848 328.874L304.19 335.999Z" fill="#FFB800"/>
<path fill-rule="evenodd" clip-rule="evenodd" d="M305.855 331.118C306.675 331.592 306.679 332.357 305.865 332.832C305.053 333.303 303.731 333.303 302.911 332.829L293.946 327.653C293.13 327.182 293.125 326.416 293.937 325.945C294.752 325.471 296.075 325.471 296.891 325.943L305.855 331.118Z" fill="#FFEEC2"/>
<path fill-rule="evenodd" clip-rule="evenodd" d="M314.273 330.14C315.093 330.613 315.098 331.378 314.282 331.853C313.471 332.324 312.149 332.324 311.329 331.851L298.986 324.725C298.17 324.253 298.166 323.488 298.977 323.016C299.792 322.542 301.115 322.542 301.931 323.014L314.273 330.14Z" fill="#FFB800"/>
<path fill-rule="evenodd" clip-rule="evenodd" d="M470 409C470 409 480.5 424 464.37 436.558C442.5 452 450.5 453 432.781 465C432.5 465.221 434.5 465 434.5 465C434.5 465 463.134 451.529 466.959 446.979C470.782 442.43 475.922 439.706 477.794 430.704C479.666 421.701 473.726 408.477 470 409Z" fill="black"/>
<mask id="mask2" mask-type="alpha" maskUnits="userSpaceOnUse" x="-18" y="305" width="485" height="281">
<path d="M437.9 374.394C437.896 374.396 437.893 374.397 437.89 374.399C434.936 376.115 431.148 376.933 427.432 376.933C423.715 376.933 419.92 376.115 416.951 374.401L347.547 334.332L348.247 333.119L347.547 334.332C344.587 332.622 342.783 330.189 342.77 327.466C342.757 324.741 344.542 322.3 347.495 320.583L347.498 320.582L348.69 319.892L340.424 315.119L331.843 310.165L332.543 308.953L331.843 310.165C327.543 307.682 321.831 306.4 316.051 306.4C310.272 306.4 304.577 307.68 300.308 310.161L299.605 308.951L300.308 310.161L-10.5301 490.8C-14.8051 493.285 -16.6163 496.345 -16.5999 499.121C-16.5834 501.902 -14.7312 504.969 -10.4224 507.457C-10.4224 507.457 -10.4224 507.457 -10.4223 507.457L-11.1224 508.67L437.9 374.394ZM437.9 374.394C437.904 374.391 437.908 374.389 437.912 374.386" fill="white" stroke="black" stroke-width="2.8" stroke-linecap="round" stroke-linejoin="round"/>
</mask>
<g mask="url(#mask2)">
<path fill-rule="evenodd" clip-rule="evenodd" d="M103.37 403.946L71.1603 422.665C65.5918 425.901 65.6206 431.147 71.2264 434.384L216.892 518.484C222.498 521.72 231.555 521.72 237.124 518.484L269.333 499.766C274.902 496.529 274.872 491.283 269.267 488.047L123.601 403.946C120.799 402.328 117.133 401.52 113.472 401.52C109.811 401.52 106.154 402.328 103.37 403.946Z" fill="#FFEEC2"/>
</g>
<path fill-rule="evenodd" clip-rule="evenodd" d="M269.268 475.252C274.873 478.488 274.902 483.734 269.334 486.971L237.124 505.69C231.555 508.926 222.498 508.926 216.892 505.69L71.2264 421.589C65.6212 418.353 65.5912 413.106 71.1603 409.87L103.37 391.151C108.939 387.915 117.996 387.915 123.601 391.152L269.268 475.252Z" fill="white"/>
<path fill-rule="evenodd" clip-rule="evenodd" d="M269.268 475.252C274.873 478.488 274.903 483.734 269.334 486.971L237.124 505.69C231.555 508.926 222.498 508.926 216.892 505.69L71.2264 421.589C65.6212 418.353 65.5912 413.106 71.1603 409.87L103.37 391.151C108.939 387.915 117.996 387.915 123.601 391.152L269.268 475.252Z" stroke="black" stroke-width="2.8" stroke-linecap="round" stroke-linejoin="round"/>
<path d="M82.0781 394.469L97.7243 403.503" stroke="black" stroke-width="2.8" stroke-linecap="round" stroke-linejoin="round"/>
<path fill-rule="evenodd" clip-rule="evenodd" d="M186.91 437.411C189.022 438.63 189.033 440.609 186.935 441.828C184.836 443.048 181.42 443.048 179.307 441.828L143.149 420.953C141.037 419.734 141.037 417.76 143.136 416.541C145.234 415.322 148.639 415.315 150.752 416.535L186.91 437.411Z" fill="#FFEEC2"/>
<path fill-rule="evenodd" clip-rule="evenodd" d="M167.687 438.975C169.8 440.195 169.811 442.173 167.713 443.393C165.614 444.613 162.197 444.613 160.085 443.393L134.629 428.696C132.517 427.477 132.516 425.504 134.615 424.284C136.714 423.065 140.119 423.059 142.231 424.278L167.687 438.975Z" fill="#FFB800"/>
<path fill-rule="evenodd" clip-rule="evenodd" d="M185.341 449.167C187.453 450.387 187.464 452.366 185.365 453.585C183.267 454.805 179.851 454.805 177.738 453.585L171.412 449.932C169.3 448.713 169.3 446.741 171.398 445.522C173.497 444.302 176.902 444.296 179.015 445.515L185.341 449.167Z" fill="#FFB800"/>
<path fill-rule="evenodd" clip-rule="evenodd" d="M131.718 404.061C135.625 406.317 137.588 409.274 137.605 412.231C137.618 415.186 135.691 418.141 131.81 420.397C127.928 422.653 122.833 423.778 117.731 423.781C112.626 423.781 107.515 422.653 103.608 420.397C99.7012 418.141 97.7405 415.186 97.7237 412.23C97.7075 409.273 99.6381 406.32 103.519 404.064L103.24 403.902L103.519 404.064C107.401 401.808 112.493 400.68 117.597 400.68C122.703 400.68 127.811 401.806 131.718 404.061Z" fill="#FFB800"/>
<mask id="mask3" mask-type="alpha" maskUnits="userSpaceOnUse" x="-18" y="305" width="485" height="281">
<path d="M437.9 374.394C437.896 374.396 437.893 374.397 437.89 374.399C434.936 376.115 431.148 376.933 427.432 376.933C423.715 376.933 419.92 376.115 416.951 374.401L347.547 334.332L348.247 333.119L347.547 334.332C344.587 332.622 342.783 330.189 342.77 327.466C342.757 324.741 344.542 322.3 347.495 320.583L347.498 320.582L348.69 319.892L340.424 315.119L331.843 310.165L332.543 308.953L331.843 310.165C327.543 307.682 321.831 306.4 316.051 306.4C310.272 306.4 304.577 307.68 300.308 310.161L299.605 308.951L300.308 310.161L-10.5301 490.8C-14.8051 493.285 -16.6163 496.345 -16.5999 499.121C-16.5834 501.902 -14.7312 504.969 -10.4224 507.457C-10.4224 507.457 -10.4224 507.457 -10.4223 507.457L-11.1224 508.67L437.9 374.394ZM437.9 374.394C437.904 374.391 437.908 374.389 437.912 374.386" fill="white" stroke="black" stroke-width="2.8" stroke-linecap="round" stroke-linejoin="round"/>
</mask>
<g mask="url(#mask3)">
<path fill-rule="evenodd" clip-rule="evenodd" d="M248.149 332.485L154.281 387.035C150.396 389.293 150.417 392.953 154.327 395.21L291.29 474.285C295.195 476.54 301.514 476.54 305.398 474.283L399.265 419.733C403.15 417.476 403.13 413.816 399.223 411.561L262.262 332.485C260.306 331.357 257.749 330.792 255.195 330.792C252.642 330.792 250.091 331.357 248.149 332.485Z" fill="#FFEEC2"/>
</g>
<path fill-rule="evenodd" clip-rule="evenodd" d="M399.222 399.447C403.128 401.702 403.149 405.362 399.264 407.619L305.397 462.169C301.512 464.427 295.194 464.427 291.288 462.172L154.326 383.096C150.416 380.84 150.395 377.179 154.28 374.922L248.148 320.372C252.032 318.115 258.35 318.115 262.26 320.372L399.222 399.447Z" fill="white"/>
<path fill-rule="evenodd" clip-rule="evenodd" d="M399.222 399.447C403.128 401.702 403.149 405.362 399.264 407.619L305.397 462.169C301.512 464.427 295.194 464.427 291.288 462.172L154.326 383.096C150.416 380.84 150.395 377.179 154.28 374.922L248.148 320.372C252.032 318.115 258.35 318.115 262.26 320.372L399.222 399.447Z" stroke="black" stroke-width="2.8" stroke-linecap="round" stroke-linejoin="round"/>
<path fill-rule="evenodd" clip-rule="evenodd" d="M375.078 401.903C375.244 401.999 375.363 402.122 375.41 402.264C375.535 402.645 375.108 403.01 374.448 403.081C374.41 403.085 371.237 403.432 366.634 403.494C362.026 403.552 355.98 403.338 350.151 402.188C346.266 401.423 342.485 400.233 339.345 398.42C338.69 398.043 338.253 397.764 337.829 397.465C336.935 396.843 336.073 396.284 335.219 395.79C332.756 394.377 330.443 393.493 327.663 392.969C324.891 392.449 321.592 392.289 317.251 392.422C308.547 392.693 295.745 394.142 274.945 395.923C266.397 396.648 259.469 396.564 253.889 395.848C248.309 395.133 244.075 393.778 240.997 392C238.411 390.507 236.66 388.735 235.552 386.828C234.46 384.923 234.003 382.888 233.999 380.848C233.999 376.765 235.809 372.656 238.077 369.474C239.844 366.995 240.629 364.978 240.652 363.441C240.673 361.894 239.97 360.877 238.839 360.224C237.762 359.602 236.171 359.251 234.023 359.225C231.876 359.198 229.224 359.517 226.259 360.197C222.099 361.153 218.207 361.944 214.342 362.246C210.479 362.548 206.627 362.344 202.801 361.295C200.235 360.602 197.698 359.544 195.112 358.052C193.62 357.19 192.11 356.185 190.57 355.012C190.084 354.634 189.553 354.293 189.006 353.968C186.105 352.294 182.364 351.329 178.281 350.841C174.205 350.356 169.818 350.356 165.738 350.588C157.572 351.054 150.668 352.453 149.91 352.609C149.388 352.725 148.893 352.653 148.569 352.466C148.057 351.849 148.377 351.449 148.998 351.321C149.036 351.307 152.966 350.467 158.578 349.81C164.196 349.148 171.496 348.668 178.334 349.427C182.893 349.934 187.279 351.005 190.704 352.982C191.335 353.346 191.928 353.742 192.49 354.173C193.969 355.293 195.408 356.256 196.809 357.065C199.234 358.464 201.555 359.416 203.822 360.033C206.081 360.646 208.283 360.926 210.554 360.97C215.08 361.059 219.9 360.157 225.362 358.9C228.549 358.171 231.477 357.798 234.062 357.829C236.631 357.852 238.912 358.3 240.536 359.237C242.237 360.22 243.096 361.672 243.06 363.458C243.032 365.249 242.147 367.422 240.298 370.012C238.676 372.283 237.296 375.082 236.714 377.96C236.124 380.844 236.34 383.794 237.843 386.389C238.842 388.117 240.409 389.694 242.694 391.014C245.418 392.586 249.199 393.813 254.411 394.485C259.615 395.151 266.25 395.253 274.592 394.542C297.946 392.551 311.152 390.947 320.326 390.982C323.387 390.996 326.019 391.196 328.4 391.64C331.579 392.235 334.277 393.28 336.917 394.804C337.832 395.332 338.748 395.923 339.68 396.577C340.111 396.879 340.573 397.162 341.043 397.434C343.774 399.011 347.086 400.082 350.58 400.797C354.074 401.513 357.736 401.872 361.104 402.019C367.832 402.316 373.352 401.774 373.95 401.712C374.405 401.664 374.804 401.745 375.078 401.903Z" fill="#FFB800"/>
<path fill-rule="evenodd" clip-rule="evenodd" d="M284.189 392.37C285.342 393.035 285.921 393.908 285.927 394.78C285.93 395.652 285.361 396.524 284.216 397.19C283.071 397.855 281.568 398.188 280.063 398.188C278.556 398.188 277.049 397.855 275.896 397.19C274.743 396.524 274.165 395.652 274.16 394.78C274.155 393.908 274.725 393.036 275.87 392.371L275.788 392.323L275.87 392.371C277.015 391.706 278.517 391.373 280.024 391.373C281.53 391.373 283.037 391.705 284.189 392.37Z" fill="#FFB800"/>
<path fill-rule="evenodd" clip-rule="evenodd" d="M282.178 393.54C282.772 393.882 283.069 394.331 283.072 394.78C283.074 395.229 282.781 395.679 282.191 396.021C281.602 396.364 280.828 396.535 280.052 396.535C279.277 396.535 278.5 396.364 277.907 396.021C277.314 395.679 277.016 395.229 277.013 394.78C277.01 394.331 277.304 393.882 277.894 393.54L277.851 393.515L277.894 393.54C278.483 393.197 279.257 393.026 280.032 393.026C280.808 393.026 281.584 393.197 282.178 393.54Z" fill="white"/>
<path fill-rule="evenodd" clip-rule="evenodd" d="M308.237 437.853C308.251 439.955 306.88 442.055 304.12 443.659C301.361 445.263 297.74 446.064 294.111 446.062C290.481 446.064 286.852 445.263 284.074 443.659L266.565 433.55C263.788 431.946 262.393 429.846 262.383 427.744C262.369 425.642 263.74 423.542 266.499 421.938C269.259 420.334 272.88 419.533 276.509 419.534C280.136 419.534 283.768 420.334 286.545 421.938L304.055 432.047C306.832 433.651 308.225 435.752 308.237 437.853Z" fill="white"/>
<path fill-rule="evenodd" clip-rule="evenodd" d="M304.413 431.839C310.166 435.161 310.196 440.544 304.481 443.866C298.764 447.188 289.47 447.188 283.717 443.866L266.208 433.757C260.455 430.435 260.424 425.052 266.14 421.73C271.856 418.409 281.15 418.409 286.904 421.73L304.413 431.839Z" fill="white"/>
<path fill-rule="evenodd" clip-rule="evenodd" d="M304.413 431.839C310.166 435.161 310.196 440.544 304.481 443.866C298.764 447.188 289.47 447.188 283.717 443.866L266.208 433.757C260.455 430.435 260.424 425.052 266.14 421.73C271.856 418.409 281.15 418.409 286.904 421.73L304.413 431.839Z" stroke="black" stroke-width="1.445" stroke-linecap="round" stroke-linejoin="round"/>
<path fill-rule="evenodd" clip-rule="evenodd" d="M285.931 418.68C288.477 420.15 289.757 422.077 289.768 424.004C289.776 425.929 288.52 427.855 285.991 429.326C283.462 430.795 280.141 431.529 276.817 431.53C273.49 431.53 270.159 430.795 267.613 429.326C265.067 427.855 263.79 425.93 263.778 424.003C263.768 422.076 265.026 420.151 267.555 418.682L267.373 418.576L267.555 418.682C270.085 417.212 273.403 416.477 276.73 416.477C280.056 416.477 283.385 417.21 285.931 418.68Z" fill="#FFB800"/>
<path fill-rule="evenodd" clip-rule="evenodd" d="M234.968 479.16C235.25 479.322 235.469 479.531 235.586 479.78L237.714 484.33C238.198 485.361 236.572 486.305 234.792 486.028L226.93 484.81C226.5 484.743 226.139 484.618 225.857 484.454C224.969 483.942 224.859 483.062 225.844 482.49L231.575 479.159C232.56 478.586 234.08 478.647 234.968 479.16Z" fill="#FFB800"/>
<path d="M223.478 316.999L245.623 329.785" stroke="black" stroke-width="2.8" stroke-linecap="round" stroke-linejoin="round"/>
<path fill-rule="evenodd" clip-rule="evenodd" d="M315.756 385.021C318.393 386.544 318.407 389.015 315.787 390.538L307.435 395.392C304.812 396.916 300.545 396.916 297.908 395.393L291.571 391.735L285.921 391.735L285.9 388.461L263.781 375.69C261.141 374.166 261.127 371.695 263.75 370.171L272.103 365.317C274.723 363.794 278.989 363.794 281.629 365.318L315.756 385.021Z" fill="#FFB800"/>
<path fill-rule="evenodd" clip-rule="evenodd" d="M299.528 379.274C300.409 379.783 300.414 380.608 299.538 381.117C298.662 381.626 297.237 381.626 296.356 381.117L276.078 369.41C275.196 368.902 275.196 368.078 276.072 367.57C276.948 367.06 278.369 367.057 279.25 367.567L299.528 379.274Z" fill="#FFEEC2"/>
<path fill-rule="evenodd" clip-rule="evenodd" d="M284.725 376.69C285.606 377.199 285.611 378.025 284.735 378.534C283.859 379.043 282.434 379.043 281.553 378.534L270.93 372.401C270.049 371.892 270.049 371.069 270.924 370.56C271.8 370.051 273.221 370.048 274.103 370.558L284.725 376.69Z" fill="#FFEEC2"/>
<mask id="mask4" mask-type="alpha" maskUnits="userSpaceOnUse" x="-18" y="305" width="485" height="281">
<path d="M437.9 374.394C437.896 374.396 437.893 374.397 437.89 374.399C434.936 376.115 431.148 376.933 427.432 376.933C423.715 376.933 419.92 376.115 416.951 374.401L347.547 334.332L348.247 333.119L347.547 334.332C344.587 332.622 342.783 330.189 342.77 327.466C342.757 324.741 344.542 322.3 347.495 320.583L347.498 320.582L348.69 319.892L340.424 315.119L331.843 310.165L332.543 308.953L331.843 310.165C327.543 307.682 321.831 306.4 316.051 306.4C310.272 306.4 304.577 307.68 300.308 310.161L299.605 308.951L300.308 310.161L-10.5301 490.8C-14.8051 493.285 -16.6163 496.345 -16.5999 499.121C-16.5834 501.902 -14.7312 504.969 -10.4224 507.457C-10.4224 507.457 -10.4224 507.457 -10.4223 507.457L-11.1224 508.67L437.9 374.394ZM437.9 374.394C437.904 374.391 437.908 374.389 437.912 374.386" fill="white" stroke="black" stroke-width="2.8" stroke-linecap="round" stroke-linejoin="round"/>
</mask>
<g mask="url(#mask4)">
<path fill-rule="evenodd" clip-rule="evenodd" d="M20.9536 453.257L-16.7251 475.154C-20.9221 477.592 -20.8998 481.546 -16.6759 483.985L43.7957 518.898C48.0203 521.337 54.8462 521.337 59.0432 518.898L96.7219 497.002C100.919 494.562 100.892 490.611 96.6679 488.172L36.1963 453.26C34.0831 452.039 31.3196 451.429 28.5597 451.429C25.8033 451.429 23.0506 452.038 20.9536 453.257Z" fill="#FFEEC2"/>
</g>
<path fill-rule="evenodd" clip-rule="evenodd" d="M105.256 499.382L67.5775 521.279C63.3812 523.717 63.4022 527.671 67.6274 530.11L128.098 565.023C132.323 567.462 139.149 567.462 143.346 565.023L181.025 543.127C185.222 540.687 185.195 536.736 180.971 534.297L120.5 499.384C118.386 498.164 115.623 497.554 112.863 497.554C110.107 497.554 107.353 498.163 105.256 499.382Z" fill="#FFEEC2"/>
<mask id="mask5" mask-type="alpha" maskUnits="userSpaceOnUse" x="-18" y="305" width="485" height="281">
<path d="M437.9 374.394C437.896 374.396 437.893 374.397 437.89 374.399C434.936 376.115 431.148 376.933 427.432 376.933C423.715 376.933 419.92 376.115 416.951 374.401L347.547 334.332L348.247 333.119L347.547 334.332C344.587 332.622 342.783 330.189 342.77 327.466C342.757 324.741 344.542 322.3 347.495 320.583L347.498 320.582L348.69 319.892L340.424 315.119L331.843 310.165L332.543 308.953L331.843 310.165C327.543 307.682 321.831 306.4 316.051 306.4C310.272 306.4 304.577 307.68 300.308 310.161L299.605 308.951L300.308 310.161L-10.5301 490.8C-14.8051 493.285 -16.6163 496.345 -16.5999 499.121C-16.5834 501.902 -14.7312 504.969 -10.4224 507.457C-10.4224 507.457 -10.4224 507.457 -10.4223 507.457L-11.1224 508.67L437.9 374.394ZM437.9 374.394C437.904 374.391 437.908 374.389 437.912 374.386" fill="white" stroke="black" stroke-width="2.8" stroke-linecap="round" stroke-linejoin="round"/>
</mask>
<g mask="url(#mask5)">
<path fill-rule="evenodd" clip-rule="evenodd" d="M189.56 545.526L151.881 567.423C147.684 569.862 147.707 573.816 151.931 576.255L212.402 611.168C216.627 613.607 223.453 613.607 227.65 611.168L265.328 589.271C269.525 586.832 269.499 582.881 265.274 580.442L204.803 545.528C202.69 544.308 199.927 543.698 197.167 543.698C194.41 543.698 191.657 544.307 189.56 545.526Z" fill="#FFEEC2"/>
</g>
<path fill-rule="evenodd" clip-rule="evenodd" d="M265.525 568.744C269.75 571.183 269.776 575.134 265.579 577.573L227.901 599.47C223.704 601.909 216.878 601.909 212.653 599.47L152.182 564.557C147.958 562.118 147.935 558.164 152.132 555.725L189.81 533.828C194.008 531.389 200.83 531.392 205.054 533.83L265.525 568.744Z" fill="white"/>
<path fill-rule="evenodd" clip-rule="evenodd" d="M265.273 568.947C269.498 571.386 269.524 575.337 265.327 577.776L227.649 599.673C223.452 602.112 216.626 602.112 212.401 599.673L151.93 564.759C147.706 562.321 147.683 558.367 151.88 555.928L189.558 534.031C193.756 531.592 200.578 531.594 204.802 534.033L265.273 568.947Z" stroke="black" stroke-width="2.8" stroke-linecap="round" stroke-linejoin="round"/>
<path fill-rule="evenodd" clip-rule="evenodd" d="M180.971 515.312C185.195 517.751 185.222 521.703 181.025 524.141L143.346 546.038C139.149 548.477 132.323 548.477 128.098 546.038L67.6269 511.125C63.4029 508.686 63.3807 504.732 67.5776 502.292L105.256 480.396C109.453 477.957 116.275 477.96 120.5 480.399L180.971 515.312Z" fill="white"/>
<path fill-rule="evenodd" clip-rule="evenodd" d="M180.971 515.312C185.195 517.751 185.222 521.703 181.025 524.141L143.346 546.038C139.149 548.477 132.323 548.477 128.098 546.038L67.6269 511.125C63.4029 508.686 63.3807 504.732 67.5776 502.292L105.256 480.396C109.453 477.957 116.275 477.96 120.5 480.399L180.971 515.312Z" stroke="black" stroke-width="2.8" stroke-linecap="round" stroke-linejoin="round"/>
<path fill-rule="evenodd" clip-rule="evenodd" d="M96.6668 460.11C100.891 462.549 100.918 466.5 96.7209 468.939L59.0421 490.836C54.8452 493.275 48.0192 493.275 43.7947 490.836L-16.6763 455.923C-20.9009 453.484 -20.9231 449.53 -16.7262 447.091L20.9526 425.194C25.1495 422.755 31.9713 422.758 36.1959 425.196L96.6668 460.11Z" fill="white"/>
<path fill-rule="evenodd" clip-rule="evenodd" d="M96.6668 460.11C100.891 462.549 100.918 466.5 96.7209 468.939L59.0421 490.836C54.8452 493.275 48.0192 493.275 43.7947 490.836L-16.6763 455.923C-20.9009 453.484 -20.9231 449.53 -16.7262 447.091L20.9526 425.194C25.1495 422.755 31.9713 422.758 36.1958 425.196L96.6668 460.11Z" stroke="black" stroke-width="2.8" stroke-linecap="round" stroke-linejoin="round"/>
<path d="M237.801 457.473L185.902 487.633" stroke="black" stroke-width="1.445" stroke-linecap="round" stroke-linejoin="round"/>
<path fill-rule="evenodd" clip-rule="evenodd" d="M189.254 585.774C189.254 585.774 196.121 591.029 203.973 588.893C211.825 586.757 219.557 586.444 223.252 588.352C226.948 590.26 235.184 594.823 241.066 591.405C241.066 591.405 230.988 598.873 227.649 599.673C224.31 600.471 219.975 604.687 207.76 596.968C198.202 590.926 189.254 585.774 189.254 585.774Z" fill="black"/>
<path fill-rule="evenodd" clip-rule="evenodd" d="M46.4118 442.816C48.3089 443.911 48.3187 445.688 46.4344 446.783C44.5493 447.879 41.4818 447.879 39.5847 446.783L24.0069 437.789C22.1068 436.693 22.0993 434.917 23.9844 433.822C25.8687 432.726 28.9347 432.726 30.8341 433.822L46.4118 442.816Z" fill="#FFB800"/>
<path fill-rule="evenodd" clip-rule="evenodd" d="M53.3581 461.385C55.2552 462.481 55.265 464.258 53.3806 465.353C51.4933 466.45 48.4273 466.448 46.5309 465.353L13.431 446.243C11.5317 445.147 11.5219 443.372 13.4085 442.275C15.2936 441.18 18.3596 441.179 20.2582 442.275L53.3581 461.385Z" fill="#FFEEC2"/>
<path fill-rule="evenodd" clip-rule="evenodd" d="M145.905 505.735C147.801 506.83 147.811 508.606 145.927 509.702C144.04 510.798 140.975 510.797 139.078 509.702L109.784 492.788C107.886 491.692 107.875 489.918 109.762 488.822C111.646 487.727 114.711 487.726 116.61 488.822L145.905 505.735Z" fill="#FFEEC2"/>
<path fill-rule="evenodd" clip-rule="evenodd" d="M119.83 504.993C121.727 506.088 121.737 507.864 119.853 508.96C117.968 510.055 114.901 510.055 113.004 508.96L97.4298 499.968C95.5308 498.872 95.5233 497.096 97.408 496.001C99.2919 494.906 102.357 494.905 104.256 496.001L119.83 504.993Z" fill="#FFB800"/>
<path fill-rule="evenodd" clip-rule="evenodd" d="M145.09 520.337C146.986 521.432 146.996 523.209 145.112 524.304C143.228 525.399 140.161 525.399 138.264 524.304L122.69 515.312C120.791 514.216 120.783 512.44 122.667 511.345C124.551 510.25 127.617 510.249 129.516 511.345L145.09 520.337Z" fill="#FFB800"/>
<path fill-rule="evenodd" clip-rule="evenodd" d="M238.783 564.959C241.009 566.244 241.02 568.33 238.809 569.614C236.598 570.899 232.998 570.899 230.772 569.614L192.669 547.616C190.443 546.331 190.443 544.252 192.655 542.967C194.866 541.682 198.455 541.676 200.681 542.961L238.783 564.959Z" fill="#FFEEC2"/>
<path fill-rule="evenodd" clip-rule="evenodd" d="M214.507 566.002C216.734 567.287 216.745 569.372 214.534 570.657C212.322 571.942 208.722 571.942 206.496 570.657L179.672 555.17C177.446 553.884 177.445 551.806 179.657 550.521C181.868 549.236 185.456 549.229 187.682 550.514L214.507 566.002Z" fill="#FFB800"/>
</g>
</svg>
