<svg width="60" height="60" viewBox="0 0 60 60" fill="none" xmlns="http://www.w3.org/2000/svg">
<rect width="60" height="60" rx="16" fill="#00FFD1"/>
<path d="M25 43H35" stroke="#005D63" stroke-width="3" stroke-linecap="round" stroke-linejoin="round"/>
<path d="M30 39V32" stroke="#005D63" stroke-width="3" stroke-linecap="round" stroke-linejoin="round"/>
<path d="M26 28L30 32L34 28" stroke="#005D63" stroke-width="3" stroke-linecap="round" stroke-linejoin="round"/>
<path d="M23.8376 34.8749C22.6471 33.9492 21.6829 32.7647 21.018 31.4111C20.3531 30.0576 20.005 28.5704 20.0001 27.0624C19.9751 21.6374 24.3376 17.1249 29.7626 16.9999C31.8622 16.9501 33.9242 17.5626 35.6561 18.7506C37.388 19.9385 38.7019 21.6416 39.4115 23.6183C40.1211 25.5949 40.1904 27.7448 39.6094 29.7631C39.0285 31.7813 37.827 33.5654 36.1751 34.8624C35.8102 35.1444 35.5146 35.5062 35.311 35.92C35.1073 36.3338 35.001 36.7887 35.0001 37.2499V37.9999C35.0001 38.2651 34.8948 38.5195 34.7072 38.707C34.5197 38.8945 34.2653 38.9999 34.0001 38.9999H26.0001C25.7349 38.9999 25.4805 38.8945 25.293 38.707C25.1055 38.5195 25.0001 38.2651 25.0001 37.9999V37.2499C24.997 36.7921 24.8909 36.341 24.6896 35.9298C24.4884 35.5187 24.1972 35.1581 23.8376 34.8749V34.8749Z" stroke="#005D63" stroke-width="3" stroke-linecap="round" stroke-linejoin="round"/>
</svg>
