<svg width="60" height="60" viewBox="0 0 60 60" fill="none" xmlns="http://www.w3.org/2000/svg">
<rect width="60" height="60" rx="16" fill="#00FFD1"/>
<path d="M25.7625 37.0748C24.3375 41.3123 18.6875 41.3123 18.6875 41.3123C18.6875 41.3123 18.6875 35.6623 22.925 34.2373" stroke="#005D63" stroke-width="3" stroke-linecap="round" stroke-linejoin="round"/>
<path d="M38.4879 27.1749L30.0004 35.6624L24.3379 29.9999L32.8254 21.5124C36.0379 18.2999 39.2504 18.3374 40.6254 18.5374C40.8376 18.5657 41.0345 18.663 41.1859 18.8144C41.3372 18.9657 41.4346 19.1627 41.4629 19.3749C41.6629 20.7499 41.7004 23.9624 38.4879 27.1749Z" stroke="#005D63" stroke-width="3" stroke-linecap="round" stroke-linejoin="round"/>
<path d="M37.075 28.5874V36.6624C37.0712 36.9262 36.9634 37.1778 36.775 37.3624L32.7375 41.4124C32.6094 41.5403 32.449 41.6311 32.2733 41.675C32.0977 41.7189 31.9134 41.7143 31.7402 41.6617C31.567 41.6091 31.4113 41.5105 31.2897 41.3763C31.1682 41.2421 31.0853 41.0775 31.05 40.8999L30 35.6624" stroke="#005D63" stroke-width="3" stroke-linecap="round" stroke-linejoin="round"/>
<path d="M31.4124 22.9248H23.3374C23.0736 22.9286 22.822 23.0364 22.6374 23.2248L18.5874 27.2623C18.4595 27.3904 18.3687 27.5508 18.3248 27.7265C18.2809 27.9021 18.2855 28.0864 18.3381 28.2596C18.3907 28.4328 18.4893 28.5885 18.6235 28.7101C18.7577 28.8316 18.9223 28.9145 19.0999 28.9498L24.3374 29.9998" stroke="#005D63" stroke-width="3" stroke-linecap="round" stroke-linejoin="round"/>
</svg>
