<svg width="140" height="34" viewBox="0 0 140 34" fill="none" xmlns="http://www.w3.org/2000/svg">
<path fill-rule="evenodd" clip-rule="evenodd" d="M16.3631 12.5497V18.3073H16.1799C15.6111 17.2394 14.9413 16.4149 14.1692 15.8326C12.9907 14.9444 11.6962 14.5003 10.2838 14.5003C8.70923 14.5003 7.4148 15.0398 6.39843 16.1177C5.24092 17.3337 4.66163 19.1527 4.66163 21.5738C4.66163 23.9423 5.15455 25.8194 6.13933 27.2043C6.57642 27.8074 7.15255 28.2811 7.86875 28.6243C8.58495 28.9674 9.36434 29.1396 10.208 29.1396C12.7263 29.1396 14.7169 27.849 16.1799 25.269H16.3631V30.3129C15.5005 31.1803 14.7538 31.8195 14.1239 32.2317C12.6715 33.1517 11.0358 33.6111 9.21794 33.6111C7.69496 33.6111 6.28678 33.2471 4.99762 32.5168C3.15972 31.4905 1.82316 29.8095 0.991098 27.4729C0.330717 25.6538 0 23.5388 0 21.1287C0 17.121 0.919472 14.144 2.75738 12.1989C4.43309 10.4335 6.67226 9.55078 9.47599 9.55078C10.9083 9.55078 12.1396 9.77556 13.1708 10.224C14.2029 10.6758 15.2667 11.451 16.3631 12.5497Z" fill="#E8308A"/>
<path fill-rule="evenodd" clip-rule="evenodd" d="M24.1447 18.8622H32.0218V10.0607H36.7298V33.1046H32.0218V23.7306H24.1447V33.1046H19.4219V10.0596H24.1447V18.8622Z" fill="#E8308A"/>
<path fill-rule="evenodd" clip-rule="evenodd" d="M54.1653 9.20269C52.0704 7.97133 49.4574 7.94831 46.3272 9.13471C43.2643 10.2959 41.3095 12.0328 40.4638 14.3441C39.5801 16.7937 39.7855 19.8672 41.0768 23.5635C42.4671 27.5383 44.4271 30.2104 46.9602 31.5799C49.0687 32.7268 51.4543 32.7971 54.1169 31.7872C57.7148 30.4242 59.7422 27.9231 60.2004 24.2838C60.3331 23.2433 60.2983 22.0021 60.0972 20.5591C59.896 19.1161 59.5622 17.729 59.0966 16.3979C57.8391 12.8014 56.1949 10.4023 54.1653 9.20269ZM45.0865 16.6594C45.5193 15.3031 46.4809 14.3425 47.9692 13.7779C51.0699 12.6024 53.3659 14.1462 54.8583 18.4083C55.6083 20.5553 55.841 22.4697 55.5535 24.1539C55.2691 25.8151 54.3201 26.9511 52.7077 27.5618C51.1426 28.1551 49.747 27.9522 48.5221 26.9533C47.314 25.9709 46.3324 24.3963 45.5751 22.2296C44.7894 19.984 44.6272 18.1277 45.0865 16.6594Z" fill="#E8308A"/>
<path fill-rule="evenodd" clip-rule="evenodd" d="M79.8179 2.85417C78.2539 0.951762 75.8051 0 72.4738 0C69.214 0 66.8073 0.935313 65.2527 2.80592C63.6181 4.79387 62.8008 7.75441 62.8008 11.6887C62.8008 15.919 63.7656 19.1273 65.6951 21.3158C67.3003 23.1459 69.5194 24.0603 72.3526 24.0603C76.1822 24.0603 78.9091 22.431 80.5342 19.1755C81.0018 18.2446 81.3768 17.0659 81.6612 15.6382C81.9455 14.2095 82.0877 12.7885 82.0877 11.3717C82.0877 7.54388 81.3304 4.70506 79.8179 2.85417ZM68.8362 6.62856C69.6904 5.50904 70.9089 4.94763 72.493 4.94763C75.7938 4.94763 77.4443 7.21628 77.4443 11.7514C77.4443 14.0353 77.0335 15.9169 76.2109 17.3973C75.3979 18.8578 74.1329 19.5869 72.4161 19.5869C70.7509 19.5869 69.5071 18.8995 68.6835 17.5244C67.8714 16.1713 67.4648 14.3424 67.4648 12.0376C67.4648 9.64831 67.922 7.84458 68.8362 6.62856Z" fill="#E8308A"/>
<path fill-rule="evenodd" clip-rule="evenodd" d="M104.567 14.4498C103.723 12.1044 101.735 10.3379 98.6047 9.15152C95.5418 7.99143 92.972 8.01336 90.8971 9.2195C88.7063 10.5057 86.9653 12.9969 85.6741 16.6921C84.2849 20.6669 84.1363 24.0254 85.2306 26.7699C86.1375 29.0594 87.9227 30.7097 90.5853 31.7184C94.1832 33.0814 97.2819 32.5221 99.8781 30.0409C100.623 29.3336 101.363 28.3588 102.099 27.1187C102.837 25.8796 103.437 24.5935 103.902 23.2622C105.16 19.6647 105.381 16.7272 104.567 14.4498ZM93.0012 14.0851C94.1713 13.3362 95.5015 13.243 96.9897 13.8077C100.092 14.9831 100.897 17.7013 99.407 21.9634C98.6571 24.1093 97.6523 25.7309 96.3926 26.8296C95.1498 27.9119 93.7216 28.1466 92.1091 27.5358C90.5429 26.9426 89.6002 25.8538 89.2779 24.2693C88.9599 22.7091 89.1789 20.845 89.9363 18.6794C90.7209 16.4338 91.7436 14.902 93.0012 14.0851Z" fill="#E8308A"/>
<path fill-rule="evenodd" clip-rule="evenodd" d="M121.767 11.7416V17.2131C121.208 16.5782 120.75 16.1133 120.389 15.8173C120.027 15.5212 119.589 15.2514 119.071 15.008C117.923 14.4685 116.776 14.1999 115.628 14.1999C114.622 14.1999 113.814 14.4378 113.198 14.9127C112.583 15.3874 112.277 16.0223 112.277 16.8161C112.277 17.3655 112.414 17.7888 112.688 18.0848C112.942 18.3589 113.274 18.5816 113.686 18.7504C114.097 18.9203 114.923 19.1736 116.161 19.5113C118.314 20.1035 119.842 20.838 120.747 21.7164C121.935 22.8787 122.53 24.4127 122.53 26.315C122.53 27.7537 122.155 29.0694 121.403 30.2647C120.703 31.3852 119.788 32.2208 118.661 32.7712C117.514 33.3315 116.263 33.6111 114.913 33.6111C113.653 33.6111 112.503 33.4259 111.462 33.0563C110.421 32.6858 109.352 32.0826 108.255 31.2471V26.2043C109.25 27.303 110.164 28.0706 110.997 28.5048C112.185 29.1177 113.409 29.4247 114.669 29.4247C115.888 29.4247 116.796 29.1133 117.395 28.4884C117.852 28.0234 118.08 27.4466 118.08 26.7592C118.08 25.9247 117.73 25.268 117.029 24.7931C116.552 24.4663 115.653 24.133 114.333 23.7932C111.824 23.1484 110.082 22.2975 109.107 21.2405C108.041 20.0771 107.508 18.6067 107.508 16.8304C107.508 14.5037 108.356 12.6483 110.052 11.2635C111.454 10.122 113.215 9.55078 115.339 9.55078C117.635 9.55297 119.777 10.2832 121.767 11.7416Z" fill="#E8308A"/>
<path fill-rule="evenodd" clip-rule="evenodd" d="M125.543 10.0596H140.001V14.6747H130.052V19.4006H140.001V23.7789H130.052V28.7273H140.001V33.1046H125.543V10.0596Z" fill="#E8308A"/>
</svg>
