<svg width="621" height="195" viewBox="0 0 621 195" fill="none" xmlns="http://www.w3.org/2000/svg">
<g clip-path="url(#clip0)">
<path d="M143.238 388L143.238 74C57.8409 74 -11.4184 144.283 -11.4184 230.943C-11.4184 317.603 57.8409 388 143.238 388Z" fill="#0066FF"/>
<path d="M199.388 184L417.09 184C417.09 123.195 368.441 74 308.311 74C248.181 74 199.388 123.195 199.388 184Z" fill="#001A64"/>
<path d="M308.73 102.359L206.774 102.359L206.774 8L308.73 102.359Z" fill="#0066FF"/>
<path d="M352.075 191C352.075 216.957 372.803 238 398.373 238C423.943 238 444.672 216.957 444.672 191C444.672 165.043 423.943 144 398.373 144C372.803 144 352.075 165.043 352.075 191Z" fill="#94E0FF"/>
</g>
<defs>
<clipPath id="clip0">
<rect width="542" height="660" fill="white" transform="translate(621) rotate(90)"/>
</clipPath>
</defs>
</svg>
