<svg width="14" height="13" viewBox="0 0 14 13" fill="none" xmlns="http://www.w3.org/2000/svg">
<path fill-rule="evenodd" clip-rule="evenodd" d="M3.50335 1.95285C3.51172 2.74805 2.90904 3.38421 1.94643 3.38421H1.92969C1.00056 3.38421 0.40625 2.74805 0.40625 1.95285C0.40625 1.1409 1.02567 0.521484 1.96317 0.521484C2.90904 0.521484 3.49498 1.1409 3.50335 1.95285ZM3.32869 4.51416V12.8094H0.566406V4.51416H3.32869ZM10.091 4.32171C8.62383 4.32171 7.9683 5.12521 7.60492 5.69327V4.51423H4.85101C4.85101 4.51423 4.88449 5.2927 4.85101 12.8094H7.60492V8.18053C7.60492 7.92942 7.63003 7.68667 7.697 7.50252C7.89789 7.00866 8.3499 6.49805 9.11162 6.49805C10.1077 6.49805 10.5095 7.25977 10.5095 8.37306V12.8094H13.2634V8.05498C13.2634 5.51033 11.9074 4.32171 10.091 4.32171Z" fill="#0066FF"/>
</svg>
