<svg width="141" height="26" viewBox="0 0 141 26" fill="none" xmlns="http://www.w3.org/2000/svg">
<path fill-rule="evenodd" clip-rule="evenodd" d="M12.1522 20.2316H8.1184L3.93165 7.15989V20.2316H0V1.61914H6.38243L10.2886 14.2337L14.1946 1.61914H20.4494V20.2316H16.3391V7.15989L12.1522 20.2316Z" fill="black"/>
<path fill-rule="evenodd" clip-rule="evenodd" d="M26.9028 14.604C26.9028 15.6542 27.2843 16.3541 28.2759 16.3541C29.217 16.3541 29.7256 15.6542 29.7256 14.604V5.66504H33.8198V20.0697H29.751V19.1544C29.4457 19.5043 28.5812 20.2313 27.0553 20.2313C24.0038 20.2313 22.8086 18.1042 22.8086 15.1156V5.66504H26.9028V14.604Z" fill="black"/>
<path fill-rule="evenodd" clip-rule="evenodd" d="M39.8828 5.54484H41.6841V9.20961H39.8828V14.9919C39.8828 15.9693 40.2633 16.295 40.9992 16.295H41.6841V19.9599C41.532 20.0141 41.3542 20.0685 41.1767 20.0956C40.8468 20.1771 40.3394 20.2313 39.629 20.2313C37.0157 20.2313 35.7979 18.7926 35.7979 16.295V9.20961H34.6055V5.54484H35.7979V3.2373H39.8828V5.54484Z" fill="black"/>
<path fill-rule="evenodd" clip-rule="evenodd" d="M47.6016 11.3539H52.3789C52.2773 10.1948 51.4387 9.19384 49.9394 9.19384C48.5164 9.19384 47.7032 10.2213 47.6016 11.3539ZM47.5015 14.3311C47.6796 15.6745 48.6705 16.491 50.2714 16.491C51.72 16.491 52.5586 15.6482 53.0413 14.8316L56.1671 16.7281C55.4048 18.3612 53.6513 20.2313 50.246 20.2313C46.104 20.2313 43.2578 17.5182 43.2578 13.014C43.2578 8.79948 45.977 5.66504 49.9411 5.66504C54.1088 5.66504 56.6245 8.48354 56.6245 12.698C56.6245 13.1194 56.6499 13.6199 56.5737 14.3311H47.5015Z" fill="black"/>
<path fill-rule="evenodd" clip-rule="evenodd" d="M60.043 17.865H60.6052C64.8624 17.892 67.2453 15.31 67.2453 10.9256C67.2453 6.54145 64.8892 3.95944 60.6052 3.9863H60.043V17.865ZM60.4972 1.61914C66.4679 1.61914 70.0022 5.25012 70.0022 10.8985C70.0022 16.4929 66.4143 20.2316 60.4972 20.2316H57.418V1.61914H60.4972Z" fill="black"/>
<path fill-rule="evenodd" clip-rule="evenodd" d="M74.1523 11.671H82.4075C82.2286 9.3531 80.593 7.82534 78.2161 7.82534C75.9669 7.82534 74.459 9.27405 74.1523 11.671ZM74.075 13.6988C74.2539 16.3592 75.9151 17.9924 78.4964 17.9924C80.6688 17.9924 81.8702 16.886 82.7646 15.2003L84.6302 16.2011C83.7613 18.3611 81.6911 20.2313 78.4964 20.2313C74.3816 20.2313 71.5703 17.3865 71.5703 12.9876C71.5703 8.69413 74.3561 5.66504 78.2409 5.66504C82.2534 5.66504 84.8603 8.35174 84.937 12.5662C84.937 12.856 84.9625 13.2774 84.8858 13.6988H74.075Z" fill="black"/>
<path fill-rule="evenodd" clip-rule="evenodd" d="M89.901 11.2039C90.6347 11.4969 91.3686 11.6034 92.1285 11.8963C94.0941 12.6152 95.1687 13.6805 95.1687 15.9972C95.1687 18.7933 93.0197 20.2313 90.4251 20.2313C86.8872 20.2313 85.6555 18.0743 85.734 15.5979H88.1451C88.1451 16.9826 88.7216 18.181 90.4776 18.181C91.7092 18.2076 92.7314 17.5151 92.7314 16.237C92.7314 15.0652 92.1549 14.5592 91.1065 14.1599C90.2941 13.8668 89.534 13.7337 88.6167 13.3344C86.7562 12.5088 86.0748 11.2571 86.0748 9.55289C86.0748 7.20957 87.9091 5.66504 90.4776 5.66504C93.4127 5.66504 94.8017 7.39587 94.8279 9.97894H92.5216C92.4431 8.51434 91.7879 7.63562 90.4251 7.63562C89.2458 7.63562 88.4859 8.30131 88.4859 9.39318C88.4859 10.2719 88.9575 10.8577 89.901 11.2039Z" fill="black"/>
<path fill-rule="evenodd" clip-rule="evenodd" d="M97.1367 20.231H99.49V5.65804H97.1367V20.231ZM96.7422 2.52478C96.7422 1.5442 97.4359 0.808594 98.3028 0.808594C99.1698 0.808594 99.8883 1.5442 99.8883 2.52478C99.8883 3.47816 99.1698 4.24083 98.3028 4.24083C97.4359 4.24083 96.7422 3.47816 96.7422 2.52478Z" fill="black"/>
<path fill-rule="evenodd" clip-rule="evenodd" d="M108.592 18.1667C111.382 18.1667 113.268 16.0562 113.268 13.0641C113.268 10.0987 111.33 7.93486 108.592 7.93486C105.827 7.93486 103.941 10.0987 103.941 13.0641C103.941 16.0562 105.905 18.1667 108.592 18.1667ZM113.241 5.90557H115.618V17.7669C115.618 23.1367 112.441 25.0868 108.384 25.0868C106.008 25.0868 104.096 24.2854 102.985 23.5374L103.941 21.5337C104.845 22.1483 106.369 22.8695 108.41 22.8695C110.994 22.8695 113.164 21.6405 113.164 18.5684V18.1676C112.544 19.1562 111.02 20.4384 108.54 20.4384C104.38 20.4384 101.461 17.4731 101.461 13.0651C101.461 8.871 104.432 5.66504 108.488 5.66504C110.632 5.66504 112.337 6.57339 113.241 7.82898V5.90557Z" fill="black"/>
<path fill-rule="evenodd" clip-rule="evenodd" d="M125.863 10.9962C125.863 9.05751 125.123 7.95367 123.522 7.95367C121.945 7.95367 121.107 9.1652 121.107 11.077V20.2313H118.766V5.82665H121.107V7.11899C121.501 6.55349 122.413 5.66504 124.089 5.66504C127.095 5.66504 128.204 7.95367 128.204 10.7269V20.2313H125.863V10.9962Z" fill="black"/>
<path fill-rule="evenodd" clip-rule="evenodd" d="M134.402 3.72084V5.00765H135.024C135.397 5.00765 135.596 4.78387 135.596 4.33631C135.596 3.91668 135.397 3.72084 135.024 3.72084H134.402ZM134.404 6.18267V8.64427H133.16V2.48999H135.051C136.27 2.48999 136.892 3.18941 136.892 4.3364C136.892 5.09169 136.544 5.62307 136.121 5.87493L137.116 8.64427H135.822L134.926 6.18267H134.404ZM134.88 10.1262C137.368 10.1262 138.81 8.252 138.81 5.65043C138.81 2.99313 137.343 1.20287 134.83 1.20287C132.417 1.20287 130.949 3.07708 130.949 5.67865C130.949 8.22406 132.417 10.1262 134.88 10.1262ZM134.827 0C138.012 0 140.002 2.48954 140.002 5.65056C140.002 8.75571 137.987 11.3293 134.877 11.3293C131.767 11.3293 129.777 8.89568 129.777 5.67878C129.777 2.54569 131.767 0 134.827 0Z" fill="black"/>
</svg>
