<svg width="140" height="37" viewBox="0 0 140 37" fill="none" xmlns="http://www.w3.org/2000/svg">
<path fill-rule="evenodd" clip-rule="evenodd" d="M29.8001 8.8543C30.0538 9.20077 30.4397 9.38276 30.8311 9.38276C31.1011 9.38276 31.373 9.29592 31.6052 9.11605C32.1742 8.67496 32.2874 7.84337 31.8595 7.25867C28.4816 2.64564 23.3212 0 17.7007 0C16.0868 0 14.4929 0.224521 12.9496 0.667933C12.6046 0.40781 12.1789 0.254208 11.7184 0.254208C10.5665 0.254208 9.63281 1.21509 9.63281 2.40022C9.63281 3.58536 10.5665 4.54624 11.7184 4.54624C12.5873 4.54624 13.3321 3.99941 13.6455 3.222C14.9623 2.84386 16.3225 2.65272 17.7007 2.65272C22.5043 2.65272 26.9144 4.91298 29.8001 8.8543ZM0 18.2183C0 23.4543 2.18079 28.4302 5.98836 31.8894L5.98828 31.9074C5.98828 33.0926 6.92194 34.0534 8.07372 34.0534C9.22567 34.0534 10.1593 33.0926 10.1593 31.9074C10.1593 30.7223 9.22567 29.7614 8.07372 29.7614C7.91145 29.7614 7.75351 29.7805 7.6019 29.8166C4.40622 26.8645 2.57805 22.6508 2.57805 18.2183C2.57805 16.1278 2.98455 14.0833 3.78586 12.1416C4.06397 11.4674 3.7587 10.6883 3.10349 10.4022C2.44519 10.1146 1.69131 10.4314 1.41304 11.1041C0.475252 13.3761 0 15.7697 0 18.2183ZM20.2834 36.2437C19.6609 36.2437 19.1127 35.778 19.0122 35.1247C18.9006 34.4014 19.3809 33.7219 20.0839 33.6074C26.4643 32.5677 31.4578 27.5325 32.6088 21.0254C32.2649 20.6428 32.0547 20.131 32.0547 19.5688C32.0547 18.3835 32.9885 17.4228 34.1403 17.4228C35.2921 17.4228 36.2259 18.3835 36.2259 19.5688C36.2259 20.3753 35.7935 21.0779 35.1542 21.4445C33.8267 29.0885 27.9724 35.0074 20.4868 36.2276C20.4189 36.2386 20.3508 36.2437 20.2834 36.2437ZM21.4213 18.5571L21.4373 18.5635L27.388 17.089C27.4351 17.4827 27.4669 17.8812 27.4669 18.2878C27.4669 23.6781 23.2049 28.0637 17.9658 28.0637C12.727 28.0637 8.46484 23.6781 8.46484 18.2878C8.46484 15.6308 9.50352 13.2213 11.1809 11.4574L15.3083 16.001C14.8016 16.6233 14.4841 17.4143 14.4841 18.2878C14.4841 20.2629 16.046 21.8701 17.9658 21.8701C19.7961 21.8701 21.2846 20.4048 21.4213 18.5571ZM21.1939 17.5138C20.8521 16.0015 19.5409 14.8717 17.9671 14.8717C17.0985 14.8717 16.3147 15.2226 15.7229 15.7843L11.5352 11.1136C13.2294 9.50398 15.4852 8.51144 17.9676 8.51144C22.4642 8.51144 26.2329 11.7462 27.2126 16.0706L21.1939 17.5138Z" fill="#3D4652"/>
<path fill-rule="evenodd" clip-rule="evenodd" d="M51.4503 20.7526C53.2754 20.7526 54.7817 19.2031 54.7817 16.5035C54.7817 13.9205 53.4347 12.2538 51.5187 12.2538C49.7846 12.2538 48.1875 13.4983 48.1875 16.5265C48.1875 18.6395 49.3278 20.7526 51.4503 20.7526ZM46.043 10.5405H48.0736V11.55C48.0736 12.0194 48.0275 12.4186 48.0275 12.4186H48.0736C48.0736 12.4186 49.0545 10.2588 51.9526 10.2588C55.0563 10.2588 57.0183 12.7946 57.0183 16.4805C57.0183 20.2606 54.8048 22.7023 51.7933 22.7023C49.2599 22.7023 48.2565 20.7533 48.2565 20.7533H48.2104C48.2104 20.7533 48.2565 21.176 48.2565 21.7863V27.116H46.043V10.5405Z" fill="#231F20"/>
<path fill-rule="evenodd" clip-rule="evenodd" d="M67.4502 15.0953C67.3817 13.0527 66.1492 12.0669 64.6665 12.0669C62.9783 12.0669 61.6091 13.1468 61.2891 15.0953H67.4502ZM64.7103 10.2598C67.9733 10.2598 69.7074 12.7487 69.7074 15.8243C69.7074 16.1292 69.6388 16.8101 69.6388 16.8101H61.2196C61.334 19.4161 63.1367 20.7311 65.1895 20.7311C67.1751 20.7311 68.6131 19.3458 68.6131 19.3458L69.5256 21.013C69.5256 21.013 67.8138 22.7033 65.0527 22.7033C61.425 22.7033 58.9375 20.003 58.9375 16.4815C58.9375 12.7013 61.425 10.2598 64.7103 10.2598Z" fill="#231F20"/>
<path fill-rule="evenodd" clip-rule="evenodd" d="M72.8814 12.5364H71.375V10.7052H72.9498V7.27734H75.0949V10.7052H77.8785V12.5364H75.0949V17.8185C75.0949 20.1902 76.7145 20.4951 77.5586 20.4951C77.8785 20.4951 78.0841 20.4483 78.0841 20.4483V22.4671C78.0841 22.4671 77.764 22.5145 77.3071 22.5145C75.8243 22.5145 72.8814 22.0451 72.8814 18.0773V12.5364Z" fill="#231F20"/>
<path fill-rule="evenodd" clip-rule="evenodd" d="M80.5742 10.5413H82.7191V12.6076C82.7191 13.1002 82.6732 13.4999 82.6732 13.4999H82.7191C83.2434 11.762 84.5902 10.4004 86.3694 10.4004C86.6669 10.4004 86.9395 10.4473 86.9395 10.4473V12.701C86.9395 12.701 86.6434 12.6306 86.3008 12.6306C84.8867 12.6306 83.5858 13.6638 83.0617 15.4244C82.8561 16.1052 82.7877 16.8335 82.7877 17.5611V22.421H80.5742V10.5413Z" fill="#231F20"/>
<path fill-rule="evenodd" clip-rule="evenodd" d="M89.1289 22.4213H91.3424V10.5416H89.1289V22.4213ZM89.1094 8.16999H91.3452V5.8457H89.1094V8.16999Z" fill="#231F20"/>
<path fill-rule="evenodd" clip-rule="evenodd" d="M100.18 10.2588C103.078 10.2588 104.515 11.9964 104.515 11.9964L103.465 13.5926C103.465 13.5926 102.234 12.2308 100.271 12.2308C97.9439 12.2308 96.2558 14.0153 96.2558 16.4568C96.2558 18.8752 97.9439 20.7301 100.339 20.7301C102.484 20.7301 103.9 19.1334 103.9 19.1334L104.788 20.8005C104.788 20.8005 103.191 22.7021 100.18 22.7021C96.5521 22.7021 93.9961 20.0492 93.9961 16.4805C93.9961 12.9591 96.5521 10.2588 100.18 10.2588Z" fill="#4DBEA7"/>
<path fill-rule="evenodd" clip-rule="evenodd" d="M112.689 20.729C114.88 20.729 116.659 18.9447 116.659 16.4557C116.659 13.9905 114.88 12.2297 112.689 12.2297C110.522 12.2297 108.719 13.9905 108.719 16.4557C108.719 18.9447 110.522 20.729 112.689 20.729ZM112.689 10.2588C116.135 10.2588 118.919 12.8648 118.919 16.4568C118.919 20.0724 116.135 22.7021 112.689 22.7021C109.245 22.7021 106.461 20.0724 106.461 16.4568C106.461 12.8648 109.245 10.2588 112.689 10.2588Z" fill="#4DBEA7"/>
<path fill-rule="evenodd" clip-rule="evenodd" d="M121.539 10.5413H123.684V12.6076C123.684 13.1002 123.638 13.4999 123.638 13.4999H123.684C124.208 11.762 125.555 10.4004 127.334 10.4004C127.632 10.4004 127.904 10.4473 127.904 10.4473V12.701C127.904 12.701 127.608 12.6306 127.266 12.6306C125.851 12.6306 124.551 13.6638 124.026 15.4244C123.821 16.1052 123.753 16.8335 123.753 17.5611V22.421H121.539V10.5413Z" fill="#4DBEA7"/>
<path fill-rule="evenodd" clip-rule="evenodd" d="M137.743 15.0943C137.675 13.0517 136.442 12.0659 134.96 12.0659C133.271 12.0659 131.902 13.1458 131.582 15.0943H137.743ZM135.003 10.2588C138.266 10.2588 140 12.7477 140 15.8233C140 16.1282 139.932 16.8091 139.932 16.8091H131.513C131.627 19.4152 133.43 20.7301 135.482 20.7301C137.468 20.7301 138.906 19.3448 138.906 19.3448L139.819 21.012C139.819 21.012 138.107 22.7023 135.346 22.7023C131.718 22.7023 129.23 20.002 129.23 16.4805C129.23 12.7003 131.718 10.2588 135.003 10.2588Z" fill="#4DBEA7"/>
</svg>
