<svg width="103" height="40" viewBox="0 0 103 40" fill="none" xmlns="http://www.w3.org/2000/svg">
<path d="M24.1943 26.1449L20.487 23.9883C20.7051 22.6314 20.8747 21.2745 20.9716 19.8691C21.0201 19.1664 21.0443 18.3426 21.0443 17.4703C22.4012 18.8514 24.3155 21.6622 24.1943 26.1449ZM13.3632 19.8691C13.0991 19.7238 12.7791 19.7238 12.5151 19.8691L6.94207 23.0918C6.7805 22.0014 6.65935 20.8868 6.57861 19.748C6.094 12.7938 7.98399 8.21422 9.63168 5.5973C10.5116 4.16915 11.6353 2.90625 12.9513 1.86578C14.2599 2.90697 15.3754 4.16988 16.2467 5.5973C17.8943 8.21422 19.7843 12.7938 19.2997 19.748C19.227 20.8788 19.1059 21.9934 18.9363 23.0918L13.3632 19.8691ZM1.68402 26.1206C1.56286 21.6622 3.45286 18.8757 4.83401 17.4461C4.83401 18.2214 4.85824 19.0211 4.9067 19.8449C5.00362 21.2503 5.17323 22.6314 5.39131 23.9641L1.68402 26.1206ZM20.9474 15.12C20.6082 11.025 19.324 6.00923 15.6409 2.08386C15.6167 2.05963 13.654 1.80671e-05 12.9271 1.80671e-05C12.7737 0.00292575 12.6237 0.0446025 12.4909 0.121171C12.1759 0.315017 5.75477 4.36154 4.9067 15.1442C3.59824 16.1376 -0.739051 19.966 0.109023 27.6229C0.156159 28.0846 0.568175 28.4207 1.02979 28.3741C1.14574 28.3531 1.25941 28.3206 1.36902 28.2772L5.73054 25.7572C5.92439 26.7264 6.16669 27.6714 6.43323 28.5922C6.56233 29.0313 7.02291 29.2826 7.46199 29.1534C7.46645 29.1522 7.47079 29.151 7.47515 29.1495C7.54784 29.1252 7.5963 29.101 7.669 29.0768L11.0371 27.1383C11.4312 26.8977 11.5556 26.3833 11.3152 25.9894C11.0856 25.6133 10.6035 25.4798 10.2132 25.6845L7.79015 27.0899C7.5963 26.3629 7.42669 25.636 7.2813 24.8849L12.9755 21.6137L18.6697 24.9091C18.5243 25.6603 18.3547 26.3872 18.1609 27.1141L15.7378 25.7087C15.3437 25.4681 14.8293 25.5927 14.5887 25.9869C14.3482 26.3809 14.4727 26.8954 14.8668 27.136C14.8823 27.1454 14.898 27.1542 14.914 27.1626L18.282 29.101C18.406 29.1774 18.5483 29.2193 18.694 29.2222C18.8004 29.2178 18.9061 29.2016 19.009 29.1737C19.2444 29.0807 19.4233 28.884 19.4936 28.6406C19.7601 27.7199 20.0024 26.7749 20.1963 25.8056L24.5578 28.3256C24.6818 28.402 24.8241 28.444 24.9697 28.4468C25.402 28.4595 25.7662 28.1273 25.7935 27.6956C26.6174 19.9418 22.2316 16.0891 20.9474 15.12Z" fill="black"/>
<path d="M15.1077 34.6988C14.4823 35.831 13.7523 36.9016 12.927 37.8973C12.1071 36.8976 11.3773 35.8273 10.7462 34.6988C10.0814 33.4944 10.5188 31.9792 11.7232 31.3143C12.9276 30.6497 14.4429 31.0871 15.1077 32.2916C15.5212 33.0406 15.5212 33.9497 15.1077 34.6988V34.6988ZM12.927 29.2954C10.6252 29.2954 8.75928 31.1614 8.75928 33.4631C8.76354 34.1833 8.94668 34.891 9.29235 35.5227C10.8673 38.3334 12.2727 39.7146 12.3454 39.763C12.669 40.0783 13.1849 40.0783 13.5085 39.763C13.5569 39.7146 14.9623 38.3334 16.5616 35.5227C17.6899 33.5303 16.9894 31.0005 14.997 29.8721C14.9854 29.8656 14.9739 29.8593 14.9623 29.8527C14.3469 29.4859 13.6434 29.2932 12.927 29.2954" fill="black"/>
<path d="M36.931 17.7818C36.931 17.3738 37.016 16.9828 37.186 16.6088C37.3673 16.2348 37.6166 15.9118 37.934 15.6398C38.2626 15.3564 38.6536 15.1298 39.107 14.9598C39.5716 14.7898 40.093 14.7048 40.671 14.7048C41.2036 14.7048 41.6853 14.7898 42.116 14.9598C42.558 15.1298 42.9376 15.3678 43.255 15.6738C43.5723 15.9798 43.816 16.3424 43.986 16.7618C44.156 17.1698 44.241 17.6174 44.241 18.1048H42.286C42.286 17.6288 42.1443 17.2548 41.861 16.9828C41.5776 16.7108 41.181 16.5748 40.671 16.5748C40.161 16.5748 39.7643 16.6994 39.481 16.9488C39.1976 17.1981 39.056 17.4701 39.056 17.7648C39.056 18.0821 39.192 18.3258 39.464 18.4958C39.736 18.6658 40.076 18.8188 40.484 18.9548C40.892 19.0908 41.334 19.2324 41.81 19.3798C42.2973 19.5271 42.745 19.7254 43.153 19.9748C43.561 20.2241 43.901 20.5528 44.173 20.9608C44.445 21.3574 44.581 21.8788 44.581 22.5248C44.581 22.9101 44.4846 23.2841 44.292 23.6468C44.1106 24.0094 43.85 24.3381 43.51 24.6328C43.17 24.9161 42.7563 25.1484 42.269 25.3298C41.793 25.4998 41.2603 25.5848 40.671 25.5848C40.0703 25.5848 39.532 25.4998 39.056 25.3298C38.5913 25.1598 38.1946 24.9218 37.866 24.6158C37.5373 24.2984 37.2823 23.9301 37.101 23.5108C36.931 23.0801 36.846 22.6098 36.846 22.0998H38.886C38.886 22.5758 39.0446 22.9668 39.362 23.2728C39.6793 23.5674 40.1156 23.7148 40.671 23.7148C41.2716 23.7148 41.7193 23.5901 42.014 23.3408C42.3086 23.0801 42.456 22.7798 42.456 22.4398C42.456 22.1111 42.32 21.8561 42.048 21.6748C41.776 21.4934 41.436 21.3348 41.028 21.1988C40.62 21.0514 40.1723 20.9098 39.685 20.7738C39.209 20.6378 38.767 20.4508 38.359 20.2128C37.951 19.9748 37.611 19.6688 37.339 19.2948C37.067 18.9094 36.931 18.4051 36.931 17.7818ZM49.588 23.5448C50.0073 23.5448 50.4097 23.4541 50.795 23.2728C51.1917 23.0914 51.5373 22.8478 51.832 22.5418C52.138 22.2358 52.376 21.8788 52.546 21.4708C52.7273 21.0514 52.818 20.6094 52.818 20.1448C52.818 19.6801 52.7273 19.2438 52.546 18.8358C52.376 18.4164 52.138 18.0538 51.832 17.7478C51.5373 17.4418 51.1917 17.1981 50.795 17.0168C50.4097 16.8354 50.0073 16.7448 49.588 16.7448H48.228V23.5448H49.588ZM46.188 25.4998V14.7898H49.588C50.2907 14.7898 50.9593 14.9371 51.594 15.2318C52.2287 15.5151 52.7897 15.9004 53.277 16.3878C53.7643 16.8751 54.1497 17.4418 54.433 18.0878C54.7163 18.7338 54.858 19.4194 54.858 20.1448C54.858 20.8701 54.7163 21.5558 54.433 22.2018C54.1497 22.8478 53.7643 23.4144 53.277 23.9018C52.7897 24.3891 52.2287 24.7801 51.594 25.0748C50.9593 25.3581 50.2907 25.4998 49.588 25.4998H46.188ZM65.066 14.7898V25.4998H63.026V20.9948H58.521V25.4998H56.481V14.7898H58.521V19.0398H63.026V14.7898H65.066ZM78.1454 23.5448V25.4998H71.0904V14.7898H73.1304V23.5448H78.1454ZM82.4013 17.5948C82.8433 17.5948 83.2513 17.6741 83.6253 17.8328C83.9993 17.9801 84.3223 18.1898 84.5943 18.4618C84.8663 18.7338 85.076 19.0568 85.2233 19.4308C85.382 19.8048 85.4613 20.2128 85.4613 20.6548V25.4998H84.0163L83.6763 24.7348C83.495 24.8934 83.2967 25.0351 83.0813 25.1598C82.8887 25.2731 82.6563 25.3751 82.3843 25.4658C82.1123 25.5451 81.8063 25.5848 81.4663 25.5848C80.6163 25.5848 79.9647 25.3808 79.5113 24.9728C79.058 24.5534 78.8313 24.0208 78.8313 23.3748C78.8313 22.9894 78.905 22.6381 79.0523 22.3208C79.211 21.9921 79.4717 21.7144 79.8343 21.4878C80.197 21.2498 80.673 21.0684 81.2623 20.9438C81.863 20.8078 82.611 20.7398 83.5063 20.7398C83.5063 20.3091 83.3873 19.9748 83.1493 19.7368C82.9227 19.4988 82.6167 19.3798 82.2313 19.3798C81.9707 19.3798 81.761 19.4251 81.6023 19.5158C81.455 19.6064 81.336 19.7028 81.2453 19.8048C81.1433 19.9294 81.0753 20.0711 81.0413 20.2298H79.0863C79.1317 19.8671 79.2337 19.5271 79.3923 19.2098C79.5623 18.8924 79.789 18.6148 80.0723 18.3768C80.3557 18.1388 80.69 17.9518 81.0753 17.8158C81.472 17.6684 81.914 17.5948 82.4013 17.5948ZM81.8063 24.0548C82.3163 24.0548 82.7243 23.9074 83.0303 23.6128C83.3477 23.3068 83.5063 22.9158 83.5063 22.4398V22.0998C82.9283 22.0998 82.4637 22.1281 82.1123 22.1848C81.761 22.2301 81.4833 22.3038 81.2793 22.4058C81.0867 22.4964 80.9563 22.6098 80.8883 22.7458C80.8203 22.8818 80.7863 23.0348 80.7863 23.2048C80.7863 23.4201 80.8827 23.6184 81.0753 23.7998C81.268 23.9698 81.5117 24.0548 81.8063 24.0548ZM91.2347 25.5848C90.8947 25.5848 90.5887 25.5451 90.3167 25.4658C90.0447 25.3751 89.8124 25.2731 89.6197 25.1598C89.393 25.0351 89.1947 24.8934 89.0247 24.7348L88.6847 25.4998H87.2397V14.7898H89.1947V18.3598C89.3534 18.2238 89.5347 18.0991 89.7387 17.9858C89.92 17.8951 90.1297 17.8101 90.3677 17.7308C90.617 17.6401 90.906 17.5948 91.2347 17.5948C91.722 17.5948 92.1867 17.6968 92.6287 17.9008C93.0707 18.0934 93.456 18.3711 93.7847 18.7338C94.1247 19.0851 94.391 19.5044 94.5837 19.9918C94.7877 20.4791 94.8897 21.0118 94.8897 21.5898C94.8897 22.1678 94.7877 22.7004 94.5837 23.1878C94.391 23.6751 94.1247 24.1001 93.7847 24.4628C93.456 24.8141 93.0707 25.0918 92.6287 25.2958C92.1867 25.4884 91.722 25.5848 91.2347 25.5848ZM89.0247 21.5898C89.0247 22.2358 89.2117 22.7514 89.5857 23.1368C89.9597 23.5221 90.4244 23.7148 90.9797 23.7148C91.535 23.7148 91.9997 23.5221 92.3737 23.1368C92.7477 22.7514 92.9347 22.2358 92.9347 21.5898C92.9347 20.9438 92.7477 20.4281 92.3737 20.0428C91.9997 19.6574 91.535 19.4648 90.9797 19.4648C90.4244 19.4648 89.9597 19.6574 89.5857 20.0428C89.2117 20.4281 89.0247 20.9438 89.0247 21.5898ZM97.7823 23.0348C97.8277 23.2954 97.9523 23.5164 98.1563 23.6978C98.3603 23.8791 98.6323 23.9698 98.9723 23.9698C99.3123 23.9698 99.5787 23.8848 99.7713 23.7148C99.9753 23.5334 100.077 23.3351 100.077 23.1198C100.077 22.9384 99.9753 22.7968 99.7713 22.6948C99.5787 22.5928 99.335 22.5021 99.0403 22.4228C98.7457 22.3321 98.4227 22.2414 98.0713 22.1508C97.7313 22.0601 97.414 21.9298 97.1193 21.7598C96.8247 21.5784 96.5753 21.3518 96.3713 21.0798C96.1787 20.7964 96.0823 20.4281 96.0823 19.9748C96.0823 19.6574 96.1447 19.3571 96.2693 19.0738C96.4053 18.7791 96.598 18.5241 96.8473 18.3088C97.0967 18.0934 97.3913 17.9234 97.7313 17.7988C98.0713 17.6628 98.4567 17.5948 98.8873 17.5948C99.828 17.5948 100.548 17.8214 101.046 18.2748C101.556 18.7281 101.857 19.2948 101.947 19.9748H100.077C100.032 19.8048 99.9073 19.6348 99.7033 19.4648C99.5107 19.2948 99.267 19.2098 98.9723 19.2098C98.6777 19.2098 98.4453 19.2834 98.2753 19.4308C98.1167 19.5781 98.0373 19.7594 98.0373 19.9748C98.0373 20.1561 98.1337 20.2978 98.3263 20.3998C98.5303 20.5018 98.7797 20.5981 99.0743 20.6888C99.369 20.7681 99.6863 20.8588 100.026 20.9608C100.378 21.0514 100.701 21.1874 100.995 21.3688C101.29 21.5501 101.534 21.7881 101.726 22.0828C101.93 22.3661 102.032 22.7401 102.032 23.2048C102.032 23.5221 101.964 23.8281 101.828 24.1228C101.692 24.4061 101.5 24.6554 101.25 24.8708C101.001 25.0861 100.695 25.2618 100.332 25.3978C99.981 25.5224 99.5843 25.5848 99.1423 25.5848C98.1223 25.5848 97.346 25.3524 96.8133 24.8878C96.292 24.4231 95.9917 23.8054 95.9123 23.0348H97.7823Z" fill="black"/>
</svg>
