<svg width="137" height="40" viewBox="0 0 137 40" fill="none" xmlns="http://www.w3.org/2000/svg">
<path d="M36.8442 16.2835C36.8488 15.8734 36.9394 15.4689 37.1107 15.0962C37.2888 14.716 37.5447 14.3777 37.8619 14.1027C38.2108 13.803 38.6138 13.5725 39.0492 13.4242C39.5566 13.2515 40.0883 13.1616 40.6243 13.1577C41.1217 13.1497 41.6158 13.2403 42.0781 13.4242C42.5041 13.5849 42.8921 13.8323 43.217 14.1512C43.5296 14.4625 43.7768 14.8333 43.944 15.2416C44.116 15.6736 44.2064 16.1337 44.2105 16.5985H42.2478C42.271 16.1787 42.1222 15.7674 41.8358 15.4597C41.5094 15.172 41.083 15.0242 40.6485 15.0477C40.2172 15.0153 39.7902 15.1546 39.4612 15.4354C39.2029 15.6336 39.0437 15.9343 39.025 16.2592C39.0202 16.5585 39.1779 16.8366 39.4369 16.9862C39.7594 17.174 40.1006 17.3283 40.4546 17.4466C40.8666 17.592 41.3027 17.7374 41.7874 17.8827C42.2625 18.029 42.7183 18.2324 43.1443 18.4885C43.5567 18.7354 43.9054 19.0757 44.162 19.482C44.4526 19.9545 44.596 20.5029 44.574 21.057C44.572 21.4548 44.4722 21.846 44.2832 22.1959C44.0872 22.5782 43.815 22.9162 43.4836 23.1894C43.1148 23.4925 42.6968 23.7302 42.2478 23.8921C41.7273 24.0786 41.177 24.1689 40.6243 24.1587C40.0715 24.1669 39.5217 24.0767 39.0008 23.8921C38.5484 23.7418 38.1347 23.4936 37.7892 23.1652C37.4611 22.8524 37.2047 22.4721 37.038 22.0505C36.8636 21.6024 36.7732 21.1261 36.7715 20.6451H38.8311C38.8144 21.0852 38.9916 21.5103 39.3158 21.8082C39.6778 22.1222 40.1455 22.2868 40.6243 22.2686C41.23 22.2686 41.6904 22.1475 41.9812 21.8809C42.2512 21.6606 42.4106 21.3328 42.4174 20.9844C42.4232 20.6721 42.2674 20.379 42.0054 20.209C41.6858 20.0089 41.3444 19.8463 40.9877 19.7243C40.5758 19.5789 40.1396 19.4335 39.655 19.3124C39.1813 19.1835 38.7255 18.9962 38.2981 18.7551C37.8997 18.5207 37.5532 18.2074 37.2803 17.8343C36.9721 17.3777 36.8192 16.8339 36.8442 16.2835Z" fill="black"/>
<path d="M48.4016 14.2965V16.1865H50.1221V17.9796H48.4016V21.2266C48.3556 21.7952 48.7782 22.2937 49.3467 22.3412H49.7101C49.7586 22.3412 49.8071 22.317 49.8555 22.317C49.904 22.317 49.9524 22.2928 50.0009 22.2685V23.989C49.9163 24.032 49.8267 24.0645 49.7344 24.0859C49.5151 24.1554 49.2858 24.188 49.0559 24.1828C48.6919 24.1795 48.3314 24.1139 47.9897 23.989C47.6655 23.8642 47.375 23.665 47.1416 23.4074C46.9059 23.1427 46.7173 22.8394 46.5843 22.5109C46.4476 22.1388 46.3817 21.7442 46.3905 21.3478V18.0038H45.2031V16.3803H45.712C46.342 16.3803 46.657 16.0653 46.657 15.4354V14.2965H48.4016Z" fill="black"/>
<path d="M54.1209 22.6079C54.5784 22.6297 55.025 22.4633 55.3567 22.1475C55.6703 21.8441 55.8382 21.4203 55.8171 20.9844V20.6452C55.3477 20.6453 54.8786 20.6695 54.4117 20.7178C54.1265 20.7417 53.8476 20.8155 53.5878 20.9359C53.4233 21.0011 53.2864 21.1209 53.2001 21.2752C53.1311 21.4186 53.0979 21.5766 53.1032 21.7356C53.1134 21.9619 53.219 22.1733 53.394 22.3171C53.5883 22.5064 53.8498 22.611 54.1209 22.6079ZM54.7267 16.1139C55.1507 16.1099 55.5714 16.1924 55.9625 16.3562C56.6914 16.6491 57.269 17.2267 57.5618 17.9555C57.7256 18.3467 57.8082 18.7672 57.8041 19.1913V24.0618H56.3502L56.011 23.2864C55.8253 23.4531 55.622 23.5993 55.4052 23.7225C55.182 23.8442 54.9465 23.9417 54.7025 24.0133C54.4039 24.1029 54.093 24.1437 53.7817 24.1345C52.9336 24.1345 52.2793 23.9164 51.8189 23.5044C51.3641 23.1004 51.115 22.5131 51.1404 21.9052C51.1368 21.5358 51.2199 21.1707 51.3828 20.839C51.5601 20.4917 51.8281 20.1987 52.1582 19.9909C52.6079 19.7245 53.0996 19.536 53.612 19.4336C54.3535 19.285 55.1095 19.2201 55.8656 19.2397C55.8903 18.8649 55.7587 18.4965 55.5021 18.222C55.0771 17.8421 54.4647 17.756 53.9513 18.0039C53.8103 18.0731 53.6862 18.1724 53.5878 18.2947C53.4868 18.4241 53.4126 18.5724 53.3697 18.7309H51.407C51.4521 18.379 51.5502 18.0359 51.6978 17.7132C51.8671 17.3895 52.0976 17.1014 52.3762 16.8651C52.6837 16.6202 53.0269 16.4241 53.394 16.2835C53.8279 16.1646 54.2767 16.1076 54.7267 16.1139Z" fill="black"/>
<path d="M63.232 16.1136C63.3134 16.1096 63.3951 16.1179 63.4743 16.1378L63.6681 16.1621L63.8378 16.2105V18.2702L63.6439 18.246C63.5736 18.2231 63.4995 18.2147 63.4258 18.2217C63.3304 18.2017 63.2327 18.1935 63.1351 18.1975C62.6984 18.172 62.2727 18.3404 61.972 18.6579C61.6562 18.9897 61.4897 19.4362 61.5116 19.8937V24.0857H59.5488V16.2105H61.0027L61.3419 17.0586C61.4788 16.8813 61.6424 16.7259 61.8266 16.5982C62.0061 16.4622 62.2014 16.3484 62.4081 16.259C62.6662 16.1426 62.9494 16.0926 63.232 16.1136Z" fill="black"/>
<path d="M66.0902 14.2965H67.8106V16.1865H69.5311V17.9796H67.8106V21.2266C67.7646 21.7952 68.1872 22.2937 68.7557 22.3412H69.1191C69.1676 22.3412 69.2161 22.317 69.2645 22.317C69.313 22.317 69.3615 22.2928 69.4099 22.2685V23.989C69.3253 24.032 69.2357 24.0645 69.1434 24.0859C68.9241 24.1554 68.6948 24.188 68.4649 24.1828C68.1009 24.1795 67.7404 24.1139 67.3987 23.989C67.0745 23.8642 66.784 23.665 66.5506 23.4074C66.3069 23.1487 66.1174 22.8439 65.9933 22.5109C65.8566 22.1388 65.7907 21.7442 65.7995 21.3478V18.0038H64.5879V16.3803H65.0967C65.7268 16.3803 66.0418 16.0653 66.0418 15.4354L66.0902 14.2965Z" fill="black"/>
<path d="M74.0387 24.1583C73.5989 24.1625 73.1625 24.0801 72.7545 23.916C72.3701 23.7798 72.0278 23.546 71.761 23.2375C71.4714 22.9406 71.2485 22.5854 71.1067 22.1956C70.9422 21.7539 70.8601 21.2858 70.8644 20.8144V16.2104H72.8272V20.5721C72.8054 21.0296 72.9718 21.4762 73.2875 21.8079C73.944 22.4387 74.9816 22.4387 75.638 21.8079C75.9537 21.4762 76.1202 21.0296 76.0984 20.5721V16.2104H78.0611V24.0856H76.6072L76.268 23.3102C76.0739 23.4773 75.8626 23.6235 75.638 23.7464C75.4148 23.868 75.1793 23.9655 74.9353 24.0371C74.6423 24.1132 74.3414 24.1539 74.0387 24.1583Z" fill="black"/>
<path d="M81.6955 20.1364C81.6642 20.7074 81.8653 21.2668 82.2528 21.6872C83.0294 22.4624 84.287 22.4624 85.0636 21.6872C85.8148 20.7806 85.8148 19.4679 85.0636 18.5614C84.287 17.7862 83.0294 17.7862 82.2528 18.5614C81.8682 18.9933 81.6683 19.5587 81.6955 20.1364ZM83.9247 16.114C84.4084 16.1122 84.887 16.2112 85.3302 16.4048C85.7746 16.6 86.1715 16.8894 86.4933 17.2529C86.8371 17.6277 87.1083 18.0632 87.2929 18.5371C87.7043 19.5721 87.7043 20.725 87.2929 21.7599C87.0966 22.2281 86.8267 22.6617 86.4933 23.0441C86.1601 23.3951 85.7661 23.6825 85.3302 23.8922C84.887 24.0859 84.4084 24.1849 83.9247 24.183C83.6294 24.1905 83.3347 24.1495 83.0524 24.0619C82.6155 23.9287 82.2111 23.7059 81.8651 23.4076V26.8242H79.9023V16.2109H81.3562L81.6955 16.9863C81.8767 16.8143 82.0805 16.6674 82.3012 16.5502C82.5244 16.4286 82.7599 16.3311 83.004 16.2594C83.295 16.1388 83.6107 16.089 83.9247 16.114Z" fill="black"/>
<path d="M102.05 13.2789V24.0618H99.9905V19.5305H95.4593V24.0618H93.4238V13.2789H95.4835V17.5678H100.015V13.2789H102.05Z" fill="black"/>
<path d="M105.613 20.1363C105.581 20.7074 105.782 21.2667 106.17 21.6871C106.947 22.4623 108.204 22.4623 108.981 21.6871C109.732 20.7805 109.732 19.4679 108.981 18.5613C108.204 17.7862 106.947 17.7862 106.17 18.5613C105.785 18.9933 105.585 19.5586 105.613 20.1363ZM111.525 20.1363C111.528 20.6774 111.421 21.2133 111.21 21.7114C111.011 22.1894 110.723 22.6251 110.362 22.9956C109.999 23.3615 109.572 23.6572 109.102 23.8679C108.134 24.2787 107.041 24.2787 106.073 23.8679C105.606 23.6511 105.18 23.3561 104.813 22.9956C104.446 22.6294 104.158 22.1925 103.965 21.7114C103.339 20.2041 103.673 18.469 104.813 17.3013C105.176 16.9355 105.603 16.6397 106.073 16.4289C107.041 16.0182 108.134 16.0182 109.102 16.4289C109.569 16.6458 109.995 16.9408 110.362 17.3013C110.729 17.6676 111.017 18.1045 111.21 18.5855C111.417 19.0766 111.524 19.6037 111.525 20.1363Z" fill="black"/>
<path d="M116.007 24.1583C115.568 24.1625 115.131 24.0801 114.723 23.916C114.339 23.7798 113.996 23.546 113.73 23.2375C113.44 22.9406 113.217 22.5854 113.075 22.1956C112.911 21.7539 112.829 21.2858 112.833 20.8144V16.2104H114.796V20.5721C114.774 21.0296 114.941 21.4762 115.256 21.8079C115.913 22.4387 116.95 22.4387 117.607 21.8079C117.922 21.4762 118.089 21.0296 118.067 20.5721V16.2104H120.03V24.0856H118.576L118.237 23.3102C118.043 23.4773 117.831 23.6234 117.607 23.7464C117.384 23.868 117.148 23.9655 116.904 24.0371C116.611 24.1148 116.31 24.1555 116.007 24.1583Z" fill="black"/>
<path d="M123.35 21.5901C123.397 21.849 123.524 22.0866 123.713 22.2686C124.202 22.6322 124.872 22.6322 125.361 22.2686C125.536 22.1248 125.642 21.9134 125.652 21.6871C125.649 21.4973 125.535 21.3268 125.361 21.2509C125.121 21.1291 124.87 21.0317 124.61 20.9601C124.319 20.8874 123.98 20.7905 123.641 20.6936C123.298 20.6069 122.972 20.4679 122.672 20.2817C122.378 20.1086 122.122 19.8779 121.92 19.6032C121.704 19.2736 121.602 18.882 121.63 18.4885C121.633 18.1719 121.699 17.8591 121.823 17.5677C121.953 17.2737 122.153 17.0157 122.405 16.8166C122.671 16.5885 122.974 16.4082 123.302 16.2835C123.674 16.1468 124.068 16.081 124.465 16.0896C125.41 16.0896 126.137 16.3077 126.645 16.7681C127.154 17.2051 127.475 17.8212 127.542 18.4885H125.652C125.583 18.2873 125.456 18.1105 125.289 17.9797C125.078 17.8069 124.809 17.7203 124.537 17.7374C124.285 17.7236 124.035 17.801 123.835 17.9554C123.673 18.095 123.584 18.2999 123.592 18.5128C123.595 18.7026 123.709 18.8731 123.883 18.9489C124.123 19.0709 124.375 19.1682 124.634 19.2397L125.604 19.5063C125.942 19.6036 126.268 19.7419 126.573 19.9182C126.873 20.093 127.13 20.3332 127.324 20.6209C127.541 20.9594 127.643 21.3588 127.615 21.7598C127.611 22.0765 127.545 22.3893 127.421 22.6806C127.283 22.9697 127.085 23.226 126.839 23.4317C126.565 23.6604 126.253 23.8406 125.919 23.9648C125.53 24.1018 125.119 24.1674 124.707 24.1587C123.689 24.1587 122.89 23.9164 122.381 23.456C121.843 22.9777 121.512 22.3083 121.46 21.5901H123.35Z" fill="black"/>
<path d="M132.46 17.9795C132.008 17.9604 131.565 18.1166 131.224 18.4157C130.911 18.7088 130.692 19.0883 130.594 19.5061H134.375C134.287 19.0845 134.066 18.7022 133.745 18.4157C133.386 18.1156 132.928 17.9601 132.46 17.9795ZM135.974 21.6627C135.855 21.9779 135.7 22.2787 135.513 22.5593C135.293 22.8604 135.032 23.1295 134.738 23.3589C134.427 23.5989 134.085 23.7946 133.72 23.9404C133.324 24.0852 132.906 24.159 132.484 24.1585C131.966 24.1666 131.453 24.0591 130.982 23.8435C130.515 23.6267 130.089 23.3317 129.722 22.9712C129.355 22.605 129.067 22.1681 128.874 21.6869C128.248 20.1797 128.582 18.4446 129.722 17.2768C130.085 16.9111 130.512 16.6153 130.982 16.4045C131.932 15.9969 133.006 15.9882 133.963 16.3803C134.413 16.5665 134.818 16.8475 135.15 17.2041C135.501 17.5779 135.78 18.0133 135.974 18.4884C136.18 19.0128 136.278 19.573 136.265 20.1361C136.268 20.2257 136.26 20.3154 136.24 20.4027C136.24 20.4996 136.216 20.5723 136.216 20.645C136.216 20.7177 136.192 20.8146 136.192 20.9115H130.716C130.885 21.7521 131.654 22.3343 132.509 22.2685C132.731 22.272 132.952 22.2392 133.163 22.1716C133.322 22.1218 133.477 22.0568 133.623 21.9777C133.753 21.8925 133.868 21.786 133.963 21.6627H135.974Z" fill="black"/>
<path d="M24.195 26.1455L20.4876 23.9889C20.7056 22.632 20.8753 21.275 20.9722 19.8696C21.0206 19.1669 21.0449 18.3431 21.0449 17.4707C22.4018 18.8519 24.3161 21.6627 24.195 26.1455ZM13.3636 19.8696C13.0995 19.7243 12.7795 19.7243 12.5155 19.8696L6.94226 23.0924C6.78068 22.002 6.65952 20.8873 6.57879 19.7485C6.09416 12.7941 7.9842 8.21441 9.63193 5.59743C10.5119 4.16924 11.6356 2.9063 12.9516 1.86581C14.2603 2.90703 15.3758 4.16997 16.2471 5.59743C17.8948 8.21441 19.7849 12.7941 19.3002 19.7485C19.2275 20.8793 19.1064 21.9939 18.9368 23.0924L13.3636 19.8696ZM1.68406 26.1213C1.5629 21.6627 3.45295 18.8761 4.83413 17.4465C4.83413 18.2219 4.85836 19.0215 4.90683 19.8454C5.00375 21.2508 5.17337 22.632 5.39145 23.9647L1.68406 26.1213ZM20.948 15.1203C20.6087 11.0252 19.3245 6.00936 15.6413 2.08389C15.6171 2.05966 13.6543 0 12.9274 0C12.7741 0.00290776 12.624 0.0445856 12.4912 0.121157C12.1762 0.315007 5.75492 4.36164 4.90683 15.1446C3.59833 16.138 -0.73907 19.9665 0.109026 27.6236C0.156163 28.0853 0.56819 28.4214 1.02982 28.3748C1.14577 28.3538 1.25945 28.3213 1.36905 28.2779L5.73069 25.7578C5.92454 26.7271 6.16685 27.6721 6.4334 28.5929C6.5625 29.032 7.02309 29.2833 7.46219 29.1541C7.46665 29.153 7.47098 29.1517 7.47534 29.1502C7.54804 29.126 7.5965 29.1018 7.6692 29.0775L11.0373 27.139C11.4315 26.8984 11.5559 26.384 11.3154 25.99C11.0859 25.614 10.6037 25.4804 10.2135 25.6851L7.79035 27.0906C7.5965 26.3636 7.42688 25.6367 7.28149 24.8855L12.9759 21.6143L18.6702 24.9097C18.5248 25.6609 18.3552 26.3878 18.1614 27.1148L15.7382 25.7094C15.3441 25.4688 14.8296 25.5933 14.5891 25.9876C14.3486 26.3816 14.4731 26.896 14.8672 27.1367C14.8826 27.1461 14.8984 27.1548 14.9144 27.1632L18.2825 29.1018C18.4065 29.1782 18.5488 29.2201 18.6944 29.2229C18.8009 29.2186 18.9066 29.2024 19.0094 29.1744C19.2449 29.0814 19.4239 28.8847 19.4941 28.6414C19.7606 27.7206 20.0029 26.7755 20.1968 25.8063L24.5584 28.3264C24.6825 28.4028 24.8247 28.4447 24.9704 28.4475C25.4026 28.4602 25.7668 28.128 25.7942 27.6963C26.6181 19.9423 22.2322 16.0895 20.948 15.1203Z" fill="black"/>
<path d="M15.1084 34.6992C14.483 35.8313 13.7529 36.9021 12.9275 37.8977C12.1077 36.898 11.3779 35.8277 10.7467 34.6992C10.0819 33.4947 10.5194 31.9795 11.7237 31.3146C12.9282 30.6499 14.4435 31.0873 15.1084 32.2919C15.5219 33.0409 15.5219 33.95 15.1084 34.6992ZM12.9275 29.2956C10.6258 29.2956 8.75977 31.1617 8.75977 33.4634C8.76403 34.1836 8.94717 34.8913 9.29285 35.5231C10.8679 38.3339 12.2733 39.7151 12.346 39.7635C12.6696 40.0788 13.1855 40.0788 13.5091 39.7635C13.5576 39.7151 14.963 38.3339 16.5622 35.5231C17.6906 33.5306 16.9901 31.0008 14.9976 29.8723C14.9861 29.8658 14.9745 29.8596 14.963 29.8529C14.3476 29.4862 13.644 29.2934 12.9275 29.2956Z" fill="black"/>
</svg>
