<svg width="124" height="49" viewBox="0 0 124 49" fill="none" xmlns="http://www.w3.org/2000/svg">
<g clip-path="url(#clip0_7118_381)">
<path d="M43.7318 39.3V35.97C43.7356 35.004 43.4285 34.0624 42.8558 33.2844C42.2831 32.5064 41.4753 31.9334 40.5518 31.65C41.4563 29.0195 41.6996 26.2068 41.2601 23.4601C40.8207 20.7133 39.7119 18.117 38.0317 15.9V13.29C38.0322 12.8413 37.8592 12.4097 37.5489 12.0854C37.2386 11.7612 36.8151 11.5694 36.3667 11.55H33.2018C30.5788 9.99792 27.587 9.17905 24.5392 9.17905C21.4915 9.17905 18.4997 9.99792 15.8767 11.55H12.7118C12.2595 11.5618 11.83 11.7508 11.5157 12.0763C11.2015 12.4017 11.0277 12.8376 11.0317 13.29V15.9C8.82245 18.8294 7.63193 22.401 7.64175 26.07C7.63338 27.9546 7.94793 29.8267 8.57175 31.605C7.6296 31.8798 6.80309 32.455 6.21816 33.243C5.63323 34.031 5.32195 34.9887 5.33175 35.97V39.3C2.6575 35.7344 1.029 31.4944 0.628726 27.0554C0.228455 22.6163 1.07223 18.1534 3.0655 14.1669C5.05877 10.1804 8.12278 6.82763 11.9142 4.48441C15.7056 2.14118 20.0747 0.900024 24.5317 0.900024C28.9888 0.900024 33.3579 2.14118 37.1493 4.48441C40.9407 6.82763 44.0047 10.1804 45.998 14.1669C47.9913 18.1534 48.835 22.6163 48.4348 27.0554C48.0345 31.4944 46.406 35.7344 43.7318 39.3Z" fill="#4E8278"/>
<path d="M31.8218 47.7751C31.4618 47.8951 31.0868 48.0001 30.7118 48.0901C28.6958 48.6275 26.6183 48.8998 24.5318 48.9001C22.4564 48.8965 20.3899 48.6294 18.3818 48.1051L17.2568 47.7751C17.4971 46.0142 18.3673 44.4 19.7062 43.2314C21.0452 42.0628 22.7622 41.4189 24.5393 41.4189C26.3165 41.4189 28.0335 42.0628 29.3724 43.2314C30.7114 44.4 31.5815 46.0142 31.8218 47.7751Z" fill="#E8F0EF"/>
<path d="M43.7311 35.9699V39.2999C41.8835 41.759 39.5821 43.8415 36.9511 45.4349C35.337 46.4101 33.6156 47.1953 31.8211 47.7749C31.5808 46.0141 30.7107 44.3999 29.3718 43.2313C28.0328 42.0627 26.3158 41.4188 24.5386 41.4188C22.7615 41.4188 21.0445 42.0627 19.7055 43.2313C18.3666 44.3999 17.4964 46.0141 17.2561 47.7749C15.458 47.1924 13.732 46.4074 12.1111 45.4349C9.48021 43.8415 7.17876 41.759 5.33114 39.2999V35.9699C5.32503 34.9995 5.63283 34.053 6.20862 33.2718C6.78441 32.4905 7.59734 31.9164 8.52614 31.6349C7.90228 29.8618 7.58771 27.9946 7.59614 26.1149C7.59496 22.4262 8.8014 18.8385 11.0311 15.9V13.275C11.031 12.8251 11.2065 12.3931 11.5204 12.0708C11.8342 11.7486 12.2615 11.5617 12.7111 11.55H15.8761C18.4959 9.98859 21.4889 9.16431 24.5386 9.16431C27.5884 9.16431 30.5814 9.98859 33.2011 11.55H36.3661C36.8119 11.5692 37.2333 11.7589 37.5431 12.0799C37.853 12.401 38.0277 12.8288 38.0311 13.275V15.9C39.6937 18.1143 40.7875 20.7028 41.2164 23.4384C41.6453 26.174 41.3963 28.973 40.4911 31.5899C41.4358 31.8654 42.2641 32.4428 42.8493 33.2339C43.4345 34.025 43.7442 34.986 43.7311 35.9699Z" fill="#E8F0EF"/>
<path d="M38.6763 24.57C38.6792 26.028 38.2494 27.454 37.4413 28.6675C36.6332 29.8809 35.4831 30.8272 34.1367 31.3865C32.7903 31.9458 31.3082 32.0929 29.8781 31.8092C28.4481 31.5255 27.1344 30.8238 26.1035 29.7929C25.0725 28.762 24.3708 27.4483 24.0871 26.0182C23.8034 24.5881 23.9505 23.106 24.5098 21.7596C25.0691 20.4133 26.0154 19.2632 27.2289 18.455C28.4423 17.6469 29.8683 17.2171 31.3263 17.22C33.2744 17.224 35.1416 17.9997 36.5191 19.3772C37.8967 20.7547 38.6723 22.6219 38.6763 24.57Z" fill="white"/>
<path d="M34.7016 24.57C34.6954 25.0769 34.5756 25.5759 34.351 26.0304C34.1263 26.4848 33.8027 26.8832 33.4037 27.196C33.0048 27.5088 32.5408 27.7282 32.0459 27.8379C31.551 27.9477 31.0378 27.9451 30.544 27.8302C30.0502 27.7154 29.5885 27.4913 29.1928 27.1744C28.7971 26.8575 28.4775 26.4559 28.2576 25.9992C28.0376 25.5424 27.9229 25.0422 27.9219 24.5352C27.9209 24.0283 28.0335 23.5276 28.2516 23.07C28.4587 23.2774 28.7386 23.3958 29.0316 23.4C29.3314 23.4 29.6191 23.2819 29.8325 23.0714C30.0458 22.8608 30.1677 22.5747 30.1716 22.275C30.1682 21.9773 30.0499 21.6925 29.8416 21.48C30.3067 21.2479 30.8221 21.1345 31.3416 21.15C31.7868 21.1539 32.2269 21.2454 32.6367 21.4194C33.0464 21.5934 33.418 21.8465 33.73 22.164C34.042 22.4816 34.2884 22.8575 34.4551 23.2704C34.6218 23.6832 34.7056 24.1248 34.7016 24.57Z" fill="#414C49"/>
<path d="M25.1165 24.57C25.1165 26.0237 24.6854 27.4448 23.8778 28.6535C23.0702 29.8622 21.9223 30.8042 20.5792 31.3605C19.2362 31.9169 17.7584 32.0624 16.3326 31.7788C14.9068 31.4952 13.5972 30.7952 12.5693 29.7673C11.5414 28.7394 10.8413 27.4297 10.5577 26.0039C10.2741 24.5782 10.4197 23.1003 10.976 21.7573C11.5323 20.4143 12.4744 19.2664 13.6831 18.4587C14.8918 17.6511 16.3128 17.22 17.7665 17.22C19.7146 17.224 21.5818 17.9996 22.9594 19.3772C24.3369 20.7547 25.1125 22.6219 25.1165 24.57Z" fill="white"/>
<path d="M21.1423 24.5701C21.1408 25.0798 21.0243 25.5827 20.8016 26.0412C20.5789 26.4997 20.2556 26.9021 19.8559 27.2184C19.4561 27.5347 18.9902 27.7568 18.4928 27.8682C17.9953 27.9795 17.4792 27.9772 16.9827 27.8615C16.4863 27.7458 16.0223 27.5196 15.6254 27.1998C15.2284 26.8799 14.9087 26.4747 14.6901 26.0143C14.4714 25.5538 14.3594 25.0499 14.3624 24.5402C14.3653 24.0304 14.4832 23.5279 14.7073 23.0701C14.8646 23.2272 15.065 23.3342 15.2831 23.3775C15.5012 23.4208 15.7272 23.3986 15.9327 23.3135C16.1381 23.2284 16.3137 23.0844 16.4374 22.8996C16.561 22.7147 16.6271 22.4974 16.6273 22.2751C16.6288 22.1271 16.6004 21.9804 16.5437 21.8438C16.487 21.7071 16.4031 21.5834 16.2973 21.4801C16.7638 21.252 17.2781 21.1388 17.7973 21.1501C18.2418 21.154 18.6811 21.2456 19.0901 21.4198C19.499 21.594 19.8696 21.8473 20.1804 22.165C20.4912 22.4828 20.7362 22.8589 20.9012 23.2716C21.0663 23.6843 21.1482 24.1256 21.1423 24.5701Z" fill="#414C49"/>
<path d="M27.3668 26.76V29.115C27.3673 29.4846 27.2931 29.8504 27.1488 30.1907C27.0044 30.5309 26.7929 30.8385 26.5268 31.095C25.9984 31.6028 25.2946 31.8875 24.5618 31.89C24.1916 31.8881 23.8254 31.8125 23.4847 31.6677C23.144 31.5228 22.8355 31.3116 22.5772 31.0464C22.3189 30.7811 22.116 30.4671 21.9803 30.1226C21.8446 29.7782 21.7788 29.4101 21.7868 29.04V26.835C21.7939 26.1119 22.0785 25.4192 22.5818 24.9C23.0987 24.3763 23.7964 24.0704 24.5318 24.045C25.2644 24.0406 25.97 24.3215 26.4992 24.8282C27.0284 25.335 27.3395 26.0278 27.3668 26.76Z" fill="#FF2C02"/>
<path d="M27.3816 26.8951C27.3816 26.8951 27.3816 27.0001 27.3816 27.0751C27.3281 27.7912 27.0035 28.46 26.4739 28.945C25.9443 29.43 25.2496 29.6947 24.5316 29.6851C23.9803 29.6779 23.4434 29.5084 22.988 29.1979C22.5325 28.8873 22.1786 28.4494 21.9706 27.9389C21.7626 27.4284 21.7096 26.8679 21.8182 26.3275C21.9269 25.787 22.1924 25.2905 22.5816 24.9001C23.0985 24.3765 23.7962 24.0705 24.5316 24.0451C25.2464 24.0555 25.9306 24.337 26.4458 24.8327C26.9609 25.3284 27.2686 26.0012 27.3066 26.7151C27.3383 26.772 27.3635 26.8324 27.3816 26.8951Z" fill="#FF8E00"/>
<path d="M63.5317 12.495H66.8017V34.275H77.0317V37.275H63.5317V12.495Z" fill="#02110C"/>
<path d="M95.5266 30.24H81.8466C81.9905 31.5622 82.6483 32.7749 83.6781 33.6167C84.7079 34.4585 86.0272 34.8619 87.3516 34.74C88.3222 34.7899 89.2884 34.5799 90.1507 34.1316C91.013 33.6834 91.74 33.0131 92.2566 32.19L94.9866 33.27C94.0295 34.9581 92.5389 36.2806 90.7488 37.0299C88.9587 37.7792 86.9705 37.9129 85.0962 37.41C83.2219 36.9071 81.5676 35.7961 80.3931 34.2513C79.2185 32.7066 78.5902 30.8155 78.6066 28.875C78.5562 27.7235 78.7447 26.574 79.1601 25.4988C79.5754 24.4237 80.2088 23.4461 81.0203 22.6276C81.8318 21.809 82.8038 21.1672 83.8754 20.7426C84.9469 20.3179 86.0947 20.1196 87.2466 20.16C88.3835 20.1278 89.5145 20.3341 90.5667 20.7656C91.619 21.197 92.5693 21.8441 93.3564 22.6651C94.1434 23.486 94.7498 24.4627 95.1365 25.5323C95.5232 26.6018 95.6817 27.7405 95.6016 28.875C95.6016 29.31 95.5716 29.775 95.5266 30.24ZM92.5266 27.54C92.423 26.2542 91.8171 25.061 90.8401 24.2187C89.8631 23.3765 88.5936 22.953 87.3066 23.04C86 22.9277 84.7022 23.3385 83.6982 24.1822C82.6942 25.0259 82.066 26.2335 81.9516 27.54H92.5266Z" fill="#02110C"/>
<path d="M98.5866 14.295C98.5595 13.8499 98.6671 13.407 98.8954 13.0239C99.1236 12.6408 99.4619 12.3353 99.8662 12.1473C100.271 11.9592 100.722 11.8973 101.162 11.9695C101.602 12.0418 102.01 12.2449 102.333 12.5523C102.656 12.8598 102.879 13.2574 102.973 13.6934C103.067 14.1293 103.027 14.5834 102.859 14.9965C102.691 15.4096 102.402 15.7625 102.031 16.0093C101.66 16.256 101.223 16.3852 100.777 16.38C100.496 16.388 100.216 16.3403 99.9534 16.2396C99.691 16.139 99.451 15.9874 99.2475 15.7936C99.0439 15.5997 98.8807 15.3675 98.7673 15.1104C98.6538 14.8532 98.5924 14.5761 98.5866 14.295ZM99.2316 20.49H102.367V37.305H99.2316V20.49Z" fill="#02110C"/>
<path d="M123.532 11.3099V37.3049H120.397V34.6349C119.739 35.6082 118.841 36.3955 117.79 36.921C116.739 37.4464 115.57 37.6923 114.397 37.6349C113.256 37.6446 112.126 37.421 111.075 36.978C110.024 36.535 109.075 35.8819 108.285 35.0587C107.496 34.2356 106.883 33.2598 106.484 32.1913C106.086 31.1227 105.909 29.984 105.967 28.8449C105.903 27.7102 106.073 26.5745 106.467 25.5084C106.861 24.4424 107.47 23.4689 108.257 22.6486C109.044 21.8282 109.991 21.1786 111.039 20.7401C112.088 20.3016 113.215 20.0837 114.352 20.0999C115.527 20.0291 116.701 20.269 117.754 20.7956C118.807 21.3223 119.703 22.117 120.352 23.0999V11.3099H123.532ZM120.397 28.8449C120.407 28.0883 120.266 27.3372 119.982 26.6359C119.698 25.9345 119.276 25.2968 118.743 24.7604C118.209 24.2239 117.574 23.7994 116.874 23.5117C116.174 23.224 115.423 23.0789 114.667 23.0849C113.921 23.082 113.183 23.2309 112.497 23.5227C111.811 23.8144 111.191 24.2428 110.676 24.7817C110.161 25.3207 109.761 25.9589 109.501 26.6575C109.24 27.356 109.125 28.1003 109.162 28.8449C109.122 29.6071 109.238 30.3692 109.503 31.085C109.767 31.8009 110.175 32.4554 110.7 33.0088C111.226 33.5621 111.858 34.0028 112.56 34.3039C113.261 34.605 114.016 34.7603 114.779 34.7603C115.542 34.7603 116.298 34.605 116.999 34.3039C117.7 34.0028 118.333 33.5621 118.858 33.0088C119.384 32.4554 119.791 31.8009 120.056 31.085C120.32 30.3692 120.436 29.6071 120.397 28.8449Z" fill="#02110C"/>
</g>
<defs>
<clipPath id="clip0_7118_381">
<rect width="123" height="48" fill="white" transform="translate(0.531738 0.900024)"/>
</clipPath>
</defs>
</svg>
