<svg width="61" height="154" viewBox="0 0 61 154" fill="none" xmlns="http://www.w3.org/2000/svg">
<path d="M19.5751 11.7557C22.8213 11.7557 25.4529 9.12406 25.4529 5.87783C25.4529 2.63159 22.8213 0 19.5751 0C16.3289 0 13.6973 2.63159 13.6973 5.87783C13.6973 9.12406 16.3289 11.7557 19.5751 11.7557Z" fill="black" fill-opacity="0.1"/>
<path d="M19.5751 47.4061C22.8213 47.4061 25.4529 44.7745 25.4529 41.5282C25.4529 38.282 22.8213 35.6504 19.5751 35.6504C16.3289 35.6504 13.6973 38.282 13.6973 41.5282C13.6973 44.7745 16.3289 47.4061 19.5751 47.4061Z" fill="black" fill-opacity="0.1"/>
<path d="M19.5751 82.9284C22.8213 82.9284 25.4529 80.2968 25.4529 77.0506C25.4529 73.8043 22.8213 71.1727 19.5751 71.1727C16.3289 71.1727 13.6973 73.8043 13.6973 77.0506C13.6973 80.2968 16.3289 82.9284 19.5751 82.9284Z" fill="black" fill-opacity="0.1"/>
<path d="M19.5751 118.451C22.8213 118.451 25.4529 115.819 25.4529 112.573C25.4529 109.327 22.8213 106.695 19.5751 106.695C16.3289 106.695 13.6973 109.327 13.6973 112.573C13.6973 115.819 16.3289 118.451 19.5751 118.451Z" fill="black" fill-opacity="0.1"/>
<path d="M19.5751 153.974C22.8213 153.974 25.4529 151.342 25.4529 148.096C25.4529 144.849 22.8213 142.218 19.5751 142.218C16.3289 142.218 13.6973 144.849 13.6973 148.096C13.6973 151.342 16.3289 153.974 19.5751 153.974Z" fill="black" fill-opacity="0.1"/>
<path d="M55.0965 11.7557C58.3428 11.7557 60.9744 9.12406 60.9744 5.87783C60.9744 2.63159 58.3428 0 55.0965 0C51.8503 0 49.2188 2.63159 49.2188 5.87783C49.2188 9.12406 51.8503 11.7557 55.0965 11.7557Z" fill="black" fill-opacity="0.1"/>
<path d="M55.0965 47.4061C58.3428 47.4061 60.9744 44.7745 60.9744 41.5282C60.9744 38.282 58.3428 35.6504 55.0965 35.6504C51.8503 35.6504 49.2188 38.282 49.2188 41.5282C49.2188 44.7745 51.8503 47.4061 55.0965 47.4061Z" fill="black" fill-opacity="0.1"/>
<path d="M55.0965 82.9284C58.3428 82.9284 60.9744 80.2968 60.9744 77.0506C60.9744 73.8043 58.3428 71.1727 55.0965 71.1727C51.8503 71.1727 49.2188 73.8043 49.2188 77.0506C49.2188 80.2968 51.8503 82.9284 55.0965 82.9284Z" fill="black" fill-opacity="0.1"/>
<path d="M55.0965 118.451C58.3428 118.451 60.9744 115.819 60.9744 112.573C60.9744 109.327 58.3428 106.695 55.0965 106.695C51.8503 106.695 49.2188 109.327 49.2188 112.573C49.2188 115.819 51.8503 118.451 55.0965 118.451Z" fill="black" fill-opacity="0.1"/>
<path d="M55.0965 153.974C58.3428 153.974 60.9744 151.342 60.9744 148.096C60.9744 144.849 58.3428 142.218 55.0965 142.218C51.8503 142.218 49.2188 144.849 49.2188 148.096C49.2188 151.342 51.8503 153.974 55.0965 153.974Z" fill="black" fill-opacity="0.1"/>
</svg>
