<svg width="40" height="62" viewBox="0 0 40 62" fill="none" xmlns="http://www.w3.org/2000/svg">
<path d="M2.35113 4.70226C3.64963 4.70226 4.70227 3.64962 4.70227 2.35113C4.70227 1.05264 3.64963 0 2.35113 0C1.05264 0 0 1.05264 0 2.35113C0 3.64962 1.05264 4.70226 2.35113 4.70226Z" fill="black" fill-opacity="0.1"/>
<path d="M2.35113 18.9624C3.64963 18.9624 4.70227 17.9098 4.70227 16.6113C4.70227 15.3128 3.64963 14.2601 2.35113 14.2601C1.05264 14.2601 0 15.3128 0 16.6113C0 17.9098 1.05264 18.9624 2.35113 18.9624Z" fill="black" fill-opacity="0.1"/>
<path d="M2.35113 33.1714C3.64963 33.1714 4.70227 32.1187 4.70227 30.8203C4.70227 29.5218 3.64963 28.4691 2.35113 28.4691C1.05264 28.4691 0 29.5218 0 30.8203C0 32.1187 1.05264 33.1714 2.35113 33.1714Z" fill="black" fill-opacity="0.1"/>
<path d="M2.35113 47.3804C3.64963 47.3804 4.70227 46.3278 4.70227 45.0293C4.70227 43.7308 3.64963 42.6782 2.35113 42.6782C1.05264 42.6782 0 43.7308 0 45.0293C0 46.3278 1.05264 47.3804 2.35113 47.3804Z" fill="black" fill-opacity="0.1"/>
<path d="M2.35113 61.5895C3.64963 61.5895 4.70227 60.5368 4.70227 59.2383C4.70227 57.9398 3.64963 56.8872 2.35113 56.8872C1.05264 56.8872 0 57.9398 0 59.2383C0 60.5368 1.05264 61.5895 2.35113 61.5895Z" fill="black" fill-opacity="0.1"/>
<path d="M16.5621 4.70226C17.8605 4.70226 18.9132 3.64962 18.9132 2.35113C18.9132 1.05264 17.8605 0 16.5621 0C15.2636 0 14.2109 1.05264 14.2109 2.35113C14.2109 3.64962 15.2636 4.70226 16.5621 4.70226Z" fill="black" fill-opacity="0.1"/>
<path d="M16.5621 18.9624C17.8605 18.9624 18.9132 17.9098 18.9132 16.6113C18.9132 15.3128 17.8605 14.2601 16.5621 14.2601C15.2636 14.2601 14.2109 15.3128 14.2109 16.6113C14.2109 17.9098 15.2636 18.9624 16.5621 18.9624Z" fill="black" fill-opacity="0.1"/>
<path d="M16.5621 33.1714C17.8605 33.1714 18.9132 32.1187 18.9132 30.8203C18.9132 29.5218 17.8605 28.4691 16.5621 28.4691C15.2636 28.4691 14.2109 29.5218 14.2109 30.8203C14.2109 32.1187 15.2636 33.1714 16.5621 33.1714Z" fill="black" fill-opacity="0.1"/>
<path d="M16.5621 47.3804C17.8605 47.3804 18.9132 46.3278 18.9132 45.0293C18.9132 43.7308 17.8605 42.6782 16.5621 42.6782C15.2636 42.6782 14.2109 43.7308 14.2109 45.0293C14.2109 46.3278 15.2636 47.3804 16.5621 47.3804Z" fill="black" fill-opacity="0.1"/>
<path d="M16.5621 61.5895C17.8605 61.5895 18.9132 60.5368 18.9132 59.2383C18.9132 57.9398 17.8605 56.8872 16.5621 56.8872C15.2636 56.8872 14.2109 57.9398 14.2109 59.2383C14.2109 60.5368 15.2636 61.5895 16.5621 61.5895Z" fill="black" fill-opacity="0.1"/>
<path d="M30.8199 4.70226C32.1184 4.70226 33.171 3.64962 33.171 2.35113C33.171 1.05264 32.1184 0 30.8199 0C29.5214 0 28.4688 1.05264 28.4688 2.35113C28.4688 3.64962 29.5214 4.70226 30.8199 4.70226Z" fill="black" fill-opacity="0.1"/>
<path d="M30.8199 18.9624C32.1184 18.9624 33.171 17.9098 33.171 16.6113C33.171 15.3128 32.1184 14.2601 30.8199 14.2601C29.5214 14.2601 28.4688 15.3128 28.4688 16.6113C28.4688 17.9098 29.5214 18.9624 30.8199 18.9624Z" fill="black" fill-opacity="0.1"/>
<path d="M30.8199 33.1714C32.1184 33.1714 33.171 32.1187 33.171 30.8203C33.171 29.5218 32.1184 28.4691 30.8199 28.4691C29.5214 28.4691 28.4688 29.5218 28.4688 30.8203C28.4688 32.1187 29.5214 33.1714 30.8199 33.1714Z" fill="black" fill-opacity="0.1"/>
<path d="M30.8199 47.3804C32.1184 47.3804 33.171 46.3278 33.171 45.0293C33.171 43.7308 32.1184 42.6782 30.8199 42.6782C29.5214 42.6782 28.4688 43.7308 28.4688 45.0293C28.4688 46.3278 29.5214 47.3804 30.8199 47.3804Z" fill="black" fill-opacity="0.1"/>
<path d="M30.8199 61.5895C32.1184 61.5895 33.171 60.5368 33.171 59.2383C33.171 57.9398 32.1184 56.8872 30.8199 56.8872C29.5214 56.8872 28.4688 57.9398 28.4688 59.2383C28.4688 60.5368 29.5214 61.5895 30.8199 61.5895Z" fill="black" fill-opacity="0.1"/>
</svg>
