<?xml version="1.0" encoding="UTF-8" standalone="no"?>
<svg xmlns="http://www.w3.org/2000/svg" height="764px" width="371px" version="1.1" xmlns:xlink="http://www.w3.org/1999/xlink" viewBox="0 0 371 764"><!-- Generator: Sketch 56.2 (81672) - https://sketch.com -->
 <title>Combined Shape</title>
 <desc>Created with Sketch.</desc>
 <g id="NEWEST-HOMEPAGE-🔥" fill-rule="evenodd" fill="none">
  <path id="Combined-Shape" fill="#D7DEE9" d="m57 0h257c31.48-5.7828e-15 57 25.52 57 57v650c0 31.48-25.52 57-57 57h-257c-31.48 0-57-25.52-57-57v-650c3.2502e-15 -31.48 25.52-57 57-57zm38 17h-36c-23.196 0-42 18.804-42 42v646c0 23.2 18.804 42 42 42h253c23.2 0 42-18.8 42-42v-646c0-23.196-18.8-42-42-42h-36v2.2c0 13.144-10.66 23.8-23.8 23.8h-133.4c-13.14 0-23.8-10.656-23.8-23.8v-2.2z"/>
 </g>
</svg>
