<svg width="80" height="80" viewBox="0 0 80 80" fill="none" xmlns="http://www.w3.org/2000/svg">
<rect opacity="0.195126" width="80" height="80" rx="24" fill="#24DC4D"/>
<path d="M51.374 44.2172L59.7064 30.8853C59.8448 30.6633 59.929 30.4118 59.9521 30.1513C59.9753 29.8907 59.9368 29.6283 59.8397 29.3854L56.5068 21.053C56.3924 20.763 56.1991 20.5109 55.9487 20.3253C55.6983 20.1398 55.4009 20.0281 55.0902 20.0031C55.0069 20.0031 54.9236 20.0031 54.8403 20.0031H54.7403H24.9101C24.8825 19.999 24.8544 19.999 24.8268 20.0031C24.6579 20.0168 24.4922 20.0561 24.3352 20.1197L24.2435 20.1697C24.1018 20.241 23.9702 20.3307 23.8519 20.4364C23.8117 20.4682 23.7754 20.5045 23.7436 20.5447C23.6249 20.6704 23.5265 20.8137 23.4519 20.9696C23.4503 20.9891 23.4503 21.0086 23.4519 21.028L20.1189 29.3604C20.0219 29.6033 19.9834 29.8657 20.0065 30.1263C20.0297 30.3868 20.1139 30.6383 20.2523 30.8603L28.5847 44.1922C28.6869 44.3426 28.8104 44.4773 28.9513 44.5921C28.3568 46.3474 28.189 48.219 28.4619 50.052C28.7347 51.885 29.4403 53.6266 30.5202 55.1326C31.6001 56.6386 33.0233 57.8656 34.6719 58.712C36.3205 59.5585 38.147 60 40.0002 60C41.8533 60 43.6799 59.5585 45.3284 58.712C46.977 57.8656 48.4002 56.6386 49.4801 55.1326C50.5601 53.6266 51.2657 51.885 51.5385 50.052C51.8113 48.219 51.6435 46.3474 51.049 44.5921C51.1735 44.4821 51.2827 44.356 51.374 44.2172ZM39.9585 36.668C38.7031 36.668 37.4562 36.8735 36.2672 37.2763L31.901 30.002H48.016L43.6498 37.2763C42.4608 36.8735 41.2139 36.668 39.9585 36.668ZM50.0075 26.669H29.9096L27.9015 23.3361H52.0156L50.0075 26.669ZM23.4853 29.8354L25.2601 25.4108L33.2842 38.7428C32.286 39.4362 31.4007 40.2793 30.6595 41.2425L23.4853 29.8354ZM39.9585 56.6659C38.3105 56.6659 36.6995 56.1772 35.3292 55.2616C33.959 54.346 32.891 53.0447 32.2603 51.5221C31.6297 49.9996 31.4647 48.3242 31.7862 46.7078C32.1077 45.0915 32.9013 43.6068 34.0666 42.4415C35.2319 41.2762 36.7166 40.4826 38.3329 40.1611C39.9493 39.8396 41.6246 40.0046 43.1472 40.6352C44.6698 41.2659 45.9711 42.3339 46.8867 43.7042C47.8023 45.0744 48.291 46.6854 48.291 48.3334C48.291 50.5433 47.4131 52.6627 45.8504 54.2254C44.2878 55.788 42.1684 56.6659 39.9585 56.6659ZM46.6245 38.7844L54.6486 25.4525L56.4234 29.877L49.2575 41.3175C48.5164 40.3418 47.6281 39.4873 46.6245 38.7844Z" fill="#45B15D"/>
</svg>
