<svg width="70" height="70" viewBox="0 0 70 70" fill="none" xmlns="http://www.w3.org/2000/svg">
<g id="Group 22 Copy">
<rect id="Rectangle Copy 27" opacity="0.195126" width="70" height="70" rx="24" fill="#79DFE9"/>
<path id="Shape" fill-rule="evenodd" clip-rule="evenodd" d="M34.4339 18.4538C34.9249 17.6775 35.8726 17.3229 36.7527 17.5861C37.6246 17.8511 38.2181 18.6583 38.2111 19.5695V30.6241H46.9614C47.4943 30.625 47.9842 30.9164 48.2393 31.3842C48.4945 31.8519 48.4742 32.4216 48.1865 32.87L36.1548 51.5448C35.7812 52.1391 35.1285 52.4998 34.4266 52.5C34.2265 52.499 34.0277 52.4696 33.8359 52.4125C32.964 52.1475 32.3705 51.3403 32.3775 50.4291V39.3745H23.6272C23.092 39.3753 22.5993 39.0829 22.3436 38.6127C22.088 38.1425 22.1104 37.57 22.4021 37.1213L34.4339 18.4538ZM35.2943 47.5344L44.2926 33.5411H36.7527C35.9473 33.5411 35.2943 32.8881 35.2943 32.0827V22.4646L26.296 36.4579H33.8359C34.6414 36.4579 35.2943 37.1108 35.2943 37.9163V47.5344Z" fill="#42B6C1"/>
</g>
</svg>
