<svg width="50" height="50" viewBox="0 0 50 50" fill="none" xmlns="http://www.w3.org/2000/svg">
<rect opacity="0.195126" width="50" height="50" rx="10" fill="#0153CD"/>
<path d="M11.0713 32.6721C10.7657 33.1704 10.4225 33.7486 10.1311 34.2093C10.0057 34.4212 9.96839 34.6739 10.0273 34.913C10.0862 35.1521 10.2365 35.3586 10.446 35.488L16.5574 39.2488C16.6636 39.3144 16.7818 39.3582 16.9051 39.3776C17.0284 39.397 17.1543 39.3917 17.2755 39.3619C17.3967 39.3322 17.5108 39.2786 17.611 39.2043C17.7113 39.13 17.7958 39.0364 17.8596 38.9292C18.104 38.5202 18.419 37.9889 18.7622 37.4201C21.1832 33.4242 23.6184 33.9131 28.0091 36.0098L34.0688 38.8915C34.1824 38.9456 34.3057 38.9763 34.4313 38.9819C34.557 38.9874 34.6825 38.9677 34.8005 38.9239C34.9184 38.88 35.0263 38.813 35.1178 38.7267C35.2094 38.6404 35.2827 38.5366 35.3334 38.4214L38.2433 31.84C38.3421 31.614 38.3482 31.3583 38.2603 31.1279C38.1723 30.8976 37.9974 30.7109 37.7732 30.6083C36.4945 30.0066 33.9512 28.8078 31.6618 27.7031C23.4256 23.7025 16.4258 23.961 11.0713 32.6721Z" fill="url(#paint0_linear)"/>
<path d="M38.4727 17.7371C38.7783 17.2388 39.1215 16.6606 39.413 16.1999C39.5384 15.988 39.5756 15.7353 39.5167 15.4962C39.4578 15.2571 39.3075 15.0507 39.098 14.9212L32.9866 11.1604C32.8796 11.0883 32.759 11.0391 32.6321 11.0156C32.5053 10.9922 32.3749 10.9951 32.2493 11.0242C32.1236 11.0533 32.0053 11.108 31.9016 11.1848C31.798 11.2616 31.7113 11.3589 31.6468 11.4707C31.4024 11.8796 31.0874 12.4109 30.7442 12.9797C28.3232 16.9756 25.8881 16.4867 21.4973 14.39L15.4564 11.5224C15.3428 11.4683 15.2196 11.4376 15.0939 11.432C14.9682 11.4265 14.8427 11.4462 14.7248 11.49C14.6068 11.5339 14.4989 11.6009 14.4074 11.6872C14.3158 11.7735 14.2426 11.8773 14.1919 11.9925L11.2819 18.5739C11.1831 18.7999 11.177 19.0556 11.2649 19.286C11.3529 19.5164 11.5278 19.703 11.752 19.8056C13.0307 20.4073 15.574 21.6061 17.8634 22.7108C26.1184 26.7067 33.1183 26.4388 38.4727 17.7371Z" fill="url(#paint1_linear)"/>
<defs>
<linearGradient id="paint0_linear" x1="38.0788" y1="41.1904" x2="19.5896" y2="30.566" gradientUnits="userSpaceOnUse">
<stop offset="0.18" stop-color="#0052CC"/>
<stop offset="1" stop-color="#2684FF"/>
</linearGradient>
<linearGradient id="paint1_linear" x1="-7786.85" y1="22188.9" x2="-7146.71" y2="22923.5" gradientUnits="userSpaceOnUse">
<stop offset="0.18" stop-color="#0052CC"/>
<stop offset="1" stop-color="#2684FF"/>
</linearGradient>
</defs>
</svg>
