<svg width="50" height="50" viewBox="0 0 50 50" fill="none" xmlns="http://www.w3.org/2000/svg">
<rect opacity="0.195126" width="50" height="50" rx="10" fill="black"/>
<path d="M36.476 31.5998C36.0272 32.613 35.4959 33.5456 34.8803 34.4031C34.0413 35.572 33.3542 36.3811 32.8248 36.8304C32.004 37.5679 31.1247 37.9456 30.183 37.9671C29.507 37.9671 28.6917 37.7791 27.7427 37.3978C26.7906 37.0183 25.9156 36.8304 25.1156 36.8304C24.2765 36.8304 23.3766 37.0183 22.414 37.3978C21.45 37.7791 20.6734 37.9778 20.0797 37.9975C19.1766 38.0351 18.2766 37.6467 17.3781 36.8304C16.8047 36.3417 16.0875 35.5039 15.2282 34.3171C14.3064 33.0498 13.5484 31.5801 12.9547 29.9046C12.3188 28.0948 12 26.3424 12 24.6457C12 22.7023 12.4298 21.026 13.2907 19.6214C13.9672 18.4931 14.8673 17.6031 15.9938 16.9497C17.1204 16.2963 18.3376 15.9634 19.6484 15.9421C20.3656 15.9421 21.3062 16.1588 22.475 16.5849C23.6406 17.0124 24.389 17.2291 24.7171 17.2291C24.9624 17.2291 25.7938 16.9757 27.2032 16.4703C28.536 16.0017 29.6609 15.8076 30.5824 15.8841C33.0794 16.081 34.9554 17.0428 36.2031 18.7756C33.9698 20.0977 32.8651 21.9495 32.8871 24.3251C32.9072 26.1755 33.5942 27.7154 34.9445 28.938C35.5564 29.5054 36.2397 29.944 37 30.2555C36.8351 30.7227 36.6611 31.1702 36.476 31.5998ZM30.7491 9.58017C30.7491 11.0305 30.2068 12.3847 29.1259 13.6381C27.8215 15.1281 26.2437 15.9891 24.5328 15.8533C24.511 15.6793 24.4984 15.4962 24.4984 15.3037C24.4984 13.9114 25.1187 12.4214 26.2203 11.203C26.7703 10.5862 27.4697 10.0733 28.318 9.66412C29.1644 9.26107 29.965 9.03817 30.7179 9C30.7399 9.19389 30.7491 9.38779 30.7491 9.58015V9.58017Z" fill="black"/>
</svg>
