<svg xmlns="http://www.w3.org/2000/svg" width="1037" height="872" viewBox="0 0 1037 872">
    <g fill="none" fill-rule="evenodd">
        <circle cx="1.5" cy="1.9" r="1.5" fill="#FFF" fill-rule="nonzero" transform="translate(11 462)"/>
        <circle cx="1.8" cy="1.9" r="1.5" fill="#FFF" fill-rule="nonzero" transform="translate(71 639)"/>
        <circle cx="2" cy="2.2" r="1.5" fill="#FFF" fill-rule="nonzero" transform="translate(908 162)"/>
        <circle cx="2.4" cy="2.3" r="1.5" fill="#FFF" fill-rule="nonzero" transform="translate(787 50)"/>
        <circle cx="1.9" cy="2.3" r="1.5" fill="#FFF" fill-rule="nonzero" transform="translate(939 121)"/>
        <circle cx="1.5" cy="1.9" r="1.5" fill="#FFF" fill-rule="nonzero" transform="translate(846 841)"/>
        <circle cx="1.6" cy="1.9" r="1.5" fill="#FFF" fill-rule="nonzero" transform="translate(44 396)"/>
        <circle cx="1.7" cy="1.8" r="1.5" fill="#FFF" fill-rule="nonzero" transform="translate(1030 744)"/>
        <circle cx="1.5" cy="1.7" r="1.5" fill="#FFF" fill-rule="nonzero" transform="translate(282)"/>
        <circle cx="2" cy="2" r="1.5" fill="#FFF" fill-rule="nonzero" transform="translate(1014 719)"/>
        <circle cx="1.7" cy="2.4" r="1.5" fill="#FFF" fill-rule="nonzero" transform="translate(1033 717)"/>
        <circle cx="1.6" cy="1.5" r="1.5" fill="#FFF" fill-rule="nonzero" transform="translate(288 869)"/>
        <circle cx="1.8" cy="1.9" r="1.5" fill="#FFF" fill-rule="nonzero" transform="translate(0 261)"/>
        <circle cx="1.9" cy="2.4" r="1.5" fill="#FFF" fill-rule="nonzero" transform="translate(671 510)"/>
        <circle cx="2.1" cy="1.8" r="1.5" fill="#FFF" fill-rule="nonzero" transform="translate(755 533)"/>
        <circle cx="1.9" cy="1.8" r="1.5" fill="#FFF" fill-rule="nonzero" transform="translate(715 596)"/>
        <circle cx="2.3" cy="1.8" r="1.5" fill="#FFF" fill-rule="nonzero" transform="translate(657 164)"/>
        <path fill="#94E0FF" d="M470.1 462.8s-4.9 6.4-4.5 20.9c.4 14.5 7.8 28.9 7.8 28.9s8.4-12.3 8.6-28.9c.2-16.7-3.7-20.9-3.7-20.9h-8.2z"/>
        <path fill="#06F" d="M478.3 465.9s-.4 12.2-4 28.8c0 0-4.3-19.2-4.2-28.1l8.2-.7z"/>
        <path fill="#FFF" fill-rule="nonzero" stroke="#001A64" stroke-linecap="round" stroke-linejoin="round" stroke-width="1.445" d="M465.7 397.1l-.1 64.8c0 1.2.8 2.4 2.4 3.4l.6.3c.1 0 .1.1.2.1.1.1.2.1.4.2h.1s.1 0 .1.1c.2.1.3.1.5.2.1 0 .1 0 .2.1h.1c.1 0 .1 0 .2.1.2 0 .3.1.5.1H471.2c.1 0 .3.1.4.1H475.2c.3 0 .6-.1.9-.1.1 0 .2 0 .3-.1.2 0 .3-.1.5-.1.1 0 .2-.1.3-.1.1 0 .3-.1.4-.1h.1c.2-.1.3-.1.5-.2h.1c.2-.1.4-.1.5-.2.1 0 .1 0 .2-.1l.6-.3s.1 0 .1-.1c.1 0 .1-.1.2-.1.1-.1.2-.1.3-.2.1-.1.2-.1.2-.2.1-.1.2-.1.3-.2h.1l.3-.3.1-.1.2-.2.1-.1v-.1c.1-.1.1-.2.2-.3v-.1c0-.1.1-.2.1-.3l.1-.1v-.1c0-.1 0-.2.1-.2v-.2-.3-.2-.1l.1-64.4"/>
        <path fill="#FFF" d="M369.8 387c-3 5.2-.5 9.5 5.6 9.5 2.9 0 6.2-1 9.1-2.6l-7.8-13.4c-2.9 1.7-5.4 4-6.9 6.5zM573.2 397c6 0 8.5-4.3 5.4-9.6-1.6-2.7-4.3-5.1-7.3-6.9l-7.8 13.4c3.1 2 6.6 3.1 9.7 3.1z"/>
        <path stroke="#001A64" stroke-linecap="round" stroke-linejoin="round" stroke-width="1.445" d="M369.8 387c-3 5.2-.5 9.5 5.6 9.5 2.9 0 6.2-1 9.1-2.6l-7.8-13.4c-2.9 1.7-5.4 4-6.9 6.5zM573.2 397c6 0 8.5-4.3 5.4-9.6-1.6-2.7-4.3-5.1-7.3-6.9l-7.8 13.4c3.1 2 6.6 3.1 9.7 3.1z"/>
        <path fill="#FFF" d="M343.2 322.5c-.1.1-.3.2-.4.2 0 0-.1 0-.1.1-.1.1-.2.1-.3.2l-.1.1c-.1.1-.2.1-.3.2l-.1.1c-.1.1-.2.2-.3.2-.3.3-.6.7-.7.8l-.1.1s0 .1-.1.1c-.2.2-.3.5-.5.7-.1.2-.3.5-.5.9 0 .1-.1.2-.1.3-.1.2-.2.5-.3.7-.1.3-.2.5-.3.7v.1c0 .1 0 .1-.1.2v.1c0 .1 0 .1-.1.2-.1.2-.1.4-.2.7-.1.2-.1.5-.2.7-.1.5-.2 1.1-.3 1.5v.1l-.3 2.4c0 .3 0 .5-.1.8 0 .6 0 1.2-.1 1.7v2.2c0 .5.1 1 .1 1.5.1.7.1 1.4.2 1.9 0 .4.1.9.2 1.4v.1c0 .1 0 .2.1.3 0 .2.1.5.1.7 0 .2.1.5.2.7v.1c0 .1 0 .2.1.3 0 .1 0 .2.1.3.1.2.1.4.2.6.1.4.2.9.4 1.3.2.7.4 1.3.6 1.9v.2c.1.2.1.3.2.5s.1.4.2.6l.3.9c0 .1.1.2.1.3.1.3.3.7.4 1 0 .1.1.2.1.3.1.3.3.6.4.8.1.1.1.3.2.4.2.4.3.7.5 1.1.1.1.1.2.2.4.1.3.3.6.4.8.1.2.2.3.2.4.2.4.4.7.5.9v.1c.2.3.3.5.3.5.1.1.1.2.2.3l.6.9c.1.1.1.2.2.3.1.1.1.2.2.3.3.5.7 1.1 1.1 1.8.1.1.1.2.2.3.1.2.3.4.4.7 0 .1.1.1.1.2s.1.1.1.2c.1.1.1.2.2.3.1.1.2.2.2.4 0 0 0 .1.1.1.3.4.5.8.7 1.1.2.4.4.7.7 1.1.3.6.7 1.2 1.1 2 1 1.7 1.9 3.4 2.9 5 .5.9 1.1 1.8 1.6 2.8.5.8 1.1 1.9 1.6 2.8.5.9 1 1.8 1.5 2.6.8 1.4 1.6 2.8 2.4 4.3.3.6.6 1 .8 1.3.2.3.3.6.4.6.4.7.9 1.3 1.3 1.7l.3.3c.1.1.2.2.4.3l.1.1c.1.1.2.1.3.2l.1.1h.1c.1.1.2.1.3.2 0 0 .1 0 .1.1.2.1.4.3.6.4.2.1.4.2.7.4.2.1.4.2.5.2h.1c.3.1.5.2.7.3h.1c.8.3 1.4.4 1.5.4.3.1.7.2 1.1.2.4.1.9.1 1.6.1h1.5c.2 0 .7 0 1.3-.1H374.2c.5-.1 1.1-.2 1.9-.4.1 0 .2 0 .3-.1.5-.1 1.1-.3 1.7-.5.1 0 .3-.1.4-.1.4-.1.7-.3 1.1-.4.4-.2 1.3-.6 2.3-1.2 0 0 .1 0 .1-.1.1 0 .2-.1.2-.1l-39-67.8zM565.6 391.1c.2.1.4.2.7.4.1.1.2.1.3.2.1 0 .2.1.3.1.5.2 1 .5 1.6.7.1 0 .1 0 .2.1.3.1.8.3 1.1.4.5.2 1.3.4 2 .5H572.1c.1 0 .2 0 .3.1h.6c.4.1.7.1 1 .1h.4c.4 0 .7 0 1 .1h1.2c.1 0 .6 0 1.1-.1h.1c.3 0 .7-.1 1.1-.2h.2c.3-.1.7-.2.9-.2h.1c.2-.1.4-.1.7-.2.1 0 .2-.1.3-.1.2-.1.3-.1.5-.2.3-.1.6-.3.8-.4.4-.2 1-.6 1.7-1.2.2-.1.3-.3.5-.4l.1-.1.5-.5c.3-.4.7-.8 1-1.3 0-.1.2-.3.4-.6.2-.4.5-.9.8-1.3.3-.6.7-1.2 1.1-1.9.4-.7.9-1.5 1.4-2.3.5-.8 1-1.7 1.5-2.6.5-.9 1.1-1.8 1.6-2.8.5-.9 1.1-1.9 1.6-2.8.5-.9 1-1.8 1.5-2.6.4-.7 1-1.7 1.4-2.4.4-.7.8-1.4 1.1-2 .4-.7.6-1 1.1-1.7.2-.3.4-.6.6-1 .1-.1.1-.2.2-.3.1-.1.2-.2.2-.4 1.7-2.7 2.3-3.6 3.4-5.6.1-.1.1-.2.2-.3.1-.1.1-.2.2-.4.1-.1.1-.2.2-.3.3-.5.5-1 .8-1.5v-.1c0-.1.1-.1.1-.2 0 0 0-.1.1-.1 0-.1.1-.2.1-.2v-.1c0-.1.1-.1.1-.2s.1-.2.1-.3c.1-.1.1-.3.2-.4.1-.1.1-.2.1-.3 0-.1.1-.1.1-.2v-.1c.2-.4.3-.8.5-1.2 0-.1.1-.2.1-.3 0-.1.1-.2.2-.4 0 0 0-.1.1-.2v-.1c.1-.2.2-.5.3-.7v-.1c0-.1.1-.2.1-.3 0-.1.1-.2.1-.3 0-.1 0-.1.1-.2 0-.1.1-.2.1-.3 0-.1 0-.1.1-.2 0-.1.1-.2.1-.3 0-.1.1-.2.1-.4v-.1-.1-.1c.2-.8.4-1.2.5-1.9v-.1c.1-.3.2-.7.3-1.1 0-.1.1-.3.1-.4 0-.2.1-.5.1-.7.1-.5.2-1.1.3-1.6.2-1.1.3-2.3.4-3.6v-.2-.2c0-.4.1-2.1 0-3.9 0-.3 0-.7-.1-1.3v-.2-.4c0-.2-.1-.4-.1-.7v-.3-.3-.2s0-.2-.1-.4c0-.2-.1-.4-.1-.7v-.2c0-.2-.1-.4-.2-.6-.1-.2-.1-.5-.2-.7 0-.1 0-.1-.1-.2-.4-1-.7-1.7-1-2.4v-.1-.1-.1c-.1-.2-.3-.5-.6-.9 0-.1-.1-.1-.1-.2-.1-.1-.1-.1-.1-.2-.2-.3-.4-.5-.5-.6v-.1l-.2-.2-.1-.1-.2-.2-.1-.1-.3-.3s-.1 0-.1-.1c-.2-.1-.4-.2-.5-.3l-39.4 68.2c-.4.1-.3.1-.3.2z"/>
        <path stroke="#001A64" stroke-linecap="round" stroke-linejoin="round" stroke-width="1.445" d="M343.2 322.5c-.1.1-.3.2-.4.2 0 0-.1 0-.1.1-.1.1-.2.1-.3.2l-.1.1c-.1.1-.2.1-.3.2l-.1.1c-.1.1-.2.2-.3.2-.3.3-.6.7-.7.8l-.1.1s0 .1-.1.1c-.2.2-.3.5-.5.7-.1.2-.3.5-.5.9 0 .1-.1.2-.1.3-.1.2-.2.5-.3.7-.1.3-.2.5-.3.7v.1c0 .1 0 .1-.1.2v.1c0 .1 0 .1-.1.2-.1.2-.1.4-.2.7-.1.2-.1.5-.2.7-.1.5-.2 1.1-.3 1.5v.1l-.3 2.4c0 .3 0 .5-.1.8 0 .6 0 1.2-.1 1.7v2.2c0 .5.1 1 .1 1.5.1.7.1 1.4.2 1.9 0 .4.1.9.2 1.4v.1c0 .1 0 .2.1.3 0 .2.1.5.1.7 0 .2.1.5.2.7v.1c0 .1 0 .2.1.3 0 .1 0 .2.1.3.1.2.1.4.2.6.1.4.2.9.4 1.3.2.7.4 1.3.6 1.9v.2c.1.2.1.3.2.5s.1.4.2.6l.3.9c0 .1.1.2.1.3.1.3.3.7.4 1 0 .1.1.2.1.3.1.3.3.6.4.8.1.1.1.3.2.4.2.4.3.7.5 1.1.1.1.1.2.2.4.1.3.3.6.4.8.1.2.2.3.2.4.2.4.4.7.5.9v.1c.2.3.3.5.3.5.1.1.1.2.2.3l.6.9c.1.1.1.2.2.3.1.1.1.2.2.3.3.5.7 1.1 1.1 1.8.1.1.1.2.2.3.1.2.3.4.4.7 0 .1.1.1.1.2s.1.1.1.2c.1.1.1.2.2.3.1.1.2.2.2.4 0 0 0 .1.1.1.3.4.5.8.7 1.1.2.4.4.7.7 1.1.3.6.7 1.2 1.1 2 1 1.7 1.9 3.4 2.9 5 .5.9 1.1 1.8 1.6 2.8.5.8 1.1 1.9 1.6 2.8.5.9 1 1.8 1.5 2.6.8 1.4 1.6 2.8 2.4 4.3.3.6.6 1 .8 1.3.2.3.3.6.4.6.4.7.9 1.3 1.3 1.7l.3.3c.1.1.2.2.4.3l.1.1c.1.1.2.1.3.2l.1.1h.1c.1.1.2.1.3.2 0 0 .1 0 .1.1.2.1.4.3.6.4.2.1.4.2.7.4.2.1.4.2.5.2h.1c.3.1.5.2.7.3h.1c.8.3 1.4.4 1.5.4.3.1.7.2 1.1.2.4.1.9.1 1.6.1h1.5c.2 0 .7 0 1.3-.1H374.2c.5-.1 1.1-.2 1.9-.4.1 0 .2 0 .3-.1.5-.1 1.1-.3 1.7-.5.1 0 .3-.1.4-.1.4-.1.7-.3 1.1-.4.4-.2 1.3-.6 2.3-1.2 0 0 .1 0 .1-.1.1 0 .2-.1.2-.1l-39-67.8zM565.6 391.1c.2.1.4.2.7.4.1.1.2.1.3.2.1 0 .2.1.3.1.5.2 1 .5 1.6.7.1 0 .1 0 .2.1.3.1.8.3 1.1.4.5.2 1.3.4 2 .5H572.1c.1 0 .2 0 .3.1h.6c.4.1.7.1 1 .1h.4c.4 0 .7 0 1 .1h1.2c.1 0 .6 0 1.1-.1h.1c.3 0 .7-.1 1.1-.2h.2c.3-.1.7-.2.9-.2h.1c.2-.1.4-.1.7-.2.1 0 .2-.1.3-.1.2-.1.3-.1.5-.2.3-.1.6-.3.8-.4.4-.2 1-.6 1.7-1.2.2-.1.3-.3.5-.4l.1-.1.5-.5c.3-.4.7-.8 1-1.3 0-.1.2-.3.4-.6.2-.4.5-.9.8-1.3.3-.6.7-1.2 1.1-1.9.4-.7.9-1.5 1.4-2.3.5-.8 1-1.7 1.5-2.6.5-.9 1.1-1.8 1.6-2.8.5-.9 1.1-1.9 1.6-2.8.5-.9 1-1.8 1.5-2.6.4-.7 1-1.7 1.4-2.4.4-.7.8-1.4 1.1-2 .4-.7.6-1 1.1-1.7.2-.3.4-.6.6-1 .1-.1.1-.2.2-.3.1-.1.2-.2.2-.4 1.7-2.7 2.3-3.6 3.4-5.6.1-.1.1-.2.2-.3.1-.1.1-.2.2-.4.1-.1.1-.2.2-.3.3-.5.5-1 .8-1.5v-.1c0-.1.1-.1.1-.2 0 0 0-.1.1-.1 0-.1.1-.2.1-.2v-.1c0-.1.1-.1.1-.2s.1-.2.1-.3c.1-.1.1-.3.2-.4.1-.1.1-.2.1-.3 0-.1.1-.1.1-.2v-.1c.2-.4.3-.8.5-1.2 0-.1.1-.2.1-.3 0-.1.1-.2.2-.4 0 0 0-.1.1-.2v-.1c.1-.2.2-.5.3-.7v-.1c0-.1.1-.2.1-.3 0-.1.1-.2.1-.3 0-.1 0-.1.1-.2 0-.1.1-.2.1-.3 0-.1 0-.1.1-.2 0-.1.1-.2.1-.3 0-.1.1-.2.1-.4v-.1-.1-.1c.2-.8.4-1.2.5-1.9v-.1c.1-.3.2-.7.3-1.1 0-.1.1-.3.1-.4 0-.2.1-.5.1-.7.1-.5.2-1.1.3-1.6.2-1.1.3-2.3.4-3.6v-.2-.2c0-.4.1-2.1 0-3.9 0-.3 0-.7-.1-1.3v-.2-.4c0-.2-.1-.4-.1-.7v-.3-.3-.2s0-.2-.1-.4c0-.2-.1-.4-.1-.7v-.2c0-.2-.1-.4-.2-.6-.1-.2-.1-.5-.2-.7 0-.1 0-.1-.1-.2-.4-1-.7-1.7-1-2.4v-.1-.1-.1c-.1-.2-.3-.5-.6-.9 0-.1-.1-.1-.1-.2-.1-.1-.1-.1-.1-.2-.2-.3-.4-.5-.5-.6v-.1l-.2-.2-.1-.1-.2-.2-.1-.1-.3-.3s-.1 0-.1-.1c-.2-.1-.4-.2-.5-.3l-39.4 68.2c-.4.1-.3.1-.3.2z"/>
        <path fill="#FFF" fill-rule="nonzero" stroke="#001A64" stroke-linecap="round" stroke-linejoin="round" stroke-width="1.445" d="M479.6 393.7c3.2 1.9 3.2 4.9 0 6.7-3.2 1.9-8.4 1.9-11.6 0-3.2-1.9-3.2-4.9 0-6.7 3.2-1.8 8.4-1.8 11.6 0z"/>
        <path stroke="#001A64" stroke-linecap="round" stroke-linejoin="round" stroke-width="1.445" d="M466.2 290.4c4.8 2.2 11.5 2.3 16.4.2M466.2 294.4c4.8 2.2 11.5 2.3 16.4.2"/>
        <path fill="#FFF" fill-rule="nonzero" stroke="#001A64" stroke-linecap="round" stroke-linejoin="round" stroke-width="1.445" d="M482.6 277.9v19.9c0 4.5-3.7 8.2-8.2 8.2-4.5 0-8.2-3.7-8.2-8.2v-19.9"/>
        <path fill="#FFF" fill-rule="nonzero" stroke="#001A64" stroke-linecap="round" stroke-linejoin="round" stroke-width="1.445" d="M480.2 274.5c3.2 1.9 3.2 4.9 0 6.7-3.2 1.9-8.4 1.9-11.6 0-3.2-1.9-3.2-4.9 0-6.7 3.2-1.9 8.4-1.9 11.6 0z"/>
    </g>
</svg>
