<svg xmlns="http://www.w3.org/2000/svg" width="795" height="757" viewBox="0 0 795 757">
    <g fill="none" fill-rule="evenodd">
        <circle cx="1.6" cy="2.3" r="1.5" fill="#FFF" fill-rule="nonzero" transform="translate(166 92)"/>
        <circle cx="2.1" cy="2.2" r="1.5" fill="#FFF" fill-rule="nonzero" transform="translate(190 104)"/>
        <circle cx="1.6" cy="2.3" r="1.5" fill="#FFF" fill-rule="nonzero" transform="translate(201 74)"/>
        <circle cx="1.8" cy="2.3" r="1.5" fill="#FFF" fill-rule="nonzero" transform="translate(719 203)"/>
        <circle cx="1.5" cy="1.7" r="1.5" fill="#FFF" fill-rule="nonzero" transform="translate(734 241)"/>
        <circle cx="2.4" cy="1.9" r="1.5" fill="#FFF" fill-rule="nonzero" transform="translate(439 706)"/>
        <circle cx="1.8" cy="1.5" r="1.5" fill="#FFF" fill-rule="nonzero" transform="translate(466 732)"/>
        <circle cx="1.7" cy="1.5" r="1.5" fill="#FFF" fill-rule="nonzero" transform="translate(498 726)"/>
        <circle cx="1.8" cy="1.5" r="1.5" fill="#FFF" fill-rule="nonzero" transform="translate(530 754)"/>
        <circle cx="1.8" cy="2.1" r="1.5" fill="#FFF" fill-rule="nonzero" transform="translate(568 733)"/>
        <circle cx="1.6" cy="1.5" r="1.5" fill="#FFF" fill-rule="nonzero" transform="translate(111 618)"/>
        <circle cx="1.5" cy="1.5" r="1.5" fill="#FFF" fill-rule="nonzero" transform="translate(120 636)"/>
        <circle cx="2.1" cy="2" r="1.5" fill="#FFF" fill-rule="nonzero" transform="translate(89 616)"/>
        <circle cx="2" cy="1.6" r="1.5" fill="#FFF" fill-rule="nonzero" transform="translate(71 639)"/>
        <path fill="#FFF" fill-rule="nonzero" stroke="#001A64" stroke-linecap="round" stroke-linejoin="round" stroke-width="1.445" d="M415 401.8v45.6c0 4.5-3.7 8.2-8.2 8.2-4.5 0-8.2-3.7-8.2-8.2v-45.6"/>
        <path stroke="#001A64" stroke-linecap="round" stroke-linejoin="round" stroke-width="1.445" d="M398.6 440.1c4.8 2.2 11.5 2.3 16.4.2M398.6 444.1c4.8 2.2 11.5 2.3 16.4.2M398.6 401.1c4.8-2.2 11.5-2.3 16.4-.2"/>
        <path fill="#FFF" stroke="#001A64" stroke-linecap="round" stroke-linejoin="round" stroke-width="1.445" d="M385.6 415.2l-119.6-69v-91.3L385.6 324zM306 369.6v-91.2M346 392.5v-91.3"/>
        <g fill="#FFF" stroke="#001A64" stroke-linecap="round" stroke-linejoin="round" stroke-width="1.445">
            <path d="M414.7 436.3l15.7-9.1-.3.2c1.9-1.1 3.1-3.6 3.1-7.2v-40.4c0-6.6-4-14.2-8.9-17.1l-22-12.7c-2.3-1.3-4.3-1.4-5.9-.4h.1l-15.7 9.1"/>
            <path fill-rule="nonzero" d="M408.7 436l-22-12.7c-4.9-2.9-8.9-10.5-8.9-17.1v-40.4c0-6.6 4-9.6 8.9-6.8l22 12.7c4.9 2.9 8.9 10.5 8.9 17.1v40.4c0 6.6-4 9.6-8.9 6.8z"/>
        </g>
        <g fill="#FFF" stroke="#001A64" stroke-linecap="round" stroke-linejoin="round" stroke-width="1.445">
            <path d="M414.3 368.1l5-2.9v-4.1c0-3-1.8-6.4-4-7.7l-12.9-7.5c-1-.6-1.9-.6-2.6-.2l-5 2.9"/>
            <path fill-rule="nonzero" d="M414.3 368.1l-21-12.1v-4.1c0-3 1.8-4.3 4-3l12.9 7.5c2.2 1.3 4 4.7 4 7.7v4h.1z"/>
        </g>
        <path fill="#FFF" stroke="#001A64" stroke-linecap="round" stroke-linejoin="round" stroke-width="1.445" d="M445 401.3l-17.4-10c-.4-.2-.8-.4-1.3-.4-1.4 0-2.6 1.1-2.6 2.6 0 .9.5 1.8 1.3 2.2l17.4 10M445 420.2l-17.4-10c-.4-.2-.8-.4-1.3-.4-1.4 0-2.6 1.1-2.6 2.6 0 .9.5 1.8 1.3 2.2l17.4 10"/>
        <path fill="#FFF" stroke="#001A64" stroke-linecap="round" stroke-linejoin="round" stroke-width="1.445" d="M561 517.2l-119.6-69.1v-91.2l119.6 69zM481.4 471.6v-91.3M521.4 494.4v-91.2M404.3 329.6l.2 20.1c0 .5.1.9.4 1.3.7 1.2 2.3 1.6 3.5.9.8-.5 1.3-1.3 1.3-2.2l-.2-20.1"/>
        <path fill="#FFF" stroke="#001A64" stroke-linecap="round" stroke-linejoin="round" stroke-width="1.445" d="M455.2 288.3c0 26.7-21.7 48.4-48.4 48.4s-48.4-21.7-48.4-48.4"/>
        <ellipse cx="48.8" cy="28.3" fill="#FFF" stroke="#001A64" stroke-linecap="round" stroke-linejoin="round" stroke-width="1.445" rx="48.4" ry="27.9" transform="translate(358 260)"/>
        <g fill="#001A64" fill-rule="nonzero">
            <path d="M377 308.3c-.5.4-1 .8-1.4 1.3.4.2.8.4 1.2.5l15.8-9.2c-2.3.6-4.5 1.3-6.6 2.1l-9 5.3zM380.4 311.7l1.8.6 22.4-13c-1.1 0-2.2.1-3.2.2l-21 12.2zM386.3 313.6c.7.2 1.3.3 2 .5l25-14.5c-.8-.1-1.7-.2-2.5-.2l-24.5 14.2zM393 315c.7.1 1.5.3 2.2.4l25.3-14.7c-.7-.2-1.4-.3-2.1-.4L393 315zM400.5 315.9c.9.1 1.7.1 2.6.2l23.5-13.6-1.8-.6-24.3 14zM409.3 316.2c1 0 2.1-.1 3.1-.1l19.3-11.2c-.5-.3-1-.5-1.5-.8l-20.9 12.1zM420.2 315.1c1.5-.2 2.9-.5 4.4-.9l11.6-6.7c-.4-.3-.9-.6-1.3-.9l-14.7 8.5z"/>
        </g>
        <path fill="#FFF" stroke="#001A64" stroke-linecap="round" stroke-linejoin="round" stroke-width="1.445" d="M404.3 288.3l.2 27.9h5.1c-.1-8.2-.2-27.9-.2-27.9h-5.1z"/>
        <circle cx="6.8" cy="6.7" r="6.3" fill="#FFF" fill-rule="nonzero" stroke="#001A64" stroke-linecap="round" stroke-linejoin="round" stroke-width="1.445" transform="translate(400 278)"/>
        <path fill="#06F" fill-rule="nonzero" d="M389 375.9l-3.4-2c-1-.6-1.8-2.2-1.8-3.5 0-1.4.8-2 1.8-1.4l3.4 2c1 .6 1.8 2.2 1.8 3.5 0 1.4-.8 2-1.8 1.4z"/>
        <path fill="#94E0FF" fill-rule="nonzero" d="M398.5 381.4l-3.4-2c-1-.6-1.8-2.2-1.8-3.5 0-1.4.8-2 1.8-1.4l3.4 2c1 .6 1.8 2.2 1.8 3.5.1 1.4-.8 2-1.8 1.4z"/>
        <circle cx="21.7" cy="21.1" r="20.9" stroke="#47494C" stroke-linecap="round" stroke-linejoin="round" stroke-width="1.445" transform="translate(7 260)"/>
        <path stroke="#47494C" stroke-linecap="round" stroke-linejoin="round" stroke-width="1.445" d="M42.6 305c-4.1 2.4-8.8 3.7-13.9 3.7-15.3 0-27.6-12.4-27.6-27.6 0-10.2 5.5-19.1 13.7-23.9"/>
        <path fill="#FFF" stroke="#47494C" stroke-linecap="round" stroke-linejoin="round" stroke-width="1.445" d="M42.6 305l82.8-47.8M14.8 257.2l78.4-45.3"/>
        <circle cx="5.4" cy="6.1" r="5.3" stroke="#47494C" stroke-linecap="round" stroke-linejoin="round" stroke-width="1.445" transform="translate(27 268)"/>
        <path fill="#47494C" d="M12.6 277.9c-.7 3.6-.8 7.8 1.8 10.4 1.8 1.8 4.6 2.5 6.3 4.4 1.2 1.3 1.8 3.1 3 4.5 2.7 3.2 7.5 3.2 11.7 3-8.3 3.2-18.6.2-23.8-6.9C8 288.5 7 282 8.4 276.2c.4-1.8 1.3-5.4 3.9-5.1 2.7.1.6 5 .3 6.8z"/>
        <circle cx="1.7" cy="1.7" r="1" fill="#47494C" transform="translate(40 278)"/>
        <circle cx="1.5" cy="1.2" r="1" fill="#47494C" transform="translate(38 283)"/>
        <path fill="#FFF" stroke="#47494C" stroke-linecap="round" stroke-linejoin="round" stroke-width="1.445" d="M78 236.5l9.9-5.7M44.8 255.7L73 239.4M99.6 239.8l13.6-7.9M56.7 264.6l35.5-20.5M76.2 269.1l36.1-20.8M58.4 279.4l11.9-6.9"/>
        <circle cx="53.6" cy="53.2" r="52.8" stroke="#47494C" stroke-linecap="round" stroke-linejoin="round" stroke-width="1.445" transform="translate(666 15)"/>
        <g fill="#8B9097" fill-rule="nonzero" stroke="#47494C">
            <path d="M706.7 17.4c.2.1.4.1.7.2l2-1.1c-.5.1-1.1.2-1.6.3l-1.1.6zM714.2 20.1l.6.3 8.3-4.8c-.3 0-.6 0-.9-.1l-8 4.6zM720.5 23.5c.2.1.3.2.5.3l11.7-6.8c-.2-.1-.5-.1-.7-.2l-11.5 6.7zM726 27.5c.1.1.3.2.4.3l14-8.1c-.2-.1-.4-.2-.6-.2l-13.8 8zM730.6 31.8c.1.1.2.3.4.4l15.8-9.2c-.2-.1-.3-.2-.5-.3l-15.7 9.1zM734.7 36.6c.1.1.2.3.3.4l17.4-10.1c-.1-.1-.3-.2-.4-.3l-17.3 10zM756.8 30.8L738 41.7c.1.1.2.3.3.4l18.9-11c-.1-.1-.3-.2-.4-.3zM740.8 47.2c.1.2.1.3.2.5l20.3-11.8c-.1-.1-.2-.3-.3-.4l-20.2 11.7zM743 53c0 .2.1.3.1.5l21.7-12.6c-.1-.1-.2-.3-.3-.4L743 53zM744.4 59.2c0 .2.1.4.1.5l23.1-13.4c-.1-.2-.1-.3-.2-.5l-23 13.4zM745.2 65.9v.6l24.7-14.4c-.1-.2-.1-.3-.2-.5l-24.5 14.3zM745 73.1c0 .2 0 .4-.1.6l26.5-15.4c0-.2-.1-.3-.1-.5L745 73.1zM743.7 81c-.1.2-.1.5-.2.7L772.3 65v-.6L743.7 81zM740.6 89.8c-.1.3-.2.5-.4.8l32-18.6v-.6l-31.6 18.4zM734 100.8c-.3.4-.6.7-.9 1.1l38-22.1c0-.2.1-.4.1-.7L734 100.8zM712.3 120.5c.3 0 .5.1.8.1l55.3-32.1c.1-.3.2-.5.3-.8l-56.4 32.8zM723.9 120.8c.4 0 .8-.1 1.2-.1l37.5-21.8c.2-.3.5-.6.7-1l-39.4 22.9z"/>
        </g>
        <path stroke="#47494C" stroke-linecap="round" stroke-linejoin="round" stroke-width="1.445" d="M770.8 55.2c14.5 3.3 23.5 7.9 23.5 13 0 9.8-33.4 17.8-74.7 17.8-41.3 0-74.7-8-74.7-17.8 0-5.1 9-9.7 23.5-13"/>
        <circle cx="11.2" cy="10.9" r="10.3" fill="#04080F" stroke="#47494C" stroke-width="1.445" transform="translate(759 71)"/>
        <circle cx="14" cy="14.4" r="14" stroke="#47494C" stroke-linecap="round" stroke-linejoin="round" stroke-width="1.445" transform="translate(631 1)"/>
        <path fill="#47494C" d="M635.7 7.4c-.4 2.2.4 6.8 2 8.3 1.7 1.6 4.4 2.5 5.1 4.4.4 1.2.3 2.6.8 3.8.8 1.8 2.8 2.8 4.7 2.9 1.9.1 3.8-.4 5.7-1-4 3.7-10.4 4.6-15.3 2.2-4.9-2.4-8.1-8-7.7-13.4.4-4.9 4.3-11 9.5-12-2.9 1.5-4.4 2.7-4.8 4.8z"/>
        <circle cx="2.3" cy="1.9" r="1.6" fill="#47494C" transform="translate(646 7)"/>
        <circle cx=".9" cy="1.2" r="1" fill="#47494C" transform="translate(653 14)"/>
    </g>
</svg>
