<svg xmlns="http://www.w3.org/2000/svg" width="961" height="632" viewBox="0 0 961 632">
    <g fill="none" fill-rule="evenodd">
        <path stroke="#001A64" stroke-linecap="round" stroke-linejoin="round" stroke-width="1.445" d="M390.8 173.9v-66.7M390.8 92.6v-38M390.8 42.9V37M409 76.9V45.8M409 33.8V23.2M409 14.5v-3.8M409 4.5V.7M447.8 154.8V66.5M447.8 57.3V44M429.8 86.9V54.6M429.8 45.8V27.6M429.8 19.5v-3M233.3 343.5v-111M233.3 218v-22.9M289.4 423.4v-72.8M289.4 300.9v-6.4M289.4 337.6v-27.1M605.4 332.4v-71.5M605.4 248.5v-23.7M605.4 210v-9.8M553.2 366v-73.3M553.2 277.5v-9.8"/>
        <g stroke="#001A64" stroke-linecap="round" stroke-linejoin="round" stroke-width="1.445">
            <path d="M20.6 557.4c-1.7-.4-3.3-.2-4.6.5M22.4 557.9c-.6-.3-1.2-.4-1.8-.6M95.1 623.6c1.6-1 2.6-3 2.6-5.9 0-5.9-4.1-13-9.2-16-.8-.5-1.6-.8-2.4-1v-.4c0-8.4-5.9-18.6-13.2-22.8-3.7-2.1-7-2.3-9.4-.9-2.3-10-9.3-20.4-17.6-25.2-4.9-2.8-9.4-3.2-12.7-1.5"/>
            <path fill="#FFF" fill-rule="nonzero" d="M86.7 623.9c0-5.9-4.1-13-9.2-16-.8-.5-1.6-.8-2.4-1v-.4c0-8.4-5.9-18.6-13.2-22.8-3.7-2.1-7-2.3-9.4-.9-2.3-10-9.3-20.4-17.6-25.2-10-5.8-18.1-1.3-18.4 10-1.1-1.1-2.3-2-3.5-2.7-6.4-3.7-11.7-.7-11.7 6.7s5.2 16.5 11.7 20.2c.1.1.2.1.4.2l65.1 37.6v-.1c4.6 2.3 8.2-.1 8.2-5.6z"/>
            <path d="M84 629.9l11.1-6.3M4.9 564.1l11.1-6.3M22.2 556.2l11.1-6.3"/>
        </g>
        <g stroke="#001A64" stroke-linecap="round" stroke-linejoin="round" stroke-width="1.445">
            <path d="M903 317.5c-1.3-.3-2.4-.1-3.4.4M904.4 317.9c-.4-.2-.9-.3-1.3-.4M957.7 366c1.2-.7 1.9-2.2 1.9-4.4 0-4.3-3-9.6-6.8-11.7-.6-.3-1.2-.6-1.7-.7v-.3c0-6.2-4.3-13.6-9.7-16.7-2.7-1.6-5.1-1.7-6.9-.6-1.7-7.4-6.8-15-12.9-18.5-3.6-2.1-6.9-2.3-9.3-1.1"/>
            <path fill="#FFF" fill-rule="nonzero" d="M951.5 366.3c0-4.3-3-9.6-6.8-11.7-.6-.3-1.2-.6-1.7-.7v-.3c0-6.2-4.3-13.6-9.7-16.7-2.7-1.6-5.1-1.7-6.9-.6-1.7-7.4-6.8-15-12.9-18.5-7.3-4.2-13.3-.9-13.5 7.3-.8-.8-1.7-1.4-2.6-2-4.7-2.7-8.6-.5-8.6 4.9 0 5.5 3.8 12.1 8.6 14.8.1.1.2.1.3.1l47.8 27.6c3.4 1.6 6-.2 6-4.2z"/>
            <path d="M949.6 370.6l8.2-4.6M891.5 322.4l8.2-4.6M904.2 316.6l8.2-4.6"/>
        </g>
        <g stroke="#001A64" stroke-linecap="round" stroke-linejoin="round" stroke-width="1.445">
            <path d="M688.1 83.6c-1.3-.3-2.4-.1-3.4.4M689.4 84.1c-.4-.2-.9-.3-1.3-.4M742.8 132.2c1.2-.7 1.9-2.2 1.9-4.4 0-4.3-3-9.6-6.8-11.7-.6-.3-1.2-.6-1.7-.7v-.3c0-6.2-4.3-13.6-9.7-16.7-2.7-1.6-5.1-1.7-6.9-.6-1.7-7.4-6.8-15-12.9-18.5-3.6-2.1-6.9-2.3-9.3-1.1"/>
            <path fill="#FFF" fill-rule="nonzero" d="M736.6 132.5c0-4.3-3-9.6-6.8-11.7-.6-.3-1.2-.6-1.7-.7v-.3c0-6.2-4.3-13.6-9.7-16.7-2.7-1.6-5.1-1.7-6.9-.6-1.7-7.4-6.8-15-12.9-18.5-7.3-4.2-13.3-.9-13.5 7.3-.8-.8-1.7-1.4-2.6-2-4.7-2.7-8.6-.5-8.6 4.9s3.8 12.1 8.6 14.8c.1.1.2.1.3.1l47.8 27.6c3.4 1.6 6-.2 6-4.2z"/>
            <path d="M734.7 136.8l8.2-4.6M676.6 88.6l8.2-4.6M689.3 82.8l8.2-4.6"/>
        </g>
        <path fill="#94E0FF" d="M251.5 521.3s-5.6.8-12.7 8.2c-7.1 7.4-10.5 18.3-10.5 18.3s10.3-1.9 18.7-10.1c8.4-8.2 8.6-12.3 8.6-12.3l-4.1-4.1z"/>
        <path fill="#06F" d="M254 526.9s-6.3 5.9-16.3 12.4c0 0 7.4-11.7 11.9-16.1l4.4 3.7z"/>
        <path fill="#94E0FF" d="M271.9 521.3s5.6.8 12.7 8.2c7.1 7.4 10.5 18.3 10.5 18.3s-10.3-1.9-18.7-10.1c-8.4-8.2-8.6-12.3-8.6-12.3l4.1-4.1z"/>
        <path fill="#06F" d="M269.4 526.9s6.3 5.9 16.3 12.4c0 0-7.4-11.7-11.9-16.1l-4.4 3.7z"/>
        <path fill="#94E0FF" d="M258.7 528.5s-3.4 4.5-3.2 14.7c.2 10.2 5.5 20.4 5.5 20.4s5.9-8.7 6.1-20.4c.1-11.7-2.6-14.7-2.6-14.7h-5.8z"/>
        <path fill="#06F" d="M264.5 530.7s-.3 8.6-2.8 20.3c0 0-3-13.5-3-19.8l5.8-.5z"/>
        <path fill="#FFF" d="M274.3 304.8v.4c0 .1-.1.2-.1.3 0 .1-.1.3-.1.4-.1.2-.1.4-.2.6v.1c-.1.2-.2.4-.4.6 0 0 0 .1-.1.1-.1.2-.3.4-.4.5l-.1.1-.5.5c-.1.1-.3.2-.4.3-.1.1-.2.2-.4.3-.1.1-.3.2-.5.3-.2.1-.3.2-.5.3-.3.2-.6.3-.9.5-.1 0-.2.1-.2.1-.3.1-.5.2-.8.4h-.1l-.9.3c-.2.1-.4.1-.7.2-.2 0-.3.1-.5.1-.2.1-.5.1-.7.2-.2 0-.3.1-.5.1-.5.1-1 .2-1.5.2h-.5c-.3 0-.6 0-.9.1H259.2c-.2 0-.4 0-.6-.1-.2 0-.4-.1-.6-.1-.2 0-.5-.1-.7-.1-.2 0-.4-.1-.5-.1-.3-.1-.5-.1-.8-.2-.2 0-.3-.1-.5-.1-.1 0-.2-.1-.3-.1-.3-.1-.5-.2-.8-.3-.1 0-.2-.1-.2-.1-.2-.1-.5-.2-.7-.3-.1 0-.2-.1-.3-.1-.3-.2-.6-.3-.9-.5-2.6-1.5-3.8-3.4-3.8-5.3l-.2 221.4c0 1.9 1.3 3.9 3.8 5.3.3.2.6.3.9.5.1.1.2.1.3.1l.6.3h.1c.1 0 .2.1.2.1.3.1.5.2.8.3.1 0 .2.1.3.1.1 0 .1 0 .2.1.1 0 .2.1.3.1.3.1.5.1.8.2.1 0 .1 0 .2.1.1 0 .2 0 .3.1.2 0 .5.1.7.1h.6c.2 0 .4.1.6.1H262.2c.3 0 .6 0 .9-.1h.5c.5-.1 1-.1 1.5-.2h.1c.1 0 .3-.1.4-.1.2 0 .5-.1.7-.2.2 0 .3-.1.5-.1.2-.1.4-.1.7-.2h.1c.3-.1.5-.2.8-.3h.1c.3-.1.6-.2.8-.4.1 0 .2-.1.2-.1.3-.1.6-.3.9-.5.1 0 .1-.1.2-.1.1-.1.2-.1.3-.2.2-.1.3-.2.5-.3.1-.1.2-.2.4-.3.1-.1.3-.2.4-.3 0 0 .1 0 .1-.1l.5-.5.1-.1.3-.3c.1-.1.1-.2.2-.2 0 0 0-.1.1-.1.1-.1.2-.3.3-.4v-.1c.1-.1.1-.3.2-.4 0-.1.1-.2.1-.2v-.1c0-.1.1-.3.1-.4 0-.1.1-.2.1-.3v-.1-.4-.3-.1l.2-221.4c-.1.2-.2.3-.2.4"/>
        <path stroke="#001A64" stroke-linecap="round" stroke-linejoin="round" stroke-width="1.445" d="M274.3 304.8v.4c0 .1-.1.2-.1.3 0 .1-.1.3-.1.4-.1.2-.1.4-.2.6v.1c-.1.2-.2.4-.4.6 0 0 0 .1-.1.1-.1.2-.3.4-.4.5l-.1.1-.5.5c-.1.1-.3.2-.4.3-.1.1-.2.2-.4.3-.1.1-.3.2-.5.3-.2.1-.3.2-.5.3-.3.2-.6.3-.9.5-.1 0-.2.1-.2.1-.3.1-.5.2-.8.4h-.1l-.9.3c-.2.1-.4.1-.7.2-.2 0-.3.1-.5.1-.2.1-.5.1-.7.2-.2 0-.3.1-.5.1-.5.1-1 .2-1.5.2h-.5c-.3 0-.6 0-.9.1H259.2c-.2 0-.4 0-.6-.1-.2 0-.4-.1-.6-.1-.2 0-.5-.1-.7-.1-.2 0-.4-.1-.5-.1-.3-.1-.5-.1-.8-.2-.2 0-.3-.1-.5-.1-.1 0-.2-.1-.3-.1-.3-.1-.5-.2-.8-.3-.1 0-.2-.1-.2-.1-.2-.1-.5-.2-.7-.3-.1 0-.2-.1-.3-.1-.3-.2-.6-.3-.9-.5-2.6-1.5-3.8-3.4-3.8-5.3l-.2 221.4c0 1.9 1.3 3.9 3.8 5.3.3.2.6.3.9.5.1.1.2.1.3.1l.6.3h.1c.1 0 .2.1.2.1.3.1.5.2.8.3.1 0 .2.1.3.1.1 0 .1 0 .2.1.1 0 .2.1.3.1.3.1.5.1.8.2.1 0 .1 0 .2.1.1 0 .2 0 .3.1.2 0 .5.1.7.1h.6c.2 0 .4.1.6.1H262.2c.3 0 .6 0 .9-.1h.5c.5-.1 1-.1 1.5-.2h.1c.1 0 .3-.1.4-.1.2 0 .5-.1.7-.2.2 0 .3-.1.5-.1.2-.1.4-.1.7-.2h.1c.3-.1.5-.2.8-.3h.1c.3-.1.6-.2.8-.4.1 0 .2-.1.2-.1.3-.1.6-.3.9-.5.1 0 .1-.1.2-.1.1-.1.2-.1.3-.2.2-.1.3-.2.5-.3.1-.1.2-.2.4-.3.1-.1.3-.2.4-.3 0 0 .1 0 .1-.1l.5-.5.1-.1.3-.3c.1-.1.1-.2.2-.2 0 0 0-.1.1-.1.1-.1.2-.3.3-.4v-.1c.1-.1.1-.3.2-.4 0-.1.1-.2.1-.2v-.1c0-.1.1-.3.1-.4 0-.1.1-.2.1-.3v-.1-.4-.3-.1l.2-221.4c-.1.2-.2.3-.2.4z"/>
        <path fill="#FFF" d="M271 299.1c5.1 2.9 5.1 7.7.1 10.6-5 2.9-13.2 2.9-18.3 0-5.1-2.9-5.1-7.7-.1-10.6 5-2.9 13.2-2.9 18.3 0"/>
        <path stroke="#001A64" stroke-linecap="round" stroke-linejoin="round" stroke-width="1.445" d="M271 299.1c5.1 2.9 5.1 7.7.1 10.6-5 2.9-13.2 2.9-18.3 0-5.1-2.9-5.1-7.7-.1-10.6 5-2.9 13.2-2.9 18.3 0z"/>
        <path fill="#FFF" d="M274.1 303.1c.1-.2.2-.4.3-.5v-.1l.3-.6c0-.1 0-.1.1-.2.1-.2.1-.3.1-.5v-.2c0-.2.1-.4.1-.6v-1.8-.7-.6c0-.5-.1-1-.1-1.6 0-.2-.1-.5-.1-.7-.1-.5-.1-1-.2-1.4v-.1c0-.1 0-.3-.1-.4-.1-.7-.3-1.3-.4-2-.1-.4-.2-.6-.2-.7-.1-.2-.1-.4-.2-.7 0-.1 0-.1-.1-.2-.1-.2-.1-.5-.2-.7 0-.1 0-.1-.1-.2 0-.1-.1-.2-.1-.2-.1-.2-.1-.4-.2-.5-.2-.5-.4-1-.6-1.4 0 0 0-.1-.1-.1l-.3-.6c-.2-.5-.6-1.2-1-1.9v-.1c-.2-.3-.3-.5-.5-.8-.1-.2-.2-.3-.4-.5 0 0 0-.1-.1-.1 0-.1-.1-.1-.1-.2-.4-.5-.7-.9-1.1-1.3l-.2-.2-.2-.2-.2-.2-.2-.2c-.4-.4-.7-.6-.8-.7-.3-.3-.6-.5-1-.7-.1-.1-.2-.1-.3-.2-.1 0-.1-.1-.2-.1-.1-.1-.2-.1-.3-.1h-.1c-.4-.2-.8-.4-1.1-.5h-.1c-.1 0-.1-.1-.2-.1-.2-.1-.6-.2-1.1-.2h-.1c-.4-.1-.9-.1-1.4 0 0 0-.4 0-.9.2-.1 0-.2 0-.3.1h-.1-.1c-.1 0-.1 0-.2.1h-.1c-.3.1-.5.2-.7.3-.2.1-.4.2-.5.3-.2.1-.7.4-1.3.8 0 0-.1 0-.1.1l-.1.1c-.1.1-.2.1-.2.2l-.1.1-.1.1-.2.2-.3.3-.1.1-.1.1-.6.6c-.2.2-.3.4-.3.4-.2.2-.3.4-.5.6v.1c-.1.1-.1.2-.2.3v.1c-.2.2-.3.4-.4.6l-.1.1c-.1.2-.2.3-.3.4-.1.1-.1.2-.2.3-.1.1-.1.2-.2.3-.1.1-.1.2-.2.4-.1.1-.1.2-.1.3-.2.4-.5.9-.7 1.4-.1.2-.2.4-.2.5-.1.3-.5 1.2-.9 2.6v.1c-.2.6-.4 1.4-.5 2-.1.4-.2.7-.2 1.1-.1.7-.3 1.6-.4 2.3-.2 1.3-.3 2.9-.3 5v.8c0 .2.1.3.1.5v.2l.3.6s0 .1.1.1c.1.2.2.3.3.5 0 .1.1.1.1.2.1.2.2.3.4.5l.1.1.6.6c.1 0 .1.1.2.1.2.1.3.3.5.4l.2.2c.2.2.5.3.8.5 5 3 13.2 3.1 18.3.2.3-.2.6-.3.8-.5l.2-.2c.2-.1.4-.3.6-.4.1 0 .1-.1.2-.1l.6-.6.1-.1c.1-.2.3-.3.4-.5-.4 0-.4-.1-.3-.1"/>
        <path stroke="#001A64" stroke-linecap="round" stroke-linejoin="round" stroke-width="1.445" d="M274.1 303.1c.1-.2.2-.4.3-.5v-.1l.3-.6c0-.1 0-.1.1-.2.1-.2.1-.3.1-.5v-.2c0-.2.1-.4.1-.6v-1.8-.7-.6c0-.5-.1-1-.1-1.6 0-.2-.1-.5-.1-.7-.1-.5-.1-1-.2-1.4v-.1c0-.1 0-.3-.1-.4-.1-.7-.3-1.3-.4-2-.1-.4-.2-.6-.2-.7-.1-.2-.1-.4-.2-.7 0-.1 0-.1-.1-.2-.1-.2-.1-.5-.2-.7 0-.1 0-.1-.1-.2 0-.1-.1-.2-.1-.2-.1-.2-.1-.4-.2-.5-.2-.5-.4-1-.6-1.4 0 0 0-.1-.1-.1l-.3-.6c-.2-.5-.6-1.2-1-1.9v-.1c-.2-.3-.3-.5-.5-.8-.1-.2-.2-.3-.4-.5 0 0 0-.1-.1-.1 0-.1-.1-.1-.1-.2-.4-.5-.7-.9-1.1-1.3l-.2-.2-.2-.2-.2-.2-.2-.2c-.4-.4-.7-.6-.8-.7-.3-.3-.6-.5-1-.7-.1-.1-.2-.1-.3-.2-.1 0-.1-.1-.2-.1-.1-.1-.2-.1-.3-.1h-.1c-.4-.2-.8-.4-1.1-.5h-.1c-.1 0-.1-.1-.2-.1-.2-.1-.6-.2-1.1-.2h-.1c-.4-.1-.9-.1-1.4 0 0 0-.4 0-.9.2-.1 0-.2 0-.3.1h-.1-.1c-.1 0-.1 0-.2.1h-.1c-.3.1-.5.2-.7.3-.2.1-.4.2-.5.3-.2.1-.7.4-1.3.8 0 0-.1 0-.1.1l-.1.1c-.1.1-.2.1-.2.2l-.1.1-.1.1-.2.2-.3.3-.1.1-.1.1-.6.6c-.2.2-.3.4-.3.4-.2.2-.3.4-.5.6v.1c-.1.1-.1.2-.2.3v.1c-.2.2-.3.4-.4.6l-.1.1c-.1.2-.2.3-.3.4-.1.1-.1.2-.2.3-.1.1-.1.2-.2.3-.1.1-.1.2-.2.4-.1.1-.1.2-.1.3-.2.4-.5.9-.7 1.4-.1.2-.2.4-.2.5-.1.3-.5 1.2-.9 2.6v.1c-.2.6-.4 1.4-.5 2-.1.4-.2.7-.2 1.1-.1.7-.3 1.6-.4 2.3-.2 1.3-.3 2.9-.3 5v.8c0 .2.1.3.1.5v.2l.3.6s0 .1.1.1c.1.2.2.3.3.5 0 .1.1.1.1.2.1.2.2.3.4.5l.1.1.6.6c.1 0 .1.1.2.1.2.1.3.3.5.4l.2.2c.2.2.5.3.8.5 5 3 13.2 3.1 18.3.2.3-.2.6-.3.8-.5l.2-.2c.2-.1.4-.3.6-.4.1 0 .1-.1.2-.1l.6-.6.1-.1c.1-.2.3-.3.4-.5-.4 0-.4-.1-.3-.1z"/>
        <path fill="#0035AF" d="M275.7 526.9c0 4.2-6.5 7.7-13 7.7-6.4 0-15.7-1.2-15.7-7.1 0-5.9-.1-55.2 0-59.5.1-4.3 1-5.9 2-5 .9.9 5 47.9 5.5 53.5.6 5.5 3.4 3.8 3.9 1.1.6-2.7 3.2-51.9 7-51.9 2.9 0 4.3 16.1 5.9 32.8 1.6 16.8 1.7 21.1 2.4 18.4l2 10z"/>
        <g>
            <path fill="#94E0FF" d="M408.8 417.7s-5.6.8-12.7 8.2c-7.1 7.4-10.5 18.3-10.5 18.3s10.3-1.9 18.7-10.1c8.4-8.2 8.6-12.3 8.6-12.3l-4.1-4.1z"/>
            <path fill="#06F" d="M411.3 423.3s-6.3 5.9-16.3 12.4c0 0 7.4-11.7 11.9-16.1l4.4 3.7z"/>
            <path fill="#94E0FF" d="M429.3 417.7s5.6.8 12.7 8.2c7.1 7.4 10.5 18.3 10.5 18.3s-10.3-1.9-18.7-10.1c-8.4-8.2-8.6-12.3-8.6-12.3l4.1-4.1z"/>
            <path fill="#06F" d="M426.8 423.3s6.3 5.9 16.3 12.4c0 0-7.4-11.7-11.9-16.1l-4.4 3.7z"/>
            <path fill="#94E0FF" d="M416.1 424.9s-3.4 4.5-3.2 14.7c.2 10.2 5.5 20.4 5.5 20.4s5.9-8.7 6.1-20.4c.1-11.7-2.6-14.7-2.6-14.7h-5.8z"/>
            <path fill="#06F" d="M421.8 427.2s-.3 8.6-2.8 20.3c0 0-3-13.5-3-19.8l5.8-.5z"/>
            <path fill="#FFF" d="M406 106.6l-.2 314.3c0 2 1.3 4 4 5.5.3.2.6.4 1 .5.1.1.2.1.3.1l.6.3h.1c.1 0 .2.1.2.1.3.1.5.2.8.3.1 0 .2.1.3.1.1 0 .1 0 .2.1.1 0 .2.1.3.1.3.1.6.1.8.2.1 0 .1 0 .2.1.1 0 .2 0 .3.1.2 0 .5.1.7.1h.6c.2 0 .4.1.7.1H420.1c.3 0 .6 0 .9-.1h.5c.5-.1 1-.1 1.5-.2h.1c.1 0 .3-.1.4-.1.2-.1.5-.1.7-.2.2 0 .4-.1.5-.1.2-.1.5-.1.7-.2h.1c.3-.1.5-.2.8-.3h.1c.3-.1.6-.2.9-.4.1 0 .2-.1.2-.1.3-.2.6-.3.9-.5.1 0 .1-.1.2-.1.1-.1.2-.2.3-.2.2-.1.3-.2.5-.3.1-.1.3-.2.4-.3.1-.1.3-.2.4-.3 0 0 .1 0 .1-.1l.5-.5.1-.1.3-.3c.1-.1.1-.2.2-.2 0 0 0-.1.1-.1.1-.2.2-.3.3-.5v-.1c.1-.1.1-.3.2-.4 0-.1.1-.2.1-.2v-.1c0-.1.1-.3.1-.4 0-.1.1-.2.1-.3v-.1-.4-.3-.1l.2-314.3v.4"/>
            <path stroke="#001A64" stroke-linecap="round" stroke-linejoin="round" stroke-width="1.445" d="M406 106.6l-.2 314.3c0 2 1.3 4 4 5.5.3.2.6.4 1 .5.1.1.2.1.3.1l.6.3h.1c.1 0 .2.1.2.1.3.1.5.2.8.3.1 0 .2.1.3.1.1 0 .1 0 .2.1.1 0 .2.1.3.1.3.1.6.1.8.2.1 0 .1 0 .2.1.1 0 .2 0 .3.1.2 0 .5.1.7.1h.6c.2 0 .4.1.7.1H420.1c.3 0 .6 0 .9-.1h.5c.5-.1 1-.1 1.5-.2h.1c.1 0 .3-.1.4-.1.2-.1.5-.1.7-.2.2 0 .4-.1.5-.1.2-.1.5-.1.7-.2h.1c.3-.1.5-.2.8-.3h.1c.3-.1.6-.2.9-.4.1 0 .2-.1.2-.1.3-.2.6-.3.9-.5.1 0 .1-.1.2-.1.1-.1.2-.2.3-.2.2-.1.3-.2.5-.3.1-.1.3-.2.4-.3.1-.1.3-.2.4-.3 0 0 .1 0 .1-.1l.5-.5.1-.1.3-.3c.1-.1.1-.2.2-.2 0 0 0-.1.1-.1.1-.2.2-.3.3-.5v-.1c.1-.1.1-.3.2-.4 0-.1.1-.2.1-.2v-.1c0-.1.1-.3.1-.4 0-.1.1-.2.1-.3v-.1-.4-.3-.1l.2-314.3"/>
            <path fill="#0035AF" d="M433.4 423.1c0 4.2-6.5 7.7-13 7.7-6.4 0-15.7-1.2-15.7-7.1 0-5.9-.1-55.2 0-59.5.1-4.3 1-5.9 2-5 .9.9 5 47.9 5.5 53.5.6 5.5 3.4 3.8 3.9 1.1.6-2.7 3.6-51.9 7-51.9 2.9 0 4.3 16.1 5.9 32.8 1.6 16.7 1.7 21.1 2.4 18.4l2 10z"/>
            <path stroke="#001A64" stroke-linecap="round" stroke-linejoin="round" stroke-width="1.445" d="M428.9 101.2c5.3 3 5.3 8 .1 11s-13.7 3-19 0c-5.3-3-5.3-8-.1-11 5.2-3.1 13.7-3.1 19 0z"/>
        </g>
        <g>
            <path fill="#94E0FF" d="M567 521.3s-5.6.8-12.7 8.2c-7.1 7.4-10.5 18.3-10.5 18.3s10.3-1.9 18.7-10.1c8.4-8.2 8.6-12.3 8.6-12.3l-4.1-4.1z"/>
            <path fill="#06F" d="M569.5 526.9s-6.3 5.9-16.3 12.4c0 0 7.4-11.7 11.9-16.1l4.4 3.7z"/>
            <path fill="#94E0FF" d="M587.5 521.3s5.6.8 12.7 8.2c7.1 7.4 10.5 18.3 10.5 18.3s-10.3-1.9-18.7-10.1c-8.4-8.2-8.6-12.3-8.6-12.3l4.1-4.1z"/>
            <path fill="#06F" d="M585 526.9s6.3 5.9 16.3 12.4c0 0-7.4-11.7-11.9-16.1l-4.4 3.7z"/>
            <path fill="#94E0FF" d="M574.3 528.5s-3.4 4.5-3.2 14.7c.2 10.2 5.5 20.4 5.5 20.4s5.9-8.7 6.1-20.4c.1-11.7-2.6-14.7-2.6-14.7h-5.8z"/>
            <path fill="#06F" d="M580.1 530.7s-.3 8.6-2.8 20.3c0 0-3-13.5-3-19.8l5.8-.5z"/>
            <path fill="#FFF" d="M589.9 304.8v.4c0 .1-.1.2-.1.3 0 .1-.1.3-.1.4-.1.2-.1.4-.2.6v.1c-.1.2-.2.4-.4.6 0 0 0 .1-.1.1-.1.2-.3.4-.4.5l-.1.1-.5.5c-.1.1-.3.2-.4.3-.1.1-.2.2-.4.3-.1.1-.3.2-.5.3-.2.1-.3.2-.5.3-.3.2-.6.3-.9.5-.1 0-.2.1-.2.1-.3.1-.5.2-.8.4h-.1l-.9.3c-.2.1-.4.1-.7.2-.2 0-.3.1-.5.1-.2.1-.5.1-.7.2-.2 0-.3.1-.5.1-.5.1-1 .2-1.5.2h-.5c-.3 0-.6 0-.9.1H574.8c-.2 0-.4 0-.6-.1-.2 0-.4-.1-.6-.1-.2 0-.5-.1-.7-.1-.2 0-.4-.1-.5-.1-.3-.1-.5-.1-.8-.2-.2 0-.3-.1-.5-.1-.1 0-.2-.1-.3-.1-.3-.1-.5-.2-.8-.3-.1 0-.2-.1-.2-.1-.2-.1-.5-.2-.7-.3-.1 0-.2-.1-.3-.1-.3-.2-.6-.3-.9-.5-2.6-1.5-3.8-3.4-3.8-5.3l-.2 221.4c0 1.9 1.3 3.9 3.8 5.3.3.2.6.3.9.5.1.1.2.1.3.1l.6.3h.1c.1 0 .2.1.2.1.3.1.5.2.8.3.1 0 .2.1.3.1.1 0 .1 0 .2.1.1 0 .2.1.3.1.3.1.5.1.8.2.1 0 .1 0 .2.1.1 0 .2 0 .3.1.2 0 .5.1.7.1h.6c.2 0 .4.1.6.1H577.8c.3 0 .6 0 .9-.1h.5c.5-.1 1-.1 1.5-.2h.1c.1 0 .3-.1.4-.1.2 0 .5-.1.7-.2.2 0 .3-.1.5-.1.2-.1.4-.1.7-.2h.1c.3-.1.5-.2.8-.3h.1c.3-.1.6-.2.8-.4.1 0 .2-.1.2-.1.3-.1.6-.3.9-.5.1 0 .1-.1.2-.1.1-.1.2-.1.3-.2.2-.1.3-.2.5-.3.1-.1.2-.2.4-.3.1-.1.3-.2.4-.3 0 0 .1 0 .1-.1l.5-.5.1-.1.3-.3c.1-.1.1-.2.2-.2 0 0 0-.1.1-.1.1-.1.2-.3.3-.4v-.1c.1-.1.1-.3.2-.4 0-.1.1-.2.1-.2v-.1c0-.1.1-.3.1-.4 0-.1.1-.2.1-.3v-.1-.4-.3-.1l.2-221.4c-.2.2-.2.3-.2.4"/>
            <path stroke="#001A64" stroke-linecap="round" stroke-linejoin="round" stroke-width="1.445" d="M589.9 304.8v.4c0 .1-.1.2-.1.3 0 .1-.1.3-.1.4-.1.2-.1.4-.2.6v.1c-.1.2-.2.4-.4.6 0 0 0 .1-.1.1-.1.2-.3.4-.4.5l-.1.1-.5.5c-.1.1-.3.2-.4.3-.1.1-.2.2-.4.3-.1.1-.3.2-.5.3-.2.1-.3.2-.5.3-.3.2-.6.3-.9.5-.1 0-.2.1-.2.1-.3.1-.5.2-.8.4h-.1l-.9.3c-.2.1-.4.1-.7.2-.2 0-.3.1-.5.1-.2.1-.5.1-.7.2-.2 0-.3.1-.5.1-.5.1-1 .2-1.5.2h-.5c-.3 0-.6 0-.9.1H574.8c-.2 0-.4 0-.6-.1-.2 0-.4-.1-.6-.1-.2 0-.5-.1-.7-.1-.2 0-.4-.1-.5-.1-.3-.1-.5-.1-.8-.2-.2 0-.3-.1-.5-.1-.1 0-.2-.1-.3-.1-.3-.1-.5-.2-.8-.3-.1 0-.2-.1-.2-.1-.2-.1-.5-.2-.7-.3-.1 0-.2-.1-.3-.1-.3-.2-.6-.3-.9-.5-2.6-1.5-3.8-3.4-3.8-5.3l-.2 221.4c0 1.9 1.3 3.9 3.8 5.3.3.2.6.3.9.5.1.1.2.1.3.1l.6.3h.1c.1 0 .2.1.2.1.3.1.5.2.8.3.1 0 .2.1.3.1.1 0 .1 0 .2.1.1 0 .2.1.3.1.3.1.5.1.8.2.1 0 .1 0 .2.1.1 0 .2 0 .3.1.2 0 .5.1.7.1h.6c.2 0 .4.1.6.1H577.8c.3 0 .6 0 .9-.1h.5c.5-.1 1-.1 1.5-.2h.1c.1 0 .3-.1.4-.1.2 0 .5-.1.7-.2.2 0 .3-.1.5-.1.2-.1.4-.1.7-.2h.1c.3-.1.5-.2.8-.3h.1c.3-.1.6-.2.8-.4.1 0 .2-.1.2-.1.3-.1.6-.3.9-.5.1 0 .1-.1.2-.1.1-.1.2-.1.3-.2.2-.1.3-.2.5-.3.1-.1.2-.2.4-.3.1-.1.3-.2.4-.3 0 0 .1 0 .1-.1l.5-.5.1-.1.3-.3c.1-.1.1-.2.2-.2 0 0 0-.1.1-.1.1-.1.2-.3.3-.4v-.1c.1-.1.1-.3.2-.4 0-.1.1-.2.1-.2v-.1c0-.1.1-.3.1-.4 0-.1.1-.2.1-.3v-.1-.4-.3-.1l.2-221.4c-.2.2-.2.3-.2.4z"/>
            <path fill="#FFF" d="M586.6 299.1c5.1 2.9 5.1 7.7.1 10.6-5 2.9-13.2 2.9-18.3 0-5.1-2.9-5.1-7.7-.1-10.6 5-2.9 13.2-2.9 18.3 0"/>
            <path stroke="#001A64" stroke-linecap="round" stroke-linejoin="round" stroke-width="1.445" d="M586.6 299.1c5.1 2.9 5.1 7.7.1 10.6-5 2.9-13.2 2.9-18.3 0-5.1-2.9-5.1-7.7-.1-10.6 5-2.9 13.2-2.9 18.3 0z"/>
            <path fill="#FFF" d="M589.6 303.1c.1-.2.2-.4.3-.5v-.1l.3-.6c0-.1 0-.1.1-.2.1-.2.1-.3.1-.5v-.2c0-.2.1-.4.1-.6v-1.8-.7-.6c0-.5-.1-1-.1-1.6 0-.2-.1-.5-.1-.7-.1-.5-.1-1-.2-1.4v-.1c0-.1 0-.3-.1-.4-.1-.7-.3-1.3-.4-2-.1-.4-.2-.6-.2-.7-.1-.2-.1-.4-.2-.7 0-.1 0-.1-.1-.2-.1-.2-.1-.5-.2-.7 0-.1 0-.1-.1-.2 0-.1-.1-.2-.1-.2-.1-.2-.1-.4-.2-.5-.2-.5-.4-1-.6-1.4 0 0 0-.1-.1-.1l-.3-.6c-.2-.5-.6-1.2-1-1.9v-.1c-.2-.3-.3-.5-.5-.8-.1-.2-.2-.3-.4-.5 0 0 0-.1-.1-.1 0-.1-.1-.1-.1-.2-.4-.5-.7-.9-1.1-1.3l-.2-.2-.2-.2-.2-.2-.2-.2c-.4-.4-.7-.6-.8-.7-.3-.3-.6-.5-1-.7-.1-.1-.2-.1-.3-.2-.1 0-.1-.1-.2-.1-.1-.1-.2-.1-.3-.1h-.1c-.4-.2-.8-.4-1.1-.5h-.1c-.1 0-.1-.1-.2-.1-.2-.1-.6-.2-1.1-.2h-.1c-.4-.1-.9-.1-1.4 0 0 0-.4 0-.9.2-.1 0-.2 0-.3.1h-.1-.1c-.1 0-.1 0-.2.1h-.1c-.3.1-.5.2-.7.3-.2.1-.4.2-.5.3-.2.1-.7.4-1.3.8 0 0-.1 0-.1.1l-.1.1c-.1.1-.2.1-.2.2l-.1.1-.1.1-.2.2-.3.3-.1.1-.1.1-.6.6c-.2.2-.3.4-.3.4-.2.2-.3.4-.5.6v.1c-.1.1-.1.2-.2.3v.1c-.2.2-.3.4-.4.6l-.1.1c-.1.2-.2.3-.3.4-.1.1-.1.2-.2.3-.1.1-.1.2-.2.3-.1.1-.1.2-.2.4-.1.1-.1.2-.1.3-.2.4-.5.9-.7 1.4-.1.2-.2.4-.2.5-.1.3-.5 1.2-.9 2.6v.1c-.2.6-.4 1.4-.5 2-.1.4-.2.7-.2 1.1-.1.7-.3 1.6-.4 2.3-.2 1.3-.3 2.9-.3 5v.8c0 .2.1.3.1.5v.2l.3.6s0 .1.1.1c.1.2.2.3.3.5 0 .1.1.1.1.2.1.2.2.3.4.5l.1.1.6.6c.1 0 .1.1.2.1.2.1.3.3.5.4l.2.2c.2.2.5.3.8.5 5 3 13.2 3.1 18.3.2.3-.2.6-.3.8-.5l.2-.2c.2-.1.4-.3.6-.4.1 0 .1-.1.2-.1l.6-.6.1-.1c.1-.2.3-.3.4-.5-.3 0-.3-.1-.3-.1"/>
            <path stroke="#001A64" stroke-linecap="round" stroke-linejoin="round" stroke-width="1.445" d="M589.6 303.1c.1-.2.2-.4.3-.5v-.1l.3-.6c0-.1 0-.1.1-.2.1-.2.1-.3.1-.5v-.2c0-.2.1-.4.1-.6v-1.8-.7-.6c0-.5-.1-1-.1-1.6 0-.2-.1-.5-.1-.7-.1-.5-.1-1-.2-1.4v-.1c0-.1 0-.3-.1-.4-.1-.7-.3-1.3-.4-2-.1-.4-.2-.6-.2-.7-.1-.2-.1-.4-.2-.7 0-.1 0-.1-.1-.2-.1-.2-.1-.5-.2-.7 0-.1 0-.1-.1-.2 0-.1-.1-.2-.1-.2-.1-.2-.1-.4-.2-.5-.2-.5-.4-1-.6-1.4 0 0 0-.1-.1-.1l-.3-.6c-.2-.5-.6-1.2-1-1.9v-.1c-.2-.3-.3-.5-.5-.8-.1-.2-.2-.3-.4-.5 0 0 0-.1-.1-.1 0-.1-.1-.1-.1-.2-.4-.5-.7-.9-1.1-1.3l-.2-.2-.2-.2-.2-.2-.2-.2c-.4-.4-.7-.6-.8-.7-.3-.3-.6-.5-1-.7-.1-.1-.2-.1-.3-.2-.1 0-.1-.1-.2-.1-.1-.1-.2-.1-.3-.1h-.1c-.4-.2-.8-.4-1.1-.5h-.1c-.1 0-.1-.1-.2-.1-.2-.1-.6-.2-1.1-.2h-.1c-.4-.1-.9-.1-1.4 0 0 0-.4 0-.9.2-.1 0-.2 0-.3.1h-.1-.1c-.1 0-.1 0-.2.1h-.1c-.3.1-.5.2-.7.3-.2.1-.4.2-.5.3-.2.1-.7.4-1.3.8 0 0-.1 0-.1.1l-.1.1c-.1.1-.2.1-.2.2l-.1.1-.1.1-.2.2-.3.3-.1.1-.1.1-.6.6c-.2.2-.3.4-.3.4-.2.2-.3.4-.5.6v.1c-.1.1-.1.2-.2.3v.1c-.2.2-.3.4-.4.6l-.1.1c-.1.2-.2.3-.3.4-.1.1-.1.2-.2.3-.1.1-.1.2-.2.3-.1.1-.1.2-.2.4-.1.1-.1.2-.1.3-.2.4-.5.9-.7 1.4-.1.2-.2.4-.2.5-.1.3-.5 1.2-.9 2.6v.1c-.2.6-.4 1.4-.5 2-.1.4-.2.7-.2 1.1-.1.7-.3 1.6-.4 2.3-.2 1.3-.3 2.9-.3 5v.8c0 .2.1.3.1.5v.2l.3.6s0 .1.1.1c.1.2.2.3.3.5 0 .1.1.1.1.2.1.2.2.3.4.5l.1.1.6.6c.1 0 .1.1.2.1.2.1.3.3.5.4l.2.2c.2.2.5.3.8.5 5 3 13.2 3.1 18.3.2.3-.2.6-.3.8-.5l.2-.2c.2-.1.4-.3.6-.4.1 0 .1-.1.2-.1l.6-.6.1-.1c.1-.2.3-.3.4-.5-.3 0-.3-.1-.3-.1z"/>
            <path fill="#0035AF" d="M591.3 526.9c0 4.2-6.5 7.7-13 7.7-6.4 0-15.7-1.2-15.7-7.1 0-5.9-.1-55.2 0-59.5.1-4.3 1-5.9 2-5 .9.9 5 47.9 5.5 53.5.6 5.5 3.4 3.8 3.9 1.1.6-2.7 3.2-51.9 7-51.9 2.9 0 4.3 16.1 5.9 32.8 1.6 16.8 1.7 21.1 2.4 18.4l2 10z"/>
        </g>
    </g>
</svg>
