<svg xmlns="http://www.w3.org/2000/svg" width="82" height="82" viewBox="0 0 82 82">
    <g fill="none" fill-rule="evenodd" transform="translate(.8 1)">
        <circle cx="40" cy="40" r="40" stroke="#F0F0F0"/>
        <path fill="#06F" fill-rule="nonzero" d="M40 49.75a7.85 7.85 0 1 1 0-15.7 7.85 7.85 0 0 1 0 15.7zm0-2.5a5.35 5.35 0 1 0 0-10.7 5.35 5.35 0 0 0 0 10.7zm11.4 6.7a4.35 4.35 0 1 1 0-8.7 4.35 4.35 0 0 1 0 8.7zm0-2.5a1.85 1.85 0 1 0 0-3.7 1.85 1.85 0 0 0 0 3.7zM24 62.05a4.35 4.35 0 1 1 0-8.7 4.35 4.35 0 0 1 0 8.7zm0-2.5a1.85 1.85 0 1 0 0-3.7 1.85 1.85 0 0 0 0 3.7zm20-34.2a5.15 5.15 0 1 1 0-10.3 5.15 5.15 0 0 1 0 10.3zm0-2.5a2.65 2.65 0 1 0 0-5.3 2.65 2.65 0 0 0 0 5.3zm2.45 30.35a1.25 1.25 0 0 1 1.5 2 5.35 5.35 0 0 1-.841.506c-.136.068-.573.274-.65.312a1.25 1.25 0 0 1-1.118-2.236c.111-.056.548-.262.65-.313.203-.101.35-.187.459-.269zm-5.15 1.65a1.25 1.25 0 0 1 0 2.5c-.097 0-.178.008-.466.041-.35.042-.562.059-.834.059-.57 0-1.136-.03-1.697-.092a1.25 1.25 0 0 1 .27-2.485c.471.051.947.077 1.427.077.149 0 .282-.011.541-.041.395-.047.527-.059.759-.059zm-6.942-1.185a1.25 1.25 0 1 1-1.09 2.25 15.405 15.405 0 0 1-2.657-1.638 1.25 1.25 0 1 1 1.52-1.985c.694.532 1.44.992 2.227 1.373zm-5.227-4.618a1.25 1.25 0 1 1-2.097 1.36 15.43 15.43 0 0 1-1.426-2.776 1.25 1.25 0 1 1 2.328-.91c.319.814.72 1.593 1.195 2.326zm-2.072-6.56a1.25 1.25 0 1 1-2.498.092 15.694 15.694 0 0 1 .196-3.12 1.25 1.25 0 1 1 2.467.406 13.148 13.148 0 0 0-.165 2.621zm1.614-6.78a1.25 1.25 0 1 1-2.184-1.215 15.44 15.44 0 0 1 1.785-2.56 1.25 1.25 0 0 1 1.896 1.63 12.94 12.94 0 0 0-1.497 2.145zm4.853-4.927a1.25 1.25 0 1 1-1.25-2.165c.903-.521 1.857-.95 2.848-1.28a1.25 1.25 0 0 1 .788 2.373c-.83.276-1.63.635-2.386 1.072zm6.709-1.728a1.25 1.25 0 0 1 .045-2.5 15.42 15.42 0 0 1 3.099.37 1.25 1.25 0 0 1-.547 2.44 12.92 12.92 0 0 0-2.597-.31zm6.626 1.97a1.25 1.25 0 1 1 1.328-2.119 15.577 15.577 0 0 1 2.463 1.914 1.25 1.25 0 0 1-1.723 1.81 13.077 13.077 0 0 0-2.068-1.605zm4.681 5.095a1.25 1.25 0 1 1 2.224-1.142c.476.927.858 1.9 1.138 2.907a1.25 1.25 0 0 1-2.41.67 12.873 12.873 0 0 0-.952-2.435zM52.95 42.5a1.25 1.25 0 0 1 2.5 0c0 .264-.015.458-.056.874a6.048 6.048 0 0 0-.044.626 1.25 1.25 0 0 1-2.5 0c0-.264.015-.458.056-.874.034-.334.044-.473.044-.626zm-31.232 8.741a1.25 1.25 0 0 1-2.236 1.118 12.45 12.45 0 0 1-.334-.736 42.07 42.07 0 0 1-.309-.759 1.25 1.25 0 0 1 2.322-.928c.147.368.212.528.291.716.1.239.187.43.266.589zm-1.988-5.965a1.25 1.25 0 0 1-2.46.448 20.8 20.8 0 0 1-.317-3.33 1.25 1.25 0 0 1 2.5-.042 18.31 18.31 0 0 0 .277 2.924zm.224-7.834a1.25 1.25 0 1 1-2.438-.55 22.92 22.92 0 0 1 .962-3.178 1.25 1.25 0 1 1 2.334.896 20.42 20.42 0 0 0-.858 2.832zm3.183-7.21a1.25 1.25 0 0 1-2.05-1.432 23.036 23.036 0 0 1 2.092-2.578 1.25 1.25 0 0 1 1.823 1.711c-.676.72-1.3 1.488-1.865 2.299zm5.641-5.457a1.25 1.25 0 1 1-1.36-2.097c.93-.604 1.903-1.14 2.911-1.602a1.25 1.25 0 1 1 1.041 2.273c-.897.411-1.763.888-2.592 1.426zm7.367-2.95a1.25 1.25 0 1 1-.49-2.45c.831-.167 1.218-.225 1.745-.225a1.25 1.25 0 0 1 0 2.5c-.306 0-.586.042-1.255.176zm13.996 2.293a1.25 1.25 0 0 1 1.118-2.236c.49.245 1.05.587 1.491.918a1.25 1.25 0 0 1-1.5 2 7.88 7.88 0 0 0-1.109-.682zm4.564 3.554a1.25 1.25 0 0 1 1.79-1.744c.701.719 1.353 1.482 1.952 2.286a1.25 1.25 0 1 1-2.004 1.494 20.33 20.33 0 0 0-1.738-2.036zm4.002 5.908a1.25 1.25 0 0 1 2.285-1.014c.406.915.752 1.858 1.034 2.824a1.25 1.25 0 1 1-2.4.702 20.126 20.126 0 0 0-.92-2.512zm1.698 6.934a1.25 1.25 0 0 1 2.495-.163 23.726 23.726 0 0 1 .003 3.024 1.25 1.25 0 1 1-2.495-.158 21.048 21.048 0 0 0-.003-2.703zm-.764 7.11a1.25 1.25 0 1 1 2.401.696c-.28.965-.622 1.909-1.026 2.826a1.25 1.25 0 1 1-2.288-1.006c.359-.817.664-1.657.913-2.516zm-3.161 6.4a1.25 1.25 0 1 1 2.013 1.482 23.018 23.018 0 0 1-1.936 2.298 1.25 1.25 0 1 1-1.803-1.732 20.518 20.518 0 0 0 1.726-2.048zm-5.137 4.903a1.25 1.25 0 0 1 1.387 2.08 22.898 22.898 0 0 1-2.604 1.5 1.25 1.25 0 0 1-1.103-2.244c.802-.394 1.577-.84 2.32-1.336zm-6.58 2.868a1.25 1.25 0 1 1 .578 2.432c-.972.231-1.961.399-2.963.502a1.25 1.25 0 0 1-.255-2.487 20.434 20.434 0 0 0 2.64-.447zm-7.187.427a1.25 1.25 0 0 1-.27 2.485 22.819 22.819 0 0 1-2.96-.519 1.25 1.25 0 1 1 .593-2.428c.86.21 1.738.364 2.637.462zm-6.612-1.883a1.25 1.25 0 0 1-.928 2.322 6.057 6.057 0 0 1-.857-.434l-.308-.182a4.057 4.057 0 0 0-.23-.127 1.25 1.25 0 0 1 1.118-2.236c.119.06.235.123.373.205l.314.186c.221.13.37.207.518.266z"/>
    </g>
</svg>
