<svg xmlns="http://www.w3.org/2000/svg" width="55" height="55" viewBox="0 0 55 55">
    <g fill="#06F" fill-rule="evenodd">
        <path d="M17.947 0h19.106c6.24 0 8.503.65 10.785 1.87 2.281 1.22 4.072 3.01 5.292 5.292C54.35 9.444 55 11.707 55 17.947v19.106c0 6.24-.65 8.503-1.87 10.785-1.22 2.281-3.01 4.072-5.292 5.292C45.556 54.35 43.293 55 37.053 55H17.947c-6.24 0-8.503-.65-10.785-1.87-2.281-1.22-4.072-3.01-5.292-5.292C.65 45.556 0 43.293 0 37.053V17.947c0-6.24.65-8.503 1.87-10.785C3.09 4.881 4.88 3.09 7.162 1.87 9.444.65 11.707 0 17.947 0z" opacity=".195"/>
        <path fill-rule="nonzero" d="M31.545 23.8c-.813-1.562-2.655-2.22-4.378-1.567-1.202.456-2.672 1.014-4.272 1.455.148-.71.074-1.463-.22-2.178-.431-1.043-1.315-1.818-2.427-2.128-.568-.159-1.184-.194-1.832-.106-4.275.581-6.82-.864-9.065-2.14-1.51-.857-2.935-1.666-4.604-1.666-2.033 0-3.866.68-3.866.68-.658.206-1.024.906-.818 1.564.206.657.906 1.023 1.563.818 0 0 1.465-.567 3.12-.567 1.01 0 2.053.592 3.372 1.341 1.976 1.122 4.57 2.596 8.427 2.596.693 0 1.428-.048 2.207-.154.305-.041.59-.029.826.037.263.073.614.25.79.677.136.33.143.64.02.92-.151.343-.495.627-.968.8-.683.25-1.655.382-2.759.395-1.187.007-2.345-.128-3.363-.396-.667-.175-1.349.223-1.524.89-.175.666.223 1.348.89 1.523 1.192.314 2.635.479 3.997.479v-.002c4.743-.02 8.803-1.523 11.391-2.505.434-.165 1.01-.14 1.291.408.234.45.062 1.01-.384 1.248-3.131 1.673-6.764 3.22-12.104 3.22-4.753 0-9.131-1.834-11.967-3.372-2.008-1.09-3.518-.862-3.885-.782 0 0-.997.148-.997 1.223 0 .689.559 1.247 1.248 1.247.11 0 .321-.042.321-.042s.83-.155 2.123.547c3.09 1.676 7.88 3.675 13.157 3.675 6.7 0 11.144-2.375 13.28-3.515 1.646-.88 2.272-2.966 1.41-4.622zM10.781 12.239c.232.396.65.617 1.078.617.214 0 .431-.055.63-.17l1.116-.654c.776.827 1.793 1.424 2.938 1.679v1.26c0 .689.558 1.247 1.247 1.247.69 0 1.248-.558 1.248-1.247v-1.26c1.12-.25 2.12-.828 2.888-1.628l1.029.602c.198.116.415.171.629.171.429 0 .846-.22 1.078-.617.348-.595.148-1.36-.447-1.707l-.99-.58c.197-.578.304-1.198.304-1.843 0-.644-.107-1.263-.303-1.841l.991-.583c.594-.349.793-1.113.444-1.707-.35-.594-1.114-.793-1.708-.444l-1.025.603c-.77-.801-1.769-1.38-2.89-1.63v-1.26C19.038.56 18.479 0 17.79 0s-1.247.559-1.247 1.248v1.26c-1.146.254-2.164.853-2.94 1.68l-1.113-.654c-.594-.349-1.358-.15-1.708.444-.349.594-.15 1.358.444 1.707l1.106.65c-.182.56-.28 1.155-.28 1.774 0 .62.098 1.217.28 1.776l-1.104.647c-.595.348-.795 1.112-.447 1.707zm7.01-7.374c1.788 0 3.243 1.456 3.243 3.244 0 1.789-1.455 3.244-3.244 3.244-1.788 0-3.243-1.455-3.243-3.244 0-1.788 1.455-3.244 3.243-3.244z" transform="translate(12 12)"/>
    </g>
</svg>
