<svg xmlns="http://www.w3.org/2000/svg" width="55" height="55" viewBox="0 0 55 55">
    <g fill="#FFB800" fill-rule="evenodd">
        <path d="M17.947 0h19.106c6.24 0 8.503.65 10.785 1.87 2.281 1.22 4.072 3.01 5.292 5.292C54.35 9.444 55 11.707 55 17.947v19.106c0 6.24-.65 8.503-1.87 10.785-1.22 2.281-3.01 4.072-5.292 5.292C45.556 54.35 43.293 55 37.053 55H17.947c-6.24 0-8.503-.65-10.785-1.87-2.281-1.22-4.072-3.01-5.292-5.292C.65 45.556 0 43.293 0 37.053V17.947c0-6.24.65-8.503 1.87-10.785C3.09 4.881 4.88 3.09 7.162 1.87 9.444.65 11.707 0 17.947 0z" opacity=".195"/>
        <path fill-rule="nonzero" d="M25.174 38.324c-7.257 0-13.162-5.905-13.162-13.162C12.012 17.904 17.917 12 25.174 12c7.257 0 13.162 5.904 13.162 13.162 0 7.257-5.905 13.162-13.162 13.162zm0-23.829c-5.882 0-10.667 4.785-10.667 10.667 0 5.881 4.785 10.666 10.667 10.666s10.667-4.785 10.667-10.666c0-5.882-4.785-10.667-10.667-10.667zm18.41 29.102c.488-.488.488-1.278 0-1.765l-5.582-5.583c-.488-.487-1.278-.487-1.765 0-.487.488-.487 1.278 0 1.765l5.583 5.583c.244.243.563.365.882.365.32 0 .639-.122.882-.365zM26.68 28.694l4.93-4.96c.486-.49.484-1.28-.005-1.765-.489-.486-1.278-.483-1.764.005l-4.931 4.963c-.262.263-.608.408-.976.408s-.714-.145-.975-.408l-2.388-2.409c-.485-.49-1.275-.493-1.765-.008-.489.486-.492 1.275-.007 1.765l2.388 2.408c.733.74 1.709 1.147 2.747 1.147 1.038 0 2.014-.407 2.746-1.146z"/>
    </g>
</svg>
