<svg width="567" height="676" viewBox="0 0 567 676" fill="none" xmlns="http://www.w3.org/2000/svg">
<path fill-rule="evenodd" clip-rule="evenodd" d="M646.602 412.892H433.268C355.279 412.892 292.056 476.116 292.056 554.107H505.39C583.379 554.107 646.602 490.883 646.602 412.893V412.892Z" fill="#0066FF"/>
<path fill-rule="evenodd" clip-rule="evenodd" d="M550.698 412.892C550.698 359.925 593.636 316.987 646.602 316.987C699.568 316.987 742.506 359.925 742.506 412.892C742.506 465.86 699.568 508.798 646.602 508.798C593.636 508.798 550.698 465.86 550.698 412.892Z" fill="#94E0FF"/>
<path fill-rule="evenodd" clip-rule="evenodd" d="M292.056 685.579H160.586C160.586 612.969 219.447 554.106 292.056 554.106V685.579Z" fill="#0066FF"/>
<mask id="mask0" mask-type="alpha" maskUnits="userSpaceOnUse" x="0" y="-134" width="1480" height="909">
<path fill-rule="evenodd" clip-rule="evenodd" d="M0 774.707H1480V-134H0V774.707Z" fill="white"/>
</mask>
<g mask="url(#mask0)">
<path fill-rule="evenodd" clip-rule="evenodd" d="M292.056 685.579H515.132V554.106H292.056V685.579Z" fill="#001A64"/>
<path fill-rule="evenodd" clip-rule="evenodd" d="M292.057 271.678V554.107C370.046 554.107 433.269 490.883 433.269 412.892C433.269 334.901 370.046 271.678 292.057 271.678Z" fill="#0035AF"/>
<path fill-rule="evenodd" clip-rule="evenodd" d="M292.057 271.678C214.067 271.678 150.845 334.901 150.845 412.892C150.845 490.883 214.067 554.107 292.057 554.107V271.678Z" fill="#94E0FF"/>
<path fill-rule="evenodd" clip-rule="evenodd" d="M646.602 619.843C646.602 656.148 617.171 685.579 580.867 685.579C544.562 685.579 515.132 656.148 515.132 619.843C515.132 583.538 544.562 554.106 580.867 554.106C617.171 554.106 646.602 583.538 646.602 619.843Z" fill="#94E0FF"/>
<path fill-rule="evenodd" clip-rule="evenodd" d="M289.632 191.328C313.732 191.328 333.268 210.865 333.268 234.965V308.391C333.268 332.49 313.732 352.027 289.632 352.027C265.532 352.027 245.995 332.49 245.995 308.391V234.965C245.995 210.865 265.532 191.328 289.632 191.328Z" fill="#001A64"/>
</g>
<mask id="mask1" mask-type="alpha" maskUnits="userSpaceOnUse" x="292" y="271" width="142" height="284">
<path fill-rule="evenodd" clip-rule="evenodd" d="M292.056 554.107C370.045 554.107 433.268 490.882 433.268 412.892C433.268 334.902 370.045 271.678 292.056 271.678" fill="white"/>
</mask>
<g mask="url(#mask1)">
<path d="M232.873 271.282L916.226 -125.846" stroke="#001A64" stroke-width="2.38425" stroke-linecap="round" stroke-linejoin="round"/>
</g>
<mask id="mask2" mask-type="alpha" maskUnits="userSpaceOnUse" x="292" y="271" width="142" height="284">
<path fill-rule="evenodd" clip-rule="evenodd" d="M292.056 554.107C370.045 554.107 433.268 490.882 433.268 412.892C433.268 334.902 370.045 271.678 292.056 271.678" fill="white"/>
</mask>
<g mask="url(#mask2)">
<path d="M232.873 278.46L916.226 -118.668" stroke="#001A64" stroke-width="2.38425" stroke-linecap="round" stroke-linejoin="round"/>
</g>
<mask id="mask3" mask-type="alpha" maskUnits="userSpaceOnUse" x="292" y="271" width="142" height="284">
<path fill-rule="evenodd" clip-rule="evenodd" d="M292.056 554.107C370.045 554.107 433.268 490.882 433.268 412.892C433.268 334.902 370.045 271.678 292.056 271.678" fill="white"/>
</mask>
<g mask="url(#mask3)">
<path d="M232.873 285.638L916.226 -111.491" stroke="#001A64" stroke-width="2.38425" stroke-linecap="round" stroke-linejoin="round"/>
</g>
<mask id="mask4" mask-type="alpha" maskUnits="userSpaceOnUse" x="292" y="271" width="142" height="284">
<path fill-rule="evenodd" clip-rule="evenodd" d="M292.056 554.107C370.045 554.107 433.268 490.882 433.268 412.892C433.268 334.902 370.045 271.678 292.056 271.678" fill="white"/>
</mask>
<g mask="url(#mask4)">
<path d="M232.873 292.816L916.226 -104.312" stroke="#001A64" stroke-width="2.38425" stroke-linecap="round" stroke-linejoin="round"/>
</g>
<mask id="mask5" mask-type="alpha" maskUnits="userSpaceOnUse" x="292" y="271" width="142" height="284">
<path fill-rule="evenodd" clip-rule="evenodd" d="M292.056 554.107C370.045 554.107 433.268 490.882 433.268 412.892C433.268 334.902 370.045 271.678 292.056 271.678" fill="white"/>
</mask>
<g mask="url(#mask5)">
<path d="M232.873 299.994L916.226 -97.1348" stroke="#001A64" stroke-width="2.38425" stroke-linecap="round" stroke-linejoin="round"/>
</g>
<mask id="mask6" mask-type="alpha" maskUnits="userSpaceOnUse" x="292" y="271" width="142" height="284">
<path fill-rule="evenodd" clip-rule="evenodd" d="M292.056 554.107C370.045 554.107 433.268 490.882 433.268 412.892C433.268 334.902 370.045 271.678 292.056 271.678" fill="white"/>
</mask>
<g mask="url(#mask6)">
<path d="M232.873 307.171L916.226 -89.957" stroke="#001A64" stroke-width="2.38425" stroke-linecap="round" stroke-linejoin="round"/>
</g>
<mask id="mask7" mask-type="alpha" maskUnits="userSpaceOnUse" x="292" y="271" width="142" height="284">
<path fill-rule="evenodd" clip-rule="evenodd" d="M292.056 554.107C370.045 554.107 433.268 490.882 433.268 412.892C433.268 334.902 370.045 271.678 292.056 271.678" fill="white"/>
</mask>
<g mask="url(#mask7)">
<path d="M232.873 314.349L916.226 -82.7793" stroke="#001A64" stroke-width="2.38425" stroke-linecap="round" stroke-linejoin="round"/>
</g>
<mask id="mask8" mask-type="alpha" maskUnits="userSpaceOnUse" x="292" y="271" width="142" height="284">
<path fill-rule="evenodd" clip-rule="evenodd" d="M292.056 554.107C370.045 554.107 433.268 490.882 433.268 412.892C433.268 334.902 370.045 271.678 292.056 271.678" fill="white"/>
</mask>
<g mask="url(#mask8)">
<path d="M232.873 321.527L916.226 -75.6016" stroke="#001A64" stroke-width="2.38425" stroke-linecap="round" stroke-linejoin="round"/>
</g>
<mask id="mask9" mask-type="alpha" maskUnits="userSpaceOnUse" x="292" y="271" width="142" height="284">
<path fill-rule="evenodd" clip-rule="evenodd" d="M292.056 554.107C370.045 554.107 433.268 490.882 433.268 412.892C433.268 334.902 370.045 271.678 292.056 271.678" fill="white"/>
</mask>
<g mask="url(#mask9)">
<path d="M232.873 328.705L916.226 -68.4238" stroke="#001A64" stroke-width="2.38425" stroke-linecap="round" stroke-linejoin="round"/>
</g>
<mask id="mask10" mask-type="alpha" maskUnits="userSpaceOnUse" x="292" y="271" width="142" height="284">
<path fill-rule="evenodd" clip-rule="evenodd" d="M292.056 554.107C370.045 554.107 433.268 490.882 433.268 412.892C433.268 334.902 370.045 271.678 292.056 271.678" fill="white"/>
</mask>
<g mask="url(#mask10)">
<path d="M232.873 335.883L916.226 -61.2456" stroke="#001A64" stroke-width="2.38425" stroke-linecap="round" stroke-linejoin="round"/>
</g>
<mask id="mask11" mask-type="alpha" maskUnits="userSpaceOnUse" x="292" y="271" width="142" height="284">
<path fill-rule="evenodd" clip-rule="evenodd" d="M292.056 554.107C370.045 554.107 433.268 490.882 433.268 412.892C433.268 334.902 370.045 271.678 292.056 271.678" fill="white"/>
</mask>
<g mask="url(#mask11)">
<path d="M232.873 343.06L916.226 -54.0684" stroke="#001A64" stroke-width="2.38425" stroke-linecap="round" stroke-linejoin="round"/>
</g>
<mask id="mask12" mask-type="alpha" maskUnits="userSpaceOnUse" x="292" y="271" width="142" height="284">
<path fill-rule="evenodd" clip-rule="evenodd" d="M292.056 554.107C370.045 554.107 433.268 490.882 433.268 412.892C433.268 334.902 370.045 271.678 292.056 271.678" fill="white"/>
</mask>
<g mask="url(#mask12)">
<path d="M232.873 350.238L916.226 -46.8901" stroke="#001A64" stroke-width="2.38425" stroke-linecap="round" stroke-linejoin="round"/>
</g>
<mask id="mask13" mask-type="alpha" maskUnits="userSpaceOnUse" x="292" y="271" width="142" height="284">
<path fill-rule="evenodd" clip-rule="evenodd" d="M292.056 554.107C370.045 554.107 433.268 490.882 433.268 412.892C433.268 334.902 370.045 271.678 292.056 271.678" fill="white"/>
</mask>
<g mask="url(#mask13)">
<path d="M232.873 357.416L916.226 -39.7124" stroke="#001A64" stroke-width="2.38425" stroke-linecap="round" stroke-linejoin="round"/>
</g>
<mask id="mask14" mask-type="alpha" maskUnits="userSpaceOnUse" x="292" y="271" width="142" height="284">
<path fill-rule="evenodd" clip-rule="evenodd" d="M292.056 554.107C370.045 554.107 433.268 490.882 433.268 412.892C433.268 334.902 370.045 271.678 292.056 271.678" fill="white"/>
</mask>
<g mask="url(#mask14)">
<path d="M232.873 364.594L916.226 -32.5347" stroke="#001A64" stroke-width="2.38425" stroke-linecap="round" stroke-linejoin="round"/>
</g>
<mask id="mask15" mask-type="alpha" maskUnits="userSpaceOnUse" x="292" y="271" width="142" height="284">
<path fill-rule="evenodd" clip-rule="evenodd" d="M292.056 554.107C370.045 554.107 433.268 490.882 433.268 412.892C433.268 334.902 370.045 271.678 292.056 271.678" fill="white"/>
</mask>
<g mask="url(#mask15)">
<path d="M232.873 371.772L916.226 -25.3564" stroke="#001A64" stroke-width="2.38425" stroke-linecap="round" stroke-linejoin="round"/>
</g>
<mask id="mask16" mask-type="alpha" maskUnits="userSpaceOnUse" x="292" y="271" width="142" height="284">
<path fill-rule="evenodd" clip-rule="evenodd" d="M292.056 554.107C370.045 554.107 433.268 490.882 433.268 412.892C433.268 334.902 370.045 271.678 292.056 271.678" fill="white"/>
</mask>
<g mask="url(#mask16)">
<path d="M232.873 378.949L916.226 -18.1792" stroke="#001A64" stroke-width="2.38425" stroke-linecap="round" stroke-linejoin="round"/>
</g>
<mask id="mask17" mask-type="alpha" maskUnits="userSpaceOnUse" x="292" y="271" width="142" height="284">
<path fill-rule="evenodd" clip-rule="evenodd" d="M292.056 554.107C370.045 554.107 433.268 490.882 433.268 412.892C433.268 334.902 370.045 271.678 292.056 271.678" fill="white"/>
</mask>
<g mask="url(#mask17)">
<path d="M232.873 386.127L916.226 -11.001" stroke="#001A64" stroke-width="2.38425" stroke-linecap="round" stroke-linejoin="round"/>
</g>
<mask id="mask18" mask-type="alpha" maskUnits="userSpaceOnUse" x="292" y="271" width="142" height="284">
<path fill-rule="evenodd" clip-rule="evenodd" d="M292.056 554.107C370.045 554.107 433.268 490.882 433.268 412.892C433.268 334.902 370.045 271.678 292.056 271.678" fill="white"/>
</mask>
<g mask="url(#mask18)">
<path d="M232.873 393.305L916.226 -3.82373" stroke="#001A64" stroke-width="2.38425" stroke-linecap="round" stroke-linejoin="round"/>
</g>
<mask id="mask19" mask-type="alpha" maskUnits="userSpaceOnUse" x="292" y="271" width="142" height="284">
<path fill-rule="evenodd" clip-rule="evenodd" d="M292.056 554.107C370.045 554.107 433.268 490.882 433.268 412.892C433.268 334.902 370.045 271.678 292.056 271.678" fill="white"/>
</mask>
<g mask="url(#mask19)">
<path d="M232.873 400.483L916.226 3.35449" stroke="#001A64" stroke-width="2.38425" stroke-linecap="round" stroke-linejoin="round"/>
</g>
<mask id="mask20" mask-type="alpha" maskUnits="userSpaceOnUse" x="292" y="271" width="142" height="284">
<path fill-rule="evenodd" clip-rule="evenodd" d="M292.056 554.107C370.045 554.107 433.268 490.882 433.268 412.892C433.268 334.902 370.045 271.678 292.056 271.678" fill="white"/>
</mask>
<g mask="url(#mask20)">
<path d="M232.873 407.661L916.226 10.5327" stroke="#001A64" stroke-width="2.38425" stroke-linecap="round" stroke-linejoin="round"/>
</g>
<mask id="mask21" mask-type="alpha" maskUnits="userSpaceOnUse" x="292" y="271" width="142" height="284">
<path fill-rule="evenodd" clip-rule="evenodd" d="M292.056 554.107C370.045 554.107 433.268 490.882 433.268 412.892C433.268 334.902 370.045 271.678 292.056 271.678" fill="white"/>
</mask>
<g mask="url(#mask21)">
<path d="M232.873 414.838L916.226 17.71" stroke="#001A64" stroke-width="2.38425" stroke-linecap="round" stroke-linejoin="round"/>
</g>
<mask id="mask22" mask-type="alpha" maskUnits="userSpaceOnUse" x="292" y="271" width="142" height="284">
<path fill-rule="evenodd" clip-rule="evenodd" d="M292.056 554.107C370.045 554.107 433.268 490.882 433.268 412.892C433.268 334.902 370.045 271.678 292.056 271.678" fill="white"/>
</mask>
<g mask="url(#mask22)">
<path d="M232.873 422.017L916.226 24.8882" stroke="#001A64" stroke-width="2.38425" stroke-linecap="round" stroke-linejoin="round"/>
</g>
<mask id="mask23" mask-type="alpha" maskUnits="userSpaceOnUse" x="292" y="271" width="142" height="284">
<path fill-rule="evenodd" clip-rule="evenodd" d="M292.056 554.107C370.045 554.107 433.268 490.882 433.268 412.892C433.268 334.902 370.045 271.678 292.056 271.678" fill="white"/>
</mask>
<g mask="url(#mask23)">
<path d="M232.873 429.194L916.226 32.0664" stroke="#001A64" stroke-width="2.38425" stroke-linecap="round" stroke-linejoin="round"/>
</g>
<mask id="mask24" mask-type="alpha" maskUnits="userSpaceOnUse" x="292" y="271" width="142" height="284">
<path fill-rule="evenodd" clip-rule="evenodd" d="M292.056 554.107C370.045 554.107 433.268 490.882 433.268 412.892C433.268 334.902 370.045 271.678 292.056 271.678" fill="white"/>
</mask>
<g mask="url(#mask24)">
<path d="M232.873 436.372L916.226 39.2437" stroke="#001A64" stroke-width="2.38425" stroke-linecap="round" stroke-linejoin="round"/>
</g>
<mask id="mask25" mask-type="alpha" maskUnits="userSpaceOnUse" x="292" y="271" width="142" height="284">
<path fill-rule="evenodd" clip-rule="evenodd" d="M292.056 554.107C370.045 554.107 433.268 490.882 433.268 412.892C433.268 334.902 370.045 271.678 292.056 271.678" fill="white"/>
</mask>
<g mask="url(#mask25)">
<path d="M232.873 443.55L916.226 46.4219" stroke="#001A64" stroke-width="2.38425" stroke-linecap="round" stroke-linejoin="round"/>
</g>
<mask id="mask26" mask-type="alpha" maskUnits="userSpaceOnUse" x="292" y="271" width="142" height="284">
<path fill-rule="evenodd" clip-rule="evenodd" d="M292.056 554.107C370.045 554.107 433.268 490.882 433.268 412.892C433.268 334.902 370.045 271.678 292.056 271.678" fill="white"/>
</mask>
<g mask="url(#mask26)">
<path d="M232.873 450.728L916.226 53.5991" stroke="#001A64" stroke-width="2.38425" stroke-linecap="round" stroke-linejoin="round"/>
</g>
<mask id="mask27" mask-type="alpha" maskUnits="userSpaceOnUse" x="292" y="271" width="142" height="284">
<path fill-rule="evenodd" clip-rule="evenodd" d="M292.056 554.107C370.045 554.107 433.268 490.882 433.268 412.892C433.268 334.902 370.045 271.678 292.056 271.678" fill="white"/>
</mask>
<g mask="url(#mask27)">
<path d="M232.873 457.906L916.226 60.7773" stroke="#001A64" stroke-width="2.38425" stroke-linecap="round" stroke-linejoin="round"/>
</g>
<mask id="mask28" mask-type="alpha" maskUnits="userSpaceOnUse" x="292" y="271" width="142" height="284">
<path fill-rule="evenodd" clip-rule="evenodd" d="M292.056 554.107C370.045 554.107 433.268 490.882 433.268 412.892C433.268 334.902 370.045 271.678 292.056 271.678" fill="white"/>
</mask>
<g mask="url(#mask28)">
<path d="M232.873 465.084L916.226 67.9561" stroke="#001A64" stroke-width="2.38425" stroke-linecap="round" stroke-linejoin="round"/>
</g>
<mask id="mask29" mask-type="alpha" maskUnits="userSpaceOnUse" x="292" y="271" width="142" height="284">
<path fill-rule="evenodd" clip-rule="evenodd" d="M292.056 554.107C370.045 554.107 433.268 490.882 433.268 412.892C433.268 334.902 370.045 271.678 292.056 271.678" fill="white"/>
</mask>
<g mask="url(#mask29)">
<path d="M232.873 472.261L916.226 75.1328" stroke="#001A64" stroke-width="2.38425" stroke-linecap="round" stroke-linejoin="round"/>
</g>
<mask id="mask30" mask-type="alpha" maskUnits="userSpaceOnUse" x="292" y="271" width="142" height="284">
<path fill-rule="evenodd" clip-rule="evenodd" d="M292.056 554.107C370.045 554.107 433.268 490.882 433.268 412.892C433.268 334.902 370.045 271.678 292.056 271.678" fill="white"/>
</mask>
<g mask="url(#mask30)">
<path d="M232.873 479.44L916.226 82.3115" stroke="#001A64" stroke-width="2.38425" stroke-linecap="round" stroke-linejoin="round"/>
</g>
<mask id="mask31" mask-type="alpha" maskUnits="userSpaceOnUse" x="292" y="271" width="142" height="284">
<path fill-rule="evenodd" clip-rule="evenodd" d="M292.056 554.107C370.045 554.107 433.268 490.882 433.268 412.892C433.268 334.902 370.045 271.678 292.056 271.678" fill="white"/>
</mask>
<g mask="url(#mask31)">
<path d="M232.873 486.617L916.226 89.4883" stroke="#001A64" stroke-width="2.38425" stroke-linecap="round" stroke-linejoin="round"/>
</g>
<mask id="mask32" mask-type="alpha" maskUnits="userSpaceOnUse" x="292" y="271" width="142" height="284">
<path fill-rule="evenodd" clip-rule="evenodd" d="M292.056 554.107C370.045 554.107 433.268 490.882 433.268 412.892C433.268 334.902 370.045 271.678 292.056 271.678" fill="white"/>
</mask>
<g mask="url(#mask32)">
<path d="M232.873 493.795L916.226 96.6665" stroke="#001A64" stroke-width="2.38425" stroke-linecap="round" stroke-linejoin="round"/>
</g>
<mask id="mask33" mask-type="alpha" maskUnits="userSpaceOnUse" x="292" y="271" width="142" height="284">
<path fill-rule="evenodd" clip-rule="evenodd" d="M292.056 554.107C370.045 554.107 433.268 490.882 433.268 412.892C433.268 334.902 370.045 271.678 292.056 271.678" fill="white"/>
</mask>
<g mask="url(#mask33)">
<path d="M232.873 500.972L916.226 103.844" stroke="#001A64" stroke-width="2.38425" stroke-linecap="round" stroke-linejoin="round"/>
</g>
<mask id="mask34" mask-type="alpha" maskUnits="userSpaceOnUse" x="292" y="271" width="142" height="284">
<path fill-rule="evenodd" clip-rule="evenodd" d="M292.056 554.107C370.045 554.107 433.268 490.882 433.268 412.892C433.268 334.902 370.045 271.678 292.056 271.678" fill="white"/>
</mask>
<g mask="url(#mask34)">
<path d="M232.873 508.15L916.226 111.022" stroke="#001A64" stroke-width="2.38425" stroke-linecap="round" stroke-linejoin="round"/>
</g>
<mask id="mask35" mask-type="alpha" maskUnits="userSpaceOnUse" x="292" y="271" width="142" height="284">
<path fill-rule="evenodd" clip-rule="evenodd" d="M292.056 554.107C370.045 554.107 433.268 490.882 433.268 412.892C433.268 334.902 370.045 271.678 292.056 271.678" fill="white"/>
</mask>
<g mask="url(#mask35)">
<path d="M232.873 515.328L916.226 118.2" stroke="#001A64" stroke-width="2.38425" stroke-linecap="round" stroke-linejoin="round"/>
</g>
<mask id="mask36" mask-type="alpha" maskUnits="userSpaceOnUse" x="292" y="271" width="142" height="284">
<path fill-rule="evenodd" clip-rule="evenodd" d="M292.056 554.107C370.045 554.107 433.268 490.882 433.268 412.892C433.268 334.902 370.045 271.678 292.056 271.678" fill="white"/>
</mask>
<g mask="url(#mask36)">
<path d="M232.873 522.506L916.226 125.377" stroke="#001A64" stroke-width="2.38425" stroke-linecap="round" stroke-linejoin="round"/>
</g>
<mask id="mask37" mask-type="alpha" maskUnits="userSpaceOnUse" x="292" y="271" width="142" height="284">
<path fill-rule="evenodd" clip-rule="evenodd" d="M292.056 554.107C370.045 554.107 433.268 490.882 433.268 412.892C433.268 334.902 370.045 271.678 292.056 271.678" fill="white"/>
</mask>
<g mask="url(#mask37)">
<path d="M232.873 529.684L916.226 132.556" stroke="#001A64" stroke-width="2.38425" stroke-linecap="round" stroke-linejoin="round"/>
</g>
<mask id="mask38" mask-type="alpha" maskUnits="userSpaceOnUse" x="292" y="271" width="142" height="284">
<path fill-rule="evenodd" clip-rule="evenodd" d="M292.056 554.107C370.045 554.107 433.268 490.882 433.268 412.892C433.268 334.902 370.045 271.678 292.056 271.678" fill="white"/>
</mask>
<g mask="url(#mask38)">
<path d="M232.873 536.861L916.226 139.733" stroke="#001A64" stroke-width="2.38425" stroke-linecap="round" stroke-linejoin="round"/>
</g>
<mask id="mask39" mask-type="alpha" maskUnits="userSpaceOnUse" x="292" y="271" width="142" height="284">
<path fill-rule="evenodd" clip-rule="evenodd" d="M292.056 554.107C370.045 554.107 433.268 490.882 433.268 412.892C433.268 334.902 370.045 271.678 292.056 271.678" fill="white"/>
</mask>
<g mask="url(#mask39)">
<path d="M232.873 544.04L916.226 146.911" stroke="#001A64" stroke-width="2.38425" stroke-linecap="round" stroke-linejoin="round"/>
</g>
<mask id="mask40" mask-type="alpha" maskUnits="userSpaceOnUse" x="292" y="271" width="142" height="284">
<path fill-rule="evenodd" clip-rule="evenodd" d="M292.056 554.107C370.045 554.107 433.268 490.882 433.268 412.892C433.268 334.902 370.045 271.678 292.056 271.678" fill="white"/>
</mask>
<g mask="url(#mask40)">
<path d="M232.873 551.218L916.226 154.09" stroke="#001A64" stroke-width="2.38425" stroke-linecap="round" stroke-linejoin="round"/>
</g>
<mask id="mask41" mask-type="alpha" maskUnits="userSpaceOnUse" x="292" y="271" width="142" height="284">
<path fill-rule="evenodd" clip-rule="evenodd" d="M292.056 554.107C370.045 554.107 433.268 490.882 433.268 412.892C433.268 334.902 370.045 271.678 292.056 271.678" fill="white"/>
</mask>
<g mask="url(#mask41)">
<path d="M232.873 558.395L916.226 161.267" stroke="#001A64" stroke-width="2.38425" stroke-linecap="round" stroke-linejoin="round"/>
</g>
<mask id="mask42" mask-type="alpha" maskUnits="userSpaceOnUse" x="292" y="271" width="142" height="284">
<path fill-rule="evenodd" clip-rule="evenodd" d="M292.056 554.107C370.045 554.107 433.268 490.882 433.268 412.892C433.268 334.902 370.045 271.678 292.056 271.678" fill="white"/>
</mask>
<g mask="url(#mask42)">
<path d="M232.873 565.574L916.226 168.445" stroke="#001A64" stroke-width="2.38425" stroke-linecap="round" stroke-linejoin="round"/>
</g>
<mask id="mask43" mask-type="alpha" maskUnits="userSpaceOnUse" x="292" y="271" width="142" height="284">
<path fill-rule="evenodd" clip-rule="evenodd" d="M292.056 554.107C370.045 554.107 433.268 490.882 433.268 412.892C433.268 334.902 370.045 271.678 292.056 271.678" fill="white"/>
</mask>
<g mask="url(#mask43)">
<path d="M232.873 572.751L916.226 175.624" stroke="#001A64" stroke-width="2.38425" stroke-linecap="round" stroke-linejoin="round"/>
</g>
<mask id="mask44" mask-type="alpha" maskUnits="userSpaceOnUse" x="292" y="271" width="142" height="284">
<path fill-rule="evenodd" clip-rule="evenodd" d="M292.056 554.107C370.045 554.107 433.268 490.882 433.268 412.892C433.268 334.902 370.045 271.678 292.056 271.678" fill="white"/>
</mask>
<g mask="url(#mask44)">
<path d="M232.873 579.929L916.226 182.801" stroke="#001A64" stroke-width="2.38425" stroke-linecap="round" stroke-linejoin="round"/>
</g>
<mask id="mask45" mask-type="alpha" maskUnits="userSpaceOnUse" x="292" y="271" width="142" height="284">
<path fill-rule="evenodd" clip-rule="evenodd" d="M292.056 554.107C370.045 554.107 433.268 490.882 433.268 412.892C433.268 334.902 370.045 271.678 292.056 271.678" fill="white"/>
</mask>
<g mask="url(#mask45)">
<path d="M232.873 587.107L916.226 189.979" stroke="#001A64" stroke-width="2.38425" stroke-linecap="round" stroke-linejoin="round"/>
</g>
<mask id="mask46" mask-type="alpha" maskUnits="userSpaceOnUse" x="292" y="271" width="142" height="284">
<path fill-rule="evenodd" clip-rule="evenodd" d="M292.056 554.107C370.045 554.107 433.268 490.882 433.268 412.892C433.268 334.902 370.045 271.678 292.056 271.678" fill="white"/>
</mask>
<g mask="url(#mask46)">
<path d="M232.873 594.284L916.226 197.156" stroke="#001A64" stroke-width="2.38425" stroke-linecap="round" stroke-linejoin="round"/>
</g>
<mask id="mask47" mask-type="alpha" maskUnits="userSpaceOnUse" x="292" y="271" width="142" height="284">
<path fill-rule="evenodd" clip-rule="evenodd" d="M292.056 554.107C370.045 554.107 433.268 490.882 433.268 412.892C433.268 334.902 370.045 271.678 292.056 271.678" fill="white"/>
</mask>
<g mask="url(#mask47)">
<path d="M232.873 601.463L916.226 204.334" stroke="#001A64" stroke-width="2.38425" stroke-linecap="round" stroke-linejoin="round"/>
</g>
<mask id="mask48" mask-type="alpha" maskUnits="userSpaceOnUse" x="292" y="271" width="142" height="284">
<path fill-rule="evenodd" clip-rule="evenodd" d="M292.056 554.107C370.045 554.107 433.268 490.882 433.268 412.892C433.268 334.902 370.045 271.678 292.056 271.678" fill="white"/>
</mask>
<g mask="url(#mask48)">
<path d="M232.873 608.64L916.226 211.513" stroke="#001A64" stroke-width="2.38425" stroke-linecap="round" stroke-linejoin="round"/>
</g>
<mask id="mask49" mask-type="alpha" maskUnits="userSpaceOnUse" x="292" y="271" width="142" height="284">
<path fill-rule="evenodd" clip-rule="evenodd" d="M292.056 554.107C370.045 554.107 433.268 490.882 433.268 412.892C433.268 334.902 370.045 271.678 292.056 271.678" fill="white"/>
</mask>
<g mask="url(#mask49)">
<path d="M232.873 615.818L916.226 218.69" stroke="#001A64" stroke-width="2.38425" stroke-linecap="round" stroke-linejoin="round"/>
</g>
<mask id="mask50" mask-type="alpha" maskUnits="userSpaceOnUse" x="292" y="271" width="142" height="284">
<path fill-rule="evenodd" clip-rule="evenodd" d="M292.056 554.107C370.045 554.107 433.268 490.882 433.268 412.892C433.268 334.902 370.045 271.678 292.056 271.678" fill="white"/>
</mask>
<g mask="url(#mask50)">
<path d="M232.873 622.997L916.226 225.868" stroke="#001A64" stroke-width="2.38425" stroke-linecap="round" stroke-linejoin="round"/>
</g>
<mask id="mask51" mask-type="alpha" maskUnits="userSpaceOnUse" x="292" y="271" width="142" height="284">
<path fill-rule="evenodd" clip-rule="evenodd" d="M292.056 554.107C370.045 554.107 433.268 490.882 433.268 412.892C433.268 334.902 370.045 271.678 292.056 271.678" fill="white"/>
</mask>
<g mask="url(#mask51)">
<path d="M232.873 630.174L916.226 233.045" stroke="#001A64" stroke-width="2.38425" stroke-linecap="round" stroke-linejoin="round"/>
</g>
<mask id="mask52" mask-type="alpha" maskUnits="userSpaceOnUse" x="292" y="271" width="142" height="284">
<path fill-rule="evenodd" clip-rule="evenodd" d="M292.056 554.107C370.045 554.107 433.268 490.882 433.268 412.892C433.268 334.902 370.045 271.678 292.056 271.678" fill="white"/>
</mask>
<g mask="url(#mask52)">
<path d="M232.873 637.352L916.226 240.224" stroke="#001A64" stroke-width="2.38425" stroke-linecap="round" stroke-linejoin="round"/>
</g>
<mask id="mask53" mask-type="alpha" maskUnits="userSpaceOnUse" x="292" y="271" width="142" height="284">
<path fill-rule="evenodd" clip-rule="evenodd" d="M292.056 554.107C370.045 554.107 433.268 490.882 433.268 412.892C433.268 334.902 370.045 271.678 292.056 271.678" fill="white"/>
</mask>
<g mask="url(#mask53)">
<path d="M232.873 644.53L916.226 247.402" stroke="#001A64" stroke-width="2.38425" stroke-linecap="round" stroke-linejoin="round"/>
</g>
<mask id="mask54" mask-type="alpha" maskUnits="userSpaceOnUse" x="292" y="271" width="142" height="284">
<path fill-rule="evenodd" clip-rule="evenodd" d="M292.056 554.107C370.045 554.107 433.268 490.882 433.268 412.892C433.268 334.902 370.045 271.678 292.056 271.678" fill="white"/>
</mask>
<g mask="url(#mask54)">
<path d="M232.873 651.708L916.226 254.579" stroke="#001A64" stroke-width="2.38425" stroke-linecap="round" stroke-linejoin="round"/>
</g>
<mask id="mask55" mask-type="alpha" maskUnits="userSpaceOnUse" x="292" y="271" width="142" height="284">
<path fill-rule="evenodd" clip-rule="evenodd" d="M292.056 554.107C370.045 554.107 433.268 490.882 433.268 412.892C433.268 334.902 370.045 271.678 292.056 271.678" fill="white"/>
</mask>
<g mask="url(#mask55)">
<path d="M232.873 658.886L916.226 261.757" stroke="#001A64" stroke-width="2.38425" stroke-linecap="round" stroke-linejoin="round"/>
</g>
<mask id="mask56" mask-type="alpha" maskUnits="userSpaceOnUse" x="292" y="271" width="142" height="284">
<path fill-rule="evenodd" clip-rule="evenodd" d="M292.056 554.107C370.045 554.107 433.268 490.882 433.268 412.892C433.268 334.902 370.045 271.678 292.056 271.678" fill="white"/>
</mask>
<g mask="url(#mask56)">
<path d="M232.873 666.063L916.226 268.935" stroke="#001A64" stroke-width="2.38425" stroke-linecap="round" stroke-linejoin="round"/>
</g>
<mask id="mask57" mask-type="alpha" maskUnits="userSpaceOnUse" x="292" y="271" width="142" height="284">
<path fill-rule="evenodd" clip-rule="evenodd" d="M292.056 554.107C370.045 554.107 433.268 490.882 433.268 412.892C433.268 334.902 370.045 271.678 292.056 271.678" fill="white"/>
</mask>
<g mask="url(#mask57)">
<path d="M232.873 673.241L916.226 276.113" stroke="#001A64" stroke-width="2.38425" stroke-linecap="round" stroke-linejoin="round"/>
</g>
<mask id="mask58" mask-type="alpha" maskUnits="userSpaceOnUse" x="292" y="271" width="142" height="284">
<path fill-rule="evenodd" clip-rule="evenodd" d="M292.056 554.107C370.045 554.107 433.268 490.882 433.268 412.892C433.268 334.902 370.045 271.678 292.056 271.678" fill="white"/>
</mask>
<g mask="url(#mask58)">
<path d="M232.873 680.419L916.226 283.291" stroke="#001A64" stroke-width="2.38425" stroke-linecap="round" stroke-linejoin="round"/>
</g>
<mask id="mask59" mask-type="alpha" maskUnits="userSpaceOnUse" x="292" y="271" width="142" height="284">
<path fill-rule="evenodd" clip-rule="evenodd" d="M292.056 554.107C370.045 554.107 433.268 490.882 433.268 412.892C433.268 334.902 370.045 271.678 292.056 271.678" fill="white"/>
</mask>
<g mask="url(#mask59)">
<path d="M232.873 687.597L916.226 290.468" stroke="#001A64" stroke-width="2.38425" stroke-linecap="round" stroke-linejoin="round"/>
</g>
<mask id="mask60" mask-type="alpha" maskUnits="userSpaceOnUse" x="292" y="271" width="142" height="284">
<path fill-rule="evenodd" clip-rule="evenodd" d="M292.056 554.107C370.045 554.107 433.268 490.882 433.268 412.892C433.268 334.902 370.045 271.678 292.056 271.678" fill="white"/>
</mask>
<g mask="url(#mask60)">
<path d="M232.873 694.774L916.226 297.646" stroke="#001A64" stroke-width="2.38425" stroke-linecap="round" stroke-linejoin="round"/>
</g>
<mask id="mask61" mask-type="alpha" maskUnits="userSpaceOnUse" x="292" y="271" width="142" height="284">
<path fill-rule="evenodd" clip-rule="evenodd" d="M292.056 554.107C370.045 554.107 433.268 490.882 433.268 412.892C433.268 334.902 370.045 271.678 292.056 271.678" fill="white"/>
</mask>
<g mask="url(#mask61)">
<path d="M232.873 701.952L916.226 304.824" stroke="#001A64" stroke-width="2.38425" stroke-linecap="round" stroke-linejoin="round"/>
</g>
<mask id="mask62" mask-type="alpha" maskUnits="userSpaceOnUse" x="292" y="271" width="142" height="284">
<path fill-rule="evenodd" clip-rule="evenodd" d="M292.056 554.107C370.045 554.107 433.268 490.882 433.268 412.892C433.268 334.902 370.045 271.678 292.056 271.678" fill="white"/>
</mask>
<g mask="url(#mask62)">
<path d="M232.873 709.13L916.226 312.002" stroke="#001A64" stroke-width="2.38425" stroke-linecap="round" stroke-linejoin="round"/>
</g>
<mask id="mask63" mask-type="alpha" maskUnits="userSpaceOnUse" x="292" y="271" width="142" height="284">
<path fill-rule="evenodd" clip-rule="evenodd" d="M292.056 554.107C370.045 554.107 433.268 490.882 433.268 412.892C433.268 334.902 370.045 271.678 292.056 271.678" fill="white"/>
</mask>
<g mask="url(#mask63)">
<path d="M232.873 716.308L916.226 319.18" stroke="#001A64" stroke-width="2.38425" stroke-linecap="round" stroke-linejoin="round"/>
</g>
<mask id="mask64" mask-type="alpha" maskUnits="userSpaceOnUse" x="292" y="271" width="142" height="284">
<path fill-rule="evenodd" clip-rule="evenodd" d="M292.056 554.107C370.045 554.107 433.268 490.882 433.268 412.892C433.268 334.902 370.045 271.678 292.056 271.678" fill="white"/>
</mask>
<g mask="url(#mask64)">
<path d="M232.873 723.486L916.226 326.357" stroke="#001A64" stroke-width="2.38425" stroke-linecap="round" stroke-linejoin="round"/>
</g>
<mask id="mask65" mask-type="alpha" maskUnits="userSpaceOnUse" x="292" y="271" width="142" height="284">
<path fill-rule="evenodd" clip-rule="evenodd" d="M292.056 554.107C370.045 554.107 433.268 490.882 433.268 412.892C433.268 334.902 370.045 271.678 292.056 271.678" fill="white"/>
</mask>
<g mask="url(#mask65)">
<path d="M232.873 730.664L916.226 333.535" stroke="#001A64" stroke-width="2.38425" stroke-linecap="round" stroke-linejoin="round"/>
</g>
<mask id="mask66" mask-type="alpha" maskUnits="userSpaceOnUse" x="292" y="271" width="142" height="284">
<path fill-rule="evenodd" clip-rule="evenodd" d="M292.056 554.107C370.045 554.107 433.268 490.882 433.268 412.892C433.268 334.902 370.045 271.678 292.056 271.678" fill="white"/>
</mask>
<g mask="url(#mask66)">
<path d="M232.873 737.841L916.226 340.713" stroke="#001A64" stroke-width="2.38425" stroke-linecap="round" stroke-linejoin="round"/>
</g>
<mask id="mask67" mask-type="alpha" maskUnits="userSpaceOnUse" x="292" y="271" width="142" height="284">
<path fill-rule="evenodd" clip-rule="evenodd" d="M292.056 554.107C370.045 554.107 433.268 490.882 433.268 412.892C433.268 334.902 370.045 271.678 292.056 271.678" fill="white"/>
</mask>
<g mask="url(#mask67)">
<path d="M232.873 745.019L916.226 347.891" stroke="#001A64" stroke-width="2.38425" stroke-linecap="round" stroke-linejoin="round"/>
</g>
<mask id="mask68" mask-type="alpha" maskUnits="userSpaceOnUse" x="292" y="271" width="142" height="284">
<path fill-rule="evenodd" clip-rule="evenodd" d="M292.056 554.107C370.045 554.107 433.268 490.882 433.268 412.892C433.268 334.902 370.045 271.678 292.056 271.678" fill="white"/>
</mask>
<g mask="url(#mask68)">
<path d="M232.873 752.197L916.226 355.069" stroke="#001A64" stroke-width="2.38425" stroke-linecap="round" stroke-linejoin="round"/>
</g>
<mask id="mask69" mask-type="alpha" maskUnits="userSpaceOnUse" x="292" y="271" width="142" height="284">
<path fill-rule="evenodd" clip-rule="evenodd" d="M292.056 554.107C370.045 554.107 433.268 490.882 433.268 412.892C433.268 334.902 370.045 271.678 292.056 271.678" fill="white"/>
</mask>
<g mask="url(#mask69)">
<path d="M232.873 759.375L916.226 362.246" stroke="#001A64" stroke-width="2.38425" stroke-linecap="round" stroke-linejoin="round"/>
</g>
<mask id="mask70" mask-type="alpha" maskUnits="userSpaceOnUse" x="292" y="271" width="142" height="284">
<path fill-rule="evenodd" clip-rule="evenodd" d="M292.056 554.107C370.045 554.107 433.268 490.882 433.268 412.892C433.268 334.902 370.045 271.678 292.056 271.678" fill="white"/>
</mask>
<g mask="url(#mask70)">
<path d="M232.873 766.553L916.226 369.424" stroke="#001A64" stroke-width="2.38425" stroke-linecap="round" stroke-linejoin="round"/>
</g>
<mask id="mask71" mask-type="alpha" maskUnits="userSpaceOnUse" x="292" y="271" width="142" height="284">
<path fill-rule="evenodd" clip-rule="evenodd" d="M292.056 554.107C370.045 554.107 433.268 490.882 433.268 412.892C433.268 334.902 370.045 271.678 292.056 271.678" fill="white"/>
</mask>
<g mask="url(#mask71)">
<path d="M232.873 773.731L916.226 376.602" stroke="#001A64" stroke-width="2.38425" stroke-linecap="round" stroke-linejoin="round"/>
</g>
<path fill-rule="evenodd" clip-rule="evenodd" d="M790.709 650.771H726.365V587.819H788.58C806.974 587.819 821.938 572.853 821.938 554.46V552.657C821.938 540.285 815.162 529.472 805.132 523.713C833.689 530.279 855.052 555.904 855.052 586.427C855.052 621.907 826.187 650.771 790.709 650.771ZM722.02 585.035C722.598 583.174 723.115 581.287 723.582 579.38V585.035H722.02ZM630.462 650.761V585.035V567.781C635.614 579.562 647.377 587.819 661.036 587.819H718.157C705.285 624.047 670.911 650.175 630.462 650.761ZM582.471 650.771C604.123 644.32 621.227 627.216 627.679 605.563V650.771H582.471ZM627.66 587.835C626.919 622.198 599.106 650.012 564.742 650.754C565.485 616.392 593.299 588.578 627.66 587.835ZM498.991 586.427C498.991 550.947 527.856 522.082 563.335 522.082C598.355 522.082 626.927 550.206 627.661 585.054C591.764 585.797 562.704 614.857 561.961 650.755C527.113 650.02 498.991 621.447 498.991 586.427ZM496.208 650.771H275.916V522.082H487.858H496.208V650.771ZM273.132 650.771H144.454C145.197 580.146 202.508 522.834 273.132 522.09V650.771ZM134.704 379.476C134.704 319.029 173.263 267.424 227.073 247.949V274.974C227.073 299.803 247.272 320.003 272.1 320.003C296.93 320.003 317.129 299.803 317.129 274.974V246.299C373.04 264.228 413.73 316.453 414.328 378.102C336.813 378.857 273.907 441.766 273.151 519.282C196.685 518.541 134.704 456.115 134.704 379.476ZM229.855 246.971C243.888 242.228 258.91 239.654 274.524 239.654C288.354 239.654 301.718 241.682 314.344 245.44V274.975C314.344 298.269 295.394 317.22 272.1 317.22C248.806 317.22 229.855 298.269 229.855 274.975V246.971ZM229.855 201.55C229.855 178.256 248.806 159.305 272.1 159.305C295.394 159.305 314.344 178.256 314.344 201.55V242.536C301.701 238.853 288.34 236.87 274.524 236.87C258.928 236.87 243.913 239.395 229.855 244.044V201.55ZM629.07 284.963C680.718 284.963 722.816 326.609 723.564 378.084H630.461H627.678H534.575C535.322 326.609 577.419 284.963 629.07 284.963ZM723.582 519.299H661.036H630.462V476.756C675.532 476.12 713.283 444.689 723.582 402.598V519.299ZM630.462 552.658C630.462 535.799 644.178 522.082 661.036 522.082H723.582V556.258C723.582 566.29 722.005 575.957 719.097 585.036H661.036C644.178 585.036 630.462 571.319 630.462 554.46V552.658ZM630.462 522.082H647.716C640.018 525.45 633.829 531.639 630.462 539.337V522.082ZM595.988 468.01C560.553 454.726 535.154 420.749 534.575 380.868H627.671C627.346 413.897 615.505 444.216 595.988 468.01ZM627.678 473.973C617.583 473.826 607.864 472.095 598.765 469.008C612.956 451.462 623.079 430.499 627.678 407.561V473.973ZM723.565 380.868C722.823 431.88 681.473 473.231 630.462 473.972V380.868H723.565ZM275.923 519.281C276.679 443.302 338.348 381.641 414.327 380.885C413.572 456.87 351.907 518.531 275.923 519.281ZM417.111 380.868H531.792C532.366 421.596 558.086 456.348 594.096 470.268C568.431 500.256 530.329 519.299 487.858 519.299H302.609C367.397 506.307 416.452 449.272 417.111 380.868ZM627.679 554.46V567.291C619.419 539.571 593.702 519.299 563.335 519.299C532.968 519.299 507.25 539.571 498.991 567.291V521.65C538.165 518.611 572.943 499.668 596.877 471.293C606.543 474.692 616.901 476.604 627.679 476.756V519.299V522.082V552.658V554.46ZM788.58 522.082C805.439 522.082 819.155 535.799 819.155 552.658V554.46C819.155 571.319 805.439 585.036 788.58 585.036H726.365V556.258V522.082H788.58ZM790.709 519.299H788.581H726.366V378.084H726.348C725.6 325.074 682.254 282.18 629.071 282.18C575.886 282.18 532.54 325.074 531.792 378.084H417.111C416.502 314.892 374.593 261.399 317.129 243.372V201.549C317.129 176.72 296.93 156.521 272.1 156.521C247.272 156.521 227.073 176.72 227.073 201.549V244.998C171.7 264.596 131.921 317.474 131.921 379.476C131.921 451.482 185.567 511.185 254.989 520.739C190.959 530.216 141.663 585.538 141.663 652.163V653.555H273.133H275.916H498.992V605.563C507.124 632.859 532.185 652.929 561.944 653.538V653.555H627.679H629.071H630.462V653.538C672.465 652.945 708.115 625.608 721.109 587.819H723.582V653.555H790.709C827.723 653.555 857.836 623.442 857.836 586.427C857.836 549.412 827.723 519.299 790.709 519.299Z" fill="#EDF1F7"/>
<mask id="mask72" mask-type="alpha" maskUnits="userSpaceOnUse" x="0" y="-134" width="1480" height="909">
<path fill-rule="evenodd" clip-rule="evenodd" d="M0 774.707H1480V-134H0V774.707Z" fill="white"/>
</mask>
<g mask="url(#mask72)">
</g>
</svg>
