<svg xmlns="http://www.w3.org/2000/svg" width="179" height="95" viewBox="0 0 179 95">
    <g fill="none" fill-rule="evenodd">
        <path fill="#164193" d="M47.045 94.077L0 85.257V14.699L47.045 0z"/>
        <path fill="#FFEC00" d="M.006 68.3V49.98c2.368.645 5.004.949 6.742-.1 3.8-2.267 9.554-9.206 9.554-9.206s-3.035 7.484-1.889 10.231c1.21 2.917 8.4 3.074 8.4 3.074s-8.129 4.94-11.911 8.218C7.012 65.538 4.31 77.818 4.31 77.818S2.425 69.947.006 68.3"/>
        <path fill="#E20613" d="M47.045 35.982c-1.628 1.025-3.223 1.832-4.425 2.065-3.78.729-7.826-3.612-7.826-3.612s.951 6.349-1.428 10.261c-2.502 4.121-10.554 9.283-10.554 9.283s8.899-1.722 10.63 1.037c1.84 2.96 2.085 13.27 2.085 13.27s4.534-12.378 8.648-14.064c.8-.34 1.802-.656 2.87-.96v-17.28z"/>
        <path fill="#FFF" d="M16.303 40.675s4.546-7.125 4.272-9.662c-.27-2.407-4.985-3.274-4.985-3.274s6.173-1.516 8.866-3.937c2.597-2.338 4.868-7.19 4.868-7.19s.575 4.014 2.884 4.59c2.384.6 8.751-1.971 8.751-1.971s-5.027 4.756-7 7.35c-2.06 2.704.834 7.854.834 7.854s-5.333-1.857-8.318-1.3c-2.938.56-10.172 7.54-10.172 7.54"/>
        <path fill="#1D1D1B" d="M70.551 35.278V17.634h11.33v2.724H73.76v4.354h7.23v2.673h-7.23v5.168h8.732v2.725zM95.655 34.59c-.595.153-1.367.31-2.317.471-.952.162-1.995.242-3.132.242-1.07 0-1.965-.153-2.685-.458-.723-.307-1.3-.73-1.732-1.273-.433-.543-.743-1.193-.93-1.949a10.307 10.307 0 0 1-.28-2.482v-7.459h3.082v6.976c0 1.425.206 2.444.623 3.055.415.61 1.142.916 2.177.916.373 0 .767-.016 1.184-.05.416-.035.725-.076.93-.128V21.682h3.08V34.59zM107.01 24.737a9.912 9.912 0 0 0-1.056-.268 7.822 7.822 0 0 0-1.566-.14c-.34 0-.7.036-1.082.102-.382.068-.65.128-.803.18v10.667h-3.08v-12.68c.593-.22 1.337-.428 2.227-.623.893-.196 1.88-.293 2.967-.293.203 0 .441.013.712.038.271.026.544.06.816.102.27.043.534.093.789.153.254.06.458.114.61.165l-.534 2.597zM118.417 28.276c0-1.324-.285-2.371-.853-3.144-.569-.772-1.361-1.158-2.38-1.158-1.02 0-1.812.386-2.382 1.158-.57.773-.853 1.82-.853 3.144 0 1.34.284 2.401.853 3.182.57.78 1.362 1.171 2.381 1.171 1.02 0 1.812-.39 2.38-1.17.57-.782.854-1.842.854-3.183m3.156 0c0 1.052-.153 2.011-.458 2.877-.306.866-.738 1.604-1.3 2.216a5.821 5.821 0 0 1-2.023 1.424c-.79.34-1.659.51-2.609.51-.951 0-1.817-.17-2.597-.51a5.858 5.858 0 0 1-2.012-1.424c-.56-.612-.997-1.35-1.31-2.216-.314-.866-.472-1.825-.472-2.877 0-1.053.158-2.007.471-2.864.314-.856.755-1.591 1.325-2.203a5.833 5.833 0 0 1 2.024-1.412c.78-.332 1.637-.497 2.571-.497.933 0 1.794.165 2.583.497.79.33 1.465.801 2.026 1.412.559.612.996 1.347 1.31 2.203.315.857.471 1.811.471 2.864M133.438 28.684c0-1.376-.31-2.444-.93-3.209-.618-.764-1.617-1.146-2.991-1.146-.29 0-.59.014-.903.039a4.863 4.863 0 0 0-.93.166v7.613c.271.185.63.36 1.081.521.45.16.93.242 1.44.242 1.119 0 1.938-.382 2.456-1.146.517-.763.777-1.791.777-3.08m3.156-.052c0 1.02-.13 1.953-.394 2.802-.263.848-.641 1.577-1.133 2.189a5.037 5.037 0 0 1-1.846 1.425c-.738.34-1.574.51-2.508.51a6.173 6.173 0 0 1-1.731-.23c-.526-.153-.959-.322-1.298-.508v5.167h-3.081V22.394c.627-.168 1.4-.33 2.317-.483a17.601 17.601 0 0 1 2.903-.229c1.052 0 1.994.161 2.825.484.832.322 1.541.785 2.127 1.387.585.603 1.034 1.333 1.348 2.19.315.856.471 1.82.471 2.89M147.823 27.003c0-.424-.06-.828-.178-1.21a2.918 2.918 0 0 0-.523-.992c-.228-.28-.508-.5-.84-.662-.331-.162-.726-.243-1.184-.243-.474 0-.891.09-1.248.268a2.878 2.878 0 0 0-.904.7c-.246.289-.436.62-.573.993a5.355 5.355 0 0 0-.278 1.146h5.728zm-8.937 1.376c0-1.173.174-2.2.522-3.082.348-.882.81-1.616 1.387-2.202a5.736 5.736 0 0 1 1.988-1.324 6.158 6.158 0 0 1 2.29-.445c1.832 0 3.263.568 4.29 1.706 1.026 1.137 1.54 2.835 1.54 5.092a12.634 12.634 0 0 1-.05 1.146h-8.783c.082 1.07.46 1.895 1.13 2.482.671.585 1.645.878 2.917.878.747 0 1.43-.068 2.05-.204.62-.137 1.107-.28 1.464-.433l.406 2.52a4.98 4.98 0 0 1-.7.269 9.774 9.774 0 0 1-1.017.253c-.382.077-.794.14-1.235.192-.442.051-.891.076-1.35.076-1.172 0-2.19-.174-3.056-.521-.866-.35-1.577-.833-2.137-1.453a5.943 5.943 0 0 1-1.249-2.189c-.271-.84-.407-1.76-.407-2.761zM158.694 32.859c.95 0 1.67-.052 2.164-.153v-3.412a5.713 5.713 0 0 0-.74-.152 6.774 6.774 0 0 0-1.068-.076c-.34 0-.683.025-1.03.076-.349.05-.664.145-.944.28-.28.136-.503.327-.674.573-.17.246-.255.556-.255.93 0 .729.23 1.233.688 1.514.458.28 1.078.42 1.859.42m-.255-11.482c1.02 0 1.875.128 2.572.381.695.255 1.25.612 1.667 1.07.416.458.713 1.013.891 1.667.179.654.268 1.372.268 2.152v8.07a37.95 37.95 0 0 1-2.153.369c-.959.144-2.04.217-3.245.217a9.802 9.802 0 0 1-2.189-.229c-.663-.153-1.227-.399-1.694-.74a3.462 3.462 0 0 1-1.094-1.322c-.264-.544-.395-1.214-.395-2.012 0-.763.149-1.408.445-1.934a3.665 3.665 0 0 1 1.209-1.286 5.232 5.232 0 0 1 1.77-.713 9.973 9.973 0 0 1 3.17-.153c.373.043.772.115 1.197.216v-.508c0-.358-.043-.697-.127-1.02a2.118 2.118 0 0 0-.446-.852 2.079 2.079 0 0 0-.842-.573c-.347-.136-.783-.203-1.309-.203-.713 0-1.367.05-1.96.151-.596.104-1.079.221-1.453.357l-.381-2.494c.391-.137.958-.27 1.707-.408a13.368 13.368 0 0 1 2.392-.203M167.452 22.395c.593-.17 1.365-.332 2.315-.483.95-.154 2.004-.23 3.158-.23 1.086 0 1.993.149 2.724.445.73.299 1.311.714 1.746 1.249.431.533.736 1.18.916 1.934.178.755.266 1.583.266 2.482v7.485h-3.081v-7c0-.714-.046-1.32-.139-1.821-.094-.501-.246-.908-.46-1.223a1.844 1.844 0 0 0-.864-.688c-.365-.143-.811-.216-1.337-.216-.39 0-.797.026-1.223.078-.424.05-.738.093-.941.126v10.744h-3.08V22.395zM70.551 58.797V41.154h11.152v2.723H73.76v4.508h7.052v2.723h-7.052v7.69zM94.637 58.11c-.595.153-1.367.31-2.317.471-.951.162-1.994.242-3.131.242-1.07 0-1.965-.153-2.686-.458-.723-.307-1.299-.73-1.732-1.273-.433-.544-.742-1.193-.93-1.949a10.307 10.307 0 0 1-.28-2.482v-7.46h3.082v6.977c0 1.424.206 2.444.623 3.055.416.61 1.142.916 2.177.916.373 0 .768-.016 1.183-.051a6.16 6.16 0 0 0 .93-.127v-10.77h3.081V58.11zM98.405 45.914c.594-.169 1.366-.331 2.317-.484.95-.152 2.002-.228 3.157-.228 1.087 0 1.994.148 2.723.444.731.298 1.313.713 1.746 1.25.432.533.736 1.18.916 1.933.178.756.267 1.584.267 2.482v7.486h-3.08v-7c0-.714-.047-1.32-.14-1.822-.095-.5-.246-.907-.458-1.222a1.848 1.848 0 0 0-.866-.688c-.366-.143-.812-.217-1.336-.217-.392 0-.799.027-1.225.079-.422.05-.736.092-.94.126v10.744h-3.08V45.914zM115.565 51.796c0 1.358.322 2.423.967 3.194.644.772 1.535 1.16 2.674 1.16.492 0 .912-.022 1.26-.064.347-.042.633-.09.854-.141v-7.638c-.273-.187-.634-.36-1.084-.522-.45-.161-.928-.24-1.438-.24-1.12 0-1.94.381-2.457 1.144-.517.764-.776 1.8-.776 3.107zm8.835 6.288c-.612.187-1.38.356-2.305.51-.926.153-1.896.23-2.916.23-1.051 0-1.993-.163-2.825-.485a5.86 5.86 0 0 1-2.125-1.388c-.587-.602-1.036-1.332-1.351-2.189-.314-.857-.471-1.82-.471-2.89 0-1.052.132-2.008.396-2.865.262-.857.648-1.59 1.158-2.202a5.147 5.147 0 0 1 1.859-1.413c.729-.331 1.57-.496 2.52-.496.645 0 1.214.077 1.706.23a7.54 7.54 0 0 1 1.274.508v-3.971l3.08-.51v16.93zM131.503 56.276c.815 0 1.408-.097 1.78-.293.375-.194.562-.53.562-1.004 0-.442-.2-.808-.598-1.096-.4-.287-1.058-.603-1.974-.941-.56-.204-1.074-.42-1.54-.65a5.244 5.244 0 0 1-1.21-.803 3.288 3.288 0 0 1-.801-1.106c-.196-.433-.293-.963-.293-1.592 0-1.222.449-2.185 1.349-2.889.9-.704 2.121-1.058 3.668-1.058.779 0 1.526.074 2.24.217.713.144 1.246.286 1.603.421l-.56 2.494a7.72 7.72 0 0 0-1.3-.42c-.525-.126-1.136-.19-1.832-.19-.629 0-1.137.106-1.527.318-.39.212-.586.54-.586.98 0 .22.038.415.115.585.076.17.207.328.394.471.187.144.433.289.738.433.305.144.68.293 1.121.446.73.271 1.35.54 1.86.802.507.263.927.56 1.259.89.331.332.573.71.726 1.134.151.424.23.934.23 1.529 0 1.27-.472 2.236-1.415 2.888-.94.654-2.287.981-4.036.981-1.17 0-2.112-.097-2.825-.293-.713-.196-1.214-.352-1.502-.471l.534-2.572c.459.187 1.007.365 1.641.535.638.17 1.363.254 2.179.254M73.276 80.922c1.703 0 2.555-.584 2.555-1.749 0-.358-.075-.663-.227-.914a2.228 2.228 0 0 0-.613-.656 4.306 4.306 0 0 0-.884-.479c-.33-.134-.679-.27-1.049-.403a10.94 10.94 0 0 1-1.21-.495 4.276 4.276 0 0 1-.992-.656c-.28-.251-.5-.552-.662-.898-.164-.348-.244-.768-.244-1.261 0-1.02.347-1.815 1.042-2.386.694-.57 1.651-.856 2.872-.856.706 0 1.347.075 1.924.227.577.151 1 .316 1.268.495l-.52 1.327c-.235-.144-.586-.287-1.05-.429-.464-.138-1.006-.209-1.622-.209-.312 0-.604.034-.873.1a2.238 2.238 0 0 0-.706.304 1.49 1.49 0 0 0-.479.512c-.117.206-.176.45-.176.73 0 .313.062.577.184.79.124.214.297.4.521.563.224.162.485.31.782.445.296.134.623.27.983.404.504.201.966.402 1.386.603.42.202.784.444 1.091.724.308.28.547.612.715 1 .168.386.252.854.252 1.402 0 1.02-.373 1.803-1.117 2.353-.745.547-1.795.823-3.15.823-.46 0-.883-.031-1.269-.091a9.412 9.412 0 0 1-1.032-.22 6.186 6.186 0 0 1-1.295-.513l.487-1.344c.258.145.65.309 1.176.487.526.18 1.17.27 1.932.27M79.325 73.848c.359-.09.83-.184 1.42-.286.587-.101 1.268-.15 2.041-.15.56 0 1.031.075 1.411.225.38.152.7.373.958.665.078-.056.202-.134.37-.236.167-.1.375-.199.621-.293a6.58 6.58 0 0 1 .823-.253 4.2 4.2 0 0 1 .976-.108c.671 0 1.22.097 1.646.293.425.196.759.473 1 .832.24.358.403.784.487 1.276.084.493.125 1.031.125 1.614v4.905H89.64v-4.569c0-.515-.026-.957-.075-1.327-.051-.37-.145-.679-.285-.925a1.314 1.314 0 0 0-.572-.545c-.242-.118-.552-.177-.932-.177-.528 0-.962.071-1.302.21-.342.14-.575.266-.699.378.09.292.158.61.204.957.042.348.064.712.064 1.093v4.905h-1.561v-4.569c0-.515-.028-.957-.084-1.327a2.681 2.681 0 0 0-.295-.925 1.298 1.298 0 0 0-.571-.545c-.24-.118-.545-.177-.915-.177-.157 0-.325.006-.504.016-.18.012-.35.026-.512.043-.162.016-.31.036-.445.06a3.59 3.59 0 0 0-.27.05v7.374h-1.562v-8.484zM96.664 81.039c.37 0 .698-.007.982-.025.286-.016.525-.047.715-.093v-2.604c-.112-.056-.293-.103-.545-.141a6.002 6.002 0 0 0-.916-.06c-.236 0-.485.017-.749.05a2.281 2.281 0 0 0-.721.21 1.56 1.56 0 0 0-.547.437c-.146.184-.218.428-.218.73 0 .56.18.95.538 1.168.358.219.845.328 1.461.328m-.134-7.829c.627 0 1.156.081 1.588.243.431.162.778.392 1.041.69.264.296.451.65.563 1.057.112.41.168.86.168 1.354v5.46l-.563.091c-.24.04-.512.076-.814.111-.302.032-.63.063-.984.091-.352.028-.703.043-1.05.043-.493 0-.946-.052-1.36-.152-.416-.1-.774-.26-1.075-.478a2.194 2.194 0 0 1-.706-.865c-.168-.36-.252-.791-.252-1.293 0-.484.097-.897.293-1.245.196-.346.463-.626.799-.84.337-.213.727-.37 1.176-.47a6.356 6.356 0 0 1 1.412-.151 5.627 5.627 0 0 1 .966.093l.395.075c.11.022.19.04.234.05v-.436c0-.26-.028-.513-.084-.765a1.75 1.75 0 0 0-.302-.673 1.536 1.536 0 0 0-.597-.47c-.252-.118-.58-.177-.982-.177-.516 0-.966.037-1.354.11-.386.073-.674.148-.864.226l-.185-1.293c.2-.09.538-.177 1.008-.26.47-.085.98-.126 1.529-.126M105.62 73.411c.133 0 .288.008.462.025.172.017.343.039.512.067.167.03.321.057.461.085a3 3 0 0 1 .313.075l-.27 1.361a5.124 5.124 0 0 0-.614-.16 5.453 5.453 0 0 0-1.1-.092c-.29 0-.58.031-.865.092-.286.062-.474.104-.563.126v7.343h-1.563v-8.368c.37-.134.83-.26 1.378-.377a8.841 8.841 0 0 1 1.848-.177M110.256 73.394h3.31v1.311h-3.31v4.032c0 .437.034.798.1 1.084.068.286.17.51.304.672.134.163.302.276.503.344.202.068.438.102.706.102.471 0 .848-.053 1.134-.16.286-.107.485-.182.597-.228l.302 1.295c-.156.078-.432.176-.824.293-.392.118-.84.177-1.343.177-.594 0-1.084-.075-1.47-.227a2.137 2.137 0 0 1-.933-.68 2.733 2.733 0 0 1-.496-1.117 7.444 7.444 0 0 1-.143-1.538v-7.796l1.563-.268v2.704zM126.47 76.368h1.629v5.443a5.812 5.812 0 0 1-.58.152 15.586 15.586 0 0 1-1.956.31c-.392.04-.79.06-1.194.06-.817 0-1.563-.135-2.234-.404a4.743 4.743 0 0 1-1.731-1.176c-.482-.515-.854-1.147-1.117-1.898-.263-.75-.396-1.613-.396-2.587 0-.975.15-1.84.446-2.597.297-.755.697-1.39 1.201-1.906a5.086 5.086 0 0 1 1.773-1.177 5.858 5.858 0 0 1 2.176-.402 8.39 8.39 0 0 1 2.453.334c.291.09.53.18.714.27.186.09.31.156.377.202l-.52 1.36c-.325-.213-.756-.388-1.293-.528a6.449 6.449 0 0 0-1.647-.21c-.594 0-1.136.106-1.622.32-.487.211-.901.52-1.243.923a4.388 4.388 0 0 0-.798 1.47c-.19.577-.286 1.224-.286 1.941 0 .694.081 1.327.243 1.899.163.57.41 1.06.74 1.47.33.408.739.725 1.226.948.488.224 1.061.336 1.724.336.47 0 .87-.025 1.2-.075.33-.051.569-.098.715-.143v-4.335zM133.694 73.411a7.052 7.052 0 0 1 .974.091c.168.03.323.058.463.086.14.028.244.053.31.075l-.268 1.361a5.124 5.124 0 0 0-.614-.16 5.474 5.474 0 0 0-1.1-.092c-.292 0-.58.031-.865.092-.286.062-.474.104-.563.126v7.343h-1.562v-8.368c.37-.134.829-.26 1.377-.377a8.841 8.841 0 0 1 1.848-.177M142.952 77.763c0-.986-.221-1.768-.665-2.344-.441-.577-1.042-.866-1.804-.866-.763 0-1.365.289-1.807.866-.444.576-.665 1.358-.665 2.344 0 .985.221 1.767.665 2.343.442.578 1.044.866 1.807.866.762 0 1.363-.288 1.804-.866.444-.576.665-1.358.665-2.343m1.629 0c0 .694-.1 1.321-.302 1.882-.2.56-.485 1.042-.848 1.444a3.746 3.746 0 0 1-1.303.934 4.097 4.097 0 0 1-1.645.327 4.099 4.099 0 0 1-1.647-.327 3.751 3.751 0 0 1-1.303-.934 4.268 4.268 0 0 1-.847-1.444 5.534 5.534 0 0 1-.304-1.882c0-.684.102-1.308.304-1.874.2-.565.483-1.05.847-1.452a3.732 3.732 0 0 1 1.303-.934 4.099 4.099 0 0 1 1.647-.327c.594 0 1.142.109 1.645.327.504.218.939.53 1.303.934.363.402.648.887.848 1.452.202.566.302 1.19.302 1.874M153.622 82.333a76.438 76.438 0 0 1-1-2.763 46.637 46.637 0 0 1-.965-3.235 50.133 50.133 0 0 1-.958 3.235 63.348 63.348 0 0 1-.991 2.763h-1.363a43.852 43.852 0 0 1-1.511-3.95 69.231 69.231 0 0 1-1.393-4.786h1.679c.112.525.246 1.097.403 1.713.157.615.322 1.233.495 1.848.174.616.355 1.21.547 1.781.19.57.37 1.07.537 1.495.192-.526.378-1.084.563-1.672.184-.587.361-1.181.529-1.78.17-.6.328-1.188.48-1.765.15-.576.281-1.117.395-1.62h1.293c.1.503.224 1.044.37 1.62a65.831 65.831 0 0 0 .999 3.545c.185.588.374 1.146.564 1.672.168-.425.343-.925.527-1.495.186-.571.368-1.165.548-1.78.178-.616.346-1.234.504-1.85.156-.615.291-1.187.402-1.712h1.614a68.4 68.4 0 0 1-1.395 4.787 43.393 43.393 0 0 1-1.512 3.949h-1.361zM160.913 73.394h3.31v1.311h-3.31v4.032c0 .437.034.798.102 1.084.066.286.168.51.3.672.136.163.304.276.506.344.201.068.437.102.705.102.472 0 .849-.053 1.136-.16.286-.107.483-.182.596-.228l.302 1.295c-.157.078-.431.176-.823.293a4.685 4.685 0 0 1-1.345.177c-.594 0-1.084-.075-1.47-.227a2.146 2.146 0 0 1-.932-.68 2.712 2.712 0 0 1-.495-1.117 7.246 7.246 0 0 1-.143-1.538v-7.796l1.561-.268v2.704zM166.122 82.333v-12.77l1.563-.269v4.47a5.31 5.31 0 0 1 .932-.26 5.33 5.33 0 0 1 .983-.093c.695 0 1.272.099 1.732.295a2.7 2.7 0 0 1 1.099.823c.275.352.468.776.58 1.268.112.492.168 1.036.168 1.63v4.906h-1.563v-4.57c0-.538-.035-.997-.109-1.378-.072-.38-.193-.688-.36-.925a1.43 1.43 0 0 0-.672-.511c-.282-.106-.63-.16-1.043-.16-.168 0-.34.011-.52.033-.18.024-.35.049-.513.077a5.7 5.7 0 0 0-.436.091c-.13.034-.222.062-.278.084v7.259h-1.563z"/>
    </g>
</svg>
