<svg xmlns="http://www.w3.org/2000/svg" width="299" height="68" viewBox="0 0 299 68">
    <g fill="none" fill-rule="evenodd">
        <path fill="#164193" d="M0 67.072h100.606V0H0z"/>
        <path fill="#FFEC00" d="M48.159 14.62l2.126-1.552 2.122 1.552-.812-2.506 2.16-1.549h-2.659l-.811-2.535-.81 2.535H46.81l2.152 1.549zM37.17 17.568l2.128-1.552 2.122 1.552-.81-2.503 2.157-1.552H40.11l-.817-2.54-.81 2.547-2.653-.007 2.153 1.552zM31.254 19.033l-.812 2.544-2.656-.006 2.15 1.55-.803 2.505 2.12-1.544 2.128 1.544-.808-2.504 2.157-1.55h-2.658zM28.312 35.04l2.114 1.559-.804-2.508 2.157-1.547h-2.656L28.312 30l-.825 2.549-2.652-.006 2.152 1.547-.803 2.508zM32.07 43.546l-.817-2.535-.808 2.535h-2.66l2.152 1.558-.805 2.497 2.121-1.552 2.128 1.552-.81-2.497 2.16-1.558zM40.121 51.601l-.811-2.537-.817 2.543-2.66-.006 2.16 1.55-.803 2.504 2.12-1.55 2.127 1.55-.81-2.504 2.16-1.55zM51.095 54.518l-.811-2.542-.811 2.542h-2.664l2.16 1.546-.813 2.51 2.128-1.553 2.129 1.552-.819-2.509 2.168-1.546zM62.07 51.601l-.818-2.537-.817 2.543-2.646-.006 2.147 1.55-.804 2.504 2.12-1.55 2.129 1.55-.811-2.504 2.167-1.55zM70.127 43.546l-.819-2.535-.808 2.535h-2.655L68 45.104l-.818 2.497 2.127-1.552 2.13 1.552-.812-2.497 2.16-1.558zM75.697 32.512h-2.66l-.804-2.542-.822 2.542h-2.65l2.155 1.552-.818 2.503 2.135-1.552 2.121 1.552-.81-2.503zM67.182 25.587l2.128-1.542 2.129 1.542-.812-2.503 2.159-1.542h-2.658l-.818-2.549-.809 2.555-2.654-.006L68 23.084zM61.284 10.972l-.803 2.547-2.665-.006 2.157 1.55-.803 2.51 2.127-1.556 2.115 1.556-.806-2.51 2.153-1.55h-2.656z"/>
        <path fill="#1D1D1B" d="M123.044 43.661v-11.07h6.757v1.327h-5.207v3.29h4.631v1.294h-4.63v3.834h5.605v1.325zM138.298 43.245c-.34.087-.79.176-1.35.273-.558.094-1.204.143-1.939.143-.64 0-1.178-.093-1.614-.28a2.612 2.612 0 0 1-1.055-.79 3.223 3.223 0 0 1-.575-1.207 6.246 6.246 0 0 1-.176-1.541v-4.665h1.487v4.347c0 1.011.16 1.734.478 2.171.32.436.857.656 1.614.656a9.963 9.963 0 0 0 .975-.057c.148-.016.284-.032.408-.048.122-.015.209-.034.262-.056v-7.013h1.485v8.067zM143.841 35.179a6.474 6.474 0 0 1 .926.088c.16.027.307.055.44.08.133.028.232.05.295.072l-.256 1.294a5.217 5.217 0 0 0-.582-.153 5.111 5.111 0 0 0-1.046-.087c-.279 0-.551.028-.823.087-.273.06-.451.1-.535.12v6.981h-1.486v-7.955c.35-.128.788-.247 1.31-.36a8.401 8.401 0 0 1 1.757-.167M152.641 39.317c0-.938-.21-1.681-.63-2.229-.421-.55-.994-.822-1.718-.822-.723 0-1.296.273-1.717.822-.42.548-.63 1.291-.63 2.23 0 .936.21 1.68.63 2.227.421.548.994.821 1.717.821.724 0 1.297-.273 1.718-.821.42-.548.63-1.291.63-2.228m1.55 0c0 .66-.096 1.256-.288 1.79-.19.53-.46.989-.805 1.371-.348.383-.76.68-1.239.887a3.871 3.871 0 0 1-1.566.312 3.862 3.862 0 0 1-1.564-.312 3.548 3.548 0 0 1-1.238-.887 4.085 4.085 0 0 1-.807-1.372 5.266 5.266 0 0 1-.287-1.789c0-.65.096-1.244.287-1.781a4.07 4.07 0 0 1 .807-1.382c.344-.384.76-.678 1.238-.887.479-.208 1-.311 1.564-.311.565 0 1.088.103 1.566.31.479.21.891.504 1.239.888.346.383.615.844.805 1.382.192.537.289 1.132.289 1.781M161.97 39.524c0-.969-.24-1.714-.718-2.236-.479-.522-1.12-.784-1.917-.784-.448 0-.797.018-1.047.049-.25.032-.45.07-.598.112v5.239c.181.15.442.293.782.431s.712.209 1.119.209c.425 0 .79-.078 1.094-.233a2 2 0 0 0 .742-.639c.191-.272.33-.59.415-.957.086-.368.128-.765.128-1.19m1.55 0c0 .628-.083 1.208-.248 1.741a3.994 3.994 0 0 1-.726 1.372c-.32.385-.713.682-1.175.895-.464.213-.992.319-1.589.319a3.89 3.89 0 0 1-1.27-.19c-.368-.129-.64-.25-.822-.369v3.322h-1.486V35.611c.35-.086.79-.179 1.318-.28a9.878 9.878 0 0 1 1.829-.152c.637 0 1.213.102 1.726.303.509.204.946.49 1.308.863.363.374.642.828.84 1.367.196.537.296 1.14.296 1.812M170.77 38.518c.012-.672-.154-1.222-.502-1.654-.347-.431-.822-.646-1.43-.646-.34 0-.64.066-.902.199-.26.134-.482.306-.663.52a2.405 2.405 0 0 0-.424.734c-.101.277-.166.56-.2.847h4.121zm-5.702.815c0-.734.107-1.378.32-1.926.213-.547.495-1.004.847-1.366a3.44 3.44 0 0 1 1.213-.813c.46-.18.927-.272 1.405-.272 1.12 0 1.978.347 2.57 1.045.6.698.898 1.76.898 3.187v.248c0 .1-.006.195-.017.279h-5.685c.064.863.314 1.518.75 1.965.436.448 1.117.672 2.044.672.522 0 .96-.046 1.319-.136.356-.091.623-.178.805-.265l.208 1.247c-.181.095-.498.198-.95.304a6.788 6.788 0 0 1-1.541.159c-.725 0-1.35-.11-1.878-.327a3.478 3.478 0 0 1-1.3-.904 3.631 3.631 0 0 1-.76-1.365 5.782 5.782 0 0 1-.248-1.732zM175.115 33.853a.956.956 0 0 1-.678-.263c-.186-.176-.279-.413-.279-.71 0-.299.093-.535.279-.713a.955.955 0 0 1 .678-.262c.267 0 .494.087.68.262.186.178.279.414.279.713 0 .297-.093.534-.28.71a.953.953 0 0 1-.679.263m-2.092 12.794a3.22 3.22 0 0 1-.495-.047 2.478 2.478 0 0 1-.51-.128l.19-1.214a2.954 2.954 0 0 0 .752.112c.51 0 .876-.157 1.094-.471.22-.314.327-.774.327-1.383v-8.16h1.487v8.146c0 1.063-.243 1.853-.728 2.37-.484.519-1.19.775-2.117.775M180.273 42.399c.608 0 1.059-.08 1.35-.239.293-.16.44-.415.44-.767 0-.362-.144-.65-.43-.863-.288-.212-.762-.452-1.423-.718-.32-.129-.626-.26-.919-.39a3.286 3.286 0 0 1-.758-.473 2.069 2.069 0 0 1-.511-.655c-.127-.255-.192-.57-.192-.943 0-.735.271-1.316.815-1.748.543-.43 1.284-.647 2.22-.647.234 0 .47.013.702.04.234.026.454.058.656.095a6.641 6.641 0 0 1 .895.231l-.273 1.278c-.159-.084-.409-.172-.75-.262a4.794 4.794 0 0 0-1.23-.137c-.415 0-.777.084-1.087.248a.82.82 0 0 0-.462.774c0 .181.034.342.103.482.07.137.175.262.321.372.143.113.32.217.533.312.214.097.47.198.767.304.395.15.745.297 1.054.44.31.144.573.31.791.503.22.192.386.423.504.695.116.27.175.604.175.997 0 .767-.284 1.347-.854 1.742-.57.395-1.381.59-2.437.59-.733 0-1.309-.061-1.724-.184a8.974 8.974 0 0 1-.845-.278l.27-1.278c.17.063.441.16.815.287.372.128.867.192 1.484.192M188.389 39.093c.32.244.658.549 1.013.91.359.362.71.754 1.055 1.175.346.42.673.845.982 1.276.31.432.57.835.784 1.208h-1.742a12.851 12.851 0 0 0-.775-1.143c-.293-.389-.599-.761-.918-1.119a13.067 13.067 0 0 0-.974-.982 8.813 8.813 0 0 0-.942-.75v3.994h-1.486V31.52l1.486-.253v7.57l.847-.847c.307-.308.61-.623.91-.942.297-.318.58-.625.846-.92.265-.29.495-.55.686-.772h1.742c-.244.266-.512.558-.798.877-.29.32-.586.642-.895.968-.31.325-.621.648-.935.973-.314.325-.611.632-.886.919M193.643 43.66h1.486v-8.305h-1.486v8.306zm.735-9.807a.958.958 0 0 1-.679-.263c-.185-.176-.28-.413-.28-.71 0-.299.095-.534.28-.713a.957.957 0 0 1 .679-.262c.265 0 .493.087.679.262.185.179.28.414.28.713 0 .297-.095.534-.28.71a.956.956 0 0 1-.68.263zM201.31 43.661v-11.07h6.677v1.327h-5.127v3.337h4.552v1.31h-4.552v5.096zM215.925 43.245c-.34.087-.79.176-1.35.273-.558.094-1.204.143-1.939.143-.64 0-1.178-.093-1.615-.28a2.617 2.617 0 0 1-1.054-.79 3.223 3.223 0 0 1-.575-1.207 6.246 6.246 0 0 1-.176-1.541v-4.665h1.485v4.347c0 1.011.16 1.734.479 2.171.32.436.857.656 1.614.656a10.06 10.06 0 0 0 .975-.057c.15-.016.285-.032.407-.048.122-.015.21-.034.264-.056v-7.013h1.485v8.067zM218.401 35.595c.34-.086.793-.176 1.358-.273a11.917 11.917 0 0 1 1.948-.143c.66 0 1.209.093 1.645.28.437.187.786.448 1.047.782.26.336.444.738.55 1.207.108.468.16.985.16 1.55v4.664h-1.485v-4.345c0-.511-.035-.949-.103-1.31-.07-.361-.184-.656-.345-.88a1.357 1.357 0 0 0-.637-.486c-.267-.101-.598-.153-.991-.153-.16 0-.325.006-.495.016-.17.012-.334.025-.487.042a5.063 5.063 0 0 0-.417.056c-.122.02-.209.036-.262.047v7.013h-1.486v-8.067zM232.856 36.92c-.18-.148-.441-.291-.781-.431a2.961 2.961 0 0 0-1.12-.208c-.426 0-.79.078-1.093.233-.304.153-.551.366-.744.637-.191.273-.33.595-.414.966a5.29 5.29 0 0 0-.128 1.2c0 .97.239 1.716.719 2.243.478.528 1.117.79 1.917.79a7.46 7.46 0 0 0 1.013-.056c.272-.036.481-.075.631-.119V36.92zm0-5.59l1.486-.257V43.23c-.342.098-.779.192-1.31.288a10.45 10.45 0 0 1-1.836.144c-.64 0-1.215-.1-1.726-.303a3.692 3.692 0 0 1-1.31-.863 3.766 3.766 0 0 1-.838-1.367c-.198-.537-.296-1.14-.296-1.81 0-.641.084-1.226.247-1.759.165-.533.408-.99.727-1.373.32-.383.712-.682 1.174-.894.462-.214.994-.32 1.59-.32.479 0 .901.064 1.27.192.366.128.641.25.822.368V31.33zM243.43 43.245c-.34.087-.79.176-1.35.273-.558.094-1.204.143-1.939.143-.64 0-1.178-.093-1.613-.28a2.612 2.612 0 0 1-1.056-.79 3.223 3.223 0 0 1-.574-1.207 6.248 6.248 0 0 1-.176-1.541v-4.665h1.485v4.347c0 1.011.16 1.734.48 2.171.32.436.857.656 1.612.656a10.06 10.06 0 0 0 .975-.057c.15-.016.285-.032.407-.048.123-.015.211-.034.264-.056v-7.013h1.486v8.067zM247.84 42.399c.606 0 1.056-.08 1.35-.239.29-.16.438-.415.438-.767 0-.362-.144-.65-.431-.863-.287-.212-.762-.452-1.423-.718-.32-.129-.625-.26-.917-.39a3.266 3.266 0 0 1-.76-.473 2.069 2.069 0 0 1-.51-.655c-.127-.255-.192-.57-.192-.943 0-.735.27-1.316.816-1.748.542-.43 1.282-.647 2.219-.647.235 0 .47.013.703.04.233.026.452.058.654.095.203.038.381.078.536.12.153.042.274.08.36.111l-.273 1.278c-.16-.084-.41-.172-.751-.262a4.794 4.794 0 0 0-1.23-.137c-.415 0-.777.084-1.086.248a.822.822 0 0 0-.462.774c0 .181.034.342.104.482.07.137.175.262.32.372.143.113.32.217.534.312.214.097.468.198.767.304.393.15.745.297 1.053.44.31.144.573.31.79.503.22.192.386.423.504.695.118.27.177.604.177.997 0 .767-.286 1.347-.855 1.742-.57.395-1.382.59-2.436.59-.735 0-1.31-.061-1.725-.184a8.974 8.974 0 0 1-.846-.278l.271-1.278c.17.063.44.16.815.287.372.128.867.192 1.485.192M258.46 36.473c-.223.246-.519.59-.887 1.038-.367.448-.76.944-1.18 1.486-.42.543-.843 1.113-1.264 1.71-.42.595-.79 1.165-1.109 1.707h4.569v1.247h-6.343v-.99c.256-.469.571-.986.944-1.55a40.4 40.4 0 0 1 1.173-1.684c.41-.56.81-1.088 1.197-1.583.39-.495.728-.913 1.016-1.253h-4.105v-1.246h5.99v1.118zM126.11 53.41c-.659 0-1.165.016-1.516.047v4.17h1.103c.532 0 1.01-.027 1.436-.08a3.355 3.355 0 0 0 1.079-.303c.293-.15.518-.36.679-.632.159-.272.24-.631.24-1.079 0-.415-.081-.76-.24-1.038a1.78 1.78 0 0 0-.648-.654 2.85 2.85 0 0 0-.957-.337 6.933 6.933 0 0 0-1.175-.094m2.348 5.19c.171.214.386.493.647.84.262.345.53.73.807 1.15.278.42.55.86.823 1.317.27.458.502.901.695 1.327h-1.694a24.037 24.037 0 0 0-.695-1.231c-.25-.415-.503-.812-.758-1.19a24.54 24.54 0 0 0-1.438-1.924 4.978 4.978 0 0 1-.423.014h-1.829v4.33h-1.55v-10.91a8.914 8.914 0 0 1 1.462-.216c.537-.036 1.03-.055 1.477-.055 1.556 0 2.74.292 3.554.878.816.586 1.222 1.459 1.222 2.62 0 .734-.194 1.363-.583 1.884-.389.523-.961.911-1.717 1.166M138.698 58.888c0-.936-.212-1.68-.632-2.229-.42-.548-.993-.822-1.716-.822-.725 0-1.298.274-1.717.822-.421.55-.63 1.293-.63 2.23s.209 1.68.63 2.228c.42.548.992.822 1.717.822.723 0 1.297-.274 1.716-.822.42-.549.632-1.29.632-2.229m1.55 0c0 .66-.097 1.258-.288 1.79-.192.532-.461.99-.807 1.373a3.556 3.556 0 0 1-1.237.886c-.48.21-1.002.312-1.566.312a3.864 3.864 0 0 1-1.566-.312 3.561 3.561 0 0 1-1.238-.886 4.127 4.127 0 0 1-.807-1.374 5.26 5.26 0 0 1-.287-1.789c0-.65.096-1.243.287-1.781.193-.536.463-.999.807-1.38.346-.384.76-.68 1.238-.888.479-.207 1-.312 1.566-.312.564 0 1.086.105 1.566.312.479.208.891.504 1.237.888.346.381.615.844.807 1.38.191.538.288 1.132.288 1.781M147.45 56.045c-.222.245-.52.59-.886 1.038-.368.448-.761.943-1.18 1.486a47.722 47.722 0 0 0-1.264 1.708c-.42.596-.79 1.166-1.11 1.71h4.569v1.247h-6.342v-.991c.256-.468.57-.985.944-1.55.372-.565.763-1.126 1.173-1.685.41-.56.81-1.087 1.197-1.581.39-.495.726-.913 1.016-1.253h-4.105v-1.248h5.989v1.12zM156.173 63.233a65.636 65.636 0 0 1-.951-2.628 44.694 44.694 0 0 1-.92-3.074 46.428 46.428 0 0 1-.91 3.074c-.329.985-.643 1.861-.941 2.628h-1.293a41.403 41.403 0 0 1-1.439-3.754 65.778 65.778 0 0 1-1.325-4.553h1.598c.106.5.232 1.044.382 1.63.15.585.307 1.172.472 1.757.165.587.337 1.15.518 1.694.181.542.352 1.016.512 1.42.18-.5.358-1.03.535-1.589.175-.56.344-1.122.502-1.693.162-.57.312-1.128.456-1.677.143-.548.268-1.062.376-1.542h1.23c.095.48.213.994.351 1.542a62.672 62.672 0 0 0 .95 3.37c.175.56.355 1.09.536 1.589.159-.404.327-.878.502-1.42a57.696 57.696 0 0 0 .998-3.45c.15-.587.278-1.13.384-1.63h1.533a64.95 64.95 0 0 1-1.326 4.552 41.008 41.008 0 0 1-1.436 3.754h-1.294zM167.306 58.888c0-.936-.21-1.68-.633-2.229-.42-.548-.99-.822-1.717-.822-.723 0-1.295.274-1.717.822-.42.55-.63 1.293-.63 2.23s.21 1.68.63 2.228c.422.548.994.822 1.717.822.726 0 1.297-.274 1.717-.822.423-.549.633-1.29.633-2.229m1.548 0c0 .66-.095 1.258-.287 1.79-.19.532-.46.99-.806 1.373-.346.383-.76.679-1.238.886a3.871 3.871 0 0 1-1.567.312 3.862 3.862 0 0 1-1.563-.312 3.548 3.548 0 0 1-1.239-.886 4.078 4.078 0 0 1-.807-1.374 5.26 5.26 0 0 1-.287-1.789c0-.65.096-1.243.287-1.781.192-.536.461-.999.807-1.38.345-.384.76-.68 1.239-.888.478-.207 1-.312 1.563-.312.566 0 1.088.105 1.567.312.478.208.892.504 1.238.888.346.381.616.844.806 1.38.192.538.287 1.132.287 1.781M171.603 53.426a.953.953 0 0 1-.68-.264c-.186-.175-.279-.412-.279-.711 0-.298.093-.535.28-.711a.953.953 0 0 1 .679-.264c.265 0 .491.089.678.264.187.176.28.413.28.71 0 .3-.093.537-.28.712a.958.958 0 0 1-.678.264m-2.094 12.793c-.128 0-.292-.014-.495-.047a2.56 2.56 0 0 1-.51-.128l.19-1.213a2.842 2.842 0 0 0 .752.11c.512 0 .876-.156 1.094-.471.219-.314.328-.773.328-1.383v-8.16h1.486v8.146c0 1.064-.243 1.855-.728 2.372-.483.517-1.19.774-2.117.774M181.442 62.818c-.34.085-.79.175-1.35.27-.56.096-1.205.145-1.94.145-.64 0-1.177-.093-1.614-.28a2.61 2.61 0 0 1-1.055-.79 3.216 3.216 0 0 1-.574-1.206 6.263 6.263 0 0 1-.177-1.542v-4.664h1.486v4.345c0 1.011.16 1.734.479 2.171.32.438.856.657 1.613.657a10.136 10.136 0 0 0 .975-.057c.15-.015.286-.031.408-.047.122-.015.21-.036.263-.056V54.75h1.486v8.067zM190.69 53.41c-.66 0-1.167.016-1.517.047v4.17h1.1c.532 0 1.012-.027 1.438-.08a3.355 3.355 0 0 0 1.08-.303c.29-.15.518-.36.678-.632.159-.272.239-.631.239-1.079 0-.415-.08-.76-.239-1.038a1.78 1.78 0 0 0-.648-.654 2.858 2.858 0 0 0-.958-.337 6.903 6.903 0 0 0-1.174-.094m2.349 5.19c.169.214.384.493.646.84.26.345.53.73.807 1.15.277.42.55.86.823 1.317.27.458.502.901.693 1.327h-1.693a24.037 24.037 0 0 0-.695-1.231c-.25-.415-.503-.812-.757-1.19-.256-.378-.51-.733-.76-1.062-.25-.33-.475-.616-.678-.862-.139.011-.28.014-.424.014h-1.827v4.33h-1.55v-10.91a8.89 8.89 0 0 1 1.461-.216c.536-.036 1.03-.055 1.477-.055 1.556 0 2.739.292 3.554.878.815.586 1.221 1.459 1.221 2.62 0 .734-.194 1.363-.582 1.884-.388.523-.963.911-1.716 1.166M202.733 58.09c.01-.671-.156-1.222-.504-1.653-.346-.432-.821-.647-1.428-.647-.342 0-.642.065-.902.2a2.127 2.127 0 0 0-.665.519 2.367 2.367 0 0 0-.422.735c-.102.276-.168.559-.2.846h4.12zm-5.703.814c0-.734.106-1.376.321-1.924.212-.55.495-1.006.845-1.366a3.442 3.442 0 0 1 1.215-.815 3.79 3.79 0 0 1 1.405-.272c1.119 0 1.976.349 2.57 1.047.6.698.896 1.76.896 3.186v.247c0 .102-.005.195-.015.28h-5.686c.063.863.313 1.518.75 1.964.435.448 1.118.673 2.044.673a5.5 5.5 0 0 0 1.32-.137c.354-.09.622-.178.805-.263l.208 1.245c-.182.096-.5.198-.95.304-.454.107-.969.16-1.542.16-.724 0-1.35-.109-1.877-.327a3.5 3.5 0 0 1-1.302-.904 3.663 3.663 0 0 1-.76-1.365 5.833 5.833 0 0 1-.247-1.733zM211.534 56.237a4.85 4.85 0 0 0-.6-.12 7.304 7.304 0 0 0-1.014-.056c-.798 0-1.413.263-1.845.782-.431.523-.646 1.214-.646 2.076 0 .479.062.891.184 1.231.122.342.287.623.495.845.207.226.447.39.718.497.273.107.551.16.838.16a3.34 3.34 0 0 0 1.088-.17c.329-.11.59-.24.782-.39v-4.855zm.016 6.165c-.128.085-.375.194-.742.328-.368.132-.796.2-1.287.2-.5 0-.971-.08-1.413-.24a3.078 3.078 0 0 1-1.159-.743 3.58 3.58 0 0 1-.782-1.255c-.191-.499-.288-1.095-.288-1.787 0-.608.09-1.165.272-1.67.181-.505.445-.942.79-1.31a3.617 3.617 0 0 1 1.27-.862 4.395 4.395 0 0 1 1.695-.312c.69 0 1.295.05 1.812.152.517.101.95.196 1.302.28v7.41c0 1.28-.332 2.204-.991 2.78-.66.576-1.661.863-3.002.863a8.123 8.123 0 0 1-1.477-.128 8.342 8.342 0 0 1-1.206-.304l.27-1.294c.298.118.663.222 1.093.312a6.51 6.51 0 0 0 1.35.136c.885 0 1.522-.176 1.91-.527.389-.352.583-.912.583-1.677v-.352zM215.495 63.233h1.486v-8.307h-1.486v8.307zm.733-9.807a.96.96 0 0 1-.679-.264c-.185-.175-.278-.412-.278-.711 0-.297.093-.534.278-.711a.96.96 0 0 1 .68-.264.96.96 0 0 1 .68.264c.186.177.28.414.28.711 0 .299-.094.536-.28.711a.96.96 0 0 1-.68.264zM225.239 58.888c0-.936-.211-1.68-.632-2.229-.421-.548-.993-.822-1.717-.822-.724 0-1.297.274-1.718.822-.42.55-.629 1.293-.629 2.23s.21 1.68.629 2.228c.42.548.994.822 1.718.822s1.296-.274 1.717-.822c.421-.549.632-1.29.632-2.229m1.548 0a5.26 5.26 0 0 1-.287 1.79c-.191.532-.46.99-.807 1.373a3.548 3.548 0 0 1-1.238.886 3.869 3.869 0 0 1-1.565.312 3.869 3.869 0 0 1-1.565-.312 3.561 3.561 0 0 1-1.238-.886 4.1 4.1 0 0 1-.806-1.374c-.193-.531-.288-1.13-.288-1.789 0-.65.095-1.243.288-1.781.192-.536.461-.999.806-1.38.346-.384.76-.68 1.238-.888.48-.207 1-.312 1.565-.312.564 0 1.087.105 1.565.312.48.208.892.504 1.238.888.347.381.616.844.807 1.38.192.538.287 1.132.287 1.781M228.8 55.167c.34-.086.792-.177 1.358-.273a11.755 11.755 0 0 1 1.948-.142c.66 0 1.209.092 1.646.278.436.187.785.448 1.045.783.26.336.445.738.552 1.206.106.468.16.985.16 1.55v4.665h-1.485v-4.346c0-.51-.037-.947-.104-1.31-.07-.362-.184-.655-.345-.878a1.369 1.369 0 0 0-.637-.488c-.267-.1-.598-.151-.991-.151-.16 0-.326.006-.495.016-.17.01-.334.025-.487.041a5.063 5.063 0 0 0-.417.056c-.122.02-.21.035-.262.047v7.013H228.8v-8.067zM240.7 62.003c.35 0 .663-.008.934-.024.27-.016.499-.046.68-.088v-2.475a1.972 1.972 0 0 0-.52-.137 5.847 5.847 0 0 0-1.581-.006c-.25.03-.479.097-.688.199a1.462 1.462 0 0 0-.518.415c-.139.175-.208.406-.208.695 0 .531.17.9.513 1.108.338.21.802.313 1.388.313m-.128-7.443c.595 0 1.1.076 1.51.232.409.153.738.371.989.654.25.281.428.618.537 1.006.105.388.16.817.16 1.287v5.191l-.537.087c-.23.038-.486.07-.774.105-.287.03-.6.06-.934.086-.336.027-.67.042-1 .042-.468 0-.898-.05-1.292-.145a2.86 2.86 0 0 1-1.022-.456 2.061 2.061 0 0 1-.672-.822c-.16-.341-.241-.75-.241-1.23 0-.458.094-.852.281-1.181.186-.33.44-.597.76-.8.318-.202.69-.35 1.116-.448a6.191 6.191 0 0 1 1.341-.142 5.044 5.044 0 0 1 .92.087c.143.028.269.053.375.072l.225.047v-.414c0-.246-.028-.487-.081-.727a1.693 1.693 0 0 0-.287-.64 1.458 1.458 0 0 0-.567-.445c-.24-.112-.552-.168-.935-.168-.489 0-.919.034-1.285.103a4.68 4.68 0 0 0-.822.215l-.178-1.23c.193-.084.512-.168.96-.247a8.45 8.45 0 0 1 1.453-.12M248.637 63.233c-.914-.022-1.563-.218-1.948-.592-.383-.372-.575-.952-.575-1.74v-9.968l1.487-.255v9.983c0 .245.02.448.063.607.041.159.11.287.206.384a.917.917 0 0 0 .384.215c.16.047.357.088.592.12l-.209 1.246zM250.427 55.167c.34-.086.792-.177 1.358-.273a11.755 11.755 0 0 1 1.948-.142c.661 0 1.209.092 1.646.278.436.187.785.448 1.045.783.261.336.445.738.553 1.206.106.468.159.985.159 1.55v4.665h-1.485v-4.346c0-.51-.036-.947-.104-1.31-.07-.362-.184-.655-.345-.878a1.369 1.369 0 0 0-.637-.488c-.267-.1-.598-.151-.991-.151-.16 0-.326.006-.495.016-.17.01-.334.025-.487.041a5.063 5.063 0 0 0-.417.056c-.122.02-.209.035-.262.047v7.013h-1.486v-8.067zM264.754 58.09c.01-.671-.156-1.222-.503-1.653-.346-.432-.822-.647-1.428-.647-.342 0-.642.065-.903.2a2.127 2.127 0 0 0-.664.519 2.367 2.367 0 0 0-.423.735c-.101.276-.167.559-.2.846h4.121zm-5.702.814c0-.734.106-1.376.32-1.924.213-.55.496-1.006.846-1.366a3.442 3.442 0 0 1 1.215-.815 3.79 3.79 0 0 1 1.404-.272c1.12 0 1.976.349 2.571 1.047.6.698.897 1.76.897 3.186v.247c0 .102-.006.195-.016.28h-5.687c.064.863.314 1.518.75 1.964.437.448 1.119.673 2.045.673a5.5 5.5 0 0 0 1.32-.137c.354-.09.622-.178.805-.263l.207 1.245c-.18.096-.497.198-.95.304-.453.107-.968.16-1.541.16-.725 0-1.35-.109-1.877-.327a3.5 3.5 0 0 1-1.302-.904 3.663 3.663 0 0 1-.76-1.365 5.833 5.833 0 0 1-.247-1.733zM273.556 56.237a4.85 4.85 0 0 0-.6-.12 7.304 7.304 0 0 0-1.014-.056c-.798 0-1.414.263-1.845.782-.431.523-.646 1.214-.646 2.076 0 .479.061.891.184 1.231.122.342.287.623.494.845.208.226.448.39.719.497.272.107.55.16.838.16a3.34 3.34 0 0 0 1.088-.17c.328-.11.589-.24.782-.39v-4.855zm.016 6.165c-.128.085-.376.194-.742.328-.368.132-.797.2-1.287.2-.5 0-.972-.08-1.414-.24a3.078 3.078 0 0 1-1.158-.743 3.58 3.58 0 0 1-.782-1.255c-.192-.499-.289-1.095-.289-1.787 0-.608.092-1.165.273-1.67.18-.505.444-.942.79-1.31a3.617 3.617 0 0 1 1.27-.862 4.395 4.395 0 0 1 1.694-.312c.69 0 1.296.05 1.813.152.517.101.95.196 1.301.28v7.41c0 1.28-.331 2.204-.99 2.78-.66.576-1.661.863-3.003.863a8.123 8.123 0 0 1-1.477-.128 8.342 8.342 0 0 1-1.206-.304l.27-1.294c.299.118.664.222 1.094.312a6.51 6.51 0 0 0 1.35.136c.885 0 1.521-.176 1.91-.527.389-.352.583-.912.583-1.677v-.352zM283.299 58.888c0-.936-.21-1.68-.632-2.229-.42-.548-.992-.822-1.717-.822-.724 0-1.297.274-1.718.822-.42.55-.629 1.293-.629 2.23s.21 1.68.629 2.228c.421.548.994.822 1.718.822.725 0 1.298-.274 1.717-.822.421-.549.632-1.29.632-2.229m1.549 0a5.26 5.26 0 0 1-.287 1.79 4.1 4.1 0 0 1-.806 1.373c-.347.383-.76.679-1.24.886-.477.21-1 .312-1.565.312a3.869 3.869 0 0 1-1.565-.312 3.561 3.561 0 0 1-1.238-.886 4.1 4.1 0 0 1-.806-1.374c-.192-.531-.288-1.13-.288-1.789 0-.65.096-1.243.288-1.781.192-.536.461-.999.806-1.38.346-.384.76-.68 1.238-.888.48-.207 1-.312 1.565-.312.566 0 1.088.105 1.565.312.48.208.893.504 1.24.888.345.381.614.844.806 1.38.191.538.287 1.132.287 1.781M129.638 21.332c-1.146 0-2.13-.165-2.952-.496-.823-.331-1.505-.795-2.047-1.392a5.67 5.67 0 0 1-1.197-2.107c-.259-.806-.387-1.693-.387-2.662V4.195h3.074v10.19c0 .759.084 1.408.254 1.948.169.542.412.98.725 1.32.316.338.687.588 1.115.75.427.16.907.243 1.44.243.532 0 1.016-.082 1.452-.243a2.895 2.895 0 0 0 1.126-.75c.314-.34.557-.778.726-1.32.17-.54.255-1.19.255-1.948V4.195h3.073v10.48c0 .97-.133 1.856-.4 2.662a5.8 5.8 0 0 1-1.21 2.107c-.54.597-1.23 1.06-2.07 1.392-.84.331-1.831.496-2.977.496M139.9 9.061c.566-.16 1.3-.315 2.203-.46.904-.145 1.904-.219 3.002-.219 1.032 0 1.895.143 2.59.425.693.282 1.247.677 1.658 1.186.41.508.7 1.122.872 1.84.169.716.254 1.503.254 2.358v7.116h-2.93v-6.655c0-.677-.044-1.255-.134-1.732-.087-.474-.234-.862-.434-1.16a1.741 1.741 0 0 0-.823-.654c-.348-.137-.77-.206-1.27-.206-.372 0-.76.025-1.163.072-.405.049-.702.089-.896.121v10.214H139.9V9.061zM153.939 21.307h2.928V8.649h-2.928v12.658zm3.243-16.361c0 .547-.178.985-.531 1.307a1.81 1.81 0 0 1-1.26.485c-.5 0-.928-.16-1.283-.485-.355-.322-.532-.76-.532-1.307 0-.566.177-1.007.532-1.331a1.842 1.842 0 0 1 1.282-.485c.485 0 .904.162 1.26.485.354.324.532.765.532 1.33zM164.904 19.008c.902 0 1.588-.048 2.055-.145v-3.244a5.881 5.881 0 0 0-.702-.144 6.495 6.495 0 0 0-1.015-.072c-.322 0-.65.023-.982.072-.33.048-.627.137-.895.266-.267.13-.479.31-.64.544-.163.235-.244.53-.244.884 0 .694.22 1.174.656 1.44.436.265 1.023.4 1.767.4m-.243-10.917c.968 0 1.783.122 2.444.364.66.241 1.19.581 1.586 1.016.396.436.678.964.848 1.586.169.62.253 1.303.253 2.045v7.672c-.45.097-1.132.215-2.045.35-.912.138-1.94.207-3.086.207-.76 0-1.452-.074-2.082-.217-.63-.147-1.166-.38-1.61-.703a3.308 3.308 0 0 1-1.04-1.258c-.251-.517-.376-1.154-.376-1.912 0-.726.141-1.339.424-1.84.283-.5.665-.906 1.151-1.222a4.953 4.953 0 0 1 1.68-.677 9.402 9.402 0 0 1 3.014-.147 9.64 9.64 0 0 1 1.137.206v-.483c0-.34-.04-.662-.12-.969a1.937 1.937 0 0 0-1.224-1.355c-.329-.129-.744-.194-1.244-.194-.678 0-1.3.049-1.864.145-.566.098-1.025.21-1.379.34l-.365-2.374c.371-.126.913-.256 1.623-.386s1.468-.194 2.275-.194M178.868 21.308V4.534h10.77v2.59h-7.72v4.139h6.874v2.541h-6.874v4.914h8.302v2.59zM202.733 20.655c-.564.146-1.299.294-2.203.447-.902.154-1.895.23-2.977.23-1.016 0-1.867-.146-2.553-.436-.686-.29-1.234-.693-1.645-1.21-.412-.517-.708-1.134-.885-1.85a9.887 9.887 0 0 1-.265-2.362V8.382h2.927v6.634c0 1.354.2 2.322.594 2.905.396.578 1.086.868 2.068.868.357 0 .732-.014 1.127-.047.396-.032.69-.073.885-.12V8.381h2.927v12.273zM213.527 11.287a9.197 9.197 0 0 0-1.004-.253 7.4 7.4 0 0 0-1.487-.134c-.324 0-.667.034-1.03.097-.363.065-.618.12-.762.17v10.141h-2.927V9.254c.562-.21 1.269-.407 2.115-.592.849-.186 1.788-.28 2.822-.28.192 0 .418.013.677.038a11.58 11.58 0 0 1 1.524.242c.241.056.437.109.581.156l-.509 2.47zM224.37 14.652c0-1.258-.27-2.255-.811-2.99-.54-.733-1.294-1.1-2.262-1.1-.967 0-1.722.367-2.263 1.1-.54.735-.811 1.732-.811 2.99 0 1.275.27 2.283.811 3.025.54.744 1.296 1.114 2.263 1.114.968 0 1.723-.37 2.262-1.114.542-.742.811-1.75.811-3.025m3.002 0c0 1-.145 1.912-.436 2.734-.29.824-.7 1.527-1.235 2.107a5.537 5.537 0 0 1-1.921 1.354c-.753.324-1.58.485-2.483.485-.904 0-1.727-.16-2.469-.485a5.552 5.552 0 0 1-1.911-1.354c-.533-.58-.948-1.283-1.247-2.107-.3-.822-.448-1.733-.448-2.734 0-1.002.149-1.909.448-2.724.299-.813.717-1.512 1.259-2.093a5.548 5.548 0 0 1 1.924-1.344c.742-.313 1.556-.471 2.444-.471.888 0 1.705.158 2.456.471.751.315 1.392.763 1.926 1.344.532.58.947 1.28 1.244 2.093.3.815.45 1.722.45 2.724M238.651 15.038c0-1.307-.294-2.323-.883-3.049-.59-.726-1.539-1.09-2.843-1.09-.276 0-.561.012-.86.037a4.872 4.872 0 0 0-.884.156v7.239c.258.176.6.343 1.028.496.427.154.885.23 1.368.23 1.066 0 1.843-.364 2.335-1.09.492-.726.74-1.702.74-2.929m3-.047c0 .968-.125 1.856-.374 2.66-.25.81-.61 1.503-1.078 2.083a4.774 4.774 0 0 1-1.755 1.356c-.7.322-1.496.483-2.384.483-.598 0-1.145-.07-1.646-.217-.5-.145-.911-.306-1.234-.484v4.913h-2.928V9.061a23.72 23.72 0 0 1 2.202-.46 16.71 16.71 0 0 1 2.76-.22c1 0 1.895.155 2.685.462.79.306 1.465.746 2.022 1.319a5.81 5.81 0 0 1 1.282 2.082c.3.814.448 1.73.448 2.747M252.327 13.441c0-.402-.058-.786-.17-1.148a2.76 2.76 0 0 0-.497-.946 2.334 2.334 0 0 0-.798-.628c-.315-.154-.69-.23-1.125-.23-.452 0-.848.085-1.185.253-.34.17-.626.393-.86.666-.236.275-.417.59-.546.945a5.171 5.171 0 0 0-.266 1.088h5.447zm-8.496 1.308c0-1.114.165-2.09.495-2.93.331-.838.771-1.536 1.32-2.091a5.444 5.444 0 0 1 1.888-1.26 5.877 5.877 0 0 1 2.18-.423c1.741 0 3.1.54 4.076 1.62.977 1.082 1.464 2.697 1.464 4.842a12.472 12.472 0 0 1-.047 1.088h-8.35c.08 1.018.439 1.804 1.076 2.36.638.557 1.561.835 2.771.835.711 0 1.36-.063 1.95-.193.589-.13 1.053-.266 1.391-.41l.387 2.395c-.162.08-.384.165-.665.253-.283.09-.607.171-.969.243-.362.072-.754.133-1.173.181-.42.049-.849.073-1.284.073-1.112 0-2.08-.165-2.904-.497-.823-.33-1.5-.79-2.032-1.38a5.63 5.63 0 0 1-1.187-2.08c-.259-.8-.387-1.674-.387-2.626zM261.452 4.946c0 .548-.179.985-.532 1.307a1.816 1.816 0 0 1-1.259.485c-.502 0-.929-.162-1.282-.485-.355-.322-.533-.76-.533-1.307 0-.565.178-1.009.533-1.331.353-.323.78-.485 1.282-.485.483 0 .903.162 1.259.485.353.322.532.766.532 1.33m-4.867 20.865c-.209 0-.502-.02-.882-.06a3.906 3.906 0 0 1-1.004-.23l.387-2.396c.355.112.782.168 1.283.168.679 0 1.153-.197 1.428-.592.274-.396.412-.99.412-1.779V8.651h2.927v12.317c0 1.647-.39 2.864-1.173 3.655-.783.79-1.908 1.187-3.378 1.187M267.889 18.912c.775 0 1.338-.093 1.693-.278.357-.186.535-.504.535-.957 0-.418-.19-.766-.57-1.041-.38-.273-1.006-.573-1.876-.894-.533-.194-1.02-.4-1.463-.618a5.032 5.032 0 0 1-1.152-.763 3.092 3.092 0 0 1-.76-1.053c-.187-.41-.28-.916-.28-1.512 0-1.162.428-2.077 1.283-2.747.856-.669 2.016-1.005 3.485-1.005.742 0 1.453.07 2.13.207.68.136 1.186.269 1.525.399l-.532 2.372a7.112 7.112 0 0 0-1.234-.4 7.488 7.488 0 0 0-1.743-.182c-.598 0-1.08.1-1.452.302-.37.203-.556.514-.556.933 0 .21.035.395.107.557.074.16.199.31.377.448.177.136.41.273.7.41.291.139.646.279 1.065.424.695.258 1.283.513 1.767.763.485.249.884.532 1.199.847.315.315.545.674.69 1.076.145.405.218.89.218 1.453 0 1.21-.449 2.126-1.342 2.748-.897.621-2.177.932-3.839.932-1.112 0-2.008-.093-2.686-.28-.678-.186-1.154-.333-1.428-.448l.508-2.444c.436.178.957.348 1.562.508.605.162 1.295.243 2.069.243M278.562 13.586c.371-.387.768-.802 1.187-1.247a93.134 93.134 0 0 0 2.384-2.612c.364-.412.674-.771.933-1.078h3.46c-.808.904-1.659 1.84-2.553 2.808-.896.967-1.796 1.913-2.698 2.832.482.403.992.892 1.523 1.465.533.57 1.049 1.18 1.55 1.827.5.645.968 1.291 1.404 1.936.436.646.798 1.243 1.088 1.79h-3.388c-.29-.499-.626-1.023-1.004-1.572a21.043 21.043 0 0 0-1.222-1.598 26.33 26.33 0 0 0-1.331-1.465c-.452-.459-.895-.85-1.333-1.173v5.808h-2.927V5.018l2.927-.483v9.051zM293.28 19.008c.902 0 1.588-.048 2.056-.145v-3.244a6.534 6.534 0 0 0-1.718-.216c-.323 0-.65.023-.98.072-.33.048-.63.137-.894.266a1.62 1.62 0 0 0-.642.544c-.162.235-.243.53-.243.884 0 .694.218 1.174.655 1.44.434.265 1.023.4 1.765.4m-.241-10.917c.967 0 1.783.122 2.444.364.661.241 1.191.581 1.586 1.016.394.436.677.964.846 1.586.171.62.255 1.303.255 2.045v7.672c-.452.097-1.134.215-2.045.35-.913.138-1.942.207-3.086.207a9.418 9.418 0 0 1-2.082-.217c-.629-.147-1.165-.38-1.61-.703a3.308 3.308 0 0 1-1.04-1.258c-.25-.517-.376-1.154-.376-1.912 0-.726.141-1.339.423-1.84.284-.5.667-.906 1.151-1.222a4.973 4.973 0 0 1 1.682-.677 9.402 9.402 0 0 1 3.014-.147 9.64 9.64 0 0 1 1.136.206v-.483c0-.34-.04-.662-.12-.969a1.941 1.941 0 0 0-1.222-1.355c-.33-.129-.746-.194-1.246-.194-.678 0-1.299.049-1.864.145-.567.098-1.025.21-1.38.34l-.364-2.374c.371-.126.913-.256 1.623-.386a12.64 12.64 0 0 1 2.275-.194"/>
    </g>
</svg>
