<svg width="130" height="49" viewBox="0 0 130 49" fill="none" xmlns="http://www.w3.org/2000/svg">
<g clip-path="url(#clip0)">
<path d="M36.1335 16.8103L28.5781 14.2888V3.36203L36.1428 5.60341L36.1335 16.8103Z" fill="#F68D11"/>
<path d="M38.1016 5.60341L45.6662 3.36203L45.6399 14.2812L38.1016 16.8103V5.60341Z" fill="#F68D11"/>
<path d="M44.1258 2.17897L37.0755 6.62804e-05L30.1172 2.17897L37.0856 4.04688L44.1258 2.17897Z" fill="#F68D11"/>
<path d="M55.1843 16.8103L47.6289 14.2888V3.36203L55.1936 5.60341L55.1843 16.8103Z" fill="#F68D11"/>
<path d="M57.1562 5.60341L64.7209 3.36203L64.6946 14.2812L57.1562 16.8103V5.60341Z" fill="#F68D11"/>
<path d="M63.1805 2.17897L56.1302 6.62804e-05L49.1719 2.17897L56.1403 4.04688L63.1805 2.17897Z" fill="#F68D11"/>
<path d="M7.56466 21.5734L0 19.332V30.2587L7.55547 32.7803L7.56466 21.5734Z" fill="#F68D11"/>
<path d="M9.52734 21.5734L17.092 19.332L17.0657 30.2514L9.52734 32.7803V21.5734Z" fill="#F68D11"/>
<path d="M15.5477 18.1487L8.4974 15.9698L1.53906 18.1487L8.50759 20.0166L15.5477 18.1487Z" fill="#F68D11"/>
<path d="M26.6062 32.7803L19.0508 30.2587V19.332L26.6154 21.5734L26.6062 32.7803Z" fill="#F68D11"/>
<path d="M28.5781 21.5734L36.1428 19.332L36.1164 30.2514L28.5781 32.7803V21.5734Z" fill="#F68D11"/>
<path d="M34.6024 18.1487L27.5521 15.9698L20.5938 18.1487L27.5623 20.0166L34.6024 18.1487Z" fill="#F68D11"/>
<path d="M17.0828 48.75L9.52734 46.2284V35.3017L17.092 37.5431L17.0828 48.75Z" fill="#F68D11"/>
<path d="M19.0508 37.5431L26.6154 35.3017L26.5892 46.2211L19.0508 48.75V37.5431Z" fill="#F68D11"/>
<path d="M25.075 34.1186L18.0247 31.9397L11.0664 34.1186L18.0349 35.9866L25.075 34.1186Z" fill="#F68D11"/>
<path d="M50.5399 39.0912L49.984 39.0931C49.78 39.0931 49.52 39.2309 49.4562 39.4543L47.7698 45.3954L46.1019 39.4672C46.0518 39.2814 45.8767 39.0931 45.6385 39.0931H44.9804C44.7434 39.0931 44.5705 39.2839 44.5226 39.471L42.971 45.3376L41.3679 39.4529C41.3045 39.2377 41.0381 39.0931 40.8291 39.0931L40.0292 39.0917C39.8583 39.0917 39.6994 39.1652 39.6143 39.2833C39.5565 39.3635 39.5406 39.4543 39.5672 39.5333L42.0439 48.3015C42.0985 48.4859 42.2582 48.6716 42.4919 48.6716H43.2873C43.5022 48.6716 43.6905 48.515 43.7448 48.2929L45.2693 42.4521L46.9282 48.2995C46.978 48.4786 47.1386 48.6716 47.3734 48.6716H48.1559C48.3736 48.6716 48.5568 48.5204 48.6106 48.2988L50.9946 39.5369C51.0226 39.4525 51.0064 39.3588 50.9495 39.2797C50.8657 39.1634 50.7088 39.0912 50.5399 39.0912Z" fill="#100F0D"/>
<path d="M57.4189 42.8138H53.2168C53.3135 41.6346 54.0792 40.4119 55.3764 40.3648C56.7568 40.4099 57.3883 41.6046 57.4189 42.8138ZM55.3733 39.0284C52.5349 39.0284 51.2422 41.5378 51.2422 43.8692C51.2422 46.7788 52.8493 48.6587 55.3363 48.6587C57.1163 48.6587 58.4732 47.7594 59.0593 46.1881C59.0907 46.0983 59.0808 46.0008 59.0318 45.9133C58.9721 45.8072 58.859 45.7271 58.725 45.6976L57.9372 45.5469C57.7257 45.5137 57.4833 45.6391 57.4032 45.8208C57.0205 46.6939 56.3228 47.1892 55.4473 47.215C54.6048 47.189 53.8313 46.6885 53.4768 45.9408C53.1888 45.33 53.1462 44.7279 53.1415 44.1157L58.8461 44.1138C58.9657 44.1138 59.0895 44.0611 59.1769 43.9726C59.2501 43.8991 59.2899 43.8079 59.289 43.7165C59.275 41.4499 58.2392 39.0284 55.3733 39.0284Z" fill="#100F0D"/>
<path d="M66.3047 43.883C66.3047 44.4198 66.2075 47.1003 64.3032 47.1689C63.6649 47.1445 63.02 46.7693 62.6597 46.2146C62.3944 45.7952 62.2394 45.2152 62.1996 44.4977V42.9206C62.2307 41.7125 63.0811 40.3867 64.297 40.3354C66.2078 40.4108 66.3047 43.3036 66.3047 43.883ZM64.6018 38.9469H64.4508C63.5086 38.9469 62.7681 39.3383 62.1996 40.1405L62.1988 36.4442C62.1988 36.2366 61.9845 36.0475 61.7477 36.0475H60.9274C60.713 36.0475 60.4732 36.2172 60.4727 36.4442V47.9828C60.4735 48.1924 60.6878 48.3828 60.9243 48.3828L61.1652 48.3815C61.3927 48.3815 61.5547 48.1982 61.6093 48.0279L61.866 47.2134C62.4622 48.0601 63.3601 48.5574 64.3211 48.5574H64.4682C66.9996 48.5574 68.1326 46.0952 68.1326 43.6552C68.1326 42.4407 67.8331 41.2793 67.3111 40.4691C66.7079 39.5302 65.6696 38.9469 64.6018 38.9469Z" fill="#100F0D"/>
<path d="M77.1159 43.6235C76.5825 43.2402 75.9412 43.1122 75.2987 42.9839L74.0668 42.7555C73.1829 42.6101 72.6713 42.3731 72.6713 41.5931C72.6713 40.7685 73.5258 40.4533 74.2503 40.4338C75.1351 40.4561 75.8005 40.8509 76.1236 41.5452C76.2003 41.7088 76.3704 41.8189 76.5472 41.8189C76.5774 41.8189 76.6083 41.8155 76.6374 41.8091L77.4062 41.6393C77.5317 41.6116 77.6488 41.5256 77.7116 41.4137C77.7617 41.3249 77.7727 41.228 77.7427 41.1414C77.2723 39.7711 76.0779 39.0469 74.2711 39.0469C72.6385 39.0505 70.8939 39.7765 70.8939 41.804C70.8939 43.1897 71.7647 44.0698 73.4838 44.42L74.8628 44.6827C75.6198 44.8277 76.3939 45.0854 76.3939 45.8982C76.3939 47.1015 74.9936 47.2242 74.5703 47.233C73.6205 47.2125 72.5452 46.7889 72.2841 45.8917C72.2317 45.6945 71.9835 45.555 71.7658 45.6003L70.9617 45.7662C70.8406 45.7917 70.73 45.8704 70.6655 45.9767C70.6115 46.0652 70.596 46.1644 70.621 46.2549C71.0359 47.7434 72.4729 48.6411 74.465 48.6562L74.5092 48.6565C76.2883 48.6565 78.1893 47.8947 78.1893 45.7576C78.1893 44.8876 77.7979 44.1098 77.1159 43.6235Z" fill="#100F0D"/>
<path d="M85.2487 42.8224H81.0455C81.1416 41.642 81.9073 40.4188 83.2045 40.3739C84.5844 40.4177 85.2167 41.6123 85.2487 42.8224ZM83.2023 39.0364C80.3633 39.0364 79.0703 41.5459 79.0703 43.8772C79.0703 46.7866 80.6777 48.6663 83.165 48.6663C84.9452 48.6663 86.3021 47.7669 86.8888 46.1959C86.9199 46.106 86.9101 46.0082 86.8608 45.9206C86.8011 45.8143 86.6876 45.7342 86.554 45.7053L85.765 45.5546C85.5804 45.5246 85.3229 45.6201 85.2321 45.8288C84.8491 46.7013 84.1512 47.1967 83.2765 47.2236C82.4332 47.1967 81.6599 46.6963 81.3069 45.9488C81.0184 45.3394 80.9755 44.7368 80.9713 44.1232L86.6753 44.1218C86.7941 44.1218 86.9171 44.0695 87.0045 43.9815C87.0779 43.9077 87.1177 43.8164 87.1169 43.7245C87.1037 41.4582 86.0687 39.0364 83.2023 39.0364Z" fill="#100F0D"/>
<path d="M92.5047 39.1431C92.3935 39.1309 92.2865 39.125 92.1826 39.125C91.2252 39.125 90.4477 39.6455 89.9081 40.6399L89.9101 39.769C89.9092 39.5582 89.6988 39.3729 89.4598 39.3729H88.7474C88.5137 39.3729 88.3075 39.5589 88.3058 39.7724L88.3047 48.2317C88.3047 48.444 88.5109 48.6304 88.7462 48.6304L89.5775 48.63C89.7938 48.63 90.0373 48.4603 90.0392 48.2317L90.0398 43.9669C90.0398 43.2637 90.1054 42.7338 90.4413 42.107C90.9212 41.2142 91.5914 40.7762 92.4902 40.7692C92.7154 40.7676 92.9132 40.5709 92.9132 40.3482V39.5569C92.9132 39.3499 92.7337 39.1681 92.5047 39.1431Z" fill="#100F0D"/>
<path d="M101.23 38.9771L100.574 38.9774C100.368 38.9774 100.104 39.1251 100.041 39.3416L97.9127 46.0296L95.7396 39.3483C95.6755 39.1265 95.4113 38.9774 95.2045 38.9774L94.2671 38.9765C94.095 38.9765 93.9286 39.0533 93.8434 39.1718C93.7863 39.2511 93.7706 39.3411 93.7989 39.425L96.7729 48.2474C96.8301 48.422 96.9817 48.626 97.2215 48.626H98.3559C98.5641 48.626 98.7347 48.4842 98.8129 48.2466L101.698 39.4279C101.726 39.3442 101.711 39.2539 101.654 39.1743C101.568 39.0547 101.402 38.9771 101.23 38.9771Z" fill="#100F0D"/>
<path d="M103.389 35.5859C102.785 35.5859 102.293 36.0789 102.293 36.6856C102.293 37.2921 102.785 37.7849 103.389 37.7849C103.994 37.7849 104.486 37.2921 104.486 36.6856C104.486 36.0789 103.994 35.5859 103.389 35.5859Z" fill="#100F0D"/>
<path d="M103.841 38.9234L102.941 38.9225C102.696 38.9225 102.473 39.1206 102.473 39.3377L102.469 48.3197C102.469 48.4284 102.525 48.5363 102.622 48.6164C102.711 48.6892 102.824 48.7312 102.938 48.7312L103.845 48.7327H103.845C104.094 48.7305 104.312 48.5377 104.312 48.3203V39.3377C104.312 39.117 104.092 38.9234 103.841 38.9234Z" fill="#100F0D"/>
<path d="M112.253 45.0143L111.502 45.0171C111.292 45.0171 111.116 45.1432 111.038 45.3622C110.763 46.5468 110.141 47.1607 109.198 47.1878C107.361 47.1332 107.219 44.573 107.219 43.7896C107.219 42.2274 107.76 40.5416 109.27 40.4971C110.182 40.5251 110.845 41.1788 111.044 42.244C111.081 42.4613 111.248 42.6258 111.476 42.6544L112.281 42.6623C112.521 42.6362 112.71 42.4543 112.708 42.2288C112.423 40.3038 111.089 39.0595 109.307 39.0595L109.245 39.0612L109.175 39.0595C106.583 39.0595 105.422 41.4793 105.422 43.8773C105.422 46.0759 106.401 48.6431 109.161 48.6431H109.293C111.031 48.6431 112.343 47.4246 112.719 45.4491C112.727 45.355 112.695 45.2609 112.628 45.1843C112.542 45.0852 112.404 45.0216 112.253 45.0143Z" fill="#100F0D"/>
<path d="M119.678 42.8224H115.474C115.57 41.6417 116.336 40.4188 117.634 40.3739C119.014 40.4177 119.646 41.6123 119.678 42.8224ZM117.631 39.0364C114.793 39.0364 113.5 41.5459 113.5 43.8772C113.5 46.7866 115.107 48.6663 117.595 48.6663C119.374 48.6663 120.73 47.7674 121.318 46.1963C121.348 46.1057 121.338 46.0077 121.289 45.9206C121.229 45.8135 121.118 45.7353 120.983 45.7053L120.195 45.5546C120.009 45.5246 119.753 45.6201 119.662 45.8288C119.278 46.7013 118.58 47.1967 117.705 47.2239C116.862 47.1967 116.089 46.6963 115.736 45.9488C115.447 45.3385 115.404 44.736 115.4 44.1232L121.104 44.1223C121.224 44.1223 121.348 44.0695 121.436 43.9806C121.509 43.9064 121.548 43.815 121.547 43.7245C121.533 41.4582 120.498 39.0364 117.631 39.0364Z" fill="#100F0D"/>
<path d="M128.69 43.6235C128.156 43.2399 127.514 43.1119 126.873 42.9839L125.641 42.7555C124.758 42.6101 124.246 42.3731 124.246 41.5931C124.246 40.5295 125.566 40.4407 125.824 40.4338C126.709 40.4561 127.375 40.8509 127.697 41.5455C127.774 41.7091 127.945 41.8189 128.122 41.8189C128.153 41.8189 128.183 41.8155 128.213 41.8091L128.981 41.6393C129.107 41.6116 129.224 41.5252 129.286 41.4135C129.336 41.3246 129.347 41.228 129.317 41.1414C128.847 39.7711 127.653 39.0469 125.845 39.0469C124.213 39.0505 122.469 39.7765 122.469 41.804C122.469 43.1901 123.339 44.0701 125.058 44.42L126.438 44.6827C127.195 44.8277 127.969 45.0854 127.969 45.8982C127.969 47.1015 126.569 47.2242 126.145 47.233C125.265 47.2142 124.138 46.8505 123.859 45.8929C123.808 45.6945 123.56 45.5552 123.339 45.6003L122.536 45.7662C122.414 45.7921 122.304 45.8713 122.239 45.9778C122.186 46.0665 122.17 46.1649 122.195 46.2549C122.609 47.7434 124.046 48.6411 126.038 48.6562L126.083 48.6565C127.862 48.6565 129.763 47.8947 129.763 45.7576C129.763 44.8871 129.372 44.1091 128.69 43.6235Z" fill="#100F0D"/>
<path fill-rule="evenodd" clip-rule="evenodd" d="M92.0953 21.6297V19.5901C92.0965 19.2808 92.3312 19.0732 92.6131 19.0735L101.751 19.0732C102.043 19.0732 102.278 19.2858 102.278 19.5878V21.337C102.275 21.6297 102.028 22.0126 101.59 22.6205L96.8566 29.3785C98.6127 29.3368 100.472 29.5998 102.068 30.497C102.428 30.6992 102.524 30.9993 102.554 31.2923V33.4687C102.554 33.7687 102.225 34.1156 101.881 33.9349C99.068 32.4612 95.3353 32.3004 92.2245 33.9519C91.9071 34.1215 91.5742 33.78 91.5742 33.4799V31.4119C91.5742 31.0819 91.5809 30.5151 91.9141 30.0103L97.3984 22.1436L92.624 22.1425C92.3318 22.1425 92.0981 21.9345 92.0953 21.6297Z" fill="#100F0D"/>
<path fill-rule="evenodd" clip-rule="evenodd" d="M58.7657 34.3643H55.985C55.7208 34.347 55.5093 34.1477 55.4883 33.8935L55.4902 19.625C55.4902 19.3395 55.7306 19.1114 56.0265 19.1114L58.6156 19.11C58.8868 19.1251 59.1036 19.3297 59.1221 19.5891V21.4535H59.1737C59.8478 19.651 61.1195 18.8116 62.8319 18.8116C64.5704 18.8116 65.6605 19.651 66.4391 21.4535C67.1143 19.651 68.6449 18.8116 70.2811 18.8116C71.4489 18.8116 72.7189 19.2913 73.4975 20.3716C74.3797 21.5733 74.1979 23.3136 74.1979 24.8456L74.1962 33.8502C74.1962 34.1349 73.9561 34.3643 73.6605 34.3643H70.884C70.6044 34.347 70.3845 34.1239 70.3845 33.8515V26.2866C70.3845 25.6865 70.4358 24.1846 70.3063 23.6146C70.0982 22.6529 69.475 22.3843 68.6718 22.3843C67.9963 22.3843 67.2953 22.8346 67.0098 23.5537C66.7246 24.2754 66.7509 25.4763 66.7509 26.2866V33.8502C66.7509 34.1349 66.5108 34.3643 66.2147 34.3643H63.4376C63.1594 34.347 62.9389 34.1239 62.9389 33.8515L62.9353 26.2866C62.9353 24.6951 63.1955 22.3542 61.2237 22.3542C59.2255 22.3542 59.3034 24.6355 59.3034 26.2866L59.3017 33.8502C59.3028 34.1349 59.0624 34.3643 58.7657 34.3643Z" fill="#100F0D"/>
<path fill-rule="evenodd" clip-rule="evenodd" d="M110.171 21.7231C108.12 21.7231 107.991 24.5152 107.991 26.2573C107.991 27.9984 107.965 31.7212 110.146 31.7212C112.3 31.7212 112.403 28.7186 112.403 26.8873C112.403 25.6865 112.352 24.2457 111.989 23.1047C111.676 22.1134 111.054 21.7231 110.171 21.7231ZM110.146 18.8117C114.272 18.8117 116.504 22.3542 116.504 26.8563C116.504 31.2109 114.037 34.6641 110.146 34.6641C106.097 34.6641 103.891 31.1206 103.891 26.7069C103.891 22.2634 106.122 18.8117 110.146 18.8117Z" fill="#100F0D"/>
<path fill-rule="evenodd" clip-rule="evenodd" d="M121.855 34.3643H119.085C118.806 34.347 118.586 34.1239 118.586 33.8515L118.582 19.5765C118.605 19.3165 118.836 19.1114 119.115 19.1114L121.694 19.11C121.938 19.1235 122.137 19.2888 122.188 19.5098V21.6931H122.241C123.018 19.7412 124.109 18.8116 126.028 18.8116C127.274 18.8116 128.495 19.2608 129.273 20.4921C129.999 21.6326 129.999 23.5537 129.999 24.935V33.9143C129.968 34.1674 129.742 34.3643 129.468 34.3643H126.68C126.422 34.3475 126.216 34.1575 126.185 33.9143V26.1666C126.185 24.6054 126.367 22.323 124.445 22.323C123.771 22.323 123.149 22.7744 122.837 23.4641C122.448 24.3345 122.396 25.2051 122.396 26.1666V33.8502C122.391 34.1349 122.151 34.3643 121.855 34.3643Z" fill="#100F0D"/>
<path fill-rule="evenodd" clip-rule="evenodd" d="M87.6151 34.3281C87.4307 34.4926 87.1668 34.5035 86.9589 34.3928C86.0357 33.6253 85.8699 33.2695 85.3653 32.5397C83.8392 34.0941 82.7586 34.5603 80.7825 34.5603C78.4411 34.5603 76.6211 33.1158 76.6211 30.2272C76.6211 27.971 77.8429 26.4363 79.5853 25.6835C81.0938 25.0214 83.2007 24.9008 84.8128 24.7197V24.3591C84.8128 23.6975 84.8646 22.9148 84.474 22.3434C84.137 21.8318 83.4867 21.6217 82.9138 21.6217C81.8533 21.6217 80.9111 22.1653 80.6791 23.2915C80.632 23.5415 80.4482 23.79 80.1964 23.802L77.5025 23.5101C77.2745 23.4589 77.022 23.277 77.0879 22.9298C77.707 19.6602 80.6589 18.6723 83.3046 18.6723C84.6562 18.6723 86.4254 19.0332 87.4918 20.0561C88.8436 21.3204 88.7133 23.0053 88.7133 24.841V29.172C88.7133 30.4748 89.2549 31.0467 89.764 31.7488C89.9402 32.0021 89.98 32.3022 89.7536 32.4879C89.186 32.9637 88.1771 33.8392 87.6226 34.3342L87.6151 34.3281ZM84.8128 27.549C84.8128 28.6325 84.8386 29.536 84.2922 30.4981C83.8501 31.2812 83.1474 31.7622 82.3671 31.7622C81.3019 31.7622 80.678 30.95 80.678 29.7458C80.678 27.3786 82.8023 26.9476 84.8128 26.9476V27.549Z" fill="#100F0D"/>
<path fill-rule="evenodd" clip-rule="evenodd" d="M51.1717 34.3281C50.9879 34.4926 50.722 34.5035 50.5141 34.3928C49.591 33.6253 49.4257 33.2695 48.9205 32.5397C47.3953 34.0941 46.3141 34.5603 44.3369 34.5603C41.9963 34.5603 40.1758 33.1158 40.1758 30.2272C40.1758 27.971 41.3987 26.4363 43.1411 25.6835C44.6499 25.0214 46.7565 24.9008 48.3686 24.7197V24.3591C48.3686 23.6975 48.421 22.9148 48.0304 22.3434C47.6925 21.8318 47.0417 21.6217 46.4704 21.6217C45.41 21.6217 44.4666 22.1653 44.2355 23.2915C44.1873 23.5415 44.0043 23.79 43.7527 23.802L41.0578 23.5101C40.8303 23.4589 40.5775 23.277 40.6428 22.9298C41.262 19.6602 44.2142 18.6723 46.8596 18.6723C48.2128 18.6723 49.9807 19.0332 51.0473 20.0561C52.3997 21.3204 52.2691 23.0053 52.2691 24.841V29.172C52.2691 30.4748 52.811 31.0467 53.3187 31.7488C53.4957 32.0021 53.5358 32.3022 53.31 32.4879C52.7418 32.9637 51.7323 33.8392 51.1782 34.3342L51.1717 34.3281ZM48.3686 27.549C48.3686 28.6325 48.3941 29.536 47.8489 30.4981C47.407 31.2812 46.7038 31.7622 45.9246 31.7622C44.8572 31.7622 44.2335 30.95 44.2335 29.7458C44.2335 27.3786 46.3572 26.9476 48.3686 26.9476V27.549Z" fill="#100F0D"/>
</g>
<defs>
<clipPath id="clip0">
<rect width="130" height="48.75" fill="white"/>
</clipPath>
</defs>
</svg>
