<svg width="110" height="42" viewBox="0 0 110 42" fill="none" xmlns="http://www.w3.org/2000/svg">
<g clip-path="url(#clip0)">
<path d="M30.5727 14.2241L24.1797 12.0905V2.84483L30.5805 4.74138L30.5727 14.2241Z" fill="#F68D11"/>
<path d="M32.2422 4.74138L38.643 2.84483L38.6208 12.0841L32.2422 14.2241V4.74138Z" fill="#F68D11"/>
<path d="M37.3378 1.84368L31.3722 -9.29832e-06L25.4844 1.84368L31.3808 3.42421L37.3378 1.84368Z" fill="#F68D11"/>
<path d="M46.6938 14.2241L40.3008 12.0905V2.84483L46.7016 4.74138L46.6938 14.2241Z" fill="#F68D11"/>
<path d="M48.3633 4.74138L54.7641 2.84483L54.7419 12.0841L48.3633 14.2241V4.74138Z" fill="#F68D11"/>
<path d="M53.4589 1.84368L47.4933 -9.29832e-06L41.6055 1.84368L47.5018 3.42421L53.4589 1.84368Z" fill="#F68D11"/>
<path d="M6.40086 18.2543L0 16.3578V25.6034L6.39309 27.7371L6.40086 18.2543Z" fill="#F68D11"/>
<path d="M8.05859 18.2543L14.4595 16.3578L14.4372 25.5972L8.05859 27.7371V18.2543Z" fill="#F68D11"/>
<path d="M13.1581 15.3566L7.19251 13.5129L1.30469 15.3566L7.20114 16.9371L13.1581 15.3566Z" fill="#F68D11"/>
<path d="M22.5142 27.7371L16.1211 25.6034V16.3578L22.522 18.2543L22.5142 27.7371Z" fill="#F68D11"/>
<path d="M24.1797 18.2543L30.5805 16.3578L30.5583 25.5972L24.1797 27.7371V18.2543Z" fill="#F68D11"/>
<path d="M29.2792 15.3566L23.3136 13.5129L17.4258 15.3566L23.3222 16.9371L29.2792 15.3566Z" fill="#F68D11"/>
<path d="M14.4517 41.25L8.05859 39.1164V29.8707L14.4595 31.7672L14.4517 41.25Z" fill="#F68D11"/>
<path d="M16.1211 31.7672L22.522 29.8707L22.4997 39.1102L16.1211 41.25V31.7672Z" fill="#F68D11"/>
<path d="M21.2167 28.8696L15.2511 27.0259L9.36328 28.8696L15.2597 30.4501L21.2167 28.8696Z" fill="#F68D11"/>
<path d="M42.7639 33.077L42.2936 33.0787C42.121 33.0787 41.901 33.1953 41.8469 33.3843L40.42 38.4114L39.0087 33.3952C38.9663 33.238 38.8181 33.0787 38.6166 33.0787H38.0597C37.8592 33.0787 37.7129 33.2401 37.6724 33.3985L36.3595 38.3625L35.003 33.3831C34.9494 33.201 34.7239 33.0787 34.5471 33.0787L33.8703 33.0775C33.7256 33.0775 33.5912 33.1397 33.5192 33.2397C33.4703 33.3075 33.4568 33.3843 33.4793 33.4512L35.575 40.8704C35.6212 41.0265 35.7564 41.1836 35.9541 41.1836H36.6271C36.809 41.1836 36.9683 41.0511 37.0143 40.8631L38.3042 35.9209L39.7078 40.8687C39.75 41.0202 39.8859 41.1836 40.0845 41.1836H40.7467C40.9309 41.1836 41.0859 41.0556 41.1314 40.8681L43.1487 33.4542C43.1724 33.3828 43.1586 33.3035 43.1105 33.2366C43.0396 33.1382 42.9069 33.077 42.7639 33.077Z" fill="white"/>
<path d="M48.5858 36.227H45.0302C45.112 35.2292 45.7599 34.1946 46.8576 34.1548C48.0256 34.1929 48.56 35.2038 48.5858 36.227ZM46.855 33.024C44.4532 33.024 43.3594 35.1473 43.3594 37.12C43.3594 39.582 44.7192 41.1727 46.8237 41.1727C48.3298 41.1727 49.4779 40.4117 49.9738 39.0822C50.0004 39.0062 49.9921 38.9237 49.9506 38.8497C49.9001 38.7598 49.8043 38.6921 49.691 38.6672L49.0244 38.5396C48.8454 38.5116 48.6403 38.6176 48.5725 38.7714C48.2487 39.5101 47.6584 39.9293 46.9175 39.9511C46.2047 39.9291 45.5501 39.5056 45.2502 38.8729C45.0065 38.3561 44.9705 37.8467 44.9665 37.3286L49.7934 37.327C49.8947 37.327 49.9994 37.2824 50.0734 37.2075C50.1353 37.1454 50.1689 37.0681 50.1682 36.9908C50.1564 35.073 49.2799 33.024 46.855 33.024Z" fill="white"/>
<path d="M56.1067 37.1319C56.1067 37.5861 56.0244 39.8542 54.4131 39.9122C53.873 39.8916 53.3273 39.5741 53.0224 39.1048C52.7979 38.7498 52.6668 38.2591 52.6332 37.652V36.3176C52.6595 35.2953 53.379 34.1735 54.4079 34.1301C56.0247 34.1939 56.1067 36.6416 56.1067 37.1319ZM54.6658 32.9552H54.538C53.7408 32.9552 53.1142 33.2863 52.6332 33.9651L52.6325 30.8375C52.6325 30.6618 52.4511 30.5018 52.2508 30.5018H51.5566C51.3753 30.5018 51.1723 30.6454 51.1719 30.8375V40.6009C51.1726 40.7783 51.3539 40.9394 51.554 40.9394L51.7579 40.9383C51.9504 40.9383 52.0874 40.7832 52.1337 40.6391L52.3508 39.9499C52.8553 40.6663 53.6151 41.0871 54.4283 41.0871H54.5527C56.6946 41.0871 57.6533 39.0038 57.6533 36.9391C57.6533 35.9114 57.3999 34.9288 56.9583 34.2432C56.4478 33.4488 55.5693 32.9552 54.6658 32.9552Z" fill="white"/>
<path d="M65.2517 36.9121C64.8003 36.5878 64.2576 36.4795 63.714 36.3709L62.6716 36.1776C61.9237 36.0547 61.4908 35.8541 61.4908 35.1941C61.4908 34.4964 62.2138 34.2297 62.8269 34.2131C63.5756 34.232 64.1386 34.5661 64.412 35.1535C64.4769 35.292 64.6208 35.3851 64.7704 35.3851C64.796 35.3851 64.8221 35.3823 64.8467 35.3769L65.4973 35.2332C65.6035 35.2097 65.7026 35.137 65.7557 35.0423C65.7981 34.9672 65.8073 34.8852 65.782 34.8119C65.3839 33.6524 64.3733 33.0396 62.8445 33.0396C61.4631 33.0427 59.9868 33.6569 59.9868 35.3725C59.9868 36.5451 60.7236 37.2897 62.1783 37.5861L63.3451 37.8084C63.9857 37.931 64.6407 38.1491 64.6407 38.8369C64.6407 39.8551 63.4559 39.9589 63.0976 39.9663C62.294 39.949 61.3841 39.5905 61.1632 38.8314C61.1188 38.6645 60.9088 38.5465 60.7246 38.5848L60.0442 38.7252C59.9418 38.7468 59.8481 38.8134 59.7936 38.9033C59.7479 38.9782 59.7348 39.0621 59.7559 39.1387C60.107 40.3982 61.3229 41.1578 63.0085 41.1705L63.046 41.1708C64.5513 41.1708 66.1599 40.5262 66.1599 38.7179C66.1599 37.9818 65.8287 37.3236 65.2517 36.9121Z" fill="white"/>
<path d="M72.1341 36.2343H68.5776C68.6589 35.2356 69.3068 34.2005 70.4044 34.1626C71.572 34.1996 72.1071 35.2104 72.1341 36.2343ZM70.4025 33.0308C68.0003 33.0308 66.9062 35.1543 66.9062 37.1268C66.9062 39.5887 68.2663 41.1792 70.371 41.1792C71.8773 41.1792 73.0255 40.4181 73.5219 39.0889C73.5482 39.0128 73.5399 38.9301 73.4982 38.8559C73.4477 38.766 73.3517 38.6982 73.2386 38.6737L72.571 38.5462C72.4148 38.5208 72.1969 38.6017 72.1201 38.7783C71.796 39.5165 71.2055 39.9357 70.4654 39.9584C69.7518 39.9357 69.0975 39.5123 68.7988 38.8798C68.5546 38.3642 68.5183 37.8543 68.5148 37.335L73.3412 37.3338C73.4418 37.3338 73.5458 37.2895 73.6198 37.2151C73.6819 37.1527 73.7156 37.0754 73.7149 36.9977C73.7037 35.08 72.828 33.0308 70.4025 33.0308Z" fill="white"/>
<path d="M78.2726 33.1211C78.1785 33.1108 78.088 33.1058 78 33.1058C77.19 33.1058 76.5321 33.5462 76.0755 34.3876L76.0772 33.6507C76.0764 33.4723 75.8984 33.3155 75.6962 33.3155H75.0933C74.8956 33.3155 74.7211 33.4729 74.7197 33.6536L74.7188 40.8114C74.7188 40.9911 74.8932 41.1488 75.0924 41.1488L75.7958 41.1485C75.9788 41.1485 76.1848 41.0049 76.1864 40.8114L76.1869 37.2028C76.1869 36.6077 76.2424 36.1594 76.5266 35.629C76.9327 34.8736 77.4998 34.503 78.2603 34.497C78.4509 34.4957 78.6183 34.3292 78.6183 34.1408V33.4713C78.6183 33.2961 78.4663 33.1422 78.2726 33.1211Z" fill="white"/>
<path d="M85.659 32.9806L85.1036 32.9808C84.9296 32.9808 84.7065 33.1058 84.6524 33.289L82.8519 38.948L81.0132 33.2947C80.9589 33.107 80.7353 32.9808 80.5604 32.9808L79.7671 32.9801C79.6216 32.9801 79.4808 33.045 79.4087 33.1453C79.3603 33.2124 79.3471 33.2886 79.371 33.3596L81.8875 40.8247C81.9359 40.9724 82.0641 41.145 82.267 41.145H83.2269C83.4031 41.145 83.5474 41.0251 83.6136 40.824L86.0544 33.362C86.0789 33.2911 86.0658 33.2148 86.0177 33.1474C85.9452 33.0462 85.8046 32.9806 85.659 32.9806Z" fill="white"/>
<path d="M87.4823 30.1111C86.9707 30.1111 86.5547 30.5283 86.5547 31.0416C86.5547 31.5548 86.9707 31.9718 87.4823 31.9718C87.9942 31.9718 88.4107 31.5548 88.4107 31.0416C88.4107 30.5283 87.9942 30.1111 87.4823 30.1111Z" fill="white"/>
<path d="M87.8645 32.9351L87.1028 32.9343C86.8956 32.9343 86.7069 33.102 86.7069 33.2857L86.7031 40.8859C86.7031 40.9778 86.7505 41.0691 86.8326 41.1369C86.9077 41.1985 87.0037 41.2341 87.1002 41.2341L87.8674 41.2353H87.8678C88.0781 41.2334 88.2628 41.0703 88.2628 40.8863V33.2857C88.2628 33.0989 88.0765 32.9351 87.8645 32.9351Z" fill="white"/>
<path d="M94.9836 38.0889L94.3475 38.0913C94.17 38.0913 94.0211 38.198 93.9549 38.3833C93.7226 39.3857 93.1963 39.9051 92.3983 39.9281C90.8441 39.8819 90.7235 37.7155 90.7235 37.0527C90.7235 35.7308 91.1812 34.3044 92.4593 34.2667C93.2307 34.2904 93.7918 34.8435 93.9601 35.7448C93.9919 35.9287 94.1332 36.0679 94.3262 36.0921L95.0068 36.0988C95.2102 36.0767 95.3698 35.9228 95.3683 35.7319C95.1275 34.1031 93.9988 33.0503 92.4903 33.0503L92.4382 33.0517L92.3791 33.0503C90.1853 33.0503 89.2031 35.0978 89.2031 37.1268C89.2031 38.9872 90.0312 41.1594 92.3668 41.1594H92.4787C93.9495 41.1594 95.0597 40.1285 95.3776 38.4569C95.3847 38.3772 95.3572 38.2976 95.3008 38.2328C95.2278 38.1489 95.1114 38.0951 94.9836 38.0889Z" fill="white"/>
<path d="M101.266 36.2343H97.7094C97.7908 35.2353 98.4389 34.2005 99.5373 34.1626C100.705 34.1996 101.24 35.2104 101.266 36.2343ZM99.5349 33.0308C97.1329 33.0308 96.0391 35.1543 96.0391 37.1268C96.0391 39.5887 97.3991 41.1792 99.5038 41.1792C101.009 41.1792 102.157 40.4186 102.654 39.0892C102.68 39.0126 102.671 38.9296 102.63 38.8559C102.579 38.7653 102.485 38.6991 102.37 38.6737L101.704 38.5462C101.547 38.5208 101.33 38.6017 101.253 38.7783C100.928 39.5165 100.337 39.9357 99.5972 39.9587C98.8839 39.9357 98.2298 39.5123 97.9311 38.8798C97.6867 38.3634 97.6504 37.8535 97.6466 37.335L102.474 37.3343C102.575 37.3343 102.68 37.2895 102.754 37.2144C102.816 37.1516 102.849 37.0742 102.848 36.9977C102.837 35.08 101.961 33.0308 99.5349 33.0308Z" fill="white"/>
<path d="M108.892 36.9121C108.44 36.5875 107.897 36.4793 107.354 36.3709L106.312 36.1776C105.565 36.0547 105.132 35.8541 105.132 35.1941C105.132 34.2942 106.249 34.219 106.467 34.2131C107.216 34.232 107.779 34.5661 108.052 35.1538C108.117 35.2922 108.262 35.3851 108.412 35.3851C108.438 35.3851 108.463 35.3823 108.488 35.3769L109.139 35.2332C109.245 35.2097 109.344 35.1367 109.397 35.0421C109.439 34.9669 109.448 34.8852 109.423 34.8119C109.025 33.6524 108.014 33.0396 106.485 33.0396C105.104 33.0427 103.628 33.6569 103.628 35.3725C103.628 36.5454 104.365 37.29 105.819 37.5861L106.986 37.8084C107.627 37.931 108.282 38.1491 108.282 38.8369C108.282 39.8551 107.097 39.9589 106.739 39.9663C105.994 39.9504 105.04 39.6427 104.805 38.8324C104.762 38.6645 104.552 38.5467 104.364 38.5848L103.685 38.7252C103.582 38.7471 103.488 38.8141 103.434 38.9042C103.388 38.9793 103.375 39.0626 103.397 39.1387C103.747 40.3982 104.963 41.1578 106.648 41.1705L106.686 41.1708C108.191 41.1708 109.8 40.5262 109.8 38.7179C109.8 37.9813 109.469 37.323 108.892 36.9121Z" fill="white"/>
<path fill-rule="evenodd" clip-rule="evenodd" d="M77.9292 18.3022V16.5763C77.9302 16.3146 78.1288 16.1389 78.3673 16.1392L86.0993 16.1389C86.3461 16.1389 86.5453 16.3189 86.5453 16.5744V18.0545C86.5429 18.3022 86.3336 18.6261 85.9628 19.1405L81.958 24.8588C83.4439 24.8235 85.0171 25.0461 86.3675 25.8052C86.6726 25.9764 86.7536 26.2303 86.7785 26.4782V28.3197C86.7785 28.5737 86.5007 28.8671 86.2091 28.7142C83.8292 27.4673 80.6707 27.3312 78.0385 28.7287C77.7699 28.8721 77.4883 28.5832 77.4883 28.3293V26.5794C77.4883 26.3002 77.494 25.8206 77.7758 25.3934L82.4165 18.737L78.3766 18.736C78.1293 18.736 77.9316 18.5601 77.9292 18.3022Z" fill="white"/>
<path fill-rule="evenodd" clip-rule="evenodd" d="M49.7225 29.0774H47.3695C47.146 29.0628 46.967 28.8942 46.9492 28.6791L46.9509 16.6057C46.9509 16.3642 47.1543 16.1712 47.4046 16.1712L49.5954 16.17C49.8249 16.1828 50.0084 16.3559 50.024 16.5754V18.1529H50.0676C50.638 16.6278 51.7141 15.9175 53.163 15.9175C54.634 15.9175 55.5565 16.6278 56.2153 18.1529C56.7866 16.6278 58.0817 15.9175 59.4662 15.9175C60.4543 15.9175 61.529 16.3234 62.1878 17.2375C62.9343 18.2543 62.7804 19.7269 62.7804 21.0232L62.779 28.6425C62.779 28.8833 62.5759 29.0774 62.3258 29.0774H59.9764C59.7398 29.0628 59.5537 28.8741 59.5537 28.6436V22.2425C59.5537 21.7347 59.5971 20.4639 59.4876 19.9816C59.3114 19.1679 58.7842 18.9405 58.1045 18.9405C57.5329 18.9405 56.9398 19.3216 56.6982 19.93C56.4569 20.5407 56.4792 21.5569 56.4792 22.2425V28.6425C56.4792 28.8833 56.276 29.0774 56.0254 29.0774H53.6756C53.4402 29.0628 53.2536 28.8741 53.2536 28.6436L53.2505 22.2425C53.2505 20.8959 53.4707 18.915 51.8023 18.915C50.1115 18.915 50.1774 20.8454 50.1774 22.2425L50.176 28.6425C50.1769 28.8833 49.9735 29.0774 49.7225 29.0774Z" fill="white"/>
<path fill-rule="evenodd" clip-rule="evenodd" d="M93.2204 18.381C91.4848 18.381 91.3755 20.7435 91.3755 22.2176C91.3755 23.6909 91.3537 26.8409 93.1991 26.8409C95.0219 26.8409 95.1094 24.3003 95.1094 22.7508C95.1094 21.7347 95.066 20.5155 94.7585 19.55C94.4942 18.7113 93.9676 18.381 93.2204 18.381ZM93.1991 15.9175C96.6901 15.9175 98.5789 18.915 98.5789 22.7245C98.5789 26.4092 96.4919 29.3311 93.1991 29.3311C89.7732 29.3311 87.9062 26.3327 87.9062 22.5981C87.9062 18.8382 89.7943 15.9175 93.1991 15.9175Z" fill="white"/>
<path fill-rule="evenodd" clip-rule="evenodd" d="M103.109 29.0774H100.765C100.529 29.0628 100.343 28.8741 100.343 28.6436L100.34 16.5647C100.359 16.3447 100.555 16.1712 100.791 16.1712L102.973 16.17C103.179 16.1814 103.348 16.3213 103.391 16.5083V18.3557H103.436C104.094 16.7041 105.016 15.9175 106.641 15.9175C107.695 15.9175 108.728 16.2975 109.386 17.3395C110 18.3045 110 19.93 110 21.0989V28.6967C109.974 28.9108 109.783 29.0774 109.551 29.0774H107.192C106.974 29.0633 106.799 28.9025 106.773 28.6967V22.1409C106.773 20.8199 106.927 18.8887 105.301 18.8887C104.731 18.8887 104.204 19.2707 103.94 19.8542C103.611 20.5907 103.567 21.3274 103.567 22.1409V28.6425C103.563 28.8833 103.36 29.0774 103.109 29.0774Z" fill="white"/>
<path fill-rule="evenodd" clip-rule="evenodd" d="M74.1385 29.0469C73.9825 29.1861 73.7592 29.1953 73.5833 29.1016C72.8022 28.4523 72.6618 28.1512 72.2349 27.5336C70.9435 28.8489 70.0292 29.2434 68.3571 29.2434C66.3759 29.2434 64.8359 28.0211 64.8359 25.5769C64.8359 23.6678 65.8698 22.3692 67.3441 21.7323C68.6205 21.172 70.4033 21.07 71.7674 20.9167V20.6116C71.7674 20.0518 71.8112 19.3895 71.4807 18.906C71.1956 18.4731 70.6453 18.2953 70.1605 18.2953C69.2632 18.2953 68.4659 18.7553 68.2696 19.7082C68.2298 19.9198 68.0743 20.13 67.8612 20.1402L65.5818 19.8932C65.3888 19.8499 65.1752 19.696 65.2309 19.4022C65.7548 16.6356 68.2526 15.7997 70.4912 15.7997C71.6348 15.7997 73.1319 16.105 74.0342 16.9706C75.1781 18.0404 75.0678 19.466 75.0678 21.0193V24.6841C75.0678 25.7864 75.5261 26.2703 75.9568 26.8644C76.106 27.0787 76.1396 27.3327 75.9481 27.4898C75.4678 27.8924 74.6141 28.6332 74.1449 29.0521L74.1385 29.0469ZM71.7674 23.3107C71.7674 24.2275 71.7892 24.9921 71.3269 25.8062C70.9528 26.4688 70.3582 26.8758 69.698 26.8758C68.7966 26.8758 68.2687 26.1885 68.2687 25.1696C68.2687 23.1665 70.0662 22.8019 71.7674 22.8019V23.3107Z" fill="white"/>
<path fill-rule="evenodd" clip-rule="evenodd" d="M43.2964 29.0469C43.1409 29.1861 42.9159 29.1953 42.74 29.1016C41.9589 28.4523 41.819 28.1512 41.3916 27.5336C40.101 28.8489 39.1861 29.2434 37.5131 29.2434C35.5327 29.2434 33.9922 28.0211 33.9922 25.5769C33.9922 23.6678 35.027 22.3692 36.5013 21.7323C37.7779 21.172 39.5605 21.07 40.9246 20.9167V20.6116C40.9246 20.0518 40.9689 19.3895 40.6384 18.906C40.3525 18.4731 39.8018 18.2953 39.3184 18.2953C38.4211 18.2953 37.6229 18.7553 37.4273 19.7082C37.3865 19.9198 37.2317 20.13 37.0188 20.1402L34.7385 19.8932C34.546 19.8499 34.3321 19.696 34.3874 19.4022C34.9113 16.6356 37.4093 15.7997 39.6477 15.7997C40.7927 15.7997 42.2887 16.105 43.1912 16.9706C44.3355 18.0404 44.225 19.466 44.225 21.0193V24.6841C44.225 25.7864 44.6835 26.2703 45.1131 26.8644C45.2629 27.0787 45.2968 27.3327 45.1057 27.4898C44.625 27.8924 43.7708 28.6332 43.3019 29.0521L43.2964 29.0469ZM40.9246 23.3107C40.9246 24.2275 40.9461 24.9921 40.4848 25.8062C40.1109 26.4688 39.5159 26.8758 38.8566 26.8758C37.9534 26.8758 37.4257 26.1885 37.4257 25.1696C37.4257 23.1665 39.2226 22.8019 40.9246 22.8019V23.3107Z" fill="white"/>
</g>
<defs>
<clipPath id="clip0">
<rect width="110" height="41.25" fill="white"/>
</clipPath>
</defs>
</svg>
