<svg width="60" height="60" viewBox="0 0 60 60" fill="none" xmlns="http://www.w3.org/2000/svg">
<rect opacity="0.2" width="60" height="60" rx="16" fill="#FFB800"/>
<path d="M14.6727 37.3237C12.5663 34.4199 11.4062 30.8202 11.4062 27.1875C11.4062 22.5966 13.1941 18.2804 16.4404 15.0341C19.6866 11.7878 24.0028 10 28.5938 10C30.6946 10 32.7474 10.3752 34.6954 11.115C35.5021 11.4214 35.9077 12.3238 35.6013 13.1305C35.2949 13.9372 34.3926 14.3427 33.5859 14.0363C31.9937 13.4316 30.3141 13.125 28.5938 13.125C20.8397 13.125 14.5312 19.4334 14.5312 27.1875C14.5312 30.1662 15.4798 33.1144 17.2023 35.4888C17.709 36.1873 17.5535 37.1643 16.855 37.671C16.5779 37.872 16.2569 37.9689 15.9388 37.9689C15.4552 37.9689 14.9784 37.7452 14.6727 37.3237ZM40.4109 37.593C40.688 37.794 41.0088 37.8908 41.3269 37.8908C41.8105 37.8908 42.2874 37.667 42.5931 37.2455C44.6787 34.3692 45.7812 30.8913 45.7812 27.1875C45.7812 26.5861 45.7498 25.9795 45.6877 25.3847C45.5982 24.5264 44.8295 23.903 43.9715 23.9928C43.1132 24.0823 42.49 24.8508 42.5796 25.7091C42.6305 26.1966 42.6562 26.694 42.6562 27.1875C42.6562 30.228 41.7596 33.0716 40.0632 35.4109C39.5566 36.1095 39.7123 37.0864 40.4109 37.593ZM42.7597 43.018C43.5832 44.4856 43.5671 46.2289 42.7167 47.6812C41.8665 49.1331 40.3544 50 38.6719 50H18.5156C16.8348 50 15.3234 49.1345 14.4723 47.6846C13.622 46.2359 13.603 44.4955 14.4216 43.0294C14.7166 42.5008 15.0413 41.9626 15.3864 41.4298C16.0297 40.4366 17.1208 39.8438 18.305 39.8438H38.8751C40.051 39.8438 41.1379 40.4302 41.7823 41.4124C42.1327 41.9464 42.4615 42.4866 42.7597 43.018ZM40.0343 44.5472C39.7712 44.0784 39.4803 43.6005 39.1695 43.1267C39.1047 43.0279 38.9946 42.9688 38.8751 42.9688H18.305C18.1847 42.9688 18.0741 43.0287 18.0092 43.1288C17.7011 43.6045 17.412 44.0836 17.1501 44.5528C16.7573 45.2562 17.0313 45.8711 17.1673 46.1028C17.3037 46.3349 17.7079 46.875 18.5156 46.875H38.6719C39.4802 46.875 39.8839 46.3345 40.02 46.102C40.1562 45.8695 40.4301 45.2525 40.0343 44.5472ZM39.2188 25.1562C39.2188 26.0192 38.5192 26.7188 37.6562 26.7188H36.0938V28.2812C36.0938 29.1442 35.3942 29.8438 34.5312 29.8438C33.6683 29.8438 32.9688 29.1442 32.9688 28.2812V26.7188H31.4062C30.5433 26.7188 29.8438 26.0192 29.8438 25.1562C29.8438 24.2933 30.5433 23.5938 31.4062 23.5938H32.9688V22.0312C32.9688 21.1683 33.6683 20.4688 34.5312 20.4688C35.3942 20.4688 36.0938 21.1683 36.0938 22.0312V23.5938H37.6562C38.5192 23.5938 39.2188 24.2933 39.2188 25.1562ZM47.0312 14.2969H44.2969V11.5625C44.2969 10.6995 43.5973 10 42.7344 10C41.8714 10 41.1719 10.6995 41.1719 11.5625V14.2969H38.4375C37.5745 14.2969 36.875 14.9964 36.875 15.8594C36.875 16.7223 37.5745 17.4219 38.4375 17.4219H41.1719V20.1562C41.1719 21.0192 41.8714 21.7188 42.7344 21.7188C43.5973 21.7188 44.2969 21.0192 44.2969 20.1562V17.4219H47.0312C47.8942 17.4219 48.5938 16.7223 48.5938 15.8594C48.5938 14.9964 47.8942 14.2969 47.0312 14.2969Z" fill="#FFB800"/>
</svg>
