<svg width="60" height="60" viewBox="0 0 60 60" fill="none" xmlns="http://www.w3.org/2000/svg">
<g id="Group 22 Copy 11">
<rect id="Rectangle Copy 27" opacity="0.195126" width="60" height="60" rx="16" fill="#FFB800"/>
<g id="bell">
<path id="Vector" d="M18.7809 26.2499C18.7789 24.7674 19.0702 23.2992 19.6382 21.9298C20.2063 20.5605 21.0397 19.3171 22.0905 18.2713C23.1413 17.2256 24.3887 16.3981 25.7607 15.8367C27.1328 15.2753 28.6024 14.991 30.0849 15.0002C36.2708 15.0462 41.2187 20.1879 41.2187 26.3911V27.4999C41.2187 33.0961 42.3895 36.3435 43.4207 38.1184C43.5318 38.308 43.5909 38.5236 43.5921 38.7434C43.5933 38.9632 43.5365 39.1794 43.4274 39.3702C43.3184 39.561 43.1609 39.7197 42.971 39.8303C42.781 39.9408 42.5653 39.9993 42.3455 39.9999H17.6529C17.4331 39.9993 17.2173 39.9408 17.0273 39.8302C16.8374 39.7196 16.6799 39.5609 16.5709 39.3701C16.4618 39.1792 16.4051 38.963 16.4063 38.7431C16.4075 38.5233 16.4666 38.3077 16.5778 38.1181C17.6096 36.3432 18.7809 33.0958 18.7809 27.4999L18.7809 26.2499Z" stroke="#FFB800" stroke-width="3" stroke-linecap="round" stroke-linejoin="round"/>
<path id="Vector_2" d="M25 40V41.25C25 42.5761 25.5268 43.8479 26.4645 44.7855C27.4021 45.7232 28.6739 46.25 30 46.25C31.3261 46.25 32.5979 45.7232 33.5355 44.7855C34.4732 43.8479 35 42.5761 35 41.25V40" stroke="#FFB800" stroke-width="3" stroke-linecap="round" stroke-linejoin="round"/>
</g>
</g>
</svg>
