<svg width="60" height="60" viewBox="0 0 60 60" fill="none" xmlns="http://www.w3.org/2000/svg">
<g id="Group 22 Copy 4">
<rect id="Rectangle Copy 27" opacity="0.2" width="60" height="60" rx="16" fill="#0066FF"/>
<path id="Shape" fill-rule="evenodd" clip-rule="evenodd" d="M29.4343 13.4538C29.9254 12.6775 30.8731 12.3229 31.7532 12.5861C32.6251 12.8511 33.2186 13.6583 33.2116 14.5695V25.6241H41.9619C42.4948 25.625 42.9847 25.9164 43.2398 26.3842C43.495 26.8519 43.4747 27.4216 43.187 27.87L31.1553 46.5448C30.7817 47.1391 30.129 47.4998 29.4271 47.5C29.227 47.499 29.0281 47.4696 28.8364 47.4125C27.9645 47.1475 27.371 46.3403 27.378 45.4291V34.3745H18.6277C18.0924 34.3753 17.5998 34.0829 17.3441 33.6127C17.0885 33.1425 17.1109 32.57 17.4026 32.1213L29.4343 13.4538ZM30.2948 42.5344L39.2931 28.5411H31.7532C30.9478 28.5411 30.2948 27.8881 30.2948 27.0827V17.4646L21.2965 31.4579H28.8364C29.6419 31.4579 30.2948 32.1108 30.2948 32.9163V42.5344Z" fill="#0066FF"/>
</g>
</svg>
