<svg width="60" height="60" viewBox="0 0 60 60" fill="none" xmlns="http://www.w3.org/2000/svg">
<g id="Group 22 Copy 4">
<rect id="Rectangle Copy 27" opacity="0.2" width="60" height="60" rx="18" fill="#005D63"/>
<path id="Shape" fill-rule="evenodd" clip-rule="evenodd" d="M29.4341 13.4538C29.9252 12.6775 30.8729 12.3229 31.7529 12.5861C32.6249 12.8511 33.2184 13.6583 33.2113 14.5695V25.6241H41.9617C42.4945 25.625 42.9844 25.9164 43.2396 26.3842C43.4947 26.8519 43.4745 27.4216 43.1867 27.87L31.155 46.5448C30.7815 47.1391 30.1288 47.4998 29.4268 47.5C29.2268 47.499 29.0279 47.4696 28.8362 47.4125C27.9643 47.1475 27.3707 46.3403 27.3778 45.4291V34.3745H18.6274C18.0922 34.3753 17.5995 34.0829 17.3439 33.6127C17.0882 33.1425 17.1107 32.57 17.4024 32.1213L29.4341 13.4538ZM30.2946 42.5344L39.2928 28.5411H31.753C30.9475 28.5411 30.2946 27.8881 30.2946 27.0827V17.4646L21.2963 31.4579H28.8362C29.6416 31.4579 30.2946 32.1108 30.2946 32.9163V42.5344Z" fill="#005D63"/>
</g>
</svg>
