<svg width="50" height="50" viewBox="0 0 50 50" fill="none" xmlns="http://www.w3.org/2000/svg">
<rect opacity="0.195126" width="50" height="50" rx="10" fill="#6DB64C"/>
<g clip-path="url(#clip0)">
<path d="M24.9949 41C33.7898 41 40.9195 33.8703 40.9195 25.0754C40.9195 16.2806 33.7898 9.15088 24.9949 9.15088C16.2 9.15088 9.07031 16.2806 9.07031 25.0754C9.07031 33.8703 16.2 41 24.9949 41Z" fill="#F5BB60"/>
<path d="M23.3707 37.7873C31.288 37.7873 37.7063 31.3691 37.7063 23.4518C37.7063 15.5345 31.288 9.11621 23.3707 9.11621C15.4534 9.11621 9.03516 15.5345 9.03516 23.4518C9.03516 31.3691 15.4534 37.7873 23.3707 37.7873Z" fill="#E86F32"/>
<path d="M25.2716 33.9876C32.1396 33.9876 37.7073 28.4199 37.7073 21.5519C37.7073 14.6839 32.1396 9.11621 25.2716 9.11621C18.4036 9.11621 12.8359 14.6839 12.8359 21.5519C12.8359 28.4199 18.4036 33.9876 25.2716 33.9876Z" fill="#E53D42"/>
<path d="M26.2738 33.9874C32.5885 33.9874 37.7077 28.8683 37.7077 22.5535C37.7077 16.2388 32.5885 11.1196 26.2738 11.1196C19.959 11.1196 14.8398 16.2388 14.8398 22.5535C14.8398 28.8683 19.959 33.9874 26.2738 33.9874Z" fill="#BFD141"/>
<path d="M25.4447 33.9876C31.3016 33.9876 36.0496 29.2396 36.0496 23.3827C36.0496 17.5258 31.3016 12.7778 25.4447 12.7778C19.5878 12.7778 14.8398 17.5258 14.8398 23.3827C14.8398 29.2396 19.5878 33.9876 25.4447 33.9876Z" fill="#6DB64C"/>
<path d="M23.7521 30.637C28.6742 30.637 32.6643 26.6468 32.6643 21.7247C32.6643 16.8026 28.6742 12.8125 23.7521 12.8125C18.83 12.8125 14.8398 16.8026 14.8398 21.7247C14.8398 26.6468 18.83 30.637 23.7521 30.637Z" fill="#AFDBE7"/>
<path d="M25.1997 27.7006C29.3205 27.7006 32.6611 24.3601 32.6611 20.2392C32.6611 16.1184 29.3205 12.7778 25.1997 12.7778C21.0789 12.7778 17.7383 16.1184 17.7383 20.2392C17.7383 24.3601 21.0789 27.7006 25.1997 27.7006Z" fill="#57BADF"/>
<path d="M26.1336 27.7349C29.7584 27.7349 32.6969 24.7965 32.6969 21.1717C32.6969 17.5469 29.7584 14.6084 26.1336 14.6084C22.5088 14.6084 19.5703 17.5469 19.5703 21.1717C19.5703 24.7965 22.5088 27.7349 26.1336 27.7349Z" fill="#02B2D6"/>
<path d="M25.1664 27.7009C28.257 27.7009 30.7624 25.1955 30.7624 22.1048C30.7624 19.0142 28.257 16.5088 25.1664 16.5088C22.0758 16.5088 19.5703 19.0142 19.5703 22.1048C19.5703 25.1955 22.0758 27.7009 25.1664 27.7009Z" fill="url(#paint0_radial)"/>
<path d="M25.1664 27.7009C28.257 27.7009 30.7624 25.1955 30.7624 22.1048C30.7624 19.0142 28.257 16.5088 25.1664 16.5088C22.0758 16.5088 19.5703 19.0142 19.5703 22.1048C19.5703 25.1955 22.0758 27.7009 25.1664 27.7009Z" fill="#231F20"/>
<path d="M26.636 21.3713C27.1908 21.6202 27.9559 21.1193 28.3449 20.2523C28.7339 19.3854 28.5995 18.4808 28.0447 18.2318C27.4898 17.9829 26.7247 18.4838 26.3357 19.3508C25.9467 20.2177 26.0811 21.1223 26.636 21.3713Z" fill="white"/>
</g>
<defs>
<radialGradient id="paint0_radial" cx="0" cy="0" r="1" gradientUnits="userSpaceOnUse" gradientTransform="translate(25.1821 22.1052) scale(5.60935)">
<stop stop-color="#797979"/>
<stop offset="1" stop-color="#4C4C4C"/>
</radialGradient>
<clipPath id="clip0">
<rect width="32" height="32" fill="white" transform="translate(9 9)"/>
</clipPath>
</defs>
</svg>
