<svg width="60" height="60" viewBox="0 0 60 60" fill="none" xmlns="http://www.w3.org/2000/svg">
<rect width="60" height="60" rx="16" fill="#F7F8FA"/>
<g clip-path="url(#clip0)">
<path d="M25.2091 30C25.2091 27.6388 27.1255 25.7224 29.4867 25.7224C31.8479 25.7224 33.7643 27.6388 33.7643 30C33.7643 32.3612 31.8479 34.2776 29.4867 34.2776C27.1255 34.3118 25.2091 32.3612 25.2091 30ZM29.4867 12C21.0684 12 14.019 17.749 12.0342 25.5513C12.0342 25.6198 12 25.654 12 25.7224C12 26.2015 12.3764 26.5779 12.8555 26.5779H20.1103C20.4525 26.5779 20.7605 26.3726 20.8973 26.0646C22.403 22.8137 25.654 20.5551 29.4867 20.5551C34.6882 20.5551 38.9316 24.7985 38.9316 30C38.9316 35.2015 34.6882 39.4449 29.4867 39.4449C25.6882 39.4449 22.403 37.1863 20.8973 33.9354C20.7605 33.6274 20.4525 33.4221 20.1103 33.4221H12.8555C12.3764 33.4221 12 33.7985 12 34.2776C12 34.346 12 34.3802 12.0342 34.4487C14.019 42.251 21.0684 48 29.4867 48C39.4449 48 47.5209 39.924 47.5209 29.9658C47.5209 20.0418 39.4449 12 29.4867 12Z" fill="#343434"/>
</g>
<defs>
<clipPath id="clip0">
<rect width="35.5209" height="36" fill="white" transform="translate(12 12)"/>
</clipPath>
</defs>
</svg>
