<svg width="80" height="80" viewBox="0 0 80 80" fill="none" xmlns="http://www.w3.org/2000/svg">
<rect opacity="0.195126" width="80" height="80" rx="24" fill="#24DCC6"/>
<path fill-rule="evenodd" clip-rule="evenodd" d="M31.6364 48.3352H28.3035C26.3944 48.3287 24.5455 47.6667 23.0661 46.4601C21.5866 45.2535 20.5664 43.5755 20.176 41.7068C19.7857 39.838 20.0489 37.8919 20.9217 36.194C21.7945 34.4961 23.2238 33.1494 24.9706 32.3792C25.0035 29.9701 25.9836 27.6708 27.6989 25.9789C29.4142 24.287 31.7267 23.3386 34.136 23.3388H35.7441C36.4969 22.2654 37.5068 21.3979 38.6815 20.8156C39.8561 20.2334 41.1581 19.955 42.4681 20.0059C44.7824 19.9992 47.0136 20.8681 48.7136 22.4384C50.4137 24.0086 51.4568 26.1639 51.6335 28.4714C54.1139 28.8804 56.3493 30.2088 57.8942 32.192C59.4392 34.1751 60.1804 36.6675 59.9702 39.1726C59.7601 41.6777 58.614 44.0117 56.7602 45.7098C54.9064 47.4078 52.481 48.3452 49.9671 48.3352H48.3006C47.8587 48.3352 47.4348 48.1597 47.1223 47.8471C46.8098 47.5346 46.6342 47.1108 46.6342 46.6688C46.6342 46.2268 46.8098 45.803 47.1223 45.4904C47.4348 45.1779 47.8587 45.0024 48.3006 45.0024H49.9671C51.7349 45.0024 53.4304 44.3001 54.6804 43.05C55.9305 41.8 56.6328 40.1045 56.6328 38.3366C56.6328 36.5688 55.9305 34.8733 54.6804 33.6233C53.4304 32.3732 51.7349 31.6709 49.9671 31.6709C49.5251 31.6709 49.1012 31.4954 48.7887 31.1828C48.4762 30.8703 48.3006 30.4465 48.3006 30.0045V29.1713C48.3006 27.6244 47.6862 26.1409 46.5923 25.0471C45.4985 23.9533 44.015 23.3388 42.4681 23.3388C41.5709 23.2876 40.6779 23.4962 39.8962 23.9395C39.1145 24.3829 38.4771 25.0421 38.0604 25.8384C37.9157 26.0891 37.7083 26.2977 37.4584 26.4438C37.2086 26.5899 36.925 26.6684 36.6356 26.6716H34.136C32.5891 26.6716 31.1056 27.2861 30.0118 28.3799C28.918 29.4737 28.3035 30.9573 28.3035 32.5041C28.3088 32.7249 28.3311 32.945 28.3702 33.1624C28.436 33.589 28.3471 34.0252 28.1194 34.3919C27.8917 34.7587 27.5402 35.0319 27.1287 35.1621C25.9559 35.464 24.9326 36.1812 24.2488 37.1807C23.565 38.1801 23.2672 39.3938 23.4108 40.5962C23.5543 41.7987 24.1295 42.9081 25.0293 43.7185C25.9292 44.5289 27.0926 44.9851 28.3035 45.0024H31.6364C32.0783 45.0024 32.5022 45.1779 32.8147 45.4904C33.1272 45.803 33.3028 46.2268 33.3028 46.6688C33.3028 47.1108 33.1272 47.5346 32.8147 47.8471C32.5022 48.1597 32.0783 48.3352 31.6364 48.3352ZM38.7902 43.8235C39.1027 43.511 39.5266 43.3354 39.9685 43.3354C40.4105 43.3354 40.8344 43.511 41.1469 43.8235C41.4594 44.136 41.635 44.5599 41.635 45.0019V50.0012C42.6749 50.0066 43.6872 50.3361 44.5311 50.944C45.3749 51.5518 46.0081 52.4077 46.3426 53.3923C46.4381 53.3649 46.5356 53.3454 46.6342 53.334H54.9664C55.4084 53.334 55.8322 53.5096 56.1447 53.8221C56.4572 54.1346 56.6328 54.5585 56.6328 55.0005C56.6328 55.4424 56.4572 55.8663 56.1447 56.1788C55.8322 56.4913 55.4084 56.6669 54.9664 56.6669H46.6342C46.5356 56.6555 46.4381 56.636 46.3426 56.6086C46.0081 57.5932 45.3749 58.4491 44.5311 59.0569C43.6872 59.6648 42.6749 59.9943 41.635 59.9997H38.3021C37.2721 59.9951 36.2687 59.6725 35.429 59.0759C34.5893 58.4794 33.9544 57.638 33.6111 56.6669H24.9707C24.5287 56.6669 24.1048 56.4913 23.7923 56.1788C23.4798 55.8663 23.3042 55.4424 23.3042 55.0005C23.3042 54.5585 23.4798 54.1346 23.7923 53.8221C24.1048 53.5096 24.5287 53.334 24.9707 53.334H33.6111C33.9544 52.3629 34.5893 51.5216 35.429 50.925C36.2687 50.3284 37.2721 50.0058 38.3021 50.0012V45.0019C38.3021 44.5599 38.4777 44.136 38.7902 43.8235ZM42.8133 56.1788C43.1258 55.8663 43.3014 55.4424 43.3014 55.0005C43.3014 54.5585 43.1258 54.1346 42.8133 53.8221C42.5008 53.5096 42.0769 53.334 41.635 53.334H38.3021C37.8601 53.334 37.4363 53.5096 37.1237 53.8221C36.8112 54.1346 36.6357 54.5585 36.6357 55.0005C36.6357 55.4424 36.8112 55.8663 37.1237 56.1788C37.4363 56.4913 37.8601 56.6669 38.3021 56.6669H41.635C42.0769 56.6669 42.5008 56.4913 42.8133 56.1788Z" fill="#3FCCC0"/>
</svg>
