<svg width="80" height="80" viewBox="0 0 80 80" fill="none" xmlns="http://www.w3.org/2000/svg">
<g id="Group 22 Copy 12">
<rect id="Rectangle Copy 27" opacity="0.2" width="80" height="80" rx="24" fill="#FF008A"/>
<g id="cloud-check">
<path id="Vector" d="M29.9997 40.0002C29.9997 36.7038 30.9772 33.4815 32.8086 30.7407C34.6399 27.9998 37.2429 25.8636 40.2883 24.6022C43.3338 23.3407 46.6849 23.0107 49.9179 23.6537C53.1509 24.2968 56.1206 25.8842 58.4515 28.2151C60.7824 30.5459 62.3697 33.5156 63.0128 36.7487C63.6559 39.9817 63.3258 43.3328 62.0644 46.3782C60.8029 49.4237 58.6667 52.0266 55.9259 53.858C53.1851 55.6893 49.9627 56.6668 46.6664 56.6668H28.3331C26.6785 56.6652 25.0433 56.3117 23.5359 55.6298C22.0284 54.9479 20.6833 53.9531 19.5897 52.7116C18.4961 51.47 17.6791 50.0101 17.1929 48.4286C16.7067 46.8472 16.5624 45.1804 16.7696 43.5389C16.9768 41.8974 17.5308 40.3188 18.3948 38.9078C19.2588 37.4968 20.413 36.2857 21.7809 35.3549C23.1487 34.4241 24.6989 33.7949 26.3285 33.509C27.9581 33.2231 29.6299 33.2871 31.2329 33.6967" stroke="#FF008A" stroke-width="4" stroke-linecap="round" stroke-linejoin="round"/>
<path id="Vector_2" d="M53.333 37.5L43.333 47.5L38.333 42.5" stroke="#FF008A" stroke-width="4" stroke-linecap="round" stroke-linejoin="round"/>
</g>
</g>
</svg>
