<svg width="50" height="50" viewBox="0 0 50 50" fill="none" xmlns="http://www.w3.org/2000/svg">
<rect opacity="0.195126" width="50" height="50" rx="10" fill="#5C5C5E"/>
<path fill-rule="evenodd" clip-rule="evenodd" d="M40.9999 25C40.9999 16.1564 33.8436 9 25 9C16.1564 9 9 16.1564 9 25C9 33.8436 16.1564 40.9999 25 40.9999C33.8436 40.9999 40.9999 33.8436 40.9999 25ZM30.8174 36.171C32.0393 35.1819 32.912 33.8437 33.4938 32.0401L38.032 18.0764H34.1338L31.1665 29.6546L28.3738 18.0764H24.3593L29.1884 33.5528C29.1884 33.5528 28.7229 34.0764 28.4902 34.251C27.8502 34.7164 26.8611 35.0073 25.5229 35.1819L25.9302 37.8582C27.9665 37.6837 29.5956 37.16 30.8174 36.171ZM21.9738 17.9601C21.2756 17.6692 20.4029 17.5528 19.472 17.5528C18.1338 17.5528 16.9702 17.9019 15.9811 18.4255C14.992 19.0655 14.1775 19.9383 13.6538 21.1019C13.1302 22.2073 12.8393 23.5455 12.8393 25.0001C12.8393 26.5128 13.1302 27.7928 13.6538 28.8982C14.1775 30.0037 14.992 30.8764 15.9811 31.4582C17.0284 32.0401 18.192 32.331 19.5884 32.331C21.3338 32.331 22.8465 31.8073 24.1847 30.7019L22.5556 28.3746C21.9738 28.7237 21.5084 28.9564 21.1011 29.131C20.6938 29.3055 20.2284 29.3637 19.7629 29.3637C18.7738 29.3637 18.0756 29.0728 17.552 28.3746C17.0284 27.7346 16.7956 26.6292 16.7956 25.0582C16.7956 21.9746 17.7847 20.4619 19.7629 20.4619C20.2284 20.4619 20.752 20.5201 21.1593 20.6946C21.5665 20.8692 22.032 21.1019 22.4975 21.451L24.1265 19.2401C23.4284 18.6583 22.7302 18.251 21.9738 17.9601Z" fill="#5C5C5E"/>
</svg>
