<svg width="60" height="60" viewBox="0 0 60 60" fill="none" xmlns="http://www.w3.org/2000/svg">
<rect opacity="0.2" width="60" height="60" rx="16" fill="#FF008A"/>
<path d="M30 25V32.5" stroke="#FF008A" stroke-width="3" stroke-linecap="round" stroke-linejoin="round"/>
<path d="M27.8365 16.2476L14.0902 39.9964C13.8703 40.3764 13.7543 40.8077 13.7539 41.2467C13.7535 41.6858 13.8688 42.1172 14.0882 42.4976C14.3075 42.878 14.6231 43.1939 15.0033 43.4135C15.3835 43.6332 15.8148 43.7488 16.2539 43.7488H43.7465C44.1856 43.7488 44.6169 43.6332 44.9971 43.4135C45.3773 43.1939 45.6929 42.878 45.9123 42.4976C46.1316 42.1172 46.2469 41.6858 46.2465 41.2467C46.2461 40.8077 46.1301 40.3764 45.9102 39.9964L32.1639 16.2476C31.9443 15.8682 31.6288 15.5532 31.249 15.3342C30.8692 15.1153 30.4386 15 30.0002 15C29.5618 15 29.1312 15.1153 28.7514 15.3342C28.3716 15.5532 28.0561 15.8682 27.8365 16.2476V16.2476Z" stroke="#FF008A" stroke-width="3" stroke-linecap="round" stroke-linejoin="round"/>
<path d="M30 40C31.0355 40 31.875 39.1605 31.875 38.125C31.875 37.0895 31.0355 36.25 30 36.25C28.9645 36.25 28.125 37.0895 28.125 38.125C28.125 39.1605 28.9645 40 30 40Z" fill="#FF008A"/>
</svg>
