<svg width="32" height="32" viewBox="0 0 32 32" fill="none" xmlns="http://www.w3.org/2000/svg">
<rect width="32" height="32" rx="8" fill="white" fill-opacity="0.2"/>
<path d="M16 24C20.411 24 24 20.411 24 16C24 11.589 20.411 8 16 8C11.589 8 8 11.589 8 16C8 20.411 11.589 24 16 24ZM16 9C19.859 9 23 12.14 23 16C23 19.859 19.859 23 16 23C12.14 23 9 19.859 9 16C9 12.14 12.14 9 16 9Z" fill="white"/>
<path d="M19.828 11.381C18.789 10.518 17.455 10 16 10C15.58 10 15.17 10.044 14.774 10.126C15.502 11.158 16.163 12.232 16.745 13.345C17.846 12.832 18.882 12.17 19.828 11.381Z" fill="white"/>
<path d="M17.9111 15.901C19.2391 15.628 20.6211 15.602 21.9911 15.83C21.9511 14.4 21.4131 13.096 20.5411 12.086C19.5121 12.953 18.3801 13.672 17.1781 14.234C17.4401 14.782 17.6841 15.337 17.9111 15.901Z" fill="white"/>
<path d="M15.8121 13.7229C15.2111 12.5819 14.5301 11.4819 13.7701 10.4319C11.9691 11.1539 10.6031 12.7219 10.1591 14.6469C12.1011 14.7299 14.0231 14.4069 15.8121 13.7229Z" fill="white"/>
<path d="M16.936 16.15C16.727 15.636 16.501 15.13 16.26 14.629C14.528 15.304 12.678 15.672 10.797 15.672C10.538 15.672 10.278 15.656 10.018 15.642C10.011 15.761 10 15.879 10 16C10 17.473 10.533 18.821 11.414 19.865C12.855 18.076 14.792 16.794 16.936 16.15Z" fill="white"/>
<path d="M18.278 16.847C18.755 18.178 19.129 19.545 19.403 20.938C20.755 20.005 21.699 18.532 21.936 16.83C20.71 16.614 19.471 16.623 18.278 16.847Z" fill="white"/>
<path d="M12.123 20.576C13.17 21.463 14.521 22 16 22C16.888 22 17.729 21.802 18.487 21.455C18.212 19.961 17.812 18.499 17.296 17.08C15.279 17.669 13.459 18.879 12.123 20.576Z" fill="white"/>
</svg>
