<svg width="48" height="48" viewBox="0 0 48 48" fill="none" xmlns="http://www.w3.org/2000/svg">
<rect width="48" height="48" rx="15" fill="#C2DAFF"/>
<path d="M38.1875 23.1628L27.0375 15.9878C26.8859 15.8911 26.711 15.8372 26.5312 15.8315C26.3515 15.8259 26.1736 15.8689 26.0162 15.9559C25.8588 16.0429 25.7278 16.1707 25.6369 16.3259C25.5461 16.4811 25.4988 16.658 25.5 16.8378V31.1628C25.4988 31.3426 25.5461 31.5195 25.6369 31.6747C25.7278 31.8299 25.8588 31.9577 26.0162 32.0447C26.1736 32.1317 26.3515 32.1747 26.5312 32.1691C26.711 32.1635 26.8859 32.1095 27.0375 32.0128L38.1875 24.8378C38.3296 24.749 38.4468 24.6256 38.528 24.4791C38.6092 24.3326 38.6518 24.1678 38.6518 24.0003C38.6518 23.8328 38.6092 23.668 38.528 23.5215C38.4468 23.375 38.3296 23.2516 38.1875 23.1628V23.1628Z" stroke="#0066FF" stroke-width="3" stroke-linecap="round" stroke-linejoin="round"/>
<path d="M24.1875 23.1628L13.0375 15.9878C12.8859 15.8911 12.711 15.8372 12.5312 15.8315C12.3515 15.8259 12.1736 15.8689 12.0162 15.9559C11.8588 16.0429 11.7278 16.1707 11.6369 16.3259C11.5461 16.4811 11.4988 16.658 11.5 16.8378V31.1628C11.4988 31.3426 11.5461 31.5195 11.6369 31.6747C11.7278 31.8299 11.8588 31.9577 12.0162 32.0447C12.1736 32.1317 12.3515 32.1747 12.5312 32.1691C12.711 32.1635 12.8859 32.1095 13.0375 32.0128L24.1875 24.8378C24.3296 24.749 24.4468 24.6256 24.528 24.4791C24.6092 24.3326 24.6518 24.1678 24.6518 24.0003C24.6518 23.8328 24.6092 23.668 24.528 23.5215C24.4468 23.375 24.3296 23.2516 24.1875 23.1628V23.1628Z" stroke="#0066FF" stroke-width="3" stroke-linecap="round" stroke-linejoin="round"/>
</svg>
