<svg width="502" height="444" viewBox="0 0 502 444" fill="none" xmlns="http://www.w3.org/2000/svg">
<path d="M458.099 254.9C462.399 257.4 465.899 255.4 465.899 250.4C465.899 245.4 462.399 239.4 458.099 236.9L429.999 220.7C425.699 218.2 422.199 220.2 422.199 225.2C422.199 230.2 425.699 236.2 429.999 238.7L458.099 254.9Z" fill="#C2C9E3"/>
<path d="M493.699 330.2C497.999 332.7 501.499 330.7 501.499 325.7C501.499 320.8 497.999 314.7 493.699 312.2L465.599 295.9C461.299 293.4 457.799 295.4 457.799 300.4C457.799 305.4 461.299 311.4 465.599 313.9L493.699 330.2Z" fill="#001F8C"/>
<path d="M461.099 320.1L474.499 327.8C479.399 330.6 483.099 337.2 483.099 342.8C483.099 345.8 481.999 348.1 479.999 349.3C477.999 350.5 475.399 350.3 472.799 348.7L459.399 341C454.499 338.2 450.799 331.6 450.799 326C450.799 323 451.899 320.7 453.899 319.5C454.799 319 455.699 318.7 456.799 318.7C458.099 318.8 459.599 319.2 461.099 320.1ZM478.299 346.3C479.199 345.8 479.699 344.5 479.699 342.8C479.699 338.5 476.499 333 472.799 330.8L459.399 323.1C457.899 322.2 456.499 322 455.599 322.5C454.699 323 454.199 324.3 454.199 326C454.199 330.3 457.399 335.8 461.099 338L474.499 345.7C475.499 346.3 476.399 346.5 477.199 346.5C477.599 346.6 477.999 346.5 478.299 346.3Z" fill="black"/>
<path d="M417.8 221.6C417.8 224.6 416.7 226.9 414.7 228.1C412.7 229.3 410.1 229.1 407.4 227.6L371.6 206.9C366.8 204.1 363 197.5 363 191.9C363 188.9 364.1 186.6 366.1 185.4C367 184.9 368 184.6 369 184.6C370.4 184.6 371.9 185 373.4 185.9L409.1 206.5C414 209.5 417.8 216.1 417.8 221.6Z" fill="#001F8C"/>
<path d="M373.4 245.2L409.1 265.8C414 268.6 417.8 275.2 417.7 280.8C417.7 283.8 416.6 286.1 414.6 287.3C412.6 288.5 410 288.3 407.3 286.7L371.6 266C366.7 263.2 363 256.6 363 251C363 248 364.1 245.7 366.1 244.5C367 244 367.9 243.7 369 243.7C370.4 243.9 371.9 244.3 373.4 245.2ZM412.9 284.3C413.8 283.8 414.3 282.5 414.3 280.8C414.3 276.5 411.1 271 407.4 268.8L371.7 248.2C370.2 247.3 368.8 247.1 367.9 247.6C367 248.1 366.5 249.4 366.5 251.1C366.5 255.4 369.7 260.9 373.4 263.1L409.1 283.7C410.1 284.3 411 284.5 411.8 284.5C412.2 284.6 412.6 284.5 412.9 284.3Z" fill="black"/>
<path d="M373.4 156.1L409.1 176.7C414 179.5 417.8 186.1 417.7 191.7C417.7 194.7 416.6 197 414.6 198.2C412.6 199.4 410 199.2 407.3 197.6L371.6 177C366.7 174.2 363 167.6 363 162C363 159 364.1 156.7 366.1 155.5C367 155 367.9 154.7 369 154.7C370.4 154.8 371.9 155.2 373.4 156.1ZM412.9 195.2C413.8 194.7 414.3 193.4 414.3 191.7C414.3 187.4 411.1 181.9 407.4 179.7L371.7 159C370.2 158.1 368.8 157.9 367.9 158.4C367 158.9 366.5 160.2 366.5 161.9C366.5 166.2 369.7 171.7 373.4 173.9L409.1 194.5C410.1 195.1 411 195.3 411.8 195.3C412.2 195.5 412.6 195.4 412.9 195.2Z" fill="black"/>
<path d="M432.1 268.6C436.4 271.1 439.9 269.1 439.9 264.1C439.9 259.2 436.4 253.1 432.1 250.6L372.4 216.2C368.1 213.7 364.6 215.7 364.6 220.7C364.6 225.7 368.1 231.7 372.4 234.2L432.1 268.6Z" fill="#C2C9E3"/>
<path d="M327.5 386.6L247.8 432.9C221.5 448.2 178.6 448.2 152.1 432.9L71.8999 386.6L134.8 350.1L152.2 360.1C178.7 375.4 221.6 375.4 247.9 360.1L264.7 350.3L327.5 386.6Z" fill="#001F8C"/>
<path d="M327.5 313.7L264.6 350.2L247.8 360C221.5 375.3 178.6 375.3 152.1 360L134.7 350L71.7998 313.7L151.5 267.4C177.8 252.1 220.7 252.1 247.2 267.4L327.5 313.7Z" fill="white"/>
<path d="M200 373.2C182.4 373.2 164.7 369.3 151.3 361.5L71.0998 315.2C70.5998 314.9 70.2998 314.3 70.2998 313.7C70.2998 313.1 70.5998 312.5 71.0998 312.2L150.8 265.9C177.6 250.4 221.2 250.4 248.2 265.9L328.4 312.2C328.9 312.5 329.2 313.1 329.3 313.7C329.4 314.3 329 314.9 328.5 315.2L248.8 361.5C235.3 369.3 217.7 373.2 200 373.2ZM75.2998 313.7L153 358.6C179 373.6 221.1 373.6 247 358.6L324.1 313.8L246.4 269C220.4 254 178.2 254 152.4 269L75.2998 313.7Z" fill="black"/>
<path d="M299.6 193.1C299.3 193.1 299 193 298.7 192.9C281.4 182.5 252.6 182.2 234.6 192.3C233.8 192.8 232.7 192.5 232.3 191.6C231.8 190.8 232.1 189.7 233 189.3C252 178.7 282.3 179 300.5 190C301.3 190.5 301.6 191.5 301.1 192.3C300.7 192.8 300.1 193.1 299.6 193.1Z" fill="black"/>
<path d="M265.8 244.8C253.3 244.8 240.8 242 231.5 236.4C222.6 231.1 217.7 224 217.7 216.4C217.7 208.8 222.5 201.7 231.2 196.3L233 199.2C225.3 203.9 221.1 210 221.1 216.4C221.1 222.7 225.4 228.8 233.2 233.5C250.5 243.9 279.3 244.2 297.3 234.1C305.9 229.3 310.6 223 310.8 216.3C310.9 209.8 306.6 203.7 298.7 198.9L300.5 196C309.5 201.4 314.4 208.7 314.3 216.4C314.2 224.3 308.8 231.7 299.1 237.1C289.8 242.2 277.8 244.8 265.8 244.8Z" fill="black"/>
<path d="M308.5 250C308.4 250.2 308.3 250.3 308.2 250.5C307.9 250.9 307.6 251.2 307.3 251.6C307.2 251.7 307.1 251.8 307 252C306.5 252.6 305.9 253.1 305.3 253.7C305.2 253.8 305.1 253.9 305 253.9C304.6 254.3 304.1 254.7 303.6 255.1C303.2 255.4 302.8 255.8 302.3 256.1C301.8 256.5 301.2 256.8 300.6 257.2C300.2 257.5 299.8 257.7 299.4 258C299.2 258.1 299 258.2 298.8 258.3C297.4 259.1 295.9 259.8 294.4 260.5C294 260.7 293.5 260.9 293.1 261.1C291.9 261.6 290.7 262.1 289.4 262.5C289.1 262.6 288.9 262.7 288.6 262.8C288.4 262.9 288.3 262.9 288.1 262.9C287.3 263.1 286.5 263.4 285.7 263.6C285.1 263.8 284.5 263.9 283.9 264.1C283.1 264.3 282.2 264.5 281.3 264.6C280.8 264.7 280.3 264.8 279.8 264.9C279.7 264.9 279.6 264.9 279.5 264.9C279.4 264.9 279.3 264.9 279.3 264.9C279.1 264.9 278.9 265 278.8 265C277.2 265.3 275.5 265.5 273.9 265.7C273.4 265.8 272.9 265.8 272.4 265.8C271.4 265.9 270.4 266 269.5 266C268.9 266 268.2 266 267.6 266.1C266.8 266.1 266 266.1 265.2 266.1C264.5 266.1 263.9 266.1 263.2 266C262.5 266 261.7 265.9 261 265.9C260.3 265.9 259.7 265.8 259 265.7C258.3 265.6 257.6 265.5 256.8 265.5C256.5 265.5 256.2 265.4 255.9 265.4C255.6 265.4 255.2 265.3 254.9 265.3C254.6 265.3 254.2 265.2 253.9 265.1C253.1 265 252.3 264.8 251.4 264.7C251 264.6 250.6 264.6 250.2 264.5C249.9 264.4 249.7 264.4 249.4 264.3C248.4 264.1 247.5 263.8 246.5 263.6C246.1 263.5 245.7 263.4 245.3 263.3C245.2 263.3 245 263.2 244.9 263.2C243.2 262.7 241.5 262.1 239.9 261.5C239.8 261.5 239.7 261.4 239.6 261.4C238.9 261.1 238.2 260.8 237.5 260.5C237.1 260.3 236.7 260.2 236.3 260C235.1 259.4 234 258.9 232.9 258.2C228.1 255.4 224.6 252.2 222.3 248.7L222.2 274.8C222.2 281.3 226.5 287.8 235 292.7C236 293.3 237.1 293.8 238.2 294.4C238.6 294.6 238.9 294.7 239.3 294.9C239.9 295.2 240.6 295.5 241.3 295.8C241.4 295.8 241.5 295.9 241.5 295.9C243 296.5 244.6 297 246.2 297.5C246.3 297.5 246.4 297.6 246.6 297.6C247 297.7 247.3 297.8 247.7 297.9C248.6 298.1 249.5 298.4 250.4 298.6C250.6 298.7 250.9 298.7 251.1 298.8C251.5 298.9 251.8 298.9 252.2 299C253 299.1 253.7 299.3 254.5 299.4C254.8 299.4 255.1 299.5 255.4 299.6C255.7 299.6 256.1 299.7 256.4 299.7C257.1 299.8 257.8 299.9 258.6 299.9C258.9 299.9 259.3 300 259.6 300C259.9 300 260.2 300 260.6 300.1C261.3 300.2 262.1 300.2 262.8 300.2C263.2 300.2 263.5 300.2 263.9 300.3C264.2 300.3 264.5 300.3 264.8 300.3C265.6 300.3 266.4 300.3 267.2 300.3C267.6 300.3 268 300.3 268.4 300.3C268.6 300.3 268.9 300.3 269.1 300.3C270.1 300.3 271.1 300.2 272 300.1C272.4 300.1 272.8 300.1 273.2 300C273.3 300 273.4 300 273.6 299.9C275.3 299.7 276.9 299.5 278.5 299.2C278.6 299.2 278.7 299.2 278.7 299.2C279.2 299.1 279.6 299 280.1 298.9C280.9 298.7 281.7 298.6 282.5 298.4C283.1 298.3 283.6 298.1 284.2 297.9C285 297.7 285.7 297.5 286.4 297.3C286.6 297.3 286.7 297.2 286.9 297.2C287.2 297.1 287.4 297 287.7 296.9C288.9 296.5 290 296.1 291.1 295.6C291.5 295.4 291.9 295.3 292.3 295.1C293.7 294.5 295.1 293.8 296.4 293C296.6 292.9 296.8 292.8 296.9 292.7C297.3 292.5 297.6 292.2 298 292C298.5 291.7 299.1 291.3 299.6 291C300 290.7 300.4 290.4 300.8 290C301.3 289.6 301.7 289.3 302.1 288.9C302.2 288.8 302.3 288.8 302.4 288.7C303 288.2 303.5 287.7 304 287.1C304.1 287 304.2 286.9 304.3 286.8C304.6 286.5 304.9 286.1 305.1 285.8C305.2 285.7 305.3 285.5 305.4 285.4C305.8 284.9 306.1 284.4 306.4 283.9C306.5 283.7 306.7 283.5 306.8 283.3C306.9 283.2 306.9 283.1 307 283C307.2 282.6 307.4 282.1 307.6 281.6C307.7 281.3 307.9 281.1 308 280.8C308 280.7 308 280.6 308.1 280.5C308.3 280.1 308.4 279.6 308.5 279.2C308.6 278.9 308.7 278.6 308.8 278.3C308.8 278.2 308.8 278.1 308.8 278.1C308.9 277.6 308.9 277.2 309 276.7C309 276.4 309.1 276.1 309.1 275.8C309.1 275.7 309.1 275.5 309.1 275.4L309.2 249C309.1 249.1 308.8 249.5 308.5 250Z" fill="white"/>
<path d="M264.3 301.8C264.2 301.8 264.2 301.8 264.1 301.8C263.9 301.8 263.7 301.8 263.4 301.8C263.2 301.8 263.1 301.8 262.9 301.8C262.1 301.8 261.4 301.7 260.6 301.7C260.5 301.7 260.3 301.7 260.2 301.7C260 301.7 259.8 301.7 259.6 301.7C259.4 301.7 259.2 301.7 259 301.6C258.9 301.6 258.7 301.6 258.6 301.6C257.9 301.5 257.1 301.4 256.4 301.4C256.3 301.4 256.1 301.4 256 301.4C255.8 301.4 255.6 301.4 255.4 301.3C255.2 301.3 255 301.2 254.8 301.2C254.7 301.2 254.6 301.2 254.4 301.1C253.6 301 252.8 300.8 252 300.7C251.9 300.7 251.7 300.7 251.6 300.6C251.4 300.6 251.1 300.5 250.9 300.5C250.7 300.5 250.6 300.4 250.4 300.4C250.3 300.4 250.2 300.4 250.1 300.3C249.2 300.1 248.2 299.9 247.3 299.6C247.1 299.6 247 299.5 246.8 299.5C246.6 299.4 246.3 299.4 246.1 299.3C246 299.3 245.9 299.2 245.8 299.2C244 298.7 242.4 298.1 240.9 297.6C240.8 297.6 240.7 297.5 240.7 297.5C240.2 297.3 239.7 297.1 239.2 296.8L238.3 296.4C238.1 296.3 237.8 296.2 237.6 296.1C236.4 295.5 235.3 295 234.3 294.4C225.5 289.3 220.6 282.4 220.6 275L220.7 248.9C220.7 248.1 221.2 247.5 221.9 247.3C222.6 247.1 223.4 247.4 223.8 248C226 251.4 229.4 254.4 233.8 256.9C234.8 257.5 235.9 258.1 237.1 258.6C237.3 258.7 237.5 258.8 237.7 258.9C237.9 259 238 259 238.2 259.1L238.7 259.3C239.2 259.5 239.7 259.8 240.2 260C240.3 260 240.4 260.1 240.5 260.1C242 260.7 243.6 261.2 245.3 261.7C245.4 261.7 245.5 261.8 245.6 261.8C245.9 261.9 246 261.9 246.2 262C246.4 262 246.6 262.1 246.8 262.1C247.7 262.3 248.7 262.6 249.6 262.8C249.7 262.8 249.9 262.9 250 262.9C250.1 262.9 250.2 263 250.3 263C250.5 263 250.7 263.1 250.9 263.1C251.1 263.1 251.3 263.2 251.5 263.2C252.3 263.4 253.1 263.5 253.9 263.6C254.1 263.6 254.2 263.7 254.4 263.7C254.6 263.7 254.7 263.8 254.9 263.8C255.1 263.8 255.3 263.8 255.5 263.9L256.2 264C256.4 264 256.6 264.1 256.7 264.1C257.4 264.2 258.1 264.3 258.8 264.3C259.5 264.4 260.1 264.4 260.8 264.5C261.5 264.5 262.2 264.6 263 264.6C263.6 264.6 264.3 264.6 264.9 264.7C265.7 264.7 266.5 264.7 267.2 264.7C267.8 264.7 268.4 264.7 269 264.6C270 264.6 270.9 264.5 271.9 264.4H272.5C272.8 264.4 273.1 264.4 273.4 264.3C275.1 264.1 276.7 263.9 278.2 263.6L278.9 263.5C279 263.5 279.1 263.5 279.2 263.5C279.5 263.4 279.8 263.4 280 263.3C280.2 263.3 280.4 263.2 280.7 263.2L281 263.1C281.8 262.9 282.5 262.8 283.2 262.6C283.6 262.5 284 262.4 284.5 262.3L285 262.2C285.8 262 286.6 261.8 287.3 261.5C287.4 261.5 287.5 261.4 287.6 261.4L287.8 261.3C287.9 261.3 288 261.2 288.1 261.2C288.3 261.1 288.4 261.1 288.6 261C289.8 260.6 291 260.1 292.1 259.7L292.3 259.6C292.7 259.4 293 259.3 293.4 259.1C295.1 258.3 296.4 257.7 297.6 257L298.1 256.7C298.3 256.6 298.5 256.4 298.7 256.3C298.9 256.2 299 256.1 299.2 255.9L299.6 255.7C300 255.4 300.4 255.2 300.8 254.9C301.1 254.7 301.4 254.4 301.7 254.2L302.3 253.7C302.7 253.4 303 253.1 303.4 252.8C303.5 252.7 303.5 252.7 303.6 252.6C304.2 252.1 304.7 251.6 305.2 251L305.7 250.5C305.9 250.2 306.2 250 306.4 249.7C306.4 249.7 306.4 249.6 306.5 249.6C306.6 249.5 306.6 249.4 306.7 249.3C307 248.9 307.3 248.5 307.5 248.1C307.9 247.5 308.7 247.2 309.4 247.4C310.1 247.6 310.6 248.3 310.6 249L310.5 275.9C310.5 276.2 310.5 276.4 310.4 276.6C310.4 276.7 310.4 276.8 310.4 276.9V277.1C310.4 277.5 310.3 277.9 310.3 278.4C310.3 278.5 310.3 278.6 310.3 278.7C310.2 279 310.2 279.2 310.1 279.4C310.1 279.5 310 279.6 310 279.7V279.9C309.9 280.3 309.8 280.7 309.6 281.2C309.6 281.3 309.6 281.4 309.5 281.5C309.4 281.7 309.3 281.9 309.2 282.1C309.2 282.2 309.1 282.3 309.1 282.3C308.9 282.8 308.7 283.3 308.4 283.8C308.3 283.9 308.3 284 308.2 284.1C308.1 284.3 308 284.5 307.9 284.6C307.9 284.7 307.8 284.7 307.8 284.8C307.4 285.4 307.1 286 306.7 286.4L306.6 286.5C306.5 286.6 306.4 286.8 306.3 286.9C306.1 287.2 305.8 287.5 305.5 287.8L305.3 288C305.2 288.1 305.2 288.2 305.1 288.3C304.5 288.9 304 289.4 303.5 290C303.4 290.1 303.3 290.1 303.3 290.2C302.9 290.6 302.5 290.9 302.1 291.2L301.5 291.6C301.2 291.9 300.9 292.1 300.5 292.4C300.1 292.7 299.6 293 299.2 293.3L298.9 293.5C298.8 293.6 298.6 293.7 298.5 293.8C298.3 294 298 294.1 297.7 294.3L297.2 294.6C296 295.3 294.6 296 292.9 296.8C292.5 297 292.2 297.1 291.8 297.3L291.6 297.4C290.5 297.9 289.3 298.3 288.1 298.7C288 298.7 287.9 298.8 287.8 298.8C287.6 298.9 287.5 298.9 287.3 299C287.2 299 287.1 299.1 287 299.1H286.8C286.1 299.3 285.3 299.5 284.5 299.8L284 299.9C283.6 300 283.1 300.1 282.7 300.2C282 300.4 281.2 300.5 280.5 300.7H280.3C280.1 300.7 279.9 300.8 279.8 300.8C279.5 300.9 279.2 300.9 278.9 301C278.8 301 278.8 301 278.7 301C277.1 301.3 275.4 301.5 273.6 301.7C273.4 301.7 273.3 301.7 273.2 301.8C273 301.8 272.7 301.8 272.5 301.8C272.3 301.8 272.2 301.8 272 301.8C271 301.9 270 302 269 302C268.9 302 268.8 302 268.7 302C268.6 302 268.4 302 268.3 302C268.1 302 267.8 302 267.6 302C267.4 302 267.3 302 267.1 302C266.3 302 265.5 302 264.7 302C264.6 302 264.5 302 264.3 302C264.6 301.8 264.4 301.8 264.3 301.8ZM224.3 253.5L224.2 274.8C224.2 280.9 228.4 286.8 236.2 291.2C237.1 291.7 238.1 292.3 239.3 292.8C239.5 292.9 239.7 293 239.9 293.1L240.9 293.5C241.4 293.7 241.8 293.9 242.3 294.1C242.4 294.1 242.5 294.2 242.5 294.2C243.9 294.7 245.4 295.3 247 295.7C247.1 295.7 247.2 295.8 247.3 295.8C247.5 295.9 247.7 295.9 247.9 296C248.1 296 248.3 296.1 248.5 296.1C249.4 296.3 250.2 296.5 251.1 296.7C251.2 296.7 251.4 296.8 251.5 296.8C251.6 296.8 251.7 296.9 251.8 296.9C252 296.9 252.2 297 252.3 297C252.5 297 252.7 297.1 252.8 297.1C253.5 297.2 254.3 297.4 255 297.5C255.2 297.5 255.3 297.6 255.5 297.6C255.6 297.6 255.8 297.7 255.9 297.7C256.1 297.7 256.2 297.7 256.4 297.8C256.6 297.9 256.7 297.8 256.9 297.9C257.6 298 258.3 298.1 259 298.1C259.2 298.1 259.3 298.1 259.5 298.2C259.7 298.2 259.8 298.2 260 298.3C260.2 298.3 260.3 298.3 260.5 298.3C260.7 298.3 260.8 298.3 261 298.3C261.7 298.3 262.4 298.4 263.2 298.4C263.4 298.4 263.6 298.4 263.7 298.4C263.9 298.4 264.1 298.4 264.2 298.4C264.3 298.4 264.5 298.4 264.6 298.4C264.8 298.4 264.9 298.4 265.1 298.4C265.9 298.4 266.7 298.4 267.4 298.4C267.6 298.4 267.8 298.4 268 298.4C268.2 298.4 268.4 298.4 268.6 298.4C268.7 298.4 268.8 298.4 268.9 298.4C269 298.4 269.2 298.4 269.3 298.4C270.3 298.4 271.2 298.3 272.2 298.2C272.4 298.2 272.6 298.2 272.8 298.2C273 298.2 273.2 298.2 273.4 298.2C273.6 298.2 273.7 298.2 273.8 298.2C275.5 298 277.1 297.8 278.6 297.5C278.7 297.5 278.7 297.5 278.8 297.5C279.1 297.5 279.3 297.4 279.6 297.3C279.8 297.3 280 297.2 280.2 297.2H280.4C281.1 297.1 281.8 296.9 282.5 296.7C282.9 296.6 283.3 296.5 283.7 296.4L284.2 296.3C284.9 296.1 285.7 295.9 286.4 295.7C286.5 295.7 286.6 295.6 286.7 295.6H286.9C287 295.6 287.1 295.5 287.2 295.5C287.3 295.4 287.5 295.4 287.6 295.3C288.7 294.9 289.8 294.5 290.9 294L291.1 293.9C291.4 293.8 291.8 293.6 292.1 293.5C293.7 292.8 294.9 292.2 296 291.5L296.5 291.2C296.7 291.1 296.9 290.9 297.1 290.8C297.3 290.7 297.4 290.6 297.6 290.5L297.9 290.3C298.3 290 298.7 289.8 299.1 289.5C299.4 289.3 299.7 289.1 299.9 288.8L300.5 288.3C300.8 288 301.2 287.8 301.5 287.5C301.6 287.4 301.6 287.4 301.7 287.3C302.2 286.8 302.7 286.4 303.2 285.8L303.6 285.4C303.8 285.1 304.1 284.9 304.3 284.6L304.4 284.5C304.5 284.4 304.5 284.3 304.6 284.2C304.9 283.8 305.2 283.4 305.5 282.8C305.6 282.7 305.7 282.5 305.8 282.4C305.8 282.3 305.9 282.3 305.9 282.2C305.9 282.1 306 282 306 281.9C306.2 281.5 306.4 281.1 306.5 280.7C306.6 280.5 306.6 280.4 306.7 280.3C306.7 280.2 306.8 280.1 306.8 280C306.8 280 306.8 279.9 306.9 279.8C307 279.5 307.1 279.1 307.2 278.8V278.6C307.2 278.4 307.3 278.3 307.3 278.2C307.3 278.1 307.4 278 307.4 277.9C307.4 277.8 307.4 277.7 307.4 277.7C307.5 277.3 307.5 277 307.5 276.7V276.5C307.5 276.3 307.5 276.2 307.6 276C307.6 275.9 307.6 275.8 307.6 275.7V275.4L307.7 253.9C307.3 254.3 306.9 254.7 306.5 255.1C306.4 255.2 306.3 255.2 306.2 255.3C305.8 255.7 305.3 256 304.9 256.4L304.3 256.9C304 257.2 303.6 257.4 303.3 257.7C302.9 258 302.4 258.3 301.9 258.6L301.5 258.8C301.3 258.9 301.2 259 301.1 259.1C300.8 259.3 300.6 259.5 300.3 259.6L299.7 259.9C298.4 260.7 296.9 261.4 295.2 262.2C294.8 262.4 294.4 262.5 294 262.7L293.8 262.8C292.6 263.3 291.3 263.8 290 264.2C289.9 264.2 289.8 264.3 289.7 264.3C289.5 264.4 289.3 264.4 289.2 264.5C289.1 264.5 289 264.6 288.9 264.6H288.7C287.9 264.8 287.1 265.1 286.3 265.3L285.7 265.5C285.2 265.6 284.8 265.8 284.3 265.9C283.5 266.1 282.7 266.2 281.9 266.4L281.6 266.5C281.4 266.5 281.2 266.6 281 266.6C280.7 266.7 280.4 266.7 280.1 266.8C280 266.8 279.9 266.8 279.9 266.8C279.8 266.8 279.7 266.8 279.6 266.8H279.4C279.3 266.8 279.1 266.9 279 266.9C277.4 267.2 275.7 267.4 273.9 267.6C273.6 267.6 273.2 267.7 272.9 267.7H272.4C271.4 267.8 270.4 267.9 269.4 267.9C268.8 267.9 268.1 267.9 267.5 268C266.7 268 265.9 268 265.1 268C264.4 268 263.7 268 263.1 267.9C262.3 267.9 261.6 267.8 260.8 267.8C260.1 267.8 259.4 267.7 258.8 267.6C258.1 267.5 257.3 267.4 256.6 267.4C256.4 267.4 256.2 267.3 256 267.3L255.4 267.2C255.2 267.2 254.9 267.2 254.7 267.1C254.5 267.1 254.3 267 254.1 267C254 267 253.8 267 253.7 266.9C252.9 266.8 252 266.6 251.2 266.5C251 266.5 250.9 266.4 250.7 266.4C250.5 266.4 250.2 266.3 250 266.3C249.8 266.3 249.7 266.2 249.5 266.2C249.4 266.2 249.3 266.1 249.2 266.1C248.2 265.9 247.2 265.6 246.2 265.4C246 265.4 245.9 265.3 245.7 265.3C245.5 265.2 245.2 265.2 245 265.1C244.9 265.1 244.8 265 244.7 265H244.6C242.8 264.5 241.1 263.9 239.5 263.3C239.4 263.3 239.3 263.2 239.2 263.2C238.6 263 238.1 262.7 237.5 262.5L236.6 262.1C236.3 262 236.1 261.9 235.8 261.8C234.5 261.2 233.3 260.6 232.3 260C229.1 257.9 226.4 255.8 224.3 253.5Z" fill="black"/>
<path d="M266 283.6C265.7 283.6 265.4 283.6 265.2 283.6C264.5 283.6 263.8 283.6 263.2 283.5C262.4 283.5 261.7 283.4 260.9 283.4C260.2 283.4 259.5 283.3 258.8 283.2C258.1 283.1 257.3 283 256.6 283C256.4 283 256.2 282.9 256 282.9L255.3 282.8C255.1 282.8 254.9 282.8 254.6 282.7C254.4 282.7 254.2 282.6 254 282.6C253.9 282.6 253.7 282.6 253.6 282.5C252.8 282.4 251.9 282.2 251.1 282.1C250.9 282.1 250.8 282 250.6 282C250.4 282 250.1 281.9 249.9 281.9C249.7 281.9 249.6 281.8 249.4 281.8C249.3 281.8 249.2 281.7 249.1 281.7C248.2 281.5 247.3 281.3 246.1 281C245.9 281 245.8 280.9 245.6 280.9C245.4 280.8 245.1 280.8 244.9 280.7C244.8 280.7 244.7 280.6 244.6 280.6C242.7 280 241 279.5 239.4 278.8C239.3 278.8 239.2 278.7 239.1 278.7C238.5 278.5 238 278.2 237.5 278L237 277.8C236.8 277.7 236.7 277.7 236.5 277.6C236.2 277.5 236 277.4 235.7 277.3C234.4 276.7 233.3 276.1 232.2 275.5C227.3 272.7 223.5 269.3 221 265.5C220.5 264.7 220.7 263.7 221.5 263.1C222.3 262.6 223.3 262.8 223.9 263.6C226.1 267 229.5 270 233.9 272.5C234.9 273.1 236 273.6 237.2 274.2C237.4 274.3 237.6 274.4 237.8 274.5C238 274.6 238.1 274.6 238.3 274.7L238.8 274.9C239.3 275.1 239.8 275.3 240.3 275.5C240.4 275.5 240.5 275.6 240.6 275.6C242.1 276.2 243.7 276.7 245.4 277.2C245.5 277.2 245.6 277.3 245.7 277.3C246 277.4 246.2 277.4 246.4 277.5C246.6 277.5 246.8 277.6 247 277.6C247.9 277.8 248.9 278.1 249.8 278.3C249.9 278.3 250.1 278.4 250.2 278.4C250.3 278.4 250.4 278.5 250.5 278.5C250.7 278.5 250.9 278.6 251.1 278.6C251.3 278.6 251.5 278.7 251.7 278.7C252.5 278.9 253.3 279 254.1 279.1C254.3 279.1 254.4 279.2 254.6 279.2C254.8 279.2 254.9 279.3 255.1 279.3C255.3 279.3 255.5 279.3 255.6 279.4L256.9 279.6C257.6 279.7 258.3 279.8 259 279.8C259.7 279.9 260.3 279.9 261 280C261.7 280 262.4 280.1 263.2 280.1C263.8 280.1 264.5 280.1 265.1 280.2C265.9 280.2 266.7 280.2 267.4 280.2C268 280.2 268.6 280.2 269.2 280.1C270.2 280.1 271.1 280 272.1 279.9H272.6C272.9 279.9 273.3 279.9 273.6 279.8C275.3 279.6 276.9 279.4 278.4 279.1C278.5 279.1 278.6 279.1 278.7 279H278.9C279 279 279.1 279 279.2 279C279.3 279 279.4 279 279.4 279C279.7 278.9 280 278.9 280.2 278.8C280.4 278.8 280.6 278.7 280.9 278.7L281.2 278.6C281.9 278.5 282.7 278.3 283.4 278.1C283.8 278 284.3 277.9 284.7 277.7L285.3 277.5C286 277.3 286.8 277.1 287.5 276.9C287.6 276.9 287.7 276.8 287.8 276.8H288C288.1 276.8 288.2 276.7 288.3 276.7C288.5 276.6 288.6 276.6 288.8 276.5C290 276.1 291.2 275.6 292.3 275.2L292.5 275.1C292.9 275 293.2 274.8 293.6 274.6C295.3 273.8 296.6 273.2 297.8 272.5L298.3 272.2C298.5 272.1 298.7 271.9 298.9 271.8C299.1 271.7 299.2 271.6 299.4 271.5L299.8 271.3C300.2 271 300.7 270.7 301 270.5C301.3 270.3 301.6 270 301.9 269.8L302.5 269.3C302.9 269 303.2 268.7 303.6 268.4C303.7 268.3 303.7 268.3 303.8 268.2C304.4 267.7 304.9 267.2 305.4 266.6L305.8 266.1C306 265.8 306.3 265.6 306.5 265.3C306.5 265.3 306.5 265.2 306.6 265.2C306.7 265.1 306.7 265 306.8 264.9C307.1 264.5 307.4 264.1 307.6 263.7C308.1 262.9 309.2 262.7 309.9 263.2C310.7 263.7 310.9 264.8 310.4 265.5C310.1 266 309.8 266.5 309.4 266.9L309.3 267C309.2 267.1 309.1 267.3 309 267.4C308.7 267.7 308.5 268 308.2 268.4L307.9 268.7C307.8 268.8 307.8 268.9 307.7 269C307.1 269.6 306.5 270.2 305.9 270.8C305.8 270.9 305.7 270.9 305.6 271C305.2 271.4 304.7 271.7 304.3 272.1L303.7 272.6C303.4 272.9 303 273.1 302.7 273.4C302.3 273.7 301.8 274 301.3 274.3L301 274.5C300.8 274.6 300.7 274.7 300.6 274.8C300.3 275 300.1 275.2 299.8 275.3L299.2 275.6C297.9 276.4 296.5 277.1 294.7 277.9C294.3 278.1 293.9 278.2 293.5 278.4L293.3 278.5C292.1 279 290.8 279.5 289.5 279.9C289.4 279.9 289.3 280 289.2 280C289 280.1 288.8 280.1 288.7 280.2C288.6 280.2 288.5 280.3 288.3 280.3H288.1C287.3 280.5 286.6 280.8 285.8 281L285.2 281.2C284.7 281.3 284.2 281.5 283.8 281.6C283 281.8 282.3 281.9 281.5 282.1L281.2 282.2C281 282.2 280.8 282.3 280.6 282.3C280.3 282.4 280 282.4 279.6 282.5C279.5 282.5 279.5 282.5 279.4 282.5L279 282.6C278.9 282.6 278.7 282.7 278.6 282.7C277 283 275.3 283.2 273.5 283.4C273.1 283.4 272.8 283.5 272.4 283.5H271.9C270.9 283.6 269.9 283.7 268.9 283.7C268.3 283.7 267.6 283.7 267 283.8C267 283.6 266.5 283.6 266 283.6Z" fill="black"/>
<path d="M264.2 267.8C264.1 267.8 264.1 267.8 264 267.8C263.8 267.8 263.5 267.8 263.3 267.8C263.1 267.8 263 267.8 262.8 267.8C262 267.8 261.2 267.7 260.4 267.7C260.3 267.7 260.1 267.7 260 267.7C259.8 267.7 259.6 267.7 259.4 267.7C259.2 267.7 259 267.7 258.7 267.6C258.6 267.6 258.4 267.6 258.3 267.5C257.5 267.4 256.7 267.3 255.9 267.2C255.8 267.2 255.6 267.2 255.5 267.2C255.3 267.2 255 267.2 254.8 267.1C254.6 267.1 254.4 267 254.2 267C254.1 267 253.9 267 253.8 266.9C253 266.8 252.1 266.6 251.3 266.5C251.1 266.5 251 266.4 250.8 266.4C250.6 266.4 250.3 266.3 250.1 266.3C249.9 266.3 249.8 266.2 249.6 266.2C249.5 266.2 249.4 266.1 249.3 266.1C248.4 265.9 247.5 265.7 246.3 265.4C246.1 265.4 246 265.3 245.8 265.3C245.5 265.2 245.3 265.2 245 265.1C244.9 265.1 244.8 265 244.7 265C242.8 264.4 241.1 263.9 239.5 263.2C239.4 263.2 239.3 263.1 239.2 263.1C238.6 262.9 238.1 262.6 237.5 262.4L236.6 262C236.3 261.9 236.1 261.8 235.8 261.6C234.5 261 233.3 260.4 232.3 259.8C222.9 254.4 217.7 247 217.7 239.2L217.8 216.3C217.8 215.4 218.6 214.6 219.5 214.6C220.4 214.6 221.2 215.4 221.2 216.3C221.2 222.9 225.7 229.2 234.1 234C235.1 234.6 236.2 235.1 237.4 235.7C237.6 235.8 237.8 235.9 238 236C238.2 236.1 238.3 236.1 238.5 236.2C239.2 236.5 240 236.9 240.8 237.2C242.3 237.8 243.9 238.3 245.6 238.8C246 238.9 246.3 239 246.7 239.1L247.1 239.2C248 239.4 249 239.7 249.9 239.9C250.5 240 251.2 240.2 251.8 240.3C252.6 240.5 253.4 240.6 254.2 240.7C254.9 240.8 255.6 240.9 256.2 241C257 241.1 257.7 241.2 258.5 241.3C259.2 241.4 259.9 241.4 260.6 241.5C261.4 241.6 262.1 241.6 262.9 241.6C263.6 241.6 264.3 241.6 265 241.7C265.8 241.7 266.7 241.7 267.5 241.7C268.2 241.7 268.8 241.7 269.5 241.6C270.5 241.6 271.6 241.5 272.6 241.4H273.2C273.6 241.4 273.9 241.3 274.3 241.3C276.1 241.1 277.8 240.9 279.5 240.6C279.9 240.5 280.2 240.5 280.6 240.4L281.5 240.2C282.3 240 283 239.9 283.7 239.7C284.1 239.6 284.5 239.5 284.9 239.4L285.6 239.2C286.3 239 287 238.8 287.7 238.6C288 238.5 288.2 238.4 288.5 238.3L289 238.1C290.2 237.7 291.4 237.2 292.5 236.8L292.7 236.7C293.1 236.5 293.4 236.4 293.8 236.2C295.5 235.4 296.8 234.8 298 234.1C298.4 233.9 298.8 233.6 299.2 233.3L300 232.8C300.4 232.5 300.9 232.2 301.3 231.9C301.6 231.7 301.9 231.4 302.2 231.2L302.8 230.8C303.2 230.5 303.6 230.2 303.9 229.9C304.6 229.2 305.2 228.7 305.7 228.1L306 227.8C306.4 227.3 306.8 226.8 307.1 226.4C307.4 226 307.7 225.5 308.1 224.9L308.3 224.6C308.4 224.4 308.6 224.2 308.7 223.9C308.9 223.5 309.1 223.1 309.3 222.6L309.5 222.2C309.6 222 309.7 221.7 309.8 221.5C309.9 221.1 310 220.8 310.1 220.4L310.2 219.9C310.3 219.7 310.3 219.4 310.4 219.2C310.5 218.8 310.5 218.5 310.5 218.1V217.9C310.5 217.7 310.5 217.6 310.5 217.4C310.5 217.1 310.6 216.9 310.6 216.6C310.6 215.7 311.4 214.9 312.3 214.9C313.2 214.9 314 215.7 314 216.6L313.9 240C313.9 240.3 313.9 240.5 313.8 240.8C313.8 240.9 313.8 241 313.8 241.1V241.3C313.8 241.8 313.7 242.2 313.6 242.7C313.6 242.8 313.6 242.9 313.6 243C313.6 243.2 313.5 243.5 313.4 243.7C313.4 243.8 313.3 243.9 313.3 244V244.2C313.2 244.7 313.1 245.1 312.9 245.5C312.9 245.6 312.9 245.7 312.8 245.8C312.7 246 312.6 246.2 312.5 246.5C312.5 246.6 312.4 246.7 312.4 246.8C312.2 247.3 311.9 247.8 311.7 248.4C311.6 248.5 311.6 248.7 311.5 248.8C311.4 249 311.3 249.2 311.1 249.3C311.1 249.4 311 249.4 311 249.5C310.6 250.2 310.2 250.7 309.8 251.3L309.7 251.4C309.6 251.5 309.5 251.7 309.4 251.8C309.1 252.1 308.9 252.5 308.6 252.8L308.4 253.1C308.3 253.2 308.3 253.3 308.2 253.4C307.6 254 307 254.6 306.4 255.2C306.3 255.3 306.2 255.3 306.1 255.4C305.7 255.8 305.2 256.1 304.8 256.5L304.2 257C303.9 257.3 303.5 257.5 303.2 257.8C302.8 258.1 302.3 258.4 301.8 258.7L301.5 258.9C301.4 259 301.2 259.1 301.1 259.2C300.8 259.4 300.6 259.6 300.3 259.7L299.7 260C298.4 260.8 297 261.5 295.2 262.3C294.8 262.5 294.4 262.6 294 262.8L293.8 262.9C292.6 263.4 291.3 263.9 290 264.3C289.9 264.3 289.8 264.4 289.7 264.4C289.5 264.5 289.3 264.5 289.2 264.6C289.1 264.6 289 264.7 288.9 264.7H288.7C287.9 264.9 287.1 265.2 286.3 265.4L285.7 265.6C285.2 265.7 284.8 265.9 284.3 266C283.5 266.2 282.7 266.3 281.9 266.5L281.6 266.6C281.4 266.6 281.2 266.7 281 266.7C280.7 266.8 280.4 266.8 280 266.9C279.9 266.9 279.8 266.9 279.8 266.9C278 267.2 276.2 267.5 274.4 267.7H274.3C274.2 267.7 274.1 267.7 274 267.7C273.7 267.7 273.5 267.7 273.2 267.8C273 267.8 272.9 267.8 272.7 267.8C271.6 267.9 270.6 268 269.5 268C269.4 268 269.3 268 269.2 268C269 268 268.9 268 268.7 268C268.4 268 268.2 268 267.9 268C267.7 268 267.6 268 267.4 268C266.5 268 265.7 268 264.8 268C264.7 268 264.5 268 264.4 268C264.5 267.8 264.3 267.8 264.2 267.8ZM221.2 226.8L221.1 239.1C221.1 245.7 225.6 252 234 256.8C235 257.4 236.1 258 237.3 258.5C237.5 258.6 237.7 258.7 238 258.8L239 259.2C239.5 259.4 240 259.7 240.5 259.9C240.6 259.9 240.7 260 240.8 260C242.3 260.6 243.9 261.1 245.6 261.6C245.7 261.6 245.8 261.7 245.9 261.7C246.2 261.8 246.4 261.8 246.6 261.9C246.8 261.9 247 262 247.2 262C248.1 262.2 249.1 262.5 250 262.7C250.1 262.7 250.3 262.8 250.4 262.8C250.5 262.8 250.6 262.9 250.7 262.9C250.9 262.9 251.1 263 251.3 263C251.5 263 251.7 263.1 251.9 263.1C252.7 263.3 253.5 263.4 254.3 263.5C254.5 263.5 254.6 263.6 254.8 263.6C255 263.6 255.1 263.7 255.3 263.7C255.5 263.7 255.7 263.7 255.8 263.8C256 263.8 256.2 263.8 256.3 263.9C257.1 264 257.8 264.1 258.6 264.2C258.8 264.2 259 264.2 259.1 264.3C259.3 264.3 259.5 264.3 259.6 264.4C259.8 264.4 259.9 264.4 260.1 264.4C260.3 264.4 260.4 264.4 260.6 264.4C261.4 264.5 262.1 264.5 262.9 264.5C263.1 264.5 263.3 264.5 263.5 264.5C263.7 264.5 263.9 264.5 264.1 264.5C264.2 264.5 264.4 264.5 264.5 264.5C264.7 264.5 264.8 264.5 265 264.5C265.8 264.5 266.7 264.5 267.5 264.5C267.7 264.5 267.9 264.5 268.1 264.5C268.3 264.5 268.5 264.5 268.7 264.5C268.8 264.5 268.9 264.5 269 264.5C269.1 264.5 269.3 264.5 269.4 264.5C270.4 264.5 271.4 264.4 272.5 264.3C272.7 264.3 272.9 264.3 273.1 264.3C273.3 264.3 273.5 264.3 273.7 264.3H273.8C273.9 264.3 274 264.3 274.1 264.3C275.9 264.1 277.6 263.9 279.3 263.6C279.4 263.6 279.4 263.6 279.5 263.6C279.8 263.5 280.1 263.5 280.3 263.4C280.5 263.4 280.7 263.3 281 263.3L281.3 263.2C282 263 282.8 262.9 283.5 262.7C283.9 262.6 284.4 262.5 284.8 262.4L285.3 262.3C286.1 262.1 286.9 261.9 287.6 261.6C287.7 261.6 287.8 261.5 287.9 261.5L288.1 261.4C288.2 261.4 288.3 261.3 288.4 261.3C288.6 261.2 288.7 261.2 288.9 261.1C290.1 260.7 291.3 260.2 292.4 259.8L292.6 259.7C293 259.5 293.3 259.4 293.7 259.2C295.4 258.4 296.7 257.8 297.9 257.1L298.4 256.8C298.6 256.7 298.8 256.5 299 256.4C299.2 256.3 299.3 256.2 299.5 256.1L299.9 255.9C300.3 255.6 300.8 255.4 301.1 255.1C301.4 254.9 301.7 254.6 302 254.4L302.6 253.9C303 253.6 303.4 253.3 303.7 253C303.8 252.9 303.8 252.9 303.9 252.8C304.5 252.3 305 251.8 305.5 251.2L305.9 250.7C306.1 250.4 306.4 250.1 306.6 249.9L306.7 249.8C306.8 249.7 306.8 249.6 306.9 249.5C307.2 249.1 307.5 248.6 307.9 248C308 247.9 308.1 247.7 308.2 247.6C308.3 247.5 308.3 247.5 308.4 247.4C308.4 247.3 308.5 247.2 308.6 247.1C308.8 246.7 309 246.3 309.2 245.8C309.3 245.6 309.4 245.5 309.4 245.3C309.5 245.2 309.5 245.1 309.6 245C309.6 244.9 309.6 244.8 309.7 244.7C309.8 244.4 309.9 244 310 243.6V243.4C310 243.2 310.1 243.1 310.1 242.9C310.1 242.8 310.2 242.7 310.2 242.5C310.2 242.5 310.2 242.4 310.2 242.3C310.3 241.9 310.3 241.6 310.3 241.2V241C310.3 240.8 310.3 240.7 310.4 240.5C310.4 240.4 310.4 240.2 310.4 240.1V239.8L310.5 227.5C310.2 227.9 310 228.2 309.8 228.6C309.4 229.1 309 229.7 308.5 230.2L308.4 230.3C308.3 230.4 308.3 230.5 308.2 230.6C307.6 231.2 306.9 231.9 306.1 232.6C305.7 233 305.3 233.3 304.8 233.7L304.3 234.1C304 234.4 303.6 234.6 303.3 234.9C302.8 235.2 302.3 235.6 301.9 235.9L301.1 236.4C300.7 236.7 300.2 237 299.7 237.3C298.4 238.1 297 238.8 295.2 239.6C294.8 239.8 294.4 239.9 294 240.1L293.8 240.2C292.6 240.7 291.3 241.2 290 241.6L289.6 241.8C289.3 241.9 289 242 288.7 242.1C288 242.3 287.2 242.5 286.4 242.8L285.7 243C285.3 243.1 284.8 243.2 284.4 243.4C283.6 243.6 282.8 243.7 282 243.9L281.1 244.1C280.7 244.2 280.3 244.3 279.9 244.3C278.2 244.6 276.4 244.9 274.5 245.1C274.1 245.1 273.7 245.2 273.4 245.2H272.9C271.8 245.3 270.8 245.4 269.7 245.4C269 245.4 268.3 245.4 267.7 245.5C266.8 245.5 266 245.5 265.1 245.5C264.4 245.5 263.7 245.5 262.9 245.4C262.1 245.4 261.3 245.3 260.5 245.3C259.8 245.2 259 245.2 258.3 245.1C257.5 245 256.7 244.9 255.9 244.8C255.2 244.7 254.5 244.6 253.8 244.5C253 244.4 252.1 244.2 251.3 244.1C250.6 244 250 243.8 249.3 243.7C248.3 243.5 247.3 243.2 246.3 243L245.9 242.9C245.5 242.8 245.1 242.7 244.7 242.6C242.9 242.1 241.2 241.5 239.6 240.9C238.8 240.6 238 240.2 237.2 239.9C237 239.8 236.9 239.8 236.7 239.7C236.4 239.6 236.2 239.5 235.9 239.4C234.6 238.8 233.5 238.2 232.4 237.6C227.5 233.9 223.7 230.5 221.2 226.8Z" fill="black"/>
<path d="M297.2 292.7C297 292.8 296.8 292.9 296.7 293C295.4 293.8 294 294.4 292.6 295.1C292.2 295.3 291.8 295.5 291.4 295.6C290.3 296.1 289.1 296.5 288 296.9C287.7 297 287.5 297.1 287.2 297.2C287 297.2 286.9 297.3 286.7 297.3C286 297.5 285.2 297.7 284.5 297.9C283.9 298.1 283.4 298.2 282.8 298.4C282 298.6 281.2 298.7 280.4 298.9C279.9 299 279.5 299.1 279 299.2C278.9 299.2 278.8 299.2 278.8 299.2C277.2 299.5 275.5 299.7 273.9 299.9C273.8 299.9 273.7 299.9 273.5 300C273.1 300 272.7 300 272.3 300.1C271.3 300.2 270.3 300.3 269.4 300.3C269.2 300.3 268.9 300.3 268.7 300.3C268.3 300.3 267.9 300.3 267.5 300.3C266.7 300.3 265.9 300.3 265.1 300.3C264.8 300.3 264.5 300.3 264.2 300.3C263.8 300.3 263.5 300.3 263.1 300.2C262.4 300.2 261.6 300.1 260.9 300.1C260.6 300.1 260.3 300.1 259.9 300C259.6 300 259.2 299.9 258.9 299.9C258.2 299.8 257.4 299.7 256.7 299.7C256.4 299.7 256 299.6 255.7 299.6C255.4 299.6 255.1 299.5 254.8 299.4C254 299.3 253.3 299.1 252.5 299C252.1 298.9 251.8 298.9 251.4 298.8C251.2 298.7 250.9 298.7 250.7 298.6C249.8 298.4 248.9 298.2 248 297.9C247.6 297.8 247.3 297.7 246.9 297.6C246.8 297.6 246.7 297.5 246.5 297.5C244.9 297 243.3 296.5 241.8 295.9C241.7 295.9 241.6 295.9 241.6 295.8C240.9 295.5 240.3 295.2 239.6 294.9C239.2 294.7 238.8 294.6 238.5 294.4C237.4 293.9 236.3 293.3 235.3 292.7C235 292.6 234.8 292.4 234.6 292.2V295.1C234.6 299.8 237.7 304.5 243.8 308C244.5 308.4 245.3 308.8 246.1 309.2C246.4 309.3 246.6 309.4 246.9 309.6C247.4 309.8 247.8 310 248.3 310.2C248.4 310.2 248.4 310.2 248.5 310.3C249.6 310.7 250.7 311.1 251.9 311.4C252 311.4 252.1 311.5 252.2 311.5C252.5 311.6 252.7 311.6 253 311.7C253.6 311.9 254.3 312 254.9 312.2C255.1 312.2 255.2 312.3 255.4 312.3C255.7 312.4 255.9 312.4 256.2 312.4C256.8 312.5 257.3 312.6 257.9 312.7C258.1 312.7 258.3 312.8 258.6 312.8C258.8 312.8 259.1 312.9 259.3 312.9C259.8 313 260.3 313 260.9 313.1C261.1 313.1 261.4 313.2 261.6 313.2C261.8 313.2 262.1 313.2 262.3 313.2C262.8 313.2 263.4 313.3 263.9 313.3C264.2 313.3 264.4 313.3 264.7 313.3C264.9 313.3 265.1 313.3 265.3 313.3C265.9 313.3 266.4 313.3 267 313.3C267.3 313.3 267.6 313.3 267.9 313.3C268.1 313.3 268.2 313.3 268.4 313.3C269.1 313.3 269.8 313.2 270.5 313.2C270.8 313.2 271.1 313.2 271.4 313.1C271.5 313.1 271.6 313.1 271.7 313.1C272.9 313 274.1 312.8 275.3 312.6C275.4 312.6 275.4 312.6 275.5 312.6C275.8 312.5 276.2 312.5 276.5 312.4C277.1 312.3 277.7 312.2 278.2 312C278.6 311.9 279 311.8 279.4 311.7C279.9 311.6 280.5 311.4 281 311.2C281.1 311.2 281.2 311.1 281.3 311.1C281.5 311 281.7 311 281.9 310.9C282.7 310.6 283.6 310.3 284.4 310C284.7 309.9 285 309.8 285.3 309.6C286.3 309.1 287.3 308.6 288.3 308.1C288.4 308 288.6 307.9 288.7 307.9C289 307.7 289.2 307.5 289.5 307.4C289.9 307.2 290.3 306.9 290.6 306.6C290.9 306.4 291.2 306.1 291.5 305.9C291.8 305.6 292.2 305.4 292.5 305.1C292.6 305 292.6 305 292.7 304.9C293.1 304.5 293.5 304.2 293.8 303.8C293.9 303.7 293.9 303.6 294 303.6C294.2 303.4 294.4 303.1 294.6 302.9C294.7 302.8 294.7 302.7 294.8 302.6C295.1 302.2 295.3 301.9 295.5 301.5C295.6 301.3 295.7 301.2 295.8 301C295.8 300.9 295.9 300.8 295.9 300.8C296.1 300.5 296.2 300.1 296.4 299.8C296.5 299.6 296.6 299.4 296.7 299.2C296.7 299.1 296.7 299.1 296.8 299C296.9 298.7 297 298.4 297.1 298.1C297.2 297.9 297.2 297.7 297.3 297.5C297.3 297.4 297.3 297.4 297.3 297.3C297.4 297 297.4 296.6 297.4 296.3C297.4 296.1 297.5 295.9 297.5 295.7C297.5 295.6 297.5 295.5 297.5 295.4L297.2 292.7C297.3 292.7 297.2 292.7 297.2 292.7Z" fill="white"/>
<path d="M264.8 315.4C264.7 315.4 264.7 315.4 264.6 315.4C264.4 315.4 264.3 315.4 264.1 315.4H263.8C263.2 315.4 262.7 315.3 262.1 315.3H261.8C261.6 315.3 261.5 315.3 261.3 315.3C261.1 315.3 261 315.3 260.8 315.2H260.5C260 315.1 259.4 315.1 258.9 315H258.6C258.4 315 258.3 315 258.1 314.9C257.9 314.9 257.8 314.9 257.6 314.8H257.4C256.8 314.7 256.3 314.6 255.7 314.5L255.4 314.4C255.2 314.4 255.1 314.3 254.9 314.3C254.8 314.3 254.7 314.2 254.5 314.2H254.3C253.6 314.1 253 313.9 252.3 313.7C252.2 313.7 252.1 313.7 252 313.6C251.8 313.6 251.6 313.5 251.5 313.5C251.4 313.5 251.3 313.4 251.2 313.4C249.9 313 248.8 312.6 247.7 312.2C247.7 312.2 247.6 312.2 247.5 312.1C247.1 311.9 246.7 311.8 246.4 311.6L245.7 311.3C245.5 311.2 245.3 311.1 245.2 311.1C244.3 310.7 243.5 310.3 242.8 309.8C236.3 306 232.7 300.9 232.7 295.4V292.5C232.7 291.9 233 291.3 233.6 291C234.1 290.7 234.8 290.7 235.3 291C235.4 291.1 235.5 291.2 235.7 291.2C235.8 291.3 235.9 291.3 236 291.4C236.9 291.9 237.9 292.5 239.1 293C239.3 293.1 239.5 293.2 239.7 293.3C239.9 293.4 240 293.4 240.2 293.5L240.7 293.7C241.2 293.9 241.6 294.1 242.1 294.3C242.2 294.3 242.3 294.3 242.3 294.4C243.7 294.9 245.2 295.5 246.8 295.9C246.9 295.9 247 296 247.1 296C247.3 296.1 247.5 296.1 247.7 296.2C247.9 296.2 248.1 296.3 248.3 296.3C249.2 296.5 250 296.7 250.9 296.9C251 296.9 251.2 297 251.3 297C251.4 297 251.5 297.1 251.6 297.1C251.8 297.1 251.9 297.2 252.1 297.2C252.3 297.2 252.5 297.3 252.6 297.3C253.3 297.4 254.1 297.6 254.8 297.7C255 297.7 255.1 297.8 255.3 297.8C255.4 297.8 255.6 297.9 255.7 297.9C255.9 297.9 256 297.9 256.2 298C256.4 298 256.5 298 256.7 298.1C257.4 298.2 258.1 298.3 258.8 298.3C259 298.3 259.1 298.3 259.3 298.4C259.5 298.4 259.6 298.4 259.8 298.5C260 298.5 260.1 298.5 260.3 298.5C260.5 298.5 260.6 298.5 260.8 298.5C261.5 298.5 262.2 298.6 263 298.6C263.2 298.6 263.4 298.6 263.5 298.6C263.7 298.6 263.9 298.6 264 298.6C264.1 298.6 264.3 298.6 264.4 298.6C264.6 298.6 264.7 298.6 264.9 298.6C265.7 298.6 266.5 298.6 267.2 298.6C267.4 298.6 267.6 298.6 267.8 298.6C268 298.6 268.2 298.6 268.4 298.6C268.5 298.6 268.6 298.6 268.7 298.6C268.8 298.6 269 298.6 269.1 298.6C270.1 298.6 271 298.5 272 298.4C272.2 298.4 272.4 298.4 272.6 298.4C272.8 298.4 273 298.4 273.2 298.4C273.4 298.4 273.5 298.4 273.6 298.4C275.3 298.2 276.9 298 278.4 297.7C278.5 297.7 278.5 297.7 278.6 297.7C278.9 297.7 279.1 297.6 279.4 297.5C279.6 297.5 279.8 297.4 280 297.4L280.3 297.3C281 297.2 281.7 297 282.4 296.9C282.8 296.8 283.2 296.7 283.6 296.6L284.2 296.4C284.9 296.2 285.6 296 286.2 295.8C286.3 295.8 286.4 295.7 286.5 295.7H286.7C286.8 295.7 286.9 295.6 287 295.6C287.1 295.5 287.3 295.5 287.4 295.4C288.5 295 289.7 294.6 290.7 294.1L290.9 294C291.2 293.9 291.5 293.7 291.9 293.6C293.5 292.9 294.7 292.3 295.8 291.6L296.3 291.3C296.8 291 297.5 291 298 291.3C298.5 291.6 298.9 292.2 298.9 292.8V296.1C298.9 296.3 298.9 296.5 298.8 296.7V297C298.8 297.3 298.7 297.6 298.7 297.9C298.7 298 298.7 298.1 298.7 298.2C298.7 298.4 298.6 298.6 298.5 298.8L298.4 299.1C298.3 299.4 298.2 299.7 298.1 300C298.1 300.1 298.1 300.2 298 300.3C297.9 300.5 297.9 300.6 297.8 300.8C297.8 300.9 297.7 300.9 297.7 301C297.5 301.4 297.4 301.8 297.2 302.1C297.2 302.2 297.1 302.3 297.1 302.4C297 302.5 296.9 302.7 296.8 302.8L296.7 302.9C296.4 303.3 296.2 303.7 295.9 304.1C295.8 304.2 295.7 304.4 295.6 304.5C295.4 304.7 295.3 304.9 295.1 305.1L294.9 305.3C294.8 305.4 294.8 305.4 294.7 305.5C294.3 305.9 293.9 306.3 293.5 306.7C293.4 306.8 293.4 306.8 293.3 306.9C293 307.1 292.7 307.4 292.4 307.6L292 307.9C291.8 308.1 291.5 308.3 291.3 308.5C291 308.7 290.7 308.9 290.3 309.1L289.8 309.4C289.6 309.5 289.4 309.7 289.2 309.8L288.8 310C287.9 310.5 286.9 311 285.7 311.6C285.5 311.7 285.2 311.8 285 311.9L284.8 312C284 312.4 283.1 312.7 282.2 313C282.1 313 282.1 313 282 313.1C281.9 313.2 281.8 313.2 281.6 313.2L281.2 313.3C280.7 313.5 280.2 313.6 279.6 313.7L279.1 313.8C278.8 313.9 278.5 314 278.2 314C277.7 314.1 277.2 314.2 276.7 314.3L276.1 314.4C275.9 314.4 275.7 314.5 275.4 314.5H275.2C274 314.7 272.8 314.9 271.5 315C271.4 315 271.3 315 271.2 315C271 315 270.8 315 270.7 315C270.6 315 270.5 315 270.4 315C269.7 315.1 268.9 315.1 268.2 315.1H268C267.9 315.1 267.8 315.1 267.7 315.1C267.5 315.1 267.3 315.1 267.2 315.1H266.9C266.3 315.1 265.7 315.1 265.1 315.1H264.9C264.9 315.4 264.9 315.4 264.8 315.4ZM236.3 295.5C236.3 299.8 239.3 303.8 244.7 307C245.4 307.4 246.1 307.8 246.9 308.1C247 308.2 247.2 308.2 247.3 308.3L248 308.6C248.3 308.7 248.6 308.9 249 309C249 309 249.1 309 249.2 309.1C250.2 309.5 251.3 309.8 252.4 310.2C252.5 310.2 252.6 310.3 252.6 310.3C252.7 310.3 252.9 310.4 253 310.4C253.1 310.4 253.3 310.5 253.4 310.5C254 310.7 254.6 310.8 255.3 311C255.4 311 255.5 311 255.6 311.1C255.7 311.1 255.7 311.1 255.8 311.1C255.9 311.1 256 311.1 256.2 311.2C256.3 311.2 256.5 311.2 256.6 311.3C257.1 311.4 257.7 311.5 258.2 311.6L258.5 311.7C258.6 311.7 258.7 311.7 258.8 311.8C258.9 311.8 259 311.8 259.1 311.8H259.5C260 311.9 260.5 311.9 261 312H261.4C261.5 312 261.6 312 261.8 312C261.9 312 262 312 262.1 312H262.5C263 312 263.5 312.1 264 312.1C264.1 312.1 264.3 312.1 264.4 312.1C264.5 312.1 264.6 312.1 264.8 312.1C264.9 312.1 265 312.1 265.1 312.1C265.2 312.1 265.3 312.1 265.4 312.1C266 312.1 266.5 312.1 267.1 312.1C267.2 312.1 267.4 312.1 267.5 312.1C267.6 312.1 267.8 312.1 267.9 312.1H268.1C268.2 312.1 268.3 312.1 268.4 312.1C269.1 312.1 269.8 312 270.5 312C270.6 312 270.8 312 270.9 312C271 312 271.2 312 271.3 312H271.5C272.7 311.9 273.9 311.7 275 311.5C275 311.5 275.1 311.5 275.2 311.5C275.4 311.5 275.5 311.4 275.7 311.4C275.9 311.4 276 311.3 276.2 311.3L276.5 311.2C277 311.1 277.4 311 277.9 310.9C278.2 310.8 278.4 310.8 278.7 310.7L279.2 310.6C279.7 310.5 280.2 310.3 280.6 310.2C280.7 310.2 280.8 310.2 280.9 310.1H281C281 310.1 281.1 310.1 281.1 310C281.2 310 281.3 309.9 281.5 309.9C282.3 309.6 283.1 309.3 283.9 309L284.1 308.9C284.3 308.8 284.5 308.7 284.7 308.6C285.8 308.1 286.7 307.6 287.5 307.2L287.9 307C288 306.9 288.2 306.8 288.3 306.7C288.4 306.6 288.5 306.5 288.7 306.5L289 306.3C289.3 306.1 289.5 305.9 289.8 305.8C290 305.7 290.2 305.5 290.4 305.3L290.8 305C291 304.8 291.3 304.6 291.5 304.4C291.6 304.3 291.6 304.3 291.7 304.2C292.1 303.9 292.4 303.5 292.7 303.2L293 302.8C293.1 302.6 293.3 302.5 293.4 302.3C293.5 302.2 293.5 302.1 293.6 302C293.8 301.7 294.1 301.3 294.3 301C294.4 300.9 294.4 300.8 294.5 300.7L294.6 300.6C294.6 300.6 294.6 300.5 294.7 300.4C294.8 300.2 294.9 299.9 295.1 299.6C295.2 299.4 295.2 299.3 295.3 299.2C295.3 299.2 295.3 299.1 295.4 299.1C295.4 299 295.4 299 295.4 298.9C295.5 298.6 295.5 298.4 295.6 298.2V298.1C295.6 298 295.7 297.9 295.7 297.8V297.7C295.7 297.6 295.7 297.6 295.7 297.5C295.7 297.3 295.8 297 295.8 296.8V296.7C295.8 296.6 295.8 296.5 295.8 296.4C295.8 296.3 295.8 296.3 295.8 296.2V295.9C295.1 296.2 294.4 296.6 293.5 297C293.2 297.2 292.8 297.3 292.5 297.5L292.3 297.6C291.2 298.1 290 298.5 288.8 298.9C288.7 298.9 288.6 299 288.5 299C288.3 299.1 288.2 299.1 288 299.2C287.9 299.2 287.8 299.3 287.7 299.3H287.5C286.8 299.5 286.1 299.7 285.3 299.9L284.7 300.1C284.3 300.2 283.8 300.3 283.4 300.4C282.7 300.6 282 300.7 281.2 300.9L280.9 301C280.7 301 280.5 301.1 280.3 301.1C280 301.2 279.7 301.2 279.4 301.3C279.3 301.3 279.3 301.3 279.2 301.3C277.5 301.6 275.8 301.8 274.1 302C273.9 302 273.8 302 273.7 302.1C273.5 302.1 273.2 302.1 273 302.2C272.8 302.2 272.7 302.2 272.5 302.2C271.5 302.3 270.5 302.4 269.5 302.4H269.2C269 302.4 268.9 302.4 268.7 302.4C268.5 302.4 268.2 302.4 268 302.4C267.8 302.4 267.7 302.4 267.5 302.4C266.7 302.4 265.9 302.4 265.1 302.4C265 302.4 264.9 302.4 264.7 302.4C264.5 302.4 264.3 302.4 264.1 302.4C263.9 302.4 263.7 302.4 263.4 302.4C263.3 302.4 263.1 302.4 263 302.4C262.2 302.4 261.5 302.3 260.7 302.3C260.6 302.3 260.4 302.3 260.3 302.3C260.1 302.3 259.9 302.3 259.7 302.3C259.5 302.3 259.3 302.3 259.1 302.2C259 302.2 258.8 302.2 258.7 302.2C258 302.1 257.2 302 256.5 302C256.4 302 256.2 302 256.1 302C255.9 302 255.7 302 255.5 301.9C255.3 301.9 255.1 301.8 254.9 301.8L254.5 301.7C253.7 301.6 252.9 301.4 252.1 301.3C252 301.3 251.8 301.2 251.7 301.2C251.5 301.2 251.3 301.1 251 301.1C250.8 301.1 250.7 301 250.5 301C250.4 301 250.3 301 250.2 300.9C249.3 300.7 248.4 300.5 247.4 300.2C247.2 300.2 247.1 300.1 246.9 300.1C246.7 300 246.4 300 246.2 299.9C246.1 299.9 246 299.8 245.9 299.8C244.1 299.3 242.5 298.7 241 298.1C240.9 298.1 240.8 298 240.8 298C240.3 297.8 239.8 297.6 239.3 297.3L238.4 296.9C238.2 296.8 237.9 296.7 237.7 296.6C237.3 296 236.8 295.7 236.3 295.5Z" fill="black"/>
<path d="M297.7 221.9C296 224.6 293.2 227 289.4 229.2C275.9 236.7 254.4 236.5 241.4 228.7C238.1 226.7 235.7 224.5 234.1 222.1C235.8 219.4 238.6 217 242.4 214.8C255.9 207.2 277.4 207.5 290.4 215.3C293.7 217.2 296.1 219.5 297.7 221.9Z" fill="black"/>
<path d="M265.8 236.3C256.6 236.3 247.5 234.2 240.6 230.1C234.1 226.2 230.5 221 230.4 215.3C230.4 215.2 230.4 215.1 230.4 215V189.4C230.4 172.8 223.1 156.7 210.3 145.2C191.5 128.2 181.6 103.8 183.2 78.3999C185.9 36.1999 221 2.19991 263.3 0.999912C285.9 0.299912 307.3 8.59991 323.5 24.2999C339.7 39.9999 348.7 61.1999 348.7 83.7999C348.7 107.5 338.5 130.1 320.7 145.9C308.4 156.8 301.4 172.6 301.4 189.4V215C301.4 215.1 301.4 215.2 301.4 215.3C301.2 221.2 297.3 226.6 290.2 230.6C283.4 234.5 274.6 236.3 265.8 236.3ZM233.8 214.8C233.8 214.9 233.8 215 233.8 215.1C233.8 219.6 236.8 223.9 242.4 227.2C254.8 234.7 275.5 234.9 288.5 227.7C294.6 224.3 298 219.8 298 215.1C298 215 298 214.9 298 214.8V189.4C298 171.6 305.5 154.8 318.5 143.3C335.6 128.2 345.4 106.5 345.4 83.7999C345.4 62.0999 336.8 41.8999 321.3 26.7999C305.7 11.6999 285.2 3.69991 263.5 4.39991C223 5.59991 189.2 38.1999 186.7 78.6999C185.2 103.1 194.6 126.4 212.7 142.7C226.2 154.9 233.9 171.9 233.9 189.4V214.8H233.8Z" fill="black"/>
<path d="M265.8 236.3C256.6 236.3 247.5 234.2 240.6 230.1C233.9 226.1 230.3 220.7 230.4 214.9C230.5 209 234.5 203.5 241.7 199.5C255.6 191.7 277.8 192 291.2 200C297.9 204 301.5 209.4 301.4 215.2C301.3 221.1 297.3 226.6 290.1 230.6C283.4 234.5 274.6 236.3 265.8 236.3ZM266.1 197.2C257.9 197.2 249.8 199 243.4 202.5C237.3 205.9 233.9 210.3 233.9 215C233.8 219.5 236.9 223.9 242.5 227.2C254.9 234.7 275.6 234.9 288.6 227.7C294.7 224.3 298 219.9 298.1 215.2C298.2 210.7 295.1 206.3 289.5 203C283.1 199.1 274.6 197.2 266.1 197.2Z" fill="black"/>
<path d="M281.5 136.7L272.4 73.5999C269.9 56.4999 285.4 42.1999 302.3 46.0999C319.2 49.9999 326.9 69.4999 317.2 83.8999L281.5 136.7Z" fill="#001F8C"/>
<path d="M262.3 218.5C262.2 218.5 262 218.5 261.9 218.5C261 218.3 260.4 217.4 260.6 216.5L297 63.4999C297.2 62.5999 298.1 61.9999 299 62.1999C299.9 62.3999 300.5 63.2999 300.3 64.1999L264 217.2C263.8 217.9 263.1 218.5 262.3 218.5Z" fill="black"/>
<path d="M289.9 103.5C289.3 103.5 288.6 103.1 288.4 102.5C288 101.6 288.4 100.6 289.2 100.2L303.5 93.4999C304.3 93.0999 305.4 93.4999 305.8 94.2999C306.2 95.1999 305.8 96.1999 305 96.5999L290.7 103.3C290.4 103.4 290.2 103.5 289.9 103.5Z" fill="black"/>
<path d="M294.5 83.5998C294 83.5998 293.6 83.3998 293.2 82.9998L280.6 68.9998C280 68.2998 280 67.1998 280.7 66.5998C281.4 65.9998 282.5 65.9998 283.1 66.6998L295.7 80.6998C296.3 81.3998 296.3 82.4998 295.6 83.0998C295.3 83.4998 294.9 83.5998 294.5 83.5998Z" fill="black"/>
<path d="M252.9 130.8L218.1 93.3999C208.6 83.1999 212.3 66.7999 225.2 61.5999C238.1 56.3999 252.1 65.7999 252.3 79.6999L252.9 130.8Z" fill="#C2C9E3"/>
<path d="M271.5 179.7C270.8 179.7 270.2 179.3 269.9 178.6L229.2 75.2C228.9 74.3 229.3 73.3 230.2 73C231.1 72.7 232.1 73.1 232.4 74L273.2 177.5C273.5 178.4 273.1 179.4 272.2 179.7C271.9 179.7 271.7 179.7 271.5 179.7Z" fill="black"/>
<path d="M243.4 108.3C242.9 108.3 242.4 108.1 242.1 107.6C241.5 106.9 241.7 105.8 242.4 105.2L246.6 101.9C247.3 101.3 248.4 101.5 249 102.2C249.6 102.9 249.4 104 248.7 104.6L244.5 107.9C244.1 108.1 243.7 108.3 243.4 108.3Z" fill="black"/>
<path d="M236.5 90.7999C236.5 90.7999 236.4 90.7999 236.5 90.7999L224.2 90.2999C223.3 90.2999 222.5 89.4999 222.6 88.4999C222.6 87.5999 223.5 86.8999 224.4 86.8999L236.6 87.3999C237.5 87.3999 238.3 88.1999 238.2 89.1999C238.1 89.9999 237.4 90.7999 236.5 90.7999Z" fill="black"/>
<path d="M239.2 97.6C239 97.6 238.7 97.6 238.5 97.4C237.6 97 237.3 96 237.7 95.1L242.6 84.5C243 83.6 244 83.3 244.9 83.7C245.8 84.1 246.1 85.1 245.7 86L240.8 96.6C240.5 97.3 239.8 97.6 239.2 97.6Z" fill="black"/>
<path d="M259.7 145L228.7 146.7C220.3 147.2 214 139.1 216.6 131C219.2 123 229 120.1 235.6 125.4L259.7 145Z" fill="#C2C9E3"/>
<path d="M258.4 146.2C258.2 146.2 258.1 146.2 257.9 146.1L231.9 138C231 137.7 230.5 136.8 230.8 135.9C231.1 135 232 134.5 232.9 134.8L258.9 142.9C259.8 143.2 260.3 144.1 260 145C259.8 145.7 259.1 146.2 258.4 146.2Z" fill="black"/>
<path d="M244.6 141.9C243.7 141.9 243 141.3 242.9 140.4L242.4 135.9C242.3 135 243 134.1 243.9 134C244.8 133.9 245.7 134.6 245.8 135.5L246.3 140C246.4 140.9 245.7 141.8 244.8 141.9C244.7 141.9 244.7 141.9 244.6 141.9Z" fill="black"/>
<path d="M235.8 145.2C235.4 145.2 235 145.1 234.7 144.8C234 144.2 233.9 143.1 234.5 142.4L238.5 137.6C239.1 136.9 240.2 136.8 240.9 137.4C241.6 138 241.7 139.1 241.1 139.8L237.1 144.6C236.8 145 236.3 145.2 235.8 145.2Z" fill="black"/>
<path d="M236.7 139.4C236 139.4 235.4 139 235.1 138.3L232.3 131.3C232 130.4 232.4 129.4 233.3 129.1C234.2 128.8 235.2 129.2 235.5 130.1L238.3 137.1C238.6 138 238.2 139 237.3 139.3C237.1 139.4 236.9 139.4 236.7 139.4Z" fill="black"/>
<path d="M280.1 144.1L299.2 121.8C304.4 115.8 314 116.8 317.8 123.8C321.6 130.8 317.1 139.4 309.2 140.4L280.1 144.1Z" fill="#001F8C"/>
<path d="M279.6 145.8C279 145.8 278.4 145.5 278.1 144.9C277.6 144.1 277.9 143 278.8 142.6L307.4 126.9C308.2 126.4 309.3 126.7 309.7 127.6C310.2 128.4 309.9 129.5 309 129.9L280.4 145.6C280.1 145.8 279.8 145.8 279.6 145.8Z" fill="black"/>
<path d="M298.8 140.4C298.4 140.4 298.1 140.3 297.8 140L293.9 137C293.2 136.4 293 135.4 293.6 134.6C294.2 133.9 295.2 133.7 296 134.3L299.9 137.3C300.6 137.9 300.8 138.9 300.2 139.7C299.8 140.2 299.3 140.4 298.8 140.4Z" fill="black"/>
<path d="M300.1 134.5C299.2 134.5 298.5 133.9 298.4 133L297.6 126.1C297.5 125.2 298.2 124.3 299.1 124.2C300 124.1 300.9 124.8 301 125.7L301.8 132.6C301.9 133.5 301.2 134.4 300.3 134.5C300.2 134.5 300.1 134.5 300.1 134.5Z" fill="black"/>
<path d="M311.6 136C311.4 136 311.2 136 311 135.9L302.8 132.5C301.9 132.1 301.5 131.2 301.9 130.3C302.3 129.4 303.2 129 304.1 129.4L312.3 132.8C313.2 133.2 313.6 134.1 313.2 135C312.9 135.6 312.3 136 311.6 136Z" fill="black"/>
<path d="M245.9 311.1C245.9 311.1 260.2 316.3 263.9 325.2C267.5 334.1 265 348.5 258.8 352L258.7 353.8L327.6 313.7L297.3 296C297.3 296 298 323 245.9 311.1Z" fill="black"/>
<path d="M108.299 149.3C112.599 146.8 116.099 148.8 116.099 153.8C116.099 158.8 112.599 164.8 108.299 167.3L9.49922 224.3C5.19922 226.8 1.69922 224.8 1.69922 219.8C1.69922 214.9 5.19922 208.8 9.49922 206.3L108.299 149.3Z" fill="#C2C9E3"/>
<path d="M94.9992 128.3C99.2992 125.8 102.799 127.8 102.799 132.8C102.799 137.8 99.2992 143.8 94.9992 146.3L66.9992 162.4C62.6992 164.9 59.1992 162.9 59.1992 157.9C59.1992 152.9 62.6992 146.9 66.9992 144.4L94.9992 128.3Z" fill="#C2C9E3"/>
<path d="M130.701 53.0001C135.001 50.5001 138.501 52.5001 138.501 57.5001C138.501 62.4001 135.001 68.5001 130.701 71.0001L102.601 87.2001C98.3008 89.7001 94.8008 87.7001 94.8008 82.7001C94.8008 77.7001 98.3008 71.7001 102.601 69.2001L130.701 53.0001Z" fill="#001F8C"/>
<path d="M93.6992 64.3996C92.6992 64.3996 91.6992 64.1996 90.7992 63.5996C88.7992 62.3996 87.6992 60.0996 87.6992 57.0996C87.6992 51.4996 91.4992 44.8996 96.2992 42.0996L109.699 34.3996C112.299 32.8996 114.899 32.6996 116.899 33.7996C118.899 34.9996 119.999 37.2996 119.999 40.2996C119.999 45.8996 116.199 52.4996 111.399 55.2996L98.0992 62.9996C96.5992 63.8996 95.0992 64.3996 93.6992 64.3996ZM114.099 36.4996C113.299 36.4996 112.399 36.7996 111.399 37.2996L97.9992 44.9996C94.1992 47.1996 91.0992 52.6996 91.0992 56.9996C91.0992 58.6996 91.5992 59.9996 92.4992 60.4996C93.3992 60.9996 94.7992 60.7996 96.2992 59.8996L109.699 52.1996C113.499 49.9996 116.599 44.4996 116.599 40.1996C116.599 38.4996 116.099 37.1996 115.199 36.6996C114.999 36.5996 114.599 36.4996 114.099 36.4996Z" fill="black"/>
<path d="M6 198.4C5 198.4 4 198.2 3.1 197.6C1.1 196.4 0 194.1 0 191.1C0 185.5 3.8 178.9 8.6 176.1L44.3 155.5C46.9 154 49.5 153.8 51.6 154.9C53.6 156.1 54.7 158.4 54.7 161.4C54.7 167 50.9 173.6 46.1 176.4L10.4 197C8.9 197.9 7.4 198.4 6 198.4ZM48.7 157.7C47.9 157.7 47 158 46 158.5L10.3 179.1C6.5 181.3 3.4 186.8 3.4 191.1C3.4 192.8 3.9 194.1 4.8 194.6C5.7 195.1 7.1 194.9 8.6 194L44.3 173.4C48.1 171.2 51.3 165.7 51.2 161.4C51.2 159.7 50.7 158.4 49.8 157.9C49.6 157.8 49.2 157.7 48.7 157.7Z" fill="black"/>
<path d="M69.0992 114.5C73.3992 112 76.8992 114 76.8992 119C76.8992 123.9 73.3992 130 69.0992 132.5L9.49922 166.9C5.19922 169.4 1.69922 167.4 1.69922 162.4C1.69922 157.4 5.19922 151.4 9.49922 148.9L69.0992 114.5Z" fill="#C2C9E3"/>
<path d="M59.9996 91.0001C64.2996 88.5001 67.7996 90.5001 67.7996 95.5001C67.7996 100.5 64.2996 106.5 59.9996 109L9.39961 138.2C5.09961 140.7 1.59961 138.7 1.59961 133.7C1.59961 128.7 5.09961 122.7 9.39961 120.2L59.9996 91.0001Z" fill="#001F8C"/>
</svg>
