<svg width="177" height="28" viewBox="0 0 177 28" fill="none" xmlns="http://www.w3.org/2000/svg">
<path d="M20.8031 7.26592H21.8031L24.6531 4.41592L24.7931 3.20592C23.1605 1.76488 21.1874 0.763836 19.0603 0.297356C16.9332 -0.169124 14.7223 -0.0856401 12.6364 0.539922C10.5505 1.16548 8.65854 2.31247 7.1392 3.87254C5.61986 5.4326 4.52331 7.35424 3.95312 9.45592C4.27063 9.32579 4.62234 9.30468 4.95312 9.39592L10.6531 8.45592C10.6531 8.45592 10.9431 7.97592 11.0931 8.00592C12.3145 6.66459 14.0023 5.84082 15.8111 5.70325C17.62 5.56568 19.413 6.12472 20.8231 7.26592H20.8031Z" fill="#EA4335"/>
<path d="M28.715 9.45591C28.0599 7.04355 26.7149 4.87486 24.845 3.21591L20.845 7.21591C21.6786 7.89708 22.3467 8.75865 22.7988 9.73565C23.251 10.7126 23.4753 11.7796 23.455 12.8559V13.5659C24.3992 13.5659 25.3047 13.941 25.9723 14.6086C26.6399 15.2762 27.015 16.1817 27.015 17.1259C27.015 18.0701 26.6399 18.9756 25.9723 19.6432C25.3047 20.3108 24.3992 20.6859 23.455 20.6859H16.335L15.625 21.4059V25.6759L16.335 26.3859H23.455C25.4432 26.4014 27.3837 25.7765 28.9892 24.6037C30.5948 23.4309 31.7802 21.7724 32.3701 19.8736C32.96 17.9749 32.9232 15.9367 32.2649 14.0605C31.6066 12.1843 30.362 10.5699 28.715 9.45591Z" fill="#4285F4"/>
<path d="M9.20328 26.3459H16.3233V20.6459H9.20328C8.69601 20.6458 8.19469 20.5367 7.73328 20.3259L6.73328 20.6359L3.86328 23.4859L3.61328 24.4859C5.22271 25.7012 7.18656 26.3547 9.20328 26.3459Z" fill="#34A853"/>
<path d="M9.20469 7.85592C7.27551 7.86745 5.3981 8.48122 3.83468 9.61153C2.27126 10.7418 1.09991 12.3322 0.484221 14.1605C-0.131463 15.9889 -0.160733 17.9638 0.400502 19.8096C0.961737 21.6554 2.08545 23.2798 3.61469 24.4559L7.74469 20.3259C7.21985 20.0888 6.76038 19.7279 6.40569 19.2742C6.051 18.8204 5.81169 18.2874 5.70828 17.7209C5.60488 17.1543 5.64047 16.5711 5.81201 16.0213C5.98354 15.4716 6.2859 14.9716 6.69313 14.5644C7.10036 14.1571 7.60032 13.8548 8.1501 13.6832C8.69987 13.5117 9.28306 13.4761 9.84962 13.5795C10.4162 13.6829 10.9492 13.9222 11.4029 14.2769C11.8567 14.6316 12.2176 15.0911 12.4547 15.6159L16.5847 11.4859C15.7178 10.3527 14.6006 9.43533 13.3203 8.8056C12.04 8.17587 10.6314 7.85084 9.20469 7.85592Z" fill="#FBBC05"/>
<path d="M51.7457 22.3659C50.5198 22.3815 49.3034 22.1495 48.1694 21.6839C47.0353 21.2182 46.0069 20.5284 45.1457 19.6559C44.2574 18.8204 43.5525 17.8093 43.0756 16.6869C42.5988 15.5645 42.3604 14.3553 42.3757 13.1359C42.361 11.9166 42.5997 10.7075 43.0765 9.58521C43.5533 8.4629 44.2579 7.4518 45.1457 6.61589C46.0026 5.73429 47.0292 5.03527 48.1634 4.56093C49.2977 4.0866 50.5163 3.84677 51.7457 3.85589C52.9171 3.84028 54.08 4.05767 55.1667 4.49543C56.2534 4.9332 57.2422 5.5826 58.0757 6.40589L56.2957 8.21589C55.0767 7.03784 53.4407 6.39063 51.7457 6.41589C50.8664 6.40509 49.9945 6.57732 49.1854 6.92163C48.3762 7.26594 47.6476 7.77481 47.0457 8.41589C46.4202 9.03646 45.9267 9.77722 45.595 10.5935C45.2633 11.4099 45.1003 12.2849 45.1157 13.1659C45.1084 14.0368 45.2753 14.9005 45.6068 15.7059C45.9382 16.5114 46.4275 17.2424 47.0457 17.8559C48.284 19.09 49.9552 19.792 51.7033 19.8126C53.4515 19.8331 55.1387 19.1705 56.4057 17.9659C57.1901 17.1069 57.6713 16.0145 57.7757 14.8559H51.7757V12.2959H60.2657C60.3491 12.8115 60.3826 13.3339 60.3657 13.8559C60.4185 14.9363 60.2516 16.0162 59.8752 17.0303C59.4988 18.0444 58.9206 18.9716 58.1757 19.7559C57.3474 20.6182 56.3467 21.2964 55.2388 21.7461C54.1309 22.1958 52.9407 22.407 51.7457 22.3659ZM71.4857 20.6659C70.3463 21.7581 68.829 22.3678 67.2507 22.3678C65.6724 22.3678 64.1551 21.7581 63.0157 20.6659C62.4486 20.116 62.002 19.4543 61.7041 18.7227C61.4063 17.991 61.2638 17.2055 61.2857 16.4159C61.2644 15.6264 61.4072 14.841 61.705 14.1095C62.0028 13.3779 62.4491 12.7161 63.0157 12.1659C64.1563 11.076 65.6731 10.4678 67.2507 10.4678C68.8283 10.4678 70.3451 11.076 71.4857 12.1659C72.0523 12.7161 72.4986 13.3779 72.7964 14.1095C73.0942 14.841 73.2369 15.6264 73.2157 16.4159C73.2363 17.2062 73.0922 17.9922 72.7926 18.7239C72.4931 19.4555 72.0446 20.1169 71.4757 20.6659H71.4857ZM64.8857 18.9959C65.1888 19.3195 65.555 19.5775 65.9618 19.7539C66.3686 19.9303 66.8073 20.0213 67.2507 20.0213C67.6941 20.0213 68.1328 19.9303 68.5396 19.7539C68.9464 19.5775 69.3126 19.3195 69.6157 18.9959C69.9461 18.6544 70.2049 18.2501 70.3766 17.807C70.5484 17.3639 70.6297 16.8909 70.6157 16.4159C70.6304 15.9393 70.5495 15.4645 70.3778 15.0197C70.206 14.5749 69.9469 14.1689 69.6157 13.8259C69.3086 13.5056 68.9399 13.2507 68.5317 13.0765C68.1236 12.9024 67.6844 12.8126 67.2407 12.8126C66.7969 12.8126 66.3578 12.9024 65.9496 13.0765C65.5415 13.2507 65.1728 13.5056 64.8657 13.8259C64.5345 14.1689 64.2754 14.5749 64.1036 15.0197C63.9318 15.4645 63.851 15.9393 63.8657 16.4159C63.8531 16.8916 63.9359 17.365 64.1094 17.8082C64.2829 18.2513 64.5434 18.6552 64.8757 18.9959H64.8857ZM84.5057 20.6659C83.3663 21.7581 81.849 22.3678 80.2707 22.3678C78.6924 22.3678 77.1751 21.7581 76.0357 20.6659C75.4686 20.116 75.0219 19.4543 74.7241 18.7227C74.4263 17.991 74.2838 17.2055 74.3057 16.4159C74.2844 15.6264 74.4272 14.841 74.725 14.1095C75.0228 13.3779 75.4691 12.7161 76.0357 12.1659C77.1751 11.0737 78.6924 10.4639 80.2707 10.4639C81.849 10.4639 83.3663 11.0737 84.5057 12.1659C85.0723 12.7161 85.5186 13.3779 85.8164 14.1095C86.1142 14.841 86.2569 15.6264 86.2357 16.4159C86.2575 17.2055 86.1151 17.991 85.8172 18.7227C85.5194 19.4543 85.0728 20.116 84.5057 20.6659ZM77.9057 18.9959C78.2088 19.3195 78.575 19.5775 78.9818 19.7539C79.3886 19.9303 79.8273 20.0213 80.2707 20.0213C80.7141 20.0213 81.1528 19.9303 81.5596 19.7539C81.9664 19.5775 82.3326 19.3195 82.6357 18.9959C82.9661 18.6544 83.2249 18.2501 83.3966 17.807C83.5684 17.3639 83.6496 16.8909 83.6357 16.4159C83.6504 15.9393 83.5695 15.4645 83.3978 15.0197C83.226 14.5749 82.9669 14.1689 82.6357 13.8259C82.3286 13.5056 81.9599 13.2507 81.5518 13.0765C81.1436 12.9024 80.7044 12.8126 80.2607 12.8126C79.8169 12.8126 79.3778 12.9024 78.9696 13.0765C78.5615 13.2507 78.1928 13.5056 77.8857 13.8259C77.5545 14.1689 77.2953 14.5749 77.1236 15.0197C76.9518 15.4645 76.871 15.9393 76.8857 16.4159C76.8731 16.8916 76.9559 17.365 77.1294 17.8082C77.3029 18.2513 77.5634 18.6552 77.8957 18.9959H77.9057ZM93.0657 27.7059C91.8671 27.744 90.6917 27.3699 89.7357 26.6459C88.8869 26.0078 88.2184 25.1601 87.7957 24.1859L90.0757 23.2359C90.3238 23.8181 90.712 24.3299 91.2057 24.7259C91.7341 25.1519 92.3972 25.3753 93.0757 25.3559C93.5059 25.3821 93.9367 25.3152 94.3388 25.1599C94.7409 25.0046 95.1048 24.7645 95.4057 24.4559C96.0082 23.7292 96.3056 22.7973 96.2357 21.8559V20.9959H96.1457C95.7646 21.4485 95.2834 21.8061 94.7401 22.0405C94.1968 22.2748 93.6064 22.3793 93.0157 22.3459C92.2649 22.3482 91.5218 22.1947 90.8333 21.8952C90.1448 21.5957 89.5259 21.1567 89.0157 20.6059C88.4621 20.0595 88.0251 19.4064 87.7311 18.6862C87.4372 17.966 87.2925 17.1936 87.3057 16.4159C87.2919 15.6336 87.4362 14.8565 87.7301 14.1314C88.0239 13.4062 88.4612 12.7479 89.0157 12.1959C89.5246 11.6428 90.1431 11.2016 90.8317 10.9003C91.5203 10.599 92.264 10.4443 93.0157 10.4459C93.6518 10.4448 94.2802 10.5848 94.8557 10.8559C95.3535 11.0733 95.7973 11.3976 96.1557 11.8059H96.2457V10.8559H98.7257V21.5059C98.791 22.3484 98.6836 23.1953 98.4102 23.9949C98.1368 24.7944 97.7031 25.5298 97.1357 26.1559C96.5952 26.673 95.9566 27.0765 95.2575 27.3428C94.5585 27.609 93.8132 27.7324 93.0657 27.7059ZM93.2457 20.0259C93.6727 20.0353 94.0965 19.9505 94.4871 19.7777C94.8777 19.6049 95.2255 19.3482 95.5057 19.0259C96.1227 18.3188 96.448 17.4037 96.4157 16.4659C96.4527 15.5122 96.1276 14.5798 95.5057 13.8559C95.2259 13.533 94.8782 13.276 94.4875 13.1031C94.0969 12.9302 93.6728 12.8458 93.2457 12.8559C92.807 12.8469 92.3714 12.9314 91.968 13.1038C91.5645 13.2762 91.2024 13.5326 90.9057 13.8559C90.2442 14.5538 89.8848 15.4845 89.9057 16.4459C89.8955 16.9174 89.9786 17.3863 90.1502 17.8257C90.3218 18.265 90.5786 18.6661 90.9057 19.0059C91.201 19.3323 91.5624 19.592 91.9658 19.7679C92.3693 19.9438 92.8056 20.0317 93.2457 20.0259ZM103.136 4.52589V22.0059H100.526V4.52589H103.136ZM110.296 22.3659C109.514 22.386 108.737 22.2445 108.012 21.9502C107.288 21.656 106.632 21.2153 106.086 20.6559C105.531 20.1005 105.096 19.4383 104.805 18.7094C104.515 17.9806 104.375 17.2003 104.396 16.4159C104.366 15.6296 104.495 14.8454 104.775 14.1101C105.055 13.3747 105.481 12.7033 106.026 12.1359C106.539 11.5944 107.161 11.1661 107.849 10.8785C108.538 10.5909 109.279 10.4504 110.026 10.4659C110.712 10.4586 111.392 10.5913 112.026 10.8559C112.596 11.0859 113.116 11.4259 113.556 11.8559C113.933 12.2205 114.269 12.6263 114.556 13.0659C114.788 13.4369 114.986 13.8289 115.146 14.2359L115.416 14.9159L107.416 18.2059C107.658 18.7618 108.062 19.2313 108.576 19.5527C109.091 19.874 109.69 20.032 110.296 20.0059C110.885 20.0075 111.465 19.8563 111.978 19.5672C112.492 19.278 112.922 18.8607 113.226 18.3559L115.226 19.7059C114.715 20.4361 114.062 21.0552 113.306 21.5259C112.406 22.0942 111.36 22.3863 110.296 22.3659ZM106.956 16.2359L112.276 14.0259C112.112 13.6362 111.819 13.3149 111.446 13.1159C111.028 12.88 110.555 12.7593 110.076 12.7659C109.262 12.787 108.489 13.1284 107.926 13.7159C107.588 14.0386 107.327 14.4318 107.159 14.8674C106.991 15.3031 106.922 15.7703 106.956 16.2359ZM129.086 22.3659C127.976 22.385 126.873 22.1797 125.845 21.7622C124.816 21.3447 123.882 20.7237 123.1 19.9363C122.317 19.149 121.701 18.2116 121.29 17.1805C120.879 16.1494 120.68 15.0457 120.706 13.9359C120.68 12.826 120.879 11.7224 121.29 10.6913C121.701 9.66016 122.317 8.72279 123.1 7.93546C123.882 7.14812 124.816 6.52707 125.845 6.10956C126.873 5.69206 127.976 5.48673 129.086 5.50589C130.209 5.47076 131.326 5.68996 132.353 6.14711C133.38 6.60425 134.29 7.28753 135.016 8.14589L133.576 9.54589C133.043 8.87578 132.36 8.34087 131.581 7.98466C130.803 7.62844 129.951 7.46098 129.096 7.49589C128.272 7.47734 127.454 7.62546 126.689 7.93134C125.924 8.23723 125.229 8.69458 124.646 9.27589C124.039 9.8859 123.565 10.6148 123.254 11.4167C122.942 12.2186 122.8 13.0763 122.836 13.9359C122.8 14.7954 122.942 15.6531 123.254 16.4551C123.565 17.257 124.039 17.9859 124.646 18.5959C125.229 19.1772 125.924 19.6345 126.689 19.9404C127.454 20.2463 128.272 20.3944 129.096 20.3759C130.051 20.3866 130.997 20.1818 131.863 19.7767C132.728 19.3715 133.492 18.7765 134.096 18.0359L135.536 19.4759C134.782 20.3775 133.835 21.0985 132.766 21.5859C131.613 22.1181 130.355 22.3847 129.086 22.3659ZM139.406 22.0059H137.336V5.85589H139.406V22.0059ZM142.786 12.2859C143.87 11.2087 145.337 10.6041 146.866 10.6041C148.394 10.6041 149.861 11.2087 150.946 12.2859C151.476 12.8459 151.891 13.5053 152.165 14.2261C152.44 14.9469 152.569 15.7149 152.546 16.4859C152.569 17.2569 152.44 18.0249 152.165 18.7457C151.891 19.4665 151.476 20.1259 150.946 20.6859C149.861 21.7631 148.394 22.3676 146.866 22.3676C145.337 22.3676 143.87 21.7631 142.786 20.6859C142.255 20.1259 141.841 19.4665 141.566 18.7457C141.292 18.0249 141.162 17.2569 141.186 16.4859C141.162 15.7149 141.292 14.9469 141.566 14.2261C141.841 13.5053 142.255 12.8459 142.786 12.2859ZM144.326 19.3859C144.652 19.7306 145.045 20.0051 145.481 20.1928C145.917 20.3804 146.386 20.4772 146.861 20.4772C147.335 20.4772 147.805 20.3804 148.241 20.1928C148.677 20.0051 149.07 19.7306 149.396 19.3859C149.757 18.9977 150.038 18.5413 150.222 18.0434C150.406 17.5455 150.489 17.0161 150.466 16.4859C150.489 15.9557 150.406 15.4262 150.222 14.9284C150.038 14.4305 149.757 13.9741 149.396 13.5859C149.07 13.2412 148.677 12.9667 148.241 12.779C147.805 12.5914 147.335 12.4946 146.861 12.4946C146.386 12.4946 145.917 12.5914 145.481 12.779C145.045 12.9667 144.652 13.2412 144.326 13.5859C143.964 13.9741 143.683 14.4305 143.499 14.9284C143.316 15.4262 143.233 15.9557 143.256 16.4859C143.235 17.0151 143.32 17.5431 143.506 18.0392C143.691 18.5353 143.973 18.9897 144.336 19.3759L144.326 19.3859ZM164.016 22.0059H162.016V20.4759H161.956C161.6 21.057 161.096 21.5332 160.496 21.8559C159.873 22.2169 159.166 22.4066 158.446 22.4059C157.861 22.4459 157.275 22.3533 156.732 22.1351C156.188 21.917 155.7 21.5788 155.306 21.1459C154.548 20.1877 154.168 18.9854 154.236 17.7659V10.9659H156.306V17.3859C156.306 19.4459 157.216 20.4759 159.036 20.4759C159.44 20.4885 159.842 20.4043 160.207 20.2304C160.572 20.0564 160.891 19.7978 161.136 19.4759C161.672 18.7959 161.958 17.9519 161.946 17.0859V10.9659H164.016V22.0059ZM171.046 22.3659C170.343 22.3682 169.649 22.2184 169.01 21.9266C168.372 21.6349 167.804 21.2082 167.346 20.6759C166.309 19.5308 165.754 18.03 165.796 16.4859C165.754 14.9418 166.309 13.441 167.346 12.2959C167.804 11.7636 168.372 11.3369 169.01 11.0452C169.649 10.7534 170.343 10.6036 171.046 10.6059C171.832 10.5935 172.61 10.7792 173.306 11.1459C173.917 11.4537 174.435 11.9199 174.806 12.4959H174.896L174.806 10.9659V5.85589H176.876V22.0059H174.876V20.4759H174.786C174.415 21.0519 173.897 21.5181 173.286 21.8259C172.596 22.1894 171.826 22.375 171.046 22.3659ZM171.386 20.4759C171.854 20.4827 172.318 20.3899 172.747 20.2037C173.176 20.0175 173.561 19.7422 173.876 19.3959C174.579 18.5952 174.938 17.5497 174.876 16.4859C174.938 15.4221 174.579 14.3766 173.876 13.5759C173.559 13.2277 173.173 12.9496 172.742 12.7593C172.312 12.5689 171.846 12.4706 171.376 12.4706C170.905 12.4706 170.439 12.5689 170.009 12.7593C169.578 12.9496 169.192 13.2277 168.876 13.5759C168.526 13.9697 168.258 14.4286 168.087 14.9262C167.915 15.4239 167.843 15.9505 167.876 16.4759C167.843 17.0013 167.915 17.5279 168.087 18.0256C168.258 18.5232 168.526 18.9821 168.876 19.3759C169.191 19.7283 169.578 20.009 170.011 20.1988C170.444 20.3885 170.913 20.4831 171.386 20.4759Z" fill="white"/>
</svg>
