<svg xmlns="http://www.w3.org/2000/svg" xmlns:xlink="http://www.w3.org/1999/xlink" width="352" height="468" viewBox="0 0 352 468">
    <defs>
        <path id="prefix__a" d="M7.048.231C3.283.231.23 3.324.23 7.141v23.697c0 3.816 3.053 6.91 6.818 6.91h45.73c3.765 0 6.818-3.094 6.818-6.91V7.141c0-3.817-3.053-6.91-6.818-6.91"/>
        <path id="prefix__c" d="M7.048.231C3.283.231.23 3.324.23 7.141v23.697c0 3.816 3.053 6.91 6.818 6.91h45.73c3.765 0 6.818-3.094 6.818-6.91V7.141c0-3.817-3.053-6.91-6.818-6.91"/>
        <path id="prefix__e" d="M7.048.231C3.283.231.23 3.324.23 7.141v23.697c0 3.816 3.053 6.91 6.818 6.91h45.73c3.765 0 6.818-3.094 6.818-6.91V7.141c0-3.817-3.053-6.91-6.818-6.91"/>
        <path id="prefix__g" d="M7.048.231C3.283.231.23 3.324.23 7.141v23.697c0 3.816 3.053 6.91 6.818 6.91h45.73c3.765 0 6.818-3.094 6.818-6.91V7.141c0-3.817-3.053-6.91-6.818-6.91"/>
        <path id="prefix__i" d="M7.048.231C3.283.231.23 3.324.23 7.141v23.697c0 3.816 3.053 6.91 6.818 6.91h45.73c3.765 0 6.818-3.094 6.818-6.91V7.141c0-3.817-3.053-6.91-6.818-6.91"/>
        <path id="prefix__k" d="M7.048.231C3.283.231.23 3.324.23 7.141v23.697c0 3.816 3.053 6.91 6.818 6.91h45.73c3.765 0 6.818-3.094 6.818-6.91V7.141c0-3.817-3.053-6.91-6.818-6.91"/>
        <path id="prefix__m" d="M7.048.231C3.283.231.23 3.324.23 7.141v23.697c0 3.816 3.053 6.91 6.818 6.91h45.73c3.765 0 6.818-3.094 6.818-6.91V7.141c0-3.817-3.053-6.91-6.818-6.91"/>
        <path id="prefix__o" d="M7.048.231C3.283.231.23 3.324.23 7.141v23.697c0 3.816 3.053 6.91 6.818 6.91h45.73c3.765 0 6.818-3.094 6.818-6.91V7.141c0-3.817-3.053-6.91-6.818-6.91"/>
        <path id="prefix__q" d="M7.048.231C3.283.231.23 3.324.23 7.141v23.697c0 3.816 3.053 6.91 6.818 6.91h45.73c3.765 0 6.818-3.094 6.818-6.91V7.141c0-3.817-3.053-6.91-6.818-6.91"/>
        <path id="prefix__s" d="M7.048.231C3.283.231.23 3.324.23 7.141v23.697c0 3.816 3.053 6.91 6.818 6.91h45.73c3.765 0 6.818-3.094 6.818-6.91V7.141c0-3.817-3.053-6.91-6.818-6.91"/>
        <path id="prefix__u" d="M7.048.231C3.283.231.23 3.324.23 7.141v23.697c0 3.816 3.053 6.91 6.818 6.91h45.73c3.765 0 6.818-3.094 6.818-6.91V7.141c0-3.817-3.053-6.91-6.818-6.91"/>
        <path id="prefix__w" d="M7.048.231C3.283.231.23 3.324.23 7.141v23.697c0 3.816 3.053 6.91 6.818 6.91h45.73c3.765 0 6.818-3.094 6.818-6.91V7.141c0-3.817-3.053-6.91-6.818-6.91"/>
        <path id="prefix__y" d="M7.048.231C3.283.231.23 3.324.23 7.141v23.697c0 3.816 3.053 6.91 6.818 6.91h45.73c3.765 0 6.818-3.094 6.818-6.91V7.141c0-3.817-3.053-6.91-6.818-6.91"/>
        <path id="prefix__A" d="M7.048.231C3.283.231.23 3.324.23 7.141v23.697c0 3.816 3.053 6.91 6.818 6.91h45.73c3.765 0 6.818-3.094 6.818-6.91V7.141c0-3.817-3.053-6.91-6.818-6.91"/>
        <path id="prefix__C" d="M7.048.231C3.283.231.23 3.324.23 7.141v23.697c0 3.816 3.053 6.91 6.818 6.91h45.73c3.765 0 6.818-3.094 6.818-6.91V7.141c0-3.817-3.053-6.91-6.818-6.91"/>
        <path id="prefix__E" d="M7.048.231C3.283.231.23 3.324.23 7.141v23.697c0 3.816 3.053 6.91 6.818 6.91h45.73c3.765 0 6.818-3.094 6.818-6.91V7.141c0-3.817-3.053-6.91-6.818-6.91"/>
        <path id="prefix__G" d="M7.048.231C3.283.231.23 3.324.23 7.141v23.697c0 3.816 3.053 6.91 6.818 6.91h45.73c3.765 0 6.818-3.094 6.818-6.91V7.141c0-3.817-3.053-6.91-6.818-6.91"/>
        <path id="prefix__I" d="M7.048.231C3.283.231.23 3.324.23 7.141v23.697c0 3.816 3.053 6.91 6.818 6.91h45.73c3.765 0 6.818-3.094 6.818-6.91V7.141c0-3.817-3.053-6.91-6.818-6.91"/>
        <path id="prefix__K" d="M7.048.231C3.283.231.23 3.324.23 7.141v23.697c0 3.816 3.053 6.91 6.818 6.91h45.73c3.765 0 6.818-3.094 6.818-6.91V7.141c0-3.817-3.053-6.91-6.818-6.91"/>
        <path id="prefix__M" d="M7.048.231C3.283.231.23 3.324.23 7.141v23.697c0 3.816 3.053 6.91 6.818 6.91h45.73c3.765 0 6.818-3.094 6.818-6.91V7.141c0-3.817-3.053-6.91-6.818-6.91"/>
        <path id="prefix__O" d="M7.048.231C3.283.231.23 3.324.23 7.141v23.697c0 3.816 3.053 6.91 6.818 6.91h45.73c3.765 0 6.818-3.094 6.818-6.91V7.141c0-3.817-3.053-6.91-6.818-6.91"/>
        <path id="prefix__Q" d="M7.048.231C3.283.231.23 3.324.23 7.141v23.697c0 3.816 3.053 6.91 6.818 6.91h45.73c3.765 0 6.818-3.094 6.818-6.91V7.141c0-3.817-3.053-6.91-6.818-6.91"/>
        <path id="prefix__S" d="M7.048.231C3.283.231.23 3.324.23 7.141v23.697c0 3.816 3.053 6.91 6.818 6.91h45.73c3.765 0 6.818-3.094 6.818-6.91V7.141c0-3.817-3.053-6.91-6.818-6.91"/>
        <path id="prefix__U" d="M7.048.231C3.283.231.23 3.324.23 7.141v23.697c0 3.816 3.053 6.91 6.818 6.91h45.73c3.765 0 6.818-3.094 6.818-6.91V7.141c0-3.817-3.053-6.91-6.818-6.91"/>
        <path id="prefix__W" d="M7.048.231C3.283.231.23 3.324.23 7.141v23.697c0 3.816 3.053 6.91 6.818 6.91h45.73c3.765 0 6.818-3.094 6.818-6.91V7.141c0-3.817-3.053-6.91-6.818-6.91"/>
        <path id="prefix__Y" d="M7.048.231C3.283.231.23 3.324.23 7.141v23.697c0 3.816 3.053 6.91 6.818 6.91h45.73c3.765 0 6.818-3.094 6.818-6.91V7.141c0-3.817-3.053-6.91-6.818-6.91"/>
        <path id="prefix__aa" d="M7.048.231C3.283.231.23 3.324.23 7.141v23.697c0 3.816 3.053 6.91 6.818 6.91h45.73c3.765 0 6.818-3.094 6.818-6.91V7.141c0-3.817-3.053-6.91-6.818-6.91"/>
        <path id="prefix__ac" d="M7.048.231C3.283.231.23 3.324.23 7.141v23.697c0 3.816 3.053 6.91 6.818 6.91h45.73c3.765 0 6.818-3.094 6.818-6.91V7.141c0-3.817-3.053-6.91-6.818-6.91"/>
        <path id="prefix__ae" d="M7.048.231C3.283.231.23 3.324.23 7.141v23.697c0 3.816 3.053 6.91 6.818 6.91h45.73c3.765 0 6.818-3.094 6.818-6.91V7.141c0-3.817-3.053-6.91-6.818-6.91"/>
        <path id="prefix__ag" d="M7.048.231C3.283.231.23 3.324.23 7.141v23.697c0 3.816 3.053 6.91 6.818 6.91h45.73c3.765 0 6.818-3.094 6.818-6.91V7.141c0-3.817-3.053-6.91-6.818-6.91"/>
        <path id="prefix__ai" d="M7.048.231C3.283.231.23 3.324.23 7.141v23.697c0 3.816 3.053 6.91 6.818 6.91h45.73c3.765 0 6.818-3.094 6.818-6.91V7.141c0-3.817-3.053-6.91-6.818-6.91"/>
        <path id="prefix__ak" d="M7.048.231C3.283.231.23 3.324.23 7.141v23.697c0 3.816 3.053 6.91 6.818 6.91h45.73c3.765 0 6.818-3.094 6.818-6.91V7.141c0-3.817-3.053-6.91-6.818-6.91"/>
        <path id="prefix__am" d="M7.048.231C3.283.231.23 3.324.23 7.141v23.697c0 3.816 3.053 6.91 6.818 6.91h45.73c3.765 0 6.818-3.094 6.818-6.91V7.141c0-3.817-3.053-6.91-6.818-6.91"/>
        <path id="prefix__ao" d="M7.048.231C3.283.231.23 3.324.23 7.141v23.697c0 3.816 3.053 6.91 6.818 6.91h45.73c3.765 0 6.818-3.094 6.818-6.91V7.141c0-3.817-3.053-6.91-6.818-6.91"/>
        <path id="prefix__aq" d="M7.048.231C3.283.231.23 3.324.23 7.141v23.697c0 3.816 3.053 6.91 6.818 6.91h45.73c3.765 0 6.818-3.094 6.818-6.91V7.141c0-3.817-3.053-6.91-6.818-6.91"/>
        <path id="prefix__as" d="M7.048.231C3.283.231.23 3.324.23 7.141v23.697c0 3.816 3.053 6.91 6.818 6.91h45.73c3.765 0 6.818-3.094 6.818-6.91V7.141c0-3.817-3.053-6.91-6.818-6.91"/>
        <path id="prefix__au" d="M7.048.231C3.283.231.23 3.324.23 7.141v23.697c0 3.816 3.053 6.91 6.818 6.91h45.73c3.765 0 6.818-3.094 6.818-6.91V7.141c0-3.817-3.053-6.91-6.818-6.91"/>
        <path id="prefix__aw" d="M7.048.231C3.283.231.23 3.324.23 7.141v23.697c0 3.816 3.053 6.91 6.818 6.91h45.73c3.765 0 6.818-3.094 6.818-6.91V7.141c0-3.817-3.053-6.91-6.818-6.91"/>
        <path id="prefix__ay" d="M7.048.231C3.283.231.23 3.324.23 7.141v23.697c0 3.816 3.053 6.91 6.818 6.91h45.73c3.765 0 6.818-3.094 6.818-6.91V7.141c0-3.817-3.053-6.91-6.818-6.91"/>
        <path id="prefix__aA" d="M7.048.231C3.283.231.23 3.324.23 7.141v23.697c0 3.816 3.053 6.91 6.818 6.91h45.73c3.765 0 6.818-3.094 6.818-6.91V7.141c0-3.817-3.053-6.91-6.818-6.91"/>
        <path id="prefix__aC" d="M7.048.231C3.283.231.23 3.324.23 7.141v23.697c0 3.816 3.053 6.91 6.818 6.91h45.73c3.765 0 6.818-3.094 6.818-6.91V7.141c0-3.817-3.053-6.91-6.818-6.91"/>
        <path id="prefix__aE" d="M7.048.231C3.283.231.23 3.324.23 7.141v23.697c0 3.816 3.053 6.91 6.818 6.91h45.73c3.765 0 6.818-3.094 6.818-6.91V7.141c0-3.817-3.053-6.91-6.818-6.91"/>
        <path id="prefix__aG" d="M7.048.231C3.283.231.23 3.324.23 7.141v23.697c0 3.816 3.053 6.91 6.818 6.91h45.73c3.765 0 6.818-3.094 6.818-6.91V7.141c0-3.817-3.053-6.91-6.818-6.91"/>
        <path id="prefix__aI" d="M7.048.231C3.283.231.23 3.324.23 7.141v23.697c0 3.816 3.053 6.91 6.818 6.91h45.73c3.765 0 6.818-3.094 6.818-6.91V7.141c0-3.817-3.053-6.91-6.818-6.91"/>
        <path id="prefix__aK" d="M7.048.231C3.283.231.23 3.324.23 7.141v23.697c0 3.816 3.053 6.91 6.818 6.91h45.73c3.765 0 6.818-3.094 6.818-6.91V7.141c0-3.817-3.053-6.91-6.818-6.91"/>
        <path id="prefix__aM" d="M7.048.231C3.283.231.23 3.324.23 7.141v23.697c0 3.816 3.053 6.91 6.818 6.91h45.73c3.765 0 6.818-3.094 6.818-6.91V7.141c0-3.817-3.053-6.91-6.818-6.91"/>
        <path id="prefix__aO" d="M7.048.231C3.283.231.23 3.324.23 7.141v23.697c0 3.816 3.053 6.91 6.818 6.91h45.73c3.765 0 6.818-3.094 6.818-6.91V7.141c0-3.817-3.053-6.91-6.818-6.91"/>
        <path id="prefix__aQ" d="M7.048.231C3.283.231.23 3.324.23 7.141v23.697c0 3.816 3.053 6.91 6.818 6.91h45.73c3.765 0 6.818-3.094 6.818-6.91V7.141c0-3.817-3.053-6.91-6.818-6.91"/>
        <path id="prefix__aS" d="M7.048.231C3.283.231.23 3.324.23 7.141v23.697c0 3.816 3.053 6.91 6.818 6.91h45.73c3.765 0 6.818-3.094 6.818-6.91V7.141c0-3.817-3.053-6.91-6.818-6.91"/>
        <path id="prefix__aU" d="M7.048.231C3.283.231.23 3.324.23 7.141v23.697c0 3.816 3.053 6.91 6.818 6.91h45.73c3.765 0 6.818-3.094 6.818-6.91V7.141c0-3.817-3.053-6.91-6.818-6.91"/>
        <path id="prefix__aW" d="M7.048.231C3.283.231.23 3.324.23 7.141v23.697c0 3.816 3.053 6.91 6.818 6.91h45.73c3.765 0 6.818-3.094 6.818-6.91V7.141c0-3.817-3.053-6.91-6.818-6.91"/>
        <path id="prefix__aY" d="M7.048.231C3.283.231.23 3.324.23 7.141v23.697c0 3.816 3.053 6.91 6.818 6.91h45.73c3.765 0 6.818-3.094 6.818-6.91V7.141c0-3.817-3.053-6.91-6.818-6.91"/>
        <path id="prefix__ba" d="M7.048.231C3.283.231.23 3.324.23 7.141v23.697c0 3.816 3.053 6.91 6.818 6.91h45.73c3.765 0 6.818-3.094 6.818-6.91V7.141c0-3.817-3.053-6.91-6.818-6.91"/>
        <path id="prefix__bc" d="M7.048.231C3.283.231.23 3.324.23 7.141v23.697c0 3.816 3.053 6.91 6.818 6.91h45.73c3.765 0 6.818-3.094 6.818-6.91V7.141c0-3.817-3.053-6.91-6.818-6.91"/>
        <path id="prefix__be" d="M7.048.231C3.283.231.23 3.324.23 7.141v23.697c0 3.816 3.053 6.91 6.818 6.91h45.73c3.765 0 6.818-3.094 6.818-6.91V7.141c0-3.817-3.053-6.91-6.818-6.91"/>
        <path id="prefix__bg" d="M7.048.231C3.283.231.23 3.324.23 7.141v23.697c0 3.816 3.053 6.91 6.818 6.91h45.73c3.765 0 6.818-3.094 6.818-6.91V7.141c0-3.817-3.053-6.91-6.818-6.91"/>
        <path id="prefix__bi" d="M7.048.231C3.283.231.23 3.324.23 7.141v23.697c0 3.816 3.053 6.91 6.818 6.91h45.73c3.765 0 6.818-3.094 6.818-6.91V7.141c0-3.817-3.053-6.91-6.818-6.91"/>
        <path id="prefix__bk" d="M7.048.231C3.283.231.23 3.324.23 7.141v23.697c0 3.816 3.053 6.91 6.818 6.91h45.73c3.765 0 6.818-3.094 6.818-6.91V7.141c0-3.817-3.053-6.91-6.818-6.91"/>
        <path id="prefix__bm" d="M7.048.231C3.283.231.23 3.324.23 7.141v23.697c0 3.816 3.053 6.91 6.818 6.91h45.73c3.765 0 6.818-3.094 6.818-6.91V7.141c0-3.817-3.053-6.91-6.818-6.91"/>
        <path id="prefix__bo" d="M7.048.231C3.283.231.23 3.324.23 7.141v23.697c0 3.816 3.053 6.91 6.818 6.91h45.73c3.765 0 6.818-3.094 6.818-6.91V7.141c0-3.817-3.053-6.91-6.818-6.91"/>
        <path id="prefix__bq" d="M7.048.231C3.283.231.23 3.324.23 7.141v23.697c0 3.816 3.053 6.91 6.818 6.91h45.73c3.765 0 6.818-3.094 6.818-6.91V7.141c0-3.817-3.053-6.91-6.818-6.91"/>
        <path id="prefix__bs" d="M7.048.231C3.283.231.23 3.324.23 7.141v23.697c0 3.816 3.053 6.91 6.818 6.91h45.73c3.765 0 6.818-3.094 6.818-6.91V7.141c0-3.817-3.053-6.91-6.818-6.91"/>
        <path id="prefix__bu" d="M7.048.231C3.283.231.23 3.324.23 7.141v23.697c0 3.816 3.053 6.91 6.818 6.91h45.73c3.765 0 6.818-3.094 6.818-6.91V7.141c0-3.817-3.053-6.91-6.818-6.91"/>
        <path id="prefix__bw" d="M7.048.231C3.283.231.23 3.324.23 7.141v23.697c0 3.816 3.053 6.91 6.818 6.91h45.73c3.765 0 6.818-3.094 6.818-6.91V7.141c0-3.817-3.053-6.91-6.818-6.91"/>
        <path id="prefix__by" d="M7.048.231C3.283.231.23 3.324.23 7.141v23.697c0 3.816 3.053 6.91 6.818 6.91h45.73c3.765 0 6.818-3.094 6.818-6.91V7.141c0-3.817-3.053-6.91-6.818-6.91"/>
        <path id="prefix__bA" d="M7.048.231C3.283.231.23 3.324.23 7.141v23.697c0 3.816 3.053 6.91 6.818 6.91h45.73c3.765 0 6.818-3.094 6.818-6.91V7.141c0-3.817-3.053-6.91-6.818-6.91"/>
        <path id="prefix__bC" d="M7.048.231C3.283.231.23 3.324.23 7.141v23.697c0 3.816 3.053 6.91 6.818 6.91h45.73c3.765 0 6.818-3.094 6.818-6.91V7.141c0-3.817-3.053-6.91-6.818-6.91"/>
        <path id="prefix__bE" d="M7.048.231C3.283.231.23 3.324.23 7.141v23.697c0 3.816 3.053 6.91 6.818 6.91h45.73c3.765 0 6.818-3.094 6.818-6.91V7.141c0-3.817-3.053-6.91-6.818-6.91"/>
        <path id="prefix__bG" d="M7.048.231C3.283.231.23 3.324.23 7.141v23.697c0 3.816 3.053 6.91 6.818 6.91h45.73c3.765 0 6.818-3.094 6.818-6.91V7.141c0-3.817-3.053-6.91-6.818-6.91"/>
        <path id="prefix__bI" d="M7.048.231C3.283.231.23 3.324.23 7.141v23.697c0 3.816 3.053 6.91 6.818 6.91h45.73c3.765 0 6.818-3.094 6.818-6.91V7.141c0-3.817-3.053-6.91-6.818-6.91"/>
        <path id="prefix__bK" d="M7.048.231C3.283.231.23 3.324.23 7.141v23.697c0 3.816 3.053 6.91 6.818 6.91h45.73c3.765 0 6.818-3.094 6.818-6.91V7.141c0-3.817-3.053-6.91-6.818-6.91"/>
        <path id="prefix__bM" d="M7.048.231C3.283.231.23 3.324.23 7.141v23.697c0 3.816 3.053 6.91 6.818 6.91h45.73c3.765 0 6.818-3.094 6.818-6.91V7.141c0-3.817-3.053-6.91-6.818-6.91"/>
        <path id="prefix__bO" d="M0 467.117L351.568 467.117 351.568 0.164 0 0.164z"/>
    </defs>
    <g fill="none" fill-rule="evenodd">
        <g>
            <path fill="#FFF" d="M116.837 179.96H16.111c-8.593 0-15.625-7.055-15.625-15.677V16.23C.486 7.608 7.518.553 16.11.553h100.726c8.593 0 15.625 7.055 15.625 15.677v148.053c0 8.622-7.032 15.676-15.625 15.676" transform="translate(88 191)"/>
            <path stroke="#030014" stroke-linecap="round" stroke-linejoin="round" stroke-width="1.445" d="M116.837 179.96H16.111c-8.593 0-15.625-7.055-15.625-15.677V16.23C.486 7.608 7.518.553 16.11.553h100.726c8.593 0 15.625 7.055 15.625 15.677v148.053c0 8.622-7.032 15.676-15.625 15.676z" transform="translate(88 191)"/>
            <path fill="#FFF" d="M85.452 11.004H47.497c-5.73 0-10.417-4.703-10.417-10.45h58.789c0 5.747-4.688 10.45-10.417 10.45" transform="translate(88 191)"/>
            <path stroke="#030014" stroke-linecap="round" stroke-linejoin="round" stroke-width="1.445" d="M85.452 11.004H47.497c-5.73 0-10.417-4.703-10.417-10.45h58.789c0 5.747-4.688 10.45-10.417 10.45z" transform="translate(88 191)"/>
        </g>
        <g transform="translate(70 217)">
            <mask id="prefix__b" fill="#fff">
                <use xlink:href="#prefix__a"/>
            </mask>
            <path stroke="#030014" stroke-linecap="round" stroke-linejoin="round" stroke-width="1.445" d="M-67.689 -12.454L277.264 -215.591" mask="url(#prefix__b)"/>
            <mask id="prefix__d" fill="#fff">
                <use xlink:href="#prefix__c"/>
            </mask>
            <path stroke="#030014" stroke-linecap="round" stroke-linejoin="round" stroke-width="1.445" d="M-67.689 -8.782L277.264 -211.92" mask="url(#prefix__d)"/>
            <mask id="prefix__f" fill="#fff">
                <use xlink:href="#prefix__e"/>
            </mask>
            <path stroke="#030014" stroke-linecap="round" stroke-linejoin="round" stroke-width="1.445" d="M-67.689 -5.111L277.264 -208.248" mask="url(#prefix__f)"/>
            <mask id="prefix__h" fill="#fff">
                <use xlink:href="#prefix__g"/>
            </mask>
            <path stroke="#030014" stroke-linecap="round" stroke-linejoin="round" stroke-width="1.445" d="M-67.689 -1.439L277.264 -204.577" mask="url(#prefix__h)"/>
            <mask id="prefix__j" fill="#fff">
                <use xlink:href="#prefix__i"/>
            </mask>
            <path stroke="#030014" stroke-linecap="round" stroke-linejoin="round" stroke-width="1.445" d="M-67.689 2.232L277.264 -200.905" mask="url(#prefix__j)"/>
            <mask id="prefix__l" fill="#fff">
                <use xlink:href="#prefix__k"/>
            </mask>
            <path stroke="#030014" stroke-linecap="round" stroke-linejoin="round" stroke-width="1.445" d="M-67.689 5.904L277.264 -197.234" mask="url(#prefix__l)"/>
            <mask id="prefix__n" fill="#fff">
                <use xlink:href="#prefix__m"/>
            </mask>
            <path stroke="#030014" stroke-linecap="round" stroke-linejoin="round" stroke-width="1.445" d="M-67.689 9.576L277.264 -193.562" mask="url(#prefix__n)"/>
            <mask id="prefix__p" fill="#fff">
                <use xlink:href="#prefix__o"/>
            </mask>
            <path stroke="#030014" stroke-linecap="round" stroke-linejoin="round" stroke-width="1.445" d="M-67.689 13.247L277.264 -189.89" mask="url(#prefix__p)"/>
            <mask id="prefix__r" fill="#fff">
                <use xlink:href="#prefix__q"/>
            </mask>
            <path stroke="#030014" stroke-linecap="round" stroke-linejoin="round" stroke-width="1.445" d="M-67.689 16.919L277.264 -186.219" mask="url(#prefix__r)"/>
            <mask id="prefix__t" fill="#fff">
                <use xlink:href="#prefix__s"/>
            </mask>
            <path stroke="#030014" stroke-linecap="round" stroke-linejoin="round" stroke-width="1.445" d="M-67.689 20.59L277.264 -182.547" mask="url(#prefix__t)"/>
            <mask id="prefix__v" fill="#fff">
                <use xlink:href="#prefix__u"/>
            </mask>
            <path stroke="#030014" stroke-linecap="round" stroke-linejoin="round" stroke-width="1.445" d="M-67.689 24.262L277.264 -178.876" mask="url(#prefix__v)"/>
            <mask id="prefix__x" fill="#fff">
                <use xlink:href="#prefix__w"/>
            </mask>
            <path stroke="#030014" stroke-linecap="round" stroke-linejoin="round" stroke-width="1.445" d="M-67.689 27.933L277.264 -175.204" mask="url(#prefix__x)"/>
            <mask id="prefix__z" fill="#fff">
                <use xlink:href="#prefix__y"/>
            </mask>
            <path stroke="#030014" stroke-linecap="round" stroke-linejoin="round" stroke-width="1.445" d="M-67.689 31.605L277.264 -171.532" mask="url(#prefix__z)"/>
            <mask id="prefix__B" fill="#fff">
                <use xlink:href="#prefix__A"/>
            </mask>
            <path stroke="#030014" stroke-linecap="round" stroke-linejoin="round" stroke-width="1.445" d="M-67.689 35.277L277.264 -167.861" mask="url(#prefix__B)"/>
            <mask id="prefix__D" fill="#fff">
                <use xlink:href="#prefix__C"/>
            </mask>
            <path stroke="#030014" stroke-linecap="round" stroke-linejoin="round" stroke-width="1.445" d="M-67.689 38.948L277.264 -164.19" mask="url(#prefix__D)"/>
            <mask id="prefix__F" fill="#fff">
                <use xlink:href="#prefix__E"/>
            </mask>
            <path stroke="#030014" stroke-linecap="round" stroke-linejoin="round" stroke-width="1.445" d="M-67.689 42.62L277.264 -160.518" mask="url(#prefix__F)"/>
            <mask id="prefix__H" fill="#fff">
                <use xlink:href="#prefix__G"/>
            </mask>
            <path stroke="#030014" stroke-linecap="round" stroke-linejoin="round" stroke-width="1.445" d="M-67.689 46.291L277.264 -156.846" mask="url(#prefix__H)"/>
            <mask id="prefix__J" fill="#fff">
                <use xlink:href="#prefix__I"/>
            </mask>
            <path stroke="#030014" stroke-linecap="round" stroke-linejoin="round" stroke-width="1.445" d="M-67.689 49.963L277.264 -153.175" mask="url(#prefix__J)"/>
            <mask id="prefix__L" fill="#fff">
                <use xlink:href="#prefix__K"/>
            </mask>
            <path stroke="#030014" stroke-linecap="round" stroke-linejoin="round" stroke-width="1.445" d="M-67.689 53.635L277.264 -149.503" mask="url(#prefix__L)"/>
            <mask id="prefix__N" fill="#fff">
                <use xlink:href="#prefix__M"/>
            </mask>
            <path stroke="#030014" stroke-linecap="round" stroke-linejoin="round" stroke-width="1.445" d="M-67.689 57.306L277.264 -145.831" mask="url(#prefix__N)"/>
            <mask id="prefix__P" fill="#fff">
                <use xlink:href="#prefix__O"/>
            </mask>
            <path stroke="#030014" stroke-linecap="round" stroke-linejoin="round" stroke-width="1.445" d="M-67.689 60.978L277.264 -142.16" mask="url(#prefix__P)"/>
            <mask id="prefix__R" fill="#fff">
                <use xlink:href="#prefix__Q"/>
            </mask>
            <path stroke="#030014" stroke-linecap="round" stroke-linejoin="round" stroke-width="1.445" d="M-67.689 64.649L277.264 -138.488" mask="url(#prefix__R)"/>
            <mask id="prefix__T" fill="#fff">
                <use xlink:href="#prefix__S"/>
            </mask>
            <path stroke="#030014" stroke-linecap="round" stroke-linejoin="round" stroke-width="1.445" d="M-67.689 68.321L277.264 -134.817" mask="url(#prefix__T)"/>
            <mask id="prefix__V" fill="#fff">
                <use xlink:href="#prefix__U"/>
            </mask>
            <path stroke="#030014" stroke-linecap="round" stroke-linejoin="round" stroke-width="1.445" d="M-67.689 71.992L277.264 -131.145" mask="url(#prefix__V)"/>
            <g>
                <mask id="prefix__X" fill="#fff">
                    <use xlink:href="#prefix__W"/>
                </mask>
                <path stroke="#030014" stroke-linecap="round" stroke-linejoin="round" stroke-width="1.445" d="M-67.689 75.664L277.264 -127.473" mask="url(#prefix__X)"/>
            </g>
            <g>
                <mask id="prefix__Z" fill="#fff">
                    <use xlink:href="#prefix__Y"/>
                </mask>
                <path stroke="#030014" stroke-linecap="round" stroke-linejoin="round" stroke-width="1.445" d="M-67.689 79.336L277.264 -123.802" mask="url(#prefix__Z)"/>
            </g>
            <g>
                <mask id="prefix__ab" fill="#fff">
                    <use xlink:href="#prefix__aa"/>
                </mask>
                <path stroke="#030014" stroke-linecap="round" stroke-linejoin="round" stroke-width="1.445" d="M-67.689 83.007L277.264 -120.131" mask="url(#prefix__ab)"/>
            </g>
            <g>
                <mask id="prefix__ad" fill="#fff">
                    <use xlink:href="#prefix__ac"/>
                </mask>
                <path stroke="#030014" stroke-linecap="round" stroke-linejoin="round" stroke-width="1.445" d="M-67.689 86.679L277.264 -116.459" mask="url(#prefix__ad)"/>
            </g>
            <g>
                <mask id="prefix__af" fill="#fff">
                    <use xlink:href="#prefix__ae"/>
                </mask>
                <path stroke="#030014" stroke-linecap="round" stroke-linejoin="round" stroke-width="1.445" d="M-67.689 90.35L277.264 -112.787" mask="url(#prefix__af)"/>
            </g>
            <g>
                <mask id="prefix__ah" fill="#fff">
                    <use xlink:href="#prefix__ag"/>
                </mask>
                <path stroke="#030014" stroke-linecap="round" stroke-linejoin="round" stroke-width="1.445" d="M-67.689 94.022L277.264 -109.116" mask="url(#prefix__ah)"/>
            </g>
            <g>
                <mask id="prefix__aj" fill="#fff">
                    <use xlink:href="#prefix__ai"/>
                </mask>
                <path stroke="#030014" stroke-linecap="round" stroke-linejoin="round" stroke-width="1.445" d="M-67.689 97.694L277.264 -105.444" mask="url(#prefix__aj)"/>
            </g>
            <g>
                <mask id="prefix__al" fill="#fff">
                    <use xlink:href="#prefix__ak"/>
                </mask>
                <path stroke="#030014" stroke-linecap="round" stroke-linejoin="round" stroke-width="1.445" d="M-67.689 101.365L277.264 -101.772" mask="url(#prefix__al)"/>
            </g>
            <g>
                <mask id="prefix__an" fill="#fff">
                    <use xlink:href="#prefix__am"/>
                </mask>
                <path stroke="#030014" stroke-linecap="round" stroke-linejoin="round" stroke-width="1.445" d="M-67.689 105.037L277.264 -98.101" mask="url(#prefix__an)"/>
            </g>
            <g>
                <mask id="prefix__ap" fill="#fff">
                    <use xlink:href="#prefix__ao"/>
                </mask>
                <path stroke="#030014" stroke-linecap="round" stroke-linejoin="round" stroke-width="1.445" d="M-67.689 108.708L277.264 -94.429" mask="url(#prefix__ap)"/>
            </g>
            <g>
                <mask id="prefix__ar" fill="#fff">
                    <use xlink:href="#prefix__aq"/>
                </mask>
                <path stroke="#030014" stroke-linecap="round" stroke-linejoin="round" stroke-width="1.445" d="M-67.689 112.38L277.264 -90.758" mask="url(#prefix__ar)"/>
            </g>
            <g>
                <mask id="prefix__at" fill="#fff">
                    <use xlink:href="#prefix__as"/>
                </mask>
                <path stroke="#030014" stroke-linecap="round" stroke-linejoin="round" stroke-width="1.445" d="M-67.689 116.051L277.264 -87.086" mask="url(#prefix__at)"/>
            </g>
            <g>
                <mask id="prefix__av" fill="#fff">
                    <use xlink:href="#prefix__au"/>
                </mask>
                <path stroke="#030014" stroke-linecap="round" stroke-linejoin="round" stroke-width="1.445" d="M-67.689 119.723L277.264 -83.414" mask="url(#prefix__av)"/>
            </g>
            <g>
                <mask id="prefix__ax" fill="#fff">
                    <use xlink:href="#prefix__aw"/>
                </mask>
                <path stroke="#030014" stroke-linecap="round" stroke-linejoin="round" stroke-width="1.445" d="M-67.689 123.394L277.264 -79.743" mask="url(#prefix__ax)"/>
            </g>
            <g>
                <mask id="prefix__az" fill="#fff">
                    <use xlink:href="#prefix__ay"/>
                </mask>
                <path stroke="#030014" stroke-linecap="round" stroke-linejoin="round" stroke-width="1.445" d="M-67.689 127.066L277.264 -76.072" mask="url(#prefix__az)"/>
            </g>
            <g>
                <mask id="prefix__aB" fill="#fff">
                    <use xlink:href="#prefix__aA"/>
                </mask>
                <path stroke="#030014" stroke-linecap="round" stroke-linejoin="round" stroke-width="1.445" d="M-67.689 130.738L277.264 -72.4" mask="url(#prefix__aB)"/>
            </g>
            <g>
                <mask id="prefix__aD" fill="#fff">
                    <use xlink:href="#prefix__aC"/>
                </mask>
                <path stroke="#030014" stroke-linecap="round" stroke-linejoin="round" stroke-width="1.445" d="M-67.689 134.409L277.264 -68.729" mask="url(#prefix__aD)"/>
            </g>
            <g>
                <mask id="prefix__aF" fill="#fff">
                    <use xlink:href="#prefix__aE"/>
                </mask>
                <path stroke="#030014" stroke-linecap="round" stroke-linejoin="round" stroke-width="1.445" d="M-67.689 138.081L277.264 -65.057" mask="url(#prefix__aF)"/>
            </g>
            <g>
                <mask id="prefix__aH" fill="#fff">
                    <use xlink:href="#prefix__aG"/>
                </mask>
                <path stroke="#030014" stroke-linecap="round" stroke-linejoin="round" stroke-width="1.445" d="M-67.689 141.753L277.264 -61.385" mask="url(#prefix__aH)"/>
            </g>
            <g>
                <mask id="prefix__aJ" fill="#fff">
                    <use xlink:href="#prefix__aI"/>
                </mask>
                <path stroke="#030014" stroke-linecap="round" stroke-linejoin="round" stroke-width="1.445" d="M-67.689 145.424L277.264 -57.714" mask="url(#prefix__aJ)"/>
            </g>
            <g>
                <mask id="prefix__aL" fill="#fff">
                    <use xlink:href="#prefix__aK"/>
                </mask>
                <path stroke="#030014" stroke-linecap="round" stroke-linejoin="round" stroke-width="1.445" d="M-67.689 149.096L277.264 -54.042" mask="url(#prefix__aL)"/>
            </g>
            <g>
                <mask id="prefix__aN" fill="#fff">
                    <use xlink:href="#prefix__aM"/>
                </mask>
                <path stroke="#030014" stroke-linecap="round" stroke-linejoin="round" stroke-width="1.445" d="M-67.689 152.767L277.264 -50.37" mask="url(#prefix__aN)"/>
            </g>
            <g>
                <mask id="prefix__aP" fill="#fff">
                    <use xlink:href="#prefix__aO"/>
                </mask>
                <path stroke="#030014" stroke-linecap="round" stroke-linejoin="round" stroke-width="1.445" d="M-67.689 156.438L277.264 -46.699" mask="url(#prefix__aP)"/>
            </g>
            <g>
                <mask id="prefix__aR" fill="#fff">
                    <use xlink:href="#prefix__aQ"/>
                </mask>
                <path stroke="#030014" stroke-linecap="round" stroke-linejoin="round" stroke-width="1.445" d="M-67.689 160.11L277.264 -43.027" mask="url(#prefix__aR)"/>
            </g>
            <g>
                <mask id="prefix__aT" fill="#fff">
                    <use xlink:href="#prefix__aS"/>
                </mask>
                <path stroke="#030014" stroke-linecap="round" stroke-linejoin="round" stroke-width="1.445" d="M-67.689 163.782L277.264 -39.356" mask="url(#prefix__aT)"/>
            </g>
            <g>
                <mask id="prefix__aV" fill="#fff">
                    <use xlink:href="#prefix__aU"/>
                </mask>
                <path stroke="#030014" stroke-linecap="round" stroke-linejoin="round" stroke-width="1.445" d="M-67.689 167.453L277.264 -35.684" mask="url(#prefix__aV)"/>
            </g>
            <g>
                <mask id="prefix__aX" fill="#fff">
                    <use xlink:href="#prefix__aW"/>
                </mask>
                <path stroke="#030014" stroke-linecap="round" stroke-linejoin="round" stroke-width="1.445" d="M-67.689 171.125L277.264 -32.013" mask="url(#prefix__aX)"/>
            </g>
            <g>
                <mask id="prefix__aZ" fill="#fff">
                    <use xlink:href="#prefix__aY"/>
                </mask>
                <path stroke="#030014" stroke-linecap="round" stroke-linejoin="round" stroke-width="1.445" d="M-67.689 174.797L277.264 -28.341" mask="url(#prefix__aZ)"/>
            </g>
            <g>
                <mask id="prefix__bb" fill="#fff">
                    <use xlink:href="#prefix__ba"/>
                </mask>
                <path stroke="#030014" stroke-linecap="round" stroke-linejoin="round" stroke-width="1.445" d="M-67.689 178.468L277.264 -24.67" mask="url(#prefix__bb)"/>
            </g>
            <g>
                <mask id="prefix__bd" fill="#fff">
                    <use xlink:href="#prefix__bc"/>
                </mask>
                <path stroke="#030014" stroke-linecap="round" stroke-linejoin="round" stroke-width="1.445" d="M-67.689 182.14L277.264 -20.998" mask="url(#prefix__bd)"/>
            </g>
            <g>
                <mask id="prefix__bf" fill="#fff">
                    <use xlink:href="#prefix__be"/>
                </mask>
                <path stroke="#030014" stroke-linecap="round" stroke-linejoin="round" stroke-width="1.445" d="M-67.689 185.812L277.264 -17.326" mask="url(#prefix__bf)"/>
            </g>
            <g>
                <mask id="prefix__bh" fill="#fff">
                    <use xlink:href="#prefix__bg"/>
                </mask>
                <path stroke="#030014" stroke-linecap="round" stroke-linejoin="round" stroke-width="1.445" d="M-67.689 189.483L277.264 -13.655" mask="url(#prefix__bh)"/>
            </g>
            <g>
                <mask id="prefix__bj" fill="#fff">
                    <use xlink:href="#prefix__bi"/>
                </mask>
                <path stroke="#030014" stroke-linecap="round" stroke-linejoin="round" stroke-width="1.445" d="M-67.689 193.154L277.264 -9.983" mask="url(#prefix__bj)"/>
            </g>
            <g>
                <mask id="prefix__bl" fill="#fff">
                    <use xlink:href="#prefix__bk"/>
                </mask>
                <path stroke="#030014" stroke-linecap="round" stroke-linejoin="round" stroke-width="1.445" d="M-67.689 196.826L277.264 -6.311" mask="url(#prefix__bl)"/>
            </g>
            <g>
                <mask id="prefix__bn" fill="#fff">
                    <use xlink:href="#prefix__bm"/>
                </mask>
                <path stroke="#030014" stroke-linecap="round" stroke-linejoin="round" stroke-width="1.445" d="M-67.689 200.497L277.264 -2.64" mask="url(#prefix__bn)"/>
            </g>
            <g>
                <mask id="prefix__bp" fill="#fff">
                    <use xlink:href="#prefix__bo"/>
                </mask>
                <path stroke="#030014" stroke-linecap="round" stroke-linejoin="round" stroke-width="1.445" d="M-67.689 204.169L277.264 1.032" mask="url(#prefix__bp)"/>
            </g>
            <g>
                <mask id="prefix__br" fill="#fff">
                    <use xlink:href="#prefix__bq"/>
                </mask>
                <path stroke="#030014" stroke-linecap="round" stroke-linejoin="round" stroke-width="1.445" d="M-67.689 207.841L277.264 4.703" mask="url(#prefix__br)"/>
            </g>
            <g>
                <mask id="prefix__bt" fill="#fff">
                    <use xlink:href="#prefix__bs"/>
                </mask>
                <path stroke="#030014" stroke-linecap="round" stroke-linejoin="round" stroke-width="1.445" d="M-67.689 211.512L277.264 8.375" mask="url(#prefix__bt)"/>
            </g>
            <g>
                <mask id="prefix__bv" fill="#fff">
                    <use xlink:href="#prefix__bu"/>
                </mask>
                <path stroke="#030014" stroke-linecap="round" stroke-linejoin="round" stroke-width="1.445" d="M-67.689 215.184L277.264 12.046" mask="url(#prefix__bv)"/>
            </g>
            <g>
                <mask id="prefix__bx" fill="#fff">
                    <use xlink:href="#prefix__bw"/>
                </mask>
                <path stroke="#030014" stroke-linecap="round" stroke-linejoin="round" stroke-width="1.445" d="M-67.689 218.856L277.264 15.718" mask="url(#prefix__bx)"/>
            </g>
            <g>
                <mask id="prefix__bz" fill="#fff">
                    <use xlink:href="#prefix__by"/>
                </mask>
                <path stroke="#030014" stroke-linecap="round" stroke-linejoin="round" stroke-width="1.445" d="M-67.689 222.527L277.264 19.389" mask="url(#prefix__bz)"/>
            </g>
            <g>
                <mask id="prefix__bB" fill="#fff">
                    <use xlink:href="#prefix__bA"/>
                </mask>
                <path stroke="#030014" stroke-linecap="round" stroke-linejoin="round" stroke-width="1.445" d="M-67.689 226.199L277.264 23.061" mask="url(#prefix__bB)"/>
            </g>
            <g>
                <mask id="prefix__bD" fill="#fff">
                    <use xlink:href="#prefix__bC"/>
                </mask>
                <path stroke="#030014" stroke-linecap="round" stroke-linejoin="round" stroke-width="1.445" d="M-67.689 229.87L277.264 26.733" mask="url(#prefix__bD)"/>
            </g>
            <g>
                <mask id="prefix__bF" fill="#fff">
                    <use xlink:href="#prefix__bE"/>
                </mask>
                <path stroke="#030014" stroke-linecap="round" stroke-linejoin="round" stroke-width="1.445" d="M-67.689 233.542L277.264 30.404" mask="url(#prefix__bF)"/>
            </g>
            <g>
                <mask id="prefix__bH" fill="#fff">
                    <use xlink:href="#prefix__bG"/>
                </mask>
                <path stroke="#030014" stroke-linecap="round" stroke-linejoin="round" stroke-width="1.445" d="M-67.689 237.213L277.264 34.076" mask="url(#prefix__bH)"/>
            </g>
            <g>
                <mask id="prefix__bJ" fill="#fff">
                    <use xlink:href="#prefix__bI"/>
                </mask>
                <path stroke="#030014" stroke-linecap="round" stroke-linejoin="round" stroke-width="1.445" d="M-67.689 240.885L277.264 37.748" mask="url(#prefix__bJ)"/>
            </g>
            <g>
                <mask id="prefix__bL" fill="#fff">
                    <use xlink:href="#prefix__bK"/>
                </mask>
                <path stroke="#030014" stroke-linecap="round" stroke-linejoin="round" stroke-width="1.445" d="M-67.689 244.556L277.264 41.419" mask="url(#prefix__bL)"/>
            </g>
            <g>
                <mask id="prefix__bN" fill="#fff">
                    <use xlink:href="#prefix__bM"/>
                </mask>
                <path stroke="#030014" stroke-linecap="round" stroke-linejoin="round" stroke-width="1.445" d="M-67.689 248.228L277.264 45.091" mask="url(#prefix__bN)"/>
            </g>
        </g>
        <path fill="#FFF" d="M115.999 248.227H69.525c-3.826 0-6.93-3.107-6.93-6.94V217.48c0-3.833 3.104-6.94 6.93-6.94h46.474c3.827 0 6.929 3.107 6.929 6.94v23.806c0 3.834-3.102 6.941-6.93 6.941"/>
        <path stroke="#030014" stroke-linecap="round" stroke-linejoin="round" stroke-width="1.445" d="M115.999 248.227H69.525c-3.826 0-6.93-3.107-6.93-6.94V217.48c0-3.833 3.104-6.94 6.93-6.94h46.474c3.827 0 6.929 3.107 6.929 6.94v23.806c0 3.834-3.102 6.941-6.93 6.941zM85.253 221.904L111.69 221.904M85.253 228.845L111.69 228.845M85.253 235.786L98.471 235.786"/>
        <mask id="prefix__bP" fill="#fff">
            <use xlink:href="#prefix__bO"/>
        </mask>
        <path stroke="#030014" stroke-linecap="round" stroke-linejoin="round" stroke-width="1.445" d="M69.525 236.324L78.807 236.324 78.807 221.904 69.525 221.904z" mask="url(#prefix__bP)"/>
        <path fill="#2869F5" d="M70.82 295.177H54.373c-3.811 0-6.93-3.124-6.93-6.941V271.76c0-3.817 3.119-6.94 6.93-6.94H70.82c3.81 0 6.929 3.123 6.929 6.94v16.475c0 3.817-3.118 6.94-6.93 6.94" mask="url(#prefix__bP)"/>
        <path fill="#FFF" d="M53.648 290.786c-.535 0-.973-.438-.973-.974v-7.364c0-.536.438-.975.973-.975.535 0 .973.439.973.975v7.364c0 .536-.438.974-.973.974M59.614 290.786c-.535 0-.973-.438-.973-.974v-17.2c0-.535.438-.974.973-.974.534 0 .972.439.972.975v17.199c0 .536-.438.974-.972.974M65.579 290.786c-.535 0-.973-.438-.973-.974v-12.868c0-.535.438-.974.973-.974.535 0 .973.439.973.974v12.868c0 .536-.438.974-.973.974M71.544 290.786c-.535 0-.973-.438-.973-.974v-19.85c0-.536.438-.975.973-.975.535 0 .973.44.973.975v19.85c0 .536-.438.974-.973.974" mask="url(#prefix__bP)"/>
        <g>
            <path stroke="#030014" stroke-linecap="round" stroke-linejoin="round" stroke-width="1.445" d="M40.638 71.866l7.792 39.845c.166.852.987 1.413 1.844 1.262l.056-.01c.857-.15 1.435-.958 1.3-1.814l-6.222-39.283M61.074 78.23l7.483 38.265c.166.852.987 1.413 1.845 1.263l.056-.01c.856-.15 1.435-.958 1.3-1.814L65.785 78.23M9.816 78.23l-6.547 33.481c-.166.852-.987 1.413-1.844 1.263l-.056-.01c-.857-.15-1.436-.959-1.3-1.815l5.286-33.376M32.934 71.866l-8.727 44.63c-.167.851-.987 1.413-1.845 1.262l-.055-.01c-.857-.15-1.436-.958-1.3-1.815l6.98-44.067M86.19.516L30.267.516" transform="translate(164 295)"/>
            <path fill="#FFF" d="M89.27 4.555c.53-1.888-.784-3.874-2.852-4.034-1.54-.118-2.92.971-3.336 2.453L64.527 69.076c-.463 1.649-1.972 2.79-3.69 2.79H7.107c-1.454 0-2.812.919-3.19 2.318-.569 2.117 1.04 4.046 3.078 4.046h59.181c.043 0 .085-.011.128-.012.138-.007.275-.018.41-.042.09-.016.177-.038.265-.061.104-.028.207-.057.308-.096.102-.038.2-.083.296-.13.083-.043.164-.085.243-.132.1-.06.192-.127.283-.197.07-.054.138-.108.203-.167.089-.08.171-.166.25-.256.054-.061.107-.123.156-.188.082-.108.152-.22.22-.337.032-.057.065-.113.094-.173.07-.145.128-.294.177-.449.008-.027.023-.05.03-.079l.056-.194c.002-.013.007-.024.009-.035L89.269 4.555z" transform="translate(164 295)"/>
            <path stroke="#030014" stroke-linecap="round" stroke-linejoin="round" stroke-width="1.445" d="M89.27 4.555c.53-1.888-.784-3.874-2.852-4.034-1.54-.118-2.92.971-3.336 2.453L64.527 69.076c-.463 1.649-1.972 2.79-3.69 2.79H7.107c-1.454 0-2.812.919-3.19 2.318-.569 2.117 1.04 4.046 3.078 4.046h59.181c.043 0 .085-.011.128-.012.138-.007.275-.018.41-.042.09-.016.177-.038.265-.061.104-.028.207-.057.308-.096.102-.038.2-.083.296-.13.083-.043.164-.085.243-.132.1-.06.192-.127.283-.197.07-.054.138-.108.203-.167.089-.08.171-.166.25-.256.054-.061.107-.123.156-.188.082-.108.152-.22.22-.337.032-.057.065-.113.094-.173.07-.145.128-.294.177-.449.008-.027.023-.05.03-.079l.056-.194c.002-.013.007-.024.009-.035L89.269 4.555z" transform="translate(164 295)"/>
        </g>
        <path fill="#030014" d="M186.091 262L178 297 194 297 194 274.229zM216.473 262L225 297 209 297 209 274.229z"/>
        <g>
            <path fill="#030014" d="M51.4 104.054l1.694 66.283c-.641 1.543-2.147 2.547-3.814 2.54l-18.964-.068c-1.042-.004-1.892-.862-1.888-1.907l.002-.589c.009-2.417 1.69-4.504 4.045-5.02l5.74-1.258-16.423-50.32" transform="translate(107 235)"/>
            <path fill="#030014" d="M21.27 110.012v-.007c-1.709-8.091 5.24-15.37 13.376-14.013l38.343 6.388" transform="translate(107 235)"/>
            <g>
                <path fill="#FFF" d="M72.736 1.418L35.81.348c-7.471-.216-14.005 5.01-15.458 12.36L9.774 66.252 4.04 67.53c-2.352.525-4.027 2.618-4.027 5.034v.59c0 1.044.853 1.9 1.895 1.9h18.964c1.667 0 3.17-1.01 3.805-2.555L41.29 25.228l50.412 9.111c8.033 1.151 16.285-1.526 21.704-7.582 3.852-4.306 6.204-9.988 6.204-16.195v-7.05" transform="translate(107 235) translate(0 100.54)"/>
                <path stroke="#030014" stroke-linecap="round" stroke-linejoin="round" stroke-width="1.445" d="M72.736 1.418L35.81.348c-7.471-.216-14.005 5.01-15.458 12.36L9.774 66.252 4.04 67.53c-2.352.525-4.027 2.618-4.027 5.034v.59c0 1.044.853 1.9 1.895 1.9h18.964c1.667 0 3.17-1.01 3.805-2.555L41.29 25.228l50.412 9.111c8.033 1.151 16.285-1.526 21.704-7.582 3.852-4.306 6.204-9.988 6.204-16.195v-7.05" transform="translate(107 235) translate(0 100.54)"/>
            </g>
            <g>
                <path fill="#FFF" d="M21.49.459h28.145c8.42 0 15.308 6.907 15.308 15.349V38.18c0 8.442-6.889 15.35-15.308 15.35l-32.65-4.47C9.47 48.032 3.369 42.457 1.653 35.05l-.182-.786-.987-5.143" transform="translate(107 235) translate(60.164 54.084)"/>
                <path stroke="#030014" stroke-linecap="round" stroke-linejoin="round" stroke-width="1.445" d="M21.49.459h28.145c8.42 0 15.308 6.907 15.308 15.349V38.18c0 8.442-6.889 15.35-15.308 15.35l-32.65-4.47C9.47 48.032 3.369 42.457 1.653 35.05l-.182-.786-.987-5.143" transform="translate(107 235) translate(60.164 54.084)"/>
            </g>
            <g>
                <path fill="#FFF" d="M15.703.197v18.15c0 4.21-3.404 7.623-7.603 7.623-4.2 0-7.603-3.413-7.603-7.624V1.761" transform="translate(107 235) translate(85.752 35.363)"/>
                <path stroke="#030014" stroke-linecap="round" stroke-linejoin="round" stroke-width="1.445" d="M15.703.197v18.15c0 4.21-3.404 7.623-7.603 7.623-4.2 0-7.603-3.413-7.603-7.624V1.761" transform="translate(107 235) translate(85.752 35.363)"/>
            </g>
            <path fill="#030014" d="M85.88 45.972c3-.147 5.82-1.187 8.156-2.89 0 0-3.81.032-7.338-2.68l-.818 5.57z" transform="translate(107 235)"/>
            <path fill="#FFF" d="M106.608 27.45c0 8.478-6.282 15.35-14.032 15.35s-14.033-6.872-14.033-15.35c0-8.476 6.283-15.348 14.033-15.348 7.75 0 14.032 6.872 14.032 15.348" transform="translate(107 235)"/>
            <path stroke="#030014" stroke-linecap="round" stroke-linejoin="round" stroke-width="1.445" d="M106.608 27.45c0 8.478-6.282 15.35-14.032 15.35s-14.033-6.872-14.033-15.35c0-8.476 6.283-15.348 14.033-15.348 7.75 0 14.032 6.872 14.032 15.348z" transform="translate(107 235)"/>
            <path fill="#030014" d="M108.587 25.02s7.41-14.572-11.716-18.516c-19.127-3.944-21.004 8.12-19.535 11.377 1.617 3.588 6.511 6.39 18.155 2.41 9.524-3.255 6.502 3.389 7.211 5.397.711 2.01 3.227 3.17 5.885-.667" transform="translate(107 235)"/>
            <path stroke="#FFF" stroke-linecap="round" stroke-linejoin="round" stroke-width="1.445" d="M109.46 34.022c0 2.07-.827 3.747-1.847 3.747s-1.847-1.678-1.847-3.747c0-2.07.827-3.748 1.847-3.748s1.847 1.678 1.847 3.748z" transform="translate(107 235)"/>
            <path fill="#FFF" d="M111.191 27.948c0 2.39-2.052 4.329-4.583 4.329s-4.584-1.938-4.584-4.329c0-2.39 2.053-4.328 4.584-4.328 2.531 0 4.583 1.938 4.583 4.328" transform="translate(107 235)"/>
            <g>
                <path fill="#FFF" d="M.352 2.11C1.158.87 2.607.046 4.26.046c2.532 0 4.583 1.937 4.583 4.328 0 2.39-2.05 4.327-4.583 4.327-.95 0-1.83-.272-2.562-.739" transform="translate(107 235) translate(102.349 23.575)"/>
                <path stroke="#030014" stroke-linecap="round" stroke-linejoin="round" stroke-width="1.445" d="M.352 2.11C1.158.87 2.607.046 4.26.046c2.532 0 4.583 1.937 4.583 4.328 0 2.39-2.05 4.327-4.583 4.327-.95 0-1.83-.272-2.562-.739" transform="translate(107 235) translate(102.349 23.575)"/>
            </g>
            <path fill="#030014" d="M109.702 6.656c0 3.61-2.919 6.536-6.52 6.536-3.6 0-6.518-2.926-6.518-6.536 0-3.61 2.918-6.537 6.518-6.537 3.601 0 6.52 2.926 6.52 6.537" transform="translate(107 235)"/>
            <path fill="#FFF" d="M92.576 28.56c0 .237-.191.43-.428.43-.236 0-.427-.193-.427-.43s.19-.429.427-.429.428.192.428.429" transform="translate(107 235)"/>
            <path stroke="#030014" stroke-linecap="round" stroke-linejoin="round" stroke-width="1.445" d="M92.576 28.56c0 .237-.191.43-.428.43-.236 0-.427-.193-.427-.43s.19-.429.427-.429.428.192.428.429z" transform="translate(107 235)"/>
            <path fill="#FFF" d="M82.51 27.948c0 .237-.191.429-.428.429-.235 0-.427-.192-.427-.429 0-.236.192-.428.427-.428.237 0 .428.192.428.428" transform="translate(107 235)"/>
            <path stroke="#030014" stroke-linecap="round" stroke-linejoin="round" stroke-width="1.445" d="M82.51 27.948c0 .237-.191.429-.428.429-.235 0-.427-.192-.427-.429 0-.236.192-.428.427-.428.237 0 .428.192.428.428z" transform="translate(107 235)"/>
            <g>
                <path fill="#FFF" d="M1.177 0.014L0.497 5.235" transform="translate(107 235) translate(85.752 27.042)"/>
                <path stroke="#030014" stroke-linecap="round" stroke-linejoin="round" stroke-width="1.445" d="M1.177 0.014L0.497 5.235" transform="translate(107 235) translate(85.752 27.042)"/>
            </g>
            <g>
                <path fill="#FFF" d="M4.586.564C4.005 2.169 2.236 3 .634 2.418" transform="translate(107 235) translate(87.135 33.976)"/>
                <path stroke="#030014" stroke-linecap="round" stroke-linejoin="round" stroke-width="1.445" d="M4.586.564C4.005 2.169 2.236 3 .634 2.418" transform="translate(107 235) translate(87.135 33.976)"/>
            </g>
            <g>
                <path fill="#FFF" d="M.312.873c.942 0 1.862.094 2.751.274" transform="translate(107 235) translate(91.284 23.575)"/>
                <path stroke="#030014" stroke-linecap="round" stroke-linejoin="round" stroke-width="1.445" d="M.312.873c.942 0 1.862.094 2.751.274" transform="translate(107 235) translate(91.284 23.575)"/>
            </g>
            <g>
                <path fill="#FFF" d="M.488.368c.941 0 1.862.107 2.75.312" transform="translate(107 235) translate(80.22 23.575)"/>
                <path stroke="#030014" stroke-linecap="round" stroke-linejoin="round" stroke-width="1.445" d="M.488.368c.941 0 1.862.107 2.75.312" transform="translate(107 235) translate(80.22 23.575)"/>
            </g>
            <g>
                <path fill="#FFF" d="M.545 1.156C.97.505 1.731.07 2.6.07" transform="translate(107 235) translate(104.423 26.349)"/>
                <path stroke="#030014" stroke-linecap="round" stroke-linejoin="round" stroke-width="1.445" d="M.545 1.156C.97.505 1.731.07 2.6.07" transform="translate(107 235) translate(104.423 26.349)"/>
            </g>
            <path stroke="#FFF" stroke-linecap="round" stroke-linejoin="round" stroke-width="1.445" d="M109.46 34.022c0 2.07-.827 3.747-1.847 3.747s-1.847-1.678-1.847-3.747c0-2.07.827-3.748 1.847-3.748" transform="translate(107 235)"/>
            <path fill="#030014" d="M75.905 89.724c-.37.37-.974.37-1.342 0L49.17 64.266c-.37-.37-.37-.976 0-1.347.37-.37.974-.37 1.343 0l25.39 25.46c.37.369.37.975 0 1.345" transform="translate(107 235)"/>
            <path stroke="#030014" stroke-linecap="round" stroke-linejoin="round" stroke-width="1.445" d="M75.905 89.724h0c-.37.37-.974.37-1.342 0L49.17 64.266c-.37-.37-.37-.976 0-1.347.37-.37.974-.37 1.343 0l25.39 25.46c.37.369.37.975 0 1.345z" transform="translate(107 235)"/>
            <g>
                <path fill="#FFF" d="M13.527 10.927c1.669-1.673 1.669-4.385 0-6.058-1.314-1.318-3.273-1.598-4.861-.837L5.473.832C4.365-.28 2.553-.28 1.445.831c-1.108 1.11-1.108 2.927 0 4.038l4.269 4.28" transform="translate(107 235) translate(65.697 83.206)"/>
                <path stroke="#030014" stroke-linecap="round" stroke-linejoin="round" stroke-width="1.445" d="M13.527 10.927c1.669-1.673 1.669-4.385 0-6.058-1.314-1.318-3.273-1.598-4.861-.837L5.473.832C4.365-.28 2.553-.28 1.445.831c-1.108 1.11-1.108 2.927 0 4.038l4.269 4.28" transform="translate(107 235) translate(65.697 83.206)"/>
            </g>
            <g>
                <path fill="#FFF" d="M.485 3.465C.442 3.271.42 3.07.42 2.861.42 1.285 1.695.006 3.269.006c1.376 0 2.525.98 2.79 2.28" transform="translate(107 235) translate(60.164 79.74)"/>
                <path stroke="#030014" stroke-linecap="round" stroke-linejoin="round" stroke-width="1.445" d="M.485 3.465C.442 3.271.42 3.07.42 2.861.42 1.285 1.695.006 3.269.006c1.376 0 2.525.98 2.79 2.28" transform="translate(107 235) translate(60.164 79.74)"/>
            </g>
            <g>
                <path fill="#FFF" d="M.256 10.044h24.586c1.41 0 2.551-1.145 2.551-2.558V.646" transform="translate(107 235) translate(80.22 80.432)"/>
                <path stroke="#030014" stroke-linecap="round" stroke-linejoin="round" stroke-width="1.445" d="M.256 10.044h24.586c1.41 0 2.551-1.145 2.551-2.558V.646" transform="translate(107 235) translate(80.22 80.432)"/>
            </g>
            <g>
                <path fill="#FFF" d="M0.423 0.558L17.918 0.558" transform="translate(107 235) translate(107.19 85.286)"/>
                <path stroke="#030014" stroke-linecap="round" stroke-linejoin="round" stroke-width="1.445" d="M0.423 0.558L17.918 0.558" transform="translate(107 235) translate(107.19 85.286)"/>
            </g>
            <g>
                <path fill="#FFF" d="M15.66.459C7.242.459.354 7.366.354 15.808v10.685" transform="translate(107 235) translate(67.771 54.084)"/>
                <path stroke="#030014" stroke-linecap="round" stroke-linejoin="round" stroke-width="1.445" d="M15.66.459C7.242.459.354 7.366.354 15.808v10.685" transform="translate(107 235) translate(67.771 54.084)"/>
            </g>
            <g>
                <path fill="#FFF" d="M1.018 2.768L0.527 0.21" transform="translate(107 235) translate(65.697 81.82)"/>
                <path stroke="#030014" stroke-linecap="round" stroke-linejoin="round" stroke-width="1.445" d="M1.018 2.768L0.527 0.21" transform="translate(107 235) translate(65.697 81.82)"/>
            </g>
            <g>
                <path fill="#FFF" d="M0.456 0.393L0.456 13.231" transform="translate(107 235) translate(75.378 73.499)"/>
                <path stroke="#030014" stroke-linecap="round" stroke-linejoin="round" stroke-width="1.445" d="M0.456 0.393L0.456 13.231" transform="translate(107 235) translate(75.378 73.499)"/>
            </g>
        </g>
        <g>
            <path fill="#2869F5" d="M27.127 44.083l-3.979-27.52C22.068 9.09 28.804 2.86 36.142 4.544c7.34 1.683 10.705 10.233 6.493 16.492L27.127 44.083z" transform="translate(236 338)"/>
            <path stroke="#030014" stroke-linecap="round" stroke-linejoin="round" stroke-width="1.445" d="M22.398 63.783L34.589 12.349M30.798 28.866L37.036 25.933M32.789 20.191L27.3 14.085" transform="translate(236 338)"/>
            <path fill="#A4DEFB" d="M16.764 37.663L2.317 15.928C-1.607 10.025 1.6 2.01 8.503.468c6.903-1.543 13.199 4.348 12.145 11.363l-3.884 25.832z" transform="translate(236 338)"/>
            <path stroke="#030014" stroke-linecap="round" stroke-linejoin="round" stroke-width="1.445" d="M22.398 63.783L10.213 7.475M13.933 24.665L16.306 23.367M11.899 15.268L5.796 14.002M12.699 18.964L16.033 14.001" transform="translate(236 338)"/>
            <path fill="#A4DEFB" d="M18.367 45.022L6.72 43.79c-3.164-.335-5.005-3.751-3.554-6.59 1.453-2.838 5.292-3.33 7.409-.948l7.792 8.771z" transform="translate(236 338)"/>
            <path stroke="#030014" stroke-linecap="round" stroke-linejoin="round" stroke-width="1.445" d="M18.367 45.022L5.93 38.796M11.804 41.737L12.003 38.26M9.519 40.593L6.55 43.181M8.007 39.836L7.185 36.066" transform="translate(236 338)"/>
            <path fill="#2869F5" d="M26.545 47.212l7.629-8.916c2.071-2.42 5.92-2 7.424.81 1.505 2.812-.273 6.262-3.43 6.655l-11.623 1.45z" transform="translate(236 338)"/>
            <path stroke="#030014" stroke-linecap="round" stroke-linejoin="round" stroke-width="1.445" d="M26.293 47.351L38.718 40.48M32.969 43.659L35.709 45.799M35.206 42.423L34.769 38.502M36.685 41.605L40.246 43.068" transform="translate(236 338)"/>
            <path fill="#FFF" d="M34.172 57.25h-23.95c.015.157.04.314.075.47.034.159.08.318.133.476.047.14.103.277.164.414l.116.256.051.113.092.204.317.702.865 1.91.282.623.026.057.111.247.034.074.124.274.864 1.911.577 1.274.865 1.911.26.573.205.455.111.246c.29.637.577 1.274.865 1.91 0 .1.098.209.145.296.04.075.094.17.143.248l.014.023.007.012.007.01.003.006.028.042c.029.046.06.093.092.14.086.132.208.29.314.409l.003.004.039.044c.066.075.131.146.198.214l.006.006c.071.074.166.167.248.238.055.05.11.096.162.14l.012.01.01.01.112.089.008.004c.083.065.172.131.268.198.098.07.158.107.273.178l.037.022.006.004-.002-.001.004.002-.002-.001.002.001c.145.086.39.229.735.38l.047.021.009.004c.029.012.058.025.088.036l.025.01.027.012c.37.147.832.294 1.388.394.102.018.195.034.257.041l.007.001c.008 0 .015.002.023.003l.026.004.01.001.01.002.04.005.044.006.01.001.052.007c.506.062.99.073 1.446.038.227-.013.452-.037.673-.07l.156-.025.025-.004c.083-.015.153-.028.21-.04l.044-.01.037-.008c.085-.019.17-.04.253-.06.066-.017.13-.033.189-.05.126-.033.187-.054.327-.101l.04-.014.007-.002.01-.004c.06-.02.125-.044.187-.067l.024-.009.061-.023c.022-.01.042-.017.062-.024.088-.034.192-.08.29-.125l.099-.046.015-.007c.247-.115.5-.254.744-.418.437-.287.782-.601 1.054-.904l.027-.031c.046-.05.091-.103.129-.15l.05-.061.004-.005c.037-.046.073-.095.11-.143l.03-.042.01-.012.005-.008.007-.01.018-.025.072-.104.032-.047.011-.018c.046-.07.095-.149.131-.214.021-.035.043-.075.065-.115l.054-.103-.022.04.013-.027.044-.08c.028-.053.059-.125.084-.18l5.692-12.774c.19-.425.31-.858.36-1.294" transform="translate(236 338)"/>
            <path stroke="#030014" stroke-linecap="round" stroke-linejoin="round" stroke-width="1.445" d="M34.172 57.25h-23.95c.015.157.04.314.075.47.034.159.08.318.133.476.047.14.103.277.164.414l.116.256.051.113.092.204.317.702.865 1.91.282.623.026.057.111.247.034.074.124.274.864 1.911.577 1.274.865 1.911.26.573.205.455.111.246c.29.637.577 1.274.865 1.91 0 .1.098.209.145.296.04.075.094.17.143.248l.014.023.007.012.007.01.003.006.028.042c.029.046.06.093.092.14.086.132.208.29.314.409l.003.004.039.044c.066.075.131.146.198.214l.006.006c.071.074.166.167.248.238.055.05.11.096.162.14l.012.01.01.01.112.089.008.004c.083.065.172.131.268.198.098.07.158.107.273.178 0 0 0 0 0 0l.037.022.006.004-.002-.001.004.002-.002-.001.002.001c.145.086.39.229.735.38l.047.021.009.004c.029.012.058.025.088.036l.025.01.027.012c.37.147.832.294 1.388.394.102.018.195.034.257.041l.007.001c.008 0 .015.002.023.003l.026.004.01.001.01.002.04.005.044.006.01.001.052.007c.506.062.99.073 1.446.038.227-.013.452-.037.673-.07l.156-.025.025-.004c.083-.015.153-.028.21-.04l.044-.01.037-.008c.085-.019.17-.04.253-.06.066-.017.13-.033.189-.05.126-.033.187-.054.327-.101l.04-.014.007-.002.01-.004c.06-.02.125-.044.187-.067l.024-.009.061-.023c.022-.01.042-.017.062-.024.088-.034.192-.08.29-.125l.099-.046.015-.007c.247-.115.5-.254.744-.418.437-.287.782-.601 1.054-.904l.027-.031c.046-.05.091-.103.129-.15l.05-.061.004-.005c.037-.046.073-.095.11-.143l.03-.042.01-.012.005-.008.007-.01.018-.025.072-.104.032-.047.011-.018c.046-.07.095-.149.131-.214.021-.035.043-.075.065-.115l.054-.103-.022.04.013-.027.044-.08c.028-.053.059-.125.084-.18h0l5.692-12.774c.19-.425.31-.858.36-1.294z" transform="translate(236 338)"/>
        </g>
        <g stroke="#030014" stroke-linecap="round" stroke-linejoin="round" stroke-width="1.445">
            <path d="M165.373 7.513c.736-.33 1.473-.663 2.211-.993" transform="translate(51 188)"/>
            <path stroke-dasharray="7.07 7.07" d="M172.08 4.577c4.493-1.857 9.086-3.43 13.884-4.126 7.208-1.046 15.068.132 20.66 4.787 5.59 4.654 8.103 13.264 4.452 19.548-1.308 2.25-3.408 4.143-5.95 4.729-2.541.586-5.495-.36-6.851-2.582-2.042-3.346.463-8.057 4.149-9.408 3.686-1.353 7.856-.143 11.262 1.808 13.336 7.638 17.81 26.627 10.783 40.268-5.02 9.744-16.827 16.931-27.1 13.05-5.08-1.921-8.894-6.095-13.18-9.423-2.97-2.307-6.605-4.273-10.25-4.633" transform="translate(51 188)"/>
            <path d="M171.497 58.609c-.793.092-1.58.276-2.353.563M35.598 108.877c-.81.078-1.61.193-2.402.342" transform="translate(51 188)"/>
            <path stroke-dasharray="7.16 7.16" d="M28.42 110.535c-6.706 2.445-12.665 7.125-17.65 12.342-4.335 4.534-8.24 9.73-9.858 15.782-1.619 6.052-.571 13.103 3.893 17.51 6.846 6.756 18.578 4.862 26.761-.203 12.86-7.961 20.883-21.767 26.724-35.69 3.667-8.743 7.408-18.584 15.932-22.776 5.22-2.567 11.552-4.237 17.355-3.776 4.38.349 9.994 1.941 13.537 4.533 3.963 2.896 5.212 6.143 5.61 9.576" transform="translate(51 188)"/>
            <path d="M110.89 110.3c.022.8.024 1.607.027 2.42" transform="translate(51 188)"/>
        </g>
    </g>
</svg>
