<svg width="60" height="60" viewBox="0 0 60 60" fill="none" xmlns="http://www.w3.org/2000/svg">
<g id="Group 22 Copy 4">
<rect id="Rectangle Copy 27" opacity="0.2" width="60" height="60" rx="16" fill="#005D63"/>
<g id="hand-pointing">
<path id="Vector" d="M29.999 26.25V15.625C29.999 14.7962 29.6698 14.0013 29.0838 13.4153C28.4977 12.8292 27.7028 12.5 26.874 12.5C26.0452 12.5 25.2504 12.8292 24.6643 13.4153C24.0783 14.0013 23.749 14.7962 23.749 15.625V34.5728L20.3229 28.6385C20.1179 28.2828 19.8448 27.9709 19.5192 27.7207C19.1936 27.4706 18.8219 27.287 18.4253 27.1806C18.0287 27.0741 17.6151 27.0469 17.208 27.1004C16.8009 27.1539 16.4083 27.2871 16.0527 27.4924C15.6971 27.6977 15.3855 27.9711 15.1356 28.2969C14.8857 28.6227 14.7025 28.9946 14.5964 29.3912C14.4903 29.7879 14.4634 30.2015 14.5172 30.6086C14.5711 31.0156 14.7046 31.4081 14.9102 31.7635C19.999 42.5 23.0955 46.25 29.999 46.25C31.6406 46.25 33.266 45.9267 34.7826 45.2985C36.2992 44.6703 37.6771 43.7496 38.8379 42.5888C39.9986 41.4281 40.9194 40.0501 41.5475 38.5335C42.1757 37.017 42.499 35.3915 42.499 33.75V27.5C42.499 26.6712 42.1698 25.8763 41.5838 25.2903C40.9977 24.7042 40.2028 24.375 39.374 24.375C38.5452 24.375 37.7504 24.7042 37.1643 25.2903C36.5783 25.8763 36.249 26.6712 36.249 27.5" stroke="#005D63" stroke-width="3" stroke-linecap="round" stroke-linejoin="round"/>
<path id="Vector_2" d="M36.25 27.5V25.625C36.25 24.7962 35.9208 24.0013 35.3347 23.4153C34.7487 22.8292 33.9538 22.5 33.125 22.5C32.2962 22.5 31.5013 22.8292 30.9153 23.4153C30.3292 24.0013 30 24.7962 30 25.625V26.25" stroke="#005D63" stroke-width="3" stroke-linecap="round" stroke-linejoin="round"/>
</g>
</g>
</svg>
