<svg xmlns="http://www.w3.org/2000/svg" xmlns:xlink="http://www.w3.org/1999/xlink" width="55" height="55" viewBox="0 0 55 55">
    <defs>
        <path id="a" d="M0 .203h30.54v30.543H0z"/>
    </defs>
    <g fill="none" fill-rule="evenodd">
        <path fill="#06F" d="M17.947 0h19.106c6.24 0 8.503.65 10.785 1.87a12.721 12.721 0 0 1 5.292 5.292C54.35 9.444 55 11.707 55 17.947v19.106c0 6.24-.65 8.503-1.87 10.785a12.721 12.721 0 0 1-5.292 5.292C45.556 54.35 43.293 55 37.053 55H17.947c-6.24 0-8.503-.65-10.785-1.87a12.721 12.721 0 0 1-5.292-5.292C.65 45.556 0 43.293 0 37.053V17.947c0-6.24.65-8.503 1.87-10.785A12.721 12.721 0 0 1 7.162 1.87C9.444.65 11.707 0 17.947 0z" opacity=".195"/>
        <path fill="#06F" d="M19.905 38.35a2.69 2.69 0 0 1-1.897 1.928c-1.863.52-3.306.714-4.14.786.07-.831.263-2.267.786-4.14a2.69 2.69 0 0 1 1.928-1.897 2.693 2.693 0 0 1 2.616.708c.691.691.956 1.669.707 2.615m-3.718-4.829a4.234 4.234 0 0 0-3.033 2.985c-.908 3.255-.886 5.306-.885 5.391.007.42.346.76.766.766h.041c.315 0 2.306-.036 5.35-.885a4.234 4.234 0 0 0 2.985-3.032 4.237 4.237 0 0 0-1.112-4.112 4.236 4.236 0 0 0-4.112-1.113"/>
        <g transform="translate(12 12.186)">
            <mask id="b" fill="#fff">
                <use xlink:href="#a"/>
            </mask>
            <path fill="#06F" d="M19.045 28.569l-1.223-4.578a46.02 46.02 0 0 0 3.478-2.747 35.728 35.728 0 0 0 2.003-1.885c-.003 2.083-.605 5.818-4.258 9.21zm-3.44-12.877a.78.78 0 0 0-.55-.551l-6.69-1.787a44.644 44.644 0 0 1 2.311-2.885c8.038-9.225 16.15-8.856 18.191-8.587.277 2.04.668 10.12-8.59 18.188a44.898 44.898 0 0 1-2.885 2.31l-1.787-6.688zM2.177 11.7c3.42-3.696 7.149-4.284 9.224-4.272-.631.62-1.265 1.29-1.899 2.017a45.832 45.832 0 0 0-2.746 3.478L2.176 11.7zm28.12-10.678a.78.78 0 0 0-.572-.573c-.368-.09-8.129-1.858-16.753 5.54-1.624-.247-7.728-.674-12.8 5.656a.777.777 0 0 0 .405 1.239l5.244 1.4c-.595.906-1.15 1.821-1.656 2.745a.777.777 0 0 0 .481 1.126l3.953 1.06a.777.777 0 1 0 .403-1.504l-2.982-.8c.433-.74.898-1.474 1.39-2.202l6.807 1.819 1.82 6.808c-.73.491-1.463.957-2.203 1.389l-.8-2.982a.778.778 0 1 0-1.503.403l1.06 3.953a.779.779 0 0 0 1.126.481 40.186 40.186 0 0 0 2.743-1.656l1.401 5.244a.78.78 0 0 0 1.24.406c6.33-5.074 5.902-11.179 5.654-12.802 7.382-8.612 5.63-16.381 5.541-16.75z" mask="url(#b)"/>
        </g>
    </g>
</svg>
