<svg xmlns="http://www.w3.org/2000/svg" width="55" height="55" viewBox="0 0 55 55">
    <defs>
        <path id="a" d="M0 .246h4.229v3.407H0z"/>
    </defs>
    <g fill="none" fill-rule="evenodd">
        <path fill="#06F" d="M17.947 0h19.106c6.24 0 8.503.65 10.785 1.87a12.721 12.721 0 0 1 5.292 5.292C54.35 9.444 55 11.707 55 17.947v19.106c0 6.24-.65 8.503-1.87 10.785a12.721 12.721 0 0 1-5.292 5.292C45.556 54.35 43.293 55 37.053 55H17.947c-6.24 0-8.503-.65-10.785-1.87a12.721 12.721 0 0 1-5.292-5.292C.65 45.556 0 43.293 0 37.053V17.947c0-6.24.65-8.503 1.87-10.785A12.721 12.721 0 0 1 7.162 1.87C9.444.65 11.707 0 17.947 0z" opacity=".195"/>
        <path fill="#06F" d="M32.277 42.738h-8.771a.818.818 0 0 1 0-1.635h8.771a.818.818 0 0 1 0 1.635zm0 2.63h-8.771a.818.818 0 0 1 0-1.634h8.771a.818.818 0 0 1 0 1.635zM30.237 48h-4.69a.818.818 0 0 1 0-1.635h4.69a.818.818 0 0 1 0 1.635zm-6.268-10.406h7.845l.99-1.648c.529-.883 1.18-1.774 2.05-2.804A9.085 9.085 0 0 0 37 27.287a9.022 9.022 0 0 0-2.87-6.636 9.04 9.04 0 0 0-6.815-2.453c-4.516.277-8.257 4.036-8.514 8.555a9.057 9.057 0 0 0 2.122 6.38c.88 1.046 1.538 1.947 2.072 2.835l.975 1.626zm8.308 1.636h-8.77a.818.818 0 0 1-.702-.397l-1.213-2.023c-.488-.813-1.098-1.646-1.921-2.624a10.691 10.691 0 0 1-2.505-7.526 10.73 10.73 0 0 1 10.048-10.094c3-.187 5.855.843 8.036 2.894a10.786 10.786 0 0 1 3.385 7.827c0 2.524-.9 4.978-2.531 6.91-.812.961-1.415 1.784-1.899 2.59l-1.227 2.046a.817.817 0 0 1-.7.397zm7.013-18.98a.817.817 0 0 1-.482-1.479l4.677-3.398a.818.818 0 1 1 .961 1.324l-4.676 3.397a.815.815 0 0 1-.48.156zm-7.013-5.217a.818.818 0 0 1-.778-1.07L33.146 8.9a.818.818 0 0 1 1.555.505l-1.645 5.064a.817.817 0 0 1-.778.564zm-8.771 0a.817.817 0 0 1-.778-.564L20.974 9.07a.817.817 0 1 1 1.555-.505l1.754 5.398a.818.818 0 0 1-.777 1.07zm-7.677 4.734a.815.815 0 0 1-.48-.156l-4.012-2.915a.818.818 0 1 1 .961-1.322l4.012 2.914a.818.818 0 0 1-.481 1.48zM27.023 33.42a.816.816 0 0 1-.697-1.245l1.888-3.085H26.11a.816.816 0 0 1-.722-1.202l2.32-4.364a.817.817 0 1 1 1.444.768l-1.681 3.162h2.2a.817.817 0 0 1 .698 1.244l-2.649 4.33a.817.817 0 0 1-.698.392z"/>
    </g>
</svg>
