<svg width="60" height="60" viewBox="0 0 60 60" fill="none" xmlns="http://www.w3.org/2000/svg">
<rect width="60" height="60" rx="16" fill="#F7F8FA"/>
<path d="M48 12H12V48H48V12Z" fill="#F7DF1E"/>
<path d="M36.1845 40.125C36.9096 41.309 37.853 42.1793 39.5216 42.1793C40.9233 42.1793 41.8188 41.4787 41.8188 40.5107C41.8188 39.3507 40.8988 38.9399 39.3559 38.265L38.5102 37.9021C36.069 36.8621 34.4473 35.5593 34.4473 32.805C34.4473 30.2679 36.3805 28.3364 39.4016 28.3364C41.5525 28.3364 43.0988 29.085 44.213 31.045L41.5788 32.7364C40.9988 31.6964 40.373 31.2867 39.4016 31.2867C38.4108 31.2867 37.7828 31.9153 37.7828 32.7364C37.7828 33.7513 38.4113 34.1621 39.8628 34.7907L40.7085 35.153C43.5828 36.3856 45.2056 37.6421 45.2056 40.4673C45.2056 43.513 42.813 45.1816 39.5999 45.1816C36.4582 45.1816 34.4285 43.6844 33.4353 41.7221L36.1845 40.125ZM24.2342 40.4181C24.7656 41.361 25.249 42.1581 26.4113 42.1581C27.5228 42.1581 28.2239 41.7233 28.2239 40.0324V28.5296H31.6068V40.0781C31.6068 43.581 29.553 45.1753 26.5553 45.1753C23.8468 45.1753 22.2782 43.7736 21.4805 42.0853L24.2342 40.4181Z" fill="black"/>
</svg>
