<svg width="139" height="24" viewBox="0 0 139 24" fill="none" xmlns="http://www.w3.org/2000/svg">
<path d="M22.1566 5.21153C22.0178 4.768 21.6846 4.40763 21.2681 4.18586L12.7994 0.138605C12.5773 0.0277209 12.3274 0 12.1053 0C11.8832 0 11.6333 0 11.4111 0.0554418L2.94249 4.13042C2.526 4.32446 2.22057 4.68484 2.10951 5.15609L0.0270541 14.2763C-0.056244 14.7475 0.0548201 15.2188 0.332481 15.6069L6.19111 22.842C6.52431 23.1747 6.99633 23.3965 7.46835 23.4242H16.7977C17.2975 23.4796 17.7696 23.2579 18.075 22.842L23.9336 15.6069C24.2113 15.2188 24.3223 14.7475 24.2668 14.2763L22.1566 5.21153Z" fill="#326DE6"/>
<path d="M20.8526 13.9159C20.8248 13.9159 20.797 13.9159 20.797 13.8882C20.797 13.8605 20.7415 13.8605 20.686 13.8605C20.5749 13.8327 20.4638 13.8327 20.3528 13.8327C20.2972 13.8327 20.2417 13.8327 20.1862 13.805H20.1584C19.853 13.7773 19.5198 13.7219 19.2144 13.6387C19.1311 13.611 19.0478 13.5278 19.02 13.4446C19.0478 13.4446 19.02 13.4446 19.02 13.4446L18.7979 13.3892C18.9089 12.5853 18.8534 11.7537 18.6868 10.9498C18.4925 10.1459 18.1593 9.36967 17.715 8.67665L17.8816 8.51033V8.4826C17.8816 8.39944 17.9094 8.28856 17.9649 8.23312C18.2148 8.01135 18.4647 7.84502 18.7423 7.6787C18.7979 7.65098 18.8534 7.62326 18.9089 7.59553C19.02 7.54009 19.1033 7.48465 19.2144 7.42921C19.2421 7.40149 19.2699 7.40149 19.2977 7.37377C19.3254 7.34605 19.2977 7.34605 19.2977 7.31833C19.5476 7.12428 19.6031 6.79163 19.4087 6.54214C19.3254 6.43126 19.1588 6.34809 19.02 6.34809C18.8812 6.34809 18.7423 6.40353 18.6313 6.4867L18.6035 6.51442C18.5758 6.54214 18.548 6.56986 18.5202 6.56986C18.4369 6.65302 18.3536 6.73619 18.2981 6.81935C18.2703 6.87479 18.2148 6.90251 18.187 6.93023C17.9927 7.152 17.7428 7.37377 17.4929 7.54009C17.4373 7.56781 17.3818 7.59553 17.3263 7.59553C17.2985 7.59553 17.243 7.59553 17.2152 7.56781H17.1874L16.9653 7.70642C16.7432 7.48465 16.4933 7.26288 16.2712 7.04112C15.2438 6.23721 13.9666 5.73823 12.6616 5.59963L12.6338 5.37786V5.40558C12.5505 5.35014 12.5228 5.26698 12.495 5.18381C12.495 4.87888 12.495 4.57395 12.5505 4.2413V4.21358C12.5505 4.15814 12.5783 4.1027 12.5783 4.04726C12.6061 3.93637 12.6061 3.82549 12.6338 3.71461V3.54828C12.6616 3.27107 12.4395 2.99386 12.1618 2.96614C11.9952 2.93842 11.8286 3.02158 11.6898 3.16019C11.5787 3.27107 11.5232 3.40968 11.5232 3.54828V3.68688C11.5232 3.79777 11.5509 3.90865 11.5787 4.01954C11.6065 4.07498 11.6065 4.13042 11.6065 4.18586V4.21358C11.662 4.51851 11.662 4.82344 11.662 5.15609C11.6342 5.23926 11.6065 5.32242 11.5232 5.37786V5.4333L11.4954 5.65507C11.19 5.68279 10.8846 5.73823 10.5514 5.79367C9.24636 6.07088 8.05242 6.76391 7.13614 7.73414L6.96955 7.62326H6.94178C6.91402 7.62326 6.88625 7.65098 6.83072 7.65098C6.77519 7.65098 6.71965 7.62326 6.66412 7.59553C6.41423 7.40149 6.16433 7.17972 5.96997 6.95795C5.9422 6.90251 5.88667 6.87479 5.85891 6.84707C5.77561 6.76391 5.72008 6.68074 5.63678 6.59758C5.60901 6.56986 5.58125 6.56986 5.55348 6.54214C5.52571 6.51442 5.52571 6.51442 5.52571 6.51442C5.41465 6.43126 5.27582 6.37581 5.13699 6.37581C4.97039 6.37581 4.83156 6.43126 4.74826 6.56986C4.58167 6.81935 4.6372 7.152 4.85933 7.34605C4.88709 7.34605 4.88709 7.37377 4.88709 7.37377C4.88709 7.37377 4.94263 7.42921 4.97039 7.42921C5.05369 7.48465 5.16475 7.54009 5.27582 7.59553C5.33135 7.62326 5.38688 7.65098 5.44242 7.6787C5.72008 7.84502 5.99774 8.01135 6.21986 8.23312C6.2754 8.28856 6.33093 8.39944 6.30316 8.4826V8.45488L6.46976 8.62121C6.44199 8.67665 6.41423 8.70437 6.38646 8.75981C5.52571 10.1181 5.16475 11.726 5.41465 13.306L5.19252 13.3615C5.19252 13.3892 5.16475 13.3892 5.16475 13.3892C5.13699 13.4724 5.05369 13.5278 4.97039 13.5833C4.66497 13.6664 4.35954 13.7219 4.02635 13.7496C3.97081 13.7496 3.91528 13.7496 3.85975 13.7773C3.74869 13.7773 3.63762 13.805 3.52656 13.805C3.49879 13.805 3.47103 13.8327 3.41549 13.8327C3.38773 13.8327 3.38773 13.8327 3.35996 13.8605C3.05454 13.9159 2.86017 14.1931 2.91571 14.498C2.97124 14.7475 3.22113 14.9139 3.47103 14.8861C3.52656 14.8861 3.55432 14.8861 3.60986 14.8584C3.63762 14.8584 3.63762 14.8584 3.63762 14.8307C3.63762 14.803 3.72092 14.8307 3.74869 14.8307C3.85975 14.803 3.97081 14.7475 4.05411 14.7198C4.10965 14.6921 4.16518 14.6644 4.22071 14.6644H4.24848C4.5539 14.5535 4.83156 14.4703 5.16475 14.4149H5.19252C5.27582 14.4149 5.35912 14.4426 5.41465 14.498C5.44241 14.498 5.44242 14.5258 5.44242 14.5258L5.69231 14.498C6.1088 15.7732 6.88625 16.9098 7.96912 17.7414C8.21902 17.9354 8.44115 18.1018 8.71881 18.2404L8.57998 18.4344C8.57998 18.4621 8.60774 18.4621 8.60774 18.4621C8.66328 18.5453 8.66328 18.6562 8.63551 18.7393C8.52445 19.0166 8.35785 19.2938 8.19125 19.5433V19.571C8.16349 19.6264 8.13572 19.6541 8.08019 19.7096C8.02466 19.765 7.96912 19.8759 7.88583 19.9868C7.85806 20.0145 7.85806 20.0422 7.83029 20.07C7.83029 20.07 7.83029 20.0977 7.80253 20.0977C7.6637 20.3749 7.77476 20.7075 8.02466 20.8461C8.08019 20.8739 8.16349 20.9016 8.21902 20.9016C8.44115 20.9016 8.63551 20.763 8.74657 20.5689C8.74657 20.5689 8.74657 20.5412 8.77434 20.5412C8.77434 20.5135 8.80211 20.4858 8.82987 20.458C8.85764 20.3472 8.91317 20.264 8.94094 20.1531L8.99647 19.9868C9.07977 19.6819 9.2186 19.4046 9.35743 19.1274C9.41296 19.0443 9.49626 18.9888 9.57956 18.9611C9.60732 18.9611 9.60732 18.9611 9.60732 18.9334L9.71839 18.7116C10.4958 19.0166 11.301 19.1552 12.134 19.1552C12.6338 19.1552 13.1336 19.0997 13.6334 18.9611C13.9388 18.9057 14.2442 18.7948 14.5219 18.7116L14.633 18.9057C14.6607 18.9057 14.6607 18.9057 14.6607 18.9334C14.744 18.9611 14.8273 19.0166 14.8829 19.0997C15.0217 19.3769 15.1605 19.6541 15.2438 19.9591V19.9868L15.2994 20.1531C15.3271 20.264 15.3549 20.3749 15.4104 20.458C15.4382 20.4858 15.4382 20.5135 15.466 20.5412C15.466 20.5412 15.466 20.5689 15.4937 20.5689C15.6048 20.763 15.7991 20.9016 16.0213 20.9016C16.1046 20.9016 16.1601 20.8739 16.2434 20.8461C16.3545 20.7907 16.4655 20.6798 16.4933 20.5412C16.5211 20.4026 16.5211 20.264 16.4655 20.1254C16.4655 20.0977 16.4378 20.0977 16.4378 20.0977C16.4378 20.07 16.41 20.0422 16.3822 20.0145C16.3267 19.9036 16.2712 19.8205 16.1879 19.7373C16.1601 19.6819 16.1323 19.6541 16.0768 19.5987V19.5433C15.8824 19.2938 15.7436 19.0166 15.6326 18.7393C15.6048 18.6562 15.6048 18.5453 15.6603 18.4621C15.6603 18.4344 15.6881 18.4344 15.6881 18.4344L15.6048 18.2126C17.0209 17.3533 18.1037 16.0227 18.6035 14.4426L18.8256 14.4703C18.8534 14.4703 18.8534 14.4426 18.8534 14.4426C18.9089 14.3872 18.9922 14.3594 19.0755 14.3594H19.1033C19.4087 14.4149 19.7142 14.498 19.9918 14.6089H20.0196C20.0751 14.6367 20.1306 14.6644 20.1862 14.6644C20.2972 14.7198 20.3805 14.7753 20.4916 14.803C20.5194 14.803 20.5471 14.8307 20.6027 14.8307C20.6304 14.8307 20.6304 14.8307 20.6582 14.8584C20.7137 14.8861 20.7415 14.8861 20.797 14.8861C21.0469 14.8861 21.2691 14.7198 21.3524 14.498C21.3246 14.1931 21.1025 13.9713 20.8526 13.9159ZM12.8282 13.0566L12.0785 13.4169L11.3288 13.0566L11.1345 12.2527L11.662 11.5873H12.495L13.0225 12.2527L12.8282 13.0566ZM17.354 11.2547C17.4929 11.8368 17.5206 12.419 17.4651 13.0011L14.8273 12.2527C14.5774 12.1972 14.4386 11.9477 14.4941 11.6982C14.5219 11.6151 14.5497 11.5596 14.6052 11.5042L16.6877 9.61916C16.9931 10.1181 17.2152 10.6726 17.354 11.2547ZM15.8547 8.59349L13.5779 10.2013C13.3835 10.3122 13.1058 10.2845 12.967 10.0904C12.9115 10.035 12.8837 9.97953 12.8837 9.89637L12.7171 7.09656C13.9388 7.23516 15.0217 7.76186 15.8547 8.59349ZM10.829 7.17972L11.3843 7.06884L11.2455 9.84093C11.2455 10.0904 11.0234 10.2845 10.7735 10.2845C10.6902 10.2845 10.6347 10.2567 10.5514 10.229L8.24678 8.59349C8.9687 7.90047 9.85722 7.40149 10.829 7.17972ZM7.44157 9.61916L9.49626 11.4487C9.69062 11.6151 9.71838 11.8923 9.55179 12.0863C9.49626 12.1695 9.44072 12.1972 9.32966 12.2249L6.63635 13.0011C6.55306 11.8368 6.83072 10.6448 7.44157 9.61916ZM6.96955 14.304L9.71839 13.8327C9.94051 13.8327 10.1626 13.9713 10.1904 14.1931C10.2182 14.2763 10.2182 14.3872 10.1626 14.4703L9.10753 17.0206C8.13572 16.3831 7.35827 15.4128 6.96955 14.304ZM13.2724 17.7414C12.8837 17.8246 12.495 17.88 12.0785 17.88C11.4954 17.88 10.8846 17.7691 10.3292 17.6028L11.6898 15.1356C11.8286 14.9693 12.0507 14.9139 12.2451 15.0247C12.3284 15.0802 12.3839 15.1356 12.4672 15.2188L13.8 17.6305C13.6334 17.6582 13.4668 17.686 13.2724 17.7414ZM16.6599 15.3297C16.2434 15.995 15.6603 16.5771 14.9939 16.9929L13.9111 14.3872C13.8555 14.1654 13.9666 13.9436 14.161 13.8605C14.2442 13.8327 14.3275 13.805 14.4108 13.805L17.1874 14.2763C17.0486 14.6644 16.882 15.0247 16.6599 15.3297Z" fill="white"/>
<path d="M134.526 17.3256C134.915 17.3533 135.331 17.2979 135.692 17.1593C135.914 17.0484 136.053 16.7989 136.025 16.5494C135.998 16.2722 135.831 16.0227 135.581 15.9396C135.165 15.6901 134.693 15.4683 134.221 15.3297C133.749 15.1634 133.332 14.9693 132.943 14.7753C132.582 14.6089 132.277 14.3872 131.972 14.11C131.694 13.8328 131.5 13.5278 131.361 13.1675C131.194 12.7516 131.139 12.3081 131.139 11.8646C131.111 10.9498 131.527 10.0627 132.249 9.5083C132.999 8.92616 133.999 8.64895 135.276 8.64895C135.887 8.64895 136.525 8.70439 137.136 8.843C137.608 8.92616 138.08 9.03704 138.552 9.20337L138.025 11.5596C137.636 11.421 137.275 11.3379 136.886 11.227C136.442 11.1161 135.97 11.0884 135.526 11.0884C134.582 11.0884 134.11 11.3379 134.11 11.8646C134.11 11.9755 134.137 12.0863 134.165 12.1972C134.221 12.3081 134.304 12.3913 134.415 12.4744C134.526 12.5576 134.693 12.6408 134.887 12.7516C135.081 12.8625 135.359 12.9734 135.692 13.0843C136.248 13.2783 136.803 13.5278 137.303 13.805C137.691 13.9991 138.025 14.2486 138.302 14.5812C138.552 14.8307 138.719 15.1356 138.83 15.496C138.941 15.8841 138.996 16.2722 138.996 16.6603C139.052 17.6028 138.608 18.5176 137.802 19.0443C137.025 19.571 135.914 19.8482 134.471 19.8482C133.665 19.8759 132.888 19.7928 132.11 19.5987C131.666 19.4878 131.25 19.3492 130.833 19.2106L131.333 16.7712C131.833 16.9652 132.36 17.1316 132.888 17.2424C133.443 17.2702 133.971 17.3256 134.526 17.3256ZM119.227 14.2763C119.199 13.4447 119.366 12.613 119.643 11.8369C119.893 11.1716 120.282 10.5894 120.782 10.0627C121.254 9.59146 121.781 9.23109 122.392 9.00932C123.003 8.75984 123.642 8.64895 124.28 8.64895C125.78 8.64895 126.974 9.12021 127.834 10.035C128.695 10.9498 129.139 12.3081 129.139 14.0823C129.139 14.2486 129.139 14.4426 129.112 14.6644C129.112 14.8862 129.084 15.0525 129.084 15.2188H122.309C122.365 15.801 122.67 16.3554 123.17 16.688C123.781 17.0761 124.503 17.2702 125.224 17.2424C125.752 17.2424 126.307 17.187 126.835 17.1038C127.279 17.0207 127.723 16.8821 128.14 16.688L128.556 19.1275C128.362 19.2383 128.14 19.2938 127.918 19.3769C127.612 19.4601 127.307 19.5433 127.001 19.571C126.668 19.6264 126.335 19.6819 125.946 19.7373C125.585 19.765 125.197 19.7928 124.808 19.7928C123.947 19.8205 123.114 19.6819 122.309 19.3769C121.643 19.1275 121.06 18.7394 120.56 18.2404C120.088 17.7414 119.755 17.1316 119.532 16.494C119.338 15.7455 119.227 14.997 119.227 14.2763ZM126.252 13.1397C126.252 12.8903 126.196 12.6408 126.113 12.3913C126.057 12.1418 125.919 11.9477 125.78 11.7537C125.613 11.5596 125.419 11.3933 125.197 11.2824C124.919 11.1438 124.641 11.0884 124.336 11.0884C124.03 11.0884 123.753 11.1438 123.475 11.2824C123.253 11.3933 123.031 11.5319 122.864 11.726C122.698 11.92 122.559 12.1418 122.476 12.3913C122.392 12.6408 122.337 12.8903 122.309 13.1397H126.252ZM111.092 6.26495L114.09 5.7937V8.89844H117.7V11.3933H114.09V15.1079C114.062 15.6346 114.174 16.1613 114.423 16.6049C114.646 16.9652 115.09 17.1593 115.784 17.1593C116.117 17.1593 116.45 17.1316 116.756 17.0761C117.089 17.0207 117.394 16.9375 117.7 16.8266L118.116 19.1552C117.728 19.3215 117.311 19.4324 116.895 19.5433C116.367 19.6542 115.812 19.7096 115.256 19.7096C114.562 19.7373 113.868 19.6264 113.23 19.3769C112.73 19.1829 112.285 18.8503 111.952 18.4622C111.619 18.0463 111.397 17.5474 111.258 17.0207C111.119 16.4108 111.064 15.7732 111.092 15.1634V6.26495ZM98.9578 14.2763C98.93 13.4447 99.0966 12.613 99.3742 11.8369C99.6241 11.1716 100.013 10.5894 100.513 10.0627C100.985 9.59146 101.512 9.23109 102.123 9.00932C102.734 8.75984 103.373 8.64895 104.011 8.64895C105.511 8.64895 106.704 9.12021 107.565 10.035C108.426 10.9498 108.87 12.3081 108.87 14.0823C108.87 14.2486 108.87 14.4426 108.842 14.6644C108.815 14.8862 108.815 15.0525 108.815 15.2188H102.012C102.068 15.801 102.373 16.3554 102.873 16.688C103.484 17.0761 104.206 17.2702 104.927 17.2424C105.455 17.2424 106.01 17.187 106.538 17.1038C106.982 17.0207 107.426 16.8821 107.871 16.688L108.287 19.1275C108.093 19.2383 107.871 19.2938 107.649 19.3769C107.343 19.4601 107.038 19.5433 106.732 19.571C106.399 19.6264 106.066 19.6819 105.677 19.7373C105.316 19.765 104.927 19.7928 104.539 19.7928C103.678 19.8205 102.845 19.6819 102.04 19.3769C101.373 19.1275 100.79 18.7394 100.291 18.2404C99.8185 17.7414 99.4853 17.1316 99.2632 16.494C99.0411 15.7455 98.93 14.997 98.9578 14.2763ZM105.983 13.1397C105.983 12.8903 105.927 12.6408 105.844 12.3913C105.788 12.1418 105.649 11.9477 105.511 11.7537C105.344 11.5596 105.15 11.3933 104.927 11.2824C104.65 11.1438 104.372 11.0884 104.067 11.0884C103.761 11.0884 103.484 11.1438 103.206 11.2824C102.984 11.3933 102.789 11.5319 102.623 11.726C102.456 11.92 102.317 12.1418 102.234 12.3913C102.151 12.6408 102.095 12.8903 102.068 13.1397H105.983ZM87.5737 9.25881C88.2123 9.09249 88.8787 8.95388 89.5451 8.843C90.3781 8.70439 91.2388 8.64895 92.0718 8.64895C92.8215 8.62123 93.5711 8.75984 94.2931 9.00932C94.8484 9.20337 95.3482 9.53602 95.7091 9.97956C96.0701 10.4231 96.32 10.9498 96.4588 11.5042C96.6254 12.1418 96.6809 12.8071 96.6809 13.4724V19.4324H93.71V13.8605C93.71 12.8903 93.5711 12.2249 93.3213 11.8091C93.0714 11.421 92.5993 11.1993 91.9052 11.1993C91.6831 11.1993 91.4609 11.1993 91.211 11.227C90.9611 11.227 90.7668 11.2547 90.5724 11.2824V19.4324H87.5737V9.25881ZM85.4635 11.5596C85.1858 11.5042 84.8804 11.421 84.5194 11.3656C84.1307 11.2824 83.742 11.2547 83.3532 11.2547C83.1311 11.2547 82.909 11.2824 82.6591 11.3102C82.4647 11.3379 82.2704 11.3656 82.076 11.421V19.4878H79.0773V9.45286C79.6881 9.23109 80.3267 9.06477 80.9654 8.92616C81.7706 8.73211 82.6036 8.64895 83.4088 8.67667C83.6031 8.67667 83.7975 8.70439 83.9919 8.70439C84.214 8.70439 84.4361 8.73211 84.686 8.78756C84.9081 8.81528 85.1303 8.843 85.3802 8.89844C85.5745 8.92616 85.7689 8.9816 85.9633 9.06477L85.4635 11.5596ZM66.8324 14.2763C66.8047 13.4447 66.9713 12.613 67.2489 11.8369C67.4988 11.1716 67.8876 10.5894 68.3873 10.0627C68.8594 9.59146 69.3869 9.23109 69.9978 9.00932C70.6086 8.75984 71.2472 8.64895 71.8859 8.64895C73.3852 8.64895 74.5792 9.12021 75.4399 10.035C76.3007 10.9498 76.7449 12.3081 76.7449 14.0545C76.7449 14.2209 76.7449 14.4149 76.7172 14.6367C76.6894 14.8584 76.6894 15.0248 76.6894 15.1911H69.8867C69.9422 15.7732 70.2477 16.3276 70.7475 16.6603C71.3583 17.0484 72.0802 17.2424 72.8022 17.2147C73.3297 17.2147 73.885 17.1593 74.4126 17.0761C74.8568 16.9929 75.3011 16.8543 75.7176 16.688L76.1341 19.1275C75.9397 19.2383 75.7176 19.2938 75.4954 19.3769C75.19 19.4601 74.8846 19.5433 74.5792 19.571C74.246 19.6264 73.9128 19.6819 73.5241 19.7373C73.1631 19.765 72.7744 19.7928 72.3857 19.7928C71.5249 19.8205 70.6919 19.6819 69.8867 19.3769C69.2203 19.1275 68.6372 18.7394 68.1375 18.2404C67.6654 17.7414 67.3322 17.1316 67.1101 16.494C66.9435 15.7455 66.8324 15.0248 66.8324 14.2763ZM73.885 13.1397C73.885 12.8903 73.8295 12.6408 73.7462 12.3913C73.6907 12.1418 73.5518 11.9477 73.413 11.7537C73.2464 11.5596 73.052 11.3933 72.8299 11.2824C72.5523 11.1438 72.2746 11.0884 71.9692 11.0884C71.6637 11.0884 71.3861 11.1438 71.1084 11.2824C70.8863 11.3933 70.6642 11.5319 70.4976 11.726C70.331 11.92 70.1921 12.1418 70.1088 12.3913C70.0255 12.6408 69.97 12.8903 69.9422 13.1397H73.885ZM61.9734 14.11C61.9734 12.1695 61.2515 11.227 59.8354 11.227C59.53 11.227 59.2246 11.2547 58.9191 11.3379C58.6692 11.3933 58.4193 11.5042 58.1972 11.6428V17.0761C58.336 17.1038 58.5304 17.1316 58.7525 17.1593C58.9747 17.187 59.2246 17.187 59.5022 17.187C60.2241 17.2424 60.9183 16.9375 61.3625 16.3554C61.779 15.6901 62.0012 14.9139 61.9734 14.11ZM65.0277 14.2209C65.0277 14.997 64.9166 15.7732 64.6389 16.5217C64.4168 17.187 64.0558 17.7691 63.5838 18.2681C63.084 18.7671 62.5009 19.1552 61.8623 19.4047C61.1126 19.6819 60.3352 19.7928 59.53 19.7928C59.169 19.7928 58.7803 19.765 58.3916 19.7373C58.0028 19.7096 57.6141 19.6542 57.2254 19.6264C56.8644 19.571 56.5035 19.5156 56.1425 19.4324C55.7816 19.3769 55.4761 19.2938 55.2262 19.1829V4.35221L58.225 3.88095V9.14793C58.5582 9.00932 58.9191 8.89844 59.2801 8.81528C59.6688 8.73211 60.0575 8.70439 60.4463 8.70439C61.1404 8.70439 61.8068 8.81528 62.4454 9.12021C63.0007 9.3697 63.5005 9.75779 63.8892 10.229C64.3057 10.7557 64.6112 11.3379 64.7778 11.9755C64.9444 12.6685 65.0277 13.4447 65.0277 14.2209ZM52.3663 19.0997C51.7277 19.2661 51.0613 19.4047 50.3949 19.4878C49.562 19.6264 48.7012 19.6819 47.8682 19.6819C47.0908 19.7096 46.3411 19.571 45.6192 19.3215C45.0639 19.0997 44.5918 18.7671 44.2031 18.3236C43.8422 17.8523 43.5923 17.3256 43.4534 16.7435C43.2868 16.1059 43.2313 15.4129 43.2313 14.7476V8.89844H46.23V14.4149C46.23 15.3851 46.3689 16.0782 46.6188 16.494C46.8687 16.9098 47.3407 17.1316 48.0348 17.1316C48.257 17.1316 48.4791 17.1316 48.729 17.1038C48.9789 17.0761 49.1732 17.0761 49.3676 17.0207V8.89844H52.3663V19.0997ZM34.8737 12.7239C35.1792 12.3913 35.4568 12.0586 35.79 11.726C36.0954 11.3656 36.4009 11.033 36.7063 10.7003C37.0117 10.3399 37.2894 10.035 37.5393 9.73007C37.7892 9.42514 38.0391 9.14793 38.2334 8.92616H41.7875C41.0656 9.73007 40.3714 10.534 39.705 11.2824C39.0109 12.0309 38.289 12.8071 37.4837 13.5833C37.928 13.9991 38.3445 14.4149 38.7332 14.8862C39.1497 15.3851 39.5662 15.8841 39.9827 16.4385C40.3714 16.9652 40.7601 17.5196 41.0933 18.0463C41.4265 18.573 41.7042 19.072 41.9263 19.5156H38.4833C38.2612 19.1552 38.0113 18.7948 37.7336 18.379C37.456 17.9632 37.1505 17.5474 36.8729 17.1038C36.5675 16.688 36.2343 16.2722 35.8733 15.8841C35.5679 15.5237 35.2347 15.1911 34.8737 14.9139V19.5433H31.875V4.35221L34.8737 3.88095V12.7239Z" fill="white"/>
</svg>
