<svg width="80" height="80" viewBox="0 0 80 80" fill="none" xmlns="http://www.w3.org/2000/svg">
<g id="Group 22 Copy 13">
<rect id="Rectangle Copy 27" opacity="0.2" width="80" height="80" rx="24" fill="#0066FF"/>
<g id="lock-key">
<path id="Vector" d="M39.9977 46.6668C42.2989 46.6668 44.1644 44.8013 44.1644 42.5002C44.1644 40.199 42.2989 38.3335 39.9977 38.3335C37.6965 38.3335 35.8311 40.199 35.8311 42.5002C35.8311 44.8013 37.6965 46.6668 39.9977 46.6668Z" stroke="#0066FF" stroke-width="4" stroke-linecap="round" stroke-linejoin="round"/>
<path id="Vector_2" d="M39.998 46.667V51.667" stroke="#0066FF" stroke-width="4" stroke-linecap="round" stroke-linejoin="round"/>
<path id="Vector_3" d="M56.665 31.667H23.3317C22.4112 31.667 21.665 32.4132 21.665 33.3337V56.667C21.665 57.5875 22.4112 58.3337 23.3317 58.3337H56.665C57.5855 58.3337 58.3317 57.5875 58.3317 56.667V33.3337C58.3317 32.4132 57.5855 31.667 56.665 31.667Z" stroke="#0066FF" stroke-width="4" stroke-linecap="round" stroke-linejoin="round"/>
<path id="Vector_4" d="M32.498 31.667V24.167C32.498 22.1779 33.2882 20.2702 34.6947 18.8637C36.1013 17.4572 38.0089 16.667 39.998 16.667C41.9872 16.667 43.8948 17.4572 45.3013 18.8637C46.7079 20.2702 47.498 22.1779 47.498 24.167V31.667" stroke="#0066FF" stroke-width="4" stroke-linecap="round" stroke-linejoin="round"/>
</g>
</g>
</svg>
