<svg width="118" height="46" viewBox="0 0 118 46" fill="none" xmlns="http://www.w3.org/2000/svg">
<path d="M27.6907 29.9232L23.4477 27.455C23.6973 25.902 23.8914 24.349 24.0023 22.7405C24.0578 21.9363 24.0855 20.9934 24.0855 19.995C25.6386 21.5757 27.8294 24.7927 27.6907 29.9232ZM15.2944 22.7405C14.9922 22.5742 14.6259 22.5742 14.3237 22.7405L7.9453 26.4289C7.76039 25.1809 7.62172 23.9053 7.52932 22.6018C6.97467 14.6427 9.1378 9.40129 11.0236 6.40619C12.0307 4.77165 13.3167 3.32624 14.8229 2.13541C16.3207 3.32707 17.5974 4.77248 18.5945 6.40619C20.4803 9.40129 22.6435 14.6427 22.0888 22.6018C22.0056 23.8961 21.8669 25.1717 21.6728 26.4289L15.2944 22.7405ZM1.92738 29.8954C1.78872 24.7927 3.95184 21.6035 5.53259 19.9673C5.53259 20.8547 5.56032 21.7699 5.61579 22.7128C5.72672 24.3212 5.92084 25.902 6.17043 27.4273L1.92738 29.8954ZM23.9746 17.305C23.5864 12.6182 22.1165 6.87764 17.9012 2.385C17.8735 2.35727 15.6272 1.93445e-05 14.7952 1.93445e-05C14.6197 0.00334723 14.448 0.0510469 14.296 0.138681C13.9355 0.36054 6.58642 4.99184 5.61579 17.3327C4.11824 18.4697 -0.845854 22.8514 0.124778 31.6149C0.178726 32.1432 0.650284 32.5279 1.17861 32.4746C1.31131 32.4505 1.44142 32.4134 1.56686 32.3636L6.55869 29.4795C6.78054 30.5888 7.05787 31.6703 7.36292 32.7241C7.51068 33.2267 8.03782 33.5143 8.54036 33.3664C8.54546 33.3652 8.55042 33.3637 8.55542 33.362C8.63861 33.3343 8.69408 33.3065 8.77728 33.2788L12.6321 31.0602C13.0832 30.7849 13.2256 30.1961 12.9504 29.7452C12.6876 29.3148 12.1358 29.162 11.6892 29.3963L8.91594 31.0047C8.69408 30.1728 8.49995 29.3408 8.33356 28.4811L14.8507 24.7372L21.3678 28.5088C21.2014 29.3685 21.0072 30.2005 20.7854 31.0325L18.0122 29.424C17.5611 29.1486 16.9723 29.2912 16.697 29.7424C16.4218 30.1933 16.5642 30.7821 17.0153 31.0575C17.0329 31.0683 17.0509 31.0783 17.0693 31.0879L20.924 33.3065C21.066 33.394 21.2288 33.4419 21.3955 33.4452C21.5174 33.4402 21.6383 33.4217 21.756 33.3897C22.0254 33.2832 22.2303 33.0581 22.3107 32.7796C22.6157 31.7258 22.893 30.6442 23.1149 29.5349L28.1067 32.4191C28.2487 32.5065 28.4115 32.5545 28.5782 32.5578C29.0729 32.5723 29.4897 32.192 29.5211 31.6981C30.464 22.8237 25.4444 18.4143 23.9746 17.305Z" fill="#0066FF"/>
<path d="M17.2893 39.7133C16.5736 41.0091 15.738 42.2345 14.7934 43.374C13.855 42.2298 13.0198 41.0048 12.2975 39.7133C11.5366 38.3348 12.0373 36.6007 13.4157 35.8397C14.7941 35.079 16.5284 35.5796 17.2893 36.9582C17.7626 37.8154 17.7626 38.8559 17.2893 39.7133ZM14.7934 33.529C12.159 33.529 10.0234 35.6647 10.0234 38.299C10.0283 39.1233 10.2379 39.9332 10.6335 40.6562C12.4362 43.8732 14.0446 45.4539 14.1278 45.5094C14.4982 45.8702 15.0886 45.8702 15.459 45.5094C15.5144 45.4539 17.1229 43.8732 18.9533 40.6562C20.2446 38.3759 19.4429 35.4805 17.1626 34.1891C17.1493 34.1816 17.1361 34.1744 17.1229 34.1668C16.4186 33.7471 15.6133 33.5265 14.7934 33.529Z" fill="#0066FF"/>
<path d="M42.2676 19.6173C42.2676 19.1504 42.3648 18.7029 42.5594 18.2748C42.7669 17.8468 43.0523 17.4771 43.4155 17.1658C43.7917 16.8415 44.2392 16.5821 44.758 16.3875C45.2898 16.193 45.8865 16.0957 46.548 16.0957C47.1577 16.0957 47.709 16.193 48.2019 16.3875C48.7077 16.5821 49.1423 16.8545 49.5055 17.2047C49.8687 17.5549 50.1475 17.97 50.3421 18.4499C50.5367 18.9169 50.634 19.4293 50.634 19.987H48.3964C48.3964 19.4422 48.2343 19.0142 47.91 18.7029C47.5857 18.3916 47.1317 18.2359 46.548 18.2359C45.9643 18.2359 45.5103 18.3786 45.1861 18.664C44.8618 18.9493 44.6997 19.2606 44.6997 19.5979C44.6997 19.9611 44.8553 20.24 45.1666 20.4345C45.4779 20.6291 45.8671 20.8042 46.334 20.9599C46.801 21.1155 47.3069 21.2776 47.8516 21.4463C48.4094 21.6149 48.9218 21.8419 49.3887 22.1273C49.8557 22.4126 50.2448 22.7888 50.5561 23.2558C50.8674 23.7097 51.0231 24.3064 51.0231 25.0458C51.0231 25.4868 50.9128 25.9148 50.6923 26.3299C50.4848 26.745 50.1865 27.1212 49.7973 27.4584C49.4082 27.7827 48.9347 28.0486 48.377 28.2561C47.8322 28.4507 47.2225 28.548 46.548 28.548C45.8606 28.548 45.2444 28.4507 44.6997 28.2561C44.1678 28.0616 43.7138 27.7892 43.3377 27.439C42.9615 27.0758 42.6697 26.6542 42.4621 26.1743C42.2676 25.6814 42.1703 25.1431 42.1703 24.5594H44.5051C44.5051 25.1041 44.6867 25.5516 45.0499 25.9019C45.4131 26.2391 45.9125 26.4077 46.548 26.4077C47.2355 26.4077 47.7479 26.2651 48.0851 25.9797C48.4224 25.6814 48.591 25.3376 48.591 24.9485C48.591 24.5723 48.4353 24.2805 48.124 24.0729C47.8127 23.8654 47.4236 23.6838 46.9566 23.5281C46.4897 23.3595 45.9773 23.1974 45.4196 23.0417C44.8748 22.8861 44.3689 22.672 43.9019 22.3997C43.435 22.1273 43.0458 21.777 42.7345 21.349C42.4232 20.908 42.2676 20.3308 42.2676 19.6173ZM56.7537 26.2132C57.2336 26.2132 57.6941 26.1094 58.1351 25.9019C58.5891 25.6943 58.9848 25.4155 59.322 25.0652C59.6722 24.715 59.9446 24.3064 60.1392 23.8395C60.3467 23.3595 60.4505 22.8536 60.4505 22.3218C60.4505 21.79 60.3467 21.2906 60.1392 20.8237C59.9446 20.3437 59.6722 19.9286 59.322 19.5784C58.9848 19.2282 58.5891 18.9493 58.1351 18.7418C57.6941 18.5342 57.2336 18.4305 56.7537 18.4305H55.1972V26.2132H56.7537ZM52.8624 28.4507V16.193H56.7537C57.5579 16.193 58.3232 16.3616 59.0496 16.6988C59.776 17.0231 60.4181 17.4641 60.9758 18.0219C61.5336 18.5796 61.9746 19.2282 62.2989 19.9676C62.6232 20.7069 62.7853 21.4917 62.7853 22.3218C62.7853 23.152 62.6232 23.9367 62.2989 24.6761C61.9746 25.4155 61.5336 26.064 60.9758 26.6218C60.4181 27.1795 59.776 27.627 59.0496 27.9643C58.3232 28.2886 57.5579 28.4507 56.7537 28.4507H52.8624ZM74.4685 16.193V28.4507H72.1337V23.2947H66.9776V28.4507H64.6428V16.193H66.9776V21.0571H72.1337V16.193H74.4685ZM89.438 26.2132V28.4507H81.3635V16.193H83.6983V26.2132H89.438ZM94.309 19.4033C94.8149 19.4033 95.2819 19.4941 95.7099 19.6757C96.138 19.8443 96.5076 20.0843 96.819 20.3956C97.1303 20.7069 97.3702 21.0766 97.5389 21.5046C97.7204 21.9327 97.8112 22.3997 97.8112 22.9055V28.4507H96.1574L95.7683 27.5751C95.5607 27.7567 95.3338 27.9189 95.0873 28.0616C94.8668 28.1913 94.6009 28.308 94.2896 28.4118C93.9783 28.5026 93.628 28.548 93.2389 28.548C92.2661 28.548 91.5202 28.3145 91.0014 27.8475C90.4825 27.3676 90.2231 26.758 90.2231 26.0186C90.2231 25.5776 90.3074 25.1755 90.4761 24.8123C90.6576 24.4361 90.956 24.1183 91.3711 23.8589C91.7861 23.5865 92.3309 23.379 93.0054 23.2363C93.6929 23.0806 94.549 23.0028 95.5737 23.0028C95.5737 22.5099 95.4375 22.1273 95.1651 21.8549C94.9057 21.5825 94.5555 21.4463 94.1145 21.4463C93.8161 21.4463 93.5762 21.4982 93.3946 21.6019C93.2259 21.7057 93.0897 21.816 92.986 21.9327C92.8692 22.0754 92.7914 22.2375 92.7525 22.4191H90.515C90.5669 22.004 90.6836 21.6149 90.8652 21.2517C91.0598 20.8885 91.3192 20.5707 91.6435 20.2983C91.9677 20.0259 92.3504 19.8119 92.7914 19.6563C93.2454 19.4876 93.7513 19.4033 94.309 19.4033ZM93.628 26.7969C94.2117 26.7969 94.6787 26.6283 95.0289 26.291C95.3921 25.9408 95.5737 25.4933 95.5737 24.9485V24.5594C94.9122 24.5594 94.3804 24.5918 93.9783 24.6566C93.5762 24.7085 93.2584 24.7928 93.0249 24.9096C92.8044 25.0133 92.6552 25.1431 92.5774 25.2987C92.4996 25.4544 92.4606 25.6295 92.4606 25.824C92.4606 26.0705 92.5709 26.2975 92.7914 26.505C93.0119 26.6996 93.2908 26.7969 93.628 26.7969ZM104.419 28.548C104.03 28.548 103.68 28.5026 103.368 28.4118C103.057 28.308 102.791 28.1913 102.571 28.0616C102.311 27.9189 102.084 27.7567 101.89 27.5751L101.5 28.4507H99.8466V16.193H102.084V20.2789C102.266 20.1232 102.473 19.9805 102.707 19.8508C102.914 19.7471 103.154 19.6498 103.427 19.559C103.712 19.4552 104.043 19.4033 104.419 19.4033C104.977 19.4033 105.509 19.5201 106.014 19.7535C106.52 19.974 106.961 20.2918 107.337 20.7069C107.727 21.109 108.031 21.589 108.252 22.1467C108.485 22.7045 108.602 23.3141 108.602 23.9757C108.602 24.6372 108.485 25.2468 108.252 25.8046C108.031 26.3623 107.727 26.8488 107.337 27.2638C106.961 27.6659 106.52 27.9837 106.014 28.2172C105.509 28.4377 104.977 28.548 104.419 28.548ZM101.89 23.9757C101.89 24.715 102.104 25.3052 102.532 25.7462C102.96 26.1872 103.491 26.4077 104.127 26.4077C104.763 26.4077 105.294 26.1872 105.723 25.7462C106.151 25.3052 106.365 24.715 106.365 23.9757C106.365 23.2363 106.151 22.6461 105.723 22.2051C105.294 21.7641 104.763 21.5436 104.127 21.5436C103.491 21.5436 102.96 21.7641 102.532 22.2051C102.104 22.6461 101.89 23.2363 101.89 23.9757ZM111.913 25.6295C111.965 25.9278 112.107 26.1807 112.341 26.3883C112.574 26.5958 112.886 26.6996 113.275 26.6996C113.664 26.6996 113.969 26.6023 114.189 26.4077C114.423 26.2002 114.539 25.9732 114.539 25.7268C114.539 25.5192 114.423 25.3571 114.189 25.2403C113.969 25.1236 113.69 25.0198 113.353 24.929C113.015 24.8253 112.646 24.7215 112.244 24.6177C111.854 24.514 111.491 24.3648 111.154 24.1702C110.817 23.9627 110.531 23.7033 110.298 23.3919C110.077 23.0677 109.967 22.6461 109.967 22.1273C109.967 21.7641 110.038 21.4203 110.181 21.0961C110.337 20.7588 110.557 20.467 110.843 20.2205C111.128 19.974 111.465 19.7795 111.854 19.6368C112.244 19.4811 112.685 19.4033 113.178 19.4033C114.254 19.4033 115.078 19.6627 115.649 20.1816C116.232 20.7004 116.576 21.349 116.68 22.1273H114.539C114.488 21.9327 114.345 21.7381 114.111 21.5436C113.891 21.349 113.612 21.2517 113.275 21.2517C112.938 21.2517 112.672 21.336 112.477 21.5046C112.295 21.6733 112.205 21.8808 112.205 22.1273C112.205 22.3348 112.315 22.4969 112.535 22.6137C112.769 22.7304 113.054 22.8407 113.392 22.9444C113.729 23.0352 114.092 23.139 114.481 23.2558C114.883 23.3595 115.253 23.5152 115.59 23.7227C115.927 23.9303 116.206 24.2026 116.427 24.5399C116.66 24.8642 116.777 25.2922 116.777 25.824C116.777 26.1872 116.699 26.5375 116.544 26.8747C116.388 27.199 116.167 27.4844 115.882 27.7308C115.597 27.9773 115.246 28.1783 114.831 28.334C114.429 28.4766 113.975 28.548 113.469 28.548C112.302 28.548 111.413 28.2821 110.804 27.7503C110.207 27.2184 109.863 26.5115 109.773 25.6295H111.913Z" fill="black"/>
</svg>
