<svg width="50" height="50" viewBox="0 0 50 50" fill="none" xmlns="http://www.w3.org/2000/svg">
<g id="Group 149">
<rect id="Rectangle Copy 24" opacity="0.195126" width="50" height="50" rx="16" fill="#61DAFB"/>
<g id="React-icon">
<path id="Shape" fill-rule="evenodd" clip-rule="evenodd" d="M32.3198 20.4746C35.7468 21.5236 37.982 23.2151 37.982 25C37.982 26.7794 35.7578 28.4709 32.3527 29.5199C33.1491 33.0018 32.8031 35.7753 31.2598 36.665C30.8974 36.8737 30.48 36.9725 30.0187 36.9725C28.5084 36.9725 26.5312 35.9071 24.5322 34.0508C22.5331 35.9181 20.556 36.9945 19.0457 36.9945C18.5843 36.9945 18.1669 36.8957 17.81 36.687C16.2612 35.7973 15.9097 33.0183 16.7006 29.5254C13.2736 28.4764 11.0383 26.7849 11.0383 25C11.0383 23.2206 13.2626 21.5346 16.6786 20.4801C15.8823 16.9982 16.2283 14.2247 17.7715 13.335C18.134 13.1263 18.5514 13.0275 19.0127 13.0275V13.022C20.523 13.022 22.5001 14.0874 24.4992 15.9437C26.4983 14.0764 28.4754 13 29.9857 13V13.0055C30.4394 13.0063 30.8549 13.1052 31.2104 13.313C32.7592 14.2027 33.1106 16.9817 32.3198 20.4746ZM29.9802 14.2247C28.838 14.2276 27.1599 15.139 25.3724 16.8005C26.1468 17.6078 26.9157 18.5304 27.6571 19.5465C28.8928 19.6783 30.0681 19.8815 31.1445 20.1451C31.2653 19.5904 31.3642 19.0467 31.4246 18.5304C31.6772 16.4325 31.3532 14.8014 30.6063 14.373C30.436 14.2796 30.2328 14.2302 29.9802 14.2302V14.2247ZM23.626 16.8059C21.8356 15.1529 20.1495 14.2467 19.0127 14.2467V14.2522C18.7601 14.2522 18.5459 14.2961 18.3811 14.395C17.6397 14.8288 17.3212 16.46 17.5793 18.5579C17.6452 19.0686 17.7386 19.6014 17.8649 20.1506C18.9413 19.8815 20.1166 19.6783 21.3578 19.5465C22.0882 18.5304 22.8571 17.6133 23.626 16.8059ZM30.09 23.5062C30.3756 22.7757 30.6283 22.0453 30.8315 21.3368C30.112 21.1611 29.3596 21.0183 28.5797 20.903C28.8489 21.3204 29.118 21.7487 29.3706 22.1881C29.6287 22.6275 29.8649 23.0668 30.09 23.5062ZM28.3161 27.1858C27.8878 27.9272 27.4484 28.6302 26.9926 29.2838C26.1743 29.3551 25.345 29.3936 24.5102 29.3936C23.6809 29.3936 22.8516 29.3551 22.0388 29.2892C21.583 28.6357 21.1381 27.9382 20.7097 27.2023C20.2923 26.4828 19.9134 25.7524 19.5674 25.0165C19.9079 24.2805 20.2923 23.5446 20.7042 22.8252C21.1326 22.0838 21.572 21.3808 22.0278 20.7272C22.8461 20.6558 23.6754 20.6174 24.5102 20.6174C25.3395 20.6174 26.1688 20.6558 26.9816 20.7217C27.4374 21.3753 27.8823 22.0728 28.3106 22.8087C28.728 23.5281 29.107 24.2586 29.453 24.9945C29.107 25.7304 28.728 26.4664 28.3161 27.1858ZM30.8479 28.6577C30.6392 27.9437 30.3866 27.2078 30.09 26.4719C29.8649 26.9112 29.6287 27.3561 29.3761 27.7954C29.1235 28.2403 28.8543 28.6741 28.5852 29.097C29.3706 28.9817 30.1285 28.8334 30.8479 28.6577ZM24.5212 32.3318C24.0104 31.8046 23.4997 31.2169 22.9944 30.5744C23.4887 30.5963 23.9939 30.6128 24.5047 30.6128C25.0209 30.6128 25.5317 30.6018 26.0315 30.5744C25.5372 31.2169 25.0264 31.8046 24.5212 32.3318ZM18.1834 28.6632C18.9029 28.8389 19.6553 28.9817 20.4351 29.097C20.166 28.6796 19.9024 28.2513 19.6443 27.8119C19.3862 27.3725 19.15 26.9332 18.9248 26.4938C18.6392 27.2243 18.3866 27.9547 18.1834 28.6632ZM24.4937 17.6682C25.0045 18.1954 25.5152 18.7831 26.0205 19.4256C25.5262 19.4037 25.0209 19.3872 24.5102 19.3872C23.9939 19.3872 23.4832 19.3982 22.9834 19.4256C23.4777 18.7831 23.9884 18.1954 24.4937 17.6682ZM19.6388 22.2046C19.8914 21.7597 20.1605 21.3259 20.4296 20.903C19.6443 21.0183 18.8864 21.1666 18.1669 21.3368C18.3756 22.0508 18.6283 22.7867 18.9248 23.5227C19.15 23.0833 19.3862 22.6439 19.6388 22.2046ZM15.4594 27.7789C13.5152 26.9497 12.2576 25.8622 12.2576 25C12.2576 24.1378 13.5152 23.0449 15.4594 22.2211C15.9317 22.0178 16.4479 21.8366 16.9807 21.6664C17.2937 22.7428 17.7056 23.8632 18.2164 25.011C17.7111 26.1533 17.3047 27.2682 16.9971 28.3391C16.4534 28.1689 15.9372 27.9822 15.4594 27.7789ZM17.5958 31.4696C17.3431 33.5675 17.6672 35.1986 18.4141 35.627C18.5788 35.7204 18.7875 35.7698 19.0347 35.7753C20.177 35.7753 21.8576 34.8636 23.6479 33.1995C22.8736 32.3922 22.1047 31.4696 21.3633 30.4535C20.1276 30.3217 18.9523 30.1185 17.8759 29.8549C17.755 30.4096 17.6562 30.9533 17.5958 31.4696ZM31.4411 31.4421C31.6992 33.54 31.3807 35.1712 30.6392 35.605C30.4745 35.7039 30.2603 35.7478 30.0077 35.7478C28.8708 35.7478 27.1848 34.8416 25.3944 33.1886C26.1633 32.3812 26.9322 31.4641 27.6626 30.4481C28.9038 30.3162 30.0791 30.113 31.1555 29.8439C31.2818 30.3986 31.3807 30.9313 31.4411 31.4421ZM32.0342 28.3336C32.5669 28.1634 33.0832 27.9822 33.5555 27.7789C35.4997 26.9551 36.7573 25.8622 36.7628 25C36.7628 24.1378 35.5051 23.0503 33.561 22.2211C33.0777 22.0178 32.5614 21.8311 32.0177 21.6609C31.7102 22.7318 31.3038 23.8467 30.7985 24.989C31.3093 26.1368 31.7212 27.2572 32.0342 28.3336Z" fill="#61DAFB"/>
<path id="Oval" d="M24.5047 27.5099C25.8909 27.5099 27.0146 26.3862 27.0146 25.0001C27.0146 23.6139 25.8909 22.4902 24.5047 22.4902C23.1186 22.4902 21.9949 23.6139 21.9949 25.0001C21.9949 26.3862 23.1186 27.5099 24.5047 27.5099Z" fill="#61DAFB"/>
</g>
</g>
</svg>
