<svg width="561" height="512" viewBox="0 0 561 512" fill="none" xmlns="http://www.w3.org/2000/svg">
<g clip-path="url(#clip0)">
<path fill-rule="evenodd" clip-rule="evenodd" d="M352 451.8L267.5 402.9C220.8 375.9 183 303.4 183 241C183 178.6 220.8 149.9 267.5 177C314.2 204.1 352 276.4 352 338.8V451.8Z" fill="#FFDBC2"/>
<path fill-rule="evenodd" clip-rule="evenodd" d="M361 457L409.5 485C436.3 500.5 458 484 458 448.3C458 412.6 436.3 371.1 409.5 355.6C382.7 340.1 361 356.6 361 392.3V457Z" fill="#FFDBC2"/>
<path fill-rule="evenodd" clip-rule="evenodd" d="M413.8 96.7995C413.6 96.7995 413.4 96.7995 413.2 96.5995L361.7 68.0995C361.1 67.7995 360.9 66.9995 361.2 66.3995C361.5 65.7995 362.3 65.5995 362.9 65.8995L414.4 94.3995C415 94.6995 415.2 95.4995 414.9 96.0995C414.6 96.4995 414.2 96.7995 413.8 96.7995Z" fill="black"/>
<path fill-rule="evenodd" clip-rule="evenodd" d="M280.1 92.3995C279.9 92.3995 279.7 92.3995 279.5 92.1995L275.7 90.0995C275.1 89.7995 274.9 88.9995 275.2 88.3995C275.5 87.7995 276.3 87.5995 276.9 87.8995L280.7 89.9995C281.3 90.2995 281.5 91.0995 281.2 91.6995C280.9 92.0995 280.5 92.3995 280.1 92.3995ZM290.2 97.9995C290 97.9995 289.8 97.9995 289.6 97.7995L285.8 95.6995C285.2 95.3995 285 94.5995 285.3 93.9995C285.6 93.3995 286.4 93.1995 287 93.4995L290.8 95.5995C291.4 95.8995 291.6 96.6995 291.3 97.2995C291.1 97.7995 290.7 97.9995 290.2 97.9995ZM300.4 103.6C300.2 103.6 300 103.6 299.8 103.4L296 101.4C295.4 101.1 295.2 100.3 295.5 99.6995C295.8 99.0995 296.6 98.8995 297.2 99.1995L301 101.3C301.6 101.6 301.8 102.4 301.5 103C301.3 103.4 300.9 103.6 300.4 103.6ZM310.6 109.3C310.4 109.3 310.2 109.3 310 109.1L306.2 107C305.6 106.7 305.4 105.9 305.7 105.3C306 104.7 306.8 104.5 307.4 104.8L311.2 106.9C311.8 107.2 312 108 311.7 108.6C311.5 109 311 109.3 310.6 109.3ZM320.8 114.9C320.6 114.9 320.4 114.9 320.2 114.7L316.4 112.6C315.8 112.3 315.6 111.5 315.9 110.9C316.2 110.3 317 110.1 317.6 110.4L321.4 112.5C322 112.8 322.2 113.6 321.9 114.2C321.6 114.7 321.2 114.9 320.8 114.9ZM327.8 118.8C327.6 118.8 327.4 118.8 327.2 118.6L326.6 118.3C326 118 325.8 117.2 326.1 116.6C326.4 116 327.2 115.8 327.8 116.1L328.4 116.4C329 116.7 329.2 117.5 328.9 118.1C328.6 118.5 328.2 118.8 327.8 118.8Z" fill="black"/>
<path fill-rule="evenodd" clip-rule="evenodd" d="M367.9 140.8C367.4 140.8 367 140.5 366.8 140.1L366.1 138.3C365.9 137.7 366.2 137.1 366.7 136.9C367.3 136.7 367.9 137 368.2 137.5L368.9 139.3C369.1 139.9 368.8 140.5 368.3 140.7C368.1 140.8 368 140.8 367.9 140.8Z" fill="black"/>
<path fill-rule="evenodd" clip-rule="evenodd" d="M343.8 78.3999C343.3 78.3999 342.8 78.0999 342.7 77.5999L341.1 73.4999C340.9 72.8999 341.2 72.0999 341.8 71.8999C342.4 71.5999 343.1 71.9999 343.4 72.5999L345 76.6999C345.2 77.2999 344.9 78.0999 344.3 78.2999C344.1 78.2999 343.9 78.3999 343.8 78.3999ZM348 89.1999C347.5 89.1999 347 88.8999 346.9 88.3999L345.3 84.2999C345 83.6999 345.3 82.9999 346 82.6999C346.6 82.3999 347.3 82.7999 347.6 83.3999L349.2 87.4999C349.4 88.0999 349.1 88.8999 348.5 89.0999C348.3 89.1999 348.1 89.1999 348 89.1999ZM352.2 100.1C351.7 100.1 351.2 99.7999 351.1 99.2999L349.5 95.1999C349.3 94.5999 349.6 93.7999 350.2 93.5999C350.8 93.2999 351.5 93.6999 351.8 94.2999L353.4 98.3999C353.6 98.9999 353.3 99.7999 352.7 99.9999C352.5 100.1 352.3 100.1 352.2 100.1ZM356.4 111C355.9 111 355.4 110.7 355.3 110.2L353.7 106.1C353.5 105.5 353.8 104.7 354.4 104.5C355 104.2 355.7 104.6 356 105.2L357.6 109.3C357.8 109.9 357.5 110.7 356.9 110.9C356.7 111 356.5 111 356.4 111ZM360.6 121.9C360.1 121.9 359.6 121.6 359.5 121.1L357.9 117C357.7 116.4 358 115.6 358.6 115.4C359.2 115.1 359.9 115.5 360.2 116.1L361.8 120.2C362 120.8 361.7 121.6 361.1 121.8C360.9 121.9 360.7 121.9 360.6 121.9ZM364.8 132.8C364.3 132.8 363.8 132.5 363.7 132L362.1 127.9C361.9 127.3 362.2 126.5 362.8 126.3C363.4 126 364.1 126.4 364.4 127L366 131.1C366.2 131.7 365.9 132.5 365.3 132.7C365.1 132.8 364.9 132.8 364.8 132.8Z" fill="black"/>
<path fill-rule="evenodd" clip-rule="evenodd" d="M338.9 67.7996C338.4 67.7996 338 67.4996 337.8 67.0996L337.1 65.2996C336.9 64.6996 337.2 64.0996 337.7 63.8996C338.3 63.6996 338.9 63.9996 339.2 64.4996L339.9 66.2996C340.1 66.8996 339.8 67.4996 339.3 67.6996C339.1 67.7996 339 67.7996 338.9 67.7996Z" fill="black"/>
<path fill-rule="evenodd" clip-rule="evenodd" d="M391.2 172.8C391 172.8 390.9 172.8 390.7 172.7C390.1 172.4 389.8 171.7 390 171.1L419.5 94.5999C419.7 93.9999 420.5 93.5999 421.1 93.8999C421.7 94.1999 422 94.8999 421.8 95.4999L392.4 172C392.2 172.5 391.7 172.8 391.2 172.8Z" fill="black"/>
<path fill-rule="evenodd" clip-rule="evenodd" d="M270.2 103.1L229.9 79.6997C222.2 75.1997 216 63.2997 216 52.9997C216 42.6997 222.2 37.9997 229.8 42.4997L270.1 65.8997C277.8 70.2997 284 82.2997 284 92.5997C284 102.8 277.8 107.6 270.2 103.1Z" fill="white"/>
<path fill-rule="evenodd" clip-rule="evenodd" d="M223.7 42.3004C222.6 42.3004 221.6 42.6004 220.7 43.1004C218 44.6004 216.5 48.3004 216.5 53.2004C216.5 63.0004 222.5 74.4004 229.8 78.6004L270.4 101.9C273.4 103.6 276.1 103.9 278.3 102.6C281 101.1 282.5 97.4004 282.5 92.5004C282.5 82.7004 276.5 71.3004 269.2 67.1004L228.6 43.8004C226.8 42.8004 225.2 42.3004 223.7 42.3004ZM275.3 105.8C273.3 105.8 271.3 105.2 269.1 104L228.5 80.7004C220.5 76.1004 213.9 63.7004 213.9 53.2004C213.9 47.4004 215.9 42.9004 219.3 40.9004C222.2 39.2004 225.9 39.5004 229.7 41.6004L270.3 64.9004C278.3 69.5004 284.9 81.9004 284.9 92.4004C284.9 98.2004 282.9 102.7 279.5 104.7C278.3 105.4 276.9 105.8 275.3 105.8Z" fill="black"/>
<path fill-rule="evenodd" clip-rule="evenodd" d="M356.9 82.6004L304.1 51.8004C294.1 46.0004 286 30.3004 286 16.8004C286 3.30038 294.1 -2.89962 304.1 3.00038L356.9 33.8004C366.9 39.6004 375 55.3004 375 68.8004C375 82.2004 366.9 88.4004 356.9 82.6004Z" fill="white"/>
<mask id="mask0" mask-type="alpha" maskUnits="userSpaceOnUse" x="284" y="0" width="92" height="87">
<path fill-rule="evenodd" clip-rule="evenodd" d="M284 0H375.7V86.7H284V0Z" fill="white"/>
</mask>
<g mask="url(#mask0)">
<path fill-rule="evenodd" clip-rule="evenodd" d="M296.2 2.50035C294.7 2.50035 293.4 2.90036 292.1 3.60036C288.5 5.70036 286.4 10.7004 286.4 17.4004C286.4 30.5004 294.3 45.8004 304 51.4004L356.9 82.3003C360.9 84.6003 364.7 85.0003 367.6 83.3003C371.2 81.2003 373.3 76.2003 373.3 69.5004C373.3 56.4004 365.4 41.1003 355.7 35.5004L302.8 4.60036C300.5 3.20036 298.2 2.50035 296.2 2.50035ZM363.6 86.7003C361.1 86.7003 358.5 85.9003 355.8 84.3003L302.9 53.4004C292.5 47.4004 284.1 31.1003 284.1 17.2003C284.1 9.60035 286.6 3.80035 291 1.30035C294.7 -0.899647 299.4 -0.499646 304.1 2.30035L357 33.2003C367.4 39.2003 375.8 55.5004 375.8 69.4004C375.8 77.0004 373.3 82.8003 368.9 85.3003C367.2 86.3003 365.5 86.7003 363.6 86.7003Z" fill="black"/>
</g>
<path fill-rule="evenodd" clip-rule="evenodd" d="M387.9 184.6L335.1 153.8C325.1 148 317 132.3 317 118.8C317 105.3 325.1 99.1004 335.1 105L387.9 135.8C397.9 141.6 406 157.3 406 170.8C406 184.2 397.9 190.4 387.9 184.6Z" fill="white"/>
<path fill-rule="evenodd" clip-rule="evenodd" d="M327.2 104.3C325.7 104.3 324.4 104.6 323.1 105.4C319.5 107.5 317.4 112.5 317.4 119.1C317.4 132.1 325.3 147.2 335 152.8L388.1 183.4C392.1 185.7 395.9 186 398.8 184.4C402.4 182.3 404.5 177.3 404.5 170.7C404.5 157.7 396.6 142.6 386.9 137L333.8 106.3C331.5 104.9 329.3 104.3 327.2 104.3ZM394.8 187.8C392.3 187.8 389.6 187 386.9 185.5L333.8 154.8C323.5 148.8 315 132.7 315 119C315 111.5 317.5 105.7 321.9 103.2C325.6 101.1 330.3 101.4 335.1 104.2L388.2 134.8C398.6 140.8 407 156.9 407 170.7C407 178.2 404.5 184 400.1 186.5C398.5 187.3 396.7 187.8 394.8 187.8Z" fill="black"/>
<path fill-rule="evenodd" clip-rule="evenodd" d="M455.2 143.1L414.9 119.7C407.2 115.2 401 103.3 401 92.9997C401 82.6997 407.2 77.9997 414.8 82.4997L455.1 105.9C462.7 110.3 468.9 122.3 468.9 132.6C469 142.8 462.8 147.6 455.2 143.1Z" fill="white"/>
<path fill-rule="evenodd" clip-rule="evenodd" d="M409.7 82.3004C408.6 82.3004 407.6 82.6004 406.7 83.1004C404 84.6004 402.5 88.3004 402.5 93.2004C402.5 103 408.5 114.4 415.8 118.6L456.4 141.9C459.4 143.6 462.1 143.9 464.3 142.6C467 141.1 468.5 137.4 468.5 132.5C468.5 122.7 462.5 111.3 455.2 107.1L414.6 83.8004C412.8 82.8004 411.2 82.3004 409.7 82.3004ZM461.3 145.8C459.3 145.8 457.2 145.2 455.1 144L414.5 120.7C406.5 116.1 399.9 103.7 399.9 93.2004C399.9 87.4004 401.9 82.9004 405.3 80.9004C408.2 79.2004 411.9 79.5004 415.7 81.6004L456.3 104.9C464.3 109.5 470.9 121.9 470.9 132.4C470.9 138.2 468.9 142.7 465.5 144.7C464.3 145.4 462.9 145.8 461.3 145.8Z" fill="black"/>
<path fill-rule="evenodd" clip-rule="evenodd" d="M47.8 360.8L48 414.7L1.20001 441.8L1 387.9L47.8 360.8Z" fill="white"/>
<path fill-rule="evenodd" clip-rule="evenodd" d="M2.89999 389.2L3 439.7L47 414.3L46.9 363.8L2.89999 389.2ZM1.60001 443.8C1.30001 443.8 1.09999 443.7 0.899994 443.6C0.399994 443.3 0.200012 442.9 0.200012 442.3L0 388.4C0 387.9 0.300012 387.4 0.700012 387.1L47.6 360C48.1 359.7 48.6 359.7 49.1 360C49.6 360.3 49.8 360.7 49.8 361.3L50 415.2C50 415.7 49.7 416.2 49.3 416.5L2.39999 443.6C2.09999 443.7 1.90001 443.8 1.60001 443.8Z" fill="black"/>
<path fill-rule="evenodd" clip-rule="evenodd" d="M95.8 333.8L96 387.7L49.2 414.8L49 360.9L95.8 333.8Z" fill="white"/>
<path fill-rule="evenodd" clip-rule="evenodd" d="M49.9 361.2L50 411.7L94 386.3L93.9 335.8L49.9 361.2ZM48.6 415.8C48.3 415.8 48.1 415.7 47.9 415.6C47.4 415.3 47.2 414.9 47.2 414.3L47 360.4C47 359.9 47.3 359.4 47.7 359.1L94.6 332C95.1 331.7 95.6 331.7 96.1 332C96.6 332.3 96.8 332.7 96.8 333.3L97 387.2C97 387.7 96.7 388.2 96.3 388.5L49.4 415.6C49.1 415.7 48.9 415.8 48.6 415.8Z" fill="black"/>
<path fill-rule="evenodd" clip-rule="evenodd" d="M141.8 306.8L142 360.7L95.2 387.8L95 333.9L141.8 306.8Z" fill="white"/>
<path fill-rule="evenodd" clip-rule="evenodd" d="M95.9 335.2L96 385.7L140 360.3L139.9 309.8L95.9 335.2ZM94.6 389.8C94.3 389.8 94.1 389.7 93.9 389.6C93.4 389.3 93.2 388.9 93.2 388.3L93 334.4C93 333.9 93.3 333.4 93.7 333.1L140.6 306C141.1 305.7 141.6 305.7 142.1 306C142.6 306.3 142.8 306.7 142.8 307.3L143 361.2C143 361.7 142.7 362.2 142.3 362.5L95.4 389.6C95.1 389.7 94.9 389.8 94.6 389.8Z" fill="black"/>
<path fill-rule="evenodd" clip-rule="evenodd" d="M188.8 279.8L189 333.7L142.2 360.8L142 306.9L188.8 279.8Z" fill="white"/>
<path fill-rule="evenodd" clip-rule="evenodd" d="M142.9 307.2L143 357.7L187 332.3L186.9 281.8L142.9 307.2ZM141.6 361.8C141.3 361.8 141.1 361.7 140.9 361.6C140.4 361.3 140.2 360.9 140.2 360.3L140 306.4C140 305.9 140.3 305.4 140.7 305.1L187.6 278C188.1 277.7 188.6 277.7 189.1 278C189.6 278.3 189.8 278.7 189.8 279.3L190 333.2C190 333.7 189.7 334.2 189.3 334.5L142.4 361.6C142.1 361.7 141.9 361.8 141.6 361.8Z" fill="black"/>
<path fill-rule="evenodd" clip-rule="evenodd" d="M47.8 306.8L48 360.7L1.20001 387.8L1 333.9L47.8 306.8Z" fill="white"/>
<path fill-rule="evenodd" clip-rule="evenodd" d="M2.89999 335.2L3 385.7L47 360.3L46.9 309.8L2.89999 335.2ZM1.60001 389.8C1.30001 389.8 1.09999 389.7 0.899994 389.6C0.399994 389.3 0.200012 388.9 0.200012 388.3L0 334.4C0 333.9 0.300012 333.4 0.700012 333.1L47.6 306C48.1 305.7 48.6 305.7 49.1 306C49.6 306.3 49.8 306.7 49.8 307.3L50 361.2C50 361.7 49.7 362.2 49.3 362.5L2.39999 389.6C2.09999 389.7 1.90001 389.8 1.60001 389.8Z" fill="black"/>
<path fill-rule="evenodd" clip-rule="evenodd" d="M95.8 279.8L96 333.7L49.2 360.8L49 306.9L95.8 279.8Z" fill="white"/>
<path fill-rule="evenodd" clip-rule="evenodd" d="M49.9 307.2L50 357.7L94 332.3L93.9 281.8L49.9 307.2ZM48.6 361.8C48.3 361.8 48.1 361.7 47.9 361.6C47.4 361.3 47.2 360.9 47.2 360.3L47 306.4C47 305.9 47.3 305.4 47.7 305.1L94.6 278C95.1 277.7 95.6 277.7 96.1 278C96.6 278.3 96.8 278.7 96.8 279.3L97 333.2C97 333.7 96.7 334.2 96.3 334.5L49.4 361.6C49.1 361.7 48.9 361.8 48.6 361.8Z" fill="black"/>
<path fill-rule="evenodd" clip-rule="evenodd" d="M141.8 252.8L142 306.7L95.2 333.8L95 279.9L141.8 252.8Z" fill="white"/>
<path fill-rule="evenodd" clip-rule="evenodd" d="M95.9 281.2L96 331.7L140 306.3L139.9 255.8L95.9 281.2ZM94.6 335.8C94.3 335.8 94.1 335.7 93.9 335.6C93.4 335.3 93.2 334.9 93.2 334.3L93 280.4C93 279.9 93.3 279.4 93.7 279.1L140.6 252C141.1 251.7 141.6 251.7 142.1 252C142.6 252.3 142.8 252.7 142.8 253.3L143 307.2C143 307.7 142.7 308.2 142.3 308.5L95.4 335.6C95.1 335.7 94.9 335.8 94.6 335.8Z" fill="black"/>
<path fill-rule="evenodd" clip-rule="evenodd" d="M188.8 225.8L189 279.7L142.2 306.8L142 252.9L188.8 225.8Z" fill="white"/>
<path fill-rule="evenodd" clip-rule="evenodd" d="M142.9 254.2L143 304.7L187 279.3L186.9 228.8L142.9 254.2ZM141.6 308.8C141.3 308.8 141.1 308.7 140.9 308.6C140.4 308.3 140.2 307.9 140.2 307.3L140 253.4C140 252.9 140.3 252.4 140.7 252.1L187.6 225C188.1 224.7 188.6 224.7 189.1 225C189.6 225.3 189.8 225.7 189.8 226.3L190 280.2C190 280.7 189.7 281.2 189.3 281.5L142.4 308.6C142.1 308.7 141.9 308.8 141.6 308.8Z" fill="black"/>
<path fill-rule="evenodd" clip-rule="evenodd" d="M47.8 253.8L48 307.7L1.20001 334.8L1 280.9L47.8 253.8Z" fill="white"/>
<path fill-rule="evenodd" clip-rule="evenodd" d="M2.89999 281.2L3 331.7L47 306.3L46.9 255.8L2.89999 281.2ZM1.60001 335.8C1.30001 335.8 1.09999 335.7 0.899994 335.6C0.399994 335.3 0.200012 334.9 0.200012 334.3L0 280.4C0 279.9 0.300012 279.4 0.700012 279.1L47.6 252C48.1 251.7 48.6 251.7 49.1 252C49.6 252.3 49.8 252.7 49.8 253.3L50 307.2C50 307.7 49.7 308.2 49.3 308.5L2.39999 335.6C2.09999 335.7 1.90001 335.8 1.60001 335.8Z" fill="black"/>
<path fill-rule="evenodd" clip-rule="evenodd" d="M95.8 225.8L96 279.7L49.2 306.8L49 252.9L95.8 225.8Z" fill="white"/>
<path fill-rule="evenodd" clip-rule="evenodd" d="M49.9 254.2L50 304.7L94 279.3L93.9 228.8L49.9 254.2ZM48.6 308.8C48.3 308.8 48.1 308.7 47.9 308.6C47.4 308.3 47.2 307.9 47.2 307.3L47 253.4C47 252.9 47.3 252.4 47.7 252.1L94.6 225C95.1 224.7 95.6 224.7 96.1 225C96.6 225.3 96.8 225.7 96.8 226.3L97 280.2C97 280.7 96.7 281.2 96.3 281.5L49.4 308.6C49.1 308.7 48.9 308.8 48.6 308.8Z" fill="black"/>
<path fill-rule="evenodd" clip-rule="evenodd" d="M141.8 199.8L142 253.7L95.2 280.8L95 226.9L141.8 199.8Z" fill="white"/>
<path fill-rule="evenodd" clip-rule="evenodd" d="M95.9 227.2L96 277.7L140 252.3L139.9 201.8L95.9 227.2ZM94.6 281.8C94.3 281.8 94.1 281.7 93.9 281.6C93.4 281.3 93.2 280.9 93.2 280.3L93 226.4C93 225.9 93.3 225.4 93.7 225.1L140.6 198C141.1 197.7 141.6 197.7 142.1 198C142.6 198.3 142.8 198.7 142.8 199.3L143 253.2C143 253.7 142.7 254.2 142.3 254.5L95.4 281.6C95.1 281.7 94.9 281.8 94.6 281.8Z" fill="black"/>
<path fill-rule="evenodd" clip-rule="evenodd" d="M188.8 171.8L189 225.7L142.2 252.8L142 198.9L188.8 171.8Z" fill="white"/>
<path fill-rule="evenodd" clip-rule="evenodd" d="M142.9 200.2L143 250.7L187 225.3L186.9 174.8L142.9 200.2ZM141.6 254.8C141.3 254.8 141.1 254.7 140.9 254.6C140.4 254.3 140.2 253.9 140.2 253.3L140 199.4C140 198.9 140.3 198.4 140.7 198.1L187.6 171C188.1 170.7 188.6 170.7 189.1 171C189.6 171.3 189.8 171.7 189.8 172.3L190 226.2C190 226.7 189.7 227.2 189.3 227.5L142.4 254.6C142.1 254.7 141.9 254.8 141.6 254.8Z" fill="black"/>
<path fill-rule="evenodd" clip-rule="evenodd" d="M47.8 199.8L48 253.7L1.20001 280.8L1 226.9L47.8 199.8Z" fill="white"/>
<path fill-rule="evenodd" clip-rule="evenodd" d="M2.89999 227.2L3 277.7L47 252.3L46.9 201.8L2.89999 227.2ZM1.60001 281.8C1.30001 281.8 1.09999 281.7 0.899994 281.6C0.399994 281.3 0.200012 280.9 0.200012 280.3L0 226.4C0 225.9 0.300012 225.4 0.700012 225.1L47.6 198C48.1 197.7 48.6 197.7 49.1 198C49.6 198.3 49.8 198.7 49.8 199.3L50 253.2C50 253.7 49.7 254.2 49.3 254.5L2.39999 281.6C2.09999 281.7 1.90001 281.8 1.60001 281.8Z" fill="black"/>
<path fill-rule="evenodd" clip-rule="evenodd" d="M95.8 171.8L96 225.7L49.2 252.8L49 198.9L95.8 171.8Z" fill="white"/>
<path fill-rule="evenodd" clip-rule="evenodd" d="M49.9 200.2L50 250.7L94 225.3L93.9 174.8L49.9 200.2ZM48.6 254.8C48.3 254.8 48.1 254.7 47.9 254.6C47.4 254.3 47.2 253.9 47.2 253.3L47 199.4C47 198.9 47.3 198.4 47.7 198.1L94.6 171C95.1 170.7 95.6 170.7 96.1 171C96.6 171.3 96.8 171.7 96.8 172.3L97 226.2C97 226.7 96.7 227.2 96.3 227.5L49.4 254.6C49.1 254.7 48.9 254.8 48.6 254.8Z" fill="black"/>
<path fill-rule="evenodd" clip-rule="evenodd" d="M141.8 144.8L142 198.7L95.2 225.8L95 171.9L141.8 144.8Z" fill="white"/>
<path fill-rule="evenodd" clip-rule="evenodd" d="M95.9 172.2L96 222.7L140 197.3L139.9 146.8L95.9 172.2ZM94.6 226.8C94.3 226.8 94.1 226.7 93.9 226.6C93.4 226.3 93.2 225.9 93.2 225.3L93 171.4C93 170.9 93.3 170.4 93.7 170.1L140.6 143C141.1 142.7 141.6 142.7 142.1 143C142.6 143.3 142.8 143.7 142.8 144.3L143 198.2C143 198.7 142.7 199.2 142.3 199.5L95.4 226.6C95.1 226.7 94.9 226.8 94.6 226.8Z" fill="black"/>
<path fill-rule="evenodd" clip-rule="evenodd" d="M188.8 117.8L189 171.7L142.2 198.8L142 144.9L188.8 117.8Z" fill="white"/>
<path fill-rule="evenodd" clip-rule="evenodd" d="M142.9 146.2L143 196.7L187 171.3L186.9 120.8L142.9 146.2ZM141.6 200.8C141.3 200.8 141.1 200.7 140.9 200.6C140.4 200.3 140.2 199.9 140.2 199.3L140 145.4C140 144.9 140.3 144.4 140.7 144.1L187.6 117C188.1 116.7 188.6 116.7 189.1 117C189.6 117.3 189.8 117.7 189.8 118.3L190 172.2C190 172.7 189.7 173.2 189.3 173.5L142.4 200.6C142.1 200.7 141.9 200.8 141.6 200.8Z" fill="black"/>
<path fill-rule="evenodd" clip-rule="evenodd" d="M48.7999 217.8C48.7999 217.8 49.0999 239 38.6999 246.1C28.2999 253.2 34.7999 261.1 24.8999 266.8L48.8999 253L48.7999 217.8Z" fill="black"/>
<path fill-rule="evenodd" clip-rule="evenodd" d="M105 166C105 166 115.8 166.2 121 173.9C126.2 181.6 140.8 178.6 141 158.2V144.8L105 166Z" fill="black"/>
<path fill-rule="evenodd" clip-rule="evenodd" d="M188.9 252.8C188.9 252.8 189.3 269.7 175.3 273.3C161.4 277 168.4 291 156 298.8L189 279.7L188.9 252.8Z" fill="black"/>
<path fill-rule="evenodd" clip-rule="evenodd" d="M48.2 318.8C48.2 318.8 46 330.4 54.8 333.9C63.6 337.4 74 331.4 77.9 344.1L48.3 360.8L48.2 318.8Z" fill="black"/>
<path fill-rule="evenodd" clip-rule="evenodd" d="M141.9 337.8C141.9 337.8 142.6 356.5 132.1 360.9C121.7 365.2 120 373.8 120 373.8L142 360.9L141.9 337.8Z" fill="black"/>
<path fill-rule="evenodd" clip-rule="evenodd" d="M141.5 209.8C143.4 209.5 145 211.1 145 213.3V235.2C145 237.4 143.4 239.5 141.5 239.8C139.6 240.1 138 238.5 138 236.3V214.4C138 212.1 139.6 210.1 141.5 209.8Z" fill="#FFDBC2"/>
<path fill-rule="evenodd" clip-rule="evenodd" d="M441.5 264.8C441.2 264.8 441 264.7 440.7 264.6C437.8 263.1 434.9 262.1 432.2 261.4C431.4 261.2 430.9 260.5 431.1 259.8C431.3 259.1 432.1 258.6 433 258.8C436 259.5 439.2 260.6 442.3 262.2C443 262.6 443.3 263.4 442.9 264C442.5 264.5 442 264.8 441.5 264.8Z" fill="black"/>
<path fill-rule="evenodd" clip-rule="evenodd" d="M410.5 282.8C409.7 282.8 409 282.2 409 281.4C409 267.2 416.1 258.2 427.5 257.8C428.4 257.8 429 258.4 429 259.2C429 260 428.4 260.7 427.6 260.7C418 261 412 268.9 412 281.4C412 282.1 411.3 282.8 410.5 282.8Z" fill="black"/>
<path fill-rule="evenodd" clip-rule="evenodd" d="M407.5 239.8C407 239.8 406.5 239.5 406.2 239.1C405.8 238.4 406 237.5 406.7 237.1L420.7 229C421.4 228.6 422.3 228.8 422.7 229.5C423.1 230.2 422.9 231.1 422.2 231.5L408.2 239.6C408 239.7 407.7 239.8 407.5 239.8Z" fill="black"/>
<path fill-rule="evenodd" clip-rule="evenodd" d="M492.2 354.8C491.7 354.8 491.2 354.5 490.9 354.1C490.5 353.4 490.7 352.5 491.4 352.1C500.2 346.8 505 335.8 505 321.1C505 289.6 483 251.3 455.9 235.5C443.1 228 431.1 226.8 422.1 232C421.4 232.4 420.5 232.2 420.1 231.5C419.7 230.8 419.9 229.9 420.6 229.5C430.5 223.8 443.5 225 457.3 233C485.3 249 508 288.6 508 321C508 336.8 502.7 348.8 493 354.6C492.7 354.7 492.5 354.8 492.2 354.8Z" fill="black"/>
<path fill-rule="evenodd" clip-rule="evenodd" d="M476.5 362.8C476 362.8 475.5 362.5 475.2 362C474.8 361.3 475 360.3 475.7 359.9L490.7 351C491.4 350.6 492.3 350.8 492.7 351.6C493.1 352.3 492.9 353.3 492.2 353.7L477.2 362.6C477 362.7 476.8 362.8 476.5 362.8Z" fill="black"/>
<mask id="mask1" mask-type="alpha" maskUnits="userSpaceOnUse" x="489" y="339" width="72" height="73">
<path fill-rule="evenodd" clip-rule="evenodd" d="M489.5 339.9H560.9V411.3H489.5V339.9Z" fill="white"/>
</mask>
<g mask="url(#mask1)">
<path fill-rule="evenodd" clip-rule="evenodd" d="M557.9 393.8L504.1 339.9C503.8 340.9 503.3 341.8 502.6 342.6L555.8 395.9C558.7 398.8 558.7 403.4 555.8 406.3C552.9 409.2 548.3 409.2 545.4 406.3L492.1 352.9C491.3 353.6 490.4 354.1 489.4 354.4L543.3 408.4C545.3 410.4 547.9 411.4 550.6 411.4C553.3 411.4 555.9 410.4 557.9 408.4C561.9 404.3 561.9 397.8 557.9 393.8Z" fill="black"/>
</g>
<path fill-rule="evenodd" clip-rule="evenodd" d="M419.9 237.7C415.4 237.7 411.3 238.7 407.7 240.8C398.8 246 393.9 257 393.9 271.9C393.9 303.2 415.8 341.5 442.7 357.1C455.5 364.5 467.4 365.8 476.3 360.6C485.2 355.4 490.1 344.4 490.1 329.5C490.1 298.2 468.2 259.9 441.3 244.3C433.7 240 426.4 237.7 419.9 237.7ZM464.1 366.8C457.1 366.8 449.3 364.4 441.2 359.8C413.5 343.7 390.9 304.3 390.9 272C390.9 256 396.3 244.1 406.1 238.4C415.9 232.7 428.9 233.9 442.6 241.9C470.3 258 492.9 297.4 492.9 329.7C492.9 345.7 487.5 357.6 477.7 363.3C473.7 365.6 469.1 366.8 464.1 366.8Z" fill="black"/>
<path fill-rule="evenodd" clip-rule="evenodd" d="M423.7 247.7C420 247.7 416.5 248.6 413.5 250.3C406 254.6 401.9 263.9 401.9 276.4C401.9 302.8 420.4 335 443.2 348.2C454 354.4 464 355.5 471.5 351.2C479 346.9 483.1 337.6 483.1 325.1C483.1 298.7 464.6 266.5 441.8 253.3C435.4 249.6 429.2 247.7 423.7 247.7ZM461.3 356.8C455.3 356.8 448.6 354.8 441.8 350.8C418.2 337.1 399 303.8 399 276.4C399 262.8 403.6 252.7 412 247.8C420.4 242.9 431.5 244 443.2 250.8C466.8 264.5 486 297.8 486 325.2C486 338.8 481.4 348.9 473 353.8C469.5 355.8 465.5 356.8 461.3 356.8Z" fill="black"/>
<mask id="mask2" mask-type="alpha" maskUnits="userSpaceOnUse" x="147" y="411" width="222" height="101">
<path fill-rule="evenodd" clip-rule="evenodd" d="M147.5 411.4H368.2V511.8H147.5V411.4Z" fill="white"/>
</mask>
<g mask="url(#mask2)">
<path fill-rule="evenodd" clip-rule="evenodd" d="M368.2 461.601L299.4 501.801C276.7 515.101 239.7 515.101 216.8 501.801L147.5 461.601L216.3 421.401C239 408.101 276 408.101 298.9 421.401L368.2 461.601Z" fill="#FF6B00"/>
</g>
<path fill-rule="evenodd" clip-rule="evenodd" d="M278.1 463.1C295.1 461.3 328.7 488.3 297.5 503.8L369 461.6L308.5 425.8C308.5 425.8 266.3 464.3 278.1 463.1Z" fill="black"/>
<path fill-rule="evenodd" clip-rule="evenodd" d="M248.3 393.6C232.8 384.3 233.3 369.4 249.5 360.4C265.7 351.4 291.3 351.6 306.8 361C322.3 370.3 321.8 385.2 305.6 394.2C289.4 403.2 263.8 402.9 248.3 393.6Z" fill="white"/>
<path fill-rule="evenodd" clip-rule="evenodd" d="M249.5 392.9C264.6 402 289.6 402.201 305.3 393.5C312.8 389.3 316.9 383.8 317 378C317.1 372.4 313.3 367.001 306.4 362.801C291.3 353.701 266.3 353.5 250.6 362.2C243.1 366.4 239 371.9 238.9 377.7C238.9 383.3 242.6 388.7 249.5 392.9ZM277.9 402.8C267 402.8 256.1 400.3 248 395.4C240.2 390.7 235.9 384.301 236 377.601C236.1 370.701 240.8 364.2 249.2 359.5C265.7 350.2 292.1 350.501 308 360.101C315.8 364.801 320.1 371.2 320 377.9C319.9 384.8 315.2 391.3 306.8 396C298.7 400.5 288.3 402.8 277.9 402.8Z" fill="black"/>
<path fill-rule="evenodd" clip-rule="evenodd" d="M315.2 406.9C315.1 407 315 407.2 314.9 407.3C314.7 407.6 314.4 407.9 314.1 408.2C314 408.3 313.9 408.4 313.8 408.5C313.4 409 312.9 409.5 312.4 410C312.3 410.1 312.2 410.1 312.2 410.2C311.8 410.6 311.4 410.9 311 411.2C310.6 411.5 310.3 411.8 309.9 412.1C309.4 412.4 308.9 412.8 308.5 413.1C308.2 413.3 307.8 413.6 307.5 413.8C307.3 413.9 307.2 414 307 414.1C305.8 414.8 304.5 415.4 303.2 416C302.8 416.2 302.4 416.3 302.1 416.5C301.1 416.9 300 417.3 298.9 417.7C298.7 417.8 298.4 417.9 298.2 418C298.1 418 297.9 418.1 297.8 418.1C297.1 418.3 296.4 418.5 295.7 418.7C295.2 418.8 294.7 419 294.1 419.1C293.4 419.3 292.6 419.4 291.9 419.6C291.5 419.7 291 419.8 290.6 419.9C290.5 419.9 290.5 419.9 290.4 419.9C290.3 419.9 290.3 419.9 290.2 419.9C290 419.9 289.9 420 289.7 420C288.3 420.3 286.9 420.4 285.4 420.6C285 420.6 284.5 420.7 284.1 420.7C283.3 420.8 282.4 420.8 281.6 420.9C281.1 420.9 280.5 420.9 280 420.9C279.3 420.9 278.6 420.9 277.9 420.9C277.3 420.9 276.8 420.9 276.2 420.9C275.6 420.9 274.9 420.8 274.3 420.8C273.7 420.8 273.1 420.7 272.6 420.7C272 420.6 271.4 420.6 270.7 420.5C270.4 420.5 270.2 420.4 270 420.4C269.7 420.4 269.4 420.3 269.2 420.3C268.9 420.3 268.6 420.2 268.4 420.2C267.7 420.1 267 420 266.3 419.8C266 419.7 265.6 419.7 265.3 419.6C265.1 419.6 264.9 419.5 264.6 419.4C263.8 419.2 262.9 419 262.1 418.8C261.8 418.7 261.4 418.6 261.1 418.5C261 418.5 260.9 418.4 260.8 418.4C259.3 418 257.9 417.5 256.5 416.9C256.4 416.9 256.4 416.9 256.3 416.8C255.7 416.6 255.1 416.3 254.5 416C254.2 415.8 253.8 415.7 253.5 415.5C252.5 415 251.5 414.5 250.6 413.9C246.4 411.5 243.4 408.6 241.4 405.6L241.3 428.4C241.3 434.1 245 439.7 252.4 444.1C253.3 444.6 254.2 445.1 255.1 445.6C255.4 445.8 255.7 445.9 256.1 446C256.7 446.3 257.2 446.5 257.8 446.7C257.9 446.7 257.9 446.7 258 446.8C259.3 447.3 260.6 447.8 262 448.2C262.1 448.2 262.2 448.3 262.3 448.3C262.6 448.4 262.9 448.5 263.3 448.5C264.1 448.7 264.8 448.9 265.6 449.1C265.8 449.1 266 449.2 266.2 449.3C266.5 449.4 266.8 449.4 267.1 449.5C267.8 449.6 268.4 449.7 269.1 449.8C269.4 449.8 269.6 449.9 269.9 449.9C270.2 449.9 270.5 450 270.8 450C271.4 450.1 272 450.2 272.7 450.2C273 450.2 273.3 450.3 273.6 450.3C273.9 450.3 274.2 450.3 274.4 450.3C275 450.3 275.7 450.4 276.3 450.4C276.6 450.4 276.9 450.4 277.2 450.5C277.5 450.5 277.7 450.5 278 450.5C278.7 450.5 279.4 450.5 280.1 450.5C280.4 450.5 280.8 450.5 281.1 450.5C281.3 450.5 281.5 450.5 281.7 450.5C282.5 450.5 283.4 450.4 284.2 450.3C284.5 450.3 284.9 450.3 285.2 450.2C285.3 450.2 285.4 450.2 285.5 450.2C286.9 450 288.4 449.8 289.8 449.6C289.9 449.6 289.9 449.6 290 449.6C290.4 449.5 290.8 449.4 291.2 449.3C291.9 449.2 292.6 449 293.3 448.9C293.8 448.8 294.3 448.6 294.8 448.5C295.4 448.3 296.1 448.1 296.7 447.9C296.8 447.9 297 447.8 297.1 447.8C297.3 447.7 297.5 447.6 297.8 447.5C298.8 447.2 299.8 446.8 300.8 446.4C301.2 446.2 301.5 446.1 301.9 445.9C303.1 445.3 304.3 444.7 305.4 444.1C305.6 444 305.7 443.9 305.9 443.8C306.2 443.6 306.5 443.4 306.9 443.1C307.4 442.8 307.8 442.5 308.3 442.2C308.7 441.9 309 441.6 309.3 441.4C309.7 441.1 310.1 440.8 310.5 440.4C310.6 440.3 310.7 440.3 310.7 440.2C311.2 439.8 311.6 439.3 312 438.8C312.1 438.7 312.2 438.6 312.2 438.5C312.5 438.2 312.7 437.9 312.9 437.6C313 437.5 313.1 437.3 313.2 437.2C313.5 436.8 313.8 436.3 314.1 435.9C314.2 435.7 314.4 435.5 314.5 435.3C314.6 435.2 314.6 435.1 314.6 435C314.8 434.6 315 434.2 315.1 433.8C315.2 433.6 315.3 433.3 315.4 433.1C315.4 433 315.4 432.9 315.5 432.9C315.6 432.5 315.7 432.1 315.8 431.8C315.9 431.5 316 431.3 316 431C316 430.9 316 430.9 316 430.8C316.1 430.4 316.1 430 316.1 429.6C316.1 429.3 316.2 429.1 316.2 428.8C316.2 428.7 316.2 428.6 316.2 428.5L316.3 405.4C315.8 406.2 315.5 406.6 315.2 406.9Z" fill="white"/>
<path fill-rule="evenodd" clip-rule="evenodd" d="M242.9 409.6V428.2C242.9 433.6 246.5 438.7 253.1 442.6C253.9 443.1 254.8 443.5 255.7 444C255.9 444.1 256 444.2 256.2 444.2L257 444.6C257.4 444.8 257.8 445 258.2 445.1C258.3 445.1 258.3 445.1 258.4 445.2C259.6 445.7 260.9 446.1 262.2 446.5C262.3 446.5 262.4 446.6 262.4 446.6C262.6 446.7 262.8 446.7 262.9 446.7C263.1 446.7 263.2 446.8 263.4 446.8C264.1 447 264.9 447.2 265.6 447.4C265.7 447.4 265.8 447.5 265.9 447.5C266 447.5 266.1 447.5 266.2 447.6C266.3 447.6 266.5 447.7 266.7 447.7C266.9 447.7 267 447.8 267.2 447.8C267.8 447.9 268.5 448 269.1 448.1C269.2 448.1 269.4 448.1 269.5 448.2C269.6 448.2 269.7 448.2 269.9 448.3C270 448.3 270.2 448.3 270.3 448.3H270.7C271.3 448.4 271.9 448.4 272.5 448.5L272.9 448.6C273 448.6 273.2 448.6 273.3 448.6C273.4 448.6 273.6 448.6 273.7 448.6C273.8 448.6 274 448.6 274.1 448.6C274.7 448.6 275.3 448.7 275.9 448.7H276.3C276.5 448.7 276.6 448.7 276.8 448.7C276.9 448.7 277 448.7 277.1 448.7C277.2 448.7 277.4 448.7 277.5 448.7C278.2 448.7 278.8 448.7 279.5 448.7C279.7 448.7 279.8 448.7 280 448.7C280.2 448.7 280.3 448.7 280.5 448.7H280.7C280.8 448.7 280.9 448.7 281.1 448.7C281.9 448.7 282.7 448.6 283.5 448.5C283.7 448.5 283.8 448.5 284 448.5C284.2 448.5 284.3 448.5 284.5 448.5C284.7 448.5 284.7 448.5 284.8 448.5C286.2 448.3 287.6 448.1 288.9 447.9H289.1C289.3 447.9 289.5 447.8 289.8 447.8C290 447.8 290.2 447.7 290.3 447.7L290.5 447.6C291.1 447.5 291.7 447.4 292.3 447.2C292.6 447.1 292.9 447 293.3 446.9L293.9 446.7C294.5 446.5 295 446.4 295.6 446.2C295.7 446.2 295.8 446.1 295.9 446.1H296C296.1 446.1 296.2 446 296.2 446C296.3 445.9 296.5 445.9 296.6 445.9C297.6 445.6 298.5 445.2 299.4 444.8L299.6 444.7C299.9 444.6 300.2 444.5 300.4 444.3C301.7 443.7 302.8 443.1 303.8 442.6L304.2 442.3C304.4 442.2 304.5 442.1 304.7 442C304.8 441.9 305 441.8 305.1 441.7L305.4 441.5C305.7 441.3 306.1 441.1 306.4 440.8C306.6 440.6 306.9 440.4 307.1 440.2L307.6 439.8C307.9 439.6 308.2 439.3 308.5 439.1C308.6 439 308.6 439 308.7 438.9C309.2 438.5 309.6 438 310 437.6L310.3 437.2C310.5 437 310.7 436.8 310.9 436.5C311 436.3 311.1 436.2 311.1 436.1C311.4 435.7 311.7 435.3 311.9 434.9C312 434.8 312 434.7 312.1 434.6C312.1 434.5 312.2 434.5 312.2 434.4C312.2 434.3 312.3 434.2 312.3 434.1C312.5 433.8 312.6 433.4 312.8 433.1C312.9 432.9 312.9 432.8 313 432.7C313 432.6 313.1 432.5 313.1 432.4C313.1 432.4 313.1 432.2 313.2 432.2C313.3 431.9 313.4 431.6 313.4 431.3V431.1C313.4 431 313.5 430.8 313.5 430.7C313.5 430.6 313.6 430.5 313.6 430.4V430.3C313.7 430 313.7 429.7 313.7 429.4V429.2C313.7 429.1 313.7 428.9 313.7 428.8C313.7 428.7 313.7 428.6 313.7 428.5V428.2V409.4C313.4 409.8 313 410.1 312.7 410.5C312.6 410.6 312.6 410.6 312.5 410.7C312.1 411 311.7 411.4 311.4 411.7L311 412.1C310.7 412.3 310.4 412.6 310.1 412.8C309.7 413.1 309.3 413.4 308.9 413.6L308.6 413.8C308.5 413.9 308.4 414 308.2 414.1C308 414.3 307.8 414.4 307.5 414.6L307 414.9C305.9 415.6 304.7 416.2 303.1 416.9C302.8 417 302.5 417.2 302.2 417.3L301.9 417.4C300.9 417.8 299.8 418.3 298.7 418.7C298.6 418.7 298.5 418.8 298.4 418.8C298.3 418.9 298.1 418.9 297.9 419C297.8 419 297.7 419.1 297.6 419.1H297.4C296.8 419.3 296.1 419.5 295.5 419.7L295 419.9C294.6 420 294.2 420.1 293.8 420.2C293.1 420.4 292.5 420.5 291.8 420.6H291.6C291.4 420.6 291.3 420.7 291.1 420.7C290.8 420.8 290.6 420.8 290.3 420.9C290.2 420.9 290.2 420.9 290.1 420.9L289.4 421C288 421.3 286.6 421.5 285.1 421.6C284.8 421.6 284.5 421.7 284.2 421.7H283.7C282.8 421.8 282 421.8 281.1 421.9C280.6 421.9 280 421.9 279.5 421.9C278.8 421.9 278.1 421.9 277.4 421.9C276.8 421.9 276.3 421.9 275.7 421.9C275.1 421.9 274.4 421.8 273.8 421.8C273.2 421.8 272.6 421.7 272 421.7C271.4 421.6 270.7 421.6 270.1 421.5L269.1 421.4C268.9 421.4 268.7 421.4 268.5 421.3C268.3 421.3 268.2 421.2 268 421.2L267.7 421.1C267 421 266.3 420.9 265.6 420.7L265.2 420.6C265 420.6 264.8 420.5 264.6 420.5C264.5 420.5 264.3 420.4 264.2 420.4L263.9 420.3C263.1 420.1 262.2 419.9 261.4 419.7C261.3 419.7 261.1 419.6 261 419.6C260.8 419.6 260.6 419.5 260.4 419.4C260.3 419.4 260.2 419.3 260.1 419.3C258.5 418.8 257 418.3 255.6 417.8C255.5 417.8 255.4 417.7 255.4 417.7C254.9 417.5 254.5 417.3 254 417.1L253.2 416.7C253 416.6 252.8 416.5 252.5 416.4C251.4 415.9 250.4 415.3 249.5 414.8C247.1 413.3 244.8 411.5 242.9 409.6ZM277.1 451.8C277 451.8 277 451.8 276.9 451.8C276.7 451.8 276.5 451.8 276.3 451.8H275.9C275.3 451.8 274.6 451.7 274 451.7H273.7C273.5 451.7 273.4 451.7 273.2 451.7C273 451.7 272.8 451.7 272.7 451.6H272.3C271.7 451.5 271 451.5 270.4 451.4H270C269.8 451.4 269.6 451.4 269.5 451.3C269.3 451.3 269.2 451.2 269 451.2L268.7 451C268 450.9 267.4 450.8 266.7 450.6L266.3 450.5C266.1 450.5 265.9 450.4 265.7 450.4C265.6 450.4 265.4 450.3 265.3 450.3L265.1 450.2C264.3 450 263.5 449.8 262.7 449.6C262.6 449.6 262.4 449.5 262.3 449.5C262.1 449.5 261.9 449.4 261.7 449.4C261.6 449.4 261.5 449.3 261.4 449.3C259.9 448.8 258.5 448.4 257.2 447.9C257.1 447.9 257.1 447.9 257 447.8C256.5 447.6 256.1 447.4 255.7 447.2L254.9 446.9C254.7 446.8 254.5 446.7 254.3 446.6C253.3 446.1 252.3 445.6 251.5 445.1C244 440.6 239.8 434.6 239.9 428.1L240 405.3C240 404.6 240.4 404.1 241 403.9C241.6 403.7 242.3 404 242.6 404.5C244.5 407.5 247.4 410.1 251.2 412.3C252.1 412.8 253 413.3 254 413.8C254.2 413.9 254.4 414 254.6 414L255.5 414.4C255.9 414.6 256.3 414.8 256.8 415C256.9 415 256.9 415 257 415.1C258.3 415.6 259.7 416.1 261.1 416.5C261.2 416.5 261.3 416.6 261.4 416.6C261.6 416.7 261.8 416.7 262 416.7C262.2 416.7 262.3 416.8 262.5 416.8C263.3 417 264.1 417.2 264.9 417.4C265 417.4 265.1 417.5 265.3 417.5C265.4 417.5 265.5 417.5 265.6 417.6C265.8 417.6 265.9 417.7 266.1 417.7C266.3 417.7 266.4 417.8 266.6 417.8C267.3 417.9 268 418.1 268.7 418.2C268.8 418.2 269 418.2 269.1 418.3C269.2 418.3 269.4 418.4 269.5 418.4C269.7 418.4 269.8 418.4 270 418.5L271.1 418.6C271.7 418.7 272.3 418.7 272.9 418.8C273.5 418.9 274 418.9 274.6 418.9C275.2 418.9 275.8 419 276.4 419C276.9 419 277.5 419 278 419C278.7 419 279.3 419 280 419C280.5 419 281 419 281.6 419C282.4 419 283.2 418.9 284 418.8H284.5C284.8 418.8 285 418.8 285.3 418.7C286.7 418.5 288.1 418.4 289.4 418.1L289.8 418H290H290.2C290.5 418 290.7 417.9 290.9 417.8C291.1 417.8 291.3 417.7 291.5 417.7H291.7C292.3 417.6 293 417.4 293.6 417.3C294 417.2 294.3 417.1 294.7 417L295.3 416.8C295.9 416.6 296.5 416.5 297.1 416.3L297.5 416.2C297.6 416.2 297.7 416.1 297.8 416.1C297.9 416 298.1 416 298.2 415.9C299.2 415.5 300.3 415.1 301.2 414.7L301.5 414.6C301.8 414.5 302 414.4 302.3 414.2C303.7 413.5 304.9 412.9 305.9 412.3L306.4 412C306.6 411.9 306.8 411.8 306.9 411.6C307 411.5 307.2 411.4 307.3 411.3L307.6 411.1C308 410.9 308.3 410.6 308.7 410.4C309 410.2 309.2 410 309.5 409.8L310 409.4C310.3 409.1 310.7 408.9 311 408.6C311.1 408.5 311.1 408.5 311.2 408.4C311.7 407.9 312.1 407.5 312.6 407L313 406.6C313.2 406.4 313.4 406.1 313.6 405.9C313.7 405.7 313.8 405.6 313.8 405.5C314.1 405.1 314.3 404.8 314.5 404.4C314.8 403.8 315.5 403.6 316.1 403.8C316.7 404 317.1 404.6 317.1 405.2L317 428.7C317 428.9 317 429.1 316.9 429.3V429.7C316.9 430.1 316.8 430.5 316.8 430.9C316.8 430.9 316.8 431 316.8 431.1C316.8 431.3 316.7 431.5 316.6 431.7C316.6 431.8 316.5 431.9 316.5 431.9V432C316.4 432.4 316.3 432.7 316.2 433.1C316.2 433.2 316.2 433.3 316.1 433.3C316 433.5 315.9 433.7 315.9 433.8C315.9 433.9 315.8 433.9 315.8 434C315.6 434.5 315.4 434.9 315.2 435.3C315.1 435.4 315.1 435.5 315.1 435.6C315 435.8 314.9 435.9 314.8 436.1C314.8 436.2 314.7 436.2 314.7 436.3C314.4 436.8 314.1 437.3 313.8 437.7C313.7 437.9 313.6 438 313.5 438.1C313.3 438.4 313.1 438.6 312.8 438.9L312.6 439.1C312.5 439.2 312.5 439.2 312.4 439.3C311.9 439.8 311.5 440.3 311 440.8C310.9 440.9 310.9 440.9 310.8 441C310.4 441.3 310.1 441.6 309.8 441.9L309.3 442.3C309 442.5 308.8 442.7 308.5 443C308.1 443.3 307.8 443.5 307.4 443.8L307.1 444C307 444.1 306.9 444.2 306.8 444.2C306.6 444.3 306.4 444.5 306.2 444.6L305.7 444.9C304.7 445.5 303.5 446.1 302.1 446.8C301.8 446.9 301.5 447.1 301.2 447.2L301 447.3C300 447.7 299 448.1 298 448.5C297.9 448.5 297.8 448.6 297.8 448.6C297.7 448.7 297.5 448.7 297.4 448.8C297.3 448.8 297.2 448.9 297.1 448.9H297C296.4 449.1 295.8 449.3 295.2 449.4L294.6 449.6C294.2 449.7 293.9 449.8 293.5 449.9C292.9 450.1 292.3 450.2 291.6 450.3L290.9 450.5C290.6 450.6 290.4 450.6 290.1 450.7H289.9C288.5 451 287.1 451.2 285.6 451.3C285.4 451.3 285.4 451.3 285.3 451.3C285.1 451.3 284.9 451.3 284.7 451.3H284.3C283.5 451.4 282.6 451.4 281.7 451.5H281.5C281.4 451.5 281.2 451.5 281.1 451.5C280.9 451.5 280.7 451.5 280.5 451.5H280.1C279.4 451.5 278.7 451.5 278 451.5H277.7C277.3 451.8 277.2 451.8 277.1 451.8Z" fill="black"/>
<path fill-rule="evenodd" clip-rule="evenodd" d="M316 419.8C315.8 420.2 315.5 420.6 315.2 420.9C315.1 421 315 421.2 314.9 421.3C314.7 421.6 314.4 421.9 314.1 422.2C314 422.3 313.9 422.4 313.8 422.5C313.4 423 312.9 423.5 312.4 423.9C312.3 424 312.2 424 312.2 424.1C311.8 424.4 311.4 424.8 311 425.1C310.6 425.4 310.3 425.7 309.9 426C309.4 426.3 308.9 426.6 308.5 427C308.1 427.2 307.8 427.5 307.5 427.7C307.3 427.8 307.2 427.9 307 428C305.8 428.7 304.5 429.3 303.2 429.9C302.8 430.1 302.4 430.2 302.1 430.4C301.1 430.8 300 431.2 298.9 431.6C298.7 431.7 298.4 431.8 298.2 431.9C298.1 431.9 297.9 432 297.8 432C297.1 432.2 296.4 432.4 295.7 432.6C295.2 432.7 294.7 432.9 294.1 433C293.4 433.2 292.6 433.3 291.9 433.5C291.5 433.6 291 433.7 290.6 433.8C290.5 433.8 290.5 433.8 290.4 433.8C290.3 433.8 290.3 433.8 290.2 433.8C290 433.8 289.9 433.9 289.7 433.9C288.3 434.1 286.9 434.3 285.4 434.5C285 434.5 284.5 434.6 284.1 434.6C283.3 434.7 282.4 434.7 281.6 434.8C281.1 434.8 280.5 434.8 280 434.8C279.3 434.8 278.6 434.8 277.9 434.8C277.3 434.8 276.8 434.8 276.2 434.8C275.6 434.8 274.9 434.7 274.3 434.7C273.7 434.7 273.1 434.6 272.6 434.6C272 434.5 271.3 434.5 270.7 434.4C270.4 434.4 270.2 434.3 269.9 434.3C269.6 434.3 269.3 434.2 269.1 434.2C268.8 434.2 268.5 434.1 268.3 434.1C267.6 434 266.9 433.9 266.2 433.7C265.9 433.6 265.5 433.6 265.2 433.5C265 433.5 264.8 433.4 264.5 433.3C263.7 433.1 262.8 432.9 262 432.7C261.7 432.6 261.3 432.5 261 432.4C260.9 432.4 260.8 432.3 260.7 432.3C259.2 431.9 257.8 431.4 256.4 430.9C256.3 430.9 256.2 430.9 256.2 430.8C255.6 430.6 255 430.3 254.4 430C254.1 429.9 253.7 429.7 253.4 429.6C252.4 429.1 251.4 428.6 250.5 428.1C246.3 425.7 243.3 422.9 241.3 420" fill="white"/>
<path fill-rule="evenodd" clip-rule="evenodd" d="M278.5 434.8C278.3 434.8 278 434.8 277.8 434.8C277.2 434.8 276.6 434.8 276.1 434.8C275.5 434.8 274.8 434.7 274.2 434.7C273.6 434.7 273 434.6 272.4 434.6C271.8 434.5 271.1 434.5 270.5 434.4L269.5 434.3C269.3 434.3 269.1 434.3 268.9 434.2C268.7 434.2 268.6 434.1 268.4 434.1L268 433.9C267.3 433.8 266.6 433.7 265.9 433.5C265.8 433.5 265.6 433.5 265.5 433.4C265.3 433.4 265.1 433.3 264.9 433.3C264.8 433.3 264.6 433.2 264.5 433.2L264.2 433.1C263.4 432.9 262.5 432.7 261.7 432.5C261.6 432.5 261.4 432.4 261.3 432.4C261.1 432.4 260.9 432.3 260.7 432.2C260.6 432.2 260.5 432.1 260.4 432.1C258.8 431.6 257.3 431.1 255.9 430.6C255.8 430.6 255.7 430.5 255.7 430.5C255.2 430.3 254.8 430.1 254.3 429.9L253.5 429.5C253.3 429.4 253.1 429.3 252.8 429.2C251.7 428.7 250.7 428.1 249.8 427.6C245.6 425.2 242.4 422.3 240.3 419C239.9 418.3 240 417.4 240.7 417C241.4 416.6 242.3 416.7 242.7 417.4C244.6 420.3 247.5 422.9 251.3 425.1C252.2 425.6 253.1 426.1 254.1 426.6C254.3 426.7 254.5 426.8 254.7 426.8L255.6 427.2C256 427.4 256.4 427.6 256.9 427.8C257 427.8 257 427.8 257.1 427.9C258.4 428.4 259.8 428.9 261.2 429.3C261.3 429.3 261.4 429.4 261.5 429.4C261.7 429.5 261.9 429.5 262.1 429.5C262.3 429.5 262.4 429.6 262.6 429.6C263.4 429.8 264.2 430 265 430.2C265.1 430.2 265.2 430.3 265.4 430.3C265.5 430.3 265.6 430.3 265.7 430.4C265.9 430.4 266 430.5 266.2 430.5C266.4 430.5 266.5 430.6 266.7 430.6C267.4 430.7 268.1 430.9 268.8 431C268.9 431 269.1 431 269.2 431.1C269.3 431.1 269.5 431.1 269.6 431.2C269.8 431.2 269.9 431.2 270.1 431.3L271.2 431.4C271.8 431.5 272.4 431.5 273 431.6C273.6 431.7 274.1 431.7 274.7 431.7C275.3 431.7 275.9 431.8 276.5 431.8C277 431.8 277.6 431.8 278.1 431.8C278.8 431.8 279.4 431.8 280.1 431.8C280.6 431.8 281.1 431.8 281.7 431.8C282.5 431.8 283.3 431.7 284.1 431.6H284.6C284.9 431.6 285.1 431.6 285.4 431.5C286.8 431.4 288.2 431.2 289.5 430.9L289.9 430.8H290.1H290.3C290.6 430.8 290.8 430.7 291 430.6C291.2 430.6 291.4 430.5 291.6 430.5H291.8C292.4 430.4 293.1 430.2 293.7 430.1C294.1 430 294.4 429.9 294.8 429.8L295.4 429.6C296 429.4 296.6 429.3 297.2 429.1L297.6 429C297.7 429 297.8 428.9 297.9 428.9C298 428.8 298.2 428.8 298.3 428.7C299.3 428.3 300.4 428 301.3 427.5L301.5 427.4C301.8 427.3 302.1 427.1 302.4 427C303.8 426.3 305 425.8 306 425.2L306.5 424.9C306.7 424.8 306.9 424.7 307 424.5C307.1 424.4 307.3 424.3 307.4 424.2L307.7 424C308.1 423.8 308.4 423.5 308.7 423.3C309 423.1 309.2 422.9 309.5 422.7L310 422.3C310.3 422 310.7 421.8 311 421.5C311.1 421.4 311.1 421.4 311.2 421.3C311.7 420.8 312.1 420.4 312.6 419.9L313 419.4C313.2 419.2 313.4 419 313.6 418.7C313.7 418.5 313.8 418.4 313.8 418.3C314.1 418 314.3 417.6 314.5 417.2C314.9 416.5 315.8 416.3 316.5 416.7C317.2 417.1 317.4 418 316.9 418.7C316.6 419.1 316.4 419.5 316.1 419.9C316 420.1 315.9 420.2 315.8 420.3C315.6 420.6 315.4 420.8 315.1 421.1L314.9 421.4C314.8 421.5 314.8 421.6 314.7 421.6C314.2 422.2 313.7 422.7 313.2 423.1C313.1 423.2 313.1 423.2 313 423.3C312.6 423.6 312.2 423.9 311.9 424.2L311.5 424.6C311.2 424.8 310.9 425.1 310.6 425.3C310.2 425.6 309.8 425.8 309.4 426.1L309.1 426.3C309 426.4 308.9 426.5 308.7 426.6C308.5 426.8 308.2 426.9 308 427.1L307.5 427.4C306.4 428.1 305.1 428.7 303.6 429.4C303.3 429.5 303 429.7 302.6 429.8L302.4 429.9C301.4 430.3 300.3 430.7 299.2 431.1C299.1 431.1 299 431.2 298.9 431.2C298.8 431.3 298.6 431.3 298.4 431.4C298.3 431.4 298.2 431.5 298.1 431.5H297.9C297.3 431.7 296.6 431.9 296 432.1L295.4 432.3C295 432.4 294.6 432.5 294.2 432.6C293.5 432.8 292.9 432.9 292.2 433H292C291.8 433 291.7 433.1 291.5 433.1C291.2 433.2 291 433.2 290.7 433.3C290.6 433.3 290.6 433.3 290.5 433.3L289.8 433.4C288.4 433.6 287 433.9 285.5 434C285.2 434 284.9 434.1 284.6 434.1H284.1C283.2 434.2 282.4 434.2 281.5 434.3C281 434.3 280.4 434.3 279.9 434.3C279.4 434.8 278.9 434.8 278.5 434.8Z" fill="black"/>
<path fill-rule="evenodd" clip-rule="evenodd" d="M317.9 378.2C317.9 378.6 317.8 379.1 317.8 379.5C317.7 379.9 317.6 380.2 317.5 380.5C317.4 380.9 317.3 381.3 317.2 381.7C317.1 382 316.9 382.4 316.8 382.7C316.6 383.1 316.4 383.6 316.2 384C316 384.3 315.8 384.6 315.7 384.9C315.4 385.4 315.1 385.9 314.7 386.3C314.4 386.8 314 387.2 313.6 387.6C313.5 387.7 313.4 387.8 313.3 387.9C312.8 388.5 312.2 389 311.6 389.6C311.2 390 310.8 390.3 310.3 390.6C309.9 390.9 309.6 391.2 309.2 391.5C308.7 391.8 308.2 392.2 307.7 392.5C307.2 392.8 306.7 393.2 306.2 393.5C305 394.2 303.7 394.8 302.4 395.5C302 395.7 301.6 395.8 301.3 396C300.3 396.4 299.2 396.8 298.1 397.2C297.7 397.3 297.3 397.5 296.9 397.6C296.2 397.8 295.5 398 294.8 398.2C294.3 398.3 293.7 398.5 293.2 398.6C292.5 398.8 291.7 398.9 291 399.1C290.5 399.2 290 399.3 289.5 399.4C288 399.7 286.4 399.9 284.9 400C284.4 400.1 283.9 400.1 283.5 400.1C282.6 400.2 281.7 400.2 280.8 400.3C280.2 400.3 279.6 400.3 279.1 400.3C278.4 400.3 277.6 400.3 276.9 400.3C276.3 400.3 275.7 400.3 275.1 400.2C274.4 400.2 273.7 400.1 273 400.1C272.4 400.1 271.8 400 271.1 399.9C270.4 399.8 269.8 399.8 269.1 399.7C268.5 399.6 267.9 399.5 267.3 399.4C266.6 399.3 265.9 399.2 265.2 399C264.6 398.9 264.1 398.8 263.5 398.7C262.7 398.5 261.8 398.3 261 398.1C260.5 398 260.1 397.9 259.6 397.7C258.1 397.3 256.7 396.8 255.3 396.2C254.6 395.9 253.9 395.6 253.2 395.3C252.9 395.1 252.5 395 252.2 394.8C251.2 394.3 250.2 393.8 249.2 393.2C241.2 388.5 237.2 382.4 237.3 376.3L237 397C237 403.1 241 409.2 248.9 413.9C249.9 414.5 250.8 415 251.9 415.5C252.2 415.7 252.6 415.8 252.9 416C253.5 416.3 254.1 416.6 254.7 416.8C254.8 416.8 254.9 416.8 254.9 416.9C256.3 417.5 257.8 417.9 259.2 418.4C259.3 418.4 259.4 418.5 259.5 418.5C259.8 418.6 260.2 418.7 260.5 418.8C261.3 419 262.2 419.2 263 419.4C263.2 419.5 263.4 419.5 263.7 419.6C264 419.7 264.4 419.7 264.7 419.8C265.4 419.9 266.1 420.1 266.8 420.2C267.1 420.2 267.4 420.3 267.7 420.3C268 420.3 268.3 420.4 268.6 420.4C269.3 420.5 269.9 420.6 270.6 420.6C270.9 420.6 271.2 420.7 271.6 420.7C271.9 420.7 272.2 420.7 272.5 420.7C273.2 420.7 273.9 420.8 274.6 420.8C274.9 420.8 275.3 420.8 275.6 420.9C275.9 420.9 276.1 420.9 276.4 420.9C277.1 420.9 277.9 420.9 278.6 420.9C279 420.9 279.3 420.9 279.7 420.9C279.9 420.9 280.1 420.9 280.4 420.9C281.3 420.9 282.2 420.8 283.1 420.7C283.5 420.7 283.8 420.7 284.2 420.6C284.3 420.6 284.4 420.6 284.5 420.6C286.1 420.4 287.6 420.2 289.1 420C289.2 420 289.2 420 289.3 420C289.7 419.9 290.2 419.8 290.6 419.7C291.3 419.5 292.1 419.4 292.8 419.2C293.3 419.1 293.9 418.9 294.4 418.8C295.1 418.6 295.8 418.4 296.5 418.2C296.6 418.2 296.8 418.1 296.9 418.1C297.1 418 297.4 417.9 297.6 417.8C298.7 417.4 299.8 417 300.8 416.6C301.2 416.4 301.6 416.3 302 416.1C303.3 415.5 304.6 414.9 305.8 414.1C306 414 306.1 413.9 306.3 413.8C306.7 413.6 307 413.3 307.3 413.1C307.8 412.8 308.3 412.5 308.8 412.1C309.2 411.8 309.6 411.5 309.9 411.2C310.3 410.9 310.8 410.5 311.2 410.2C311.3 410.1 311.4 410.1 311.5 410C312 409.5 312.5 409 313 408.5C313.1 408.4 313.2 408.3 313.3 408.2C313.6 407.9 313.8 407.6 314.1 407.3C314.2 407.2 314.3 407 314.4 406.9C314.7 406.4 315.1 406 315.4 405.5C315.5 405.3 315.7 405.1 315.8 404.9C315.9 404.8 315.9 404.7 315.9 404.6C316.1 404.2 316.3 403.8 316.5 403.3C316.6 403.1 316.8 402.8 316.8 402.6C316.8 402.5 316.8 402.4 316.9 402.3C317 401.9 317.1 401.5 317.2 401.1C317.3 400.8 317.4 400.5 317.4 400.3C317.4 400.2 317.4 400.2 317.4 400.1C317.5 399.7 317.5 399.2 317.5 398.8C317.5 398.5 317.6 398.2 317.6 398C317.6 397.9 317.6 397.8 317.6 397.6L318 377C318 377.4 317.9 377.8 317.9 378.2Z" fill="white"/>
<path fill-rule="evenodd" clip-rule="evenodd" d="M239 386.4L238.9 397C238.9 402.7 242.8 408.1 250 412.2C250.9 412.7 251.8 413.2 252.8 413.7C253 413.8 253.2 413.9 253.4 413.9L254.3 414.3C254.7 414.5 255.2 414.7 255.6 414.9C255.7 414.9 255.7 414.9 255.8 415C257.1 415.5 258.5 416 260 416.4C260.1 416.4 260.2 416.5 260.3 416.5C260.5 416.6 260.7 416.6 260.9 416.6C261.1 416.6 261.2 416.7 261.4 416.7C262.2 416.9 263 417.1 263.8 417.3C263.9 417.3 264 417.4 264.2 417.4C264.3 417.4 264.4 417.4 264.5 417.5C264.7 417.5 264.8 417.6 265 417.6C265.2 417.6 265.3 417.6 265.5 417.7C266.2 417.8 266.9 418 267.6 418.1C267.7 418.1 267.9 418.1 268 418.2C268.1 418.2 268.3 418.2 268.4 418.3C268.6 418.3 268.7 418.3 268.9 418.4C269.1 418.4 269.2 418.4 269.4 418.5C270 418.6 270.7 418.7 271.4 418.7L271.9 418.8C272.1 418.8 272.2 418.8 272.4 418.9C272.5 418.9 272.7 418.9 272.8 418.9H273.2C273.9 418.9 274.5 419 275.2 419H275.7C275.9 419 276 419 276.2 419C276.3 419 276.5 419 276.6 419C276.7 419 276.9 419 277 419C277.7 419 278.4 419 279.2 419C279.4 419 279.5 419 279.7 419C279.9 419 280.1 419 280.2 419C280.3 419 280.4 419 280.5 419H280.8C281.7 419 282.6 418.9 283.5 418.8C283.7 418.8 283.8 418.8 284 418.8C284.2 418.8 284.4 418.8 284.5 418.8H284.8C286.3 418.6 287.8 418.4 289.3 418.2H289.5C289.8 418.2 290 418.1 290.2 418C290.4 418 290.6 417.9 290.8 417.9H291C291.6 417.8 292.3 417.6 292.9 417.5C293.3 417.4 293.6 417.3 294 417.2L294.5 417.1C295.2 416.9 295.9 416.7 296.5 416.5C296.6 416.5 296.7 416.4 296.8 416.4H297C297.1 416.4 297.2 416.3 297.3 416.3C297.4 416.2 297.6 416.2 297.7 416.1C298.8 415.7 299.8 415.3 300.8 414.9C301.2 414.7 301.6 414.6 301.9 414.4C303.3 413.7 304.5 413.2 305.5 412.6L306 412.3C306.2 412.2 306.4 412.1 306.5 411.9C306.6 411.8 306.8 411.7 306.9 411.6L307.2 411.4C307.6 411.2 307.9 410.9 308.3 410.7C308.6 410.5 308.8 410.3 309.1 410.1L309.6 409.7C309.9 409.4 310.3 409.2 310.6 408.9C310.7 408.8 310.7 408.8 310.8 408.7C311.3 408.3 311.7 407.8 312.2 407.3L312.5 406.9C312.7 406.7 312.9 406.4 313.1 406.2C313.2 406 313.3 405.9 313.3 405.8C313.6 405.4 313.9 404.9 314.2 404.5C314.3 404.4 314.4 404.3 314.4 404.2C314.4 404.1 314.5 404.1 314.5 404C314.5 403.9 314.6 403.8 314.6 403.7C314.8 403.3 314.9 403 315.1 402.6C315.2 402.4 315.2 402.3 315.3 402.2C315.3 402.1 315.4 402 315.4 401.9C315.4 401.9 315.4 401.8 315.5 401.7C315.6 401.4 315.7 401.1 315.8 400.8V400.6C315.8 400.5 315.9 400.3 315.9 400.2C315.9 400.1 316 400 316 399.9C316 399.9 316 399.8 316 399.7C316.1 399.4 316.1 399.1 316.1 398.8V398.6C316.1 398.5 316.1 398.3 316.2 398.2C316.2 398.1 316.2 398 316.2 397.9V397.6L316.3 387C316.1 387.3 315.9 387.6 315.7 387.9C315.3 388.4 315 388.8 314.6 389.3L314.5 389.4C314.4 389.5 314.4 389.5 314.3 389.6C313.8 390.2 313.2 390.7 312.5 391.4C312.2 391.7 311.8 392 311.4 392.3L310.9 392.7C310.6 392.9 310.3 393.2 310 393.4C309.6 393.7 309.2 394 308.8 394.2L308.1 394.6C307.7 394.9 307.3 395.1 306.9 395.3C305.8 395.9 304.5 396.6 303 397.3C302.7 397.4 302.4 397.6 302 397.7L301.8 397.8C300.7 398.2 299.7 398.7 298.6 399L298.2 399.1C297.9 399.2 297.7 399.3 297.4 399.4C296.8 399.6 296.1 399.8 295.5 399.9L294.8 400.1C294.4 400.2 294 400.3 293.7 400.4C293.1 400.6 292.4 400.7 291.7 400.8L290.9 401C290.6 401.1 290.2 401.1 289.9 401.2C288.4 401.5 286.9 401.7 285.3 401.8C285 401.8 284.7 401.9 284.3 401.9H283.8C282.9 402 282 402 281 402.1C280.4 402.1 279.8 402.1 279.2 402.1C278.5 402.1 277.7 402.1 277 402.1C276.4 402.1 275.8 402.1 275.1 402C274.4 402 273.7 401.9 273 401.9C272.4 401.9 271.7 401.8 271.1 401.7C270.4 401.6 269.7 401.6 269.1 401.5C268.5 401.4 267.9 401.3 267.3 401.2C266.6 401.1 265.9 401 265.1 400.8C264.5 400.7 264 400.6 263.4 400.5C262.5 400.3 261.7 400.1 260.9 399.9L260.5 399.8C260.2 399.7 259.8 399.6 259.5 399.5C258 399 256.5 398.5 255.1 398C254.4 397.7 253.7 397.4 253 397.1L252.6 396.9C252.4 396.8 252.1 396.7 251.9 396.6C250.8 396.1 249.8 395.6 248.9 395C244.4 392.6 241.1 389.6 239 386.4ZM276 421.8C275.9 421.8 275.9 421.8 275.8 421.8C275.6 421.8 275.4 421.8 275.2 421.8H274.8C274.1 421.8 273.4 421.7 272.7 421.7H272.3C272.1 421.7 271.9 421.7 271.8 421.7C271.6 421.7 271.4 421.7 271.2 421.6H270.8C270.1 421.5 269.4 421.5 268.8 421.4H268.4C268.2 421.4 268 421.4 267.8 421.3C267.6 421.3 267.5 421.2 267.3 421.2L267 421C266.3 420.9 265.5 420.8 264.8 420.6L264.4 420.5C264.2 420.5 264 420.4 263.8 420.4C263.7 420.4 263.5 420.3 263.4 420.3L263.2 420.2C262.3 420 261.5 419.8 260.7 419.6C260.6 419.6 260.4 419.5 260.3 419.5C260.1 419.5 259.9 419.4 259.7 419.3C259.6 419.3 259.5 419.2 259.4 419.2C257.8 418.7 256.3 418.2 254.9 417.7C254.8 417.7 254.7 417.7 254.7 417.6C254.2 417.4 253.7 417.2 253.3 417L252.5 416.6C252.3 416.5 252 416.4 251.8 416.3C250.7 415.8 249.7 415.2 248.8 414.7C240.7 410 236.2 403.7 236.3 396.9L236.4 377.1C236.4 376.3 237.1 375.6 237.9 375.6C238.7 375.6 239.4 376.3 239.4 377.1C239.4 382.8 243.3 388.2 250.5 392.3C251.4 392.8 252.3 393.3 253.3 393.8C253.5 393.9 253.7 394 253.9 394L254.3 394.2C254.9 394.5 255.6 394.8 256.3 395C257.6 395.5 259 396 260.5 396.4C260.8 396.5 261.1 396.6 261.4 396.6L261.8 396.7C262.6 396.9 263.4 397.1 264.2 397.3C264.7 397.4 265.3 397.5 265.8 397.6C266.5 397.7 267.2 397.9 267.9 398C268.5 398.1 269.1 398.2 269.7 398.2C270.4 398.3 271 398.4 271.7 398.4C272.3 398.5 272.9 398.5 273.5 398.6C274.2 398.6 274.8 398.7 275.5 398.7C276.1 398.7 276.7 398.7 277.3 398.8C278 398.8 278.7 398.8 279.5 398.8C280.1 398.8 280.6 398.8 281.2 398.8C282.1 398.8 283 398.7 283.8 398.6H284.3C284.6 398.6 284.9 398.6 285.2 398.5C286.7 398.3 288.2 398.1 289.6 397.9C289.9 397.8 290.2 397.8 290.5 397.7L291.3 397.5C291.9 397.4 292.5 397.2 293.2 397.1C293.6 397 293.9 396.9 294.2 396.8L294.9 396.6C295.5 396.4 296.1 396.3 296.7 396.1C296.9 396 297.2 395.9 297.4 395.9L297.8 395.7C298.8 395.3 299.9 395 300.9 394.5L301.1 394.4C301.4 394.3 301.7 394.1 302 394C303.5 393.3 304.6 392.8 305.6 392.2C306 392 306.3 391.8 306.6 391.6L307.3 391.1C307.7 390.9 308.1 390.6 308.4 390.4C308.7 390.2 308.9 390 309.2 389.8L309.7 389.4C310 389.1 310.3 388.9 310.6 388.6C311.2 388 311.7 387.5 312.2 387L312.4 386.7C312.8 386.3 313.1 385.9 313.4 385.5C313.7 385.1 314 384.6 314.3 384.2L314.4 384C314.5 383.8 314.6 383.6 314.7 383.4C314.9 383 315.1 382.7 315.2 382.3L315.3 382C315.4 381.8 315.5 381.6 315.5 381.4C315.6 381.1 315.7 380.8 315.8 380.5L315.9 380.1C316 379.9 316 379.7 316.1 379.5C316.2 379.2 316.2 378.9 316.2 378.6V378.4V378C316.2 377.8 316.3 377.6 316.3 377.3C316.3 376.5 317 375.8 317.8 375.8C318.6 375.8 319.3 376.5 319.3 377.3L319.2 397.5C319.2 397.7 319.2 397.9 319.1 398.2C319.1 398.3 319.1 398.4 319.1 398.5V398.7C319.1 399.1 319 399.5 319 399.9C319 399.9 319 400 319 400.1C319 400.3 318.9 400.5 318.8 400.7C318.8 400.8 318.7 400.9 318.7 401V401.2C318.6 401.6 318.5 402 318.4 402.3C318.4 402.4 318.4 402.5 318.3 402.6C318.2 402.8 318.1 403 318 403.2C318 403.3 317.9 403.4 317.9 403.4C317.7 403.9 317.5 404.3 317.3 404.8C317.2 404.9 317.2 405 317.1 405.1C317 405.3 316.9 405.4 316.8 405.6C316.8 405.7 316.7 405.7 316.7 405.8C316.3 406.4 316 406.9 315.7 407.3C315.6 407.5 315.5 407.6 315.4 407.7C315.2 408 314.9 408.3 314.7 408.6L314.5 408.8C314.4 408.9 314.4 409 314.3 409C313.8 409.6 313.3 410.1 312.8 410.5C312.7 410.6 312.7 410.6 312.6 410.7C312.2 411 311.8 411.3 311.5 411.7L311 412.1C310.7 412.3 310.4 412.6 310.1 412.8C309.7 413.1 309.3 413.3 308.9 413.6L308.6 413.8C308.5 413.9 308.3 414 308.2 414.1C308 414.3 307.8 414.4 307.5 414.6L307 414.9C305.9 415.6 304.6 416.2 303.1 416.9C302.7 417.1 302.4 417.2 302 417.4C300.9 417.9 299.8 418.3 298.7 418.7C298.6 418.7 298.5 418.8 298.4 418.8C298.2 418.9 298.1 418.9 297.9 419C297.8 419 297.7 419.1 297.6 419.1H297.4C296.7 419.3 296.1 419.5 295.4 419.7L294.9 419.9C294.5 420 294.1 420.1 293.7 420.2C293 420.4 292.3 420.5 291.7 420.6H291.5C291.3 420.6 291.2 420.7 291 420.7C290.7 420.8 290.5 420.8 290.2 420.9H290C288.5 421.2 286.9 421.4 285.3 421.6C285.1 421.6 285 421.6 285 421.6C284.8 421.6 284.6 421.6 284.3 421.6C284.2 421.6 284 421.6 283.9 421.6C283 421.7 282.1 421.7 281.1 421.8H280.9C280.8 421.8 280.6 421.8 280.5 421.8C280.3 421.8 280.1 421.8 279.8 421.8H279.4C278.7 421.8 277.9 421.8 277.2 421.8H276.9C276.2 421.8 276.1 421.8 276 421.8Z" fill="black"/>
<path fill-rule="evenodd" clip-rule="evenodd" d="M305 443.9C304.8 444 304.7 444.1 304.5 444.2C303.4 444.8 302.2 445.4 301 446C300.6 446.2 300.3 446.3 299.9 446.4C298.9 446.8 298 447.2 297 447.5C296.8 447.6 296.6 447.7 296.3 447.7C296.2 447.7 296 447.8 295.9 447.8C295.3 448 294.6 448.2 294 448.3C293.5 448.4 293 448.6 292.5 448.7C291.8 448.9 291.1 449 290.4 449.1C290 449.2 289.6 449.3 289.2 449.4C289.1 449.4 289.1 449.4 289 449.4C287.6 449.6 286.2 449.8 284.7 450C284.6 450 284.5 450 284.4 450C284.1 450 283.7 450 283.4 450.1C282.6 450.2 281.7 450.2 280.9 450.3C280.7 450.3 280.5 450.3 280.3 450.3C280 450.3 279.6 450.3 279.3 450.3C278.6 450.3 277.9 450.3 277.2 450.3C276.9 450.3 276.7 450.3 276.4 450.3C276.1 450.3 275.8 450.3 275.5 450.3C274.9 450.3 274.2 450.2 273.6 450.2C273.3 450.2 273 450.2 272.8 450.2C272.5 450.2 272.2 450.1 271.9 450.1C271.3 450 270.6 450 270 449.9C269.7 449.9 269.4 449.8 269.1 449.8C268.8 449.8 268.6 449.7 268.3 449.7C267.6 449.6 267 449.5 266.3 449.4C266 449.3 265.7 449.3 265.4 449.2C265.2 449.2 265 449.1 264.8 449C264 448.8 263.2 448.6 262.5 448.4C262.2 448.3 261.9 448.3 261.5 448.2C261.4 448.2 261.3 448.1 261.2 448.1C259.8 447.7 258.5 447.3 257.2 446.8C257.1 446.8 257.1 446.8 257 446.7C256.4 446.5 255.9 446.2 255.3 446C255 445.9 254.7 445.7 254.3 445.6C253.4 445.2 252.4 444.7 251.6 444.2C251.4 444.1 251.2 443.9 251 443.8V446.3C251 450.3 253.6 454.3 259 457.3C259.6 457.7 260.3 458 261 458.3C261.2 458.4 261.5 458.5 261.7 458.6C262.1 458.8 262.5 459 262.9 459.1H263C263.9 459.5 264.9 459.8 265.9 460.1C266 460.1 266.1 460.2 266.1 460.2C266.3 460.3 266.6 460.3 266.8 460.4C267.4 460.5 267.9 460.7 268.5 460.8C268.6 460.8 268.8 460.9 268.9 460.9C269.1 460.9 269.4 461 269.6 461C270.1 461.1 270.5 461.2 271 461.2C271.2 461.2 271.4 461.3 271.6 461.3C271.8 461.3 272 461.3 272.2 461.4C272.7 461.5 273.1 461.5 273.6 461.5C273.8 461.5 274 461.6 274.2 461.6C274.4 461.6 274.6 461.6 274.8 461.6C275.3 461.6 275.7 461.7 276.2 461.7C276.4 461.7 276.7 461.7 276.9 461.7C277.1 461.7 277.3 461.7 277.5 461.7C278 461.7 278.5 461.7 279 461.7C279.2 461.7 279.5 461.7 279.7 461.7C279.8 461.7 280 461.7 280.1 461.7C280.7 461.7 281.3 461.6 281.9 461.6C282.1 461.6 282.4 461.6 282.6 461.6C282.7 461.6 282.8 461.6 282.8 461.6C283.8 461.5 284.9 461.4 285.9 461.2H286C286.3 461.1 286.6 461.1 286.9 461C287.4 460.9 287.9 460.8 288.4 460.7C288.8 460.6 289.1 460.5 289.5 460.4C290 460.3 290.4 460.1 290.9 460C291 460 291.1 459.9 291.2 459.9C291.4 459.8 291.5 459.8 291.7 459.7C292.4 459.5 293.1 459.2 293.8 458.9C294.1 458.8 294.3 458.7 294.6 458.6C295.5 458.2 296.3 457.8 297.1 457.3C297.2 457.2 297.3 457.2 297.4 457.1C297.6 457 297.9 456.8 298.1 456.6C298.4 456.4 298.8 456.2 299.1 456C299.4 455.8 299.6 455.6 299.9 455.4C300.2 455.2 300.5 455 300.7 454.7C300.8 454.7 300.8 454.6 300.9 454.6C301.2 454.3 301.6 454 301.9 453.6C302 453.5 302 453.5 302.1 453.4C302.3 453.2 302.5 453 302.6 452.8C302.7 452.7 302.7 452.6 302.8 452.5C303 452.2 303.2 451.9 303.4 451.6C303.5 451.5 303.6 451.3 303.7 451.2C303.7 451.1 303.8 451.1 303.8 451C304 450.7 304.1 450.4 304.2 450.2C304.3 450 304.4 449.9 304.4 449.7C304.4 449.6 304.4 449.6 304.4 449.5C304.5 449.2 304.6 449 304.6 448.7C304.6 448.5 304.7 448.3 304.8 448.2V448.1C304.9 447.8 304.9 447.5 304.9 447.3C304.9 447.1 305 446.9 305 446.8C305 446.7 305 446.6 305 446.6V443.9Z" fill="white"/>
<path fill-rule="evenodd" clip-rule="evenodd" d="M277 459.9C277.5 459.9 278 459.9 278.4 459.9H278.8C278.9 459.9 279 459.9 279.2 459.9H279.6C280.2 459.9 280.8 459.8 281.4 459.8H281.8C281.9 459.8 282 459.8 282.1 459.8H282.3C283.3 459.7 284.3 459.6 285.3 459.4H285.4C285.6 459.4 285.7 459.3 285.9 459.3L286.3 459.2H286.4C286.8 459.1 287.3 459 287.7 458.9C287.9 458.8 288.2 458.8 288.4 458.7L288.7 458.6C289.2 458.5 289.6 458.3 290 458.2C290.1 458.2 290.1 458.2 290.2 458.1L290.4 458C290.5 458 290.6 457.9 290.7 457.9C291.4 457.7 292.1 457.4 292.7 457.1L292.9 457C293.1 456.9 293.3 456.8 293.5 456.8C294.5 456.4 295.2 456 295.9 455.6L296.2 455.4C296.3 455.3 296.4 455.3 296.5 455.2L297 454.9C297.2 454.7 297.5 454.6 297.7 454.4C297.9 454.3 298 454.1 298.2 454L298.6 453.7C298.8 453.5 299 453.4 299.2 453.2C299.2 453.2 299.3 453.1 299.4 453.1C299.7 452.8 300 452.5 300.3 452.2L300.6 451.9C300.7 451.8 300.9 451.6 301 451.5C301.1 451.4 301.1 451.3 301.2 451.3C301.4 451 301.6 450.7 301.8 450.5C301.9 450.4 301.9 450.3 302 450.2C302 450.2 302.1 450 302.1 449.9C302.2 449.7 302.3 449.5 302.4 449.3C302.5 449.1 302.5 449 302.6 449C302.6 449 302.6 448.9 302.7 448.9V448.8C302.8 448.6 302.8 448.4 302.9 448.2V448.1C302.9 448 303 447.9 303 447.8V447.7C303 447.6 303 447.6 303 447.5C303 447.3 303.1 447.1 303.1 446.9V446.8C303.1 446.7 303.1 446.6 303.1 446.5C303.1 446.4 303.1 446.4 303.1 446.3V446C302.5 446.3 301.9 446.6 301.2 446.9C300.9 447 300.6 447.2 300.3 447.3L300.1 447.4C299.1 447.8 298.1 448.2 297.1 448.5C297 448.5 296.9 448.6 296.9 448.6C296.8 448.7 296.6 448.7 296.5 448.8C296.4 448.8 296.3 448.9 296.2 448.9H296.1C295.5 449.1 294.8 449.3 294.1 449.5L293.7 449.6C293.3 449.7 293 449.8 292.6 449.9C292 450 291.4 450.2 290.8 450.3L290 450.5C289.7 450.6 289.5 450.6 289.2 450.7H289C287.6 450.9 286.1 451.1 284.6 451.3C284.4 451.3 284.4 451.3 284.3 451.3C284.1 451.3 283.9 451.3 283.7 451.3C283.6 451.3 283.4 451.3 283.3 451.3C282.4 451.4 281.6 451.4 280.7 451.5H280.5C280.4 451.5 280.2 451.5 280.1 451.5C279.9 451.5 279.7 451.5 279.5 451.5H279.1C278.4 451.5 277.7 451.5 277 451.5H276.7C276.5 451.5 276.4 451.5 276.2 451.5C276 451.5 275.8 451.5 275.6 451.5H275.2C274.5 451.5 273.9 451.4 273.2 451.4H272.8C272.6 451.4 272.5 451.4 272.3 451.4C272.1 451.4 271.9 451.4 271.8 451.3H271.4C270.8 451.2 270.1 451.2 269.5 451.1H269.1C268.9 451.1 268.7 451.1 268.6 451C268.4 451 268.3 450.9 268.1 450.9L267.8 450.8C267.1 450.7 266.4 450.6 265.8 450.5L265.4 450.4C265.2 450.4 265 450.3 264.8 450.3C264.7 450.3 264.5 450.2 264.4 450.2L264 449.9C263.2 449.7 262.4 449.5 261.6 449.3C261.5 449.3 261.3 449.2 261.2 449.2C261 449.2 260.8 449.1 260.6 449.1C260.5 449.1 260.4 449 260.3 449C258.8 448.6 257.4 448.1 256.1 447.6C256 447.6 255.9 447.6 255.9 447.5C255.5 447.3 255 447.1 254.6 446.9L253.8 446.6C253.6 446.5 253.4 446.4 253.2 446.3C252.8 446.1 252.3 445.9 251.9 445.7C251.9 449.3 254.5 452.8 259.1 455.5C259.7 455.8 260.3 456.1 261 456.5C261.1 456.6 261.2 456.6 261.4 456.7L262 457C262.3 457.1 262.6 457.2 262.8 457.4H262.9C263.8 457.7 264.7 458.1 265.7 458.3C265.8 458.3 265.8 458.3 265.9 458.4C266 458.4 266.1 458.5 266.2 458.5C266.3 458.5 266.4 458.6 266.6 458.6C267.1 458.7 267.7 458.9 268.2 459L268.6 459.1C268.7 459.1 268.8 459.1 268.9 459.2L269.2 459.3C269.7 459.4 270.1 459.5 270.6 459.5H270.9C271 459.5 271.1 459.5 271.2 459.5C271.3 459.5 271.4 459.5 271.5 459.5H271.8C272.2 459.6 272.7 459.6 273.1 459.6H273.4C273.5 459.6 273.6 459.6 273.7 459.6C273.8 459.6 273.9 459.6 274 459.6H274.3C274.7 459.6 275.2 459.7 275.6 459.7H275.9C276 459.7 276.1 459.7 276.2 459.7L277 459.9ZM276.5 462.8H276.4C276.3 462.8 276.1 462.8 276 462.8H275.7C275.2 462.8 274.8 462.8 274.3 462.7H274.1C274 462.7 273.8 462.7 273.7 462.7C273.6 462.7 273.4 462.7 273.3 462.7H273.1C272.6 462.7 272.2 462.6 271.7 462.5H271.5C271.4 462.5 271.2 462.5 271.1 462.5C271 462.5 270.8 462.5 270.7 462.4H270.5C270 462.3 269.5 462.2 269 462.1H268.7C268.6 462.1 268.4 462.1 268.3 462C268.2 462 268.1 462 268 461.9H267.9C267.3 461.8 266.7 461.6 266.2 461.5L265.9 461.4C265.7 461.4 265.6 461.3 265.5 461.3C265.4 461.3 265.3 461.3 265.3 461.2C264.2 460.9 263.2 460.5 262.3 460.2H262.2C261.9 460.1 261.5 459.9 261.2 459.8L260.6 459.6C260.4 459.5 260.3 459.5 260.1 459.4C259.3 459 258.7 458.7 258 458.3C252.4 455.1 249.3 450.7 249.3 446V443.5C249.3 443 249.6 442.5 250.1 442.2C250.6 441.9 251.1 442 251.6 442.2C251.7 442.3 251.8 442.3 251.9 442.4C252 442.5 252.1 442.5 252.2 442.6C253 443.1 253.9 443.5 254.8 444C255 444.1 255.1 444.1 255.3 444.2L256.1 444.6C256.5 444.8 256.9 445 257.3 445.1C257.4 445.1 257.4 445.1 257.5 445.2C258.7 445.7 260 446.1 261.4 446.5C261.5 446.5 261.6 446.6 261.7 446.6C261.9 446.7 262.1 446.7 262.2 446.7C262.4 446.7 262.5 446.8 262.7 446.8C263.4 447 264.2 447.2 265 447.3C265.1 447.3 265.2 447.4 265.3 447.4C265.4 447.4 265.5 447.4 265.6 447.5C265.8 447.5 265.9 447.6 266.1 447.6C266.3 447.6 266.4 447.7 266.6 447.7C267.2 447.8 267.9 447.9 268.5 448L268.9 448.1C269 448.1 269.2 448.1 269.3 448.2C269.4 448.2 269.6 448.2 269.7 448.2C269.8 448.2 270 448.2 270.1 448.2C270.7 448.3 271.3 448.3 271.9 448.4C272 448.4 272.2 448.4 272.4 448.5C272.5 448.5 272.7 448.5 272.8 448.5C272.9 448.5 273.1 448.5 273.2 448.5C273.3 448.5 273.5 448.5 273.6 448.5C274.2 448.5 274.8 448.6 275.5 448.6C275.7 448.6 275.8 448.6 276 448.6C276.2 448.6 276.3 448.6 276.5 448.6C276.6 448.6 276.7 448.6 276.8 448.6C276.9 448.6 277.1 448.6 277.2 448.6C277.9 448.6 278.5 448.6 279.2 448.6C279.4 448.6 279.5 448.6 279.7 448.6C279.9 448.6 280 448.6 280.2 448.6H280.8C281.6 448.6 282.5 448.5 283.3 448.4C283.5 448.4 283.6 448.4 283.8 448.4C284 448.4 284.1 448.4 284.3 448.4H284.6C286 448.3 287.4 448.1 288.8 447.8H289C289.2 447.8 289.4 447.7 289.7 447.7C289.9 447.7 290.1 447.6 290.2 447.6L290.5 447.5C291.1 447.4 291.7 447.3 292.2 447.1C292.5 447 292.9 446.9 293.2 446.8L293.6 446.7C294.2 446.5 294.9 446.4 295.5 446.2L295.9 446.1C296 446.1 296.1 446 296.1 446C296.2 446 296.4 445.9 296.5 445.9C297.5 445.6 298.5 445.2 299.4 444.8L299.6 444.7C299.9 444.6 300.2 444.5 300.4 444.3C301.7 443.7 302.8 443.2 303.8 442.6L304.2 442.4C304.6 442.1 305.2 442.1 305.7 442.3C306.2 442.6 306.5 443 306.5 443.6V446.4C306.5 446.6 306.5 446.8 306.4 446.9V447.1C306.4 447.5 306.3 447.8 306.3 448.1V448.2C306.3 448.4 306.2 448.5 306.2 448.7L306.1 449C306 449.3 306 449.5 305.9 449.8C305.9 449.8 305.9 449.9 305.9 450C305.8 450.2 305.8 450.3 305.7 450.4L305.6 450.5C305.4 450.9 305.3 451.2 305.2 451.4C305.2 451.5 305.1 451.5 305.1 451.6C305 451.7 304.9 451.9 304.9 452C304.6 452.4 304.4 452.8 304.1 453.1C304 453.2 304 453.3 303.9 453.4C303.8 453.6 303.6 453.8 303.4 453.9L303.3 454C303.2 454.1 303.1 454.2 303.1 454.2C302.8 454.5 302.4 454.9 302.1 455.2C302.1 455.2 302 455.3 301.9 455.3C301.7 455.5 301.4 455.7 301.1 455.9L300.8 456.2C300.6 456.4 300.4 456.5 300.2 456.7C299.9 456.9 299.7 457.1 299.4 457.3L299 457.6C298.8 457.7 298.7 457.8 298.5 457.9L298.2 458.1C297.4 458.5 296.6 459 295.5 459.5C295.3 459.6 295.1 459.7 294.8 459.8L294.6 459.9C293.9 460.2 293.1 460.5 292.4 460.7L292.2 460.8C292.1 460.8 292 460.9 291.9 460.9L291.7 461C291.2 461.2 290.7 461.3 290.2 461.4L289.8 461.5C289.5 461.6 289.3 461.6 289 461.7C288.5 461.8 288 461.9 287.6 462L287.2 462.1C287 462.1 286.8 462.2 286.6 462.2C286.6 462.2 286.5 462.2 286.4 462.2C285.4 462.4 284.3 462.5 283.2 462.6C283.1 462.6 283 462.6 283 462.6C282.9 462.6 282.7 462.6 282.5 462.6H282.2C281.6 462.7 280.9 462.7 280.3 462.7H280.1C280 462.7 279.9 462.7 279.8 462.7C279.6 462.7 279.5 462.7 279.3 462.7H279C278.5 462.7 278 462.7 277.5 462.7H277.3C276.7 462.8 276.6 462.8 276.5 462.8Z" fill="black"/>
<path fill-rule="evenodd" clip-rule="evenodd" d="M275.8 191.8C240 192.9 210.4 221.6 208.1 257.5C206.7 280 215.8 300.4 231 314.2C242.1 324.3 248.8 338.5 248.8 353.6V375.8C248.8 380 251.5 384.3 256.9 387.6C268 394.3 286.5 394.5 298.1 388C304 384.7 307 380.2 307.1 375.8V353.6C307.1 338.8 313.2 324.6 324.3 314.8C338.8 301.9 348 283.1 348 262.1C348 222.5 315.5 190.6 275.8 191.8Z" fill="white"/>
<path fill-rule="evenodd" clip-rule="evenodd" d="M250.8 376.1C250.8 376.2 250.8 376.3 250.8 376.3C250.8 380.2 253.4 383.9 258.2 386.8C268.9 393.3 286.8 393.5 298 387.2C303.3 384.3 306.2 380.4 306.2 376.3C306.2 376.2 306.2 376.1 306.2 376.1V354.1C306.2 338.7 312.6 324.1 323.9 314.1C338.6 301 347.1 282.2 347.1 262.5C347.1 243.7 339.7 226.2 326.3 213.1C312.9 200 295.2 193.1 276.4 193.7V192.2V193.7C241.4 194.8 212.3 223 210.1 258.1C208.8 279.2 217 299.5 232.5 313.6C244.1 324.2 250.8 338.9 250.8 354.1V376.1ZM278.4 394.8C270.5 394.8 262.6 393 256.7 389.4C251.1 386 248 381.5 247.9 376.6C247.9 376.5 247.9 376.4 247.9 376.3V354.1C247.9 339.8 241.6 325.8 230.6 315.8C214.3 301 205.8 279.9 207.2 257.9C209.5 221.4 239.9 191.9 276.3 190.8C295.8 190.2 314.3 197.4 328.3 211C342.3 224.6 350 243 350 262.5C350 283.1 341.2 302.7 325.8 316.3C315.2 325.7 309.1 339.5 309.1 354V376.2C309.1 376.3 309.1 376.4 309.1 376.5C309 381.6 305.5 386.3 299.4 389.7C293.5 393.1 286 394.8 278.4 394.8Z" fill="black"/>
<path fill-rule="evenodd" clip-rule="evenodd" d="M305 381.7C303.5 384 301.1 386.2 297.8 388C286.1 394.5 267.5 394.3 256.3 387.6C253.5 385.9 251.4 383.9 250 381.8C251.5 379.5 253.9 377.3 257.2 375.5C268.9 369 287.5 369.2 298.7 375.9C301.5 377.7 303.6 379.6 305 381.7Z" fill="black"/>
<path fill-rule="evenodd" clip-rule="evenodd" d="M257.5 386.9C268.4 393.4 286.4 393.6 297.7 387.3C303 384.4 306 380.5 306 376.4C306.1 372.5 303.4 368.7 298.5 365.7C287.6 359.2 269.6 359 258.3 365.3C253 368.2 250 372.1 250 376.2C249.9 380.1 252.6 383.9 257.5 386.9ZM277.9 394.8C269.9 394.8 261.9 393 255.9 389.4C250.1 385.9 246.9 381.2 247 376.2C247.1 371 250.6 366.3 256.8 362.8C269 356 288.3 356.2 300 363.2C305.8 366.7 309 371.4 308.9 376.4C308.8 381.6 305.3 386.3 299.1 389.8C293.2 393.1 285.6 394.8 277.9 394.8Z" fill="black"/>
<path fill-rule="evenodd" clip-rule="evenodd" d="M291 307.8L283.2 253.2C281.1 238.4 294.3 226 308.7 229.3C323.1 232.6 329.7 249.6 321.4 262L291 307.8Z" fill="#FF6B00"/>
<path fill-rule="evenodd" clip-rule="evenodd" d="M275.5 378.8C275.4 378.8 275.3 378.8 275.2 378.8C274.4 378.6 273.9 377.8 274.1 377L305.2 244.9C305.4 244.1 306.2 243.6 307 243.8C307.8 244 308.3 244.8 308.1 245.6L276.9 377.6C276.7 378.3 276.1 378.8 275.5 378.8Z" fill="black"/>
<path fill-rule="evenodd" clip-rule="evenodd" d="M299.4 278.8C298.9 278.8 298.3 278.5 298.1 278C297.8 277.3 298.1 276.5 298.8 276.2L310.9 270.9C311.6 270.6 312.5 270.9 312.8 271.5C313.1 272.1 312.8 273 312.1 273.3L300 278.7C299.9 278.7 299.6 278.8 299.4 278.8Z" fill="black"/>
<path fill-rule="evenodd" clip-rule="evenodd" d="M302.5 261.8C302.1 261.8 301.7 261.6 301.4 261.3L290.4 249.2C289.9 248.6 289.9 247.7 290.5 247.1C291.1 246.6 292 246.6 292.6 247.2L303.6 259.3C304.2 259.9 304.1 260.8 303.5 261.4C303.2 261.7 302.9 261.8 302.5 261.8Z" fill="black"/>
<path fill-rule="evenodd" clip-rule="evenodd" d="M267 303.8L236.6 271C228.4 262.1 231.6 247.6 242.8 243.1C254 238.6 266.3 246.8 266.4 259L267 303.8Z" fill="#FFDBC2"/>
<path fill-rule="evenodd" clip-rule="evenodd" d="M282.5 344.8C281.9 344.8 281.4 344.4 281.1 343.9L246 254.8C245.7 254 246.1 253.2 246.8 252.9C247.6 252.6 248.4 253 248.7 253.7L283.8 342.8C284.1 343.6 283.7 344.4 283 344.7C282.9 344.7 282.7 344.8 282.5 344.8Z" fill="black"/>
<path fill-rule="evenodd" clip-rule="evenodd" d="M259.3 282.8C258.9 282.8 258.5 282.6 258.2 282.3C257.7 281.7 257.9 280.9 258.4 280.5L261.7 278.1C262.3 277.7 263.1 277.8 263.6 278.3C264.1 278.8 263.9 279.7 263.4 280.1L260.1 282.5C259.9 282.7 259.6 282.8 259.3 282.8Z" fill="black"/>
<path fill-rule="evenodd" clip-rule="evenodd" d="M253.5 268.8C253.5 268.8 253.4 268.8 253.5 268.8L242.5 268.4C241.7 268.4 241 267.8 241 267C241 266.3 241.7 265.7 242.6 265.8L253.6 266.2C254.4 266.2 255.1 266.8 255.1 267.6C255 268.2 254.3 268.8 253.5 268.8Z" fill="black"/>
<path fill-rule="evenodd" clip-rule="evenodd" d="M255.4 273.8C255.2 273.8 255 273.8 254.8 273.7C254.1 273.4 253.8 272.5 254.1 271.8L258.2 262.7C258.5 262 259.4 261.7 260.1 262C260.8 262.3 261.1 263.2 260.8 263.9L256.7 273C256.5 273.5 256 273.8 255.4 273.8Z" fill="black"/>
<path fill-rule="evenodd" clip-rule="evenodd" d="M272 315.2L245 316.7C237.7 317.1 232.2 310 234.5 303C236.8 296 245.3 293.4 251 298.1L272 315.2Z" fill="#FFDBC2"/>
<path fill-rule="evenodd" clip-rule="evenodd" d="M270.6 316.8C270.5 316.8 270.3 316.8 270.2 316.7L248.1 309.7C247.3 309.5 246.9 308.6 247.1 307.8C247.3 307 248.1 306.6 248.9 306.8L271 313.8C271.8 314 272.2 314.9 272 315.7C271.7 316.4 271.2 316.8 270.6 316.8Z" fill="black"/>
<path fill-rule="evenodd" clip-rule="evenodd" d="M259.7 311.8C259 311.8 258.5 311.3 258.4 310.6L258 307.2C257.9 306.5 258.4 305.9 259.2 305.8C259.9 305.7 260.6 306.2 260.6 306.9L261 310.3C261.1 311 260.6 311.6 259.8 311.7C259.8 311.8 259.7 311.8 259.7 311.8Z" fill="black"/>
<path fill-rule="evenodd" clip-rule="evenodd" d="M251.4 314.8C251.1 314.8 250.8 314.7 250.5 314.5C249.9 314 249.8 313.1 250.3 312.5L253.6 308.4C254.1 307.8 255 307.7 255.5 308.2C256.1 308.7 256.2 309.6 255.7 310.2L252.4 314.3C252.2 314.6 251.8 314.8 251.4 314.8Z" fill="black"/>
<path fill-rule="evenodd" clip-rule="evenodd" d="M252.6 309.8C252.1 309.8 251.5 309.5 251.3 309L249.1 303.6C248.8 302.9 249.2 302.2 249.9 301.9C250.6 301.6 251.4 302 251.7 302.6L253.9 308C254.2 308.7 253.8 309.4 253.1 309.7C253 309.8 252.8 309.8 252.6 309.8Z" fill="black"/>
<path fill-rule="evenodd" clip-rule="evenodd" d="M291 313.8L307.6 295.1C312.1 290 320.5 290.9 323.8 296.8C327.1 302.7 323.2 309.9 316.3 310.7L291 313.8Z" fill="#FF6B00"/>
<path fill-rule="evenodd" clip-rule="evenodd" d="M289.5 316.8C289 316.8 288.5 316.5 288.2 316C287.8 315.3 288.1 314.4 288.8 314L313.8 300C314.5 299.6 315.4 299.9 315.8 300.6C316.2 301.3 315.9 302.2 315.2 302.7L290.2 316.7C290 316.7 289.7 316.8 289.5 316.8Z" fill="black"/>
<path fill-rule="evenodd" clip-rule="evenodd" d="M305.6 310.8C305.3 310.8 305 310.7 304.7 310.5L301.5 308.1C300.9 307.7 300.8 306.8 301.3 306.2C301.8 305.6 302.6 305.5 303.3 306L306.5 308.4C307.1 308.8 307.2 309.7 306.7 310.3C306.4 310.6 306 310.8 305.6 310.8Z" fill="black"/>
<path fill-rule="evenodd" clip-rule="evenodd" d="M307.8 305.8C307.2 305.8 306.7 305.3 306.6 304.6L306 299.2C305.9 298.5 306.4 297.8 307.1 297.7C307.8 297.6 308.4 298.1 308.5 298.9L309.1 304.3C309.2 305 308.7 305.7 308 305.8C307.9 305.8 307.8 305.8 307.8 305.8Z" fill="black"/>
<path fill-rule="evenodd" clip-rule="evenodd" d="M317.5 307.8C317.3 307.8 317.1 307.8 316.9 307.7L309.8 304.7C309.1 304.4 308.7 303.5 309 302.7C309.3 301.9 310.2 301.6 310.9 301.9L318 304.9C318.7 305.2 319.1 306.1 318.8 306.9C318.7 307.4 318.1 307.8 317.5 307.8Z" fill="black"/>
</g>
<defs>
<clipPath id="clip0">
<rect width="560.9" height="511.8" fill="white"/>
</clipPath>
</defs>
</svg>
