<svg xmlns="http://www.w3.org/2000/svg" width="20" height="20" viewBox="0 0 20 20">
    <g fill="#06F" fill-rule="nonzero">
        <path d="M19.537 9.574a1.869 1.869 0 0 0-2.803-.182l-2.187 2.187a1.806 1.806 0 0 0-1.388-.65h-2.324a.116.116 0 0 1-.091-.045l-.245-.308a1.974 1.974 0 0 0-1.555-.751H7.24c-.636 0-1.253.226-1.737.638L3.396 12.25a1.364 1.364 0 0 0-1.636-.21l-1.08.623a1.363 1.363 0 0 0-.498 1.86l2.725 4.719a1.363 1.363 0 0 0 1.86.498l1.079-.623c.504-.29.751-.857.663-1.4h6.094c.709 0 1.402-.288 1.903-.79l4.874-4.896a1.874 1.874 0 0 0 .157-2.457zm-.985 1.633l-4.874 4.896a1.528 1.528 0 0 1-1.075.447H5.936l-1.775-3.076-.133-.23 2.23-1.891a1.52 1.52 0 0 1 .982-.36h1.704c.251 0 .485.112.64.308l.245.309c.245.309.612.486 1.006.486h2.324a.643.643 0 0 1 0 1.284H8.745a.584.584 0 0 0 0 1.167h4.414c.974 0 1.77-.773 1.808-1.737l2.593-2.593a.692.692 0 0 1 .541-.204.703.703 0 0 1 .451 1.194zm-13.29 6.9l-1.078.622a.195.195 0 0 1-.266-.071l-2.725-4.719a.195.195 0 0 1 .071-.265l1.08-.623a.194.194 0 0 1 .265.071l2.725 4.719a.195.195 0 0 1-.072.265zM6.887 8.638h6.15c.334 0 .644-.15.85-.414.205-.263.277-.6.196-.925l-.46-1.842a2.557 2.557 0 0 0-1.71-1.822A2.344 2.344 0 0 0 9.962 0a2.344 2.344 0 0 0-2.343 2.342c0 .477.145.922.391 1.293A2.557 2.557 0 0 0 6.3 5.457L5.84 7.3c-.08.325-.009.662.197.925.206.263.515.414.85.414zm3.075-7.47c.647 0 1.174.526 1.174 1.174 0 .647-.527 1.174-1.174 1.174a1.175 1.175 0 0 1-1.174-1.174c0-.648.526-1.175 1.174-1.175zM7.432 5.74a1.392 1.392 0 0 1 1.353-1.057h2.354c.64 0 1.197.435 1.352 1.057l.432 1.73H7l.432-1.73z"/>
    </g>
</svg>
