<svg xmlns="http://www.w3.org/2000/svg" width="20" height="20" viewBox="0 0 20 20">
    <path fill="#06F" fill-rule="nonzero" d="M18.56 0H1.362C.61 0 0 .61 0 1.362V18.56c0 .751.61 1.362 1.362 1.362H18.56c.751 0 1.362-.61 1.362-1.362V1.362C19.922.61 19.312 0 18.56 0zm.195 1.362v8.015H16.47a.972.972 0 0 0-.849.5.967.967 0 0 0 .022.978 1.163 1.163 0 0 1-.184 1.454 1.16 1.16 0 0 1-.855.326 1.176 1.176 0 0 1-1.119-1.09c-.016-.243.043-.48.168-.685a.979.979 0 0 0 .02-.989.968.968 0 0 0-.843-.494h-2.285v-1.96A2.33 2.33 0 0 0 13.14 6.9a2.328 2.328 0 0 0 .01-3.246 2.333 2.333 0 0 0-2.605-.525v-1.96h8.015c.108 0 .195.087.195.194zM1.362 1.167h8.015v2.285c0 .352.192.678.5.849.306.17.68.162.978-.022a1.163 1.163 0 0 1 1.454.184c.222.23.338.534.326.855-.023.59-.5 1.082-1.09 1.12a1.164 1.164 0 0 1-.685-.17.978.978 0 0 0-.989-.02.968.968 0 0 0-.494.844v2.285h-1.96A2.33 2.33 0 0 0 6.9 6.783a2.328 2.328 0 0 0-3.246-.01 2.333 2.333 0 0 0-.525 2.605h-1.96V1.361c0-.107.087-.195.194-.195zM1.167 18.56v-8.015h2.285a.972.972 0 0 0 .849-.5.967.967 0 0 0-.022-.978 1.163 1.163 0 0 1 .184-1.454 1.16 1.16 0 0 1 .855-.325c.59.022 1.082.5 1.12 1.088.015.244-.043.481-.17.686a.979.979 0 0 0-.02.989c.171.304.494.494.844.494h2.285v1.96a2.33 2.33 0 0 0-2.594.518 2.328 2.328 0 0 0-.01 3.246 2.333 2.333 0 0 0 2.605.525v1.96H1.361a.195.195 0 0 1-.195-.194zm17.393.195h-8.015V16.47a.967.967 0 1 0-1.478-.826 1.163 1.163 0 0 1-1.454-.185 1.16 1.16 0 0 1-.325-.855c.022-.59.5-1.081 1.088-1.119.244-.016.481.043.686.168.302.185.681.193.989.02a.968.968 0 0 0 .494-.843v-2.285h1.96a2.33 2.33 0 0 0 .518 2.595 2.328 2.328 0 0 0 3.246.01 2.333 2.333 0 0 0 .525-2.605h1.96v8.015a.195.195 0 0 1-.194.195z"/>
</svg>
