<svg xmlns="http://www.w3.org/2000/svg" width="16" height="20" viewBox="0 0 16 20">
    <g fill="#06F" fill-rule="nonzero">
        <path d="M12.994 2.264A7.542 7.542 0 0 0 7.712 0a7.536 7.536 0 0 0-5.406 2.15A7.529 7.529 0 0 0 .001 7.485a7.568 7.568 0 0 0 1.132 4.093 7.608 7.608 0 0 0 3.038 2.786c.067.034.11.1.11.175v4.021c0 .751.61 1.362 1.361 1.362h3.891c.751 0 1.362-.61 1.362-1.362V14.54c0-.074.042-.141.11-.175a7.611 7.611 0 0 0 3.012-2.746 7.567 7.567 0 0 0 1.158-4.03 7.543 7.543 0 0 0-2.181-5.324zM9.728 15.253v1.167h-4.28v-1.167h4.28zm-.195 3.502h-3.89a.195.195 0 0 1-.195-.195v-.972h4.28v.972a.195.195 0 0 1-.195.195zm3.496-7.758a6.444 6.444 0 0 1-2.55 2.325 1.36 1.36 0 0 0-.674.764H5.37a1.36 1.36 0 0 0-.673-.764 6.441 6.441 0 0 1-2.572-2.36A6.402 6.402 0 0 1 1.168 7.5 6.369 6.369 0 0 1 3.12 2.988a6.378 6.378 0 0 1 4.574-1.82 6.381 6.381 0 0 1 4.468 1.915 6.383 6.383 0 0 1 1.846 4.505c0 1.21-.339 2.39-.98 3.41z"/>
        <path d="M9.665 5.23L6.186 8.707l-.844-.845a.584.584 0 0 0-.826.826l1.258 1.257a.582.582 0 0 0 .825 0l3.891-3.891a.584.584 0 0 0-.825-.826z"/>
    </g>
</svg>
