<svg width="80" height="80" viewBox="0 0 80 80" fill="none" xmlns="http://www.w3.org/2000/svg">
<rect opacity="0.195126" width="80" height="80" rx="24" fill="#DC8B24"/>
<path fill-rule="evenodd" clip-rule="evenodd" d="M53.1498 36.6666C56.2669 37.8997 58.3196 40.9061 58.3332 44.2582V58.3332C58.3332 59.2537 57.587 59.9999 56.6665 59.9999H38.3332C37.8375 60.0007 37.3671 59.7808 37.0498 59.3999C36.9915 59.3249 30.4665 51.5582 24.6832 48.9166C22.8626 48.1299 21.679 46.3415 21.6665 44.3582V44.0999C21.6766 42.5364 22.4175 41.0676 23.6689 40.1302C24.9204 39.1928 26.5382 38.8949 28.0415 39.3249C29.8949 39.8628 31.6729 40.6327 33.3332 41.6166V25.1749C33.3042 22.6886 35.0585 20.5379 37.4998 20.0666C38.9516 19.8212 40.4377 20.2281 41.5619 21.1789C42.6861 22.1296 43.3341 23.5275 43.3332 24.9999V33.6582C46.6672 34.447 49.9463 35.4519 53.1498 36.6666ZM39.0998 56.6665H54.9998V44.2582C54.9917 42.2859 53.7839 40.5171 51.9498 39.7916C48.4967 38.4864 44.9507 37.4419 41.3415 36.6666C40.5496 36.5093 39.9844 35.8071 39.9998 34.9999V24.9999C40.0077 24.4997 39.7905 24.0225 39.4082 23.6999C39.0297 23.3807 38.5289 23.2464 38.0415 23.3332C37.1999 23.5365 36.6223 24.3102 36.6665 25.1749V44.9999C36.6679 45.6737 36.2634 46.2821 35.6415 46.5416C35.0175 46.7983 34.3003 46.6536 33.8248 46.1749C31.8902 44.4468 29.5789 43.1941 27.0748 42.5166C26.5921 42.3751 26.071 42.4676 25.6665 42.7666C25.2468 43.0813 24.9998 43.5753 24.9998 44.0999V44.3582C25.012 45.0362 25.4338 45.6392 26.0665 45.8832C31.5998 48.4082 37.3665 54.6832 39.0998 56.6665Z" fill="#CD934B"/>
<path d="M21.6667 31.6666C22.5871 31.6666 23.3333 30.9204 23.3333 29.9999V26.6666H26.6667C27.5871 26.6666 28.3333 25.9204 28.3333 24.9999C28.3333 24.0794 27.5871 23.3333 26.6667 23.3333H23.3333C21.4924 23.3333 20 24.8256 20 26.6666V29.9999C20 30.9204 20.7462 31.6666 21.6667 31.6666Z" fill="#CD934B"/>
<path d="M55.0002 31.6666C55.9206 31.6666 56.6668 30.9204 56.6668 29.9999V26.6666C56.6668 24.8256 55.1744 23.3333 53.3335 23.3333H50.0002C49.0797 23.3333 48.3335 24.0794 48.3335 24.9999C48.3335 25.9204 49.0797 26.6666 50.0002 26.6666H53.3335V29.9999C53.3335 30.9204 54.0797 31.6666 55.0002 31.6666Z" fill="#CD934B"/>
</svg>
