<svg width="40" height="40" viewBox="0 0 40 40" fill="none" xmlns="http://www.w3.org/2000/svg">
<rect opacity="0.195126" width="40" height="40" rx="15" fill="#E6D30E"/>
<path fill-rule="evenodd" clip-rule="evenodd" d="M26.3945 14.898V10.8163C26.3945 10.3655 26.029 10 25.5782 10H14.1496C13.6988 10 13.3333 10.3655 13.3333 10.8163V14.898C13.3329 15.2246 13.5271 15.52 13.8272 15.649L17.2108 17.098C14.3927 18.3509 12.8352 21.4046 13.4756 24.4215C14.1161 27.4384 16.7798 29.596 19.8639 29.596C22.948 29.596 25.6117 27.4384 26.2522 24.4215C26.8926 21.4046 25.3351 18.3509 22.517 17.098L25.9006 15.649C26.2007 15.52 26.3949 15.2246 26.3945 14.898ZM24.7619 23.0612C24.7619 25.7663 22.569 27.9592 19.8639 27.9592C17.1588 27.9592 14.9659 25.7663 14.9659 23.0612C14.9659 20.3562 17.1588 18.1633 19.8639 18.1633C22.569 18.1633 24.7619 20.3562 24.7619 23.0612ZM19.8639 16.4571L24.7619 14.3592V11.6327H14.9659V14.3592L19.8639 16.4571Z" fill="black"/>
<path fill-rule="evenodd" clip-rule="evenodd" d="M19.8639 26.3265C18.0606 26.3265 16.5986 24.8646 16.5986 23.0612C16.5986 21.2578 18.0606 19.7959 19.8639 19.7959C21.6673 19.7959 23.1292 21.2578 23.1292 23.0612C23.1292 24.8646 21.6673 26.3265 19.8639 26.3265ZM19.8639 24.6939C20.7656 24.6939 21.4966 23.9629 21.4966 23.0612C21.4966 22.1595 20.7656 21.4286 19.8639 21.4286C18.9622 21.4286 18.2313 22.1595 18.2313 23.0612C18.2313 23.9629 18.9622 24.6939 19.8639 24.6939Z" fill="black"/>
</svg>
