<svg width="80" height="80" viewBox="0 0 80 80" fill="none" xmlns="http://www.w3.org/2000/svg">
<rect opacity="0.195126" width="80" height="80" rx="24" fill="#E6D30E"/>
<path fill-rule="evenodd" clip-rule="evenodd" d="M52.7888 29.7959V21.6327C52.7888 20.731 52.0578 20 51.1561 20H28.299C27.3973 20 26.6663 20.731 26.6663 21.6327V29.7959C26.6655 30.4491 27.054 31.04 27.6541 31.298L34.4214 34.1959C28.7851 36.7018 25.6702 42.8091 26.951 48.843C28.2319 54.8768 33.5593 59.192 39.7276 59.192C45.8958 59.192 51.2232 54.8768 52.5041 48.843C53.7849 42.8091 50.67 36.7018 45.0337 34.1959L51.801 31.298C52.4011 31.04 52.7896 30.4491 52.7888 29.7959ZM49.5235 46.1227C49.5235 51.5329 45.1377 55.9186 39.7276 55.9186C34.3174 55.9186 29.9316 51.5329 29.9316 46.1227C29.9316 40.7126 34.3174 36.3268 39.7276 36.3268C45.1377 36.3268 49.5235 40.7126 49.5235 46.1227ZM39.7276 32.9146L49.5235 28.7187V23.2656H29.9316V28.7187L39.7276 32.9146Z" fill="#D8C302"/>
<path fill-rule="evenodd" clip-rule="evenodd" d="M39.7279 52.6525C36.1211 52.6525 33.1973 49.7287 33.1973 46.1219C33.1973 42.5152 36.1211 39.5913 39.7279 39.5913C43.3346 39.5913 46.2585 42.5152 46.2585 46.1219C46.2585 49.7287 43.3346 52.6525 39.7279 52.6525ZM39.7276 49.3873C41.531 49.3873 42.9929 47.9254 42.9929 46.122C42.9929 44.3186 41.531 42.8567 39.7276 42.8567C37.9242 42.8567 36.4623 44.3186 36.4623 46.122C36.4623 47.9254 37.9242 49.3873 39.7276 49.3873Z" fill="#D8C302"/>
</svg>
