<svg width="60" height="60" viewBox="0 0 60 60" fill="none" xmlns="http://www.w3.org/2000/svg">
<rect width="60" height="60" rx="18" fill="#C2DAFF"/>
<path d="M24.4844 43.7499H17.5C17.1685 43.7499 16.8505 43.6182 16.6161 43.3837C16.3817 43.1493 16.25 42.8314 16.25 42.4999V35.5155C16.2494 35.3532 16.2809 35.1923 16.3426 35.0422C16.4042 34.8921 16.4949 34.7555 16.6094 34.6405L35.3594 15.8905C35.4757 15.7724 35.6143 15.6786 35.7672 15.6146C35.9201 15.5505 36.0842 15.5176 36.25 15.5176C36.4158 15.5176 36.5799 15.5505 36.7328 15.6146C36.8857 15.6786 37.0243 15.7724 37.1406 15.8905L44.1094 22.8592C44.2275 22.9755 44.3213 23.1142 44.3853 23.2671C44.4493 23.42 44.4823 23.5841 44.4823 23.7499C44.4823 23.9156 44.4493 24.0797 44.3853 24.2326C44.3213 24.3855 44.2275 24.5242 44.1094 24.6405L25.3594 43.3905C25.2443 43.505 25.1078 43.5957 24.9577 43.6573C24.8075 43.719 24.6467 43.7504 24.4844 43.7499V43.7499Z" stroke="#0066FF" stroke-width="3" stroke-linecap="round" stroke-linejoin="round"/>
<path d="M31.25 20L40 28.75" stroke="#0066FF" stroke-width="3" stroke-linecap="round" stroke-linejoin="round"/>
</svg>
