<svg width="60" height="60" viewBox="0 0 60 60" fill="none" xmlns="http://www.w3.org/2000/svg">
<g id="Group 22 Copy 10">
<rect id="Rectangle Copy 27" opacity="0.195126" width="60" height="60" rx="18" fill="#509FE8"/>
<path id="Union" fill-rule="evenodd" clip-rule="evenodd" d="M34.9428 45.6095C34.6928 45.8595 34.3536 46 34 46H15.3333C14.9797 46 14.6406 45.8595 14.3905 45.6095C14.1405 45.3594 14 45.0203 14 44.6667V42.1733C13.9995 41.38 14.2456 40.6061 14.7042 39.9587C15.1629 39.3114 15.8114 38.8226 16.56 38.56L24.6667 35.72V35.2467C22.3192 34.9189 20.128 33.8814 18.3867 32.2733C18.2468 32.1342 18.1396 31.9657 18.0727 31.7801C18.0059 31.5945 17.981 31.3964 18 31.2C18.0208 31.004 18.0848 30.815 18.1874 30.6467C18.29 30.4784 18.4286 30.335 18.5933 30.2267L18.5953 30.2252C18.7503 30.1112 22 27.7206 22 20.6667C22.1533 17.0267 25.8133 14 30 14C34.1867 14 37.8467 17.0267 38 20.6133C38 27.7533 41.28 30.1333 41.4333 30.2333C41.5939 30.3451 41.7279 30.4908 41.8258 30.6602C41.9238 30.8296 41.9832 31.0184 42 31.2133C42.0161 31.408 41.9892 31.6039 41.9212 31.7871C41.8533 31.9703 41.7459 32.1363 41.6067 32.2733C39.8672 33.8802 37.6784 34.9176 35.3333 35.2467V36.6667C35.3333 37.0203 35.1929 37.3594 34.9428 37.6095C34.6928 37.8595 34.3536 38 34 38C33.6464 38 33.3072 37.8595 33.0572 37.6095C32.8071 37.3594 32.6667 37.0203 32.6667 36.6667V34C32.6667 33.6464 32.8071 33.3072 33.0572 33.0572C33.3072 32.8071 33.6464 32.6667 34 32.6667C35.6611 32.6482 37.2816 32.1505 38.6667 31.2333C37.28 29.6467 35.3333 26.3867 35.3333 20.6667C35.2467 18.56 32.7533 16.6667 30 16.6667C27.2467 16.6667 24.7533 18.56 24.6667 20.72C24.6667 26.4 22.6667 29.6467 21.3333 31.2267C22.7187 32.1441 24.3386 32.6439 26 32.6667C26.3536 32.6667 26.6928 32.8071 26.9428 33.0572C27.1929 33.3072 27.3333 33.6464 27.3333 34V36.6667C27.3336 36.9434 27.2478 37.2134 27.0877 37.4392C26.9276 37.665 26.7013 37.8353 26.44 37.9267L17.4467 41.0733C17.2193 41.1542 17.0224 41.3032 16.8829 41.5001C16.7433 41.6969 16.6678 41.932 16.6667 42.1733V43.3333H34C34.3536 43.3333 34.6928 43.4738 34.9428 43.7239C35.1929 43.9739 35.3333 44.313 35.3333 44.6667C35.3333 45.0203 35.1929 45.3594 34.9428 45.6095ZM42.0004 39.3334H44.667C45.0207 39.3334 45.3598 39.4739 45.6098 39.7239C45.8599 39.974 46.0004 40.3131 46.0004 40.6668C46.0004 41.0204 45.8599 41.3595 45.6098 41.6096C45.3598 41.8596 45.0207 42.0001 44.667 42.0001H42.0004V44.6668C42.0004 45.0204 41.8599 45.3595 41.6098 45.6096C41.3598 45.8596 41.0207 46.0001 40.667 46.0001C40.3134 46.0001 39.9743 45.8596 39.7242 45.6096C39.4742 45.3595 39.3337 45.0204 39.3337 44.6668V42.0001H36.667C36.3134 42.0001 35.9743 41.8596 35.7242 41.6096C35.4742 41.3595 35.3337 41.0204 35.3337 40.6668C35.3337 40.3131 35.4742 39.974 35.7242 39.7239C35.9743 39.4739 36.3134 39.3334 36.667 39.3334H39.3337V36.6668C39.3337 36.3131 39.4742 35.974 39.7242 35.7239C39.9743 35.4739 40.3134 35.3334 40.667 35.3334C41.0207 35.3334 41.3598 35.4739 41.6098 35.7239C41.8599 35.974 42.0004 36.3131 42.0004 36.6668V39.3334Z" fill="#3FAEEC"/>
</g>
</svg>
