<svg width="208" height="250" viewBox="0 0 208 250" fill="none" xmlns="http://www.w3.org/2000/svg">
<g>
<path d="M100.492 5.34322C83.8322 5.34322 67.434 9.48499 52.7726 17.3959C38.1112 25.3067 25.6465 36.7385 16.5 50.6627C7.35354 64.5868 1.81229 80.5665 0.374798 97.1639C-1.06269 113.761 1.64869 130.456 8.26498 145.745C14.8813 161.034 25.1949 174.439 38.2779 184.753C51.3609 195.067 66.8028 201.966 83.2143 204.83C99.6257 207.695 116.492 206.434 132.295 201.161C148.098 195.889 162.343 186.771 173.747 174.626L100.492 105.835L100.492 5.34322Z" fill="#EBF3FF"/>
</g>
<path d="M180.664 170.441C194.144 156.072 203.125 138.073 206.504 118.663C209.882 99.2522 207.51 79.2775 199.679 61.1984C191.848 43.1193 178.9 27.7255 162.43 16.9126C145.96 6.09982 126.687 0.340257 106.985 0.343263L107 101.343L180.664 170.441Z" fill="#0066FF"/>
<path d="M47.2 121.443C46.52 121.443 45.9 121.33 45.34 121.103C44.78 120.877 44.2933 120.57 43.88 120.183C43.48 119.783 43.1667 119.317 42.94 118.783C42.7133 118.25 42.6 117.67 42.6 117.043C42.6 116.617 42.66 116.21 42.78 115.823C42.9133 115.437 43.0533 115.097 43.2 114.803C43.3733 114.457 43.5733 114.137 43.8 113.843C44.08 113.417 44.4133 112.917 44.8 112.343C45.2 111.757 45.5867 111.197 45.96 110.663C46.4 110.037 46.8467 109.397 47.3 108.743H49.8L47.1 112.743C47.7533 112.663 48.36 112.73 48.92 112.943C49.4933 113.143 49.9933 113.443 50.42 113.843C50.8467 114.243 51.18 114.723 51.42 115.283C51.6733 115.83 51.8 116.417 51.8 117.043C51.8 117.67 51.6867 118.25 51.46 118.783C51.2333 119.317 50.9133 119.783 50.5 120.183C50.1 120.57 49.62 120.877 49.06 121.103C48.5 121.33 47.88 121.443 47.2 121.443ZM45 117.043C45 117.363 45.0533 117.663 45.16 117.943C45.28 118.223 45.44 118.47 45.64 118.683C45.84 118.883 46.0733 119.043 46.34 119.163C46.6067 119.283 46.8933 119.343 47.2 119.343C47.4933 119.343 47.7733 119.283 48.04 119.163C48.3067 119.043 48.54 118.883 48.74 118.683C48.94 118.47 49.1 118.223 49.22 117.943C49.34 117.663 49.4 117.363 49.4 117.043C49.4 116.723 49.34 116.423 49.22 116.143C49.1 115.863 48.94 115.623 48.74 115.423C48.54 115.21 48.3067 115.043 48.04 114.923C47.7733 114.803 47.4933 114.743 47.2 114.743C46.8933 114.743 46.6067 114.803 46.34 114.923C46.0733 115.043 45.84 115.21 45.64 115.423C45.44 115.623 45.28 115.863 45.16 116.143C45.0533 116.423 45 116.723 45 117.043ZM52.8953 112.243C52.922 111.763 53.042 111.31 53.2553 110.883C53.4686 110.443 53.762 110.063 54.1353 109.743C54.522 109.41 54.9686 109.143 55.4753 108.943C55.9953 108.743 56.5686 108.643 57.1953 108.643C57.822 108.643 58.3886 108.743 58.8953 108.943C59.4153 109.13 59.862 109.39 60.2353 109.723C60.6086 110.043 60.8953 110.417 61.0953 110.843C61.2953 111.257 61.3953 111.69 61.3953 112.143C61.3953 112.597 61.3086 112.99 61.1353 113.323C60.9753 113.643 60.7953 113.91 60.5953 114.123C60.3553 114.363 60.0886 114.57 59.7953 114.743C60.142 114.917 60.4553 115.143 60.7353 115.423C60.9753 115.663 61.1953 115.983 61.3953 116.383C61.5953 116.783 61.6953 117.27 61.6953 117.843C61.6953 118.297 61.5886 118.737 61.3753 119.163C61.162 119.59 60.862 119.977 60.4753 120.323C60.0886 120.657 59.622 120.93 59.0753 121.143C58.542 121.343 57.9486 121.443 57.2953 121.443C56.5886 121.443 55.962 121.35 55.4153 121.163C54.8686 120.977 54.402 120.717 54.0153 120.383C53.642 120.05 53.3486 119.657 53.1353 119.203C52.9353 118.75 52.822 118.263 52.7953 117.743H55.1953C55.222 117.917 55.2886 118.097 55.3953 118.283C55.502 118.457 55.642 118.617 55.8153 118.763C55.9886 118.897 56.1886 119.01 56.4153 119.103C56.6553 119.197 56.9153 119.243 57.1953 119.243C57.7953 119.243 58.2753 119.077 58.6353 118.743C59.0086 118.397 59.1953 117.997 59.1953 117.543C59.1953 117.09 59.022 116.71 58.6753 116.403C58.342 116.097 57.8486 115.943 57.1953 115.943H56.0953V113.943H57.0953C57.7486 113.943 58.2286 113.81 58.5353 113.543C58.842 113.263 58.9953 112.897 58.9953 112.443C58.9953 111.99 58.8353 111.61 58.5153 111.303C58.1953 110.997 57.7553 110.843 57.1953 110.843C56.6353 110.843 56.1886 110.99 55.8553 111.283C55.5353 111.577 55.3486 111.897 55.2953 112.243H52.8953ZM63.9906 121.343L71.6906 108.743H73.5906L65.8906 121.343H63.9906ZM64.5906 111.443C64.5906 111.79 64.6973 112.077 64.9106 112.303C65.124 112.53 65.384 112.643 65.6906 112.643C65.9973 112.643 66.2573 112.53 66.4706 112.303C66.684 112.077 66.7906 111.79 66.7906 111.443C66.7906 111.097 66.684 110.81 66.4706 110.583C66.2573 110.357 65.9973 110.243 65.6906 110.243C65.384 110.243 65.124 110.357 64.9106 110.583C64.6973 110.81 64.5906 111.097 64.5906 111.443ZM68.3906 111.443C68.3906 111.817 68.3173 112.17 68.1706 112.503C68.0373 112.823 67.844 113.11 67.5906 113.363C67.3506 113.603 67.064 113.797 66.7306 113.943C66.4106 114.077 66.064 114.143 65.6906 114.143C65.3173 114.143 64.964 114.077 64.6306 113.943C64.3106 113.797 64.024 113.603 63.7706 113.363C63.5306 113.11 63.3373 112.823 63.1906 112.503C63.0573 112.17 62.9906 111.817 62.9906 111.443C62.9906 111.07 63.0573 110.723 63.1906 110.403C63.3373 110.07 63.5306 109.783 63.7706 109.543C64.024 109.29 64.3106 109.097 64.6306 108.963C64.964 108.817 65.3173 108.743 65.6906 108.743C66.064 108.743 66.4106 108.817 66.7306 108.963C67.064 109.097 67.3506 109.29 67.5906 109.543C67.844 109.783 68.0373 110.07 68.1706 110.403C68.3173 110.723 68.3906 111.07 68.3906 111.443ZM70.7906 118.643C70.7906 118.99 70.8973 119.277 71.1106 119.503C71.324 119.73 71.584 119.843 71.8906 119.843C72.1973 119.843 72.4573 119.73 72.6706 119.503C72.884 119.277 72.9906 118.99 72.9906 118.643C72.9906 118.297 72.884 118.01 72.6706 117.783C72.4573 117.557 72.1973 117.443 71.8906 117.443C71.584 117.443 71.324 117.557 71.1106 117.783C70.8973 118.01 70.7906 118.297 70.7906 118.643ZM74.5906 118.643C74.5906 119.017 74.5173 119.37 74.3706 119.703C74.2373 120.023 74.044 120.31 73.7906 120.563C73.5506 120.803 73.264 120.997 72.9306 121.143C72.6106 121.277 72.264 121.343 71.8906 121.343C71.5173 121.343 71.164 121.277 70.8306 121.143C70.5106 120.997 70.224 120.803 69.9706 120.563C69.7306 120.31 69.5373 120.023 69.3906 119.703C69.2573 119.37 69.1906 119.017 69.1906 118.643C69.1906 118.27 69.2573 117.923 69.3906 117.603C69.5373 117.27 69.7306 116.983 69.9706 116.743C70.224 116.49 70.5106 116.297 70.8306 116.163C71.164 116.017 71.5173 115.943 71.8906 115.943C72.264 115.943 72.6106 116.017 72.9306 116.163C73.264 116.297 73.5506 116.49 73.7906 116.743C74.044 116.983 74.2373 117.27 74.3706 117.603C74.5173 117.923 74.5906 118.27 74.5906 118.643Z" fill="#0066FF"/>
<path d="M150.7 75.2433C150.727 74.7633 150.847 74.3099 151.06 73.8833C151.273 73.4433 151.567 73.0633 151.94 72.7433C152.327 72.4099 152.773 72.1433 153.28 71.9433C153.8 71.7433 154.373 71.6433 155 71.6433C155.627 71.6433 156.193 71.7433 156.7 71.9433C157.22 72.1299 157.667 72.3899 158.04 72.7233C158.413 73.0433 158.7 73.4166 158.9 73.8433C159.1 74.2566 159.2 74.6899 159.2 75.1433C159.2 75.5966 159.113 75.9899 158.94 76.3233C158.78 76.6433 158.6 76.9099 158.4 77.1233C158.16 77.3633 157.893 77.5699 157.6 77.7433C157.947 77.9166 158.26 78.1433 158.54 78.4233C158.78 78.6633 159 78.9833 159.2 79.3833C159.4 79.7833 159.5 80.2699 159.5 80.8433C159.5 81.2966 159.393 81.7366 159.18 82.1633C158.967 82.5899 158.667 82.9766 158.28 83.3233C157.893 83.6566 157.427 83.9299 156.88 84.1433C156.347 84.3433 155.753 84.4433 155.1 84.4433C154.393 84.4433 153.767 84.3499 153.22 84.1633C152.673 83.9766 152.207 83.7166 151.82 83.3833C151.447 83.0499 151.153 82.6566 150.94 82.2033C150.74 81.7499 150.627 81.2633 150.6 80.7433H153C153.027 80.9166 153.093 81.0966 153.2 81.2833C153.307 81.4566 153.447 81.6166 153.62 81.7633C153.793 81.8966 153.993 82.0099 154.22 82.1033C154.46 82.1966 154.72 82.2433 155 82.2433C155.6 82.2433 156.08 82.0766 156.44 81.7433C156.813 81.3966 157 80.9966 157 80.5433C157 80.0899 156.827 79.7099 156.48 79.4033C156.147 79.0966 155.653 78.9433 155 78.9433H153.9V76.9433H154.9C155.553 76.9433 156.033 76.8099 156.34 76.5433C156.647 76.2633 156.8 75.8966 156.8 75.4433C156.8 74.9899 156.64 74.6099 156.32 74.3033C156 73.9966 155.56 73.8433 155 73.8433C154.44 73.8433 153.993 73.9899 153.66 74.2833C153.34 74.5766 153.153 74.8966 153.1 75.2433H150.7ZM168.7 71.7433V73.5433L163.7 84.3433H161.2L166 74.0433H160.6V71.7433H168.7ZM170.799 84.3433L178.499 71.7433H180.399L172.699 84.3433H170.799ZM171.399 74.4433C171.399 74.7899 171.506 75.0766 171.719 75.3033C171.933 75.5299 172.193 75.6433 172.499 75.6433C172.806 75.6433 173.066 75.5299 173.279 75.3033C173.493 75.0766 173.599 74.7899 173.599 74.4433C173.599 74.0966 173.493 73.8099 173.279 73.5833C173.066 73.3566 172.806 73.2433 172.499 73.2433C172.193 73.2433 171.933 73.3566 171.719 73.5833C171.506 73.8099 171.399 74.0966 171.399 74.4433ZM175.199 74.4433C175.199 74.8166 175.126 75.1699 174.979 75.5033C174.846 75.8233 174.653 76.1099 174.399 76.3633C174.159 76.6033 173.873 76.7966 173.539 76.9433C173.219 77.0766 172.873 77.1433 172.499 77.1433C172.126 77.1433 171.773 77.0766 171.439 76.9433C171.119 76.7966 170.833 76.6033 170.579 76.3633C170.339 76.1099 170.146 75.8233 169.999 75.5033C169.866 75.1699 169.799 74.8166 169.799 74.4433C169.799 74.0699 169.866 73.7233 169.999 73.4033C170.146 73.0699 170.339 72.7833 170.579 72.5433C170.833 72.2899 171.119 72.0966 171.439 71.9633C171.773 71.8166 172.126 71.7433 172.499 71.7433C172.873 71.7433 173.219 71.8166 173.539 71.9633C173.873 72.0966 174.159 72.2899 174.399 72.5433C174.653 72.7833 174.846 73.0699 174.979 73.4033C175.126 73.7233 175.199 74.0699 175.199 74.4433ZM177.599 81.6433C177.599 81.9899 177.706 82.2766 177.919 82.5033C178.133 82.7299 178.393 82.8433 178.699 82.8433C179.006 82.8433 179.266 82.7299 179.479 82.5033C179.693 82.2766 179.799 81.9899 179.799 81.6433C179.799 81.2966 179.693 81.0099 179.479 80.7833C179.266 80.5566 179.006 80.4433 178.699 80.4433C178.393 80.4433 178.133 80.5566 177.919 80.7833C177.706 81.0099 177.599 81.2966 177.599 81.6433ZM181.399 81.6433C181.399 82.0166 181.326 82.3699 181.179 82.7033C181.046 83.0233 180.853 83.3099 180.599 83.5633C180.359 83.8033 180.073 83.9966 179.739 84.1433C179.419 84.2766 179.073 84.3433 178.699 84.3433C178.326 84.3433 177.973 84.2766 177.639 84.1433C177.319 83.9966 177.033 83.8033 176.779 83.5633C176.539 83.3099 176.346 83.0233 176.199 82.7033C176.066 82.3699 175.999 82.0166 175.999 81.6433C175.999 81.2699 176.066 80.9233 176.199 80.6033C176.346 80.2699 176.539 79.9833 176.779 79.7433C177.033 79.4899 177.319 79.2966 177.639 79.1633C177.973 79.0166 178.326 78.9433 178.699 78.9433C179.073 78.9433 179.419 79.0166 179.739 79.1633C180.073 79.2966 180.359 79.4899 180.599 79.7433C180.853 79.9833 181.046 80.2699 181.179 80.6033C181.326 80.9233 181.399 81.2699 181.399 81.6433Z" fill="#F7F8FA"/>
<path d="M66.0391 236.967C66.3047 237.118 66.5443 237.311 66.7578 237.545C66.9401 237.749 67.1042 238.004 67.25 238.311C67.401 238.618 67.4766 238.996 67.4766 239.444C67.4766 239.829 67.3958 240.196 67.2344 240.545C67.0781 240.889 66.8542 241.194 66.5625 241.459C66.276 241.72 65.9375 241.931 65.5469 242.092C65.1615 242.249 64.7396 242.327 64.2812 242.327H60.2031V232.249H64.2031C64.599 232.249 64.9714 232.324 65.3203 232.475C65.6745 232.621 65.9818 232.821 66.2422 233.077C66.5026 233.332 66.7057 233.629 66.8516 233.967C67.0026 234.301 67.0781 234.66 67.0781 235.045C67.0781 235.363 67.0208 235.644 66.9062 235.889C66.7969 236.129 66.6797 236.327 66.5547 236.483C66.4036 236.676 66.2318 236.837 66.0391 236.967ZM61.7188 236.405H64.2031C64.6094 236.405 64.9505 236.269 65.2266 235.999C65.5026 235.728 65.6406 235.41 65.6406 235.045C65.6406 234.681 65.5 234.363 65.2188 234.092C64.9427 233.821 64.6042 233.686 64.2031 233.686H61.7188V236.405ZM64.2812 240.889C64.5156 240.889 64.737 240.847 64.9453 240.764C65.1536 240.676 65.3307 240.561 65.4766 240.42C65.6276 240.275 65.7448 240.105 65.8281 239.913C65.9167 239.72 65.9609 239.512 65.9609 239.288C65.9609 239.064 65.9167 238.855 65.8281 238.663C65.7448 238.47 65.6276 238.303 65.4766 238.163C65.3307 238.017 65.1536 237.902 64.9453 237.819C64.737 237.73 64.5156 237.686 64.2812 237.686H61.7188V240.889H64.2812ZM71.8906 242.405C71.4844 242.405 71.1068 242.329 70.7578 242.178C70.4141 242.022 70.1094 241.808 69.8438 241.538C69.5833 241.262 69.3776 240.933 69.2266 240.553C69.0807 240.168 69.0078 239.746 69.0078 239.288V235.124H70.4453V239.288C70.4453 239.532 70.4896 239.762 70.5781 239.975C70.6719 240.189 70.7943 240.376 70.9453 240.538C71.1016 240.694 71.2812 240.819 71.4844 240.913C71.6875 241.001 71.901 241.045 72.125 241.045C72.3594 241.045 72.5833 241.001 72.7969 240.913C73.0104 240.819 73.1979 240.694 73.3594 240.538C73.5208 240.376 73.6484 240.189 73.7422 239.975C73.8411 239.762 73.8906 239.532 73.8906 239.288V235.124H75.3281V242.327H74.2891L73.9688 241.608C73.8281 241.759 73.6615 241.892 73.4688 242.006C73.2969 242.111 73.0807 242.204 72.8203 242.288C72.5651 242.366 72.2552 242.405 71.8906 242.405ZM83.5625 235.124V242.006C83.5625 242.444 83.4844 242.847 83.3281 243.217C83.1719 243.592 82.9531 243.915 82.6719 244.186C82.3906 244.462 82.0469 244.673 81.6406 244.819C81.2344 244.97 80.7812 245.045 80.2812 245.045C79.8438 245.045 79.4479 244.983 79.0938 244.858C78.7448 244.738 78.4401 244.577 78.1797 244.374C77.9193 244.17 77.7031 243.933 77.5312 243.663C77.3594 243.392 77.237 243.105 77.1641 242.803H78.6016C78.7214 243.048 78.9115 243.269 79.1719 243.467C79.4323 243.665 79.8021 243.764 80.2812 243.764C80.849 243.764 81.2969 243.6 81.625 243.272C81.9583 242.949 82.125 242.527 82.125 242.006V241.288C81.9844 241.439 81.8177 241.571 81.625 241.686C81.4531 241.79 81.2448 241.884 81 241.967C80.7552 242.045 80.4635 242.084 80.125 242.084C79.6875 242.084 79.2682 241.996 78.8672 241.819C78.4661 241.637 78.1146 241.389 77.8125 241.077C77.5156 240.759 77.2786 240.387 77.1016 239.959C76.9297 239.532 76.8438 239.069 76.8438 238.569C76.8438 238.069 76.9297 237.605 77.1016 237.178C77.2786 236.751 77.5156 236.381 77.8125 236.069C78.1146 235.751 78.4661 235.501 78.8672 235.319C79.2682 235.137 79.6875 235.045 80.125 235.045C80.4896 235.045 80.8021 235.09 81.0625 235.178C81.3229 235.262 81.5365 235.35 81.7031 235.444C81.8958 235.564 82.0625 235.699 82.2031 235.85L82.5234 235.124H83.5625ZM80.2969 240.725C80.5521 240.725 80.7995 240.67 81.0391 240.561C81.2786 240.446 81.4896 240.29 81.6719 240.092C81.8542 239.894 82 239.665 82.1094 239.405C82.224 239.144 82.2812 238.866 82.2812 238.569C82.2812 238.272 82.224 237.993 82.1094 237.733C82 237.467 81.8542 237.236 81.6719 237.038C81.4896 236.84 81.276 236.686 81.0312 236.577C80.7865 236.462 80.5365 236.405 80.2812 236.405C80.026 236.405 79.776 236.462 79.5312 236.577C79.2865 236.686 79.0729 236.84 78.8906 237.038C78.7083 237.236 78.5599 237.465 78.4453 237.725C78.3359 237.986 78.2812 238.267 78.2812 238.569C78.2812 238.866 78.3359 239.144 78.4453 239.405C78.5599 239.665 78.7109 239.894 78.8984 240.092C79.0859 240.29 79.2995 240.446 79.5391 240.561C79.7786 240.67 80.0312 240.725 80.2969 240.725ZM86.5156 240.006C86.5573 240.324 86.6797 240.577 86.8828 240.764C87.0859 240.952 87.3906 241.045 87.7969 241.045C88.2448 241.045 88.5703 240.962 88.7734 240.795C88.9766 240.624 89.0781 240.415 89.0781 240.17C89.0781 239.957 88.9818 239.795 88.7891 239.686C88.5964 239.571 88.3568 239.478 88.0703 239.405C87.7891 239.327 87.4818 239.249 87.1484 239.17C86.8203 239.087 86.5156 238.972 86.2344 238.827C85.9531 238.676 85.7161 238.475 85.5234 238.225C85.3307 237.975 85.2344 237.637 85.2344 237.209C85.2344 236.913 85.2917 236.634 85.4062 236.374C85.526 236.108 85.6927 235.876 85.9062 235.678C86.1198 235.48 86.3776 235.327 86.6797 235.217C86.987 235.103 87.3333 235.045 87.7188 235.045C88.5625 235.045 89.2005 235.249 89.6328 235.655C90.0703 236.061 90.3125 236.605 90.3594 237.288H88.9141C88.8724 237.043 88.7526 236.834 88.5547 236.663C88.3568 236.491 88.0781 236.405 87.7188 236.405C87.3542 236.405 87.0755 236.488 86.8828 236.655C86.6901 236.821 86.5938 237.006 86.5938 237.209C86.5938 237.423 86.6901 237.587 86.8828 237.702C87.0755 237.811 87.3125 237.902 87.5938 237.975C87.8802 238.048 88.1875 238.126 88.5156 238.209C88.8438 238.288 89.1484 238.402 89.4297 238.553C89.7161 238.699 89.9557 238.9 90.1484 239.155C90.3411 239.405 90.4375 239.743 90.4375 240.17C90.4375 240.811 90.2083 241.345 89.75 241.772C89.2917 242.194 88.6406 242.405 87.7969 242.405C86.9115 242.405 86.2474 242.196 85.8047 241.78C85.362 241.363 85.1198 240.772 85.0781 240.006H86.5156Z" fill="black"/>
<circle cx="36" cy="237.327" r="11" fill="#0066FF"/>
<path d="M153.477 238.327H151.719V242.327H150.203V232.249H154.203C154.62 232.249 155.013 232.329 155.383 232.491C155.758 232.647 156.081 232.863 156.352 233.139C156.622 233.41 156.839 233.733 157 234.108C157.161 234.478 157.242 234.871 157.242 235.288C157.242 235.876 157.125 236.355 156.891 236.725C156.656 237.09 156.398 237.379 156.117 237.592C155.789 237.847 155.417 238.04 155 238.17L157.477 242.327H155.797L153.477 238.327ZM151.719 236.889H154.203C154.406 236.889 154.596 236.847 154.773 236.764C154.956 236.676 155.115 236.561 155.25 236.42C155.391 236.275 155.503 236.105 155.586 235.913C155.674 235.72 155.719 235.512 155.719 235.288C155.719 235.064 155.674 234.855 155.586 234.663C155.503 234.47 155.391 234.303 155.25 234.163C155.115 234.017 154.956 233.902 154.773 233.819C154.596 233.73 154.406 233.686 154.203 233.686H151.719V236.889ZM165.156 240.249C165.036 240.545 164.885 240.824 164.703 241.084C164.521 241.345 164.302 241.574 164.047 241.772C163.792 241.97 163.495 242.126 163.156 242.241C162.823 242.35 162.448 242.405 162.031 242.405C161.552 242.405 161.104 242.316 160.688 242.139C160.271 241.957 159.906 241.704 159.594 241.381C159.281 241.053 159.036 240.665 158.859 240.217C158.682 239.769 158.594 239.272 158.594 238.725C158.594 238.183 158.682 237.689 158.859 237.241C159.036 236.793 159.276 236.407 159.578 236.084C159.88 235.756 160.237 235.501 160.648 235.319C161.06 235.137 161.495 235.045 161.953 235.045C162.411 235.045 162.846 235.137 163.258 235.319C163.669 235.501 164.026 235.756 164.328 236.084C164.63 236.407 164.87 236.793 165.047 237.241C165.224 237.689 165.312 238.183 165.312 238.725C165.312 238.808 165.307 238.892 165.297 238.975C165.286 239.053 165.276 239.121 165.266 239.178C165.255 239.251 165.245 239.314 165.234 239.366H160.109C160.13 239.59 160.195 239.803 160.305 240.006C160.414 240.209 160.549 240.389 160.711 240.545C160.878 240.696 161.076 240.819 161.305 240.913C161.534 241.001 161.776 241.045 162.031 241.045C162.469 241.045 162.815 240.952 163.07 240.764C163.331 240.577 163.518 240.405 163.633 240.249H165.156ZM161.953 236.405C161.474 236.405 161.068 236.569 160.734 236.897C160.406 237.22 160.198 237.644 160.109 238.17H163.953C163.87 237.65 163.656 237.225 163.312 236.897C162.974 236.569 162.521 236.405 161.953 236.405ZM167.875 240.006C167.917 240.324 168.039 240.577 168.242 240.764C168.445 240.952 168.75 241.045 169.156 241.045C169.604 241.045 169.93 240.962 170.133 240.795C170.336 240.624 170.438 240.415 170.438 240.17C170.438 239.957 170.341 239.795 170.148 239.686C169.956 239.571 169.716 239.478 169.43 239.405C169.148 239.327 168.841 239.249 168.508 239.17C168.18 239.087 167.875 238.972 167.594 238.827C167.312 238.676 167.076 238.475 166.883 238.225C166.69 237.975 166.594 237.637 166.594 237.209C166.594 236.913 166.651 236.634 166.766 236.374C166.885 236.108 167.052 235.876 167.266 235.678C167.479 235.48 167.737 235.327 168.039 235.217C168.346 235.103 168.693 235.045 169.078 235.045C169.922 235.045 170.56 235.249 170.992 235.655C171.43 236.061 171.672 236.605 171.719 237.288H170.273C170.232 237.043 170.112 236.834 169.914 236.663C169.716 236.491 169.438 236.405 169.078 236.405C168.714 236.405 168.435 236.488 168.242 236.655C168.049 236.821 167.953 237.006 167.953 237.209C167.953 237.423 168.049 237.587 168.242 237.702C168.435 237.811 168.672 237.902 168.953 237.975C169.24 238.048 169.547 238.126 169.875 238.209C170.203 238.288 170.508 238.402 170.789 238.553C171.076 238.699 171.315 238.9 171.508 239.155C171.701 239.405 171.797 239.743 171.797 240.17C171.797 240.811 171.568 241.345 171.109 241.772C170.651 242.194 170 242.405 169.156 242.405C168.271 242.405 167.607 242.196 167.164 241.78C166.721 241.363 166.479 240.772 166.438 240.006H167.875ZM175.398 239.928C175.398 240.246 175.505 240.512 175.719 240.725C175.932 240.939 176.198 241.045 176.516 241.045C176.568 241.045 176.622 241.043 176.68 241.038C176.742 241.032 176.799 241.025 176.852 241.014C176.904 241.004 176.953 240.988 177 240.967V242.249C176.938 242.28 176.862 242.306 176.773 242.327C176.612 242.379 176.422 242.405 176.203 242.405C175.885 242.405 175.589 242.347 175.312 242.233C175.042 242.113 174.805 241.946 174.602 241.733C174.398 241.519 174.24 241.262 174.125 240.959C174.016 240.657 173.961 240.314 173.961 239.928V236.483H172.68V235.124H173.242C173.518 235.124 173.747 235.035 173.93 234.858C174.112 234.676 174.203 234.446 174.203 234.17V233.209H175.398V235.124H177V236.483H175.398V239.928Z" fill="black"/>
<circle cx="126" cy="237.327" r="11" fill="#EBF3FF"/>
<defs>
<filter id="filter0_b" x="-10" y="-4.65674" width="193.747" height="220.983" filterUnits="userSpaceOnUse" color-interpolation-filters="sRGB">
<feFlood flood-opacity="0" result="BackgroundImageFix"/>
<feGaussianBlur in="BackgroundImage" stdDeviation="5"/>
<feComposite in2="SourceAlpha" operator="in" result="effect1_backgroundBlur"/>
<feBlend mode="normal" in="SourceGraphic" in2="effect1_backgroundBlur" result="shape"/>
</filter>
</defs>
</svg>
