<svg width="82" height="19" viewBox="0 0 82 19" fill="none" xmlns="http://www.w3.org/2000/svg">
<g clip-path="url(#clip0)">
<path d="M78.3815 0.0464783H4.00944C2.0928 0.0464783 0.539062 1.62331 0.539062 3.56843V15.4345C0.539062 17.3796 2.0928 18.9564 4.00944 18.9564H78.3815C80.2982 18.9564 81.8519 17.3796 81.8519 15.4345V3.56843C81.8519 1.62331 80.2982 0.0464783 78.3815 0.0464783Z" fill="#221F1F"/>
<path d="M25.4736 15.4459H19.6107C19.2243 15.4454 18.8538 15.2895 18.5806 15.0122C18.3074 14.7349 18.1537 14.359 18.1533 13.9669V5.03603C18.1537 4.64391 18.3074 4.26797 18.5806 3.9907C18.8538 3.71343 19.2243 3.55747 19.6107 3.55704H25.4736C25.86 3.55747 26.2304 3.71343 26.5036 3.9907C26.7769 4.26797 26.9305 4.64391 26.931 5.03603V13.9669C26.9305 14.359 26.7769 14.7349 26.5036 15.0122C26.2304 15.2895 25.86 15.4454 25.4736 15.4459ZM20.4274 13.138H24.6569V5.86492H20.4274V13.138Z" fill="white"/>
<path d="M77.0956 15.4458H70.3518V13.138H76.2772V12.7983L70.6032 7.72746C70.4441 7.58871 70.3164 7.41663 70.2291 7.22304C70.1417 7.02945 70.0967 6.81895 70.0972 6.60602V5.03926C70.0976 4.64714 70.2513 4.27121 70.5245 3.99394C70.7977 3.71667 71.1681 3.5607 71.5545 3.56027H78.3912V5.86815H72.3712V6.23221L78.0468 11.303C78.2059 11.4419 78.3335 11.614 78.4208 11.8075C78.5082 12.0011 78.5533 12.2116 78.5529 12.4245V13.9669C78.5525 14.359 78.3988 14.7349 78.1256 15.0122C77.8524 15.2895 77.482 15.4454 77.0956 15.4458Z" fill="white"/>
<path d="M47.7325 15.4459H40.5916C40.2052 15.4454 39.8348 15.2895 39.5616 15.0122C39.2884 14.7349 39.1347 14.359 39.1343 13.9669V5.03603C39.1347 4.64391 39.2884 4.26797 39.5616 3.9907C39.8348 3.71343 40.2052 3.55747 40.5916 3.55704H46.4546C46.841 3.55747 47.2114 3.71343 47.4846 3.9907C47.7578 4.26797 47.9115 4.64391 47.9119 5.03603V9.31535C47.9122 9.62549 47.8163 9.92787 47.6378 10.1796C47.4593 10.4313 47.2073 10.6197 46.9174 10.718L41.4084 12.5919V13.1364H47.7325V15.4459ZM41.4084 5.86492V10.1654L45.6378 8.72701V5.86492H41.4084Z" fill="white"/>
<path d="M37.4976 15.4459H35.2235V5.86654H30.8371V15.4475H28.563V5.04578C28.5634 4.65366 28.7171 4.27772 28.9903 4.00045C29.2635 3.72318 29.6339 3.56722 30.0203 3.56679H36.0434C36.4298 3.56722 36.8002 3.72318 37.0735 4.00045C37.3467 4.27772 37.5003 4.65366 37.5008 5.04578L37.4976 15.4459Z" fill="white"/>
<path d="M69.1185 15.4459L65.8018 11.4054L67.5634 10.7553C67.8808 10.6435 68.1559 10.4341 68.3505 10.1562C68.5451 9.87829 68.6495 9.54576 68.6492 9.20483V5.03603C68.6488 4.64391 68.4951 4.26797 68.2219 3.9907C67.9487 3.71343 67.5783 3.55747 67.1919 3.55704H61.3289C60.9426 3.55747 60.5721 3.71343 60.2989 3.9907C60.0257 4.26797 59.872 4.64391 59.8716 5.03603V15.4377H62.1457V5.86492H66.3751V8.74163L63.9393 9.63878C63.7194 9.7199 63.5221 9.85354 63.3638 10.0284C63.2056 10.2033 63.0912 10.4143 63.0302 10.6435C62.9693 10.8727 62.9636 11.1135 63.0137 11.3454C63.0638 11.5773 63.1681 11.7936 63.3179 11.9759L66.1638 15.4459H69.1185Z" fill="white"/>
<path d="M6.2692 15.4459H3.99512V5.04416C3.99554 4.65204 4.14922 4.2761 4.42243 3.99883C4.69564 3.72156 5.06608 3.5656 5.45246 3.56517H11.3154C11.7018 3.5656 12.0722 3.72156 12.3454 3.99883C12.6187 4.2761 12.7723 4.65204 12.7728 5.04416V10.3539C12.773 10.664 12.6771 10.9664 12.4986 11.2182C12.3201 11.4699 12.0681 11.6582 11.7782 11.7565L6.2692 13.6223V15.4459ZM6.2692 5.86492V11.1893L10.4987 9.75093V5.86654L6.2692 5.86492Z" fill="white"/>
<path d="M58.0812 15.4459H50.9402C50.5539 15.4454 50.1834 15.2895 49.9102 15.0122C49.637 14.7349 49.4833 14.359 49.4829 13.9669V5.03603C49.4833 4.64391 49.637 4.26797 49.9102 3.9907C50.1834 3.71343 50.5539 3.55747 50.9402 3.55704H56.8032C57.1896 3.55747 57.56 3.71343 57.8332 3.9907C58.1064 4.26797 58.2601 4.64391 58.2606 5.03603V9.31535C58.2608 9.62549 58.1649 9.92787 57.9864 10.1796C57.8079 10.4313 57.5559 10.6197 57.266 10.718L51.7506 12.5935V13.138H58.0748L58.0812 15.4459ZM51.7506 5.86492V10.1654L55.9801 8.72701V5.86492H51.7506Z" fill="white"/>
<path d="M16.522 3.55865H14.2271V15.4475H16.522V3.55865Z" fill="white"/>
</g>
<defs>
<clipPath id="clip0">
<rect width="81.3129" height="18.91" fill="white" transform="translate(0.539062 0.0464783)"/>
</clipPath>
</defs>
</svg>
