<svg width="50" height="50" viewBox="0 0 50 50" fill="none" xmlns="http://www.w3.org/2000/svg">
<rect opacity="0.195126" width="50" height="50" rx="10" fill="#FF6C37"/>
<path d="M27.0311 9.13379C18.2688 8.00008 10.256 14.1971 9.13186 22.9593C8.00775 31.7216 14.1951 39.744 22.9574 40.8681C31.7196 41.9923 39.7325 35.8049 40.8662 27.0426C41.9903 18.2804 35.8029 10.2579 27.0311 9.13379C27.0407 9.13379 27.0407 9.13379 27.0311 9.13379ZM30.3265 19.1066C30.0287 19.1162 29.7501 19.2315 29.5387 19.4429L23.6011 25.3805L22.3329 24.1123C28.1744 18.2804 29.2408 18.2227 30.3265 19.1066ZM23.8413 25.5918L29.7597 19.7119C30.0863 19.3949 30.6051 19.3949 30.9318 19.7119C31.0951 19.8752 31.1816 20.0962 31.172 20.3172C31.1624 20.5478 31.0663 20.7592 30.8934 20.9129L24.6387 26.4277L23.8413 25.5918ZM24.2833 26.4854L22.8133 26.8601C22.7845 26.8793 22.7556 26.8793 22.7268 26.8601C22.7076 26.8312 22.7076 26.7928 22.7268 26.764L23.6203 25.8705L24.2833 26.4854ZM20.5362 25.8705L22.1023 24.3044L23.2841 25.515L20.6035 26.0914C20.5458 26.1011 20.4882 26.0626 20.4786 26.005C20.469 25.9665 20.4786 25.9377 20.5074 25.9089L20.5362 25.8705ZM15.6843 34.0082C15.6459 33.9986 15.6075 33.9698 15.5979 33.941C15.5883 33.9025 15.5883 33.8641 15.5979 33.8353L16.8565 32.5671L18.4898 34.1908L15.6843 34.0082ZM18.9125 32.3269C18.7876 32.3941 18.7204 32.5286 18.7492 32.6631L19.0182 33.8161C19.0374 33.8929 18.999 33.9698 18.9414 34.0082C18.8837 34.0563 18.7972 34.0563 18.7492 34.0082L17.1159 32.3269L22.1311 27.302L24.5619 26.7832L25.7244 27.9457C23.6491 29.6751 21.3625 31.1451 18.9221 32.3077V32.3269H18.9125ZM25.9646 27.7536L24.8501 26.6391L31.1048 21.1339C31.1624 21.0858 31.22 21.0282 31.2681 20.9609C31.0663 22.748 28.5491 25.2844 25.9646 27.7536ZM30.8453 19.1354C29.9134 18.1651 29.9518 16.6278 30.9222 15.6959C31.8061 14.8504 33.1704 14.7927 34.1216 15.5614L31.9694 17.7039C31.9118 17.7711 31.9118 17.8672 31.9694 17.9345L33.6412 19.5966C32.6996 20.0578 31.5659 19.8656 30.8357 19.1162L30.8453 19.1354ZM34.2753 19.1354C34.16 19.2411 34.0447 19.3468 33.9102 19.4333L32.3057 17.8288L34.3522 15.7823C35.2361 16.7335 35.2073 18.2131 34.2753 19.1354Z" fill="#FF6C37"/>
</svg>
