<svg width="80" height="80" viewBox="0 0 80 80" fill="none" xmlns="http://www.w3.org/2000/svg">
<rect opacity="0.195126" width="80" height="80" rx="24" fill="#DB7D7D"/>
<path fill-rule="evenodd" clip-rule="evenodd" d="M20 54.5378C20 55.542 20.814 56.356 21.8182 56.356H23.6364C36.6904 56.356 47.2727 45.7736 47.2727 32.7196V26.2014L49.6273 28.5469C50.3487 29.1647 51.424 29.1231 52.0956 28.4516C52.7672 27.78 52.8087 26.7046 52.1909 25.9833L46.7364 20.5287C46.0272 19.8238 44.8819 19.8238 44.1727 20.5287L38.7182 25.9833C38.1004 26.7046 38.1419 27.78 38.8135 28.4516C39.4851 29.1231 40.5604 29.1647 41.2818 28.5469L43.6364 26.2014V32.7196C43.6364 43.7653 34.6821 52.7196 23.6364 52.7196H21.8182C20.814 52.7196 20 53.5336 20 54.5378ZM52.7273 45.4468C56.7439 45.4468 60 48.7029 60 52.7195C60 56.7361 56.7439 59.9922 52.7273 59.9922C48.7106 59.9922 45.4545 56.7361 45.4545 52.7195C45.4545 48.7029 48.7106 45.4468 52.7273 45.4468ZM49.0909 52.7194C49.0909 54.7277 50.7189 56.3557 52.7272 56.3557C54.7356 56.3557 56.3636 54.7277 56.3636 52.7194C56.3636 50.7111 54.7356 49.083 52.7272 49.083C50.7189 49.083 49.0909 50.7111 49.0909 52.7194ZM24.9182 43.0922C24.209 43.7972 23.0637 43.7972 22.3545 43.0922C21.6496 42.3831 21.6496 41.2378 22.3545 40.5286L25.6091 37.265L22.3545 34.0013C21.7367 33.2799 21.7783 32.2046 22.4499 31.533C23.1214 30.8614 24.1968 30.8199 24.9182 31.4377L28.1818 34.6922L31.4454 31.4377C32.1668 30.8199 33.2421 30.8614 33.9137 31.533C34.5853 32.2046 34.6268 33.2799 34.0091 34.0013L30.7545 37.265L34.0091 40.5286C34.6268 41.25 34.5853 42.3253 33.9137 42.9969C33.2421 43.6685 32.1668 43.71 31.4454 43.0922L28.1818 39.8377L24.9182 43.0922Z" fill="#EB7575"/>
</svg>
