<svg width="40" height="40" viewBox="0 0 40 40" fill="none" xmlns="http://www.w3.org/2000/svg">
<rect opacity="0.195126" width="40" height="40" rx="15" fill="#DB7D7D"/>
<path d="M10 27.2689C10 27.771 10.407 28.178 10.9091 28.178H11.8182C18.3452 28.178 23.6364 22.8868 23.6364 16.3598V13.1007L24.8136 14.2734C25.1743 14.5823 25.712 14.5616 26.0478 14.2258C26.3836 13.89 26.4043 13.3523 26.0955 12.9916L23.3682 10.2644C23.0136 9.91188 22.4409 9.91188 22.0864 10.2644L19.3591 12.9916C19.0502 13.3523 19.071 13.89 19.4068 14.2258C19.7426 14.5616 20.2802 14.5823 20.6409 14.2734L21.8182 13.1007V16.3598C21.8182 21.8827 17.341 26.3598 11.8182 26.3598H10.9091C10.407 26.3598 10 26.7668 10 27.2689Z" fill="black"/>
<path fill-rule="evenodd" clip-rule="evenodd" d="M26.3637 22.7234C28.372 22.7234 30 24.3514 30 26.3598C30 28.3681 28.372 29.9961 26.3637 29.9961C24.3554 29.9961 22.7273 28.3681 22.7273 26.3598C22.7273 24.3514 24.3554 22.7234 26.3637 22.7234ZM24.5455 26.3598C24.5455 27.3639 25.3595 28.1779 26.3637 28.1779C27.3678 28.1779 28.1818 27.3639 28.1818 26.3598C28.1818 25.3556 27.3678 24.5416 26.3637 24.5416C25.3595 24.5416 24.5455 25.3556 24.5455 26.3598Z" fill="black"/>
<path d="M11.1773 21.5461C11.5319 21.8986 12.1046 21.8986 12.4591 21.5461L14.091 19.9188L15.7228 21.5461C16.0835 21.855 16.6211 21.8342 16.9569 21.4984C17.2927 21.1627 17.3135 20.625 17.0046 20.2643L15.3773 18.6325L17.0046 17.0007C17.3135 16.64 17.2927 16.1023 16.9569 15.7665C16.6211 15.4307 16.0835 15.41 15.7228 15.7188L14.091 17.3461L12.4591 15.7188C12.0984 15.41 11.5608 15.4307 11.225 15.7665C10.8892 16.1023 10.8684 16.64 11.1773 17.0007L12.8046 18.6325L11.1773 20.2643C10.8248 20.6189 10.8248 21.1915 11.1773 21.5461Z" fill="black"/>
</svg>
