<svg width="60" height="60" viewBox="0 0 60 60" fill="none" xmlns="http://www.w3.org/2000/svg">
<g id="Group 22 Copy 9">
<rect id="Rectangle Copy 27" opacity="0.2" width="60" height="60" rx="16" fill="#7000FF"/>
<g id="puzzle-piece 1">
<path id="Vector" d="M19.9996 43.75C19.8354 43.75 19.6729 43.7177 19.5212 43.6549C19.3695 43.5921 19.2317 43.5 19.1157 43.3839C18.9996 43.2678 18.9075 43.13 18.8447 42.9784C18.7819 42.8267 18.7496 42.6642 18.7496 42.5L18.7496 35.829C18.0828 36.1448 17.3469 36.2869 16.6104 36.2419C15.874 36.197 15.1608 35.9665 14.5373 35.5719C13.9139 35.1773 13.4003 34.6315 13.0444 33.9851C12.6886 33.3387 12.502 32.6129 12.502 31.875C12.502 31.1372 12.6886 30.4113 13.0444 29.765C13.4003 29.1186 13.9139 28.5727 14.5373 28.1782C15.1608 27.7836 15.874 27.5531 16.6104 27.5082C17.3469 27.4632 18.0828 27.6053 18.7496 27.9211L18.7496 21.2501C18.7496 21.0859 18.7819 20.9233 18.8447 20.7717C18.9075 20.62 18.9996 20.4822 19.1157 20.3662C19.2318 20.2501 19.3696 20.158 19.5212 20.0952C19.6729 20.0324 19.8354 20 19.9996 20L27.2956 20.0001C26.9798 19.3333 26.8377 18.5974 26.8827 17.8609C26.9276 17.1244 27.1581 16.4113 27.5527 15.7878C27.9473 15.1643 28.4931 14.6508 29.1395 14.2949C29.7858 13.9391 30.5117 13.7524 31.2495 13.7524C31.9874 13.7524 32.7133 13.9391 33.3596 14.2949C34.006 14.6508 34.5518 15.1643 34.9464 15.7878C35.341 16.4113 35.5715 17.1244 35.6164 17.8609C35.6614 18.5974 35.5193 19.3333 35.2035 20.0001L42.4995 20C42.831 20 43.149 20.1317 43.3834 20.3661C43.6178 20.6006 43.7495 20.9185 43.7495 21.25L43.7496 27.9211C43.0827 27.6053 42.3469 27.4632 41.6104 27.5082C40.8739 27.5531 40.1608 27.7836 39.5373 28.1782C38.9138 28.5727 38.4002 29.1186 38.0444 29.765C37.6885 30.4113 37.5019 31.1372 37.5019 31.875C37.5019 32.6129 37.6885 33.3387 38.0444 33.9851C38.4002 34.6315 38.9138 35.1773 39.5373 35.5719C40.1608 35.9665 40.8739 36.197 41.6104 36.2419C42.3469 36.2869 43.0827 36.1448 43.7496 35.829L43.7495 42.5C43.7495 42.8316 43.6178 43.1495 43.3834 43.3839C43.149 43.6183 42.831 43.75 42.4995 43.75L19.9996 43.75Z" stroke="#7000FF" stroke-width="3" stroke-linecap="round" stroke-linejoin="round"/>
</g>
</g>
</svg>
