<svg width="60" height="60" viewBox="0 0 60 60" fill="none" xmlns="http://www.w3.org/2000/svg">
<rect width="60" height="60" rx="16" fill="#F7F8FA"/>
<g clip-path="url(#clip0)">
<path d="M30.2333 12C21.0464 12 21.6201 15.984 21.6201 15.984L21.6304 20.1113H30.3972V21.3506H18.1482C18.1482 21.3506 12.2695 20.6839 12.2695 29.9535C12.2695 39.2232 17.4006 38.8944 17.4006 38.8944H20.4628V34.593C20.4628 34.593 20.2978 29.4619 25.5119 29.4619C30.7261 29.4619 34.207 29.4619 34.207 29.4619C34.207 29.4619 39.0923 29.5409 39.0923 24.7406C39.0923 19.9402 39.0923 16.8033 39.0923 16.8033C39.0923 16.8033 39.834 12 30.2333 12ZM25.3993 14.7755C26.2715 14.7755 26.9765 15.4804 26.9765 16.3527C26.9765 17.2249 26.2715 17.9299 25.3993 17.9299C24.527 17.9299 23.8221 17.2249 23.8221 16.3527C23.8221 15.4804 24.527 14.7755 25.3993 14.7755Z" fill="url(#paint0_linear)"/>
<path d="M30.4953 47.9999C39.6822 47.9999 39.1085 44.0159 39.1085 44.0159L39.0983 39.8885H30.3315V38.6493H42.5804C42.5804 38.6493 48.4591 39.316 48.4591 30.0464C48.4591 20.7767 43.328 21.1054 43.328 21.1054H40.2658V25.4069C40.2658 25.4069 40.4309 30.538 35.2167 30.538C30.0025 30.538 26.5216 30.538 26.5216 30.538C26.5216 30.538 21.6363 30.459 21.6363 35.2593C21.6363 40.0597 21.6363 43.1966 21.6363 43.1966C21.6363 43.1966 20.8946 47.9999 30.4953 47.9999ZM35.3294 45.2244C34.4571 45.2244 33.7521 44.5194 33.7521 43.6472C33.7521 42.775 34.4571 42.07 35.3294 42.07C36.2016 42.07 36.9066 42.775 36.9066 43.6472C36.9066 44.5194 36.2016 45.2244 35.3294 45.2244Z" fill="url(#paint1_linear)"/>
</g>
<defs>
<linearGradient id="paint0_linear" x1="15.7473" y1="15.1467" x2="33.6414" y2="33.1007" gradientUnits="userSpaceOnUse">
<stop stop-color="#387EB8"/>
<stop offset="1" stop-color="#366994"/>
</linearGradient>
<linearGradient id="paint1_linear" x1="26.7561" y1="26.5681" x2="45.9745" y2="44.9803" gradientUnits="userSpaceOnUse">
<stop stop-color="#FFE052"/>
<stop offset="1" stop-color="#FFC331"/>
</linearGradient>
<clipPath id="clip0">
<rect width="36.1884" height="36" fill="white" transform="translate(12.2695 12)"/>
</clipPath>
</defs>
</svg>
