<svg width="60" height="60" viewBox="0 0 60 60" fill="none" xmlns="http://www.w3.org/2000/svg">
<rect opacity="0.195126" width="60" height="60" rx="18" fill="#432CD1"/>
<path fill-rule="evenodd" clip-rule="evenodd" d="M29.9015 15C28.076 15 26.6016 16.4744 26.6016 18.2999C26.6016 20.1254 28.076 21.5998 29.9015 21.5998C31.7269 21.5998 33.2013 20.1254 33.2013 18.2999C33.2013 16.4744 31.7269 15 29.9015 15ZM22.4609 25.9177C22.4609 27.7432 23.9354 29.2176 25.7608 29.2176C27.5863 29.2176 29.0607 27.7432 29.0607 25.9177C29.0607 24.0923 27.5863 22.6179 25.7608 22.6179C23.9354 22.6179 22.4609 24.0923 22.4609 25.9177ZM21.5811 36.9056C19.7557 36.9056 18.2812 35.4312 18.2812 33.6057C18.2812 31.7803 19.7557 30.3058 21.5811 30.3058C23.4066 30.3058 24.881 31.7803 24.881 33.6057C24.881 35.4312 23.4066 36.9056 21.5811 36.9056ZM17.2999 44.5235C15.4744 44.5235 14 43.0491 14 41.2236C14 39.3981 15.4744 37.9237 17.2999 37.9237C19.1254 37.9237 20.5998 39.3981 20.5998 41.2236C20.5998 43.0491 19.1254 44.5235 17.2999 44.5235ZM25.6905 44.5235C23.865 44.5235 22.3906 43.0491 22.3906 41.2236C22.3906 39.3981 23.865 37.9237 25.6905 37.9237C27.516 37.9237 28.9904 39.3981 28.9904 41.2236C28.9904 43.0491 27.516 44.5235 25.6905 44.5235ZM34.0108 44.5235C35.8363 44.5235 37.3107 43.0491 37.3107 41.2236C37.3107 39.3981 35.8363 37.9237 34.0108 37.9237C32.1854 37.9237 30.7109 39.3981 30.7109 41.2236C30.7109 43.0491 32.2205 44.5235 34.0108 44.5235ZM33.2013 33.6057C33.2013 31.7803 31.7269 30.3058 29.9015 30.3058C28.076 30.3058 26.6016 31.7803 26.6016 33.6057C26.6016 35.4312 28.076 36.9056 29.9015 36.9056C31.7269 36.8705 33.2013 35.3961 33.2013 33.6057ZM34.9922 33.6057C34.9922 31.7803 36.4666 30.3058 38.2921 30.3058C40.1175 30.3058 41.592 31.7803 41.592 33.6057C41.592 35.4312 40.1175 36.9056 38.2921 36.9056C36.4666 36.9056 34.9922 35.4312 34.9922 33.6057ZM30.8164 25.9177C30.8164 24.0923 32.2908 22.6179 34.1163 22.6179C35.9418 22.6179 37.3811 24.0923 37.4162 25.9177C37.4162 27.7432 35.9418 29.2176 34.1163 29.2176C32.2908 29.2176 30.8164 27.7432 30.8164 25.9177ZM42.4366 44.5235C40.6111 44.5235 39.1367 43.0491 39.1367 41.2236C39.1367 39.3981 40.6111 37.9237 42.4366 37.9237C44.2621 37.9237 45.7365 39.3981 45.7365 41.2236C45.7365 43.0491 44.2621 44.5235 42.4366 44.5235Z" fill="#432CD1"/>
</svg>
