<svg width="60" height="60" viewBox="0 0 60 60" fill="none" xmlns="http://www.w3.org/2000/svg">
<g id="Group 22 Copy 4">
<rect id="Rectangle Copy 27" opacity="0.2" width="60" height="60" rx="16" fill="#0066FF"/>
<g id="question (6)">
<path id="Vector" d="M30 45C38.2843 45 45 38.2843 45 30C45 21.7157 38.2843 15 30 15C21.7157 15 15 21.7157 15 30C15 38.2843 21.7157 45 30 45Z" stroke="#0066FF" stroke-width="3" stroke-linecap="round" stroke-linejoin="round"/>
<path id="Vector_2" d="M30 33.75V32.5C30.9889 32.5 31.9556 32.2068 32.7778 31.6573C33.6001 31.1079 34.241 30.327 34.6194 29.4134C34.9978 28.4998 35.0968 27.4945 34.9039 26.5245C34.711 25.5546 34.2348 24.6637 33.5355 23.9645C32.8363 23.2652 31.9454 22.789 30.9754 22.5961C30.0055 22.4031 29.0002 22.5022 28.0866 22.8806C27.173 23.259 26.3921 23.8999 25.8427 24.7222C25.2932 25.5444 25 26.5111 25 27.5" stroke="#0066FF" stroke-width="3" stroke-linecap="round" stroke-linejoin="round"/>
<path id="Vector_3" d="M30 40.625C31.0355 40.625 31.875 39.7855 31.875 38.75C31.875 37.7145 31.0355 36.875 30 36.875C28.9645 36.875 28.125 37.7145 28.125 38.75C28.125 39.7855 28.9645 40.625 30 40.625Z" fill="#0066FF"/>
</g>
</g>
</svg>
