<svg width="80" height="80" viewBox="0 0 80 80" fill="none" xmlns="http://www.w3.org/2000/svg">
<rect width="80" height="80" rx="24" fill="#C2DAFF"/>
<path d="M59.5078 38.8482L44.1766 28.9826C43.9681 28.8497 43.7276 28.7755 43.4804 28.7678C43.2333 28.76 42.9886 28.8191 42.7722 28.9387C42.5558 29.0584 42.3757 29.2342 42.2508 29.4476C42.1259 29.661 42.0609 29.9041 42.0625 30.1514V49.8482C42.0609 50.0955 42.1259 50.3387 42.2508 50.5521C42.3757 50.7655 42.5558 50.9412 42.7722 51.0609C42.9886 51.1805 43.2333 51.2396 43.4804 51.2319C43.7276 51.2241 43.9681 51.1499 44.1766 51.017L59.5078 41.1514C59.7032 41.0293 59.8643 40.8596 59.976 40.6581C60.0876 40.4567 60.1462 40.2301 60.1462 39.9998C60.1462 39.7695 60.0876 39.5429 59.976 39.3415C59.8643 39.14 59.7032 38.9703 59.5078 38.8482V38.8482Z" stroke="#0066FF" stroke-width="4" stroke-linecap="round" stroke-linejoin="round"/>
<path d="M40.2578 38.8482L24.9266 28.9826C24.7181 28.8497 24.4776 28.7755 24.2304 28.7678C23.9833 28.76 23.7386 28.8191 23.5222 28.9387C23.3058 29.0584 23.1257 29.2342 23.0008 29.4476C22.8759 29.661 22.8109 29.9041 22.8125 30.1514V49.8482C22.8109 50.0955 22.8759 50.3387 23.0008 50.5521C23.1257 50.7655 23.3058 50.9412 23.5222 51.0609C23.7386 51.1805 23.9833 51.2396 24.2304 51.2319C24.4776 51.2241 24.7181 51.1499 24.9266 51.017L40.2578 41.1514C40.4532 41.0293 40.6143 40.8596 40.726 40.6581C40.8376 40.4567 40.8962 40.2301 40.8962 39.9998C40.8962 39.7695 40.8376 39.5429 40.726 39.3415C40.6143 39.14 40.4532 38.9703 40.2578 38.8482V38.8482Z" stroke="#0066FF" stroke-width="4" stroke-linecap="round" stroke-linejoin="round"/>
</svg>
