<svg width="157" height="160" viewBox="0 0 157 160" fill="none" xmlns="http://www.w3.org/2000/svg">
<mask id="mask0" mask-type="alpha" maskUnits="userSpaceOnUse" x="5" y="34" width="63" height="126">
<path fill-rule="evenodd" clip-rule="evenodd" d="M5.00977 34.7886H67.66V159.563H5.00977V34.7886Z" fill="white"/>
</mask>
<g mask="url(#mask0)">
<path fill-rule="evenodd" clip-rule="evenodd" d="M36.3349 159.564C19.0348 159.564 5.00977 145.539 5.00977 128.238V66.1137C5.00977 48.8132 19.0348 34.7886 36.3349 34.7886C53.6354 34.7886 67.66 48.8132 67.66 66.1137V128.238C67.66 145.539 53.6354 159.564 36.3349 159.564Z" fill="#003C40"/>
</g>
<path fill-rule="evenodd" clip-rule="evenodd" d="M67.8148 159.565H67.6602V64.1445H136.319V91.0602C136.319 128.894 105.649 159.565 67.8148 159.565Z" fill="#2F7B80"/>
<path fill-rule="evenodd" clip-rule="evenodd" d="M5.19336 65.93C5.19336 48.7312 19.1359 34.7891 36.3347 34.7891C53.5335 34.7891 67.4756 48.7312 67.4756 65.93C67.4756 83.1288 53.5335 97.0713 36.3347 97.0713C19.1359 97.0713 5.19336 83.1288 5.19336 65.93Z" fill="#C2D8DA"/>
<path fill-rule="evenodd" clip-rule="evenodd" d="M36.501 97C53.8983 97 68.001 111.103 68.001 128.5V160H36.501C19.1042 160 5.00098 145.897 5.00098 128.5C5.00098 111.103 19.1042 97 36.501 97Z" fill="#005D63"/>
<mask id="mask1" mask-type="alpha" maskUnits="userSpaceOnUse" x="67" y="0" width="65" height="65">
<path fill-rule="evenodd" clip-rule="evenodd" d="M67.4756 0H131.619V64.1435H67.4756V0Z" fill="white"/>
</mask>
<g mask="url(#mask1)">
<path fill-rule="evenodd" clip-rule="evenodd" d="M99.5474 0C81.8346 0 67.4756 14.359 67.4756 32.0718V64.1436H99.5474C117.26 64.1436 131.619 49.7846 131.619 32.0722V32.0718C131.619 14.359 117.26 0 99.5474 0Z" fill="#005D63"/>
</g>
<mask id="mask2" mask-type="alpha" maskUnits="userSpaceOnUse" x="0" y="9" width="157" height="148">
<path fill-rule="evenodd" clip-rule="evenodd" d="M0 9.03906H156.808V156.731H0V9.03906Z" fill="white"/>
</mask>
<g mask="url(#mask2)">
<path fill-rule="evenodd" clip-rule="evenodd" d="M60.0278 71.9465C75.332 71.9465 87.7825 59.5646 87.7825 44.3449C87.7825 29.1248 75.332 16.7416 60.0278 16.7416C44.7232 16.7416 32.2731 29.1248 32.2731 44.3449C32.2731 59.5646 44.7232 71.9465 60.0278 71.9465ZM60.2793 9.03906C80.0721 9.03906 96.1734 25.0419 96.1734 44.7121C96.1734 64.3818 80.0721 80.3843 60.2793 80.3843C53.2102 80.3843 46.6169 78.3355 41.0559 74.8142L7.0399 108.619C6.23415 109.419 5.17856 109.819 4.1238 109.819C3.06821 109.819 2.01262 109.419 1.20769 108.619C-0.402564 107.018 -0.402564 104.424 1.20769 102.823L34.6169 69.6204C28.2936 63.1859 24.3855 54.3962 24.3855 44.7121C24.3855 25.0419 40.4869 9.03906 60.2793 9.03906ZM64.1152 144.086C64.1152 141.758 66.0016 139.871 68.3286 139.871H72.5419C98.1263 139.842 118.859 119.104 118.889 93.5122V78.4037L113.443 83.8507C111.796 85.4975 109.127 85.4975 107.481 83.8507C105.835 82.2043 105.835 79.5344 107.481 77.8872L120.121 65.2443C120.911 64.4525 121.984 64.0078 123.102 64.0078C124.22 64.0078 125.292 64.4525 126.082 65.2443L138.722 77.8872C140.369 79.5344 140.369 82.2043 138.722 83.8507C137.076 85.4975 134.407 85.4975 132.761 83.8507L127.315 78.4037V93.5122C127.28 123.756 102.778 148.265 72.5419 148.3H68.3286C66.0016 148.3 64.1152 146.414 64.1152 144.086ZM69.5613 117.568C68.7704 116.778 68.3256 115.705 68.3256 114.587C68.3256 113.468 68.7704 112.395 69.5613 111.605L77.1137 104.051L69.5613 96.4963C68.4963 95.4309 68.0803 93.878 68.4705 92.4229C68.8602 90.9677 69.9962 89.8313 71.451 89.4415C72.9062 89.0514 74.4582 89.4674 75.5232 90.5328L83.0756 98.0873L90.628 90.5328C92.2744 88.886 94.9435 88.886 96.5898 90.5328C98.2362 92.1792 98.2362 94.8491 96.5898 96.4963L89.0374 104.051L96.5898 111.605C98.2362 113.252 98.2362 115.922 96.5898 117.568C94.9435 119.215 92.2744 119.215 90.628 117.568L83.0756 110.014L75.5232 117.568C74.733 118.36 73.6602 118.804 72.5423 118.804C71.4239 118.804 70.3519 118.36 69.5613 117.568ZM156.809 139.873C156.809 149.184 149.263 156.731 139.955 156.731C130.648 156.731 123.102 149.184 123.102 139.873C123.102 130.563 130.648 123.015 139.955 123.015C149.263 123.015 156.809 130.563 156.809 139.873ZM139.955 148.302C144.609 148.302 148.382 144.528 148.382 139.873C148.382 135.218 144.609 131.444 139.955 131.444C135.301 131.444 131.529 135.218 131.529 139.873C131.529 144.528 135.301 148.302 139.955 148.302Z" fill="white"/>
</g>
</svg>
