<?xml version="1.0" encoding="utf-8"?>
<svg viewBox="0 0 60 60" fill="none" xmlns="http://www.w3.org/2000/svg">
  <g id="Group 22 Copy 11">
    <rect id="Rectangle Copy 27" opacity="0.195126" width="60" height="60" rx="18" fill="#509FE8"/>
    <path d="M 49 16.871 L 49 24.356 C 49 24.852 48.8 25.328 48.445 25.679 C 48.09 26.03 47.608 26.227 47.106 26.227 C 46.603 26.227 46.121 26.03 45.766 25.679 C 45.411 25.328 45.211 24.852 45.211 24.356 L 45.211 21.587 L 33.371 34.947 C 33.193 35.146 32.975 35.306 32.73 35.416 C 32.485 35.526 32.219 35.583 31.95 35.583 C 31.69 35.589 31.431 35.543 31.19 35.446 C 30.949 35.35 30.73 35.205 30.548 35.022 L 26.305 30.793 L 14.37 44.303 C 14.209 44.499 14.01 44.662 13.785 44.781 C 13.559 44.899 13.311 44.972 13.056 44.993 C 12.801 45.015 12.545 44.985 12.302 44.906 C 12.059 44.827 11.835 44.7 11.643 44.533 C 11.451 44.367 11.295 44.163 11.185 43.935 C 11.075 43.707 11.012 43.46 11.002 43.207 C 10.991 42.955 11.032 42.703 11.123 42.467 C 11.213 42.23 11.351 42.015 11.528 41.833 L 24.789 26.863 C 24.96 26.67 25.169 26.514 25.403 26.404 C 25.638 26.294 25.892 26.232 26.152 26.224 C 26.411 26.215 26.669 26.259 26.911 26.353 C 27.152 26.447 27.371 26.589 27.555 26.77 L 31.95 30.961 L 42.692 18.742 L 39.528 18.742 C 39.025 18.742 38.544 18.545 38.188 18.194 C 37.833 17.843 37.633 17.367 37.633 16.871 C 37.633 16.375 37.833 15.899 38.188 15.548 C 38.544 15.197 39.025 15 39.528 15 L 47.106 15 C 47.608 15 48.09 15.197 48.445 15.548 C 48.8 15.899 49 16.375 49 16.871 Z" fill="#3FAEEC"/>
  </g>
</svg>
