<svg width="422" height="468" viewBox="0 0 422 468" fill="none" xmlns="http://www.w3.org/2000/svg">
<path d="M366 151.3L380.9 100C384.9 86.1001 401.7 80.5001 413.2 89.3001C424.7 98.1001 423.9 115.7 411.5 123.3L366 151.3Z" fill="#00FFD1"/>
<path d="M323.6 205.9L404.3 101.8" stroke="black" stroke-width="2.4853" stroke-miterlimit="10" stroke-linecap="round" stroke-linejoin="round"/>
<path d="M384.5 127.7L397.8 127.5" stroke="black" stroke-width="2.4853" stroke-miterlimit="10" stroke-linecap="round" stroke-linejoin="round"/>
<path d="M394.9 114.1L390.1 99" stroke="black" stroke-width="2.4853" stroke-miterlimit="10" stroke-linecap="round" stroke-linejoin="round"/>
<path d="M346.201 137L332.601 96.4C328.901 85.4 337.401 74.1 349.101 74.6C360.701 75.1 368.201 87.2 363.501 97.8L346.201 137Z" fill="#C2FFF4"/>
<path d="M344 179.5L348.8 86.4004" stroke="black" stroke-width="2.4853" stroke-miterlimit="10" stroke-linecap="round" stroke-linejoin="round"/>
<path d="M347.301 115.2L351.601 114.1" stroke="black" stroke-width="2.4853" stroke-miterlimit="10" stroke-linecap="round" stroke-linejoin="round"/>
<path d="M348.1 99.3998L339 94.7998" stroke="black" stroke-width="2.4853" stroke-miterlimit="10" stroke-linecap="round" stroke-linejoin="round"/>
<path d="M347.801 105.6L355.201 99.2002" stroke="black" stroke-width="2.4853" stroke-miterlimit="10" stroke-linecap="round" stroke-linejoin="round"/>
<path d="M346.4 150.1L322.1 140.7C315.5 138.1 313.5 129.8 318.3 124.6C323.1 119.4 331.6 120.6 334.7 126.9L346.4 150.1Z" fill="#C2FFF4"/>
<path d="M345.6 149.3L328.5 134.1" stroke="black" stroke-width="2.4853" stroke-miterlimit="10" stroke-linecap="round" stroke-linejoin="round"/>
<path d="M336.6 141.299L337.8 137.699" stroke="black" stroke-width="2.4853" stroke-miterlimit="10" stroke-linecap="round" stroke-linejoin="round"/>
<path d="M333.499 138.5L328.699 140.8" stroke="black" stroke-width="2.4853" stroke-miterlimit="10" stroke-linecap="round" stroke-linejoin="round"/>
<path d="M331.4 136.6L331.7 130.3" stroke="black" stroke-width="2.4853" stroke-miterlimit="10" stroke-linecap="round" stroke-linejoin="round"/>
<path d="M362.4 156.6L384.7 146.2C390.8 143.4 397.8 147.5 398.2 154.2C398.6 160.9 392.3 165.9 385.9 163.9L362.4 156.6Z" fill="#00FFD1"/>
<path d="M361.9 156.4L389.2 154.3" stroke="black" stroke-width="2.4853" stroke-miterlimit="10" stroke-linecap="round" stroke-linejoin="round"/>
<path d="M376.6 155.3L378.5 158.9" stroke="black" stroke-width="2.4853" stroke-miterlimit="10" stroke-linecap="round" stroke-linejoin="round"/>
<path d="M381.5 154.9L383.3 149.3" stroke="black" stroke-width="2.4853" stroke-miterlimit="10" stroke-linecap="round" stroke-linejoin="round"/>
<path d="M384.701 154.6L389.801 160" stroke="black" stroke-width="2.4853" stroke-miterlimit="10" stroke-linecap="round" stroke-linejoin="round"/>
<path d="M177.6 467.601C275.686 467.601 355.2 422.605 355.2 367.101C355.2 311.596 275.686 266.601 177.6 266.601C79.5142 266.601 0 311.596 0 367.101C0 422.605 79.5142 467.601 177.6 467.601Z" fill="#C2FFF4"/>
<path d="M171.399 196.601V180.301C171.399 180.001 171.399 179.701 171.399 179.401V179.201C171.299 178.701 171.199 178.201 171.099 177.601C168.999 171.701 158.899 167.901 148.699 169.101C143.299 169.801 138.899 171.701 136.299 174.201L127.399 153.001C98.9988 156.901 72.0988 165.301 49.8988 178.101C27.5988 191.101 13.0988 206.601 6.29883 223.001V240.401L40.4988 245.201V237.701C43.7988 232.501 53.3988 229.501 62.8988 230.901C65.9988 231.401 68.7988 232.301 70.9988 233.401V249.501L100.799 253.701C103.599 247.001 109.499 240.701 118.499 235.501C127.499 230.301 138.499 226.901 150.099 225.301V208.301C152.099 208.401 154.199 208.401 156.199 208.201C165.699 206.901 171.899 202.001 171.399 196.601Z" fill="white" stroke="black" stroke-width="2.4853" stroke-miterlimit="10" stroke-linecap="round" stroke-linejoin="round"/>
<path d="M150.199 207.701L142.399 189.101C146.399 190.601 151.299 191.201 156.299 190.601C166.499 189.401 173.099 183.601 170.999 177.701C168.899 171.801 158.799 168.001 148.599 169.201C143.199 169.901 138.799 171.801 136.199 174.301L127.299 153.101C98.8988 157.001 71.9988 165.401 49.7988 178.201C27.5988 191.101 13.0988 206.601 6.29883 223.001L40.4988 227.801C39.1988 225.801 38.8988 223.601 39.8988 221.301C42.4988 215.501 52.7988 211.901 62.8988 213.401C72.9988 214.901 79.1988 220.801 76.5988 226.701C75.6988 228.801 73.6988 230.701 71.0988 232.001L100.899 236.201C103.699 229.501 109.599 223.201 118.599 218.001C127.699 212.801 138.599 209.401 150.199 207.701Z" fill="white" stroke="black" stroke-width="2.4853" stroke-miterlimit="10" stroke-linecap="round" stroke-linejoin="round"/>
<path d="M287.999 149.201V131.801C246.099 107.601 187.099 99.2005 133.299 106.701V124.101L142.199 145.301C144.799 142.701 149.199 140.801 154.599 140.201C160.199 139.501 165.699 140.401 169.899 142.201C167.699 143.101 165.199 143.901 162.299 144.201C157.299 144.801 152.399 144.201 148.399 142.701V160.101L156.199 178.701C178.099 175.701 202.099 179.101 219.199 188.901L241.499 176.101C242.299 178.001 243.899 179.901 246.499 181.401C253.899 185.701 265.899 185.701 273.299 181.401C277.399 179.001 279.299 175.801 278.799 172.701V157.301C278.899 156.601 278.899 155.901 278.799 155.301C278.799 155.101 278.699 154.901 278.699 154.801L287.999 149.201Z" fill="white" stroke="black" stroke-width="2.4853" stroke-miterlimit="10" stroke-linecap="round" stroke-linejoin="round"/>
<path d="M241.498 158.7V176.1C242.298 178 243.898 179.9 246.498 181.4C252.898 185.1 262.798 185.6 270.198 182.8" fill="white"/>
<path d="M241.498 158.7V176.1C242.298 178 243.898 179.9 246.498 181.4C252.898 185.1 262.798 185.6 270.198 182.8" stroke="black" stroke-width="2.4853" stroke-miterlimit="10" stroke-linecap="round" stroke-linejoin="round"/>
<path d="M181.599 157.9C153.799 155.6 156.199 161.2 156.199 161.2V178.6C178.099 175.6 202.099 179 219.199 188.8V171.4C219.199 171.5 209.299 160.3 181.599 157.9Z" fill="white" stroke="black" stroke-width="2.4853" stroke-miterlimit="10" stroke-linecap="round" stroke-linejoin="round"/>
<path d="M146.399 142.2L147.099 142.1C149.299 141.2 151.799 140.5 154.599 140.1C160.199 139.4 165.699 140.3 169.899 142.1C169.199 142.4 168.499 142.7 167.699 142.9L179.899 145.2L183.999 126.4L178.499 120.2L144.199 120.7L142.299 127.8V145.2C143.399 144.2 144.799 143.2 146.399 142.4V142.2Z" fill="white" stroke="black" stroke-width="2.4853" stroke-miterlimit="10" stroke-linecap="round" stroke-linejoin="round"/>
<path d="M273.298 148.501C270.698 147.001 267.498 146.001 264.198 145.601L288.098 131.801C246.198 107.601 187.198 99.2005 133.398 106.701L142.298 127.901C144.898 125.301 149.298 123.401 154.698 122.801C164.898 121.601 174.998 125.401 177.098 131.301C179.198 137.201 172.698 143.001 162.398 144.201C157.398 144.801 152.498 144.201 148.498 142.701L156.298 161.301C178.198 158.301 202.198 161.701 219.298 171.501L241.598 158.701C242.398 160.601 243.998 162.501 246.598 164.001C253.998 168.301 265.998 168.301 273.398 164.001C280.798 159.701 280.698 152.801 273.298 148.501Z" fill="white" stroke="black" stroke-width="2.4853" stroke-miterlimit="10" stroke-linecap="round" stroke-linejoin="round"/>
<path d="M295.599 276.401C296.999 278.501 297.399 280.801 296.299 283.101C293.699 288.901 283.399 292.501 273.299 291.001C270.299 290.601 267.599 289.701 265.399 288.601V272.201L233.899 267.801C231.099 274.501 225.199 280.801 216.199 286.001C207.199 291.201 196.199 294.601 184.599 296.201V313.601C182.999 313.601 181.399 313.601 179.799 313.801C170.199 314.901 163.899 320.101 164.799 325.501H164.699V341.701C164.699 341.801 164.699 342.001 164.699 342.101V342.301C164.699 342.901 164.799 343.501 165.099 344.201C167.199 350.101 177.299 353.901 187.499 352.701C192.399 352.101 196.399 350.501 198.999 348.301L207.399 368.301C235.799 364.401 262.699 356.001 284.899 343.201C307.099 330.401 321.599 314.801 328.399 298.401V281.001L295.599 276.401Z" fill="white" stroke="black" stroke-width="2.4853" stroke-miterlimit="10" stroke-linecap="round" stroke-linejoin="round"/>
<path d="M199.198 330.901C196.498 333.101 192.498 334.701 187.698 335.301C182.098 336.001 176.598 335.101 172.398 333.301C174.598 332.401 177.098 331.601 179.998 331.301C184.398 330.801 188.798 331.201 192.498 332.301V314.901L184.698 296.301C162.798 299.301 138.798 295.901 121.698 286.101L100.398 298.401C99.4984 296.801 97.9984 295.301 95.7984 294.101C88.3984 289.801 76.3984 289.801 68.9984 294.101C64.4984 296.701 62.7984 300.201 63.6984 303.601V317.601C63.4984 318.301 63.3984 319.001 63.4984 319.701L52.8984 325.801V343.201C94.7984 367.401 153.798 375.801 207.598 368.301V350.901L199.198 330.901Z" fill="white" stroke="black" stroke-width="2.4853" stroke-miterlimit="10" stroke-linecap="round" stroke-linejoin="round"/>
<path d="M285.098 325.801C307.298 313.001 321.798 297.401 328.598 281.001L295.598 276.401C296.998 278.501 297.398 280.801 296.298 283.101C293.698 288.901 283.398 292.501 273.298 291.001C263.198 289.501 256.998 283.601 259.598 277.701C260.598 275.501 262.698 273.601 265.398 272.201L233.898 267.801C231.098 274.501 225.198 280.801 216.198 286.001C207.198 291.201 196.198 294.601 184.598 296.201L192.398 314.801C188.698 313.701 184.298 313.301 179.898 313.801C169.698 315.001 163.098 320.801 165.198 326.701C167.298 332.601 177.398 336.401 187.598 335.201C192.498 334.601 196.498 333.001 199.098 330.801L207.498 350.801C235.898 347.001 262.898 338.601 285.098 325.801Z" fill="white" stroke="black" stroke-width="2.4853" stroke-miterlimit="10" stroke-linecap="round" stroke-linejoin="round"/>
<path d="M199.198 330.901C196.498 333.101 192.498 334.701 187.698 335.301C177.498 336.501 167.398 332.701 165.298 326.801C163.198 320.901 169.698 315.101 179.998 313.901C184.398 313.401 188.798 313.801 192.498 314.901L184.698 296.301C162.798 299.301 138.798 295.901 121.698 286.101L100.398 298.401C99.4984 296.801 97.9984 295.301 95.7984 294.101C88.3984 289.801 76.3984 289.801 68.9984 294.101C61.5984 298.401 61.5984 305.301 68.9984 309.601C71.1984 310.901 73.7984 311.701 76.4984 312.301L52.8984 326.001C94.7984 350.201 153.798 358.601 207.598 351.101L199.198 330.901Z" fill="white" stroke="black" stroke-width="2.4853" stroke-miterlimit="10" stroke-linecap="round" stroke-linejoin="round"/>
<path d="M118.599 210.001V192.601C109.399 187.301 103.499 180.801 100.699 174.001C100.699 173.901 100.799 173.801 100.799 173.601H100.499C98.2992 167.901 98.3992 161.901 100.799 156.201L77.0992 152.901V144.601C77.5992 139.501 71.7992 134.801 62.8992 133.401C52.7992 131.901 42.4992 135.401 39.8992 141.301C38.8992 143.501 39.1992 145.801 40.4992 147.801L6.29922 143.001C3.49922 149.801 1.89922 156.801 1.69922 163.801V184.601V184.701C2.49922 208.301 18.4992 231.801 49.6992 249.801L73.2992 236.101V218.701C71.2992 218.301 69.4992 217.801 67.7992 217.001C75.1992 213.801 85.7992 214.101 92.5992 218.001C94.7992 219.301 96.2992 220.801 97.1992 222.301L118.599 210.001Z" fill="white" stroke="black" stroke-width="2.4853" stroke-miterlimit="10" stroke-linecap="round" stroke-linejoin="round"/>
<path d="M5.19922 145.801C5.49922 144.901 5.89922 144.001 6.29922 143.001C5.89922 143.901 5.59922 144.801 5.19922 145.801Z" fill="white" stroke="black" stroke-width="2.4853" stroke-miterlimit="10" stroke-linecap="round" stroke-linejoin="round"/>
<path d="M1.79935 163.801V184.601V184.701C2.59935 208.301 18.5993 231.801 49.7994 249.801V232.401C17.0993 213.401 1.09935 188.501 1.79935 163.801Z" fill="white" stroke="black" stroke-width="2.4853" stroke-miterlimit="10" stroke-linecap="round" stroke-linejoin="round"/>
<path d="M3.5 151.301C3.6 150.701 3.8 150.201 4 149.601C3.8 150.201 3.7 150.701 3.5 151.301Z" fill="white" stroke="black" stroke-width="2.4853" stroke-miterlimit="10" stroke-linecap="round" stroke-linejoin="round"/>
<path d="M4.29883 148.501C4.49883 147.901 4.69883 147.301 4.89883 146.701C4.69883 147.301 4.49883 147.901 4.29883 148.501Z" fill="white" stroke="black" stroke-width="2.4853" stroke-miterlimit="10" stroke-linecap="round" stroke-linejoin="round"/>
<path d="M2 159.701C2.1 159.201 2.1 158.701 2.2 158.101C2.1 158.701 2.1 159.201 2 159.701Z" fill="white" stroke="black" stroke-width="2.4853" stroke-miterlimit="10" stroke-linecap="round" stroke-linejoin="round"/>
<path d="M1.79883 162.701C1.79883 162.101 1.89883 161.501 1.89883 160.901C1.89883 161.601 1.79883 162.101 1.79883 162.701Z" fill="white" stroke="black" stroke-width="2.4853" stroke-miterlimit="10" stroke-linecap="round" stroke-linejoin="round"/>
<path d="M2.89844 154.101C2.99844 153.601 3.09844 153.001 3.19844 152.501C3.09844 153.001 2.99844 153.601 2.89844 154.101Z" fill="white" stroke="black" stroke-width="2.4853" stroke-miterlimit="10" stroke-linecap="round" stroke-linejoin="round"/>
<path d="M2.39844 156.901C2.49844 156.401 2.59844 155.901 2.69844 155.401C2.59844 155.901 2.49844 156.401 2.39844 156.901Z" fill="white" stroke="black" stroke-width="2.4853" stroke-miterlimit="10" stroke-linecap="round" stroke-linejoin="round"/>
<path d="M70.0992 217.801C69.7992 217.701 69.4992 217.601 69.1992 217.501C69.4992 217.601 69.7992 217.701 70.0992 217.801Z" fill="white" stroke="black" stroke-width="2.4853" stroke-miterlimit="10" stroke-linecap="round" stroke-linejoin="round"/>
<path d="M92.6996 200.501C85.2996 196.201 73.2996 196.201 65.8996 200.501C58.4996 204.801 58.4996 211.701 65.8996 216.001C66.4996 216.401 67.1996 216.701 67.8996 217.001C75.2996 213.801 85.8996 214.101 92.6996 218.001C94.8996 219.301 96.3996 220.801 97.2996 222.301V204.901C96.3996 203.301 94.8996 201.801 92.6996 200.501Z" fill="white" stroke="black" stroke-width="2.4853" stroke-miterlimit="10" stroke-linecap="round" stroke-linejoin="round"/>
<path d="M72.1988 218.401C71.6988 218.301 71.2988 218.201 70.7988 218.001C71.1988 218.101 71.6988 218.301 72.1988 218.401Z" fill="white" stroke="black" stroke-width="2.4853" stroke-miterlimit="10" stroke-linecap="round" stroke-linejoin="round"/>
<path d="M92.6992 200.501C94.8992 201.801 96.3992 203.301 97.2992 204.801L118.599 192.501C101.499 182.601 95.5992 168.801 100.899 156.101L71.0992 151.901C73.6992 150.501 75.6992 148.701 76.5992 146.601C79.1992 140.801 73.0992 134.801 62.8992 133.301C52.7992 131.801 42.4992 135.301 39.8992 141.201C38.8992 143.401 39.1992 145.701 40.4992 147.701L6.29916 143.001C-6.60084 174.001 7.89915 208.101 49.7992 232.301L73.3992 218.601C70.6992 218.101 68.0992 217.201 65.8992 215.901C58.4992 211.601 58.4992 204.701 65.8992 200.401C73.2992 196.301 85.2992 196.301 92.6992 200.501Z" fill="white" stroke="black" stroke-width="2.4853" stroke-miterlimit="10" stroke-linecap="round" stroke-linejoin="round"/>
<path d="M353.499 220.2L353.399 217.6C351.599 194.8 335.599 172.3 305.499 154.9L281.599 168.7V186.1C284.099 186.4 286.599 187.1 288.799 188C281.399 191.3 270.799 190.9 263.999 187C261.399 185.5 259.699 183.7 258.999 181.7L236.699 194.5V211.9C245.899 217.2 251.799 223.7 254.599 230.5C254.599 230.6 254.499 230.7 254.499 230.9V248.3L279.599 251.8V260.7C279.499 265.6 285.199 270.2 293.799 271.5C303.899 273 314.199 269.5 316.799 263.6C316.999 263.2 317.099 262.8 317.199 262.4C317.399 261.4 317.399 260.4 317.199 259.5V257.1L348.999 261.5C351.799 254.9 353.299 248.1 353.499 241.3H353.599L353.499 220.2Z" fill="white" stroke="black" stroke-width="2.4853" stroke-miterlimit="10" stroke-linecap="round" stroke-linejoin="round"/>
<path d="M288.7 188.101C286.9 188.901 285 189.401 283 189.801L285.8 192.201L298 193.601L302.5 168.801H281.5V186.201C284.1 186.501 286.5 187.101 288.7 188.101Z" fill="white" stroke="black" stroke-width="2.4853" stroke-miterlimit="10" stroke-linecap="round" stroke-linejoin="round"/>
<path d="M317.1 257.201L317.2 243.601L315.9 239.601L348.9 244.201V261.701L317.1 257.201Z" fill="white" stroke="black" stroke-width="2.4853" stroke-miterlimit="10" stroke-linecap="round" stroke-linejoin="round"/>
<path d="M254.301 248.5V231L285.801 235.4L283.801 241.2L279.401 243.3V252L254.301 248.5Z" fill="white" stroke="black" stroke-width="2.4853" stroke-miterlimit="10" stroke-linecap="round" stroke-linejoin="round"/>
<path d="M315.9 239.6L348.9 244.2C361.8 213.2 347.3 179.1 305.4 154.9L281.5 168.7C284.8 169.1 288 170.1 290.6 171.6C298 175.9 298 182.8 290.6 187.1C283.2 191.4 271.2 191.4 263.8 187.1C261.2 185.6 259.5 183.8 258.8 181.8L236.5 194.6C253.6 204.5 259.5 218.3 254.2 231L285.7 235.4C282.9 236.8 280.9 238.7 279.9 240.9C277.3 246.7 283.4 252.7 293.6 254.2C303.7 255.7 314 252.2 316.6 246.3C317.7 244 317.3 241.7 315.9 239.6Z" fill="white" stroke="black" stroke-width="2.4853" stroke-miterlimit="10" stroke-linecap="round" stroke-linejoin="round"/>
<path d="M90.7988 68.4004V124" stroke="black" stroke-width="2.4853" stroke-miterlimit="10" stroke-linecap="round" stroke-linejoin="round"/>
<path d="M65 23.6006V79.2006" stroke="black" stroke-width="2.4853" stroke-miterlimit="10" stroke-linecap="round" stroke-linejoin="round"/>
<path d="M39.0996 1.2002V56.9002" stroke="black" stroke-width="2.4853" stroke-miterlimit="10" stroke-linecap="round" stroke-linejoin="round"/>
<path d="M13.1992 46V101.6" stroke="black" stroke-width="2.4853" stroke-miterlimit="10" stroke-linecap="round" stroke-linejoin="round"/>
</svg>
