<svg fill="none" height="346" viewBox="0 0 410 346" width="410" xmlns="http://www.w3.org/2000/svg" xmlns:xlink="http://www.w3.org/1999/xlink"><mask id="a" height="346" maskUnits="userSpaceOnUse" width="410" x="0" y="0"><path d="m0 0h410v346h-410z" fill="#fff"/></mask><g mask="url(#a)"><g stroke="#f7f8fa" stroke-width="3.658"><path clip-rule="evenodd" d="m-225.734 90.2232h499.867c71.732 0 129.883 58.1438 129.883 129.8678h-629.75c-35.867 0-64.942-29.072-64.942-64.933 0-35.863 29.075-64.9348 64.942-64.9348z" fill-rule="evenodd"/><path clip-rule="evenodd" d="m225.519 743.028c98.581 0 178.497-79.906 178.497-178.476v-344.461h-66.87c-61.65 0-111.627 49.971-111.627 111.614z" fill-rule="evenodd"/><path clip-rule="evenodd" d="m124.641 220.091c0 55.707 45.165 100.866 100.878 100.866s100.876-45.159 100.876-100.866-45.163-100.865-100.876-100.865-100.878 45.158-100.878 100.865z" fill-rule="evenodd"/><path clip-rule="evenodd" d="m-97.8768 220.091h-55.3082v144.881h200.206c0-80.015-64.8727-144.881-144.8978-144.881z" fill-rule="evenodd"/><path d="m6.08183 143.686v-108.5326" stroke-linecap="round" stroke-linejoin="round"/></g><path clip-rule="evenodd" d="m274.163 237.882s9.179-5.828 9.179-10.987-18.091-5.36-18.091-5.36l2.413-1.072h47.103l-4.33 2.844s-28.193 10.657-34.134 14.806z" fill="#f7f8fa" fill-rule="evenodd"/></g></svg>