<svg xmlns="http://www.w3.org/2000/svg" width="125" height="20" viewBox="0 0 125 20">
    <path fill="#099" d="M117.664 0c.79 0 1.7.069 2.71.196 1.016.136 1.994.301 2.935.506v3.743c-1.966-.732-3.718-1.102-5.25-1.102-.908 0-1.63.166-2.174.486-.544.324-.821.721-.821 1.191 0 .624.613 1.18 1.849 1.677l3.57 1.713c2.885 1.357 4.317 3.158 4.317 5.42 0 1.882-.76 3.382-2.292 4.493-1.521 1.122-3.57 1.677-6.12 1.677-1.176 0-2.232-.05-3.17-.155-.94-.1-2.018-.304-3.215-.596V15.33c2.194.732 4.192 1.102 5.99 1.102 2.147 0 3.215-.613 3.215-1.85 0-.617-.438-1.114-1.326-1.504l-3.964-1.666c-1.463-.652-2.55-1.442-3.262-2.379-.7-.944-1.056-2.027-1.056-3.265 0-1.733.74-3.128 2.202-4.189C113.276.528 115.232 0 117.664 0zM8.06 0C8.86 0 9.76.069 10.78.196c1.009.136 1.987.301 2.926.506v3.743c-1.968-.732-3.717-1.102-5.25-1.102-.91 0-1.631.166-2.175.486-.544.324-.821.721-.821 1.191 0 .624.622 1.18 1.858 1.677L10.89 8.41c2.876 1.357 4.311 3.158 4.311 5.42 0 1.882-.762 3.382-2.284 4.493C11.382 19.445 9.345 20 6.786 20c-1.177 0-2.237-.05-3.176-.155-.939-.1-2.007-.304-3.212-.596V15.33c2.203.732 4.202 1.102 5.99 1.102 2.147 0 3.215-.613 3.215-1.85 0-.617-.435-1.114-1.315-1.504l-3.966-1.666c-1.474-.652-2.562-1.442-3.263-2.379C.348 8.09 0 7.007 0 5.77 0 4.036.734 2.64 2.206 1.58 3.669.528 5.628 0 8.06 0zM23.2.8V20h-5.6V.8h5.6zm18.224 0v3.549H32.79v4.257h7.487v3.2h-7.487v4.47H41.6V20H27.2V.8h14.224zm10.308 0l4.732 11.647L61.415.8H68v19.026h-5.302V7.277L57.198 20h-3.273l-5.29-12.723v12.549H44.8V.8h6.932zm34.492 0v3.549h-8.585v4.257h7.487v3.2h-7.487v4.47H86.4V20H72V.8h14.224zm9.644 0l6.658 12.103V.8h3.874V20h-6.09L93.473 7.686V20H89.6V.8h6.268z"/>
</svg>
