<svg width="73" height="25" viewBox="0 0 73 25" fill="none" xmlns="http://www.w3.org/2000/svg">
<path d="M70.1499 3.28961L67.6604 21.5793C67.6363 21.7514 67.4671 21.8743 67.2979 21.8743H64.3009C64.0592 21.8743 63.9383 21.7268 63.9867 21.5547L66.4761 3.26503C66.5003 3.09295 66.6695 2.97003 66.8387 2.97003H69.8357C70.0532 2.94545 70.1982 3.09295 70.1499 3.28961ZM62.7782 3.28961L61.8597 10.1974C61.8114 10.3941 61.9564 10.517 62.1739 10.517H64.2042C64.4459 10.517 64.5667 10.6645 64.5184 10.8366L64.0592 14.0078C64.035 14.1799 63.8658 14.3028 63.6966 14.3028H61.5939C61.4247 14.2782 61.2555 14.4011 61.2313 14.5732L60.3129 21.5793C60.2887 21.7514 60.1195 21.8743 59.9503 21.8743H56.9533C56.7116 21.8743 56.5908 21.7268 56.6391 21.5547L59.1286 3.24044C59.1527 3.06836 59.3219 2.94545 59.4911 2.94545H62.4881C62.6815 2.94545 62.8265 3.09295 62.7782 3.28961ZM56.3491 3.28961L55.9382 6.46081C55.914 6.63289 55.7448 6.75581 55.5756 6.75581H49.8233C49.6058 6.75581 49.4607 6.60831 49.5091 6.43623L49.92 3.26503C49.9441 3.09295 50.1133 2.97003 50.2825 2.97003H56.0349C56.2524 2.94545 56.3974 3.09295 56.3491 3.28961ZM48.929 3.56002L48.0589 10.1974C48.0106 10.3941 48.1556 10.517 48.3731 10.517H50.6209C50.8867 10.517 50.9834 10.7137 50.7659 10.9349L47.1888 14.1307C47.0679 14.229 46.9229 14.2782 46.7779 14.2782H44.1676C43.9259 14.2782 43.8051 14.1307 43.8534 13.9586L44.8202 6.95247C44.8443 6.80497 44.9169 6.65747 45.0377 6.58373L48.5906 3.36336C48.8082 3.14211 48.9773 3.28961 48.929 3.56002ZM55.3339 10.8366L54.3672 17.8427C54.343 17.9902 54.2463 18.1377 54.1255 18.2115L50.5967 21.4318C50.355 21.6777 50.1858 21.5302 50.2342 21.2352L51.6602 10.7874C51.6843 10.6153 51.8535 10.4924 52.0227 10.4924H55.0197C55.2373 10.517 55.3823 10.6645 55.3339 10.8366ZM42.5482 3.28961L40.0588 21.5793C40.0346 21.7514 39.8654 21.8743 39.6962 21.8743H36.6992C36.4817 21.8743 36.3367 21.7268 36.385 21.5547L38.8745 3.24044C38.8986 3.06836 39.0678 2.94545 39.237 2.94545H42.234C42.4516 2.94545 42.5966 3.09295 42.5482 3.28961ZM49.6783 18.4081L49.2674 21.5793C49.2432 21.7514 49.074 21.8743 48.9048 21.8743H43.1525C42.9108 21.8743 42.7899 21.7268 42.8383 21.5547L43.2492 18.3835C43.2733 18.2115 43.4425 18.0885 43.6117 18.0885H49.3641C49.5816 18.0885 49.7266 18.236 49.6783 18.4081ZM35.1765 3.28961L33.1946 17.7444C33.1463 17.9411 33.2913 18.064 33.5088 18.064H35.7566C36.0224 18.064 36.1191 18.2606 35.9016 18.4819L32.3728 21.7022C32.252 21.8006 32.107 21.8497 31.962 21.8497H29.3516C29.1099 21.8497 28.9891 21.7022 29.0374 21.5302L31.5269 3.24044C31.5511 3.06836 31.7203 2.94545 31.8895 2.94545H34.8865C35.0798 2.94545 35.2249 3.09295 35.1765 3.28961ZM16.7593 3.28961L16.3484 6.46081C16.3242 6.63289 16.1551 6.75581 15.9859 6.75581H10.2335C9.99181 6.75581 9.87096 6.60831 9.9193 6.43623L10.3302 3.26503C10.3544 3.09295 10.5235 2.97003 10.6927 2.97003H16.4451C16.6868 2.94545 16.8318 3.09295 16.7593 3.28961ZM23.2126 3.28961L20.7473 21.5793C20.7231 21.7514 20.5539 21.8743 20.3847 21.8743H17.3877C17.146 21.8743 17.0252 21.7268 17.0735 21.5547L19.5388 3.24044C19.563 3.06836 19.7322 2.94545 19.9013 2.94545H22.8984C23.1159 2.94545 23.2609 3.09295 23.2126 3.28961ZM27.5873 18.4081L27.1764 21.5793C27.1522 21.7514 26.983 21.8989 26.8138 21.8743H21.9799C21.7382 21.8743 21.6174 21.7268 21.6657 21.5547L22.0766 18.3835C22.1008 18.2115 22.27 18.0885 22.4391 18.0885C22.4391 18.0885 22.4391 18.0885 22.4633 18.0885H27.2972C27.4906 18.0885 27.6356 18.236 27.5873 18.4081ZM9.3634 3.56002L8.49329 10.1974C8.44496 10.3941 8.58997 10.517 8.8075 10.517H11.0794C11.3453 10.517 11.442 10.7137 11.2245 10.9349L7.62319 14.1307C7.50234 14.229 7.35732 14.2782 7.21231 14.2782H4.57782C4.33613 14.2782 4.21528 14.1307 4.26362 13.9586L5.2304 6.95247C5.25457 6.80497 5.32708 6.65747 5.4721 6.58373L9.02503 3.36336C9.24255 3.14211 9.41174 3.28961 9.3634 3.56002ZM15.7683 10.8612L14.8016 17.8673C14.7774 18.0148 14.6807 18.1623 14.5599 18.236L11.0311 21.4318C10.7894 21.6777 10.6202 21.5302 10.6686 21.2352L12.0946 10.7874C12.1187 10.6153 12.2879 10.4924 12.4571 10.4924H15.4541C15.6717 10.517 15.8167 10.6645 15.7683 10.8612ZM10.1127 18.4081L9.70177 21.5793C9.6776 21.7514 9.50842 21.8743 9.33923 21.8743H3.5627C3.34517 21.8743 3.20016 21.7268 3.2485 21.5547L3.65938 18.3835C3.68355 18.2115 3.85274 18.064 4.02192 18.0885H9.77428C10.016 18.0885 10.161 18.236 10.1127 18.4081ZM72.6394 0.118408H0.759029C0.541503 0.118408 0.444824 0.21674 0.444824 0.46257V24.3818C0.444824 24.6276 0.541503 24.7014 0.759029 24.7014H72.6152C72.8569 24.7014 72.9294 24.603 72.9294 24.3818V0.46257C72.9536 0.21674 72.8569 0.118408 72.6394 0.118408Z" fill="black"/>
</svg>
