<svg width="60" height="60" viewBox="0 0 60 60" fill="none" xmlns="http://www.w3.org/2000/svg">
<g id="Group 22 Copy 10">
<rect id="Rectangle Copy 27" opacity="0.2" width="60" height="60" rx="16" fill="#7000FF"/>
<g id="users">
<path id="Vector" d="M23.75 35C28.2373 35 31.875 31.3623 31.875 26.875C31.875 22.3877 28.2373 18.75 23.75 18.75C19.2627 18.75 15.625 22.3877 15.625 26.875C15.625 31.3623 19.2627 35 23.75 35Z" stroke="#7000FF" stroke-width="3" stroke-miterlimit="10"/>
<path id="Vector_2" d="M34.2832 19.0526C35.4007 18.7377 36.5728 18.666 37.7204 18.8422C38.8679 19.0184 39.9644 19.4386 40.936 20.0743C41.9075 20.7099 42.7316 21.5465 43.3526 22.5274C43.9737 23.5084 44.3773 24.6111 44.5363 25.7612C44.6953 26.9113 44.606 28.0821 44.2744 29.1948C43.9427 30.3075 43.3766 31.3362 42.6139 32.2116C41.8513 33.0871 40.9099 33.7889 39.8531 34.2699C38.7964 34.7508 37.6489 34.9998 36.4878 34.9999" stroke="#7000FF" stroke-width="3" stroke-linecap="round" stroke-linejoin="round"/>
<path id="Vector_3" d="M12.498 40.8432C13.767 39.0382 15.4516 37.565 17.4097 36.548C19.3677 35.531 21.5418 35.0001 23.7482 35C25.9546 34.9999 28.1286 35.5307 30.0868 36.5476C32.0449 37.5644 33.7297 39.0375 34.9988 40.8424" stroke="#7000FF" stroke-width="3" stroke-linecap="round" stroke-linejoin="round"/>
<path id="Vector_4" d="M36.4883 35C38.6949 34.9984 40.8694 35.5285 42.8277 36.5455C44.786 37.5625 46.4704 39.0364 47.7383 40.8424" stroke="#7000FF" stroke-width="3" stroke-linecap="round" stroke-linejoin="round"/>
</g>
</g>
</svg>
