<svg width="60" height="60" viewBox="0 0 60 60" fill="none" xmlns="http://www.w3.org/2000/svg">
<rect opacity="0.2" width="60" height="60" rx="16" fill="#0066FF"/>
<path d="M35.2794 21C34.5194 21 33.7594 21.24 33.1594 21.64L28.5194 16.96C28.9194 16.36 29.1594 15.64 29.1594 14.84C29.1594 12.72 27.4394 10.96 25.2794 10.96C23.1194 10.96 21.3994 12.68 21.3994 14.84C21.3994 15.6 21.6394 16.36 22.0394 16.96L17.3594 21.6C16.7594 21.2 16.0394 20.96 15.2394 20.96C13.1194 20.96 11.3594 22.68 11.3594 24.84C11.3594 27 13.0794 28.72 15.2394 28.72C17.3994 28.72 19.1194 27 19.1194 24.84C19.1194 24.08 18.8794 23.32 18.4794 22.72L23.1194 18.08C23.7194 18.48 24.4394 18.72 25.2394 18.72C25.9994 18.72 26.7594 18.48 27.3594 18.08L31.9994 22.72C31.5994 23.32 31.3594 24.04 31.3594 24.84C31.3594 26.96 33.0794 28.72 35.2394 28.72C37.3594 28.72 39.1194 27 39.1194 24.84C39.1194 22.68 37.3994 21 35.2794 21Z" fill="#0066FF"/>
<path d="M45.2804 31C43.1604 31 41.4004 32.72 41.4004 34.88C41.4004 35.64 41.6404 36.4 42.0404 37L37.3604 41.6C36.7604 41.2 36.0404 40.96 35.2404 40.96C34.4804 40.96 33.7204 41.2 33.1204 41.6L28.5204 36.96C28.9204 36.36 29.1604 35.64 29.1604 34.84C29.1604 32.72 27.4404 30.96 25.2804 30.96C23.1204 30.96 21.4004 32.68 21.4004 34.84C21.4004 36.96 23.1204 38.72 25.2804 38.72C26.0404 38.72 26.8004 38.48 27.4004 38.08L32.0404 42.72C31.6404 43.32 31.4004 44.04 31.4004 44.84C31.4004 46.96 33.1204 48.72 35.2804 48.72C37.4004 48.72 39.1604 47 39.1604 44.84C39.1604 44.08 38.9204 43.32 38.5204 42.72L43.1604 38.08C43.7604 38.48 44.4804 38.72 45.2804 38.72C47.4004 38.72 49.1604 37 49.1604 34.84C49.1204 32.72 47.4004 31 45.2804 31Z" fill="#0066FF"/>
<path d="M25.2794 41C24.5194 41 23.7594 41.24 23.1594 41.64L18.5194 36.96C18.9194 36.36 19.1594 35.64 19.1594 34.84C19.1594 34.08 18.9194 33.32 18.5194 32.72L23.1594 28.08C23.7594 28.48 24.4794 28.72 25.2794 28.72C27.3994 28.72 29.1594 27 29.1594 24.84C29.1594 22.68 27.4394 20.96 25.2794 20.96C23.1194 20.96 21.3994 22.68 21.3994 24.84C21.3994 25.6 21.6394 26.36 22.0394 26.96L17.3594 31.6C16.7594 31.2 16.0394 30.96 15.2394 30.96C13.1194 30.96 11.3594 32.68 11.3594 34.84C11.3594 36.96 13.0794 38.72 15.2394 38.72C15.9994 38.72 16.7594 38.48 17.3594 38.08L21.9994 42.72C21.5994 43.32 21.3594 44.04 21.3594 44.84C21.3594 46.96 23.0794 48.72 25.2394 48.72C27.3994 48.72 29.1194 47 29.1194 44.84C29.1194 42.72 27.3994 41 25.2794 41Z" fill="#0066FF"/>
<path d="M45.2794 21C44.5194 21 43.7594 21.24 43.1594 21.64L38.5194 16.96C38.9194 16.36 39.1594 15.64 39.1594 14.84C39.1594 12.72 37.4394 10.96 35.2794 10.96C33.1594 10.96 31.3994 12.68 31.3994 14.84C31.3994 17 33.1194 18.72 35.2794 18.72C36.0394 18.72 36.7994 18.48 37.3994 18.08L42.0394 22.72C41.6394 23.32 41.3994 24.04 41.3994 24.84C41.3994 25.6 41.6394 26.36 42.0394 26.96L37.3594 31.6C36.7594 31.2 36.0394 30.96 35.2394 30.96C33.1194 30.96 31.3594 32.68 31.3594 34.84C31.3594 36.96 33.0794 38.72 35.2394 38.72C37.3594 38.72 39.1194 37 39.1194 34.84C39.1194 34.08 38.8794 33.32 38.4794 32.72L43.1194 28.08C43.7194 28.48 44.4394 28.72 45.2394 28.72C47.3594 28.72 49.1194 27 49.1194 24.84C49.1194 22.68 47.3994 21 45.2794 21Z" fill="#0066FF"/>
</svg>
