<svg width="60" height="60" viewBox="0 0 60 60" fill="none" xmlns="http://www.w3.org/2000/svg">
<g id="Group 22 Copy 9">
<rect id="Rectangle Copy 27" opacity="0.2" width="60" height="60" rx="16" fill="#FF008A"/>
<g id="thumbs-up">
<path id="Vector" d="M14.998 26.25H22.498V42.5H14.998C14.6665 42.5 14.3486 42.3683 14.1142 42.1339C13.8797 41.8995 13.748 41.5815 13.748 41.25V27.5C13.748 27.1685 13.8797 26.8505 14.1142 26.6161C14.3486 26.3817 14.6665 26.25 14.998 26.25V26.25Z" stroke="#FF008A" stroke-width="3" stroke-linecap="round" stroke-linejoin="round"/>
<path id="Vector_2" d="M22.498 26.25L28.748 13.75C29.4047 13.75 30.0548 13.8793 30.6615 14.1306C31.2681 14.3819 31.8193 14.7502 32.2836 15.2145C32.7479 15.6788 33.1162 16.23 33.3674 16.8366C33.6187 17.4432 33.748 18.0934 33.748 18.75V22.5H43.4161C43.7706 22.5 44.121 22.5754 44.4441 22.7212C44.7673 22.8669 45.0557 23.0797 45.2903 23.3455C45.5249 23.6112 45.7003 23.9238 45.8049 24.2626C45.9094 24.6013 45.9408 24.9583 45.8968 25.3101L44.0218 40.3101C43.9462 40.9147 43.6524 41.4709 43.1956 41.8742C42.7388 42.2775 42.1504 42.5 41.5411 42.5H22.498" stroke="#FF008A" stroke-width="3" stroke-linecap="round" stroke-linejoin="round"/>
</g>
</g>
</svg>
