<svg width="60" height="58" viewBox="0 0 60 58" fill="none" xmlns="http://www.w3.org/2000/svg">
<g id="Group 22 Copy 11">
<rect id="Rectangle Copy 27" opacity="0.195126" width="60" height="57.4718" rx="18" fill="#D1992C"/>
<path id="Union" fill-rule="evenodd" clip-rule="evenodd" d="M33.7082 15.8931H38.4314C39.7334 15.8931 40.982 16.3885 41.9026 17.2703C42.8233 18.1521 43.3405 19.3482 43.3405 20.5952V39.844C43.3405 41.0911 42.8233 42.2871 41.9026 43.1689C40.982 44.0507 39.7334 44.5461 38.4314 44.5461H21.909C20.6071 44.5461 19.3584 44.0507 18.4378 43.1689C17.5172 42.2871 17 41.0911 17 39.844V20.5952C17 19.3482 17.5172 18.1521 18.4378 17.2703C19.3584 16.3885 20.6071 15.8931 21.909 15.8931H26.6322C26.9818 15.2876 27.4943 14.7828 28.1165 14.4314C28.7387 14.0799 29.4479 13.8945 30.1702 13.8945C30.8926 13.8945 31.6017 14.0799 32.2239 14.4314C32.8461 14.7828 33.3587 15.2876 33.7082 15.8931ZM28.4708 18.2814C28.2213 18.4746 27.9103 18.58 27.5895 18.58H26.7514V19.7724H33.589V18.58H32.7545C32.4337 18.58 32.1226 18.4746 31.8731 18.2814C31.6237 18.0883 31.4508 17.8191 31.3835 17.5187C31.322 17.2548 31.1685 17.0189 30.9482 16.8499C30.728 16.6808 30.4542 16.5887 30.172 16.5887C29.8898 16.5887 29.6159 16.6808 29.3957 16.8499C29.1755 17.0189 29.022 17.2548 28.9605 17.5187C28.8931 17.8191 28.7203 18.0883 28.4708 18.2814ZM39.9191 41.2689C40.3136 40.891 40.5353 40.3784 40.5353 39.844V20.5952C40.5353 20.0608 40.3136 19.5482 39.9191 19.1703C39.5245 18.7923 38.9894 18.58 38.4314 18.58H36.3942V20.1082C36.3942 20.7318 36.1356 21.3298 35.6753 21.7707C35.215 22.2116 34.5906 22.4593 33.9397 22.4593H26.4008C25.7498 22.4593 25.1255 22.2116 24.6652 21.7707C24.2049 21.3298 23.9463 20.7318 23.9463 20.1082V18.58H21.909C21.351 18.58 20.8159 18.7923 20.4214 19.1703C20.0268 19.5482 19.8052 20.0608 19.8052 20.5952V39.844C19.8052 40.3784 20.0268 40.891 20.4214 41.2689C20.8159 41.6469 21.351 41.8592 21.909 41.8592H38.4314C38.9894 41.8592 39.5245 41.6469 39.9191 41.2689ZM28.9569 31.4598L33.4136 27.191C33.6768 26.9389 34.0338 26.7972 34.406 26.7972C34.7782 26.7972 35.1351 26.9389 35.3983 27.191C35.6615 27.443 35.8093 27.785 35.8093 28.1415C35.8093 28.498 35.6615 28.8399 35.3983 29.092L29.9528 34.3214C29.8225 34.4463 29.6678 34.5454 29.4976 34.613C29.3273 34.6807 29.1448 34.7155 28.9604 34.7155C28.7761 34.7155 28.5936 34.6807 28.4233 34.613C28.2531 34.5454 28.0984 34.4463 27.9681 34.3214L24.9421 31.4229C24.6775 31.1712 24.5281 30.8292 24.5268 30.4721C24.5255 30.115 24.6723 29.7719 24.935 29.5185C25.1978 29.2651 25.5548 29.122 25.9277 29.1208C26.3005 29.1195 26.6586 29.2602 26.9232 29.5118L28.9569 31.4598Z" fill="#D1992C"/>
</g>
</svg>
