<svg width="60" height="60" viewBox="0 0 60 60" fill="none" xmlns="http://www.w3.org/2000/svg">
<rect opacity="0.2" width="60" height="60" rx="18" fill="#0066FF"/>
<path fill-rule="evenodd" clip-rule="evenodd" d="M13 42.3555C13 42.7653 13.1628 43.1584 13.4526 43.4482C13.7424 43.738 14.1355 43.9008 14.5454 43.9008H16.0907C21.4189 43.9008 26.5288 41.7843 30.2964 38.0167C34.0639 34.2491 36.1805 29.1392 36.1805 23.8111V18.2709L38.1818 20.2645C38.4774 20.5176 38.8577 20.6499 39.2466 20.6349C39.6355 20.6199 40.0045 20.4586 40.2797 20.1834C40.5549 19.9082 40.7162 19.5393 40.7312 19.1503C40.7462 18.7614 40.6139 18.3811 40.3607 18.0855L35.7246 13.4494C35.4351 13.1616 35.0434 13 34.6351 13C34.2269 13 33.8352 13.1616 33.5457 13.4494L28.9096 18.0855C28.6564 18.3811 28.5241 18.7614 28.5391 19.1503C28.5541 19.5393 28.7154 19.9082 28.9906 20.1834C29.2658 20.4586 29.6348 20.6199 30.0237 20.6349C30.4126 20.6499 30.7929 20.5176 31.0885 20.2645L33.0898 18.2709V23.8111C33.0898 28.3195 31.2988 32.6433 28.1109 35.8312C24.9229 39.0191 20.5992 40.8101 16.0907 40.8101H14.5454C14.1355 40.8101 13.7424 40.9729 13.4526 41.2627C13.1628 41.5526 13 41.9456 13 42.3555ZM15.0017 32.6274C15.2913 32.9152 15.683 33.0768 16.0912 33.0768C16.4995 33.0768 16.8912 32.9152 17.1807 32.6274L19.9546 29.8612L22.7286 32.6274C23.0242 32.8806 23.4045 33.0129 23.7934 32.9979C24.1824 32.9828 24.5513 32.8216 24.8265 32.5464C25.1017 32.2712 25.263 31.9022 25.278 31.5133C25.293 31.1244 25.1607 30.7441 24.9075 30.4485L22.1413 27.6745L24.9075 24.9006C25.1607 24.605 25.293 24.2247 25.278 23.8357C25.263 23.4468 25.1017 23.0779 24.8265 22.8026C24.5513 22.5274 24.1824 22.3662 23.7934 22.3512C23.4045 22.3362 23.0242 22.4684 22.7286 22.7216L19.9546 25.4878L17.1807 22.7216C16.8851 22.4684 16.5048 22.3362 16.1159 22.3512C15.7269 22.3662 15.358 22.5274 15.0828 22.8026C14.8076 23.0779 14.6463 23.4468 14.6313 23.8357C14.6163 24.2247 14.7486 24.605 15.0017 24.9006L17.7679 27.6745L15.0017 30.4485C14.7139 30.738 14.5524 31.1297 14.5524 31.5379C14.5524 31.9462 14.7139 32.3379 15.0017 32.6274ZM45.9573 37.3759C46.6365 38.3924 46.999 39.5875 46.999 40.8101C46.999 42.4495 46.3478 44.0218 45.1885 45.1811C44.0293 46.3403 42.457 46.9916 40.8176 46.9916C39.595 46.9916 38.3999 46.629 37.3833 45.9498C36.3668 45.2706 35.5745 44.3052 35.1066 43.1757C34.6388 42.0461 34.5164 40.8033 34.7549 39.6042C34.9934 38.4051 35.5821 37.3036 36.4466 36.4392C37.3111 35.5747 38.4125 34.9859 39.6116 34.7474C40.8107 34.5089 42.0536 34.6313 43.1831 35.0992C44.3126 35.567 45.2781 36.3593 45.9573 37.3759ZM39.1005 43.38C39.6087 43.7196 40.2063 43.9008 40.8176 43.9008C41.6373 43.9008 42.4234 43.5752 43.0031 42.9956C43.5827 42.416 43.9083 41.6298 43.9083 40.8101C43.9083 40.1988 43.727 39.6013 43.3874 39.093C43.0478 38.5847 42.5651 38.1886 42.0003 37.9546C41.4356 37.7207 40.8141 37.6595 40.2146 37.7788C39.6151 37.898 39.0643 38.1924 38.6321 38.6246C38.1999 39.0569 37.9055 39.6076 37.7862 40.2071C37.667 40.8067 37.7282 41.4281 37.9621 41.9929C38.196 42.5576 38.5922 43.0404 39.1005 43.38Z" fill="#0066FF"/>
</svg>
