<svg width="60" height="60" viewBox="0 0 60 60" fill="none" xmlns="http://www.w3.org/2000/svg">
<rect opacity="0.2" width="60" height="60" rx="18" fill="#005D63"/>
<path fill-rule="evenodd" clip-rule="evenodd" d="M44.1255 16.8727C43.532 16.279 42.8275 15.808 42.052 15.4867C41.2765 15.1654 40.4453 15 39.6059 15C38.7665 15 37.9353 15.1654 37.1598 15.4867C36.3843 15.808 35.6797 16.279 35.0863 16.8727L18.7129 33.2461C17.5317 34.4212 16.5953 35.8189 15.9579 37.3584C15.3206 38.8979 14.995 40.5486 15.0001 42.2148V44.589C15.0001 44.9628 15.1485 45.3212 15.4128 45.5854C15.677 45.8497 16.0354 45.9981 16.4091 45.9981H18.7834C20.4496 46.0031 22.1002 45.6775 23.6397 45.0402C25.1792 44.4029 26.577 43.4665 27.7521 42.2852L44.1255 25.9119C44.7192 25.3185 45.1901 24.6139 45.5115 23.8384C45.8328 23.0629 45.9982 22.2317 45.9982 21.3923C45.9982 20.5529 45.8328 19.7217 45.5115 18.9462C45.1901 18.1707 44.7192 17.4661 44.1255 16.8727ZM25.7583 40.2914C24.8442 41.2098 23.7571 41.9379 22.5599 42.4337C21.3627 42.9295 20.0792 43.1832 18.7834 43.18H17.8182V42.2148C17.815 40.919 18.0686 39.6354 18.5645 38.4382C19.0603 37.2411 19.7884 36.154 20.7068 35.2399L33.3179 22.6287L38.3694 27.6802L25.7583 40.2914ZM42.1316 23.918L40.3633 25.6864L35.3118 20.6349L37.0801 18.8665C37.7596 18.215 38.6645 17.8513 39.6059 17.8513C40.5472 17.8513 41.4522 18.215 42.1316 18.8665C42.4642 19.1978 42.728 19.5914 42.908 20.0248C43.0881 20.4582 43.1807 20.923 43.1807 21.3923C43.1807 21.8616 43.0881 22.3263 42.908 22.7598C42.728 23.1932 42.4642 23.5868 42.1316 23.918ZM23.4535 16.4077C21.585 16.4077 19.793 17.15 18.4717 18.4712C17.1505 19.7925 16.4082 21.5845 16.4082 23.453V27.6802C16.4082 28.054 16.5567 28.4124 16.8209 28.6766C17.0852 28.9409 17.4436 29.0893 17.8173 29.0893C18.191 29.0893 18.5494 28.9409 18.8136 28.6766C19.0779 28.4124 19.2263 28.054 19.2263 27.6802V23.453C19.2263 22.3319 19.6717 21.2567 20.4645 20.464C21.2572 19.6712 22.3324 19.2258 23.4535 19.2258H27.6807C28.0544 19.2258 28.4128 19.0774 28.6771 18.8131C28.9413 18.5489 29.0898 18.1905 29.0898 17.8168C29.0898 17.4431 28.9413 17.0847 28.6771 16.8204C28.4128 16.5562 28.0544 16.4077 27.6807 16.4077H23.4535ZM41.7717 37.5435V33.3163C41.7717 32.9426 41.9201 32.5842 42.1844 32.3199C42.4486 32.0557 42.807 31.9072 43.1807 31.9072C43.5544 31.9072 43.9128 32.0557 44.1771 32.3199C44.4413 32.5842 44.5898 32.9426 44.5898 33.3163V37.5435C44.5898 39.412 43.8475 41.204 42.5263 42.5253C41.205 43.8465 39.413 44.5888 37.5445 44.5888H33.3173C32.9436 44.5888 32.5852 44.4404 32.3209 44.1761C32.0567 43.9119 31.9082 43.5535 31.9082 43.1798C31.9082 42.806 32.0567 42.4476 32.3209 42.1834C32.5852 41.9191 32.9436 41.7707 33.3173 41.7707H37.5445C38.6656 41.7707 39.7408 41.3253 40.5335 40.5326C41.3263 39.7398 41.7717 38.6646 41.7717 37.5435Z" fill="#005D63"/>
</svg>
