<svg width="60" height="60" viewBox="0 0 60 60" fill="none" xmlns="http://www.w3.org/2000/svg">
<rect width="60" height="60" rx="16" fill="#F7F8FA"/>
<g clip-path="url(#clip0)">
<mask id="mask0" mask-type="alpha" maskUnits="userSpaceOnUse" x="12" y="12" width="37" height="36">
<path fill-rule="evenodd" clip-rule="evenodd" d="M37.7977 47.7541C38.3647 47.9751 39.0113 47.9608 39.5837 47.6855L46.9955 44.1191C47.7743 43.7443 48.2695 42.956 48.2695 42.0913V17.9087C48.2695 17.044 47.7743 16.2558 46.9955 15.881L39.5837 12.3145C38.8326 11.9531 37.9536 12.0416 37.2945 12.5208C37.2002 12.5893 37.1105 12.6657 37.0264 12.75L22.8374 25.6949L16.6569 21.0034C16.0816 20.5667 15.2768 20.6025 14.7425 21.0885L12.7602 22.8917C12.1066 23.4863 12.1059 24.5145 12.7586 25.11L18.1185 29.9999L12.7586 34.8899C12.1059 35.4854 12.1066 36.5137 12.7602 37.1083L14.7425 38.9113C15.2768 39.3975 16.0816 39.4332 16.6569 38.9966L22.8374 34.305L37.0264 47.25C37.2509 47.4746 37.5144 47.6437 37.7977 47.7541ZM39.275 21.8276L28.5088 29.9999L39.275 38.1724V21.8276Z" fill="white"/>
</mask>
<g mask="url(#mask0)">
<path d="M46.996 15.8868L39.5784 12.3153C38.7199 11.9019 37.6938 12.0763 37.0199 12.7501L12.7374 34.8901C12.0843 35.4856 12.085 36.5139 12.739 37.1084L14.7225 38.9115C15.2572 39.3977 16.0624 39.4334 16.6381 38.9968L45.8798 16.8133C46.8608 16.0691 48.2699 16.7688 48.2699 18.0001V17.914C48.2699 17.0497 47.7747 16.2617 46.996 15.8868Z" fill="#0065A9"/>
<g filter="url(#filter0_d)">
<path d="M46.996 44.1134L39.5784 47.6849C38.7199 48.0982 37.6938 47.9238 37.0199 47.2501L12.7374 25.1101C12.0843 24.5146 12.085 23.4863 12.739 22.8917L14.7225 21.0886C15.2572 20.6025 16.0624 20.5667 16.6381 21.0035L45.8798 43.1868C46.8608 43.931 48.2699 43.2314 48.2699 42V42.0862C48.2699 42.9505 47.7747 43.7384 46.996 44.1134Z" fill="#007ACC"/>
</g>
<g filter="url(#filter1_d)">
<path d="M39.5783 47.6854C38.7195 48.0984 37.6934 47.9239 37.0195 47.25C37.8498 48.0803 39.2695 47.4922 39.2695 46.318V13.6819C39.2695 12.5077 37.8498 11.9197 37.0195 12.75C37.6934 12.0761 38.7195 11.9015 39.5783 12.3145L46.9946 15.881C47.774 16.2558 48.2695 17.044 48.2695 17.9087V42.0913C48.2695 42.956 47.774 43.7443 46.9946 44.119L39.5783 47.6854Z" fill="#1F9CF0"/>
</g>
<g style="mix-blend-mode:overlay" opacity="0.25">
<path style="mix-blend-mode:overlay" opacity="0.25" fill-rule="evenodd" clip-rule="evenodd" d="M37.7763 47.7544C38.3433 47.9752 38.9899 47.9611 39.5621 47.6858L46.9739 44.1192C47.7528 43.7445 48.2481 42.9563 48.2481 42.0916V17.909C48.2481 17.0442 47.7528 16.256 46.974 15.8813L39.5621 12.3147C38.8112 11.9533 37.9321 12.0419 37.2729 12.5211C37.1788 12.5895 37.0891 12.666 37.0048 12.7502L22.8159 25.6951L16.6354 21.0037C16.0601 20.5669 15.2553 20.6027 14.721 21.0888L12.7387 22.8919C12.0851 23.4865 12.0844 24.5148 12.7371 25.1103L18.097 30.0002L12.7371 34.8902C12.0844 35.4857 12.0851 36.514 12.7387 37.1085L14.721 38.9116C15.2553 39.3978 16.0601 39.4335 16.6354 38.9968L22.8159 34.3053L37.0048 47.2503C37.2293 47.4748 37.4929 47.644 37.7763 47.7544ZM39.2536 21.8278L28.4873 30.0002L39.2536 38.1726V21.8278Z" fill="url(#paint0_linear)"/>
</g>
</g>
</g>
<defs>
<filter id="filter0_d" x="-9.08535" y="-0.634914" width="78.6886" height="69.8752" filterUnits="userSpaceOnUse" color-interpolation-filters="sRGB">
<feFlood flood-opacity="0" result="BackgroundImageFix"/>
<feColorMatrix in="SourceAlpha" type="matrix" values="0 0 0 0 0 0 0 0 0 0 0 0 0 0 0 0 0 0 127 0"/>
<feOffset/>
<feGaussianBlur stdDeviation="10.6667"/>
<feColorMatrix type="matrix" values="0 0 0 0 0 0 0 0 0 0 0 0 0 0 0 0 0 0 0.25 0"/>
<feBlend mode="overlay" in2="BackgroundImageFix" result="effect1_dropShadow"/>
<feBlend mode="normal" in="SourceGraphic" in2="effect1_dropShadow" result="shape"/>
</filter>
<filter id="filter1_d" x="15.6861" y="-9.24063" width="53.9168" height="78.4812" filterUnits="userSpaceOnUse" color-interpolation-filters="sRGB">
<feFlood flood-opacity="0" result="BackgroundImageFix"/>
<feColorMatrix in="SourceAlpha" type="matrix" values="0 0 0 0 0 0 0 0 0 0 0 0 0 0 0 0 0 0 127 0"/>
<feOffset/>
<feGaussianBlur stdDeviation="10.6667"/>
<feColorMatrix type="matrix" values="0 0 0 0 0 0 0 0 0 0 0 0 0 0 0 0 0 0 0.25 0"/>
<feBlend mode="overlay" in2="BackgroundImageFix" result="effect1_dropShadow"/>
<feBlend mode="normal" in="SourceGraphic" in2="effect1_dropShadow" result="shape"/>
</filter>
<linearGradient id="paint0_linear" x1="30.2481" y1="12.093" x2="30.2481" y2="47.9074" gradientUnits="userSpaceOnUse">
<stop stop-color="white"/>
<stop offset="1" stop-color="white" stop-opacity="0"/>
</linearGradient>
<clipPath id="clip0">
<rect width="36" height="36" fill="white" transform="translate(12.2695 12)"/>
</clipPath>
</defs>
</svg>
