<svg width="60" height="60" viewBox="0 0 60 60" fill="none" xmlns="http://www.w3.org/2000/svg">
<g id="Group 22 Copy 4">
<rect id="Rectangle Copy 27" opacity="0.195126" width="60" height="59.8526" rx="18" fill="#6CB866"/>
<path id="Shape" fill-rule="evenodd" clip-rule="evenodd" d="M29.4353 13.4212C29.9264 12.6468 30.8741 12.293 31.7542 12.5556C32.6261 12.8199 33.2196 13.6251 33.2126 14.5342V25.5616H41.9629C42.4957 25.5625 42.9857 25.8532 43.2408 26.3198C43.4959 26.7864 43.4757 27.3547 43.188 27.802L31.1562 46.4309C30.7827 47.0237 30.13 47.3836 29.428 47.3838C29.228 47.3828 29.0291 47.3534 28.8374 47.2965C27.9655 47.0322 27.3719 46.2269 27.379 45.3179V34.2905H18.6286C18.0934 34.2913 17.6007 33.9996 17.3451 33.5306C17.0894 33.0615 17.1119 32.4904 17.4036 32.0428L29.4353 13.4212ZM30.2952 42.4302L39.2935 28.4713H31.7536C30.9481 28.4713 30.2952 27.8199 30.2952 27.0165V17.422L21.2969 31.3809H28.8368C29.6422 31.3809 30.2952 32.0322 30.2952 32.8357V42.4302Z" fill="#66BB6C"/>
</g>
</svg>
