<svg width="8" height="18" viewBox="0 0 8 18" fill="none" xmlns="http://www.w3.org/2000/svg">
<path d="M4.5 0.9375C4.5 0.661358 4.27614 0.4375 4 0.4375C3.72386 0.4375 3.5 0.661358 3.5 0.9375H4.5ZM3.64645 17.2911C3.84171 17.4863 4.15829 17.4863 4.35355 17.2911L7.53553 14.1091C7.7308 13.9138 7.7308 13.5972 7.53553 13.402C7.34027 13.2067 7.02369 13.2067 6.82843 13.402L4 16.2304L1.17157 13.402C0.976311 13.2067 0.659728 13.2067 0.464466 13.402C0.269204 13.5972 0.269204 13.9138 0.464466 14.1091L3.64645 17.2911ZM3.5 2.9375C3.5 3.21364 3.72386 3.4375 4 3.4375C4.27614 3.4375 4.5 3.21364 4.5 2.9375H3.5ZM4.5 6.9375C4.5 6.66136 4.27614 6.4375 4 6.4375C3.72386 6.4375 3.5 6.66136 3.5 6.9375H4.5ZM3.5 10.9375C3.5 11.2136 3.72386 11.4375 4 11.4375C4.27614 11.4375 4.5 11.2136 4.5 10.9375H3.5ZM4.5 14.9375C4.5 14.6614 4.27614 14.4375 4 14.4375C3.72386 14.4375 3.5 14.6614 3.5 14.9375H4.5ZM3.5 0.9375V2.9375H4.5V0.9375H3.5ZM3.5 6.9375V10.9375H4.5V6.9375H3.5ZM3.5 14.9375V16.9375H4.5V14.9375H3.5Z" fill="#8E94A0"/>
</svg>
