<svg width="271" height="8" viewBox="0 0 271 8" fill="none" xmlns="http://www.w3.org/2000/svg">
<path d="M0.666016 3.5C0.389873 3.5 0.166016 3.72386 0.166016 4C0.166016 4.27614 0.389873 4.5 0.666016 4.5V3.5ZM270.353 4.35355C270.548 4.15829 270.548 3.84171 270.353 3.64645L267.171 0.464466C266.976 0.269204 266.659 0.269204 266.464 0.464466C266.269 0.659728 266.269 0.976311 266.464 1.17157L269.292 4L266.464 6.82843C266.269 7.02369 266.269 7.34027 266.464 7.53553C266.659 7.7308 266.976 7.7308 267.171 7.53553L270.353 4.35355ZM3.15984 4.5C3.43599 4.5 3.65984 4.27614 3.65984 4C3.65984 3.72386 3.43599 3.5 3.15984 3.5V4.5ZM8.1475 3.5C7.87136 3.5 7.6475 3.72386 7.6475 4C7.6475 4.27614 7.87136 4.5 8.1475 4.5V3.5ZM13.1352 4.5C13.4113 4.5 13.6352 4.27614 13.6352 4C13.6352 3.72386 13.4113 3.5 13.1352 3.5V4.5ZM18.1228 3.5C17.8467 3.5 17.6228 3.72386 17.6228 4C17.6228 4.27614 17.8467 4.5 18.1228 4.5V3.5ZM23.1105 4.5C23.3866 4.5 23.6105 4.27614 23.6105 4C23.6105 3.72386 23.3866 3.5 23.1105 3.5V4.5ZM28.0981 3.5C27.822 3.5 27.5981 3.72386 27.5981 4C27.5981 4.27614 27.822 4.5 28.0981 4.5V3.5ZM33.0858 4.5C33.3619 4.5 33.5858 4.27614 33.5858 4C33.5858 3.72386 33.3619 3.5 33.0858 3.5V4.5ZM38.0734 3.5C37.7973 3.5 37.5734 3.72386 37.5734 4C37.5734 4.27614 37.7973 4.5 38.0734 4.5V3.5ZM43.0611 4.5C43.3372 4.5 43.5611 4.27614 43.5611 4C43.5611 3.72386 43.3372 3.5 43.0611 3.5V4.5ZM48.0487 3.5C47.7726 3.5 47.5487 3.72386 47.5487 4C47.5487 4.27614 47.7726 4.5 48.0487 4.5V3.5ZM53.0364 4.5C53.3125 4.5 53.5364 4.27614 53.5364 4C53.5364 3.72386 53.3125 3.5 53.0364 3.5V4.5ZM58.0241 3.5C57.7479 3.5 57.5241 3.72386 57.5241 4C57.5241 4.27614 57.7479 4.5 58.0241 4.5V3.5ZM63.0117 4.5C63.2878 4.5 63.5117 4.27614 63.5117 4C63.5117 3.72386 63.2878 3.5 63.0117 3.5V4.5ZM67.9994 3.5C67.7232 3.5 67.4994 3.72386 67.4994 4C67.4994 4.27614 67.7232 4.5 67.9994 4.5V3.5ZM72.987 4.5C73.2632 4.5 73.487 4.27614 73.487 4C73.487 3.72386 73.2632 3.5 72.987 3.5V4.5ZM77.9747 3.5C77.6985 3.5 77.4747 3.72386 77.4747 4C77.4747 4.27614 77.6985 4.5 77.9747 4.5V3.5ZM82.9623 4.5C83.2385 4.5 83.4623 4.27614 83.4623 4C83.4623 3.72386 83.2385 3.5 82.9623 3.5V4.5ZM87.95 3.5C87.6738 3.5 87.45 3.72386 87.45 4C87.45 4.27614 87.6738 4.5 87.95 4.5V3.5ZM92.9376 4.5C93.2138 4.5 93.4376 4.27614 93.4376 4C93.4376 3.72386 93.2138 3.5 92.9376 3.5V4.5ZM97.9253 3.5C97.6491 3.5 97.4253 3.72386 97.4253 4C97.4253 4.27614 97.6491 4.5 97.9253 4.5V3.5ZM102.913 4.5C103.189 4.5 103.413 4.27614 103.413 4C103.413 3.72386 103.189 3.5 102.913 3.5V4.5ZM107.901 3.5C107.624 3.5 107.401 3.72386 107.401 4C107.401 4.27614 107.624 4.5 107.901 4.5V3.5ZM112.888 4.5C113.164 4.5 113.388 4.27614 113.388 4C113.388 3.72386 113.164 3.5 112.888 3.5V4.5ZM117.876 3.5C117.6 3.5 117.376 3.72386 117.376 4C117.376 4.27614 117.6 4.5 117.876 4.5V3.5ZM122.864 4.5C123.14 4.5 123.364 4.27614 123.364 4C123.364 3.72386 123.14 3.5 122.864 3.5V4.5ZM127.851 3.5C127.575 3.5 127.351 3.72386 127.351 4C127.351 4.27614 127.575 4.5 127.851 4.5V3.5ZM132.839 4.5C133.115 4.5 133.339 4.27614 133.339 4C133.339 3.72386 133.115 3.5 132.839 3.5V4.5ZM137.827 3.5C137.55 3.5 137.327 3.72386 137.327 4C137.327 4.27614 137.55 4.5 137.827 4.5V3.5ZM142.814 4.5C143.09 4.5 143.314 4.27614 143.314 4C143.314 3.72386 143.09 3.5 142.814 3.5V4.5ZM147.802 3.5C147.526 3.5 147.302 3.72386 147.302 4C147.302 4.27614 147.526 4.5 147.802 4.5V3.5ZM152.79 4.5C153.066 4.5 153.29 4.27614 153.29 4C153.29 3.72386 153.066 3.5 152.79 3.5V4.5ZM157.777 3.5C157.501 3.5 157.277 3.72386 157.277 4C157.277 4.27614 157.501 4.5 157.777 4.5V3.5ZM162.765 4.5C163.041 4.5 163.265 4.27614 163.265 4C163.265 3.72386 163.041 3.5 162.765 3.5V4.5ZM167.752 3.5C167.476 3.5 167.252 3.72386 167.252 4C167.252 4.27614 167.476 4.5 167.752 4.5V3.5ZM172.74 4.5C173.016 4.5 173.24 4.27614 173.24 4C173.24 3.72386 173.016 3.5 172.74 3.5V4.5ZM177.728 3.5C177.452 3.5 177.228 3.72386 177.228 4C177.228 4.27614 177.452 4.5 177.728 4.5V3.5ZM182.715 4.5C182.992 4.5 183.215 4.27614 183.215 4C183.215 3.72386 182.992 3.5 182.715 3.5V4.5ZM187.703 3.5C187.427 3.5 187.203 3.72386 187.203 4C187.203 4.27614 187.427 4.5 187.703 4.5V3.5ZM192.691 4.5C192.967 4.5 193.191 4.27614 193.191 4C193.191 3.72386 192.967 3.5 192.691 3.5V4.5ZM197.678 3.5C197.402 3.5 197.178 3.72386 197.178 4C197.178 4.27614 197.402 4.5 197.678 4.5V3.5ZM202.666 4.5C202.942 4.5 203.166 4.27614 203.166 4C203.166 3.72386 202.942 3.5 202.666 3.5V4.5ZM207.654 3.5C207.378 3.5 207.154 3.72386 207.154 4C207.154 4.27614 207.378 4.5 207.654 4.5V3.5ZM212.641 4.5C212.918 4.5 213.141 4.27614 213.141 4C213.141 3.72386 212.918 3.5 212.641 3.5V4.5ZM217.629 3.5C217.353 3.5 217.129 3.72386 217.129 4C217.129 4.27614 217.353 4.5 217.629 4.5V3.5ZM222.617 4.5C222.893 4.5 223.117 4.27614 223.117 4C223.117 3.72386 222.893 3.5 222.617 3.5V4.5ZM227.604 3.5C227.328 3.5 227.104 3.72386 227.104 4C227.104 4.27614 227.328 4.5 227.604 4.5V3.5ZM232.592 4.5C232.868 4.5 233.092 4.27614 233.092 4C233.092 3.72386 232.868 3.5 232.592 3.5V4.5ZM237.58 3.5C237.304 3.5 237.08 3.72386 237.08 4C237.08 4.27614 237.304 4.5 237.58 4.5V3.5ZM242.567 4.5C242.843 4.5 243.067 4.27614 243.067 4C243.067 3.72386 242.843 3.5 242.567 3.5V4.5ZM247.555 3.5C247.279 3.5 247.055 3.72386 247.055 4C247.055 4.27614 247.279 4.5 247.555 4.5V3.5ZM252.543 4.5C252.819 4.5 253.043 4.27614 253.043 4C253.043 3.72386 252.819 3.5 252.543 3.5V4.5ZM257.53 3.5C257.254 3.5 257.03 3.72386 257.03 4C257.03 4.27614 257.254 4.5 257.53 4.5V3.5ZM262.518 4.5C262.794 4.5 263.018 4.27614 263.018 4C263.018 3.72386 262.794 3.5 262.518 3.5V4.5ZM267.506 3.5C267.229 3.5 267.006 3.72386 267.006 4C267.006 4.27614 267.229 4.5 267.506 4.5V3.5ZM0.666016 4.5H3.15984V3.5H0.666016V4.5ZM8.1475 4.5H13.1352V3.5H8.1475V4.5ZM18.1228 4.5H23.1105V3.5H18.1228V4.5ZM28.0981 4.5H33.0858V3.5H28.0981V4.5ZM38.0734 4.5H43.0611V3.5H38.0734V4.5ZM48.0487 4.5H53.0364V3.5H48.0487V4.5ZM58.0241 4.5H63.0117V3.5H58.0241V4.5ZM67.9994 4.5H72.987V3.5H67.9994V4.5ZM77.9747 4.5H82.9623V3.5H77.9747V4.5ZM87.95 4.5H92.9376V3.5H87.95V4.5ZM97.9253 4.5H102.913V3.5H97.9253V4.5ZM107.901 4.5H112.888V3.5H107.901V4.5ZM117.876 4.5H122.864V3.5H117.876V4.5ZM127.851 4.5H132.839V3.5H127.851V4.5ZM137.827 4.5H142.814V3.5H137.827V4.5ZM147.802 4.5H152.79V3.5H147.802V4.5ZM157.777 4.5H162.765V3.5H157.777V4.5ZM167.752 4.5H172.74V3.5H167.752V4.5ZM177.728 4.5H182.715V3.5H177.728V4.5ZM187.703 4.5H192.691V3.5H187.703V4.5ZM197.678 4.5H202.666V3.5H197.678V4.5ZM207.654 4.5H212.641V3.5H207.654V4.5ZM217.629 4.5H222.617V3.5H217.629V4.5ZM227.604 4.5H232.592V3.5H227.604V4.5ZM237.58 4.5H242.567V3.5H237.58V4.5ZM247.555 4.5H252.543V3.5H247.555V4.5ZM257.53 4.5H262.518V3.5H257.53V4.5ZM267.506 4.5H269.999V3.5H267.506V4.5Z" fill="#8E94A0"/>
</svg>
