<svg width="60" height="60" viewBox="0 0 60 60" fill="none" xmlns="http://www.w3.org/2000/svg">
<rect width="60" height="60" rx="18" fill="#00FFD1"/>
<path d="M30 37.5C36.9036 37.5 42.5 31.9036 42.5 25C42.5 18.0964 36.9036 12.5 30 12.5C23.0964 12.5 17.5 18.0964 17.5 25C17.5 31.9036 23.0964 37.5 30 37.5Z" stroke="#005D63" stroke-width="3" stroke-linecap="round" stroke-linejoin="round"/>
<path d="M30 32.5C34.1421 32.5 37.5 29.1421 37.5 25C37.5 20.8579 34.1421 17.5 30 17.5C25.8579 17.5 22.5 20.8579 22.5 25C22.5 29.1421 25.8579 32.5 30 32.5Z" stroke="#005D63" stroke-width="3" stroke-linecap="round" stroke-linejoin="round"/>
<path d="M37.5 35V47.5L30 43.75L22.5 47.5V35" stroke="#005D63" stroke-width="3" stroke-linecap="round" stroke-linejoin="round"/>
</svg>
