<svg width="61" height="60" viewBox="0 0 61 60" fill="none" xmlns="http://www.w3.org/2000/svg">
<rect x="0.333984" width="60" height="60" rx="18" fill="#00FFD1"/>
<path d="M20.3318 43.7502C20.0002 43.7502 19.6823 43.6185 19.4479 43.3841C19.2135 43.1497 19.0818 42.8317 19.0818 42.5002V35.8283C18.396 36.1555 17.636 36.2956 16.8786 36.2346C16.2374 36.1875 15.6144 35.9996 15.054 35.6843C14.4936 35.369 14.0096 34.9341 13.6364 34.4105C13.2633 33.8869 13.0101 33.2874 12.8949 32.6548C12.7798 32.0222 12.8055 31.372 12.9702 30.7505C13.135 30.129 13.4347 29.5514 13.848 29.0589C14.2614 28.5664 14.7782 28.171 15.3617 27.9009C15.9452 27.6309 16.5811 27.4928 17.2241 27.4964C17.8671 27.5001 18.5013 27.6454 19.0818 27.9221V21.2502C19.0818 20.9187 19.2135 20.6008 19.4479 20.3663C19.6823 20.1319 20.0002 20.0002 20.3318 20.0002H27.6286C27.3015 19.3145 27.1614 18.5544 27.2224 17.7971C27.2695 17.1558 27.4574 16.5328 27.7727 15.9725C28.0879 15.4121 28.5229 14.9281 29.0465 14.5549C29.5701 14.1817 30.1695 13.9285 30.8021 13.8134C31.4347 13.6983 32.0849 13.724 32.7065 13.8887C33.328 14.0534 33.9056 14.3531 34.3981 14.7665C34.8906 15.1798 35.286 15.6966 35.556 16.2802C35.8261 16.8637 35.9642 17.4996 35.9606 18.1426C35.9569 18.7855 35.8116 19.4198 35.5349 20.0002H42.8318C43.1633 20.0002 43.4812 20.1319 43.7156 20.3663C43.9501 20.6008 44.0818 20.9187 44.0818 21.2502V27.9221C43.396 27.595 42.636 27.4548 41.8786 27.5158C41.2374 27.563 40.6144 27.7508 40.054 28.0661C39.4936 28.3814 39.0096 28.8163 38.6364 29.3399C38.2633 29.8636 38.0101 30.463 37.8949 31.0956C37.7798 31.7282 37.8055 32.3784 37.9702 32.9999C38.135 33.6214 38.4347 34.199 38.848 34.6916C39.2614 35.1841 39.7782 35.5794 40.3617 35.8495C40.9452 36.1195 41.5811 36.2577 42.2241 36.254C42.8671 36.2504 43.5013 36.105 44.0818 35.8283V42.5002C44.0818 42.8317 43.9501 43.1497 43.7156 43.3841C43.4812 43.6185 43.1633 43.7502 42.8318 43.7502H20.3318Z" stroke="#005D63" stroke-width="3" stroke-linecap="round" stroke-linejoin="round"/>
</svg>
