<svg width="61" height="60" viewBox="0 0 61 60" fill="none" xmlns="http://www.w3.org/2000/svg">
<rect x="0.666016" width="60" height="60" rx="18" fill="#00FFD1"/>
<path d="M24.416 35C28.9033 35 32.541 31.3623 32.541 26.875C32.541 22.3877 28.9033 18.75 24.416 18.75C19.9287 18.75 16.291 22.3877 16.291 26.875C16.291 31.3623 19.9287 35 24.416 35Z" stroke="#005D63" stroke-width="3" stroke-miterlimit="10"/>
<path d="M34.9492 19.0469C35.6675 18.8521 36.4082 18.7523 37.1523 18.75C39.3072 18.75 41.3739 19.606 42.8976 21.1298C44.4213 22.6535 45.2773 24.7201 45.2773 26.875C45.2773 29.0299 44.4213 31.0965 42.8976 32.6202C41.3739 34.144 39.3072 35 37.1523 35" stroke="#005D63" stroke-width="3" stroke-linecap="round" stroke-linejoin="round"/>
<path d="M13.166 40.8438C14.4347 39.0385 16.1192 37.565 18.0773 36.5478C20.0354 35.5305 22.2095 34.9995 24.416 34.9995C26.6225 34.9995 28.7967 35.5305 30.7548 36.5478C32.7128 37.565 34.3973 39.0385 35.666 40.8438" stroke="#005D63" stroke-width="3" stroke-linecap="round" stroke-linejoin="round"/>
<path d="M37.1504 35C39.3571 34.9986 41.5317 35.529 43.49 36.5462C45.4482 37.5635 47.1326 39.0376 48.4004 40.8438" stroke="#005D63" stroke-width="3" stroke-linecap="round" stroke-linejoin="round"/>
</svg>
