<svg width="60" height="60" viewBox="0 0 60 60" fill="none" xmlns="http://www.w3.org/2000/svg">
<g id="Group 22 Copy 9">
<rect id="Rectangle Copy 27" opacity="0.195126" width="60" height="59.9528" rx="18" fill="#B05697"/>
<g id="noun_process_3355340 1" clip-path="url(#clip0)">
<g id="Group">
<g id="Group_2">
<path id="Vector" d="M25.6765 9.24609H34.3235C36.3702 9.24609 38.0294 10.9053 38.0294 12.952V15.4226C38.0294 17.4693 36.3702 19.1284 34.3235 19.1284H25.6765C23.6298 19.1284 21.9706 17.4693 21.9706 15.4226V12.952C21.9706 10.9053 23.6298 9.24609 25.6765 9.24609ZM25.6765 11.7167C24.9942 11.7167 24.4412 12.2697 24.4412 12.952V15.4226C24.4412 16.1048 24.9942 16.6579 25.6765 16.6579H34.3235C35.0058 16.6579 35.5588 16.1048 35.5588 15.4226V12.952C35.5588 12.2697 35.0058 11.7167 34.3235 11.7167H25.6765ZM25.6765 41.3637H34.3235C36.3702 41.3637 38.0294 43.0229 38.0294 45.0696V47.5402C38.0294 49.5869 36.3702 51.2461 34.3235 51.2461H25.6765C23.6298 51.2461 21.9706 49.5869 21.9706 47.5402V45.0696C21.9706 43.0229 23.6298 41.3637 25.6765 41.3637ZM25.6765 43.8343C24.9942 43.8343 24.4412 44.3874 24.4412 45.0696V47.5402C24.4412 48.2224 24.9942 48.7755 25.6765 48.7755H34.3235C35.0058 48.7755 35.5588 48.2224 35.5588 47.5402V45.0696C35.5588 44.3874 35.0058 43.8343 34.3235 43.8343H25.6765ZM25.6765 25.3049H34.3235C36.3702 25.3049 38.0294 26.9641 38.0294 29.0108V31.4814C38.0294 33.5281 36.3702 35.1873 34.3235 35.1873H25.6765C23.6298 35.1873 21.9706 33.5281 21.9706 31.4814V29.0108C21.9706 26.9641 23.6298 25.3049 25.6765 25.3049ZM25.6765 27.7755C24.9942 27.7755 24.4412 28.3286 24.4412 29.0108V31.4814C24.4412 32.1636 24.9942 32.7167 25.6765 32.7167H34.3235C35.0058 32.7167 35.5588 32.1636 35.5588 31.4814V29.0108C35.5588 28.3286 35.0058 27.7755 34.3235 27.7755H25.6765ZM15.7813 47.2038C11.848 46.1137 9 42.5059 9 38.2755C9 33.1588 13.148 29.0108 18.2647 29.0108H18.8824C19.5646 29.0108 20.1176 29.5639 20.1176 30.2461C20.1176 30.9283 19.5646 31.4814 18.8824 31.4814H18.2647C14.5124 31.4814 11.4706 34.5232 11.4706 38.2755C11.4706 41.4244 13.6235 44.1038 16.5736 44.858L15.9702 43.8522C15.6192 43.2672 15.8088 42.5084 16.3939 42.1574C16.9789 41.8064 17.7377 41.9962 18.0887 42.5812L19.9416 45.6694C20.2597 46.1996 20.1368 46.8833 19.654 47.2695L16.5658 49.7401C16.0331 50.1663 15.2557 50.0799 14.8295 49.5472C14.4033 49.0145 14.4897 48.2371 15.0224 47.8109L15.7813 47.2038ZM44.2187 31.145L44.9776 31.7521C45.5103 32.1782 45.5967 32.9556 45.1705 33.4884C44.7443 34.0211 43.9669 34.1075 43.4342 33.6813L40.346 31.2107C39.8632 30.8245 39.7403 30.1408 40.0584 29.6106L41.9113 26.5223C42.2623 25.9373 43.0211 25.7476 43.6061 26.0986C44.1912 26.4496 44.3808 27.2084 44.0298 27.7934L43.4264 28.7992C46.3776 28.0447 48.5294 25.3645 48.5294 22.2167C48.5294 18.4644 45.4876 15.4226 41.7353 15.4226H41.1176C40.4354 15.4226 39.8824 14.8695 39.8824 14.1873C39.8824 13.505 40.4354 12.952 41.1176 12.952H41.7353C46.8521 12.952 51 17.0999 51 22.2167C51 26.4455 48.1534 30.0545 44.2187 31.145Z" fill="#B05697"/>
</g>
</g>
</g>
</g>
<defs>
<clipPath id="clip0">
<rect width="42" height="42" fill="white" transform="translate(9 9.24609)"/>
</clipPath>
</defs>
</svg>
