<svg width="50" height="50" viewBox="0 0 50 50" fill="none" xmlns="http://www.w3.org/2000/svg">
<rect opacity="0.195126" width="50" height="50" rx="12" fill="#DB7D7D"/>
<path fill-rule="evenodd" clip-rule="evenodd" d="M12.5 34.0861C12.5 34.7137 13.0088 35.2225 13.6364 35.2225H14.7727C22.9315 35.2225 29.5455 28.6085 29.5455 20.4498V16.3759L31.017 17.8418C31.4679 18.2279 32.14 18.202 32.5597 17.7822C32.9795 17.3625 33.0054 16.6904 32.6193 16.2395L29.2102 12.8304C28.767 12.3899 28.0512 12.3899 27.608 12.8304L24.1989 16.2395C23.8128 16.6904 23.8387 17.3625 24.2585 17.7822C24.6782 18.202 25.3503 18.2279 25.8011 17.8418L27.2727 16.3759V20.4498C27.2727 27.3533 21.6763 32.9498 14.7727 32.9498H13.6364C13.0088 32.9498 12.5 33.4585 12.5 34.0861ZM32.9543 28.4042C35.4647 28.4042 37.4997 30.4393 37.4997 32.9497C37.4997 35.4601 35.4647 37.4951 32.9543 37.4951C30.4439 37.4951 28.4088 35.4601 28.4088 32.9497C28.4088 30.4393 30.4439 28.4042 32.9543 28.4042ZM30.6814 32.9496C30.6814 34.2048 31.6989 35.2223 32.9541 35.2223C34.2093 35.2223 35.2269 34.2048 35.2269 32.9496C35.2269 31.6944 34.2093 30.6769 32.9541 30.6769C31.6989 30.6769 30.6814 31.6944 30.6814 32.9496ZM15.5741 26.9326C15.1309 27.3732 14.415 27.3732 13.9718 26.9326C13.5312 26.4894 13.5312 25.7736 13.9718 25.3304L16.0059 23.2906L13.9718 21.2508C13.5857 20.8 13.6117 20.1279 14.0314 19.7081C14.4511 19.2884 15.1232 19.2624 15.5741 19.6486L17.6138 21.6826L19.6536 19.6486C20.1045 19.2624 20.7766 19.2884 21.1963 19.7081C21.616 20.1279 21.642 20.8 21.2559 21.2508L19.2218 23.2906L21.2559 25.3304C21.642 25.7812 21.616 26.4533 21.1963 26.8731C20.7766 27.2928 20.1045 27.3188 19.6536 26.9326L17.6138 24.8986L15.5741 26.9326Z" fill="#EB7575"/>
</svg>
