<svg width="120" height="28" viewBox="0 0 120 28" fill="none" xmlns="http://www.w3.org/2000/svg">
<path fill-rule="evenodd" clip-rule="evenodd" d="M68.4116 2.37776C67.0709 0.792896 64.972 0 62.1165 0C59.3224 0 57.2595 0.779193 55.927 2.33757C54.5259 3.99369 53.8253 6.46006 53.8253 9.73764C53.8253 13.2618 54.6523 15.9346 56.3062 17.7578C57.6821 19.2825 59.5842 20.0442 62.0126 20.0442C65.2952 20.0442 67.6325 18.6868 69.0255 15.9748C69.4263 15.1992 69.7477 14.2173 69.9915 13.0279C70.2353 11.8377 70.3571 10.6538 70.3571 9.4736C70.3571 6.28467 69.7079 3.9197 68.4116 2.37776ZM58.9956 5.52193C59.7278 4.58927 60.7722 4.12158 62.13 4.12158C64.9593 4.12158 66.374 6.01154 66.374 9.78969C66.374 11.6924 66.0219 13.2599 65.3168 14.4931C64.62 15.7099 63.5356 16.3173 62.0641 16.3173C60.6368 16.3173 59.5706 15.7446 58.8647 14.5991C58.1686 13.4718 57.8201 11.9482 57.8201 10.0281C57.8201 8.03762 58.212 6.53497 58.9956 5.52193ZM39.7115 7.60932C42.3945 6.62095 44.6343 6.64013 46.4299 7.66596C48.1696 8.66529 49.5789 10.664 50.6567 13.6602C51.0558 14.7691 51.342 15.9246 51.5144 17.1268C51.6868 18.3289 51.7166 19.3629 51.6029 20.2298C51.2102 23.2616 49.4723 25.3452 46.3885 26.4807C44.1062 27.322 42.0613 27.2635 40.254 26.308C38.0828 25.1671 36.4028 22.941 35.2111 19.6297C34.1042 16.5504 33.9282 13.9899 34.6857 11.9492C35.4106 10.0237 37.0861 8.57669 39.7115 7.60932ZM41.118 11.4788C39.8424 11.9492 39.0181 12.7494 38.6471 13.8794C38.2535 15.1026 38.3925 16.649 39.0659 18.5198C39.7151 20.3248 40.5564 21.6366 41.592 22.4551C42.6419 23.2872 43.8381 23.4562 45.1796 22.962C46.5617 22.4532 47.3752 21.5068 47.6189 20.123C47.8654 18.7199 47.6659 17.125 47.023 15.3363C45.7438 11.7857 43.7758 10.4996 41.118 11.4788ZM14.0256 10.4541V15.2507H13.8686C13.3811 14.3609 12.8069 13.6741 12.1451 13.189C11.135 12.4491 10.0254 12.0791 8.81478 12.0791C7.46511 12.0791 6.35559 12.5285 5.48441 13.4265C4.49225 14.4396 3.99571 15.9549 3.99571 17.9719C3.99571 19.9451 4.41822 21.5088 5.26232 22.6626C5.63698 23.165 6.1308 23.5596 6.74469 23.8456C7.35858 24.1314 8.02664 24.2749 8.74977 24.2749C10.9084 24.2749 12.6146 23.1997 13.8686 21.0503H14.0256V25.2523C13.2863 25.9749 12.6462 26.5074 12.1063 26.8508C10.8614 27.6172 9.45934 28 7.90115 28C6.59573 28 5.38871 27.6967 4.2837 27.0883C2.70835 26.2333 1.56272 24.833 0.849519 22.8864C0.283474 21.3709 0 19.6089 0 17.6011C0 14.2624 0.788125 11.7823 2.36349 10.1618C3.79982 8.69107 5.71913 7.95573 8.12234 7.95573C9.35008 7.95573 10.4055 8.14299 11.2893 8.5166C12.174 8.89295 13.0859 9.53879 14.0256 10.4541ZM20.6969 15.7143H27.4488V8.38189H31.4843V27.5794H27.4488V19.7701H20.6969V27.5794H16.6488V8.38097H20.6969V15.7143ZM84.5201 7.62322C87.2032 8.61159 88.9076 10.0832 89.6307 12.0371C90.3286 13.9344 90.139 16.3815 89.0611 19.3786C88.6621 20.4876 88.1474 21.5591 87.5155 22.5914C86.8845 23.6245 86.2499 24.4366 85.6116 25.0258C83.3862 27.0929 80.7302 27.5588 77.6463 26.4233C75.364 25.5829 73.8339 24.2081 73.0565 22.3008C72.1186 20.0144 72.2459 17.2165 73.4367 13.9052C74.5434 10.8267 76.0357 8.75135 77.9135 7.67985C79.692 6.67504 81.8948 6.65676 84.5201 7.62322ZM83.1388 11.5027C81.8632 11.0323 80.723 11.1099 79.72 11.7339C78.6421 12.4144 77.7655 13.6905 77.0929 15.5613C76.4438 17.3654 76.256 18.9183 76.5286 20.2181C76.8049 21.5381 77.6129 22.4452 78.9554 22.9393C80.3375 23.4482 81.5617 23.2527 82.6269 22.351C83.7067 21.4358 84.568 20.0848 85.2107 18.2971C86.4882 14.7465 85.7975 12.4819 83.1388 11.5027ZM104.369 9.78083V14.3391C103.89 13.8101 103.497 13.4229 103.188 13.1762C102.878 12.9296 102.502 12.7048 102.058 12.5021C101.074 12.0526 100.091 11.8288 99.1072 11.8288C98.2452 11.8288 97.5518 12.027 97.0246 12.4226C96.4974 12.8181 96.2346 13.3471 96.2346 14.0084C96.2346 14.4661 96.352 14.8186 96.5867 15.0653C96.8043 15.2937 97.0896 15.4791 97.4426 15.6198C97.7946 15.7613 98.5024 15.9724 99.5639 16.2537C101.409 16.747 102.719 17.3589 103.495 18.0907C104.513 19.059 105.023 20.3369 105.023 21.9217C105.023 23.1203 104.701 24.2164 104.057 25.2121C103.457 26.1456 102.672 26.8418 101.706 27.3003C100.723 27.767 99.6516 28 98.4943 28C97.4146 28 96.4288 27.8457 95.5359 27.5378C94.644 27.2291 93.7276 26.7266 92.7869 26.0306V21.8295C93.64 22.7448 94.4236 23.3842 95.1378 23.746C96.1561 24.2566 97.2051 24.5124 98.2848 24.5124C99.3296 24.5124 100.108 24.2529 100.622 23.7323C101.013 23.345 101.209 22.8644 101.209 22.2917C101.209 21.5965 100.909 21.0494 100.308 20.6539C99.8988 20.3816 99.1282 20.1039 97.9968 19.8208C95.8464 19.2837 94.3532 18.5748 93.5173 17.6942C92.6036 16.7251 92.1468 15.5001 92.1468 14.0202C92.1468 12.0819 92.8735 10.5362 94.3279 9.38257C95.5296 8.43164 97.039 7.95573 98.859 7.95573C100.827 7.95755 102.663 8.56592 104.369 9.78083ZM120 8.38097H107.608V27.5794H120V23.9328H111.473V19.8103H120V16.1628H111.473V12.2258H120V8.38097Z" fill="#E8308A"/>
</svg>
