<?xml version="1.0" encoding="utf-8"?>
<svg viewBox="0 0 60 60" fill="none" xmlns="http://www.w3.org/2000/svg">
  <rect opacity="0.195126" width="60" height="60" rx="18" fill="#6CB866"/>
  <g transform="matrix(1, 0, 0, 1, 9.999354, 9.999945)">
    <path d="M5.02291 3.49091C4.057 3.66061 3.57404 4.16364 3.57404 5C3.57404 5.81212 4.06836 6.42424 5.057 6.83636C5.1479 6.86061 5.19336 6.82424 5.19336 6.72727V3.61818C5.19336 3.50909 5.13654 3.46667 5.02291 3.49091ZM8.2104 11.0909C8.2104 10.6061 8.10245 10.2182 7.88654 9.92727C7.682 9.62424 7.31268 9.36364 6.77859 9.14545C6.7445 9.13333 6.7104 9.13939 6.67631 9.16364C6.64222 9.17576 6.62518 9.2 6.62518 9.23636V12.7091C6.62518 12.7455 6.64222 12.7818 6.67631 12.8182C6.7104 12.8424 6.7445 12.8485 6.77859 12.8364C7.73313 12.6061 8.2104 12.0242 8.2104 11.0909ZM5.03995 8.58182C3.90359 8.19394 3.07972 7.70909 2.56836 7.12727C2.06836 6.54545 1.81836 5.83636 1.81836 5C1.81836 4.11515 2.0854 3.40606 2.6195 2.87273C3.16495 2.32727 3.96609 1.99394 5.02291 1.87273C5.13654 1.84848 5.19336 1.78788 5.19336 1.69091V0.763636C5.19336 0.557576 5.26154 0.381819 5.39791 0.236364C5.54563 0.0787879 5.71609 0 5.90927 0C6.10245 0 6.26722 0.0787879 6.40359 0.236364C6.55131 0.381819 6.62518 0.557576 6.62518 0.763636V1.69091C6.62518 1.8 6.67063 1.85455 6.76154 1.85455C7.5229 1.91515 8.19904 2.01212 8.78995 2.14545C9.02859 2.19394 9.21609 2.32727 9.35245 2.54546C9.50018 2.75152 9.57404 2.98182 9.57404 3.23636C9.57404 3.44243 9.48881 3.61212 9.31836 3.74546C9.15927 3.86667 8.98313 3.89697 8.78995 3.83636C8.14222 3.64242 7.47177 3.51515 6.77859 3.45455C6.67631 3.45455 6.62518 3.50303 6.62518 3.6V7.16364C6.62518 7.24848 6.67631 7.31515 6.77859 7.36364C7.97177 7.75151 8.807 8.23636 9.28427 8.81818C9.76154 9.38788 10.0002 10.1455 10.0002 11.0909C10.0002 12.0485 9.72745 12.8182 9.182 13.4C8.63654 13.9697 7.84109 14.3273 6.79563 14.4727C6.682 14.497 6.62518 14.5576 6.62518 14.6545V15.5818C6.62518 15.7879 6.55131 15.9697 6.40359 16.1273C6.26722 16.2848 6.10245 16.3636 5.90927 16.3636C5.71609 16.3636 5.54563 16.2848 5.39791 16.1273C5.26154 15.9697 5.19336 15.7879 5.19336 15.5818V14.6909C5.19336 14.5818 5.14222 14.5273 5.03995 14.5273C4.25586 14.4667 3.53995 14.3333 2.89222 14.1273C2.64222 14.0424 2.44336 13.8909 2.29563 13.6727C2.1479 13.4424 2.07404 13.1879 2.07404 12.9091C2.07404 12.703 2.15359 12.5455 2.31268 12.4364C2.48313 12.3273 2.65927 12.3091 2.84109 12.3818C3.5229 12.6606 4.25586 12.8364 5.03995 12.9091C5.14222 12.9091 5.19336 12.8606 5.19336 12.7636V8.78182C5.19336 8.69697 5.14222 8.6303 5.03995 8.58182Z" fill="#4F9C54"/>
    <path d="M34.5449 17.2727L38.1813 20.9091L34.5449 24.5454" stroke="#4F9C54" stroke-width="2.72727" stroke-linecap="round" stroke-linejoin="round"/>
    <path d="M37.7268 20.9091C29.2582 20.9091 21.8889 18.3935 16.332 15.4546" stroke="#4F9C54" stroke-width="2.72727" stroke-linecap="round"/>
    <rect x="1.81836" y="19.0908" width="7.27273" height="20.9091" rx="2.72727" stroke="#4F9C54" stroke-width="2.72727" stroke-linecap="round"/>
    <rect x="16.3633" y="26.3635" width="7.27273" height="13.6364" rx="2.72727" stroke="#4F9C54" stroke-width="2.72727" stroke-linecap="round"/>
    <rect x="30.9102" y="30.9092" width="7.27273" height="9.09091" rx="2.72727" stroke="#4F9C54" stroke-width="2.72727" stroke-linecap="round"/>
  </g>
</svg>