<svg width="61" height="60" viewBox="0 0 61 60" fill="none" xmlns="http://www.w3.org/2000/svg">
<rect x="0.666016" width="60" height="60" rx="18" fill="#00FFD1"/>
<path d="M24.416 46.25H36.916" stroke="#005D63" stroke-width="3" stroke-linecap="round" stroke-linejoin="round"/>
<path d="M22.963 36.0936C21.4749 34.9365 20.2696 33.4559 19.4385 31.7639C18.6074 30.0719 18.1723 28.213 18.1661 26.328C18.1349 19.5467 23.588 13.9061 30.3693 13.7499C32.9938 13.6876 35.5712 14.4533 37.7361 15.9382C39.901 17.4232 41.5434 19.552 42.4304 22.0228C43.3174 24.4937 43.404 27.181 42.6778 29.7038C41.9517 32.2266 40.4497 34.4568 38.3849 36.078C37.9288 36.4305 37.5593 36.8827 37.3047 37.4C37.0502 37.9172 36.9173 38.4859 36.9161 39.0623V39.9998C36.9161 40.3314 36.7845 40.6493 36.55 40.8837C36.3156 41.1182 35.9977 41.2498 35.6661 41.2498H25.6661C25.3346 41.2498 25.0167 41.1182 24.7823 40.8837C24.5478 40.6493 24.4161 40.3314 24.4161 39.9998V39.0623C24.4122 38.4902 24.2796 37.9262 24.028 37.4123C23.7765 36.8984 23.4125 36.4477 22.963 36.0936V36.0936Z" stroke="#005D63" stroke-width="3" stroke-linecap="round" stroke-linejoin="round"/>
<path d="M31.9297 18.875C33.4575 19.134 34.8672 19.8608 35.9643 20.9551C37.0614 22.0494 37.7918 23.4573 38.0547 24.9844" stroke="#005D63" stroke-width="3" stroke-linecap="round" stroke-linejoin="round"/>
</svg>
