<svg width="55" height="55" viewBox="0 0 55 55" fill="none" xmlns="http://www.w3.org/2000/svg">
<rect opacity="0.203869" width="55" height="55" rx="14" fill="#5080F4"/>
<path fill-rule="evenodd" clip-rule="evenodd" d="M24.8316 26.56C24.0396 25.48 23.6796 24.04 24.0396 22.456C24.3996 20.872 25.4796 19.648 26.9196 19.216C29.7276 18.352 32.3196 20.656 32.3196 23.68C32.3196 24.76 31.9596 25.768 31.4556 26.488C31.0236 27.136 31.0956 28 31.7436 28.36C34.0476 29.656 35.7036 32.176 35.9916 35.2C36.0636 35.704 35.7036 36.136 35.1996 36.136H21.0156C20.5836 36.136 20.2236 35.704 20.2236 35.2C20.5116 32.176 22.1676 29.656 24.4716 28.36C25.1196 28.072 25.2636 27.208 24.8316 26.56Z" stroke="#0066FF" stroke-linecap="round" stroke-linejoin="round"/>
<path d="M24.0396 36.208H21.0156H11.1516C10.7196 36.208 10.4316 35.848 10.4316 35.344C10.7196 32.608 12.1596 30.304 14.2476 29.152C14.8236 28.864 14.9676 28 14.5356 27.424C13.8156 26.416 13.5276 25.12 13.8156 23.68C14.1756 22.24 15.1116 21.16 16.4076 20.728C18.9996 19.936 21.3036 22.024 21.3036 24.76C21.3036 25.768 21.0156 26.632 20.5116 27.352C20.0796 27.928 20.2236 28.72 20.7996 29.08C21.3036 29.368 21.8076 29.728 22.2396 30.16" stroke="#0066FF" stroke-linecap="round" stroke-linejoin="round"/>
<path d="M31.96 36.208H34.984H44.848C45.28 36.208 45.568 35.848 45.568 35.344C45.28 32.608 43.84 30.304 41.752 29.152C41.176 28.864 41.032 28 41.464 27.424C42.184 26.416 42.472 25.12 42.184 23.68C41.824 22.24 40.888 21.16 39.592 20.728C37 19.936 34.696 22.024 34.696 24.76C34.696 25.768 34.984 26.632 35.488 27.352C35.92 27.928 35.776 28.72 35.2 29.08C34.696 29.368 34.624 29.296 34.192 29.728" stroke="#0066FF" stroke-linecap="round" stroke-linejoin="round"/>
</svg>
