<svg width="60" height="60" viewBox="0 0 60 60" fill="none" xmlns="http://www.w3.org/2000/svg">
<g id="Group 22 Copy 11">
<rect id="Rectangle Copy 27" opacity="0.195126" width="60" height="60" rx="18" fill="#D1992C"/>
<path id="Vector" d="M45.6772 22.6939H38.7056C37.9905 22.6939 37.4185 23.2642 37.4185 23.9769C37.4185 24.6897 37.9905 25.26 38.7056 25.26H42.5668L34.2008 33.5996C33.3428 32.9937 32.3417 32.566 31.2692 32.3878V17.3836L33.9863 20.0922C34.2366 20.3417 34.5584 20.4843 34.8801 20.4843C35.2019 20.4843 35.5237 20.3417 35.7739 20.0922C36.2744 19.5933 36.2744 18.7736 35.7739 18.2746L30.8759 13.392C30.6614 13.1426 30.3396 13 29.9821 13C29.6246 13 29.3028 13.1426 29.0883 13.392L24.1546 18.2746C23.654 18.7736 23.654 19.5933 24.1546 20.0922C24.6551 20.5912 25.4774 20.5912 25.9779 20.0922L28.6951 17.3836V32.3878C27.6225 32.566 26.6215 32.9937 25.7634 33.5996L17.3975 25.26H21.2587C21.9737 25.26 22.5457 24.6897 22.5457 23.9769C22.5457 23.2642 21.9737 22.6939 21.2587 22.6939H14.2871C13.572 22.6939 13 23.2642 13 23.9769V30.9266C13 31.6394 13.572 32.2096 14.2871 32.2096C15.0021 32.2096 15.5741 31.6394 15.5741 30.9266V27.0776L23.9401 35.4172C23.082 36.6289 22.6172 38.0545 22.6172 39.6226C22.6172 43.6855 25.9422 47 30.0179 47C34.0936 47 37.3828 43.6855 37.3828 39.6226C37.3828 38.0545 36.8822 36.5933 36.0599 35.4172L44.4259 27.0776V30.9266C44.4259 31.6394 44.9979 32.2096 45.7129 32.2096C46.428 32.2096 47 31.6394 47 30.9266V23.9769C46.9642 23.2642 46.3922 22.6939 45.6772 22.6939ZM29.9821 44.434C27.3365 44.434 25.1556 42.2956 25.1556 39.6226C25.1556 36.9853 27.3007 34.8113 29.9821 34.8113C32.6635 34.8113 34.8086 36.9497 34.8086 39.6226C34.8086 42.26 32.6278 44.434 29.9821 44.434Z" fill="#D1992C"/>
</g>
</svg>
