<svg width="213" height="721" viewBox="0 0 213 721" fill="none" xmlns="http://www.w3.org/2000/svg">
<path d="M100 9V74.3238C100 96.4152 82.0914 114.324 60 114.324H41C18.9086 114.324 1 132.232 1 154.324V243.878C1 265.97 18.9086 283.878 41 283.878H161C183.091 283.878 201 301.787 201 323.878V478.34C201 500.431 183.091 518.34 161 518.34H41C18.9086 518.34 1 536.249 1 558.34V669.893C1 691.984 18.9086 709.893 41 709.893H210.5" stroke="#0066FF" stroke-width="2"/>
<path fill-rule="evenodd" clip-rule="evenodd" d="M100 12C103.314 12 106 9.31371 106 6C106 2.68629 103.314 0 100 0C96.6863 0 94 2.68629 94 6C94 9.31371 96.6863 12 100 12Z" fill="#0066FF"/>
<path d="M201 720L211 710L201 700" stroke="#0066FF" stroke-width="2" stroke-linecap="round"/>
</svg>
