<svg width="80" height="80" viewBox="0 0 80 80" fill="none" xmlns="http://www.w3.org/2000/svg">
<g id="Group 22 Copy 11">
<rect id="Rectangle Copy 27" opacity="0.195126" width="80" height="80" rx="18" fill="#6550E8"/>
<path id="Vector" d="M60.16 52.84L48 48.58V47.87C51.5177 47.3763 54.8007 45.8203 57.41 43.41C57.6188 43.2044 57.7799 42.9554 57.8819 42.6806C57.9838 42.4059 58.0242 42.1121 58 41.82C57.9748 41.5276 57.8857 41.2444 57.7388 40.9903C57.5919 40.7363 57.3909 40.5177 57.15 40.35C56.92 40.2 52 36.63 52 25.92C51.77 20.54 46.28 16 40 16C33.72 16 28.23 20.54 28 26C28 36.63 23.08 40.2 22.89 40.34C22.643 40.5024 22.435 40.7176 22.2811 40.9701C22.1272 41.2225 22.0312 41.506 22 41.8C21.9715 42.0946 22.0088 42.3918 22.1091 42.6702C22.2094 42.9486 22.3702 43.2013 22.58 43.41C25.192 45.8221 28.4788 47.3783 32 47.87V48.58L19.84 52.84C18.7171 53.2339 17.7443 53.9671 17.0564 54.9381C16.3684 55.9091 15.9993 57.07 16 58.26V62C16 62.5304 16.2107 63.0391 16.5858 63.4142C16.9609 63.7893 17.4696 64 18 64H62C62.5304 64 63.0391 63.7893 63.4142 63.4142C63.7893 63.0391 64 62.5304 64 62V58.26C64.0007 57.07 63.6316 55.9091 62.9436 54.9381C62.2557 53.9671 61.2829 53.2339 60.16 52.84ZM60 60H20V58.26C20.0017 57.898 20.1149 57.5454 20.3243 57.2501C20.5337 56.9549 20.829 56.7313 21.17 56.61L34.66 51.89C35.0519 51.753 35.3914 51.4975 35.6315 51.1588C35.8717 50.8201 36.0004 50.4151 36 50V46C36 45.4696 35.7893 44.9609 35.4142 44.5858C35.0391 44.2107 34.5304 44 34 44C31.5079 43.9659 29.078 43.2161 27 41.84C29 39.47 32 34.6 32 26.08C32.13 22.84 35.87 20 40 20C44.13 20 47.87 22.84 48 26C48 34.58 50.92 39.47 53 41.85C50.9223 43.2257 48.4917 43.9723 46 44C45.4696 44 44.9609 44.2107 44.5858 44.5858C44.2107 44.9609 44 45.4696 44 46V50C43.9996 50.4151 44.1283 50.8201 44.3685 51.1588C44.6086 51.4975 44.9481 51.753 45.34 51.89L58.83 56.61C59.171 56.7313 59.4663 56.9549 59.6757 57.2501C59.8851 57.5454 59.9983 57.898 60 58.26V60Z" fill="#6550E8"/>
</g>
</svg>
