<svg width="34" height="34" viewBox="0 0 34 34" fill="none" xmlns="http://www.w3.org/2000/svg">
<path fill-rule="evenodd" clip-rule="evenodd" d="M17 34C26.3888 34 34 26.3888 34 17C34 7.61116 26.3888 0 17 0C7.61116 0 0 7.61116 0 17C0 26.3888 7.61116 34 17 34Z" fill="#DDEAFD"/>
<path fill-rule="evenodd" clip-rule="evenodd" d="M13.2 11.6C13.2 10.6132 14.0132 9.79997 15 9.79997C15.9868 9.79997 16.7999 10.6132 16.7999 11.6V14.65C16.9314 14.6207 17.0632 14.6 17.1999 14.6C17.4888 14.6 17.8396 14.6645 18.1812 14.9125C18.2376 14.9535 18.2828 15.0166 18.3283 15.0801C18.3515 15.1126 18.3749 15.1452 18.3999 15.175C18.5844 15.0753 18.7762 15.0035 18.9874 15C19.2817 14.9951 19.6199 15.0632 19.9624 15.3062C20.1367 15.4299 20.2948 15.6115 20.4124 15.8375C20.4312 15.8352 20.4507 15.8327 20.4706 15.8301C20.5938 15.8144 20.7356 15.7962 20.8686 15.8C21.7811 15.9068 22.3929 16.6474 22.6248 17.475C22.8529 18.2888 22.8414 19.2764 22.6873 20.275C22.5333 21.2736 22.2369 22.2974 21.8436 23.1812C21.4503 24.0651 20.9825 24.8172 20.3561 25.2812C20.254 25.3573 20.1272 25.3996 19.9999 25.4H14.6C14.4299 25.3992 14.2616 25.3221 14.15 25.1937C12.5753 23.3875 11.2981 20.9386 10.2438 18.4125C10.0236 17.8457 9.93125 17.3557 10.0563 16.9C10.1805 16.4492 10.4773 16.215 10.8246 15.9409C10.8495 15.9213 10.8747 15.9014 10.9 15.8812C11.214 15.6993 11.6799 15.5129 12.2 15.6562C12.5794 15.7608 12.9027 16.0649 13.2 16.4625V11.6ZM15.5999 11.6C15.5999 11.2572 15.3427 11 15 11C14.6572 11 14.4 11.2572 14.4 11.6V18.8C14.4008 19.0684 14.1991 19.3241 13.9379 19.3858C13.6767 19.4476 13.3819 19.3091 13.2625 19.0687L12.4688 17.4812C12.4593 17.4641 12.4501 17.4475 12.4411 17.4312C12.27 17.1216 12.1836 16.9651 11.8813 16.8125C11.6273 16.7854 11.3747 16.9584 11.2125 17.225C11.2005 18.6103 13.7813 22.6851 14.9 24.2H19.7436C20.054 23.9224 20.4306 23.3971 20.7436 22.6937C21.0884 21.9188 21.3692 20.9809 21.5061 20.0937C21.6429 19.2066 21.6329 18.3635 21.4748 17.8062C21.3222 17.2684 21.1404 17.0563 20.7686 17C20.7059 16.9779 20.5718 17.0068 20.4854 17.0254C20.4404 17.0351 20.4084 17.042 20.4061 17.0375C20.2363 17.1937 19.9723 17.2381 19.7607 17.1461C19.549 17.0541 19.4015 16.8308 19.3999 16.6C19.3999 16.3804 19.3532 16.3473 19.275 16.292C19.2729 16.2905 19.2708 16.289 19.2686 16.2875L19.2661 16.2865C18.9944 16.1842 18.8929 16.1459 18.7374 16.4687C18.618 16.7091 18.3232 16.8476 18.062 16.7858C17.8008 16.7241 17.5991 16.4684 17.5999 16.2C17.5999 15.9715 17.5502 15.9356 17.4824 15.8867C17.48 15.8849 17.4774 15.8831 17.4749 15.8812C17.1888 15.7795 16.9619 15.7731 16.7437 16.0562C16.6291 16.3017 16.3331 16.4471 16.0688 16.3879C15.8045 16.3287 15.5989 16.0709 15.5999 15.8V11.6Z" fill="#0066FF"/>
<path d="M24 11.3989C23.9977 11.2421 23.9276 11.0648 23.825 10.9739L22.025 9.17382C21.8081 8.97979 21.3804 8.91701 21.1501 9.14908C20.9197 9.38115 20.935 9.80879 21.1813 10.0239L21.9562 10.7989H18.6C18.2686 10.7989 18 11.0676 18 11.3989C18 11.7303 18.2686 11.999 18.6 11.999H21.9562L21.1813 12.774C20.935 12.9891 20.8973 13.4343 21.1501 13.6488C21.3848 13.848 21.8206 13.861 22.025 13.6241L23.825 11.824C23.9537 11.6971 23.9953 11.5602 24 11.3989Z" fill="#0066FF"/>
</svg>
