<svg width="80" height="80" viewBox="0 0 80 80" fill="none" xmlns="http://www.w3.org/2000/svg">
<g id="Group 22 Copy 11">
<g id="Group 63">
<g id="Group 22 Copy 5">
<rect id="Rectangle Copy 27" opacity="0.195126" width="80" height="80" rx="24" fill="#DC8B24"/>
</g>
<g id="noun_tap_1515765">
<path id="Shape" fill-rule="evenodd" clip-rule="evenodd" d="M53.15 36.6661C56.2671 37.8993 58.3197 40.9056 58.3333 44.2577V58.3327C58.3333 59.2532 57.5871 59.9994 56.6666 59.9994H38.3333C37.8376 60.0002 37.3672 59.7803 37.05 59.3994C36.9916 59.3244 30.4666 51.5577 24.6833 48.9161C22.8627 48.1294 21.6791 46.341 21.6666 44.3577V44.0994C21.6767 42.5359 22.4176 41.0671 23.669 40.1297C24.9205 39.1924 26.5384 38.8944 28.0416 39.3244C29.895 39.8623 31.673 40.6323 33.3333 41.6161V25.1744C33.3043 22.6881 35.0586 20.5374 37.5 20.0661C38.9517 19.8207 40.4378 20.2276 41.562 21.1784C42.6862 22.1291 43.3343 23.5271 43.3333 24.9994V33.6577C46.6673 34.4465 49.9464 35.4514 53.15 36.6661ZM39.1 56.6661H55V44.2577C54.9918 42.2854 53.784 40.5166 51.95 39.7911C48.4968 38.486 44.9508 37.4414 41.3416 36.6661C40.5498 36.5088 39.9845 35.8066 40 34.9994V24.9994C40.0078 24.4992 39.7906 24.022 39.4083 23.6994C39.0298 23.3803 38.529 23.2459 38.0416 23.3327C37.2 23.536 36.6224 24.3097 36.6666 25.1744V44.9994C36.668 45.6732 36.2635 46.2816 35.6416 46.5411C35.0177 46.7978 34.3005 46.6531 33.825 46.1744C31.8903 44.4463 29.579 43.1936 27.075 42.5161C26.5922 42.3746 26.0711 42.4671 25.6666 42.7661C25.2469 43.0808 25 43.5748 25 44.0994V44.3577C25.0122 45.0357 25.4339 45.6387 26.0666 45.8827C31.6 48.4077 37.3666 54.6827 39.1 56.6661Z" fill="#CD934B"/>
<path id="Path" d="M21.6667 31.6663C22.5871 31.6663 23.3333 30.9201 23.3333 29.9997V26.6663H26.6667C27.5871 26.6663 28.3333 25.9201 28.3333 24.9997C28.3333 24.0792 27.5871 23.333 26.6667 23.333H23.3333C21.4924 23.333 20 24.8254 20 26.6663V29.9997C20 30.9201 20.7462 31.6663 21.6667 31.6663Z" fill="#CD934B"/>
<path id="Path_2" d="M55 31.6663C55.9205 31.6663 56.6667 30.9201 56.6667 29.9997V26.6663C56.6667 24.8254 55.1743 23.333 53.3334 23.333H50C49.0796 23.333 48.3334 24.0792 48.3334 24.9997C48.3334 25.9201 49.0796 26.6663 50 26.6663H53.3334V29.9997C53.3334 30.9201 54.0796 31.6663 55 31.6663Z" fill="#CD934B"/>
</g>
</g>
</g>
</svg>
