<svg width="60" height="58" viewBox="0 0 60 58" fill="none" xmlns="http://www.w3.org/2000/svg">
<g id="Group 22 Copy 10">
<rect id="Rectangle Copy 27" opacity="0.195126" width="60" height="57.4718" rx="18" fill="#509FE8"/>
<path id="Union" fill-rule="evenodd" clip-rule="evenodd" d="M34.9428 43.6876C34.6928 43.9271 34.3536 44.0616 34 44.0616H15.3333C14.9797 44.0616 14.6406 43.9271 14.3905 43.6876C14.1405 43.4481 14 43.1232 14 42.7845V40.3962C13.9995 39.6363 14.2456 38.895 14.7042 38.275C15.1629 37.6549 15.8114 37.1867 16.56 36.9352L24.6667 34.2149V33.7615C22.3192 33.4475 20.128 32.4537 18.3867 30.9134C18.2468 30.7801 18.1396 30.6188 18.0727 30.441C18.0059 30.2632 17.981 30.0734 18 29.8853C18.0208 29.6976 18.0848 29.5166 18.1874 29.3554C18.29 29.1942 18.4286 29.0567 18.5933 28.953L18.5953 28.9516C18.7502 28.8425 22 26.5526 22 19.7959C22.1533 16.3093 25.8133 13.4102 30 13.4102C34.1867 13.4102 37.8467 16.3093 38 19.7448C38 26.5839 41.28 28.8636 41.4333 28.9594C41.5939 29.0665 41.7279 29.2061 41.8258 29.3683C41.9238 29.5305 41.9832 29.7114 42 29.8981C42.0161 30.0846 41.9892 30.2722 41.9212 30.4477C41.8533 30.6231 41.7459 30.7821 41.6067 30.9134C39.8672 32.4526 37.6784 33.4462 35.3333 33.7615V35.1216C35.3333 35.4603 35.1929 35.7852 34.9428 36.0247C34.6928 36.2642 34.3536 36.3988 34 36.3988C33.6464 36.3988 33.3072 36.2642 33.0572 36.0247C32.8071 35.7852 32.6667 35.4603 32.6667 35.1216V32.5673C32.6667 32.2286 32.8071 31.9038 33.0572 31.6643C33.3072 31.4247 33.6464 31.2902 34 31.2902C35.6611 31.2725 37.2816 30.7957 38.6667 29.9173C37.28 28.3975 35.3333 25.2748 35.3333 19.7959C35.2467 17.778 32.7533 15.9644 30 15.9644C27.2467 15.9644 24.7533 17.778 24.6667 19.847C24.6667 25.2876 22.6667 28.3975 21.3333 29.9109C22.7187 30.7896 24.3386 31.2684 26 31.2902C26.3536 31.2902 26.6928 31.4247 26.9428 31.6643C27.1929 31.9038 27.3333 32.2286 27.3333 32.5673V35.1216C27.3336 35.3867 27.2478 35.6453 27.0877 35.8616C26.9276 36.0779 26.7013 36.241 26.44 36.3285L17.4467 39.3426C17.2193 39.4201 17.0224 39.5628 16.8829 39.7514C16.7433 39.9399 16.6678 40.1651 16.6667 40.3962V41.5074H34C34.3536 41.5074 34.6928 41.6419 34.9428 41.8814C35.1929 42.1209 35.3333 42.4458 35.3333 42.7845C35.3333 43.1232 35.1929 43.4481 34.9428 43.6876ZM42.0004 37.676H44.667C45.0207 37.676 45.3598 37.8106 45.6098 38.0501C45.8599 38.2896 46.0004 38.6145 46.0004 38.9532C46.0004 39.2919 45.8599 39.6168 45.6098 39.8563C45.3598 40.0958 45.0207 40.2303 44.667 40.2303H42.0004V42.7846C42.0004 43.1233 41.8599 43.4482 41.6098 43.6877C41.3598 43.9272 41.0207 44.0618 40.667 44.0618C40.3134 44.0618 39.9743 43.9272 39.7242 43.6877C39.4742 43.4482 39.3337 43.1233 39.3337 42.7846V40.2303H36.667C36.3134 40.2303 35.9743 40.0958 35.7242 39.8563C35.4742 39.6168 35.3337 39.2919 35.3337 38.9532C35.3337 38.6145 35.4742 38.2896 35.7242 38.0501C35.9743 37.8106 36.3134 37.676 36.667 37.676H39.3337V35.1217C39.3337 34.783 39.4742 34.4582 39.7242 34.2187C39.9743 33.9792 40.3134 33.8446 40.667 33.8446C41.0207 33.8446 41.3598 33.9792 41.6098 34.2187C41.8599 34.4582 42.0004 34.783 42.0004 35.1217V37.676Z" fill="#3FAEEC"/>
</g>
</svg>
