<svg width="57" height="56" viewBox="0 0 57 56" fill="none" xmlns="http://www.w3.org/2000/svg">
<rect x="0.666016" width="56" height="56" rx="8" fill="#FFB800"/>
<path d="M32.5036 32.4376L29.6036 40.4126C29.5325 40.6039 29.4046 40.769 29.237 40.8855C29.0695 41.0021 28.8702 41.0646 28.6661 41.0646C28.4619 41.0646 28.2627 41.0021 28.0951 40.8855C27.9275 40.769 27.7996 40.6039 27.7286 40.4126L24.8286 32.4376C24.7779 32.3001 24.6981 32.1753 24.5945 32.0717C24.4909 31.9681 24.366 31.8882 24.2286 31.8376L16.2536 28.9376C16.0622 28.8665 15.8971 28.7386 15.7806 28.571C15.664 28.4034 15.6016 28.2042 15.6016 28.0001C15.6016 27.7959 15.664 27.5967 15.7806 27.4291C15.8971 27.2615 16.0622 27.1336 16.2536 27.0626L24.2286 24.1626C24.366 24.1119 24.4909 24.032 24.5945 23.9284C24.6981 23.8249 24.7779 23.7 24.8286 23.5626L27.7286 15.5876C27.7996 15.3962 27.9275 15.2311 28.0951 15.1146C28.2627 14.998 28.4619 14.9355 28.6661 14.9355C28.8702 14.9355 29.0695 14.998 29.237 15.1146C29.4046 15.2311 29.5325 15.3962 29.6036 15.5876L32.5036 23.5626C32.5542 23.7 32.6341 23.8249 32.7377 23.9284C32.8413 24.032 32.9661 24.1119 33.1036 24.1626L41.0786 27.0626C41.27 27.1336 41.435 27.2615 41.5516 27.4291C41.6681 27.5967 41.7306 27.7959 41.7306 28.0001C41.7306 28.2042 41.6681 28.4034 41.5516 28.571C41.435 28.7386 41.27 28.8665 41.0786 28.9376L33.1036 31.8376C32.9661 31.8882 32.8413 31.9681 32.7377 32.0717C32.6341 32.1753 32.5542 32.3001 32.5036 32.4376V32.4376Z" stroke="black" stroke-width="3" stroke-linecap="round" stroke-linejoin="round"/>
</svg>
