<svg width="48" height="36" viewBox="0 0 48 36" fill="none" xmlns="http://www.w3.org/2000/svg">
<path d="M10.4 0C13.1733 0 15.5733 1.06667 17.6 3.2C19.7333 5.33333 20.8 8 20.8 11.2C20.8 15.8933 20.0533 19.84 18.56 23.04C17.0667 26.1333 15.4133 28.64 13.6 30.56C11.4667 32.8 9.06667 34.6133 6.4 36L3.2 32C4.37334 31.2533 5.49334 30.2933 6.56001 29.12C7.41334 28.16 8.21333 26.9867 8.96 25.6C9.70667 24.2133 10.1867 22.6133 10.4 20.8C7.62667 20.8 5.17333 19.7867 3.04 17.76C1.01333 15.6267 0 13.1733 0 10.4C0 7.62667 1.01333 5.22667 3.04 3.2C5.17333 1.06667 7.62667 0 10.4 0ZM36.8 0C39.5733 0 41.9733 1.06667 44 3.2C46.1333 5.33333 47.2 8 47.2 11.2C47.2 15.8933 46.4533 19.84 44.96 23.04C43.4667 26.1333 41.8133 28.64 40 30.56C37.8667 32.8 35.4667 34.6133 32.8 36L29.6 32C30.7733 31.2533 31.8933 30.2933 32.96 29.12C33.8133 28.16 34.6133 26.9867 35.36 25.6C36.1067 24.2133 36.5867 22.6133 36.8 20.8C34.0267 20.8 31.5733 19.7867 29.44 17.76C27.4133 15.6267 26.4 13.1733 26.4 10.4C26.4 7.62667 27.4133 5.22667 29.44 3.2C31.5733 1.06667 34.0267 0 36.8 0Z" fill="#FFB800"/>
</svg>
