<svg width="123" height="39" viewBox="0 0 123 39" fill="none" xmlns="http://www.w3.org/2000/svg">
<path fill-rule="evenodd" clip-rule="evenodd" d="M9.53429 39H12.3955V23.4H9.53429V39ZM20.0227 38.766H22.5854V28.9234L33.3724 39V23.634H30.8169V33.3084L20.0227 23.4V38.766ZM39.2227 34.9879C40.6175 36.0969 42.2917 36.738 44.0865 36.738C45.8348 36.738 47.0612 36.1237 47.0612 34.7673C47.0612 33.5851 46.279 33.122 44.9093 32.604L42.6917 31.8179C40.6473 31.0769 39.0925 29.9947 39.0925 27.5072C39.0925 24.8467 41.4462 23.4 44.2609 23.4C45.9853 23.4 47.5568 23.8424 48.7844 24.6261V27.2647C47.5079 26.3018 46.1107 25.6388 44.3158 25.6388C42.7706 25.6388 41.6158 26.2275 41.6158 27.4548C41.6158 28.5638 42.3407 29.0075 43.6172 29.4535L46.088 30.3383C48.4823 31.1976 49.5809 32.5297 49.5809 34.721C49.5809 37.4778 47.2045 39 44.0865 39C42.0373 39 40.295 38.415 39.2227 37.6764V34.9879ZM56.2564 39H59.1164V23.4H56.2564V39ZM72.5342 36.6393C75.7584 36.6393 77.4816 34.5284 77.4816 31.1963C77.4816 27.8399 75.7573 25.7363 72.5342 25.7363H69.3457V36.6393H72.5342ZM66.7424 23.4H72.6297C77.1616 23.4 80.0921 26.4469 80.0921 31.1963C80.0921 35.9495 77.1616 39 72.6297 39H66.7424V23.4ZM94.3959 23.4V25.7363H87.4733V29.4901H93.6818V31.7996H87.4721V36.6393H94.3959V39H84.8604V23.4H94.3959ZM104.549 30.4639H107.387C109.068 30.4639 110.015 29.523 110.015 28.0763C110.015 26.6297 109.068 25.6876 107.387 25.6876H104.549V30.4651V30.4639ZM104.549 32.6698V39H102.023V23.4H107.435C110.521 23.4 112.518 25.0222 112.518 28.0763C112.518 30.6881 111.409 32.1884 109.048 32.5735L114.419 39H111.545L106.346 32.671H104.55L104.549 32.6698ZM8.53477 8.03156C9.65371 7.61353 10.5255 6.35944 10.5255 4.63491C10.5255 1.76109 8.53477 0.271781 5.3499 0.271781H0V16.3142H5.84668C9.03154 16.3142 11.0222 14.7201 11.0222 11.7158C11.0222 10.0169 9.97733 8.52759 8.53477 8.03156ZM2.51254 7.01269V2.62397H5.32602C7.0934 2.62397 8.03799 3.27722 8.03799 4.79212C8.03799 6.30703 7.0922 7.01269 5.32602 7.01269H2.51254ZM2.51254 9.26006H5.79652C7.54002 9.26006 8.48461 10.1473 8.48461 11.611C8.48461 13.0479 7.53883 13.9632 5.79772 13.9632H2.51374V9.25884L2.51254 9.26006ZM22.6953 16.575C26.353 16.575 28.8166 14.3276 28.8166 9.93891V0.271781H26.2289V9.62447C26.2289 12.7079 24.9845 14.146 22.6953 14.146C20.4061 14.146 19.1629 12.7079 19.1629 9.62447V0.271781H16.5751V9.91209C16.5751 14.3276 19.0626 16.575 22.6953 16.575ZM34.9093 15.1637C35.9793 15.9486 37.7216 16.575 39.7612 16.575C42.8721 16.575 45.2353 14.9541 45.2353 12.0291C45.2353 9.70369 44.1415 8.29237 41.7519 7.37831L39.2895 6.43744C38.0201 5.96822 37.2989 5.49778 37.2989 4.32169C37.2989 3.01519 38.4429 2.38875 39.9857 2.38875C41.777 2.38875 43.1706 3.09319 44.44 4.11328V1.31625C43.2208 0.481406 41.6528 0.0109687 39.9356 0.0109687C37.1245 0.0109687 34.7851 1.55269 34.7851 4.37409C34.7851 7.01269 36.328 8.16197 38.3676 8.94563L40.5828 9.78169C41.9514 10.3301 42.7228 10.8274 42.7228 12.0815C42.7228 13.5184 41.5035 14.1716 39.7612 14.1716C37.97 14.1716 36.3029 13.4916 34.9093 12.3167V15.1637ZM54.4818 0.271781H51.8953V16.313H54.4818V0.271781ZM61.8642 16.2935H64.3577V5.85731L74.8521 16.5421V0.247406H72.3658V10.5056L61.8642 0V16.2935ZM91.0224 0.275438V2.67759H84.304V6.53859H90.3286V8.91394H84.304V13.8901H91.0224V16.3178H81.7675V0.275438H91.0224ZM97.047 15.1527C98.117 15.9376 99.8581 16.564 101.899 16.564C105.009 16.564 107.373 14.9443 107.373 12.0181C107.373 9.69272 106.278 8.28263 103.89 7.36734L101.426 6.42769C100.157 5.95725 99.4353 5.48681 99.4353 4.31072C99.4353 3.00422 100.579 2.37778 102.122 2.37778C103.914 2.37778 105.307 3.08344 106.577 4.10231V1.3065C105.357 0.470438 103.789 0 102.072 0C99.261 0 96.9216 1.54172 96.9216 4.36312C96.9216 7.00172 98.4645 8.151 100.504 8.93466L102.719 9.77072C104.088 10.3192 104.859 10.8164 104.859 12.0705C104.859 13.5074 103.641 14.1607 101.898 14.1607C100.106 14.1607 98.4394 13.4818 97.047 12.3057V15.1527ZM112.674 15.1527C113.744 15.9376 115.486 16.564 117.526 16.564C120.637 16.564 123 14.9443 123 12.0181C123 9.69272 121.905 8.28263 119.517 7.36734L117.053 6.42769C115.785 5.95725 115.062 5.48681 115.062 4.31072C115.062 3.00422 116.208 2.37778 117.749 2.37778C119.54 2.37778 120.935 3.08344 122.203 4.10231V1.3065C120.985 0.470438 119.417 0 117.7 0C114.888 0 112.55 1.54172 112.55 4.36312C112.55 7.00172 114.093 8.151 116.132 8.93466L118.347 9.77072C119.716 10.3192 120.487 10.8164 120.487 12.0705C120.487 13.5074 119.268 14.1607 117.526 14.1607C115.735 14.1607 114.068 13.4818 112.674 12.3057V15.1527Z" fill="#185F7D"/>
</svg>
