<svg width="125" height="36" viewBox="0 0 125 36" fill="none" xmlns="http://www.w3.org/2000/svg">
<g clip-path="url(#clip0)">
<path d="M32.3467 0H37.9967V35.3129H32.3467V0ZM57.772 24.0128C57.772 29.3803 53.2519 29.8041 51.8394 29.8041C48.4494 29.8041 47.8844 26.6966 47.8844 24.719V11.3001H42.2343V24.719C42.2343 28.1091 43.2231 30.7928 45.0593 32.6291C46.7543 34.3241 49.1556 35.1716 51.6981 35.1716C53.5344 35.1716 56.2182 34.6066 57.6307 33.3354V35.3129H63.2808V11.3001H57.6307V24.0128H57.772ZM74.7222 2.82503H69.0721V11.3001H64.8345V16.9502H69.0721V35.3129H74.7222V16.9502H78.9597V11.3001H74.7222V2.82503ZM96.7574 28.1091C95.4861 29.2391 93.9324 29.8041 92.0961 29.8041C88.1411 29.8041 85.316 26.9791 85.316 23.024C85.316 19.069 88.1411 16.2439 92.0961 16.2439C93.7911 16.2439 95.4861 16.8089 96.7574 17.939L97.6049 18.6452L101.419 14.8314L100.43 13.9839C98.1699 12.0064 95.2036 10.8764 92.0961 10.8764C85.0335 10.8764 79.9485 15.9614 79.9485 23.024C79.9485 29.9453 85.1748 35.3129 92.0961 35.3129C95.3449 35.3129 98.3112 34.1829 100.571 32.0641L101.56 31.2166L97.7462 27.4028L96.7574 28.1091ZM121.618 13.4189C119.923 11.7239 118.086 10.8764 115.403 10.8764C113.566 10.8764 111.448 11.4414 110.035 12.7126V0H104.385V35.3129H110.035V22.0352C110.035 16.6677 113.849 16.2439 115.261 16.2439C118.651 16.2439 118.51 19.3515 118.51 21.329V35.3129H124.16V21.329C124.16 17.939 123.454 15.2552 121.618 13.4189Z" fill="#0D323C"/>
<path d="M24.4368 26.4141C22.318 28.6741 19.3517 29.8041 16.2442 29.8041C9.88786 29.8041 5.36781 24.8603 5.36781 18.0802C5.36781 11.3001 9.88786 6.35633 16.2442 6.35633C19.3517 6.35633 22.1767 7.48634 24.2955 9.74637L25.143 10.5939L28.9568 6.78009L28.1093 5.93258C25.0018 2.68379 20.7642 0.98877 16.2442 0.98877C6.92157 0.98877 0.000244141 8.33385 0.000244141 18.2215C0.000244141 27.9678 7.06282 35.3129 16.2442 35.3129C20.7642 35.3129 25.0018 33.4766 28.2506 30.3691L29.0981 29.5216L25.2843 25.7078C25.2843 25.5665 24.4368 26.4141 24.4368 26.4141Z" fill="#0D323C"/>
<path d="M91.9548 26.9789C94.1391 26.9789 95.9098 25.2082 95.9098 23.0239C95.9098 20.8396 94.1391 19.0688 91.9548 19.0688C89.7705 19.0688 87.9998 20.8396 87.9998 23.0239C87.9998 25.2082 89.7705 26.9789 91.9548 26.9789Z" fill="#FF2A24"/>
</g>
<defs>
<clipPath id="clip0">
<rect width="124.16" height="35.3129" fill="white"/>
</clipPath>
</defs>
</svg>
