<svg width="115" height="57" viewBox="0 0 115 57" fill="none" xmlns="http://www.w3.org/2000/svg">
<path d="M72.7888 20.6971C72.7888 29.0706 65.9444 35.8508 57.5022 35.8508C49.06 35.8508 42.2156 29.0659 42.2156 20.6971C42.2156 12.3283 49.06 5.54346 57.5022 5.54346C65.9444 5.54346 72.7888 12.3283 72.7888 20.6971Z" fill="#CD5C3E"/>
<path d="M59.5369 20.6972H55.206V16.1515H59.5369C60.7983 16.1515 61.8308 17.175 61.8308 18.4255C61.8308 19.676 60.7983 20.6995 59.5369 20.6995V20.6972ZM59.5369 13.1226H52.1482V28.2509H55.2083V23.7052H59.5392C60.2419 23.7052 60.9376 23.568 61.5868 23.3015C62.2359 23.0349 62.8258 22.6442 63.3226 22.1517C63.8195 21.6592 64.2136 21.0745 64.4825 20.431C64.7514 19.7874 64.8898 19.0977 64.8898 18.4012C64.8898 17.7047 64.7514 17.0149 64.4825 16.3714C64.2136 15.7279 63.8195 15.1432 63.3226 14.6507C62.8258 14.1582 62.2359 13.7675 61.5868 13.5009C60.9376 13.2344 60.2419 13.0972 59.5392 13.0972" fill="white"/>
<path d="M10.9557 43.1916C10.9557 42.1959 10.1802 41.5706 9.18041 41.5706H6.49404V44.7477H9.18041C10.1849 44.7477 10.9557 44.1456 10.9557 43.1661V43.1916ZM3.95483 51.4261V39.3846H9.54248C12.1401 39.3846 13.551 41.1168 13.551 43.1939C13.551 45.271 12.1494 46.987 9.54248 46.987H6.50572V51.4284L3.95483 51.4261ZM15.0834 51.4261V42.6266H17.361V43.7844C17.9847 43.0434 19.0476 42.4135 20.1244 42.4135V44.6134C19.9609 44.5833 19.76 44.5671 19.5007 44.5671C18.7415 44.5671 17.7394 44.9885 17.3984 45.5466V51.4168H15.1044L15.0834 51.4261ZM27.7607 46.9244C27.7607 45.5999 26.9712 44.4397 25.5416 44.4397C24.1283 44.4397 23.3387 45.5976 23.3387 46.9244C23.3387 48.2791 24.1283 49.4253 25.5416 49.4253C26.9548 49.4253 27.7607 48.2675 27.7607 46.9244ZM20.9724 46.9244C20.9724 44.4999 22.6893 42.439 25.5276 42.439C28.4008 42.439 30.1131 44.5231 30.1131 46.9244C30.1131 49.3258 28.3961 51.4261 25.5276 51.4261C22.687 51.4261 20.9724 49.3489 20.9724 46.9244ZM37.7914 48.4435V45.4169C37.4107 44.845 36.5907 44.4374 35.8479 44.4374C34.5397 44.4374 33.6451 45.447 33.6451 46.9221C33.6451 48.4134 34.5421 49.423 35.8479 49.423C36.5954 49.423 37.413 49.0155 37.7914 48.4435ZM37.7914 51.4238V50.1131C37.107 50.9699 36.1562 51.4238 35.1191 51.4238C32.9466 51.4238 31.2927 49.7982 31.2927 46.9221C31.2927 44.1364 32.9186 42.4367 35.1191 42.4367C35.6371 42.4314 36.1491 42.5474 36.6134 42.7751C37.0777 43.0028 37.4813 43.3359 37.7914 43.7473V39.3823H40.0853V51.4238H37.7914Z" fill="#CD5C3E"/>
<path d="M48.1375 51.4263V50.1295C47.5441 50.7617 46.5116 51.4263 45.1007 51.4263C43.2016 51.4263 42.3069 50.4027 42.3069 48.7308V42.6499H44.5845V47.8439C44.5845 49.0342 45.2082 49.4255 46.1799 49.4255C47.0606 49.4255 47.759 48.9439 48.1538 48.446V42.6499H50.4314V51.4494L48.1375 51.4263Z" fill="#CD5C3E"/>
<path d="M52.1155 46.9244C52.1155 44.3077 54.045 42.439 56.701 42.439C58.4763 42.439 59.5415 43.2078 60.1185 43.9905L58.6305 45.3752C58.2194 44.7731 57.598 44.4559 56.8084 44.4559C55.4256 44.4559 54.4725 45.4516 54.4725 46.9406C54.4725 48.4296 55.4442 49.4415 56.8084 49.4415C57.1662 49.4467 57.5197 49.3643 57.8376 49.2015C58.1554 49.0387 58.4278 48.8006 58.6305 48.5083L60.1185 49.8931C59.5415 50.6758 58.4787 51.4585 56.701 51.4585C54.0427 51.4284 52.1155 49.5596 52.1155 46.9267" fill="#CD5C3E"/>
<path d="M62.0785 49.0618V44.6065H60.6536V42.6335H62.0785V40.2993H64.3561V42.6474H66.1034V44.6203H64.3561V48.4736C64.3561 49.0294 64.6457 49.4369 65.1456 49.4369C65.4797 49.4369 65.8137 49.3165 65.9352 49.166L66.4211 50.8796C66.087 51.1806 65.4797 51.4353 64.5219 51.4353C62.9101 51.4214 62.0762 50.6063 62.0762 49.0572" fill="#CD5C3E"/>
<path d="M80.6473 51.4262V46.2322H75.0129V51.4262H72.4761V39.3848H75.0129V44.0392H80.6473V39.3848H83.2169V51.4262H80.6473Z" fill="#CD5C3E"/>
<path d="M91.3599 51.4263V50.1295C90.7666 50.7617 89.7341 51.4263 88.3231 51.4263C86.424 51.4263 85.5293 50.4027 85.5293 48.7308V42.6499H87.8069V47.8439C87.8069 49.0342 88.4306 49.4255 89.4023 49.4255C90.283 49.4255 90.9815 48.9439 91.3762 48.446V42.6499H93.6538V51.4494L91.3599 51.4263Z" fill="#CD5C3E"/>
<path d="M101.694 51.4261V46.0353C101.694 44.845 101.071 44.4375 100.099 44.4375C99.2019 44.4375 98.5198 44.9353 98.125 45.4332V51.4238H95.8474V42.6243H98.125V43.7242C98.6856 43.0921 99.7508 42.4136 101.148 42.4136C103.063 42.4136 103.974 43.4834 103.974 45.1391V51.4007L101.694 51.4261Z" fill="#CD5C3E"/>
<path d="M106.707 49.0618V44.6065H105.282V42.6335H106.707V40.2993H108.985V42.6474H110.732V44.6203H108.985V48.4736C108.985 49.0294 109.275 49.4369 109.775 49.4369C110.109 49.4369 110.443 49.3165 110.564 49.166L111.05 50.8796C110.716 51.1806 110.109 51.4353 109.151 51.4353C107.539 51.4214 106.705 50.6063 106.705 49.0572" fill="#CD5C3E"/>
</svg>
