<svg width="83" height="20" viewBox="0 0 83 20" fill="none" xmlns="http://www.w3.org/2000/svg">
<g clip-path="url(#clip0)">
<path d="M82.4818 18.5028V13.7754H72.4096L82.4818 3.81385L79.0675 0.437073L68.9954 10.3986V0.437073H64.2153V18.5028H82.4818Z" fill="black"/>
<path d="M7.02623 0.0994263C11.2941 0.0994263 13.6841 2.63201 13.6841 6.34647V6.85298H9.41624V6.51531C9.41624 4.65808 8.56267 3.64504 6.85552 3.64504C5.14837 3.64504 4.97765 4.15156 4.97765 5.1646C4.97765 6.17763 5.4898 6.51531 6.34337 6.85298L9.07481 7.69718C12.1477 8.71021 13.6841 10.0609 13.6841 13.1C13.6841 16.1391 10.9527 18.8406 7.19695 18.8406C3.44122 18.8406 0.539062 16.4768 0.539062 12.5935V12.087H4.63622V12.4247C4.63622 14.2819 5.66051 15.2949 7.36766 15.2949C9.07481 15.2949 9.41624 14.7884 9.41624 13.6065C9.41624 12.4247 8.9041 12.2558 7.87981 11.9182L4.97765 11.074C2.58764 10.2298 0.709777 8.87905 0.709777 5.67111C0.709777 2.46317 3.09979 0.0994263 7.02623 0.0994263Z" fill="black"/>
<path d="M23.2439 9.04786L28.536 18.334H23.756L20.6832 12.9312L17.781 18.5028H13.001L18.2931 9.2167L13.3424 0.437073H18.2931L21.0246 5.50224L23.756 0.437073H28.3653L23.2439 9.04786Z" fill="black"/>
<path d="M34.5106 0.099411C38.7785 0.099411 41.1685 2.632 41.1685 6.34645V6.85297H37.0713V6.51529C37.0713 4.65806 36.2178 3.64503 34.5106 3.64503C32.8035 3.64503 32.6327 4.32039 32.6327 5.33342C32.6327 6.34645 33.1449 6.68413 33.9985 7.02181L36.7299 7.866C39.8028 8.87904 41.3392 10.2298 41.3392 13.2689C41.3392 16.308 38.6078 19.0094 34.852 19.0094C31.0963 19.0094 28.0234 16.6456 28.0234 12.7623V12.087H32.1206V12.4247C32.1206 14.2819 33.1449 15.2949 34.852 15.2949C36.5592 15.2949 36.9006 14.7884 36.9006 13.6065C36.9006 12.4247 36.3885 12.2558 35.3642 11.9181L32.6327 11.0739C30.072 10.2298 28.3649 8.87904 28.3649 5.6711C28.3649 2.46316 30.5842 0.099411 34.5106 0.099411Z" fill="black"/>
<path d="M53.9724 0.437073L55.6796 12.087H55.8503L57.7282 0.437073H61.996L58.5817 18.334H53.4603L51.7532 6.85295H51.5824L49.8753 18.334H44.9246L41.5103 0.437073H46.1196L47.9974 12.087H48.1681L49.8753 0.437073H53.9724Z" fill="black"/>
<path d="M60.4597 18.334C60.0841 18.334 59.7769 18.0301 59.7769 17.6587C59.7769 17.2872 60.0841 16.9833 60.4597 16.9833C60.8353 16.9833 61.1426 17.2872 61.1426 17.6587C61.1426 18.0301 60.8353 18.334 60.4597 18.334ZM60.4597 17.1521C60.1695 17.1521 59.9476 17.3716 59.9476 17.6587C59.9476 17.9457 60.1695 18.1652 60.4597 18.1652C60.7499 18.1652 60.9719 17.9457 60.9719 17.6587C60.9719 17.3716 60.7499 17.1521 60.4597 17.1521ZM60.6304 17.9963H60.289V17.321H60.6304V17.9963Z" fill="black"/>
</g>
<defs>
<clipPath id="clip0">
<rect width="81.9432" height="18.91" fill="white" transform="translate(0.539062 0.0994263)"/>
</clipPath>
</defs>
</svg>
