<svg width="483" height="394" viewBox="0 0 483 394" fill="none" xmlns="http://www.w3.org/2000/svg">
<path fill-rule="evenodd" clip-rule="evenodd" d="M445.4 257.9L271.6 157.3C262.8 152.2 248.7 152.2 240 157.3L211.2 174L7 293.1L152.6 377.4C189.7 398.9 235.4 398.8 272.5 377.2L416.8 293.1L445.5 276.3C454.2 271.2 454.2 263 445.4 257.9Z" fill="#005D63"/>
<path fill-rule="evenodd" clip-rule="evenodd" d="M418 221.4C417.4 221.4 416.9 221.1 416.6 220.6C416.1 219.8 416.4 218.8 417.2 218.3L446 201.6C449.7 199.5 451.7 196.7 451.7 193.9C451.7 191 449.6 188.3 445.9 186.1L271.4 85.2998C263.1 80.4998 249.6 80.4998 241.3 85.2998L212.5 102.1C211.7 102.6 210.7 102.3 210.2 101.5C209.7 100.7 210 99.6998 210.8 99.1998L239.6 82.3998C248.8 77.0998 263.8 77.0998 273 82.3998L447.5 183.2C452.3 186 455 189.8 455 193.9C455 198 452.4 201.7 447.6 204.5L418.8 221.3C418.5 221.4 418.3 221.4 418 221.4Z" fill="black"/>
<path fill-rule="evenodd" clip-rule="evenodd" d="M417 221.8L272.2 306.2C235 327.9 189.2 327.9 152 306.4L6 221.9L210.8 102.5" fill="white"/>
<path fill-rule="evenodd" clip-rule="evenodd" d="M132.4 129.7C137.7 126.7 142 129.1 142 135C142 140.9 137.7 148.1 132.5 151.1L11.6 219.1C6.30001 222.1 2 219.7 2 213.8C2 207.9 6.2 200.7 11.5 197.7L132.4 129.7Z" fill="#C2D8DA"/>
<path fill-rule="evenodd" clip-rule="evenodd" d="M212.5 322.4C191.5 322.4 170.5 317 151.7 306.2L5.79999 222.2C5.29999 221.9 5 221.4 5 220.8C5 220.2 5.29999 219.7 5.79999 219.4L210.5 100.7C211.3 100.2 212.3 100.5 212.8 101.3C213.3 102.1 213 103.1 212.2 103.6L10 220.8L153.4 303.4C190 324.5 235.4 324.4 271.9 303.2L416.5 219.3C417.3 218.8 418.3 219.1 418.8 219.9C419.3 220.7 419 221.7 418.2 222.2L273.5 306.1C254.7 317 233.6 322.4 212.5 322.4Z" fill="black"/>
<path fill-rule="evenodd" clip-rule="evenodd" d="M64 253.4C64 253.4 100.6 278.7 137.8 268.4C175.1 258.1 211.8 256.6 229.4 265.8C247 275 286.1 297 314 280.5C314 280.5 263.7 312.1 247.9 316C232 319.8 200.4 330.2 152.7 305.3C104.9 280.4 64 253.4 64 253.4Z" fill="black"/>
<path fill-rule="evenodd" clip-rule="evenodd" d="M117.3 104.7C122.6 101.8 127 104.1 127 110C127 115.9 122.7 123 117.4 126L82.7 145.2C77.4 148.1 73 145.8 73 139.9C73 134 77.3 126.9 82.6 123.9L117.3 104.7Z" fill="#C2D8DA"/>
<path fill-rule="evenodd" clip-rule="evenodd" d="M147.3 52.7003C152.6 49.8003 156.9 52.1003 157 58.0003C157 63.9003 152.7 71.0003 147.4 73.9003L112.7 93.1003C107.4 96.0003 103 93.7003 103 87.8003C103 81.9003 107.3 74.8003 112.6 71.8003L147.3 52.7003Z" fill="#005D63"/>
<path fill-rule="evenodd" clip-rule="evenodd" d="M123.3 33.7003L106.7 43.1003C102 45.7003 98.1 52.4003 98.1 57.7003C98.1 59.8003 98.7 61.3003 99.8 62.0003C101 62.7003 102.7 62.4003 104.6 61.3003L121.2 51.9003C125.9 49.3003 129.8 42.6003 129.8 37.3003C129.8 35.2003 129.2 33.7003 128.1 33.0003C127 32.3003 125.2 32.6003 123.3 33.7003ZM101.4 66.4003C100.1 66.4003 98.9 66.1003 97.8 65.4003C95.4 64.0003 94 61.2003 94 57.5003C94 50.7003 98.7 42.7003 104.7 39.3003L121.3 29.9003C124.6 28.0003 127.8 27.8003 130.3 29.3003C132.7 30.7003 134.1 33.5003 134.1 37.2003C134.1 44.0003 129.4 52.0003 123.4 55.4003L106.8 64.8003C104.9 65.9003 103.1 66.4003 101.4 66.4003Z" fill="black"/>
<mask id="mask0" mask-type="alpha" maskUnits="userSpaceOnUse" x="0" y="136" width="68" height="54">
<path fill-rule="evenodd" clip-rule="evenodd" d="M0 136H67.8V189.3H0V136Z" fill="white"/>
</mask>
<g mask="url(#mask0)">
<path fill-rule="evenodd" clip-rule="evenodd" d="M60.4 140.2C59.4 140.2 58.3 140.5 57.1 141.2L12.8 166.1C8.09999 168.7 4.20001 175.3 4.20001 180.5C4.20001 182.6 4.79999 184.1 5.89999 184.7C7.09999 185.4 8.79999 185.1 10.8 184.1L55.1 159.2C59.8 156.6 63.7 150 63.7 144.7C63.7 142.6 63.1 141.1 62 140.5C61.5 140.3 61 140.2 60.4 140.2ZM7.39999 189.3C6.09999 189.3 4.89999 189 3.79999 188.3C1.39999 186.9 0 184.1 0 180.5C0 173.8 4.70001 165.8 10.7 162.4L55 137.5C58.3 135.6 61.5 135.4 64 136.9C66.4 138.3 67.8 141.1 67.8 144.7C67.8 151.5 63.1 159.4 57.1 162.8L12.8 187.7C11 188.8 9.09999 189.3 7.39999 189.3Z" fill="black"/>
</g>
<path fill-rule="evenodd" clip-rule="evenodd" d="M84.4 87.6997C89.7 84.6997 94 87.0997 94 93.0997C94 99.0997 89.7 106.4 84.5 109.4L11.6 151.1C6.30001 154.1 2 151.7 2 145.7C2 139.7 6.2 132.4 11.5 129.4L84.4 87.6997Z" fill="#C2D8DA"/>
<path fill-rule="evenodd" clip-rule="evenodd" d="M74.3 60.7003C79.6 57.7003 84 60.1003 84 66.0003C84 71.9003 79.7 79.1003 74.4 82.1003L11.7 117.1C6.40001 120.1 2 117.7 2 111.8C2 105.9 6.30001 98.7003 11.6 95.7003L74.3 60.7003Z" fill="#005D63"/>
<path fill-rule="evenodd" clip-rule="evenodd" d="M292.6 114.5L309.2 105.2L300.8 81.5004L292.6 114.5ZM309.1 60.4004L333 119.7L317.6 128.3L313.4 116.1L288.5 130L284.4 146.8L269 155.4L292.5 69.7004L309.1 60.4004Z" fill="#005D63"/>
<path fill-rule="evenodd" clip-rule="evenodd" d="M270.8 155.4L237 136L260.2 49.4004L294 68.9004L270.8 155.4Z" fill="white"/>
<path fill-rule="evenodd" clip-rule="evenodd" d="M258.2 55.3004C258.1 55.3004 258.1 55.3004 258 55.3004C257.6 55.2004 257.4 54.8004 257.5 54.5004L258.7 50.1004C258.8 49.9004 258.9 49.7004 259.1 49.6004C259.3 49.5004 259.5 49.5004 259.7 49.6004L261.7 50.7004C262 50.9004 262.1 51.3004 262 51.6004C261.8 51.9004 261.4 52.0004 261.1 51.9004L259.9 51.2004L258.9 54.8004C258.8 55.1004 258.5 55.3004 258.2 55.3004ZM254.6 68.6004C254.5 68.6004 254.5 68.6004 254.4 68.6004C254 68.5004 253.8 68.1004 253.9 67.8004L255.7 61.1004C255.8 60.7004 256.2 60.5004 256.5 60.6004C256.9 60.7004 257.1 61.1004 257 61.4004L255.2 68.1004C255.2 68.4004 254.9 68.6004 254.6 68.6004ZM292.2 74.4004C292.1 74.4004 292.1 74.4004 292 74.4004C291.6 74.3004 291.4 73.9004 291.5 73.6004L292.5 69.9004L290.8 68.9004C290.5 68.7004 290.4 68.3004 290.5 68.0004C290.7 67.7004 291.1 67.6004 291.4 67.7004L293.6 68.9004C293.9 69.1004 294 69.4004 293.9 69.7004L292.8 73.9004C292.7 74.2004 292.5 74.4004 292.2 74.4004ZM251 81.9004C250.9 81.9004 250.9 81.9004 250.8 81.9004C250.4 81.8004 250.2 81.4004 250.3 81.1004L252.1 74.4004C252.2 74.0004 252.6 73.8004 252.9 73.9004C253.3 74.0004 253.5 74.4004 253.4 74.7004L251.6 81.4004C251.6 81.7004 251.3 81.9004 251 81.9004ZM288.6 87.7004C288.5 87.7004 288.5 87.7004 288.4 87.7004C288 87.6004 287.8 87.2004 287.9 86.9004L289.7 80.3004C289.8 79.9004 290.2 79.7004 290.5 79.8004C290.9 79.9004 291.1 80.3004 291 80.6004L289.2 87.2004C289.2 87.5004 288.9 87.7004 288.6 87.7004ZM247.4 95.2004C247.3 95.2004 247.3 95.2004 247.2 95.2004C246.8 95.1004 246.6 94.7004 246.7 94.4004L248.5 87.7004C248.6 87.3004 249 87.1004 249.3 87.2004C249.7 87.3004 249.9 87.7004 249.8 88.0004L248 94.7004C248 95.0004 247.7 95.2004 247.4 95.2004ZM285 101C284.9 101 284.9 101 284.8 101C284.4 100.9 284.2 100.5 284.3 100.2L286.1 93.6004C286.2 93.2004 286.6 93.0004 286.9 93.1004C287.3 93.2004 287.5 93.6004 287.4 93.9004L285.6 100.5C285.6 100.8 285.3 101 285 101ZM243.9 108.5C243.8 108.5 243.8 108.5 243.7 108.5C243.3 108.4 243.1 108 243.2 107.7L245 101.1C245.1 100.7 245.5 100.5 245.8 100.6C246.2 100.7 246.4 101.1 246.3 101.4L244.5 108C244.4 108.3 244.2 108.5 243.9 108.5ZM281.4 114.3C281.3 114.3 281.3 114.3 281.2 114.3C280.8 114.2 280.6 113.8 280.7 113.5L282.5 106.8C282.6 106.4 283 106.2 283.3 106.3C283.7 106.4 283.9 106.8 283.8 107.1L282 113.7C282 114.1 281.7 114.3 281.4 114.3ZM240.3 121.8C240.2 121.8 240.2 121.8 240.1 121.8C239.7 121.7 239.5 121.3 239.6 121L241.4 114.4C241.5 114 241.9 113.8 242.2 113.9C242.6 114 242.8 114.4 242.7 114.7L240.9 121.3C240.9 121.6 240.6 121.8 240.3 121.8ZM277.8 127.6C277.7 127.6 277.7 127.6 277.6 127.6C277.2 127.5 277 127.1 277.1 126.8L278.9 120.2C279 119.8 279.4 119.6 279.7 119.7C280.1 119.8 280.3 120.2 280.2 120.5L278.4 127.2C278.4 127.4 278.1 127.6 277.8 127.6ZM236.7 135.1C236.6 135.1 236.6 135.1 236.5 135.1C236.1 135 235.9 134.6 236 134.3L237.8 127.7C237.9 127.3 238.3 127.1 238.6 127.2C239 127.3 239.2 127.7 239.1 128L237.3 134.6C237.3 134.9 237 135.1 236.7 135.1ZM274.2 140.9C274.1 140.9 274.1 140.9 274 140.9C273.6 140.8 273.4 140.4 273.5 140.1L275.3 133.4C275.4 133 275.8 132.8 276.1 132.9C276.5 133 276.7 133.4 276.6 133.7L274.8 140.4C274.8 140.7 274.5 140.9 274.2 140.9ZM246.2 142.8C246.1 142.8 246 142.8 245.9 142.7L239.9 139.3C239.6 139.1 239.5 138.7 239.6 138.4C239.8 138.1 240.2 138 240.5 138.1L246.5 141.5C246.8 141.7 246.9 142.1 246.8 142.4C246.7 142.7 246.5 142.8 246.2 142.8ZM258.1 149.6C258 149.6 257.9 149.6 257.8 149.5L251.8 146.1C251.5 145.9 251.4 145.5 251.5 145.2C251.7 144.9 252.1 144.8 252.4 144.9L258.4 148.3C258.7 148.5 258.8 148.9 258.7 149.2C258.6 149.5 258.4 149.6 258.1 149.6ZM270.6 154.2C270.5 154.2 270.5 154.2 270.4 154.2C270 154.1 269.8 153.7 269.9 153.4L271.7 146.8C271.8 146.4 272.2 146.2 272.5 146.3C272.9 146.4 273.1 146.8 273 147.1L271.2 153.7C271.2 154 270.9 154.2 270.6 154.2ZM270 156.4C269.9 156.4 269.8 156.4 269.7 156.3L263.7 152.9C263.4 152.7 263.3 152.3 263.4 152C263.6 151.7 264 151.6 264.3 151.7L270.3 155.1C270.6 155.3 270.7 155.7 270.6 156C270.5 156.3 270.3 156.4 270 156.4Z" fill="black"/>
<path fill-rule="evenodd" clip-rule="evenodd" d="M292.7 69.4004L260 49.5L275.3 41.4004L309 60.3004L292.7 69.4004Z" fill="white"/>
<path fill-rule="evenodd" clip-rule="evenodd" d="M278.6 44.5998C278.5 44.5998 278.4 44.5998 278.3 44.4998L275.4 42.8998L273 44.1998C272.7 44.3998 272.3 44.2998 272.1 43.8998C271.9 43.5998 272 43.1998 272.4 42.9998L275.1 41.4998C275.3 41.3998 275.6 41.3998 275.8 41.4998L279.1 43.2998C279.4 43.4998 279.5 43.8998 279.4 44.1998C279.1 44.4998 278.8 44.5998 278.6 44.5998ZM259.399 50.699C259.199 50.699 258.899 50.599 258.799 50.399C258.762 50.3265 258.499 49.999 259.099 49.499L265.099 46.199C265.399 45.999 265.799 46.099 265.999 46.499C266.199 46.799 266.099 47.199 265.699 47.399L259.699 50.699C259.599 50.699 259.499 50.699 259.399 50.699ZM290.5 51.0998C290.4 51.0998 290.3 51.0998 290.2 50.9998L284.2 47.6998C283.9 47.4998 283.8 47.0998 283.9 46.7998C284.1 46.4998 284.5 46.3998 284.8 46.4998L290.8 49.7998C291.1 49.9998 291.2 50.3998 291.1 50.6998C291 50.9998 290.8 51.0998 290.5 51.0998ZM269 57.2998C268.9 57.2998 268.8 57.2998 268.7 57.1998L262.7 53.8998C262.4 53.6998 262.3 53.2998 262.4 52.9998C262.6 52.6998 263 52.5998 263.3 52.7998L269.3 56.0998C269.6 56.2998 269.7 56.6998 269.6 56.9998C269.4 57.1998 269.2 57.2998 269 57.2998ZM302.5 57.6998C302.4 57.6998 302.3 57.6998 302.2 57.5998L296.2 54.2998C295.9 54.0998 295.8 53.6998 295.9 53.3998C296.1 53.0998 296.5 52.9998 296.8 53.0998L302.8 56.3998C303.1 56.5998 303.2 56.9998 303.1 57.2998C302.9 57.5998 302.7 57.6998 302.5 57.6998ZM280.9 63.8998C280.8 63.8998 280.7 63.8998 280.6 63.7998L274.6 60.4998C274.3 60.2998 274.2 59.8998 274.3 59.5998C274.5 59.2998 274.9 59.1998 275.2 59.3998L281.2 62.6998C281.5 62.8998 281.6 63.2998 281.5 63.5998C281.4 63.7998 281.1 63.8998 280.9 63.8998ZM304.2 64.1998C304 64.1998 303.7 64.0998 303.6 63.8998C303.4 63.5998 303.5 63.1998 303.9 62.9998L308 60.7998C307.8 60.5998 307.7 60.2998 307.9 59.9998C308.1 59.6998 308.5 59.5998 308.8 59.7998L309.7 60.2998C309.9 60.3998 310 60.5998 310 60.8998C310 61.0998 309.9 61.3998 309.6 61.4998L304.5 64.2998C304.4 64.1998 304.3 64.1998 304.2 64.1998ZM292.8 70.3998C292.7 70.3998 292.6 70.3998 292.5 70.2998L286.5 66.9998C286.2 66.7998 286.1 66.3998 286.2 66.0998C286.4 65.7998 286.8 65.6998 287.1 65.7998L292.7 68.8998L297.8 66.0998C298.1 65.8998 298.5 65.9998 298.7 66.3998C298.9 66.6998 298.8 67.0998 298.4 67.2998L293 70.1998C293.1 70.3998 293 70.3998 292.8 70.3998Z" fill="black"/>
<path fill-rule="evenodd" clip-rule="evenodd" d="M186.8 146.5L219 128.2L202.8 81.3004L186.8 146.5ZM218.7 39.4004L265 156.7L235.2 173.7L227.1 149.6L178.9 177.1L170.9 210.4L141 227.4L186.5 57.7004L218.7 39.4004Z" fill="#005D63"/>
<path fill-rule="evenodd" clip-rule="evenodd" d="M141.4 226.4L75 188.7L120.6 20.4004L187 58.2004L141.4 226.4Z" fill="white"/>
<path fill-rule="evenodd" clip-rule="evenodd" d="M187 58.4004L120.5 20.5L153 1.40039L219 39.9004L187 58.4004Z" fill="white"/>
<path fill-rule="evenodd" clip-rule="evenodd" d="M117.7 30.7996C117.6 30.7996 117.5 30.7996 117.3 30.7996C116.6 30.5996 116.2 29.8996 116.4 29.0996L118.8 20.3996C118.9 19.9996 119.2 19.6996 119.6 19.4996C120 19.2996 120.4 19.3996 120.8 19.5996L124.7 21.7996C125.3 22.1996 125.6 22.9996 125.2 23.5996C124.8 24.1996 124 24.4996 123.4 24.0996L121 22.6996L119.1 29.6996C118.8 30.3996 118.2 30.7996 117.7 30.7996ZM147.3 37.5996C147.1 37.5996 146.8 37.4996 146.6 37.3996L134.9 30.7996C134.3 30.3996 134 29.5996 134.4 28.9996C134.8 28.3996 135.6 28.0996 136.2 28.4996L147.9 35.0996C148.5 35.4996 148.8 36.2996 148.4 36.8996C148.2 37.3996 147.8 37.5996 147.3 37.5996ZM170.7 50.8996C170.5 50.8996 170.2 50.7996 170 50.6996L158.3 44.0996C157.7 43.6996 157.4 42.8996 157.8 42.2996C158.2 41.6996 159 41.3996 159.6 41.7996L171.3 48.3996C171.9 48.7996 172.2 49.5996 171.8 50.1996C171.6 50.6996 171.2 50.8996 170.7 50.8996ZM110.6 56.7996C110.5 56.7996 110.4 56.7996 110.2 56.7996C109.5 56.5996 109.1 55.8996 109.3 55.1996L112.8 42.1996C113 41.4996 113.7 41.0996 114.5 41.2996C115.2 41.4996 115.6 42.1996 115.4 42.9996L111.9 55.9996C111.7 56.3996 111.2 56.7996 110.6 56.7996ZM184.4 68.2996C184.3 68.2996 184.2 68.2996 184 68.2996C183.3 68.0996 182.9 67.3996 183.1 66.5996L185.1 59.2996L181.8 57.3996C181.2 56.9996 180.9 56.1996 181.3 55.5996C181.7 54.9996 182.5 54.6996 183.1 55.0996L187.3 57.4996C187.8 57.7996 188.1 58.3996 187.9 58.9996L185.6 67.2996C185.5 67.8996 185 68.2996 184.4 68.2996ZM103.6 82.7996C103.5 82.7996 103.4 82.7996 103.2 82.7996C102.5 82.5996 102.1 81.8996 102.3 81.0996L105.8 68.0996C106 67.3996 106.7 66.9996 107.4 67.1996C108.1 67.3996 108.5 68.0996 108.3 68.8996L104.8 81.8996C104.7 82.3996 104.1 82.7996 103.6 82.7996ZM177.4 94.1996C177.3 94.1996 177.2 94.1996 177 94.1996C176.3 93.9996 175.9 93.2996 176.1 92.4996L179.6 79.4996C179.8 78.7996 180.5 78.3996 181.3 78.5996C182 78.7996 182.4 79.4996 182.2 80.2996L178.7 93.2996C178.5 93.7996 177.9 94.1996 177.4 94.1996ZM96.4997 108.7C96.3997 108.7 96.2997 108.7 96.0997 108.7C95.3997 108.5 94.9997 107.8 95.1997 107L98.6997 93.9996C98.8997 93.2996 99.5997 92.8997 100.4 93.0996C101.1 93.2996 101.5 93.9996 101.3 94.7996L97.7997 107.8C97.5997 108.3 97.0997 108.7 96.4997 108.7ZM170.3 120.2C170.2 120.2 170.1 120.2 169.9 120.2C169.2 120 168.8 119.3 169 118.5L172.5 105.5C172.7 104.8 173.4 104.4 174.1 104.6C174.8 104.8 175.2 105.5 175 106.3L171.5 119.3C171.4 119.8 170.9 120.2 170.3 120.2ZM89.4997 134.7C89.3997 134.7 89.2997 134.7 89.0997 134.7C88.3997 134.5 87.9997 133.8 88.1997 133L91.6997 120C91.8997 119.3 92.5997 118.9 93.3997 119.1C94.0997 119.3 94.4997 120 94.2997 120.7L90.7997 133.7C90.5997 134.3 89.9997 134.7 89.4997 134.7ZM163.2 146.2C163.1 146.2 163 146.2 162.8 146.2C162.1 146 161.7 145.3 161.9 144.5L165.4 131.5C165.6 130.8 166.3 130.4 167.1 130.6C167.8 130.8 168.2 131.5 168 132.3L164.5 145.3C164.4 145.8 163.8 146.2 163.2 146.2ZM82.3997 160.7C82.2997 160.7 82.1997 160.7 81.9997 160.7C81.2997 160.5 80.8997 159.8 81.0997 159.1L84.5997 146.1C84.7997 145.4 85.4997 145 86.2997 145.2C86.9997 145.4 87.3997 146.1 87.1997 146.9L83.6997 159.9C83.4997 160.3 82.9997 160.7 82.3997 160.7ZM156.2 172.2C156.1 172.2 156 172.2 155.8 172.2C155.1 172 154.7 171.3 154.9 170.5L158.4 157.5C158.6 156.8 159.3 156.4 160.1 156.6C160.8 156.8 161.2 157.5 161 158.2L157.5 171.2C157.3 171.8 156.8 172.2 156.2 172.2ZM75.2997 186.7C75.1997 186.7 75.0997 186.7 74.8997 186.7C74.1997 186.5 73.7997 185.8 73.9997 185L77.4997 172C77.6997 171.3 78.3997 170.9 79.1997 171.1C79.8997 171.3 80.2997 172 80.0997 172.8L76.5997 185.8C76.4997 186.3 75.8997 186.7 75.2997 186.7ZM149.1 198.1C149 198.1 148.9 198.1 148.7 198.1C148 197.9 147.6 197.2 147.8 196.4L151.3 183.4C151.5 182.7 152.2 182.3 153 182.5C153.7 182.7 154.1 183.4 153.9 184.2L150.4 197.2C150.3 197.7 149.7 198.1 149.1 198.1ZM94.0997 201.9C93.8997 201.9 93.5997 201.8 93.3997 201.7L81.6997 195.1C81.0997 194.7 80.7997 193.9 81.1997 193.3C81.5997 192.7 82.3997 192.4 82.9997 192.8L94.6997 199.4C95.2997 199.8 95.5997 200.6 95.1997 201.2C94.9997 201.6 94.5997 201.9 94.0997 201.9ZM117.5 215.2C117.3 215.2 117 215.1 116.8 215L105.1 208.4C104.5 208 104.2 207.2 104.6 206.6C105 206 105.8 205.7 106.4 206.1L118.1 212.7C118.7 213.1 119 213.9 118.6 214.5C118.4 214.9 118 215.2 117.5 215.2ZM142.1 224.1C142 224.1 141.9 224.1 141.7 224.1C141 223.9 140.6 223.2 140.8 222.5L144.3 209.5C144.5 208.8 145.2 208.4 146 208.6C146.7 208.8 147.1 209.5 146.9 210.3L143.4 223.3C143.2 223.7 142.7 224.1 142.1 224.1ZM140.9 228.4C140.7 228.4 140.4 228.3 140.2 228.2L128.5 221.6C127.9 221.2 127.6 220.4 128 219.8C128.4 219.2 129.2 218.9 129.8 219.3L141.5 225.9C142.1 226.3 142.4 227.1 142 227.7C141.8 228.2 141.4 228.4 140.9 228.4Z" fill="black"/>
<mask id="mask1" mask-type="alpha" maskUnits="userSpaceOnUse" x="123" y="0" width="98" height="59">
<path fill-rule="evenodd" clip-rule="evenodd" d="M123 0H220.2V59H123V0Z" fill="white"/>
</mask>
<g mask="url(#mask1)">
<path fill-rule="evenodd" clip-rule="evenodd" d="M159.2 6.3998C159 6.3998 158.8 6.2998 158.5 6.1998L152.8 2.8998L148.2 5.49981C147.6 5.89981 146.7 5.59981 146.4 4.99981C146 4.39981 146.3 3.4998 146.9 3.1998L152.2 0.199805C152.6 -0.00019531 153.1 -0.00019531 153.5 0.199805L159.9 3.8998C160.5 4.2998 160.8 5.0998 160.4 5.6998C160.1 6.0998 159.7 6.3998 159.2 6.3998ZM124.4 18.9998C123.9 18.9998 123.5 18.7998 123.2 18.2998C122.8 17.6998 123.1 16.7998 123.7 16.4998L135.3 9.8998C135.9 9.4998 136.8 9.7998 137.1 10.3998C137.5 11.0998 137.2 11.8998 136.6 12.1998L125 18.7998C124.8 18.8998 124.6 18.9998 124.4 18.9998ZM182.4 19.6998C182.2 19.6998 182 19.5998 181.7 19.4998L170.1 12.7998C169.5 12.3998 169.2 11.5998 169.6 10.9998C170 10.3998 170.8 10.0998 171.4 10.4998L183 17.1998C183.6 17.5998 183.9 18.3998 183.5 18.9998C183.3 19.4998 182.8 19.6998 182.4 19.6998ZM205.6 32.9998C205.4 32.9998 205.2 32.8998 204.9 32.7998L193.3 26.0998C192.7 25.6998 192.4 24.8998 192.8 24.2998C193.2 23.5998 194 23.3998 194.6 23.7998L206.2 30.4998C206.8 30.8998 207.1 31.6998 206.7 32.2998C206.5 32.7998 206 32.9998 205.6 32.9998ZM209 46.3998C208.5 46.3998 208.1 46.1998 207.8 45.6998C207.4 44.9998 207.7 44.1998 208.3 43.8998L216.2 39.3998C215.8 38.9998 215.7 38.2998 216 37.7998C216.4 37.1998 217.2 36.8998 217.8 37.2998L219.5 38.2998C219.9 38.4998 220.2 38.9998 220.2 39.4998C220.2 39.9998 219.9 40.3998 219.5 40.6998L209.6 46.3998C209.4 46.2998 209.2 46.3998 209 46.3998ZM186.9 58.9998C186.7 58.9998 186.4 58.8998 186.2 58.7998L183 57.499C182.4 57.099 182.6 56.599 183 55.999C183.4 55.399 183.9 56.599 184.5 56.999H185.5L196.6 50.4998C197.2 50.0998 198.1 50.3998 198.4 50.9998C198.8 51.5998 198.5 52.4998 197.9 52.7998L187.4 58.7998C187.3 58.8998 187.1 58.9998 186.9 58.9998Z" fill="black"/>
</g>
<path fill-rule="evenodd" clip-rule="evenodd" d="M427 137.5C425.9 136.5 424.7 135.5 423.3 134.6C422.7 134.2 422.1 133.8 421.5 133.4C421 133.1 420.5 132.8 420 132.5C419 132 418 131.4 416.9 130.9C415.9 130.5 415 130 413.9 129.7C413 129.3 412 129 411 128.7C410.1 128.4 409.1 128.1 408.2 127.9C407.3 127.6 406.3 127.4 405.4 127.2C404.5 127 403.5 126.8 402.6 126.6C401.7 126.4 400.7 126.3 399.8 126.1C398.9 126 397.9 125.9 397 125.8C396.1 125.7 395.1 125.6 394.2 125.6C393.3 125.5 392.4 125.5 391.4 125.5C390.5 125.5 389.6 125.5 388.7 125.5C387.8 125.5 386.9 125.5 386 125.6C385.1 125.6 384.2 125.7 383.3 125.8C382.3 125.9 381.3 126 380.4 126.1C379.3 126.2 378.1 126.4 377 126.6C375.2 126.9 373.5 127.2 371.7 127.7C368.2 128.6 364.8 129.7 361.6 131.1C360.3 131.7 359.1 132.3 357.9 133C356.7 133.7 355.5 134.4 354.4 135.2C353.1 136.1 351.9 137.1 350.8 138.1C350 138.9 349.2 139.6 348.6 140.4C348 141.1 347.5 141.8 347 142.5C346.6 143.1 346.2 143.8 345.9 144.5C345.6 145.1 345.3 145.7 345.1 146.4C344.9 147 344.7 147.6 344.5 148.2C344.4 148.8 344.2 149.4 344.2 150C344 150.3 344 150.9 344 151.4C344 152 344 152.6 344.1 153.2C344.2 153.8 344.3 154.4 344.4 155C344.5 155.6 344.7 156.2 344.9 156.8C345.1 157.3 345.3 157.8 345.5 158.3L345.9 159.3C346 159.4 346 159.6 346.1 159.7L346.4 160.5C346.8 161.4 347.2 162.3 347.6 163.1L350.8 170.3C351.1 171 351.5 171.8 351.9 172.6L352 172.8C352.1 173.1 352.3 173.4 352.4 173.7L352.5 174C352.7 174.4 352.8 174.7 353 175C354.1 177.4 355.2 179.8 356.2 182.2C356.8 183.6 357.7 185.5 358.4 187L361.6 194.2C361.9 194.8 362.2 195.6 362.6 196.3L363.4 198C363.5 198.3 363.7 198.6 363.8 198.9C364.9 201.3 366 203.7 367 206.1C367 206.5 367.4 206.9 367.5 207.2C367.7 207.5 367.9 207.8 368 208.1C368 208.1 368 208.2 368.1 208.2C368.1 208.3 368.2 208.3 368.2 208.4C368.3 208.6 368.4 208.7 368.5 208.9C368.8 209.4 369.3 210 369.7 210.4C369.7 210.5 369.8 210.5 369.8 210.6C370 210.9 370.3 211.1 370.5 211.4C370.8 211.7 371.1 212 371.4 212.3C371.6 212.5 371.8 212.7 372 212.8C372.1 212.9 372.3 213 372.4 213.1C372.7 213.3 373 213.6 373.4 213.8C373.8 214.1 374 214.2 374.4 214.5L374.5 214.6C375 214.9 376 215.5 377.3 216C377.4 216 377.4 216.1 377.5 216.1C377.6 216.1 377.7 216.2 377.8 216.2H377.9H378C379.4 216.8 381.1 217.3 383.2 217.7C383.6 217.8 383.9 217.8 384.2 217.9H384.3H384.4C384.5 217.9 384.5 217.9 384.5 217.9C384.6 217.9 384.6 217.9 384.7 217.9C384.8 217.9 384.8 217.9 384.9 217.9C386.8 218.1 388.6 218.2 390.3 218C391.2 217.9 392 217.9 392.8 217.7C393 217.7 393.2 217.6 393.4 217.6H393.5C393.8 217.5 394.1 217.5 394.3 217.4C394.4 217.4 394.4 217.4 394.5 217.4C394.6 217.4 394.6 217.4 394.6 217.4C394.9 217.3 395.2 217.3 395.5 217.2C395.7 217.1 396 217.1 396.2 217C396.7 216.9 396.9 216.8 397.4 216.6C397.4 216.6 397.5 216.6 397.5 216.5C397.7 216.4 398 216.3 398.2 216.2H398.3L398.5 216.1C398.6 216.1 398.7 216 398.7 216C399 215.9 399.4 215.7 399.8 215.5C399.9 215.4 400 215.4 400.2 215.3C400.2 215.3 400.2 215.3 400.3 215.3C401.2 214.9 402.2 214.3 403.1 213.7C404.7 212.6 406 211.5 407.1 210.3L407.2 210.2C407.4 210 407.5 209.8 407.7 209.6C407.8 209.5 407.8 209.4 407.9 209.4C408 209.2 408.2 209 408.3 208.9C408.3 208.8 408.4 208.8 408.4 208.7L408.5 208.6C408.6 208.5 408.7 208.3 408.8 208.2C408.8 208.1 408.9 208.1 408.9 208C408.9 208 408.9 208 408.9 207.9C409.1 207.6 409.3 207.3 409.4 207.1C409.5 207 409.6 206.8 409.6 206.7C409.7 206.6 409.7 206.4 409.8 206.3C409.8 206.4 409.7 206.4 409.7 206.4C409.7 206.4 409.7 206.3 409.8 206.3C409.9 206.2 409.9 206.1 410 206C410.1 205.8 410.2 205.5 410.3 205.3L432.6 158C435.6 151.1 433.8 143.7 427 137.5Z" fill="white"/>
<path fill-rule="evenodd" clip-rule="evenodd" d="M385.9 217.5L386.1 218.9L386.3 217.6C388.1 217.8 389.8 217.9 391.5 217.7C392.3 217.6 393.1 217.6 393.9 217.4L394.5 217.3C394.9 217.2 395.1 217.2 395.3 217.1L395.8 218.4L395.5 217.1C395.9 217 396.2 216.9 396.5 216.9C396.7 216.8 397 216.8 397.2 216.7C397.7 216.6 397.9 216.5 398.4 216.3H398.5L399.8 215.8C400.1 215.7 400.5 215.5 400.8 215.4L401.2 215.2C402.2 214.7 403.1 214.2 403.9 213.7C405.3 212.8 406.5 211.7 407.6 210.5C407.9 210.2 408 210 408.1 209.9L409.3 210.6L408.2 209.8L408.3 209.7C408.4 209.5 408.6 209.4 408.7 209.2L408.8 209L409.2 208.5L409.3 208.3C409.5 208.1 409.6 207.8 409.7 207.6L410 207V206.9L410.2 206.6C410.3 206.4 410.4 206.2 410.4 206.1L410.5 205.9L431.9 157.9C434.8 151.4 432.9 144.5 426.7 138.8C425.6 137.8 424.4 136.9 423.1 136C422.5 135.6 421.9 135.2 421.3 134.9C420.8 134.6 420.3 134.3 419.9 134.1C418.9 133.6 417.9 133.1 416.9 132.6C416 132.2 415 131.8 414 131.4C413.1 131 412.1 130.7 411.2 130.4C410.3 130.1 409.4 129.8 408.4 129.6C407.5 129.4 406.6 129.1 405.6 128.9C404.7 128.7 403.8 128.5 402.8 128.3C401.9 128.1 400.9 128 400 127.9C399.1 127.8 398.1 127.7 397.2 127.6C396.3 127.5 395.4 127.4 394.4 127.4C393.5 127.3 392.6 127.3 391.7 127.3C390.8 127.3 389.9 127.3 389 127.3C388.1 127.3 387.2 127.3 386.3 127.4C385.4 127.4 384.5 127.5 383.6 127.6C382.6 127.7 381.7 127.8 380.7 127.9C379.6 128 378.5 128.2 377.4 128.4C375.6 128.7 373.9 129 372.2 129.4C368.7 130.3 365.3 131.4 362.3 132.7C361 133.3 359.8 133.9 358.7 134.5C357.5 135.2 356.4 135.9 355.3 136.6C354 137.5 352.9 138.4 351.8 139.4C351 140.1 350.3 140.9 349.7 141.6C349.2 142.3 348.7 142.9 348.2 143.6C347.8 144.2 347.4 144.8 347.1 145.4C346.8 146 346.6 146.6 346.3 147.1C346.1 147.7 345.9 148.2 345.8 148.8C345.7 149.3 345.6 149.9 345.5 150.4C345.4 150.9 345.4 151.5 345.4 152C345.4 152.5 345.4 153.1 345.5 153.6C345.6 154.1 345.6 154.7 345.8 155.2C345.9 155.7 346.1 156.3 346.3 156.8C346.5 157.3 346.7 157.8 346.9 158.2L368.8 206C368.9 206.1 368.9 206.3 368.9 206.4C368.9 206.5 369 206.6 369 206.6C369.1 206.7 369.2 206.9 369.2 207C369.3 207.3 369.5 207.6 369.7 207.9L369.8 208.1L369.9 208.2L370.3 208.8C370.6 209.3 371 209.8 371.4 210.2L371.6 210.4C371.8 210.7 372.1 210.9 372.3 211.1C372.6 211.4 372.9 211.7 373.2 211.9C373.4 212.1 373.6 212.2 373.8 212.4C374 212.6 374.1 212.7 374.2 212.8C374.3 212.8 374.3 212.9 374.4 212.9C374.6 213 374.9 213.3 375.3 213.5C375.7 213.7 375.9 213.9 376.3 214.1C376.3 214.1 376.4 214.1 376.4 214.2C376.4 214.2 376.5 214.2 376.5 214.3C377.1 214.6 377.9 215.1 379.1 215.6L379.3 215.7L379.5 215.8L379.7 215.9C381.3 216.5 383 217 384.7 217.3C385.1 217.4 385.4 217.4 385.6 217.4L385.7 218.8L385.9 217.5V218.9V217.5ZM389.6 220.4C388.4 220.4 387.2 220.3 385.9 220.2H385.7H385.5H385.3C385.3 220.2 385.1 220.2 385 220.2C384.9 220.2 384.5 220.1 384.1 220C382.2 219.7 380.3 219.1 378.6 218.4L378.4 218.3L377.8 218.1C376.4 217.5 375.4 216.9 374.9 216.6L374.8 216.5C374.3 216.2 374.1 216.1 373.7 215.8C373.3 215.5 373 215.3 372.6 215C372.5 214.9 372.3 214.8 372.1 214.6C371.8 214.4 371.6 214.2 371.4 214C371.1 213.7 370.7 213.3 370.4 213C370.1 212.7 369.8 212.4 369.6 212.1C369.6 212.1 369.4 211.8 369.3 211.8C369 211.5 368.5 210.8 368.1 210.3L367.7 209.8L367.6 209.6L368.6 208.7L367.5 209.4C367.3 209.1 367.1 208.7 366.9 208.4C366.9 208.3 366.8 208.3 366.8 208.2C366.6 207.9 366.3 207.5 366.2 207L344.6 159.3C344.3 158.7 344.1 158.2 343.9 157.6C343.7 157 343.5 156.3 343.4 155.7C343.3 155.1 343.2 154.4 343.1 153.8C343 153.1 343 152.5 343 151.9C343 151.3 343.1 150.6 343.1 150C343.2 149.3 343.3 148.7 343.5 148.1C343.7 147.4 343.9 146.8 344.1 146.1C344.4 145.4 344.6 144.8 345 144.1C345.4 143.4 345.8 142.7 346.2 142C346.7 141.3 347.3 140.5 347.9 139.8C348.6 139 349.4 138.1 350.2 137.3C351.3 136.3 352.6 135.2 354 134.3C355.1 133.5 356.3 132.7 357.6 132C358.8 131.3 360.1 130.7 361.4 130.1C364.6 128.7 368 127.5 371.7 126.6C373.5 126.2 375.3 125.8 377.1 125.5C378.2 125.3 379.4 125.2 380.6 125C381.6 124.9 382.6 124.8 383.6 124.7C384.5 124.6 385.4 124.6 386.4 124.5C387.3 124.5 388.2 124.4 389.2 124.4C390.1 124.4 391 124.4 392 124.4C392.9 124.4 393.9 124.5 394.8 124.5C395.8 124.6 396.7 124.6 397.7 124.7C398.7 124.8 399.6 124.9 400.6 125C401.6 125.1 402.5 125.3 403.5 125.5C404.5 125.7 405.4 125.9 406.4 126.1C407.4 126.3 408.3 126.6 409.3 126.8C410.3 127.1 411.3 127.4 412.2 127.7C413.2 128 414.2 128.4 415.1 128.7C416.1 129.1 417.1 129.5 418.1 130C419.2 130.5 420.3 131 421.3 131.6C421.8 131.9 422.3 132.2 422.8 132.5C423.5 132.9 424.1 133.3 424.7 133.7C426.1 134.6 427.4 135.7 428.6 136.7C435.7 143.2 437.9 151.3 434.5 158.9L413 207L412.9 207.2C412.8 207.4 412.7 207.6 412.6 207.8L412.5 207.9C412.5 207.9 412.5 208 412.4 208L412.2 208.4C412.1 208.6 412 208.7 411.9 208.9C411.8 209.1 411.6 209.5 411.4 209.8L411.3 210L411 210.5C411 210.5 410.9 210.7 410.8 210.7L409.6 210.1L410.7 210.9C410.6 211.1 410.4 211.3 410.3 211.5L410.1 211.8C410 212 409.8 212.2 409.6 212.4C408.3 213.9 406.8 215.1 405.3 216.1C404.4 216.7 403.4 217.3 402.3 217.8L401.9 218C401.4 218.2 401 218.4 400.6 218.5L399.3 219C399.2 219 399.1 219.1 399.1 219.1C398.5 219.3 398.3 219.4 397.8 219.5C397.6 219.6 397.3 219.6 397.1 219.7C396.8 219.8 396.5 219.9 396.1 219.9C396.1 219.9 395.9 219.9 395.9 220C395.6 220.1 395.3 220.1 395 220.2L394.3 220.3C393.4 220.4 392.5 220.5 391.7 220.6C390.9 220.4 390.3 220.4 389.6 220.4Z" fill="black"/>
<path fill-rule="evenodd" clip-rule="evenodd" d="M356.5 169.4C339.3 158.9 339.9 142.1 357.8 131.9C375.7 121.7 404.2 122 421.4 132.6C438.6 143.1 438 159.9 420.1 170.1C402.2 180.2 373.7 179.9 356.5 169.4Z" fill="white"/>
<path fill-rule="evenodd" clip-rule="evenodd" d="M389.6 124.8C378.5 124.8 367.3 127.3 358.6 132.2C350.1 137 345.3 143.5 345.2 150.3C345.1 156.9 349.4 163.2 357.3 168.1C374.3 178.6 402.5 178.8 420.3 168.7C428.8 163.9 433.5 157.4 433.7 150.6C433.8 144 429.5 137.7 421.6 132.8C412.9 127.5 401.3 124.8 389.6 124.8ZM389.4 178.4C377.3 178.4 365.2 175.6 356.2 170.1C347.6 164.8 342.9 157.8 343 150.3C343.1 142.6 348.3 135.4 357.5 130.1C375.9 119.6 405.1 119.9 422.8 130.8C431.4 136.1 436.1 143.2 436 150.6C435.9 158.3 430.7 165.5 421.5 170.8C412.5 175.9 400.9 178.4 389.4 178.4Z" fill="black"/>
<path fill-rule="evenodd" clip-rule="evenodd" d="M373.3 89.5004C373.3 89.5004 383.9 80.7004 378.4 63.6004C372.9 46.5004 351 33.4004 351 33.4004C351 33.4004 360.7 49.4004 351.8 59.1004C342.4 69.4004 344 88.2004 359 91.4004" fill="white"/>
<path fill-rule="evenodd" clip-rule="evenodd" d="M359.1 93.4001C359 93.4001 358.9 93.4001 358.8 93.4001C352.6 92.1001 348.1 88.0001 346.1 82.0001C343.6 74.4001 345.6 65.1001 351.1 58.9001C359.2 49.8001 350.2 34.4001 350.1 34.2001C349.8 33.7001 349.9 33.2001 350.3 32.8001C350.7 32.4001 351.3 32.4001 351.7 32.6001C352.6 33.1001 373.8 46.2001 379.3 63.7001C384.9 81.5001 374.3 90.7001 373.9 91.1001C373.4 91.5001 372.7 91.5001 372.3 91.0001C371.9 90.5001 371.9 89.8001 372.4 89.4001C372.8 89.1001 382.2 80.8001 377.1 64.4001C373.2 51.9001 360.4 41.5001 354.1 37.0001C356.5 42.6001 359.4 53.0001 352.8 60.4001C347.8 66.0001 346 74.4001 348.3 81.3001C350 86.5001 353.9 90.1001 359.3 91.2001C359.9 91.3001 360.3 92.0001 360.2 92.6001C360.1 93.1001 359.6 93.4001 359.1 93.4001Z" fill="black"/>
<path fill-rule="evenodd" clip-rule="evenodd" d="M382 174.4L376.2 97.2002C376.1 95.5002 374.5 94.2002 372.8 94.4002L360.7 96.1002C359 96.3002 357.8 98.0002 358.2 99.7002L373.9 173.6" fill="white"/>
<path fill-rule="evenodd" clip-rule="evenodd" d="M380.9 176.4C380.3 176.4 379.8 175.9 379.8 175.3L374 97.4997C374 96.9997 373.7 96.4997 373.3 96.1997C372.9 95.8997 372.4 95.6997 371.9 95.7997L359.9 97.5997C359.4 97.6997 358.9 97.9997 358.6 98.3997C358.3 98.7997 358.2 99.3997 358.3 99.8997L373.8 174.4C373.9 175 373.5 175.7 372.9 175.8C372.3 175.9 371.7 175.5 371.5 174.9L356 100.4C355.8 99.2997 356 98.0997 356.7 97.0997C357.4 96.0997 358.4 95.4997 359.5 95.2997L371.5 93.4997C372.6 93.2997 373.8 93.6997 374.7 94.3997C375.6 95.0997 376.1 96.1997 376.2 97.3997L382 175.2C382 175.8 381.6 176.4 380.9 176.4Z" fill="black"/>
<path fill-rule="evenodd" clip-rule="evenodd" d="M373.3 89.5004L359 91.6004C357.7 91.8004 356.8 93.0004 357 94.4004C357.2 95.7004 358.4 96.7004 359.7 96.5004L374 94.4004C375.3 94.2004 376.2 93.0004 376 91.6004C375.8 90.2004 374.6 89.3004 373.3 89.5004Z" fill="white"/>
<path fill-rule="evenodd" clip-rule="evenodd" d="M373.5 91.5004C373.4 91.5004 373.4 91.5004 373.3 91.5004L359.3 93.3004C359 93.3004 358.7 93.5004 358.5 93.7004C358.3 93.9004 358.2 94.2004 358.3 94.5004C358.3 94.8004 358.5 95.0004 358.8 95.2004C359 95.4004 359.4 95.4004 359.7 95.4004L373.7 93.6004C374.3 93.5004 374.8 93.0004 374.7 92.4004C374.6 91.9004 374.1 91.5004 373.5 91.5004ZM359.5 97.4004C357.8 97.4004 356.3 96.3004 356 94.7004C355.9 93.9004 356.1 93.1004 356.7 92.4004C357.3 91.7004 358.1 91.3004 359 91.2004L373 89.4004C374.9 89.2004 376.7 90.3004 377 92.0004C377.3 93.7004 375.9 95.3004 374 95.5004L360 97.3004C359.8 97.4004 359.7 97.4004 359.5 97.4004Z" fill="black"/>
<path fill-rule="evenodd" clip-rule="evenodd" d="M409 150.4C409 150.4 457.6 146.9 473.1 110.8C480.2 94.1998 482.5 74.3998 483 57.7998C483.1 54.7998 475 49.7998 475 49.7998C475 49.7998 483 43.5998 482.9 41.0998C482.5 30.3998 481.5 23.2998 481.5 23.2998C481.5 23.2998 424.5 31.0998 401.5 75.4998C378.6 120.1 409 150.4 409 150.4Z" fill="#C2D8DA"/>
<path fill-rule="evenodd" clip-rule="evenodd" d="M404.1 175.4H404C403.4 175.3 402.9 174.799 403 174.1C409.7 110.7 443.6 60.3995 443.9 59.8995C444.3 59.3995 445 59.1995 445.5 59.5995C446 59.9995 446.1 60.6995 445.8 61.1995C445.5 61.6995 411.9 111.6 405.3 174.4C405.2 175 404.7 175.4 404.1 175.4Z" fill="black"/>
<path fill-rule="evenodd" clip-rule="evenodd" d="M423.4 104.4C423.2 104.4 423 104.3 422.8 104.2C422.5 104 422.3 103.7 422.3 103.4L419.1 84.7001C419 84.1001 419.4 83.5001 420 83.4001C420.6 83.3001 421.2 83.7001 421.3 84.3001L424.3 101.6L443.5 94.3001C444.1 94.1001 444.7 94.4001 445 95.0001C445.2 95.6001 444.9 96.3001 444.3 96.5001L423.8 104.3C423.6 104.4 423.5 104.4 423.4 104.4Z" fill="black"/>
<path fill-rule="evenodd" clip-rule="evenodd" d="M414.8 125.4C414.4 125.4 414 125.2 413.8 124.9L402.1 106.2C401.8 105.7 401.9 104.9 402.5 104.6C403 104.3 403.8 104.4 404.1 105L415.4 123L443.7 118.3C444.3 118.2 444.9 118.6 445 119.3C445.1 119.9 444.7 120.5 444 120.6L415 125.4C414.9 125.4 414.9 125.4 414.8 125.4Z" fill="black"/>
</svg>
