<svg width="502" height="444" viewBox="0 0 502 444" fill="none" xmlns="http://www.w3.org/2000/svg">
<path d="M458.099 254.9C462.399 257.4 465.899 255.4 465.899 250.4C465.899 245.4 462.399 239.4 458.099 236.9L429.999 220.7C425.699 218.2 422.199 220.2 422.199 225.2C422.199 230.2 425.699 236.2 429.999 238.7L458.099 254.9Z" fill="#C2C9E3"/>
<path d="M493.699 330.2C497.999 332.7 501.499 330.7 501.499 325.7C501.499 320.8 497.999 314.7 493.699 312.2L465.599 295.9C461.299 293.4 457.799 295.4 457.799 300.4C457.799 305.4 461.299 311.4 465.599 313.9L493.699 330.2Z" fill="#001F8C"/>
<path d="M461.099 320.1L474.499 327.8C479.399 330.6 483.099 337.2 483.099 342.8C483.099 345.8 481.999 348.1 479.999 349.3C477.999 350.5 475.399 350.3 472.799 348.7L459.399 341C454.499 338.2 450.799 331.6 450.799 326C450.799 323 451.899 320.7 453.899 319.5C454.799 319 455.699 318.7 456.799 318.7C458.099 318.8 459.599 319.2 461.099 320.1ZM478.299 346.3C479.199 345.8 479.699 344.5 479.699 342.8C479.699 338.5 476.499 333 472.799 330.8L459.399 323.1C457.899 322.2 456.499 322 455.599 322.5C454.699 323 454.199 324.3 454.199 326C454.199 330.3 457.399 335.8 461.099 338L474.499 345.7C475.499 346.3 476.399 346.5 477.199 346.5C477.599 346.6 477.999 346.5 478.299 346.3Z" fill="black"/>
<path d="M417.8 221.6C417.8 224.6 416.7 226.9 414.7 228.1C412.7 229.3 410.1 229.1 407.4 227.6L371.6 206.9C366.8 204.1 363 197.5 363 191.9C363 188.9 364.1 186.6 366.1 185.4C367 184.9 368 184.6 369 184.6C370.4 184.6 371.9 185 373.4 185.9L409.1 206.5C414 209.5 417.8 216.1 417.8 221.6Z" fill="#001F8C"/>
<path d="M373.4 245.2L409.1 265.8C414 268.6 417.8 275.2 417.7 280.8C417.7 283.8 416.6 286.1 414.6 287.3C412.6 288.5 410 288.3 407.3 286.7L371.6 266C366.7 263.2 363 256.6 363 251C363 248 364.1 245.7 366.1 244.5C367 244 367.9 243.7 369 243.7C370.4 243.9 371.9 244.3 373.4 245.2ZM412.9 284.3C413.8 283.8 414.3 282.5 414.3 280.8C414.3 276.5 411.1 271 407.4 268.8L371.7 248.2C370.2 247.3 368.8 247.1 367.9 247.6C367 248.1 366.5 249.4 366.5 251.1C366.5 255.4 369.7 260.9 373.4 263.1L409.1 283.7C410.1 284.3 411 284.5 411.8 284.5C412.2 284.6 412.6 284.5 412.9 284.3Z" fill="black"/>
<path d="M373.4 156.1L409.1 176.7C414 179.5 417.8 186.1 417.7 191.7C417.7 194.7 416.6 197 414.6 198.2C412.6 199.4 410 199.2 407.3 197.6L371.6 177C366.7 174.2 363 167.6 363 162C363 159 364.1 156.7 366.1 155.5C367 155 367.9 154.7 369 154.7C370.4 154.8 371.9 155.2 373.4 156.1ZM412.9 195.2C413.8 194.7 414.3 193.4 414.3 191.7C414.3 187.4 411.1 181.9 407.4 179.7L371.7 159C370.2 158.1 368.8 157.9 367.9 158.4C367 158.9 366.5 160.2 366.5 161.9C366.5 166.2 369.7 171.7 373.4 173.9L409.1 194.5C410.1 195.1 411 195.3 411.8 195.3C412.2 195.5 412.6 195.4 412.9 195.2Z" fill="black"/>
<path d="M432.1 268.6C436.4 271.1 439.9 269.1 439.9 264.1C439.9 259.2 436.4 253.1 432.1 250.6L372.4 216.2C368.1 213.7 364.6 215.7 364.6 220.7C364.6 225.7 368.1 231.7 372.4 234.2L432.1 268.6Z" fill="#C2C9E3"/>
<path d="M327.5 386.6L247.8 432.9C221.5 448.2 178.6 448.2 152.1 432.9L71.9004 386.6L134.8 350.1L152.2 360.1C178.7 375.4 221.6 375.4 247.9 360.1L264.7 350.3L327.5 386.6Z" fill="#001F8C"/>
<path d="M327.501 313.701L264.601 350.201L247.801 360.001C221.501 375.301 178.601 375.301 152.101 360.001L134.701 350.001L71.8008 313.701L151.501 267.401C177.801 252.101 220.701 252.101 247.201 267.401L327.501 313.701Z" fill="white"/>
<path d="M200.001 373.2C182.401 373.2 164.701 369.3 151.301 361.5L71.1008 315.2C70.6008 314.9 70.3008 314.3 70.3008 313.7C70.3008 313.1 70.6008 312.5 71.1008 312.2L150.801 265.9C177.601 250.4 221.201 250.4 248.201 265.9L328.401 312.2C328.901 312.5 329.201 313.1 329.301 313.7C329.401 314.3 329.001 314.9 328.501 315.2L248.801 361.5C235.301 369.3 217.701 373.2 200.001 373.2ZM75.3008 313.7L153.001 358.6C179.001 373.6 221.101 373.6 247.001 358.6L324.101 313.8L246.401 269C220.401 254 178.201 254 152.401 269L75.3008 313.7Z" fill="black"/>
<path d="M299.599 193.1C299.299 193.1 298.999 193 298.699 192.9C281.399 182.5 252.599 182.2 234.599 192.3C233.799 192.8 232.699 192.5 232.299 191.6C231.799 190.8 232.099 189.7 232.999 189.3C251.999 178.7 282.299 179 300.499 190C301.299 190.5 301.599 191.5 301.099 192.3C300.699 192.8 300.099 193.1 299.599 193.1Z" fill="black"/>
<path d="M265.799 244.8C253.299 244.8 240.799 242 231.499 236.4C222.599 231.1 217.699 224 217.699 216.4C217.699 208.8 222.499 201.7 231.199 196.3L232.999 199.2C225.299 203.9 221.099 210 221.099 216.4C221.099 222.7 225.399 228.8 233.199 233.5C250.499 243.9 279.299 244.2 297.299 234.1C305.899 229.3 310.599 223 310.799 216.3C310.899 209.8 306.599 203.7 298.699 198.9L300.499 196C309.499 201.4 314.399 208.7 314.299 216.4C314.199 224.3 308.799 231.7 299.099 237.1C289.799 242.2 277.799 244.8 265.799 244.8Z" fill="black"/>
<path d="M308.499 250C308.399 250.2 308.299 250.3 308.199 250.5C307.899 250.9 307.599 251.2 307.299 251.6C307.199 251.7 307.099 251.8 306.999 252C306.499 252.6 305.899 253.1 305.299 253.7C305.199 253.8 305.099 253.9 304.999 253.9C304.599 254.3 304.099 254.7 303.599 255.1C303.199 255.4 302.799 255.8 302.299 256.1C301.799 256.5 301.199 256.8 300.599 257.2C300.199 257.5 299.799 257.7 299.399 258C299.199 258.1 298.999 258.2 298.799 258.3C297.399 259.1 295.899 259.8 294.399 260.5C293.999 260.7 293.499 260.9 293.099 261.1C291.899 261.6 290.699 262.1 289.399 262.5C289.099 262.6 288.899 262.7 288.599 262.8C288.399 262.9 288.299 262.9 288.099 262.9C287.299 263.1 286.499 263.4 285.699 263.6C285.099 263.8 284.499 263.9 283.899 264.1C283.099 264.3 282.199 264.5 281.299 264.6C280.799 264.7 280.299 264.8 279.799 264.9C279.699 264.9 279.599 264.9 279.499 264.9C279.399 264.9 279.299 264.9 279.299 264.9C279.099 264.9 278.899 265 278.799 265C277.199 265.3 275.499 265.5 273.899 265.7C273.399 265.8 272.899 265.8 272.399 265.8C271.399 265.9 270.399 266 269.499 266C268.899 266 268.199 266 267.599 266.1C266.799 266.1 265.999 266.1 265.199 266.1C264.499 266.1 263.899 266.1 263.199 266C262.499 266 261.699 265.9 260.999 265.9C260.299 265.9 259.699 265.8 258.999 265.7C258.299 265.6 257.599 265.5 256.799 265.5C256.499 265.5 256.199 265.4 255.899 265.4C255.599 265.4 255.199 265.3 254.899 265.3C254.599 265.3 254.199 265.2 253.899 265.1C253.099 265 252.299 264.8 251.399 264.7C250.999 264.6 250.599 264.6 250.199 264.5C249.899 264.4 249.699 264.4 249.399 264.3C248.399 264.1 247.499 263.8 246.499 263.6C246.099 263.5 245.699 263.4 245.299 263.3C245.199 263.3 244.999 263.2 244.899 263.2C243.199 262.7 241.499 262.1 239.899 261.5C239.799 261.5 239.699 261.4 239.599 261.4C238.899 261.1 238.199 260.8 237.499 260.5C237.099 260.3 236.699 260.2 236.299 260C235.099 259.4 233.999 258.9 232.899 258.2C228.099 255.4 224.599 252.2 222.299 248.7L222.199 274.8C222.199 281.3 226.499 287.8 234.999 292.7C235.999 293.3 237.099 293.8 238.199 294.4C238.599 294.6 238.899 294.7 239.299 294.9C239.899 295.2 240.599 295.5 241.299 295.8C241.399 295.8 241.499 295.9 241.499 295.9C242.999 296.5 244.599 297 246.199 297.5C246.299 297.5 246.399 297.6 246.599 297.6C246.999 297.7 247.299 297.8 247.699 297.9C248.599 298.1 249.499 298.4 250.399 298.6C250.599 298.7 250.899 298.7 251.099 298.8C251.499 298.9 251.799 298.9 252.199 299C252.999 299.1 253.699 299.3 254.499 299.4C254.799 299.4 255.099 299.5 255.399 299.6C255.699 299.6 256.099 299.7 256.399 299.7C257.099 299.8 257.799 299.9 258.599 299.9C258.899 299.9 259.299 300 259.599 300C259.899 300 260.199 300 260.599 300.1C261.299 300.2 262.099 300.2 262.799 300.2C263.199 300.2 263.499 300.2 263.899 300.3C264.199 300.3 264.499 300.3 264.799 300.3C265.599 300.3 266.399 300.3 267.199 300.3C267.599 300.3 267.999 300.3 268.399 300.3C268.599 300.3 268.899 300.3 269.099 300.3C270.099 300.3 271.099 300.2 271.999 300.1C272.399 300.1 272.799 300.1 273.199 300C273.299 300 273.399 300 273.599 299.9C275.299 299.7 276.899 299.5 278.499 299.2C278.599 299.2 278.699 299.2 278.699 299.2C279.199 299.1 279.599 299 280.099 298.9C280.899 298.7 281.699 298.6 282.499 298.4C283.099 298.3 283.599 298.1 284.199 297.9C284.999 297.7 285.699 297.5 286.399 297.3C286.599 297.3 286.699 297.2 286.899 297.2C287.199 297.1 287.399 297 287.699 296.9C288.899 296.5 289.999 296.1 291.099 295.6C291.499 295.4 291.899 295.3 292.299 295.1C293.699 294.5 295.099 293.8 296.399 293C296.599 292.9 296.799 292.8 296.899 292.7C297.299 292.5 297.599 292.2 297.999 292C298.499 291.7 299.099 291.3 299.599 291C299.999 290.7 300.399 290.4 300.799 290C301.299 289.6 301.699 289.3 302.099 288.9C302.199 288.8 302.299 288.8 302.399 288.7C302.999 288.2 303.499 287.7 303.999 287.1C304.099 287 304.199 286.9 304.299 286.8C304.599 286.5 304.899 286.1 305.099 285.8C305.199 285.7 305.299 285.5 305.399 285.4C305.799 284.9 306.099 284.4 306.399 283.9C306.499 283.7 306.699 283.5 306.799 283.3C306.899 283.2 306.899 283.1 306.999 283C307.199 282.6 307.399 282.1 307.599 281.6C307.699 281.3 307.899 281.1 307.999 280.8C307.999 280.7 307.999 280.6 308.099 280.5C308.299 280.1 308.399 279.6 308.499 279.2C308.599 278.9 308.699 278.6 308.799 278.3C308.799 278.2 308.799 278.1 308.799 278.1C308.899 277.6 308.899 277.2 308.999 276.7C308.999 276.4 309.099 276.1 309.099 275.8C309.099 275.7 309.099 275.5 309.099 275.4L309.199 249C309.099 249.1 308.799 249.5 308.499 250Z" fill="white"/>
<path d="M264.3 301.8C264.2 301.8 264.2 301.8 264.1 301.8C263.9 301.8 263.7 301.8 263.4 301.8C263.2 301.8 263.1 301.8 262.9 301.8C262.1 301.8 261.4 301.7 260.6 301.7C260.5 301.7 260.3 301.7 260.2 301.7C260 301.7 259.8 301.7 259.6 301.7C259.4 301.7 259.2 301.7 259 301.6C258.9 301.6 258.7 301.6 258.6 301.6C257.9 301.5 257.1 301.4 256.4 301.4C256.3 301.4 256.1 301.4 256 301.4C255.8 301.4 255.6 301.4 255.4 301.3C255.2 301.3 255 301.2 254.8 301.2C254.7 301.2 254.6 301.2 254.4 301.1C253.6 301 252.8 300.8 252 300.7C251.9 300.7 251.7 300.7 251.6 300.6C251.4 300.6 251.1 300.5 250.9 300.5C250.7 300.5 250.6 300.4 250.4 300.4C250.3 300.4 250.2 300.4 250.1 300.3C249.2 300.1 248.2 299.9 247.3 299.6C247.1 299.6 247 299.5 246.8 299.5C246.6 299.4 246.3 299.4 246.1 299.3C246 299.3 245.9 299.2 245.8 299.2C244 298.7 242.4 298.1 240.9 297.6C240.8 297.6 240.7 297.5 240.7 297.5C240.2 297.3 239.7 297.1 239.2 296.8L238.3 296.4C238.1 296.3 237.8 296.2 237.6 296.1C236.4 295.5 235.3 295 234.3 294.4C225.5 289.3 220.6 282.4 220.6 275L220.7 248.9C220.7 248.1 221.2 247.5 221.9 247.3C222.6 247.1 223.4 247.4 223.8 248C226 251.4 229.4 254.4 233.8 256.9C234.8 257.5 235.9 258.1 237.1 258.6C237.3 258.7 237.5 258.8 237.7 258.9C237.9 259 238 259 238.2 259.1L238.7 259.3C239.2 259.5 239.7 259.8 240.2 260C240.3 260 240.4 260.1 240.5 260.1C242 260.7 243.6 261.2 245.3 261.7C245.4 261.7 245.5 261.8 245.6 261.8C245.9 261.9 246 261.9 246.2 262C246.4 262 246.6 262.1 246.8 262.1C247.7 262.3 248.7 262.6 249.6 262.8C249.7 262.8 249.9 262.9 250 262.9C250.1 262.9 250.2 263 250.3 263C250.5 263 250.7 263.1 250.9 263.1C251.1 263.1 251.3 263.2 251.5 263.2C252.3 263.4 253.1 263.5 253.9 263.6C254.1 263.6 254.2 263.7 254.4 263.7C254.6 263.7 254.7 263.8 254.9 263.8C255.1 263.8 255.3 263.8 255.5 263.9L256.2 264C256.4 264 256.6 264.1 256.7 264.1C257.4 264.2 258.1 264.3 258.8 264.3C259.5 264.4 260.1 264.4 260.8 264.5C261.5 264.5 262.2 264.6 263 264.6C263.6 264.6 264.3 264.6 264.9 264.7C265.7 264.7 266.5 264.7 267.2 264.7C267.8 264.7 268.4 264.7 269 264.6C270 264.6 270.9 264.5 271.9 264.4H272.5C272.8 264.4 273.1 264.4 273.4 264.3C275.1 264.1 276.7 263.9 278.2 263.6L278.9 263.5C279 263.5 279.1 263.5 279.2 263.5C279.5 263.4 279.8 263.4 280 263.3C280.2 263.3 280.4 263.2 280.7 263.2L281 263.1C281.8 262.9 282.5 262.8 283.2 262.6C283.6 262.5 284 262.4 284.5 262.3L285 262.2C285.8 262 286.6 261.8 287.3 261.5C287.4 261.5 287.5 261.4 287.6 261.4L287.8 261.3C287.9 261.3 288 261.2 288.1 261.2C288.3 261.1 288.4 261.1 288.6 261C289.8 260.6 291 260.1 292.1 259.7L292.3 259.6C292.7 259.4 293 259.3 293.4 259.1C295.1 258.3 296.4 257.7 297.6 257L298.1 256.7C298.3 256.6 298.5 256.4 298.7 256.3C298.9 256.2 299 256.1 299.2 255.9L299.6 255.7C300 255.4 300.4 255.2 300.8 254.9C301.1 254.7 301.4 254.4 301.7 254.2L302.3 253.7C302.7 253.4 303 253.1 303.4 252.8C303.5 252.7 303.5 252.7 303.6 252.6C304.2 252.1 304.7 251.6 305.2 251L305.7 250.5C305.9 250.2 306.2 250 306.4 249.7C306.4 249.7 306.4 249.6 306.5 249.6C306.6 249.5 306.6 249.4 306.7 249.3C307 248.9 307.3 248.5 307.5 248.1C307.9 247.5 308.7 247.2 309.4 247.4C310.1 247.6 310.6 248.3 310.6 249L310.5 275.9C310.5 276.2 310.5 276.4 310.4 276.6C310.4 276.7 310.4 276.8 310.4 276.9V277.1C310.4 277.5 310.3 277.9 310.3 278.4C310.3 278.5 310.3 278.6 310.3 278.7C310.2 279 310.2 279.2 310.1 279.4C310.1 279.5 310 279.6 310 279.7V279.9C309.9 280.3 309.8 280.7 309.6 281.2C309.6 281.3 309.6 281.4 309.5 281.5C309.4 281.7 309.3 281.9 309.2 282.1C309.2 282.2 309.1 282.3 309.1 282.3C308.9 282.8 308.7 283.3 308.4 283.8C308.3 283.9 308.3 284 308.2 284.1C308.1 284.3 308 284.5 307.9 284.6C307.9 284.7 307.8 284.7 307.8 284.8C307.4 285.4 307.1 286 306.7 286.4L306.6 286.5C306.5 286.6 306.4 286.8 306.3 286.9C306.1 287.2 305.8 287.5 305.5 287.8L305.3 288C305.2 288.1 305.2 288.2 305.1 288.3C304.5 288.9 304 289.4 303.5 290C303.4 290.1 303.3 290.1 303.3 290.2C302.9 290.6 302.5 290.9 302.1 291.2L301.5 291.6C301.2 291.9 300.9 292.1 300.5 292.4C300.1 292.7 299.6 293 299.2 293.3L298.9 293.5C298.8 293.6 298.6 293.7 298.5 293.8C298.3 294 298 294.1 297.7 294.3L297.2 294.6C296 295.3 294.6 296 292.9 296.8C292.5 297 292.2 297.1 291.8 297.3L291.6 297.4C290.5 297.9 289.3 298.3 288.1 298.7C288 298.7 287.9 298.8 287.8 298.8C287.6 298.9 287.5 298.9 287.3 299C287.2 299 287.1 299.1 287 299.1H286.8C286.1 299.3 285.3 299.5 284.5 299.8L284 299.9C283.6 300 283.1 300.1 282.7 300.2C282 300.4 281.2 300.5 280.5 300.7H280.3C280.1 300.7 279.9 300.8 279.8 300.8C279.5 300.9 279.2 300.9 278.9 301C278.8 301 278.8 301 278.7 301C277.1 301.3 275.4 301.5 273.6 301.7C273.4 301.7 273.3 301.7 273.2 301.8C273 301.8 272.7 301.8 272.5 301.8C272.3 301.8 272.2 301.8 272 301.8C271 301.9 270 302 269 302C268.9 302 268.8 302 268.7 302C268.6 302 268.4 302 268.3 302C268.1 302 267.8 302 267.6 302C267.4 302 267.3 302 267.1 302C266.3 302 265.5 302 264.7 302C264.6 302 264.5 302 264.3 302C264.6 301.8 264.4 301.8 264.3 301.8ZM224.3 253.5L224.2 274.8C224.2 280.9 228.4 286.8 236.2 291.2C237.1 291.7 238.1 292.3 239.3 292.8C239.5 292.9 239.7 293 239.9 293.1L240.9 293.5C241.4 293.7 241.8 293.9 242.3 294.1C242.4 294.1 242.5 294.2 242.5 294.2C243.9 294.7 245.4 295.3 247 295.7C247.1 295.7 247.2 295.8 247.3 295.8C247.5 295.9 247.7 295.9 247.9 296C248.1 296 248.3 296.1 248.5 296.1C249.4 296.3 250.2 296.5 251.1 296.7C251.2 296.7 251.4 296.8 251.5 296.8C251.6 296.8 251.7 296.9 251.8 296.9C252 296.9 252.2 297 252.3 297C252.5 297 252.7 297.1 252.8 297.1C253.5 297.2 254.3 297.4 255 297.5C255.2 297.5 255.3 297.6 255.5 297.6C255.6 297.6 255.8 297.7 255.9 297.7C256.1 297.7 256.2 297.7 256.4 297.8C256.6 297.9 256.7 297.8 256.9 297.9C257.6 298 258.3 298.1 259 298.1C259.2 298.1 259.3 298.1 259.5 298.2C259.7 298.2 259.8 298.2 260 298.3C260.2 298.3 260.3 298.3 260.5 298.3C260.7 298.3 260.8 298.3 261 298.3C261.7 298.3 262.4 298.4 263.2 298.4C263.4 298.4 263.6 298.4 263.7 298.4C263.9 298.4 264.1 298.4 264.2 298.4C264.3 298.4 264.5 298.4 264.6 298.4C264.8 298.4 264.9 298.4 265.1 298.4C265.9 298.4 266.7 298.4 267.4 298.4C267.6 298.4 267.8 298.4 268 298.4C268.2 298.4 268.4 298.4 268.6 298.4C268.7 298.4 268.8 298.4 268.9 298.4C269 298.4 269.2 298.4 269.3 298.4C270.3 298.4 271.2 298.3 272.2 298.2C272.4 298.2 272.6 298.2 272.8 298.2C273 298.2 273.2 298.2 273.4 298.2C273.6 298.2 273.7 298.2 273.8 298.2C275.5 298 277.1 297.8 278.6 297.5C278.7 297.5 278.7 297.5 278.8 297.5C279.1 297.5 279.3 297.4 279.6 297.3C279.8 297.3 280 297.2 280.2 297.2H280.4C281.1 297.1 281.8 296.9 282.5 296.7C282.9 296.6 283.3 296.5 283.7 296.4L284.2 296.3C284.9 296.1 285.7 295.9 286.4 295.7C286.5 295.7 286.6 295.6 286.7 295.6H286.9C287 295.6 287.1 295.5 287.2 295.5C287.3 295.4 287.5 295.4 287.6 295.3C288.7 294.9 289.8 294.5 290.9 294L291.1 293.9C291.4 293.8 291.8 293.6 292.1 293.5C293.7 292.8 294.9 292.2 296 291.5L296.5 291.2C296.7 291.1 296.9 290.9 297.1 290.8C297.3 290.7 297.4 290.6 297.6 290.5L297.9 290.3C298.3 290 298.7 289.8 299.1 289.5C299.4 289.3 299.7 289.1 299.9 288.8L300.5 288.3C300.8 288 301.2 287.8 301.5 287.5C301.6 287.4 301.6 287.4 301.7 287.3C302.2 286.8 302.7 286.4 303.2 285.8L303.6 285.4C303.8 285.1 304.1 284.9 304.3 284.6L304.4 284.5C304.5 284.4 304.5 284.3 304.6 284.2C304.9 283.8 305.2 283.4 305.5 282.8C305.6 282.7 305.7 282.5 305.8 282.4C305.8 282.3 305.9 282.3 305.9 282.2C305.9 282.1 306 282 306 281.9C306.2 281.5 306.4 281.1 306.5 280.7C306.6 280.5 306.6 280.4 306.7 280.3C306.7 280.2 306.8 280.1 306.8 280C306.8 280 306.8 279.9 306.9 279.8C307 279.5 307.1 279.1 307.2 278.8V278.6C307.2 278.4 307.3 278.3 307.3 278.2C307.3 278.1 307.4 278 307.4 277.9C307.4 277.8 307.4 277.7 307.4 277.7C307.5 277.3 307.5 277 307.5 276.7V276.5C307.5 276.3 307.5 276.2 307.6 276C307.6 275.9 307.6 275.8 307.6 275.7V275.4L307.7 253.9C307.3 254.3 306.9 254.7 306.5 255.1C306.4 255.2 306.3 255.2 306.2 255.3C305.8 255.7 305.3 256 304.9 256.4L304.3 256.9C304 257.2 303.6 257.4 303.3 257.7C302.9 258 302.4 258.3 301.9 258.6L301.5 258.8C301.3 258.9 301.2 259 301.1 259.1C300.8 259.3 300.6 259.5 300.3 259.6L299.7 259.9C298.4 260.7 296.9 261.4 295.2 262.2C294.8 262.4 294.4 262.5 294 262.7L293.8 262.8C292.6 263.3 291.3 263.8 290 264.2C289.9 264.2 289.8 264.3 289.7 264.3C289.5 264.4 289.3 264.4 289.2 264.5C289.1 264.5 289 264.6 288.9 264.6H288.7C287.9 264.8 287.1 265.1 286.3 265.3L285.7 265.5C285.2 265.6 284.8 265.8 284.3 265.9C283.5 266.1 282.7 266.2 281.9 266.4L281.6 266.5C281.4 266.5 281.2 266.6 281 266.6C280.7 266.7 280.4 266.7 280.1 266.8C280 266.8 279.9 266.8 279.9 266.8C279.8 266.8 279.7 266.8 279.6 266.8H279.4C279.3 266.8 279.1 266.9 279 266.9C277.4 267.2 275.7 267.4 273.9 267.6C273.6 267.6 273.2 267.7 272.9 267.7H272.4C271.4 267.8 270.4 267.9 269.4 267.9C268.8 267.9 268.1 267.9 267.5 268C266.7 268 265.9 268 265.1 268C264.4 268 263.7 268 263.1 267.9C262.3 267.9 261.6 267.8 260.8 267.8C260.1 267.8 259.4 267.7 258.8 267.6C258.1 267.5 257.3 267.4 256.6 267.4C256.4 267.4 256.2 267.3 256 267.3L255.4 267.2C255.2 267.2 254.9 267.2 254.7 267.1C254.5 267.1 254.3 267 254.1 267C254 267 253.8 267 253.7 266.9C252.9 266.8 252 266.6 251.2 266.5C251 266.5 250.9 266.4 250.7 266.4C250.5 266.4 250.2 266.3 250 266.3C249.8 266.3 249.7 266.2 249.5 266.2C249.4 266.2 249.3 266.1 249.2 266.1C248.2 265.9 247.2 265.6 246.2 265.4C246 265.4 245.9 265.3 245.7 265.3C245.5 265.2 245.2 265.2 245 265.1C244.9 265.1 244.8 265 244.7 265H244.6C242.8 264.5 241.1 263.9 239.5 263.3C239.4 263.3 239.3 263.2 239.2 263.2C238.6 263 238.1 262.7 237.5 262.5L236.6 262.1C236.3 262 236.1 261.9 235.8 261.8C234.5 261.2 233.3 260.6 232.3 260C229.1 257.9 226.4 255.8 224.3 253.5Z" fill="black"/>
<path d="M265.999 283.6C265.699 283.6 265.399 283.6 265.199 283.6C264.499 283.6 263.799 283.6 263.199 283.5C262.399 283.5 261.699 283.4 260.899 283.4C260.199 283.4 259.499 283.3 258.799 283.2C258.099 283.1 257.299 283 256.599 283C256.399 283 256.199 282.9 255.999 282.9L255.299 282.8C255.099 282.8 254.899 282.8 254.599 282.7C254.399 282.7 254.199 282.6 253.999 282.6C253.899 282.6 253.699 282.6 253.599 282.5C252.799 282.4 251.899 282.2 251.099 282.1C250.899 282.1 250.799 282 250.599 282C250.399 282 250.099 281.9 249.899 281.9C249.699 281.9 249.599 281.8 249.399 281.8C249.299 281.8 249.199 281.7 249.099 281.7C248.199 281.5 247.299 281.3 246.099 281C245.899 281 245.799 280.9 245.599 280.9C245.399 280.8 245.099 280.8 244.899 280.7C244.799 280.7 244.699 280.6 244.599 280.6C242.699 280 240.999 279.5 239.399 278.8C239.299 278.8 239.199 278.7 239.099 278.7C238.499 278.5 237.999 278.2 237.499 278L236.999 277.8C236.799 277.7 236.699 277.7 236.499 277.6C236.199 277.5 235.999 277.4 235.699 277.3C234.399 276.7 233.299 276.1 232.199 275.5C227.299 272.7 223.499 269.3 220.999 265.5C220.499 264.7 220.699 263.7 221.499 263.1C222.299 262.6 223.299 262.8 223.899 263.6C226.099 267 229.499 270 233.899 272.5C234.899 273.1 235.999 273.6 237.199 274.2C237.399 274.3 237.599 274.4 237.799 274.5C237.999 274.6 238.099 274.6 238.299 274.7L238.799 274.9C239.299 275.1 239.799 275.3 240.299 275.5C240.399 275.5 240.499 275.6 240.599 275.6C242.099 276.2 243.699 276.7 245.399 277.2C245.499 277.2 245.599 277.3 245.699 277.3C245.999 277.4 246.199 277.4 246.399 277.5C246.599 277.5 246.799 277.6 246.999 277.6C247.899 277.8 248.899 278.1 249.799 278.3C249.899 278.3 250.099 278.4 250.199 278.4C250.299 278.4 250.399 278.5 250.499 278.5C250.699 278.5 250.899 278.6 251.099 278.6C251.299 278.6 251.499 278.7 251.699 278.7C252.499 278.9 253.299 279 254.099 279.1C254.299 279.1 254.399 279.2 254.599 279.2C254.799 279.2 254.899 279.3 255.099 279.3C255.299 279.3 255.499 279.3 255.599 279.4L256.899 279.6C257.599 279.7 258.299 279.8 258.999 279.8C259.699 279.9 260.299 279.9 260.999 280C261.699 280 262.399 280.1 263.199 280.1C263.799 280.1 264.499 280.1 265.099 280.2C265.899 280.2 266.699 280.2 267.399 280.2C267.999 280.2 268.599 280.2 269.199 280.1C270.199 280.1 271.099 280 272.099 279.9H272.599C272.899 279.9 273.299 279.9 273.599 279.8C275.299 279.6 276.899 279.4 278.399 279.1C278.499 279.1 278.599 279.1 278.699 279H278.899C278.999 279 279.099 279 279.199 279C279.299 279 279.399 279 279.399 279C279.699 278.9 279.999 278.9 280.199 278.8C280.399 278.8 280.599 278.7 280.899 278.7L281.199 278.6C281.899 278.5 282.699 278.3 283.399 278.1C283.799 278 284.299 277.9 284.699 277.7L285.299 277.5C285.999 277.3 286.799 277.1 287.499 276.9C287.599 276.9 287.699 276.8 287.799 276.8H287.999C288.099 276.8 288.199 276.7 288.299 276.7C288.499 276.6 288.599 276.6 288.799 276.5C289.999 276.1 291.199 275.6 292.299 275.2L292.499 275.1C292.899 275 293.199 274.8 293.599 274.6C295.299 273.8 296.599 273.2 297.799 272.5L298.299 272.2C298.499 272.1 298.699 271.9 298.899 271.8C299.099 271.7 299.199 271.6 299.399 271.5L299.799 271.3C300.199 271 300.699 270.7 300.999 270.5C301.299 270.3 301.599 270 301.899 269.8L302.499 269.3C302.899 269 303.199 268.7 303.599 268.4C303.699 268.3 303.699 268.3 303.799 268.2C304.399 267.7 304.899 267.2 305.399 266.6L305.799 266.1C305.999 265.8 306.299 265.6 306.499 265.3C306.499 265.3 306.499 265.2 306.599 265.2C306.699 265.1 306.699 265 306.799 264.9C307.099 264.5 307.399 264.1 307.599 263.7C308.099 262.9 309.199 262.7 309.899 263.2C310.699 263.7 310.899 264.8 310.399 265.5C310.099 266 309.799 266.5 309.399 266.9L309.299 267C309.199 267.1 309.099 267.3 308.999 267.4C308.699 267.7 308.499 268 308.199 268.4L307.899 268.7C307.799 268.8 307.799 268.9 307.699 269C307.099 269.6 306.499 270.2 305.899 270.8C305.799 270.9 305.699 270.9 305.599 271C305.199 271.4 304.699 271.7 304.299 272.1L303.699 272.6C303.399 272.9 302.999 273.1 302.699 273.4C302.299 273.7 301.799 274 301.299 274.3L300.999 274.5C300.799 274.6 300.699 274.7 300.599 274.8C300.299 275 300.099 275.2 299.799 275.3L299.199 275.6C297.899 276.4 296.499 277.1 294.699 277.9C294.299 278.1 293.899 278.2 293.499 278.4L293.299 278.5C292.099 279 290.799 279.5 289.499 279.9C289.399 279.9 289.299 280 289.199 280C288.999 280.1 288.799 280.1 288.699 280.2C288.599 280.2 288.499 280.3 288.299 280.3H288.099C287.299 280.5 286.599 280.8 285.799 281L285.199 281.2C284.699 281.3 284.199 281.5 283.799 281.6C282.999 281.8 282.299 281.9 281.499 282.1L281.199 282.2C280.999 282.2 280.799 282.3 280.599 282.3C280.299 282.4 279.999 282.4 279.599 282.5C279.499 282.5 279.499 282.5 279.399 282.5L278.999 282.6C278.899 282.6 278.699 282.7 278.599 282.7C276.999 283 275.299 283.2 273.499 283.4C273.099 283.4 272.799 283.5 272.399 283.5H271.899C270.899 283.6 269.899 283.7 268.899 283.7C268.299 283.7 267.599 283.7 266.999 283.8C266.999 283.6 266.499 283.6 265.999 283.6Z" fill="black"/>
<path d="M264.199 267.8C264.099 267.8 264.099 267.8 263.999 267.8C263.799 267.8 263.499 267.8 263.299 267.8C263.099 267.8 262.999 267.8 262.799 267.8C261.999 267.8 261.199 267.7 260.399 267.7C260.299 267.7 260.099 267.7 259.999 267.7C259.799 267.7 259.599 267.7 259.399 267.7C259.199 267.7 258.999 267.7 258.699 267.6C258.599 267.6 258.399 267.6 258.299 267.5C257.499 267.4 256.699 267.3 255.899 267.2C255.799 267.2 255.599 267.2 255.499 267.2C255.299 267.2 254.999 267.2 254.799 267.1C254.599 267.1 254.399 267 254.199 267C254.099 267 253.899 267 253.799 266.9C252.999 266.8 252.099 266.6 251.299 266.5C251.099 266.5 250.999 266.4 250.799 266.4C250.599 266.4 250.299 266.3 250.099 266.3C249.899 266.3 249.799 266.2 249.599 266.2C249.499 266.2 249.399 266.1 249.299 266.1C248.399 265.9 247.499 265.7 246.299 265.4C246.099 265.4 245.999 265.3 245.799 265.3C245.499 265.2 245.299 265.2 244.999 265.1C244.899 265.1 244.799 265 244.699 265C242.799 264.4 241.099 263.9 239.499 263.2C239.399 263.2 239.299 263.1 239.199 263.1C238.599 262.9 238.099 262.6 237.499 262.4L236.599 262C236.299 261.9 236.099 261.8 235.799 261.6C234.499 261 233.299 260.4 232.299 259.8C222.899 254.4 217.699 247 217.699 239.2L217.799 216.3C217.799 215.4 218.599 214.6 219.499 214.6C220.399 214.6 221.199 215.4 221.199 216.3C221.199 222.9 225.699 229.2 234.099 234C235.099 234.6 236.199 235.1 237.399 235.7C237.599 235.8 237.799 235.9 237.999 236C238.199 236.1 238.299 236.1 238.499 236.2C239.199 236.5 239.999 236.9 240.799 237.2C242.299 237.8 243.899 238.3 245.599 238.8C245.999 238.9 246.299 239 246.699 239.1L247.099 239.2C247.999 239.4 248.999 239.7 249.899 239.9C250.499 240 251.199 240.2 251.799 240.3C252.599 240.5 253.399 240.6 254.199 240.7C254.899 240.8 255.599 240.9 256.199 241C256.999 241.1 257.699 241.2 258.499 241.3C259.199 241.4 259.899 241.4 260.599 241.5C261.399 241.6 262.099 241.6 262.899 241.6C263.599 241.6 264.299 241.6 264.999 241.7C265.799 241.7 266.699 241.7 267.499 241.7C268.199 241.7 268.799 241.7 269.499 241.6C270.499 241.6 271.599 241.5 272.599 241.4H273.199C273.599 241.4 273.899 241.3 274.299 241.3C276.099 241.1 277.799 240.9 279.499 240.6C279.899 240.5 280.199 240.5 280.599 240.4L281.499 240.2C282.299 240 282.999 239.9 283.699 239.7C284.099 239.6 284.499 239.5 284.899 239.4L285.599 239.2C286.299 239 286.999 238.8 287.699 238.6C287.999 238.5 288.199 238.4 288.499 238.3L288.999 238.1C290.199 237.7 291.399 237.2 292.499 236.8L292.699 236.7C293.099 236.5 293.399 236.4 293.799 236.2C295.499 235.4 296.799 234.8 297.999 234.1C298.399 233.9 298.799 233.6 299.199 233.3L299.999 232.8C300.399 232.5 300.899 232.2 301.299 231.9C301.599 231.7 301.899 231.4 302.199 231.2L302.799 230.8C303.199 230.5 303.599 230.2 303.899 229.9C304.599 229.2 305.199 228.7 305.699 228.1L305.999 227.8C306.399 227.3 306.799 226.8 307.099 226.4C307.399 226 307.699 225.5 308.099 224.9L308.299 224.6C308.399 224.4 308.599 224.2 308.699 223.9C308.899 223.5 309.099 223.1 309.299 222.6L309.499 222.2C309.599 222 309.699 221.7 309.799 221.5C309.899 221.1 309.999 220.8 310.099 220.4L310.199 219.9C310.299 219.7 310.299 219.4 310.399 219.2C310.499 218.8 310.499 218.5 310.499 218.1V217.9C310.499 217.7 310.499 217.6 310.499 217.4C310.499 217.1 310.599 216.9 310.599 216.6C310.599 215.7 311.399 214.9 312.299 214.9C313.199 214.9 313.999 215.7 313.999 216.6L313.899 240C313.899 240.3 313.899 240.5 313.799 240.8C313.799 240.9 313.799 241 313.799 241.1V241.3C313.799 241.8 313.699 242.2 313.599 242.7C313.599 242.8 313.599 242.9 313.599 243C313.599 243.2 313.499 243.5 313.399 243.7C313.399 243.8 313.299 243.9 313.299 244V244.2C313.199 244.7 313.099 245.1 312.899 245.5C312.899 245.6 312.899 245.7 312.799 245.8C312.699 246 312.599 246.2 312.499 246.5C312.499 246.6 312.399 246.7 312.399 246.8C312.199 247.3 311.899 247.8 311.699 248.4C311.599 248.5 311.599 248.7 311.499 248.8C311.399 249 311.299 249.2 311.099 249.3C311.099 249.4 310.999 249.4 310.999 249.5C310.599 250.2 310.199 250.7 309.799 251.3L309.699 251.4C309.599 251.5 309.499 251.7 309.399 251.8C309.099 252.1 308.899 252.5 308.599 252.8L308.399 253.1C308.299 253.2 308.299 253.3 308.199 253.4C307.599 254 306.999 254.6 306.399 255.2C306.299 255.3 306.199 255.3 306.099 255.4C305.699 255.8 305.199 256.1 304.799 256.5L304.199 257C303.899 257.3 303.499 257.5 303.199 257.8C302.799 258.1 302.299 258.4 301.799 258.7L301.499 258.9C301.399 259 301.199 259.1 301.099 259.2C300.799 259.4 300.599 259.6 300.299 259.7L299.699 260C298.399 260.8 296.999 261.5 295.199 262.3C294.799 262.5 294.399 262.6 293.999 262.8L293.799 262.9C292.599 263.4 291.299 263.9 289.999 264.3C289.899 264.3 289.799 264.4 289.699 264.4C289.499 264.5 289.299 264.5 289.199 264.6C289.099 264.6 288.999 264.7 288.899 264.7H288.699C287.899 264.9 287.099 265.2 286.299 265.4L285.699 265.6C285.199 265.7 284.799 265.9 284.299 266C283.499 266.2 282.699 266.3 281.899 266.5L281.599 266.6C281.399 266.6 281.199 266.7 280.999 266.7C280.699 266.8 280.399 266.8 279.999 266.9C279.899 266.9 279.799 266.9 279.799 266.9C277.999 267.2 276.199 267.5 274.399 267.7H274.299C274.199 267.7 274.099 267.7 273.999 267.7C273.699 267.7 273.499 267.7 273.199 267.8C272.999 267.8 272.899 267.8 272.699 267.8C271.599 267.9 270.599 268 269.499 268C269.399 268 269.299 268 269.199 268C268.999 268 268.899 268 268.699 268C268.399 268 268.199 268 267.899 268C267.699 268 267.599 268 267.399 268C266.499 268 265.699 268 264.799 268C264.699 268 264.499 268 264.399 268C264.499 267.8 264.299 267.8 264.199 267.8ZM221.199 226.8L221.099 239.1C221.099 245.7 225.599 252 233.999 256.8C234.999 257.4 236.099 258 237.299 258.5C237.499 258.6 237.699 258.7 237.999 258.8L238.999 259.2C239.499 259.4 239.999 259.7 240.499 259.9C240.599 259.9 240.699 260 240.799 260C242.299 260.6 243.899 261.1 245.599 261.6C245.699 261.6 245.799 261.7 245.899 261.7C246.199 261.8 246.399 261.8 246.599 261.9C246.799 261.9 246.999 262 247.199 262C248.099 262.2 249.099 262.5 249.999 262.7C250.099 262.7 250.299 262.8 250.399 262.8C250.499 262.8 250.599 262.9 250.699 262.9C250.899 262.9 251.099 263 251.299 263C251.499 263 251.699 263.1 251.899 263.1C252.699 263.3 253.499 263.4 254.299 263.5C254.499 263.5 254.599 263.6 254.799 263.6C254.999 263.6 255.099 263.7 255.299 263.7C255.499 263.7 255.699 263.7 255.799 263.8C255.999 263.8 256.199 263.8 256.299 263.9C257.099 264 257.799 264.1 258.599 264.2C258.799 264.2 258.999 264.2 259.099 264.3C259.299 264.3 259.499 264.3 259.599 264.4C259.799 264.4 259.899 264.4 260.099 264.4C260.299 264.4 260.399 264.4 260.599 264.4C261.399 264.5 262.099 264.5 262.899 264.5C263.099 264.5 263.299 264.5 263.499 264.5C263.699 264.5 263.899 264.5 264.099 264.5C264.199 264.5 264.399 264.5 264.499 264.5C264.699 264.5 264.799 264.5 264.999 264.5C265.799 264.5 266.699 264.5 267.499 264.5C267.699 264.5 267.899 264.5 268.099 264.5C268.299 264.5 268.499 264.5 268.699 264.5C268.799 264.5 268.899 264.5 268.999 264.5C269.099 264.5 269.299 264.5 269.399 264.5C270.399 264.5 271.399 264.4 272.499 264.3C272.699 264.3 272.899 264.3 273.099 264.3C273.299 264.3 273.499 264.3 273.699 264.3H273.799C273.899 264.3 273.999 264.3 274.099 264.3C275.899 264.1 277.599 263.9 279.299 263.6C279.399 263.6 279.399 263.6 279.499 263.6C279.799 263.5 280.099 263.5 280.299 263.4C280.499 263.4 280.699 263.3 280.999 263.3L281.299 263.2C281.999 263 282.799 262.9 283.499 262.7C283.899 262.6 284.399 262.5 284.799 262.4L285.299 262.3C286.099 262.1 286.899 261.9 287.599 261.6C287.699 261.6 287.799 261.5 287.899 261.5L288.099 261.4C288.199 261.4 288.299 261.3 288.399 261.3C288.599 261.2 288.699 261.2 288.899 261.1C290.099 260.7 291.299 260.2 292.399 259.8L292.599 259.7C292.999 259.5 293.299 259.4 293.699 259.2C295.399 258.4 296.699 257.8 297.899 257.1L298.399 256.8C298.599 256.7 298.799 256.5 298.999 256.4C299.199 256.3 299.299 256.2 299.499 256.1L299.899 255.9C300.299 255.6 300.799 255.4 301.099 255.1C301.399 254.9 301.699 254.6 301.999 254.4L302.599 253.9C302.999 253.6 303.399 253.3 303.699 253C303.799 252.9 303.799 252.9 303.899 252.8C304.499 252.3 304.999 251.8 305.499 251.2L305.899 250.7C306.099 250.4 306.399 250.1 306.599 249.9L306.699 249.8C306.799 249.7 306.799 249.6 306.899 249.5C307.199 249.1 307.499 248.6 307.899 248C307.999 247.9 308.099 247.7 308.199 247.6C308.299 247.5 308.299 247.5 308.399 247.4C308.399 247.3 308.499 247.2 308.599 247.1C308.799 246.7 308.999 246.3 309.199 245.8C309.299 245.6 309.399 245.5 309.399 245.3C309.499 245.2 309.499 245.1 309.599 245C309.599 244.9 309.599 244.8 309.699 244.7C309.799 244.4 309.899 244 309.999 243.6V243.4C309.999 243.2 310.099 243.1 310.099 242.9C310.099 242.8 310.199 242.7 310.199 242.5C310.199 242.5 310.199 242.4 310.199 242.3C310.299 241.9 310.299 241.6 310.299 241.2V241C310.299 240.8 310.299 240.7 310.399 240.5C310.399 240.4 310.399 240.2 310.399 240.1V239.8L310.499 227.5C310.199 227.9 309.999 228.2 309.799 228.6C309.399 229.1 308.999 229.7 308.499 230.2L308.399 230.3C308.299 230.4 308.299 230.5 308.199 230.6C307.599 231.2 306.899 231.9 306.099 232.6C305.699 233 305.299 233.3 304.799 233.7L304.299 234.1C303.999 234.4 303.599 234.6 303.299 234.9C302.799 235.2 302.299 235.6 301.899 235.9L301.099 236.4C300.699 236.7 300.199 237 299.699 237.3C298.399 238.1 296.999 238.8 295.199 239.6C294.799 239.8 294.399 239.9 293.999 240.1L293.799 240.2C292.599 240.7 291.299 241.2 289.999 241.6L289.599 241.8C289.299 241.9 288.999 242 288.699 242.1C287.999 242.3 287.199 242.5 286.399 242.8L285.699 243C285.299 243.1 284.799 243.2 284.399 243.4C283.599 243.6 282.799 243.7 281.999 243.9L281.099 244.1C280.699 244.2 280.299 244.3 279.899 244.3C278.199 244.6 276.399 244.9 274.499 245.1C274.099 245.1 273.699 245.2 273.399 245.2H272.899C271.799 245.3 270.799 245.4 269.699 245.4C268.999 245.4 268.299 245.4 267.699 245.5C266.799 245.5 265.999 245.5 265.099 245.5C264.399 245.5 263.699 245.5 262.899 245.4C262.099 245.4 261.299 245.3 260.499 245.3C259.799 245.2 258.999 245.2 258.299 245.1C257.499 245 256.699 244.9 255.899 244.8C255.199 244.7 254.499 244.6 253.799 244.5C252.999 244.4 252.099 244.2 251.299 244.1C250.599 244 249.999 243.8 249.299 243.7C248.299 243.5 247.299 243.2 246.299 243L245.899 242.9C245.499 242.8 245.099 242.7 244.699 242.6C242.899 242.1 241.199 241.5 239.599 240.9C238.799 240.6 237.999 240.2 237.199 239.9C236.999 239.8 236.899 239.8 236.699 239.7C236.399 239.6 236.199 239.5 235.899 239.4C234.599 238.8 233.499 238.2 232.399 237.6C227.499 233.9 223.699 230.5 221.199 226.8Z" fill="black"/>
<path d="M297.2 292.699C297 292.799 296.8 292.899 296.7 292.999C295.4 293.799 294 294.399 292.6 295.099C292.2 295.299 291.8 295.499 291.4 295.599C290.3 296.099 289.1 296.499 288 296.899C287.7 296.999 287.5 297.099 287.2 297.199C287 297.199 286.9 297.299 286.7 297.299C286 297.499 285.2 297.699 284.5 297.899C283.9 298.099 283.4 298.199 282.8 298.399C282 298.599 281.2 298.699 280.4 298.899C279.9 298.999 279.5 299.099 279 299.199C278.9 299.199 278.8 299.199 278.8 299.199C277.2 299.499 275.5 299.699 273.9 299.899C273.8 299.899 273.7 299.899 273.5 299.999C273.1 299.999 272.7 299.999 272.3 300.099C271.3 300.199 270.3 300.299 269.4 300.299C269.2 300.299 268.9 300.299 268.7 300.299C268.3 300.299 267.9 300.299 267.5 300.299C266.7 300.299 265.9 300.299 265.1 300.299C264.8 300.299 264.5 300.299 264.2 300.299C263.8 300.299 263.5 300.299 263.1 300.199C262.4 300.199 261.6 300.099 260.9 300.099C260.6 300.099 260.3 300.099 259.9 299.999C259.6 299.999 259.2 299.899 258.9 299.899C258.2 299.799 257.4 299.699 256.7 299.699C256.4 299.699 256 299.599 255.7 299.599C255.4 299.599 255.1 299.499 254.8 299.399C254 299.299 253.3 299.099 252.5 298.999C252.1 298.899 251.8 298.899 251.4 298.799C251.2 298.699 250.9 298.699 250.7 298.599C249.8 298.399 248.9 298.199 248 297.899C247.6 297.799 247.3 297.699 246.9 297.599C246.8 297.599 246.7 297.499 246.5 297.499C244.9 296.999 243.3 296.499 241.8 295.899C241.7 295.899 241.6 295.899 241.6 295.799C240.9 295.499 240.3 295.199 239.6 294.899C239.2 294.699 238.8 294.599 238.5 294.399C237.4 293.899 236.3 293.299 235.3 292.699C235 292.599 234.8 292.399 234.6 292.199V295.099C234.6 299.799 237.7 304.499 243.8 307.999C244.5 308.399 245.3 308.799 246.1 309.199C246.4 309.299 246.6 309.399 246.9 309.599C247.4 309.799 247.8 309.999 248.3 310.199C248.4 310.199 248.4 310.199 248.5 310.299C249.6 310.699 250.7 311.099 251.9 311.399C252 311.399 252.1 311.499 252.2 311.499C252.5 311.599 252.7 311.599 253 311.699C253.6 311.899 254.3 311.999 254.9 312.199C255.1 312.199 255.2 312.299 255.4 312.299C255.7 312.399 255.9 312.399 256.2 312.399C256.8 312.499 257.3 312.599 257.9 312.699C258.1 312.699 258.3 312.799 258.6 312.799C258.8 312.799 259.1 312.899 259.3 312.899C259.8 312.999 260.3 312.999 260.9 313.099C261.1 313.099 261.4 313.199 261.6 313.199C261.8 313.199 262.1 313.199 262.3 313.199C262.8 313.199 263.4 313.299 263.9 313.299C264.2 313.299 264.4 313.299 264.7 313.299C264.9 313.299 265.1 313.299 265.3 313.299C265.9 313.299 266.4 313.299 267 313.299C267.3 313.299 267.6 313.299 267.9 313.299C268.1 313.299 268.2 313.299 268.4 313.299C269.1 313.299 269.8 313.199 270.5 313.199C270.8 313.199 271.1 313.199 271.4 313.099C271.5 313.099 271.6 313.099 271.7 313.099C272.9 312.999 274.1 312.799 275.3 312.599C275.4 312.599 275.4 312.599 275.5 312.599C275.8 312.499 276.2 312.499 276.5 312.399C277.1 312.299 277.7 312.199 278.2 311.999C278.6 311.899 279 311.799 279.4 311.699C279.9 311.599 280.5 311.399 281 311.199C281.1 311.199 281.2 311.099 281.3 311.099C281.5 310.999 281.7 310.999 281.9 310.899C282.7 310.599 283.6 310.299 284.4 309.999C284.7 309.899 285 309.799 285.3 309.599C286.3 309.099 287.3 308.599 288.3 308.099C288.4 307.999 288.6 307.899 288.7 307.899C289 307.699 289.2 307.499 289.5 307.399C289.9 307.199 290.3 306.899 290.6 306.599C290.9 306.399 291.2 306.099 291.5 305.899C291.8 305.599 292.2 305.399 292.5 305.099C292.6 304.999 292.6 304.999 292.7 304.899C293.1 304.499 293.5 304.199 293.8 303.799C293.9 303.699 293.9 303.599 294 303.599C294.2 303.399 294.4 303.099 294.6 302.899C294.7 302.799 294.7 302.699 294.8 302.599C295.1 302.199 295.3 301.899 295.5 301.499C295.6 301.299 295.7 301.199 295.8 300.999C295.8 300.899 295.9 300.799 295.9 300.799C296.1 300.499 296.2 300.099 296.4 299.799C296.5 299.599 296.6 299.399 296.7 299.199C296.7 299.099 296.7 299.099 296.8 298.999C296.9 298.699 297 298.399 297.1 298.099C297.2 297.899 297.2 297.699 297.3 297.499C297.3 297.399 297.3 297.399 297.3 297.299C297.4 296.999 297.4 296.599 297.4 296.299C297.4 296.099 297.5 295.899 297.5 295.699C297.5 295.599 297.5 295.499 297.5 295.399L297.2 292.699C297.3 292.699 297.2 292.699 297.2 292.699Z" fill="white"/>
<path d="M264.799 315.399C264.699 315.399 264.699 315.399 264.599 315.399C264.399 315.399 264.299 315.399 264.099 315.399H263.799C263.199 315.399 262.699 315.299 262.099 315.299H261.799C261.599 315.299 261.499 315.299 261.299 315.299C261.099 315.299 260.999 315.299 260.799 315.199H260.499C259.999 315.099 259.399 315.099 258.899 314.999H258.599C258.399 314.999 258.299 314.999 258.099 314.899C257.899 314.899 257.799 314.899 257.599 314.799H257.399C256.799 314.699 256.299 314.599 255.699 314.499L255.399 314.399C255.199 314.399 255.099 314.299 254.899 314.299C254.799 314.299 254.699 314.199 254.499 314.199H254.299C253.599 314.099 252.999 313.899 252.299 313.699C252.199 313.699 252.099 313.699 251.999 313.599C251.799 313.599 251.599 313.499 251.499 313.499C251.399 313.499 251.299 313.399 251.199 313.399C249.899 312.999 248.799 312.599 247.699 312.199C247.699 312.199 247.599 312.199 247.499 312.099C247.099 311.899 246.699 311.799 246.399 311.599L245.699 311.299C245.499 311.199 245.299 311.099 245.199 311.099C244.299 310.699 243.499 310.299 242.799 309.799C236.299 305.999 232.699 300.899 232.699 295.399V292.499C232.699 291.899 232.999 291.299 233.599 290.999C234.099 290.699 234.799 290.699 235.299 290.999C235.399 291.099 235.499 291.199 235.699 291.199C235.799 291.299 235.899 291.299 235.999 291.399C236.899 291.899 237.899 292.499 239.099 292.999C239.299 293.099 239.499 293.199 239.699 293.299C239.899 293.399 239.999 293.399 240.199 293.499L240.699 293.699C241.199 293.899 241.599 294.099 242.099 294.299C242.199 294.299 242.299 294.299 242.299 294.399C243.699 294.899 245.199 295.499 246.799 295.899C246.899 295.899 246.999 295.999 247.099 295.999C247.299 296.099 247.499 296.099 247.699 296.199C247.899 296.199 248.099 296.299 248.299 296.299C249.199 296.499 249.999 296.699 250.899 296.899C250.999 296.899 251.199 296.999 251.299 296.999C251.399 296.999 251.499 297.099 251.599 297.099C251.799 297.099 251.899 297.199 252.099 297.199C252.299 297.199 252.499 297.299 252.599 297.299C253.299 297.399 254.099 297.599 254.799 297.699C254.999 297.699 255.099 297.799 255.299 297.799C255.399 297.799 255.599 297.899 255.699 297.899C255.899 297.899 255.999 297.899 256.199 297.999C256.399 297.999 256.499 297.999 256.699 298.099C257.399 298.199 258.099 298.299 258.799 298.299C258.999 298.299 259.099 298.299 259.299 298.399C259.499 298.399 259.599 298.399 259.799 298.499C259.999 298.499 260.099 298.499 260.299 298.499C260.499 298.499 260.599 298.499 260.799 298.499C261.499 298.499 262.199 298.599 262.999 298.599C263.199 298.599 263.399 298.599 263.499 298.599C263.699 298.599 263.899 298.599 263.999 298.599C264.099 298.599 264.299 298.599 264.399 298.599C264.599 298.599 264.699 298.599 264.899 298.599C265.699 298.599 266.499 298.599 267.199 298.599C267.399 298.599 267.599 298.599 267.799 298.599C267.999 298.599 268.199 298.599 268.399 298.599C268.499 298.599 268.599 298.599 268.699 298.599C268.799 298.599 268.999 298.599 269.099 298.599C270.099 298.599 270.999 298.499 271.999 298.399C272.199 298.399 272.399 298.399 272.599 298.399C272.799 298.399 272.999 298.399 273.199 298.399C273.399 298.399 273.499 298.399 273.599 298.399C275.299 298.199 276.899 297.999 278.399 297.699C278.499 297.699 278.499 297.699 278.599 297.699C278.899 297.699 279.099 297.599 279.399 297.499C279.599 297.499 279.799 297.399 279.999 297.399L280.299 297.299C280.999 297.199 281.699 296.999 282.399 296.899C282.799 296.799 283.199 296.699 283.599 296.599L284.199 296.399C284.899 296.199 285.599 295.999 286.199 295.799C286.299 295.799 286.399 295.699 286.499 295.699H286.699C286.799 295.699 286.899 295.599 286.999 295.599C287.099 295.499 287.299 295.499 287.399 295.399C288.499 294.999 289.699 294.599 290.699 294.099L290.899 293.999C291.199 293.899 291.499 293.699 291.899 293.599C293.499 292.899 294.699 292.299 295.799 291.599L296.299 291.299C296.799 290.999 297.499 290.999 297.999 291.299C298.499 291.599 298.899 292.199 298.899 292.799V296.099C298.899 296.299 298.899 296.499 298.799 296.699V296.999C298.799 297.299 298.699 297.599 298.699 297.899C298.699 297.999 298.699 298.099 298.699 298.199C298.699 298.399 298.599 298.599 298.499 298.799L298.399 299.099C298.299 299.399 298.199 299.699 298.099 299.999C298.099 300.099 298.099 300.199 297.999 300.299C297.899 300.499 297.899 300.599 297.799 300.799C297.799 300.899 297.699 300.899 297.699 300.999C297.499 301.399 297.399 301.799 297.199 302.099C297.199 302.199 297.099 302.299 297.099 302.399C296.999 302.499 296.899 302.699 296.799 302.799L296.699 302.899C296.399 303.299 296.199 303.699 295.899 304.099C295.799 304.199 295.699 304.399 295.599 304.499C295.399 304.699 295.299 304.899 295.099 305.099L294.899 305.299C294.799 305.399 294.799 305.399 294.699 305.499C294.299 305.899 293.899 306.299 293.499 306.699C293.399 306.799 293.399 306.799 293.299 306.899C292.999 307.099 292.699 307.399 292.399 307.599L291.999 307.899C291.799 308.099 291.499 308.299 291.299 308.499C290.999 308.699 290.699 308.899 290.299 309.099L289.799 309.399C289.599 309.499 289.399 309.699 289.199 309.799L288.799 309.999C287.899 310.499 286.899 310.999 285.699 311.599C285.499 311.699 285.199 311.799 284.999 311.899L284.799 311.999C283.999 312.399 283.099 312.699 282.199 312.999C282.099 312.999 282.099 312.999 281.999 313.099C281.899 313.199 281.799 313.199 281.599 313.199L281.199 313.299C280.699 313.499 280.199 313.599 279.599 313.699L279.099 313.799C278.799 313.899 278.499 313.999 278.199 313.999C277.699 314.099 277.199 314.199 276.699 314.299L276.099 314.399C275.899 314.399 275.699 314.499 275.399 314.499H275.199C273.999 314.699 272.799 314.899 271.499 314.999C271.399 314.999 271.299 314.999 271.199 314.999C270.999 314.999 270.799 314.999 270.699 314.999C270.599 314.999 270.499 314.999 270.399 314.999C269.699 315.099 268.899 315.099 268.199 315.099H267.999C267.899 315.099 267.799 315.099 267.699 315.099C267.499 315.099 267.299 315.099 267.199 315.099H266.899C266.299 315.099 265.699 315.099 265.099 315.099H264.899C264.899 315.399 264.899 315.399 264.799 315.399ZM236.299 295.499C236.299 299.799 239.299 303.799 244.699 306.999C245.399 307.399 246.099 307.799 246.899 308.099C246.999 308.199 247.199 308.199 247.299 308.299L247.999 308.599C248.299 308.699 248.599 308.899 248.999 308.999C248.999 308.999 249.099 308.999 249.199 309.099C250.199 309.499 251.299 309.799 252.399 310.199C252.499 310.199 252.599 310.299 252.599 310.299C252.699 310.299 252.899 310.399 252.999 310.399C253.099 310.399 253.299 310.499 253.399 310.499C253.999 310.699 254.599 310.799 255.299 310.999C255.399 310.999 255.499 310.999 255.599 311.099C255.699 311.099 255.699 311.099 255.799 311.099C255.899 311.099 255.999 311.099 256.199 311.199C256.299 311.199 256.499 311.199 256.599 311.299C257.099 311.399 257.699 311.499 258.199 311.599L258.499 311.699C258.599 311.699 258.699 311.699 258.799 311.799C258.899 311.799 258.999 311.799 259.099 311.799H259.499C259.999 311.899 260.499 311.899 260.999 311.999H261.399C261.499 311.999 261.599 311.999 261.799 311.999C261.899 311.999 261.999 311.999 262.099 311.999H262.499C262.999 311.999 263.499 312.099 263.999 312.099C264.099 312.099 264.299 312.099 264.399 312.099C264.499 312.099 264.599 312.099 264.799 312.099C264.899 312.099 264.999 312.099 265.099 312.099C265.199 312.099 265.299 312.099 265.399 312.099C265.999 312.099 266.499 312.099 267.099 312.099C267.199 312.099 267.399 312.099 267.499 312.099C267.599 312.099 267.799 312.099 267.899 312.099H268.099C268.199 312.099 268.299 312.099 268.399 312.099C269.099 312.099 269.799 311.999 270.499 311.999C270.599 311.999 270.799 311.999 270.899 311.999C270.999 311.999 271.199 311.999 271.299 311.999H271.499C272.699 311.899 273.899 311.699 274.999 311.499C274.999 311.499 275.099 311.499 275.199 311.499C275.399 311.499 275.499 311.399 275.699 311.399C275.899 311.399 275.999 311.299 276.199 311.299L276.499 311.199C276.999 311.099 277.399 310.999 277.899 310.899C278.199 310.799 278.399 310.799 278.699 310.699L279.199 310.599C279.699 310.499 280.199 310.299 280.599 310.199C280.699 310.199 280.799 310.199 280.899 310.099H280.999C280.999 310.099 281.099 310.099 281.099 309.999C281.199 309.999 281.299 309.899 281.499 309.899C282.299 309.599 283.099 309.299 283.899 308.999L284.099 308.899C284.299 308.799 284.499 308.699 284.699 308.599C285.799 308.099 286.699 307.599 287.499 307.199L287.899 306.999C287.999 306.899 288.199 306.799 288.299 306.699C288.399 306.599 288.499 306.499 288.699 306.499L288.999 306.299C289.299 306.099 289.499 305.899 289.799 305.799C289.999 305.699 290.199 305.499 290.399 305.299L290.799 304.999C290.999 304.799 291.299 304.599 291.499 304.399C291.599 304.299 291.599 304.299 291.699 304.199C292.099 303.899 292.399 303.499 292.699 303.199L292.999 302.799C293.099 302.599 293.299 302.499 293.399 302.299C293.499 302.199 293.499 302.099 293.599 301.999C293.799 301.699 294.099 301.299 294.299 300.999C294.399 300.899 294.399 300.799 294.499 300.699L294.599 300.599C294.599 300.599 294.599 300.499 294.699 300.399C294.799 300.199 294.899 299.899 295.099 299.599C295.199 299.399 295.199 299.299 295.299 299.199C295.299 299.199 295.299 299.099 295.399 299.099C295.399 298.999 295.399 298.999 295.399 298.899C295.499 298.599 295.499 298.399 295.599 298.199V298.099C295.599 297.999 295.699 297.899 295.699 297.799V297.699C295.699 297.599 295.699 297.599 295.699 297.499C295.699 297.299 295.799 296.999 295.799 296.799V296.699C295.799 296.599 295.799 296.499 295.799 296.399C295.799 296.299 295.799 296.299 295.799 296.199V295.899C295.099 296.199 294.399 296.599 293.499 296.999C293.199 297.199 292.799 297.299 292.499 297.499L292.299 297.599C291.199 298.099 289.999 298.499 288.799 298.899C288.699 298.899 288.599 298.999 288.499 298.999C288.299 299.099 288.199 299.099 287.999 299.199C287.899 299.199 287.799 299.299 287.699 299.299H287.499C286.799 299.499 286.099 299.699 285.299 299.899L284.699 300.099C284.299 300.199 283.799 300.299 283.399 300.399C282.699 300.599 281.999 300.699 281.199 300.899L280.899 300.999C280.699 300.999 280.499 301.099 280.299 301.099C279.999 301.199 279.699 301.199 279.399 301.299C279.299 301.299 279.299 301.299 279.199 301.299C277.499 301.599 275.799 301.799 274.099 301.999C273.899 301.999 273.799 301.999 273.699 302.099C273.499 302.099 273.199 302.099 272.999 302.199C272.799 302.199 272.699 302.199 272.499 302.199C271.499 302.299 270.499 302.399 269.499 302.399H269.199C268.999 302.399 268.899 302.399 268.699 302.399C268.499 302.399 268.199 302.399 267.999 302.399C267.799 302.399 267.699 302.399 267.499 302.399C266.699 302.399 265.899 302.399 265.099 302.399C264.999 302.399 264.899 302.399 264.699 302.399C264.499 302.399 264.299 302.399 264.099 302.399C263.899 302.399 263.699 302.399 263.399 302.399C263.299 302.399 263.099 302.399 262.999 302.399C262.199 302.399 261.499 302.299 260.699 302.299C260.599 302.299 260.399 302.299 260.299 302.299C260.099 302.299 259.899 302.299 259.699 302.299C259.499 302.299 259.299 302.299 259.099 302.199C258.999 302.199 258.799 302.199 258.699 302.199C257.999 302.099 257.199 301.999 256.499 301.999C256.399 301.999 256.199 301.999 256.099 301.999C255.899 301.999 255.699 301.999 255.499 301.899C255.299 301.899 255.099 301.799 254.899 301.799L254.499 301.699C253.699 301.599 252.899 301.399 252.099 301.299C251.999 301.299 251.799 301.199 251.699 301.199C251.499 301.199 251.299 301.099 250.999 301.099C250.799 301.099 250.699 300.999 250.499 300.999C250.399 300.999 250.299 300.999 250.199 300.899C249.299 300.699 248.399 300.499 247.399 300.199C247.199 300.199 247.099 300.099 246.899 300.099C246.699 299.999 246.399 299.999 246.199 299.899C246.099 299.899 245.999 299.799 245.899 299.799C244.099 299.299 242.499 298.699 240.999 298.099C240.899 298.099 240.799 297.999 240.799 297.999C240.299 297.799 239.799 297.599 239.299 297.299L238.399 296.899C238.199 296.799 237.899 296.699 237.699 296.599C237.299 295.999 236.799 295.699 236.299 295.499Z" fill="black"/>
<path d="M297.7 221.9C296 224.6 293.2 227 289.4 229.2C275.9 236.7 254.4 236.5 241.4 228.7C238.1 226.7 235.7 224.5 234.1 222.1C235.8 219.4 238.6 217 242.4 214.8C255.9 207.2 277.4 207.5 290.4 215.3C293.7 217.2 296.1 219.5 297.7 221.9Z" fill="black"/>
<path d="M265.799 236.3C256.599 236.3 247.499 234.2 240.599 230.1C234.099 226.2 230.499 221 230.399 215.3C230.399 215.2 230.399 215.1 230.399 215V189.4C230.399 172.8 223.099 156.7 210.299 145.2C191.499 128.2 181.599 103.8 183.199 78.3999C185.899 36.1999 220.999 2.19991 263.299 0.999912C285.899 0.299912 307.299 8.59991 323.499 24.2999C339.699 39.9999 348.699 61.1999 348.699 83.7999C348.699 107.5 338.499 130.1 320.699 145.9C308.399 156.8 301.399 172.6 301.399 189.4V215C301.399 215.1 301.399 215.2 301.399 215.3C301.199 221.2 297.299 226.6 290.199 230.6C283.399 234.5 274.599 236.3 265.799 236.3ZM233.799 214.8C233.799 214.9 233.799 215 233.799 215.1C233.799 219.6 236.799 223.9 242.399 227.2C254.799 234.7 275.499 234.9 288.499 227.7C294.599 224.3 297.999 219.8 297.999 215.1C297.999 215 297.999 214.9 297.999 214.8V189.4C297.999 171.6 305.499 154.8 318.499 143.3C335.599 128.2 345.399 106.5 345.399 83.7999C345.399 62.0999 336.799 41.8999 321.299 26.7999C305.699 11.6999 285.199 3.69991 263.499 4.39991C222.999 5.59991 189.199 38.1999 186.699 78.6999C185.199 103.1 194.599 126.4 212.699 142.7C226.199 154.9 233.899 171.9 233.899 189.4V214.8H233.799Z" fill="black"/>
<path d="M265.8 236.3C256.6 236.3 247.5 234.2 240.6 230.1C233.9 226.1 230.3 220.7 230.4 214.9C230.5 209 234.5 203.5 241.7 199.5C255.6 191.7 277.8 192 291.2 200C297.9 204 301.5 209.4 301.4 215.2C301.3 221.1 297.3 226.6 290.1 230.6C283.4 234.5 274.6 236.3 265.8 236.3ZM266.1 197.2C257.9 197.2 249.8 199 243.4 202.5C237.3 205.9 233.9 210.3 233.9 215C233.8 219.5 236.9 223.9 242.5 227.2C254.9 234.7 275.6 234.9 288.6 227.7C294.7 224.3 298 219.9 298.1 215.2C298.2 210.7 295.1 206.3 289.5 203C283.1 199.1 274.6 197.2 266.1 197.2Z" fill="black"/>
<path d="M281.501 136.7L272.401 73.6003C269.901 56.5003 285.401 42.2003 302.301 46.1003C319.201 50.0003 326.901 69.5003 317.201 83.9003L281.501 136.7Z" fill="#001F8C"/>
<path d="M262.301 218.501C262.201 218.501 262.001 218.501 261.901 218.501C261.001 218.301 260.401 217.401 260.601 216.501L297.001 63.5006C297.201 62.6006 298.101 62.0006 299.001 62.2006C299.901 62.4006 300.501 63.3006 300.301 64.2006L264.001 217.201C263.801 217.901 263.101 218.501 262.301 218.501Z" fill="black"/>
<path d="M289.901 103.501C289.301 103.501 288.601 103.101 288.401 102.501C288.001 101.601 288.401 100.601 289.201 100.201L303.501 93.5007C304.301 93.1007 305.401 93.5007 305.801 94.3007C306.201 95.2007 305.801 96.2007 305.001 96.6007L290.701 103.301C290.401 103.401 290.201 103.501 289.901 103.501Z" fill="black"/>
<path d="M294.5 83.6003C294 83.6003 293.6 83.4003 293.2 83.0003L280.6 69.0003C280 68.3003 280 67.2003 280.7 66.6003C281.4 66.0003 282.5 66.0003 283.1 66.7003L295.7 80.7003C296.3 81.4003 296.3 82.5003 295.6 83.1003C295.3 83.5003 294.9 83.6003 294.5 83.6003Z" fill="black"/>
<path d="M252.901 130.801L218.101 93.4006C208.601 83.2006 212.301 66.8005 225.201 61.6005C238.101 56.4005 252.101 65.8005 252.301 79.7005L252.901 130.801Z" fill="#C2C9E3"/>
<path d="M271.5 179.701C270.8 179.701 270.2 179.301 269.9 178.601L229.2 75.2008C228.9 74.3008 229.3 73.3008 230.2 73.0008C231.1 72.7008 232.1 73.1008 232.4 74.0008L273.2 177.501C273.5 178.401 273.1 179.401 272.2 179.701C271.9 179.701 271.7 179.701 271.5 179.701Z" fill="black"/>
<path d="M243.401 108.3C242.901 108.3 242.401 108.1 242.101 107.6C241.501 106.9 241.701 105.8 242.401 105.2L246.601 101.9C247.301 101.3 248.401 101.5 249.001 102.2C249.601 102.9 249.401 104 248.701 104.6L244.501 107.9C244.101 108.1 243.701 108.3 243.401 108.3Z" fill="black"/>
<path d="M236.5 90.8004C236.5 90.8004 236.4 90.8004 236.5 90.8004L224.2 90.3004C223.3 90.3004 222.5 89.5004 222.6 88.5004C222.6 87.6004 223.5 86.9004 224.4 86.9004L236.6 87.4004C237.5 87.4004 238.3 88.2004 238.2 89.2004C238.1 90.0004 237.4 90.8004 236.5 90.8004Z" fill="black"/>
<path d="M239.201 97.6002C239.001 97.6002 238.701 97.6002 238.501 97.4002C237.601 97.0002 237.301 96.0002 237.701 95.1002L242.601 84.5002C243.001 83.6002 244.001 83.3002 244.901 83.7002C245.801 84.1002 246.101 85.1002 245.701 86.0002L240.801 96.6002C240.501 97.3002 239.801 97.6002 239.201 97.6002Z" fill="black"/>
<path d="M259.701 145.001L228.701 146.701C220.301 147.201 214.001 139.101 216.601 131.001C219.201 123.001 229.001 120.101 235.601 125.401L259.701 145.001Z" fill="#C2C9E3"/>
<path d="M258.4 146.201C258.2 146.201 258.1 146.201 257.9 146.101L231.9 138.001C231 137.701 230.5 136.801 230.8 135.901C231.1 135.001 232 134.501 232.9 134.801L258.9 142.901C259.8 143.201 260.3 144.101 260 145.001C259.8 145.701 259.1 146.201 258.4 146.201Z" fill="black"/>
<path d="M244.6 141.901C243.7 141.901 243 141.301 242.9 140.401L242.4 135.901C242.3 135.001 243 134.101 243.9 134.001C244.8 133.901 245.7 134.601 245.8 135.501L246.3 140.001C246.4 140.901 245.7 141.801 244.8 141.901C244.7 141.901 244.7 141.901 244.6 141.901Z" fill="black"/>
<path d="M235.801 145.201C235.401 145.201 235.001 145.101 234.701 144.801C234.001 144.201 233.901 143.101 234.501 142.401L238.501 137.601C239.101 136.901 240.201 136.801 240.901 137.401C241.601 138.001 241.701 139.101 241.101 139.801L237.101 144.601C236.801 145.001 236.301 145.201 235.801 145.201Z" fill="black"/>
<path d="M236.702 139.4C236.002 139.4 235.402 139 235.102 138.3L232.302 131.3C232.002 130.4 232.402 129.4 233.302 129.1C234.202 128.8 235.202 129.2 235.502 130.1L238.302 137.1C238.602 138 238.202 139 237.302 139.3C237.102 139.4 236.902 139.4 236.702 139.4Z" fill="black"/>
<path d="M280.1 144.1L299.2 121.8C304.4 115.8 314 116.8 317.8 123.8C321.6 130.8 317.1 139.4 309.2 140.4L280.1 144.1Z" fill="#001F8C"/>
<path d="M279.6 145.8C279 145.8 278.4 145.5 278.1 144.9C277.6 144.1 277.9 143 278.8 142.6L307.4 126.9C308.2 126.4 309.3 126.7 309.7 127.6C310.2 128.4 309.9 129.5 309 129.9L280.4 145.6C280.1 145.8 279.8 145.8 279.6 145.8Z" fill="black"/>
<path d="M298.799 140.4C298.399 140.4 298.099 140.3 297.799 140L293.899 137C293.199 136.4 292.999 135.4 293.599 134.6C294.199 133.9 295.199 133.7 295.999 134.3L299.899 137.3C300.599 137.9 300.799 138.9 300.199 139.7C299.799 140.2 299.299 140.4 298.799 140.4Z" fill="black"/>
<path d="M300.099 134.5C299.199 134.5 298.499 133.9 298.399 133L297.599 126.1C297.499 125.2 298.199 124.3 299.099 124.2C299.999 124.1 300.899 124.8 300.999 125.7L301.799 132.6C301.899 133.5 301.199 134.4 300.299 134.5C300.199 134.5 300.099 134.5 300.099 134.5Z" fill="black"/>
<path d="M311.601 136C311.401 136 311.201 136 311.001 135.9L302.801 132.5C301.901 132.1 301.501 131.2 301.901 130.3C302.301 129.4 303.201 129 304.101 129.4L312.301 132.8C313.201 133.2 313.601 134.1 313.201 135C312.901 135.6 312.301 136 311.601 136Z" fill="black"/>
<path d="M245.9 311.1C245.9 311.1 260.2 316.3 263.9 325.2C267.5 334.1 265 348.5 258.8 352L258.7 353.8L327.6 313.7L297.3 296C297.3 296 298 323 245.9 311.1Z" fill="black"/>
<path d="M108.299 149.3C112.599 146.8 116.099 148.8 116.099 153.8C116.099 158.8 112.599 164.8 108.299 167.3L9.49922 224.3C5.19922 226.8 1.69922 224.8 1.69922 219.8C1.69922 214.9 5.19922 208.8 9.49922 206.3L108.299 149.3Z" fill="#C2C9E3"/>
<path d="M94.9992 128.3C99.2992 125.8 102.799 127.8 102.799 132.8C102.799 137.8 99.2992 143.8 94.9992 146.3L66.9992 162.4C62.6992 164.9 59.1992 162.9 59.1992 157.9C59.1992 152.9 62.6992 146.9 66.9992 144.4L94.9992 128.3Z" fill="#C2C9E3"/>
<path d="M130.701 53.0001C135.001 50.5001 138.501 52.5001 138.501 57.5001C138.501 62.4001 135.001 68.5001 130.701 71.0001L102.601 87.2001C98.3008 89.7001 94.8008 87.7001 94.8008 82.7001C94.8008 77.7001 98.3008 71.7001 102.601 69.2001L130.701 53.0001Z" fill="#001F8C"/>
<path d="M93.6992 64.3996C92.6992 64.3996 91.6992 64.1996 90.7992 63.5996C88.7992 62.3996 87.6992 60.0996 87.6992 57.0996C87.6992 51.4996 91.4992 44.8996 96.2992 42.0996L109.699 34.3996C112.299 32.8996 114.899 32.6996 116.899 33.7996C118.899 34.9996 119.999 37.2996 119.999 40.2996C119.999 45.8996 116.199 52.4996 111.399 55.2996L98.0992 62.9996C96.5992 63.8996 95.0992 64.3996 93.6992 64.3996ZM114.099 36.4996C113.299 36.4996 112.399 36.7996 111.399 37.2996L97.9992 44.9996C94.1992 47.1996 91.0992 52.6996 91.0992 56.9996C91.0992 58.6996 91.5992 59.9996 92.4992 60.4996C93.3992 60.9996 94.7992 60.7996 96.2992 59.8996L109.699 52.1996C113.499 49.9996 116.599 44.4996 116.599 40.1996C116.599 38.4996 116.099 37.1996 115.199 36.6996C114.999 36.5996 114.599 36.4996 114.099 36.4996Z" fill="black"/>
<path d="M6 198.4C5 198.4 4 198.2 3.1 197.6C1.1 196.4 0 194.1 0 191.1C0 185.5 3.8 178.9 8.6 176.1L44.3 155.5C46.9 154 49.5 153.8 51.6 154.9C53.6 156.1 54.7 158.4 54.7 161.4C54.7 167 50.9 173.6 46.1 176.4L10.4 197C8.9 197.9 7.4 198.4 6 198.4ZM48.7 157.7C47.9 157.7 47 158 46 158.5L10.3 179.1C6.5 181.3 3.4 186.8 3.4 191.1C3.4 192.8 3.9 194.1 4.8 194.6C5.7 195.1 7.1 194.9 8.6 194L44.3 173.4C48.1 171.2 51.3 165.7 51.2 161.4C51.2 159.7 50.7 158.4 49.8 157.9C49.6 157.8 49.2 157.7 48.7 157.7Z" fill="black"/>
<path d="M69.0992 114.5C73.3992 112 76.8992 114 76.8992 119C76.8992 123.9 73.3992 130 69.0992 132.5L9.49922 166.9C5.19922 169.4 1.69922 167.4 1.69922 162.4C1.69922 157.4 5.19922 151.4 9.49922 148.9L69.0992 114.5Z" fill="#C2C9E3"/>
<path d="M59.9996 91.0001C64.2996 88.5001 67.7996 90.5001 67.7996 95.5001C67.7996 100.5 64.2996 106.5 59.9996 109L9.39961 138.2C5.09961 140.7 1.59961 138.7 1.59961 133.7C1.59961 128.7 5.09961 122.7 9.39961 120.2L59.9996 91.0001Z" fill="#001F8C"/>
</svg>
