<svg width="106" height="17" viewBox="0 0 106 17" fill="none" xmlns="http://www.w3.org/2000/svg">
<path d="M12.5767 4.75699H13.17L14.861 3.06595L14.9439 2.34772C11.7966 -0.430577 6.99326 -0.130441 4.21495 3.0169C3.44301 3.89045 2.88361 4.931 2.57764 6.0568C2.76566 5.97972 2.9747 5.96687 3.1709 6.02176L6.55298 5.46353C6.55298 5.46353 6.72465 5.17858 6.81458 5.1961C8.31876 3.5436 10.8506 3.3509 12.5884 4.75699H12.5767Z" fill="#EA4335"/>
<path d="M17.2703 6.0568C16.8814 4.62502 16.0837 3.33806 14.9743 2.35473L12.6012 4.72779C13.6032 5.54645 14.1743 6.78086 14.1498 8.07483V8.49643C15.3165 8.49643 16.2624 9.44238 16.2624 10.6091C16.2624 11.7757 15.3165 12.7217 14.1498 12.7217H9.92452L9.50293 13.1491V15.6833L9.92452 16.1049H14.1498C17.1838 16.1283 19.6632 13.6875 19.6865 10.6534C19.7005 8.81058 18.7931 7.08684 17.2703 6.0568Z" fill="#4285F4"/>
<path d="M5.69363 16.0781H9.9189V12.696H5.69363C5.39233 12.696 5.0957 12.6306 4.82125 12.5056L4.22799 12.6901L2.52527 14.3812L2.37695 14.9744C3.33108 15.6962 4.49659 16.0839 5.69363 16.0781Z" fill="#34A853"/>
<path d="M5.69355 5.10734C2.65832 5.12486 0.214021 7.59952 0.231539 10.6348C0.242049 12.3293 1.03268 13.9246 2.37687 14.9569L4.82701 12.5068C3.76427 12.0268 3.29129 10.7749 3.77128 9.71215C4.25126 8.64942 5.50319 8.17644 6.56593 8.65642C7.03423 8.8678 7.40911 9.24385 7.62166 9.71215L10.0718 7.26202C9.03008 5.89797 7.40911 5.10034 5.69355 5.10734Z" fill="#FBBC05"/>
<path d="M30.9192 13.7167C29.4489 13.7354 28.0358 13.155 27.0034 12.1086C25.9372 11.1066 25.3416 9.70281 25.3603 8.2395C25.3428 6.77619 25.9384 5.37361 27.0034 4.37043C28.0312 3.31353 29.4454 2.72144 30.9192 2.73312C32.323 2.71443 33.6765 3.25981 34.675 4.24664L33.6193 5.32106C32.8964 4.62152 31.9247 4.23847 30.9192 4.25248C29.8647 4.23963 28.8521 4.67057 28.1304 5.43901C27.3807 6.18293 26.9672 7.20129 26.9848 8.25702C26.9754 9.30107 27.3888 10.3043 28.1304 11.04C29.658 12.5629 32.1209 12.5921 33.6847 11.1054C34.1507 10.5962 34.4356 9.94689 34.4975 9.2602H30.9367V7.742H35.9748C36.0239 8.04798 36.0437 8.35745 36.0344 8.6681C36.0975 9.96324 35.628 11.228 34.7346 12.1693C33.7407 13.2028 32.3533 13.7657 30.9192 13.7167ZM42.6327 12.7077C41.2278 14.0542 39.0112 14.0542 37.6063 12.7077C36.9255 12.0478 36.5541 11.1334 36.5798 10.1863C36.5541 9.23918 36.9266 8.32475 37.6063 7.66492C39.0124 6.3219 41.2266 6.3219 42.6327 7.66492C43.3124 8.32475 43.6849 9.23918 43.6592 10.1863C43.6838 11.1346 43.3089 12.049 42.6269 12.7077H42.6327ZM38.7158 11.7173C39.441 12.4928 40.6579 12.5325 41.4333 11.8061C41.4637 11.7769 41.4941 11.7477 41.5221 11.7173C41.918 11.3074 42.1317 10.7562 42.1154 10.1863C42.1329 9.61522 41.9192 9.0605 41.5221 8.64942C40.7758 7.87163 39.5403 7.84477 38.7613 8.59102C38.7415 8.60971 38.7216 8.62956 38.7029 8.64942C38.3058 9.0605 38.0921 9.61522 38.1096 10.1863C38.0945 10.7562 38.3105 11.3086 38.7088 11.7173H38.7158ZM50.358 12.7077C48.9531 14.0542 46.7365 14.0542 45.3316 12.7077C44.6507 12.0478 44.2794 11.1334 44.3051 10.1863C44.2794 9.23918 44.6519 8.32475 45.3316 7.66492C46.7365 6.3184 48.9531 6.3184 50.358 7.66492C51.0377 8.32475 51.4102 9.23918 51.3845 10.1863C51.4114 11.1334 51.0389 12.0478 50.358 12.7077ZM46.4422 11.7173C47.1675 12.4928 48.3843 12.5325 49.1598 11.8061C49.1902 11.7769 49.2205 11.7477 49.2486 11.7173C49.6445 11.3074 49.8582 10.7562 49.8418 10.1863C49.8593 9.61522 49.6456 9.0605 49.2486 8.64942C48.5023 7.87163 47.2667 7.84477 46.4889 8.59102C46.4691 8.60971 46.4492 8.62956 46.4305 8.64942C46.0335 9.0605 45.8198 9.61522 45.8373 10.1863C45.8221 10.7562 46.0381 11.3086 46.4364 11.7173H46.4422ZM55.437 16.8851C54.7257 16.9072 54.0285 16.6854 53.461 16.2556C52.9576 15.8772 52.5606 15.3739 52.3095 14.7958L53.6618 14.2317C53.809 14.5774 54.039 14.881 54.3322 15.1158C54.6452 15.368 55.0387 15.5012 55.4416 15.4895C55.9578 15.521 56.4623 15.326 56.8244 14.9558C57.1817 14.5248 57.3581 13.9713 57.3172 13.4131V12.9027H57.2635C56.8045 13.4469 56.1166 13.7436 55.4066 13.7038C54.5062 13.7062 53.6455 13.3325 53.0335 12.6715C52.3702 12.0163 52.0035 11.1182 52.0187 10.1851C52.0023 9.24735 52.369 8.34344 53.0335 7.68127C53.6443 7.01794 54.505 6.64072 55.4066 6.64306C55.7838 6.64189 56.1575 6.72598 56.4985 6.88597C56.794 7.01443 57.0568 7.20713 57.2705 7.45004H57.3242V6.88597H58.7957V13.2052C58.8739 14.2154 58.5329 15.2139 57.8521 15.9648C57.2039 16.5849 56.3339 16.9166 55.437 16.8851ZM55.5444 12.3281C56.0571 12.3398 56.5487 12.1214 56.8851 11.7349C57.2506 11.3156 57.4445 10.7726 57.4246 10.2155C57.4468 9.64909 57.2541 9.0967 56.8851 8.66693C56.5487 8.27921 56.0571 8.06199 55.5444 8.07367C55.0177 8.06316 54.512 8.27921 54.1558 8.66693C53.7634 9.08152 53.5497 9.63391 53.5626 10.2038C53.5509 10.7691 53.7634 11.3156 54.1558 11.7232C54.5097 12.1144 55.0154 12.3351 55.5444 12.3281ZM61.4128 3.13135V13.503H59.8643V3.13135H61.4128ZM65.6614 13.7167C64.7237 13.7412 63.8186 13.3733 63.1634 12.7018C62.4989 12.0362 62.1357 11.1264 62.1602 10.1863C62.1252 9.24385 62.4744 8.32709 63.1272 7.64624C63.7438 6.99691 64.6057 6.63722 65.5003 6.65474C65.9079 6.65007 66.3108 6.72948 66.6868 6.88597C67.0255 7.02261 67.3338 7.22464 67.5942 7.47923C67.8184 7.69529 68.017 7.93586 68.1875 8.19746C68.3253 8.41818 68.4421 8.65058 68.5378 8.89116L68.6978 9.29523L63.9517 11.2479C64.246 11.9229 64.9245 12.348 65.6603 12.3164C66.3715 12.3188 67.0313 11.9462 67.3992 11.3378L68.5857 12.1389C68.2832 12.5722 67.8955 12.9401 67.4459 13.2192C66.9134 13.5555 66.2921 13.7284 65.6614 13.7167ZM63.6796 10.0789L66.8363 8.76737C66.7394 8.53613 66.5653 8.34578 66.3435 8.22782C66.0959 8.08768 65.8156 8.01644 65.5306 8.01995C65.0483 8.03279 64.5894 8.23483 64.2554 8.58402C63.8501 8.97174 63.6387 9.51946 63.6796 10.0789Z" fill="#5F6368"/>
<path d="M76.8109 13.7167C74.1108 13.7634 71.8849 11.6122 71.8382 8.91217C71.837 8.84677 71.837 8.7802 71.8393 8.7148C71.7763 6.01475 73.9146 3.77599 76.6135 3.71293C76.6789 3.71176 76.7455 3.71176 76.8109 3.71176C78.1609 3.66972 79.4572 4.24663 80.3296 5.27784L79.4748 6.10818C78.8336 5.3012 77.8456 4.84924 76.8167 4.89128C75.8299 4.8691 74.8758 5.25098 74.1762 5.94702C73.4486 6.67925 73.0597 7.68126 73.1018 8.71247C73.0586 9.74368 73.4486 10.7457 74.1762 11.4779C74.8758 12.1751 75.8299 12.5558 76.8167 12.5337C77.9659 12.5465 79.0578 12.035 79.7831 11.1451L80.6379 11.9999C80.1906 12.5348 79.6289 12.9623 78.9948 13.2519C78.3104 13.5695 77.5642 13.7284 76.8109 13.7167Z" fill="#5F6368"/>
<path d="M82.9337 13.503H81.7051V3.91964H82.9337V13.503Z" fill="#5F6368"/>
<path d="M84.9398 7.73494C86.2793 6.40477 88.4422 6.40477 89.7817 7.73494C90.417 8.40645 90.7592 9.30335 90.7311 10.2271C90.7592 11.1509 90.417 12.0478 89.7817 12.7193C88.4422 14.0495 86.2793 14.0495 84.9398 12.7193C84.3045 12.0478 83.9623 11.1509 83.9904 10.2271C83.9623 9.30335 84.3033 8.40645 84.9398 7.73494ZM85.8531 11.9485C86.639 12.7789 87.9493 12.8151 88.7808 12.0291C88.8089 12.0034 88.8357 11.9754 88.8614 11.9485C89.2947 11.4837 89.5236 10.8636 89.4967 10.2283C89.5248 9.59298 89.2959 8.97286 88.8614 8.50805C88.0755 7.67772 86.7652 7.64151 85.9337 8.42747C85.9056 8.45316 85.8788 8.48119 85.8531 8.50805C85.4198 8.97286 85.1909 9.59298 85.2178 10.2283C85.1932 10.8624 85.4245 11.4802 85.8589 11.9427L85.8531 11.9485Z" fill="#5F6368"/>
<path d="M97.5366 13.503H96.35V12.5955H96.315C96.1036 12.9401 95.8046 13.2227 95.4484 13.4142C95.0794 13.6279 94.659 13.7412 94.2315 13.74C93.5285 13.7879 92.8429 13.5123 92.3688 12.9926C91.9192 12.4239 91.6938 11.7103 91.7335 10.9874V6.95252H92.9621V10.762C92.9621 11.9848 93.5016 12.5955 94.5819 12.5955C95.0689 12.6107 95.5325 12.39 95.828 12.0023C96.1468 11.5994 96.3161 11.0984 96.3091 10.5845V6.95252H97.5377V13.503H97.5366Z" fill="#5F6368"/>
<path d="M101.708 13.7167C100.865 13.719 100.063 13.3535 99.5128 12.7135C98.8974 12.0338 98.5681 11.1439 98.5926 10.2272C98.5681 9.31041 98.8974 8.42052 99.5128 7.74083C100.063 7.10202 100.865 6.73531 101.708 6.73765C102.176 6.73064 102.637 6.84042 103.049 7.05764C103.412 7.23982 103.719 7.5166 103.939 7.85878H103.993L103.939 6.95137V3.91964H105.168V13.503H103.981V12.5956H103.927C103.708 12.9377 103.401 13.2145 103.037 13.3967C102.629 13.6116 102.172 13.7225 101.708 13.7167ZM101.91 12.5956C102.472 12.6037 103.011 12.3702 103.388 11.9544C103.805 11.4791 104.018 10.859 103.981 10.2272C104.018 9.59654 103.805 8.97524 103.388 8.49993C102.643 7.6801 101.374 7.62054 100.555 8.36679C100.508 8.40884 100.463 8.45438 100.421 8.49993C100.003 8.97174 99.7896 9.5907 99.8282 10.2202C99.7896 10.8496 100.003 11.4686 100.421 11.9404C100.8 12.3655 101.343 12.6037 101.91 12.5956Z" fill="#5F6368"/>
</svg>
