<svg width="111" height="34" viewBox="0 0 111 34" fill="none" xmlns="http://www.w3.org/2000/svg">
<g clip-path="url(#clip0)">
<path d="M4.24069 27.125C2.33821 27.125 0.885254 28.4816 0.885254 30.2745C0.885254 32.0595 2.34623 33.44 4.24872 33.44C6.1512 33.44 7.60415 32.0595 7.60415 30.2745C7.59613 28.4816 6.13515 27.125 4.24069 27.125ZM4.25674 32.3689C3.10081 32.3689 2.11344 31.4487 2.11344 30.2745C2.11344 29.1004 3.08475 28.196 4.25674 28.188C5.41268 28.188 6.35991 29.0924 6.36794 30.2666C6.36794 31.4487 5.41268 32.3689 4.25674 32.3689Z" fill="#F8CF47"/>
<path d="M9.79555 28.7751C9.79555 28.3943 10.1648 28.188 10.7348 28.188C11.2244 28.188 11.9469 28.3943 12.6292 28.791L13.1108 27.7596C12.5088 27.3709 11.674 27.1012 10.8311 27.1012C9.41826 27.1012 8.47104 27.7993 8.47104 28.8782C8.47104 31.0917 11.8586 30.3538 11.8586 31.6549C11.8586 32.0913 11.4572 32.3372 10.7749 32.3372C10.1006 32.3372 9.24166 31.9881 8.59947 31.4249L8.09375 32.4324C8.76805 33.0274 9.74739 33.4241 10.7588 33.4241C12.1476 33.4241 13.167 32.7497 13.167 31.5835C13.1831 29.3463 9.79555 30.0365 9.79555 28.7751Z" fill="#F8CF47"/>
<path d="M15.5271 32.3055V27.1488H14.3149L14.323 33.3765H18.2483V32.2975L15.5271 32.3055Z" fill="#F8CF47"/>
<path d="M22.0532 27.1091C20.1507 27.1091 18.6978 28.4657 18.6978 30.2587C18.6978 32.0437 20.1587 33.4241 22.0612 33.4241C23.9637 33.4241 25.4167 32.0437 25.4167 30.2587C25.4086 28.4737 23.9476 27.1091 22.0532 27.1091ZM22.0773 32.361C20.9133 32.361 19.934 31.4408 19.934 30.2666C19.934 29.0925 20.9053 28.1881 22.0773 28.1801C23.2332 28.1801 24.1804 29.0845 24.1885 30.2587C24.1804 31.4328 23.2252 32.361 22.0773 32.361Z" fill="#F8CF47"/>
<path d="M33.0508 30.0762C33.7332 29.9096 34.1506 29.3781 34.1506 28.6958C34.1506 27.7358 33.3238 27.1408 31.9832 27.1408H29.1816V33.3686H32.0635C33.5004 33.3686 34.3914 32.718 34.3914 31.647C34.3914 30.8219 33.8857 30.2269 33.0508 30.0762ZM30.3857 28.1722H31.919C32.5371 28.1642 32.9224 28.4419 32.9224 28.91C32.9224 29.4019 32.5451 29.6875 31.927 29.6875H30.3938L30.3857 28.1722ZM31.919 32.3372H30.3857V30.695H31.919C32.6816 30.6871 33.1472 30.9965 33.1472 31.5042C33.1391 32.0358 32.6816 32.3452 31.919 32.3372Z" fill="#F8CF47"/>
<path d="M39.7939 27.1329V30.7664C39.7939 31.766 39.1919 32.3531 38.2366 32.3531C37.2814 32.3531 36.6472 31.7581 36.6392 30.7744V27.1409H35.4351V30.7744C35.4351 32.4086 36.5188 33.4241 38.2366 33.4241C39.9464 33.4241 40.998 32.4086 40.998 30.7744V27.1409L39.7939 27.1329Z" fill="#F8CF47"/>
<path d="M43.5587 28.7513C43.5587 28.3705 43.928 28.1642 44.4979 28.1642C44.9876 28.1642 45.7101 28.3705 46.3924 28.7672L46.874 27.7358C46.272 27.3471 45.4371 27.0773 44.5943 27.0773C43.1814 27.0773 42.2342 27.7755 42.2342 28.8544C42.2342 31.0679 45.6218 30.33 45.6218 31.6311C45.6218 32.0675 45.2204 32.3134 44.5381 32.3134C43.8638 32.3134 43.0048 31.9643 42.3627 31.4011L41.8569 32.4086C42.5312 33.0036 43.5106 33.4003 44.522 33.4003C45.9107 33.4003 46.9302 32.7259 46.9302 31.5597C46.9463 29.3304 43.5587 30.0127 43.5587 28.7513Z" fill="#F8CF47"/>
<path d="M49.2822 27.1329H48.0781V33.3607H49.2822V27.1329Z" fill="#F8CF47"/>
<path d="M55.2303 27.125V31.3852L51.9792 27.125L50.8394 27.1329V33.3606L52.0194 33.3527V29.1004L55.2624 33.3527H56.4023V27.125H55.2303Z" fill="#F8CF47"/>
<path d="M59.1638 32.3134L59.1558 30.7426H62.2222V29.7033H59.1558V28.1642H62.5674V27.125H57.9517V33.3527H62.6798V32.3055L59.1638 32.3134Z" fill="#F8CF47"/>
<path d="M65.0397 28.7434C65.0397 28.3626 65.409 28.1563 65.9789 28.1563C66.4686 28.1563 67.191 28.3626 67.8734 28.7592L68.355 27.7279C67.7529 27.3392 66.9181 27.0694 66.0752 27.0694C64.6624 27.0694 63.7152 27.7676 63.7152 28.8465C63.7152 31.0599 67.1027 30.3221 67.1027 31.6232C67.1027 32.0595 66.7014 32.3055 66.019 32.3055C65.3447 32.3055 64.4858 31.9564 63.8436 31.3931L63.3379 32.4007C64.0122 32.9957 64.9915 33.3924 66.003 33.3924C67.3917 33.3924 68.4112 32.718 68.4112 31.5518C68.4192 29.3146 65.0397 30.0048 65.0397 28.7434Z" fill="#F8CF47"/>
<path d="M70.6911 28.7355C70.6911 28.3547 71.0603 28.1484 71.6303 28.1484C72.1199 28.1484 72.8424 28.3547 73.5247 28.7513L74.0064 27.72C73.4043 27.3312 72.5695 27.0615 71.7266 27.0615C70.3138 27.0615 69.3665 27.7596 69.3665 28.8386C69.3665 31.052 72.7541 30.3142 72.7541 31.6153C72.7541 32.0516 72.3527 32.2976 71.6704 32.2976C70.9961 32.2976 70.1372 31.9485 69.495 31.3852L68.9893 32.3928C69.6636 32.9878 70.6429 33.3844 71.6543 33.3844C73.0431 33.3844 74.0626 32.7101 74.0626 31.5439C74.0786 29.3146 70.6911 29.9969 70.6911 28.7355Z" fill="#F8CF47"/>
<path d="M77.9236 33.3368H79.1277V30.8775H81.9774V29.8303L79.1277 29.8382L79.1196 28.1563L82.2583 28.1484L82.2663 27.1091H77.9155L77.9236 33.3368Z" fill="#F8CF47"/>
<path d="M86.0317 27.0694C84.1292 27.0694 82.6763 28.426 82.6763 30.219C82.6763 32.004 84.1373 33.3844 86.0397 33.3844C87.9422 33.3844 89.3952 32.004 89.3952 30.219C89.3871 28.434 87.9262 27.0694 86.0317 27.0694ZM86.0478 32.3213C84.8838 32.3213 83.9045 31.4011 83.9045 30.2269C83.9045 29.0528 84.8758 28.1484 86.0478 28.1404C87.2037 28.1404 88.159 29.0448 88.159 30.219C88.159 31.3931 87.2037 32.3213 86.0478 32.3213Z" fill="#F8CF47"/>
<path d="M95.6403 29.2432C95.6403 27.8707 94.7091 27.1012 93.0795 27.1012H90.4546V33.3289H91.6587V31.4963H93.0795C93.1598 31.4963 93.2321 31.4963 93.3043 31.4883L94.396 33.3289H95.7767L94.388 31.2662C95.1987 30.9251 95.6403 30.2269 95.6403 29.2432ZM93.0795 30.449H91.6587V28.1484H93.0795C93.9786 28.1484 94.4843 28.5212 94.4843 29.2828C94.4843 30.0682 93.9866 30.449 93.0795 30.449Z" fill="#F8CF47"/>
<path d="M101.195 27.1012V30.7347C101.195 31.7343 100.593 32.3213 99.6375 32.3213C98.6822 32.3213 98.04 31.7263 98.04 30.7426V27.1091H96.8359V30.7426C96.8359 32.3769 97.9196 33.3923 99.6375 33.3923C101.347 33.3923 102.399 32.3769 102.399 30.7426V27.1091L101.195 27.1012Z" fill="#F8CF47"/>
<path d="M110.563 27.0932H109.174L107.208 31.0917L105.225 27.0932L103.828 27.1012V33.321H104.944V28.8782L106.806 32.6863L107.593 32.6784L109.455 28.8703L109.463 33.321H110.563V27.0932Z" fill="#F8CF47"/>
<path d="M69.72 21.4605C70.5869 19.9611 71.2291 18.4458 72.0078 17.002C73.3724 14.4712 75.6763 12.5592 78.4296 11.6786L78.4457 11.6707C81.0305 10.8456 85.0361 10.9329 87.035 8.99714C89.5475 6.56951 88.9214 2.30927 85.8469 0.651185C83.3103 -0.705429 80.1395 0.270381 78.7186 2.72974C77.8597 4.22122 77.2175 5.72857 76.4469 7.15659C75.0822 9.67941 72.7864 11.6152 70.033 12.5037C70.017 12.5037 70.0089 12.5116 69.9929 12.5116C69.7119 12.5989 69.4149 12.6782 69.1099 12.7496C66.4769 13.3605 63.7155 13.3605 61.0825 12.7496C60.7775 12.6782 60.4805 12.5989 60.1995 12.5116L60.1834 12.5037C57.422 11.6231 55.1262 9.70321 53.7616 7.18039C52.9829 5.75237 52.3407 4.23709 51.4738 2.72974C51.2891 2.40447 51.0724 2.11093 50.8316 1.8412C50.4302 1.37313 49.9325 0.960588 49.3545 0.651185C48.5598 0.222781 47.7009 0.0244455 46.85 0.0323789C45.9991 0.0244455 45.1402 0.222781 44.3455 0.651185C43.7595 0.960588 43.2698 1.37313 42.8684 1.8412C42.6276 2.11093 42.4109 2.40447 42.2262 2.72974C41.3673 4.23709 40.7251 5.75237 39.9465 7.18832C38.5818 9.71908 36.278 11.631 33.5246 12.5116L33.5085 12.5196C30.9237 13.3446 26.9181 13.2574 24.9193 15.1931C22.4067 17.6208 23.0328 21.881 26.1073 23.5391C28.6359 24.8957 31.8148 23.9278 33.2276 21.4685C34.0945 19.969 34.7367 18.4538 35.5154 17.0099C36.88 14.4791 39.1839 12.5672 41.9373 11.6866L41.9533 11.6786C42.2343 11.5914 42.5313 11.512 42.8363 11.4406C45.4693 10.8298 48.2307 10.8298 50.8637 11.4406C51.1687 11.512 51.4657 11.5914 51.7467 11.6786L51.7627 11.6866C54.5242 12.5672 56.82 14.4871 58.1846 17.0099C58.9633 18.4538 59.6135 19.969 60.4724 21.4685C60.6571 21.7937 60.8738 22.0873 61.1146 22.357C61.516 22.8251 62.0137 23.2376 62.5917 23.547C63.3864 23.9754 64.2453 24.1738 65.0962 24.1658C65.9471 24.1738 66.806 23.9754 67.6007 23.547C68.1867 23.2376 68.6764 22.8251 69.0778 22.357C69.3186 22.0793 69.5353 21.7858 69.72 21.4605ZM83.2701 2.0554C84.6508 2.0554 85.8228 2.91221 86.2804 4.11015C86.4891 4.61789 86.5694 5.20496 86.4329 5.8793C86.2563 6.77578 85.7907 7.41045 85.1887 7.79919C84.4983 8.30693 83.5912 8.55287 82.6279 8.3704C81.3596 8.13239 80.3401 7.12485 80.0993 5.8793C79.714 3.84042 81.2794 2.0554 83.2701 2.0554ZM31.8388 19.6041C31.59 20.8338 30.5946 21.8255 29.3584 22.0714C27.6967 22.4046 26.2036 21.4764 25.6658 20.0801C25.4571 19.5724 25.3768 18.9853 25.5133 18.311C25.6899 17.4145 26.1555 16.7798 26.7575 16.3911C27.2954 15.9944 27.9616 15.7564 28.6761 15.7564C30.6749 15.7643 32.2482 17.5573 31.8388 19.6041ZM49.9486 5.8793C49.772 6.77578 49.3064 7.41045 48.7043 7.79919C48.1825 8.18 47.5484 8.41006 46.85 8.42593C46.1597 8.41006 45.5175 8.18 44.9957 7.79919C44.3936 7.40252 43.9361 6.77578 43.7514 5.8793C43.615 5.2129 43.6872 4.61789 43.904 4.11015C44.3615 2.92808 45.5014 2.08713 46.85 2.0554C48.1986 2.08713 49.3385 2.92808 49.796 4.11015C50.0128 4.61789 50.085 5.20496 49.9486 5.8793ZM68.0422 20.088C67.5847 21.2701 66.4448 22.1111 65.0962 22.1428C63.7476 22.1111 62.6077 21.2701 62.1502 20.088C61.9414 19.5803 61.8612 18.9932 61.9976 18.3189C62.1742 17.4224 62.6398 16.7878 63.2419 16.399C63.7636 16.0182 64.3978 15.7881 65.0962 15.7723C65.7865 15.7881 66.4287 16.0182 66.9505 16.399C67.5526 16.7957 68.0101 17.4224 68.1948 18.3189C68.3312 18.9932 68.259 19.5803 68.0422 20.088Z" fill="#F8CF47"/>
</g>
<defs>
<clipPath id="clip0">
<rect width="109.678" height="33.4076" fill="white" transform="translate(0.885254 0.0323181)"/>
</clipPath>
</defs>
</svg>
