<svg width="478" height="670" viewBox="0 0 478 670" fill="none" xmlns="http://www.w3.org/2000/svg">
<g clip-path="url(#clip0)">
<path d="M48.8778 16.4061C52.1241 16.4061 54.7557 13.7745 54.7557 10.5282C54.7557 7.28199 52.1241 4.65039 48.8778 4.65039C45.6316 4.65039 43 7.28199 43 10.5282C43 13.7745 45.6316 16.4061 48.8778 16.4061Z" fill="black" fill-opacity="0.1"/>
<path d="M48.8778 51.9284C52.1241 51.9284 54.7557 49.2968 54.7557 46.0506C54.7557 42.8043 52.1241 40.1727 48.8778 40.1727C45.6316 40.1727 43 42.8043 43 46.0506C43 49.2968 45.6316 51.9284 48.8778 51.9284Z" fill="black" fill-opacity="0.1"/>
<path d="M48.8778 87.451C52.1241 87.451 54.7557 84.8194 54.7557 81.5731C54.7557 78.3269 52.1241 75.6953 48.8778 75.6953C45.6316 75.6953 43 78.3269 43 81.5731C43 84.8194 45.6316 87.451 48.8778 87.451Z" fill="black" fill-opacity="0.1"/>
<path d="M48.8778 122.974C52.1241 122.974 54.7557 120.342 54.7557 117.096C54.7557 113.849 52.1241 111.218 48.8778 111.218C45.6316 111.218 43 113.849 43 117.096C43 120.342 45.6316 122.974 48.8778 122.974Z" fill="black" fill-opacity="0.1"/>
<path d="M84.4032 16.4061C87.6494 16.4061 90.281 13.7745 90.281 10.5282C90.281 7.28199 87.6494 4.65039 84.4032 4.65039C81.157 4.65039 78.5254 7.28199 78.5254 10.5282C78.5254 13.7745 81.157 16.4061 84.4032 16.4061Z" fill="black" fill-opacity="0.1"/>
<path d="M84.4032 51.9284C87.6494 51.9284 90.281 49.2968 90.281 46.0506C90.281 42.8043 87.6494 40.1727 84.4032 40.1727C81.157 40.1727 78.5254 42.8043 78.5254 46.0506C78.5254 49.2968 81.157 51.9284 84.4032 51.9284Z" fill="black" fill-opacity="0.1"/>
<path d="M84.4032 87.451C87.6494 87.451 90.281 84.8194 90.281 81.5731C90.281 78.3269 87.6494 75.6953 84.4032 75.6953C81.157 75.6953 78.5254 78.3269 78.5254 81.5731C78.5254 84.8194 81.157 87.451 84.4032 87.451Z" fill="black" fill-opacity="0.1"/>
<path d="M84.4032 122.974C87.6494 122.974 90.281 120.342 90.281 117.096C90.281 113.849 87.6494 111.218 84.4032 111.218C81.157 111.218 78.5254 113.849 78.5254 117.096C78.5254 120.342 81.157 122.974 84.4032 122.974Z" fill="black" fill-opacity="0.1"/>
<path d="M120.05 16.4061C123.296 16.4061 125.928 13.7745 125.928 10.5282C125.928 7.28199 123.296 4.65039 120.05 4.65039C116.803 4.65039 114.172 7.28199 114.172 10.5282C114.172 13.7745 116.803 16.4061 120.05 16.4061Z" fill="black" fill-opacity="0.1"/>
<path d="M120.05 51.9284C123.296 51.9284 125.928 49.2968 125.928 46.0506C125.928 42.8043 123.296 40.1727 120.05 40.1727C116.803 40.1727 114.172 42.8043 114.172 46.0506C114.172 49.2968 116.803 51.9284 120.05 51.9284Z" fill="black" fill-opacity="0.1"/>
<path d="M120.05 87.451C123.296 87.451 125.928 84.8194 125.928 81.5731C125.928 78.3269 123.296 75.6953 120.05 75.6953C116.803 75.6953 114.172 78.3269 114.172 81.5731C114.172 84.8194 116.803 87.451 120.05 87.451Z" fill="black" fill-opacity="0.1"/>
<path d="M120.05 122.974C123.296 122.974 125.928 120.342 125.928 117.096C125.928 113.849 123.296 111.218 120.05 111.218C116.803 111.218 114.172 113.849 114.172 117.096C114.172 120.342 116.803 122.974 120.05 122.974Z" fill="black" fill-opacity="0.1"/>
<path d="M155.575 16.4061C158.821 16.4061 161.453 13.7745 161.453 10.5282C161.453 7.28199 158.821 4.65039 155.575 4.65039C152.329 4.65039 149.697 7.28199 149.697 10.5282C149.697 13.7745 152.329 16.4061 155.575 16.4061Z" fill="black" fill-opacity="0.1"/>
<path d="M155.575 51.9284C158.821 51.9284 161.453 49.2968 161.453 46.0506C161.453 42.8043 158.821 40.1727 155.575 40.1727C152.329 40.1727 149.697 42.8043 149.697 46.0506C149.697 49.2968 152.329 51.9284 155.575 51.9284Z" fill="black" fill-opacity="0.1"/>
<path d="M155.575 87.451C158.821 87.451 161.453 84.8194 161.453 81.5731C161.453 78.3269 158.821 75.6953 155.575 75.6953C152.329 75.6953 149.697 78.3269 149.697 81.5731C149.697 84.8194 152.329 87.451 155.575 87.451Z" fill="black" fill-opacity="0.1"/>
<path d="M155.575 122.974C158.821 122.974 161.453 120.342 161.453 117.096C161.453 113.849 158.821 111.218 155.575 111.218C152.329 111.218 149.697 113.849 149.697 117.096C149.697 120.342 152.329 122.974 155.575 122.974Z" fill="black" fill-opacity="0.1"/>
<path d="M191.097 16.4061C194.343 16.4061 196.974 13.7745 196.974 10.5282C196.974 7.28199 194.343 4.65039 191.097 4.65039C187.85 4.65039 185.219 7.28199 185.219 10.5282C185.219 13.7745 187.85 16.4061 191.097 16.4061Z" fill="black" fill-opacity="0.1"/>
<path d="M191.097 51.9284C194.343 51.9284 196.974 49.2968 196.974 46.0506C196.974 42.8043 194.343 40.1727 191.097 40.1727C187.85 40.1727 185.219 42.8043 185.219 46.0506C185.219 49.2968 187.85 51.9284 191.097 51.9284Z" fill="black" fill-opacity="0.1"/>
<path d="M191.097 87.451C194.343 87.451 196.974 84.8194 196.974 81.5731C196.974 78.3269 194.343 75.6953 191.097 75.6953C187.85 75.6953 185.219 78.3269 185.219 81.5731C185.219 84.8194 187.85 87.451 191.097 87.451Z" fill="black" fill-opacity="0.1"/>
<path d="M191.097 122.974C194.343 122.974 196.974 120.342 196.974 117.096C196.974 113.849 194.343 111.218 191.097 111.218C187.85 111.218 185.219 113.849 185.219 117.096C185.219 120.342 187.85 122.974 191.097 122.974Z" fill="black" fill-opacity="0.1"/>
<path d="M483.034 170.068C515.637 170.068 542.068 143.637 542.068 111.034C542.068 78.4303 515.637 52 483.034 52C450.43 52 424 78.4303 424 111.034C424 143.637 450.43 170.068 483.034 170.068Z" fill="#94E0FF"/>
<path d="M300 400.017L300 222.983C300 198.609 319.8 179 343.999 179C368.382 179 387.999 198.793 387.999 222.983L387.999 400.017C388.182 424.207 368.382 444 344.183 444C319.8 444 300 424.207 300 400.017Z" fill="#0066FF"/>
<path d="M344 179C319.699 179 300 198.699 300 223C300 247.301 319.699 267 344 267C368.301 267 388 247.301 388 223C388 198.699 368.301 179 344 179Z" fill="#001A64"/>
<path d="M344 356C319.699 356 300 375.699 300 400C300 424.301 319.699 444 344 444C368.301 444 388 424.301 388 400C388 375.699 368.301 356 344 356Z" fill="#94E0FF"/>
<path d="M388 485H74C74 571.691 144.283 642 230.943 642C317.603 642 388 571.691 388 485Z" fill="#0066FF"/>
<path d="M244 670H516C516 594.979 455.171 534 379.904 534C304.829 534.192 244 594.979 244 670Z" fill="#20009B"/>
<path d="M184 428V207C123.195 207 74 256.386 74 317.427C74 378.468 123.195 428 184 428Z" fill="#001A64"/>
<path d="M102.359 317V420.501H8L102.359 317Z" fill="#0066FF"/>
<path d="M191 273C216.957 273 238 251.957 238 226C238 200.043 216.957 179 191 179C165.043 179 144 200.043 144 226C144 251.957 165.043 273 191 273Z" fill="#94E0FF"/>
</g>
<defs>
<clipPath id="clip0">
<rect width="542" height="670" fill="white"/>
</clipPath>
</defs>
</svg>
