<svg width="60" height="60" viewBox="0 0 60 60" fill="none" xmlns="http://www.w3.org/2000/svg">
<g id="Group 22 Copy 11">
<rect id="Rectangle Copy 27" opacity="0.2" width="60" height="60" rx="18" fill="#FFB800"/>
<path id="Vector" d="M13.1165 26.2102C13.1644 26.3345 13.2313 26.45 13.3148 26.5524L28.8955 45.4828C28.8955 45.4828 28.9522 45.4828 28.9734 45.541C29.0695 45.6468 29.1819 45.7354 29.3063 45.8031C29.3489 45.8315 29.3939 45.8559 29.4408 45.8759C29.6091 45.9576 29.793 46 29.9791 46C30.1652 46 30.349 45.9576 30.5173 45.8759C30.5642 45.8559 30.6093 45.8315 30.6519 45.8031C30.7762 45.7354 30.8887 45.6468 30.9848 45.541C30.9848 45.541 31.0414 45.541 31.0627 45.4828L46.6434 26.5524C46.7268 26.45 46.7938 26.3345 46.8417 26.2102C46.9099 26.0496 46.9437 25.8758 46.9409 25.7006C46.9655 25.6919 46.9859 25.6736 46.9975 25.6496C47.0008 25.6157 47.0008 25.5816 46.9975 25.5477C46.991 25.4235 46.9672 25.3009 46.9267 25.1836C46.9267 25.1254 46.8913 25.0744 46.87 25.0235C46.8488 24.9725 46.87 24.9579 46.8346 24.9288L41.1689 14.7356C41.0432 14.5087 40.8606 14.3208 40.6401 14.1914C40.4195 14.0621 40.1692 13.996 39.9154 14.0002H20.0853C19.8357 13.9992 19.5903 14.066 19.3739 14.1938C19.1575 14.3217 18.9778 14.5061 18.853 14.7283L13.1873 24.9215C13.1873 24.9215 13.1873 24.9798 13.1519 25.0162C13.1165 25.0526 13.1165 25.1181 13.0952 25.1764C13.0547 25.2936 13.0309 25.4162 13.0244 25.5404C13.0135 25.5759 13.0063 25.6125 13.0031 25.6496C12.999 25.6663 12.999 25.6839 13.0031 25.7006C13.0048 25.8769 13.0434 26.0507 13.1165 26.2102ZM23.2864 27.1058L26.6151 38.2092L17.472 27.1058H23.2864ZM42.5287 27.1058L33.3856 38.2092L36.7142 27.1058H42.5287ZM30.0003 39.6289L26.2539 27.1058H33.7468L30.0003 39.6289ZM43.1377 24.1934H36.7638L34.71 16.9125H39.0938L43.1377 24.1934ZM31.7638 16.9125L33.7893 24.1934H26.2114L28.2369 16.9125H31.7638ZM20.9068 16.9125H25.2907L23.2652 24.1934H16.8913L20.9068 16.9125Z" fill="#FFB800"/>
</g>
</svg>
