<svg width="80" height="80" viewBox="0 0 80 80" fill="none" xmlns="http://www.w3.org/2000/svg">
<path d="M39.9997 51.6673C46.443 51.6673 51.6663 46.444 51.6663 40.0007C51.6663 33.5573 46.443 28.334 39.9997 28.334C33.5564 28.334 28.333 33.5573 28.333 40.0007C28.333 46.444 33.5564 51.6673 39.9997 51.6673Z" stroke="#005D63" stroke-width="4" stroke-linecap="round" stroke-linejoin="round"/>
<path d="M58.3329 38.3334L60.4802 35.1125C60.6202 34.905 60.7127 34.6692 60.7512 34.4219C60.7898 34.1746 60.7735 33.9219 60.7033 33.6816C60.2982 32.3477 59.7643 31.0563 59.1092 29.8258C58.9892 29.6067 58.8223 29.4168 58.6204 29.2697C58.4185 29.1226 58.1867 29.0219 57.9414 28.9747L54.1418 28.2148L51.7849 25.8578L51.0249 22.0581C50.9777 21.8128 50.877 21.5809 50.7299 21.379C50.5828 21.1771 50.3929 21.0102 50.1738 20.8902C48.9432 20.2352 47.6517 19.7014 46.3178 19.2963C46.0775 19.2262 45.8248 19.2098 45.5775 19.2484C45.3302 19.2869 45.0944 19.3794 44.8869 19.5194L41.6662 21.6665H38.3329L35.1122 19.5194C34.9047 19.3794 34.6689 19.2869 34.4217 19.2484C34.1744 19.2098 33.9216 19.2262 33.6814 19.2963C32.3474 19.7014 31.056 20.2352 29.8254 20.8902C29.6063 21.0102 29.4164 21.1771 29.2693 21.379C29.1222 21.5809 29.0214 21.8128 28.9743 22.0581L28.2145 25.8576L25.8573 28.2148L22.0578 28.9746C21.8125 29.0217 21.5806 29.1224 21.3788 29.2695C21.1769 29.4166 21.01 29.6065 20.89 29.8256C20.2348 31.0562 19.7009 32.3476 19.2958 33.6817C19.2257 33.9219 19.2093 34.1746 19.2479 34.4219C19.2865 34.6692 19.379 34.905 19.5189 35.1125L21.666 38.3332V41.6665L19.5189 44.8872C19.379 45.0947 19.2865 45.3305 19.2479 45.5778C19.2094 45.825 19.2257 46.0778 19.2958 46.318C19.7008 47.652 20.2346 48.9435 20.8897 50.1741C21.0098 50.3932 21.1767 50.583 21.3785 50.7301C21.5804 50.8773 21.8123 50.978 22.0576 51.0251L25.8573 51.7851L28.2143 54.1421L28.9741 57.9418C29.0212 58.1871 29.122 58.419 29.2691 58.6209C29.4162 58.8228 29.606 58.9897 29.8251 59.1097C31.0557 59.7648 32.3471 60.2987 33.681 60.7036C33.9213 60.7737 34.174 60.7901 34.4213 60.7515C34.6685 60.713 34.9043 60.6205 35.1118 60.4806L38.3327 58.3334H41.666L44.8869 60.4807C45.0944 60.6206 45.3302 60.7131 45.5775 60.7517C45.8248 60.7902 46.0775 60.7739 46.3178 60.7038C47.6517 60.2988 48.9431 59.7649 50.1736 59.1099C50.3927 58.9899 50.5826 58.823 50.7297 58.6211C50.8768 58.4192 50.9775 58.1873 51.0247 57.9421L51.7846 54.1423L54.1416 51.7851L57.9413 51.0253C58.1866 50.9782 58.4185 50.8775 58.6204 50.7303C58.8223 50.5832 58.9892 50.3934 59.1092 50.1743C59.7643 48.9437 60.2982 47.6524 60.7033 46.3185C60.7734 46.0782 60.7898 45.8255 60.7512 45.5782C60.7127 45.3309 60.6201 45.0951 60.4802 44.8876L58.3329 41.6667V38.3334Z" stroke="#005D63" stroke-width="4" stroke-linecap="round" stroke-linejoin="round"/>
<rect opacity="0.2" width="80" height="80" rx="24" fill="#005D63"/>
</svg>
