<svg width="60" height="60" viewBox="0 0 60 60" fill="none" xmlns="http://www.w3.org/2000/svg">
<rect opacity="0.2" width="60" height="60" rx="16" fill="#0066FF"/>
<path d="M30 38.7505C34.8325 38.7505 38.75 34.833 38.75 30.0005C38.75 25.168 34.8325 21.2505 30 21.2505C25.1675 21.2505 21.25 25.168 21.25 30.0005C21.25 34.833 25.1675 38.7505 30 38.7505Z" stroke="#0066FF" stroke-width="3" stroke-linecap="round" stroke-linejoin="round"/>
<path d="M43.7509 28.7499L45.3614 26.3342C45.4663 26.1786 45.5357 26.0018 45.5647 25.8163C45.5936 25.6309 45.5813 25.4413 45.5287 25.2611C45.2249 24.2606 44.8245 23.2921 44.3331 22.3692C44.2431 22.2049 44.1179 22.0625 43.9665 21.9522C43.8151 21.8418 43.6412 21.7663 43.4573 21.7309L40.6076 21.161L38.8399 19.3932L38.2699 16.5434C38.2345 16.3595 38.159 16.1856 38.0486 16.0341C37.9383 15.8827 37.7959 15.7576 37.6316 15.6676C36.7086 15.1763 35.74 14.7759 34.7396 14.4721C34.5594 14.4195 34.3698 14.4072 34.1843 14.4362C33.9989 14.4651 33.8221 14.5345 33.6664 14.6394L31.2509 16.2498H28.7509L26.3354 14.6394C26.1797 14.5345 26.0029 14.4651 25.8175 14.4362C25.632 14.4072 25.4424 14.4195 25.2623 14.4721C24.2618 14.7759 23.2932 15.1763 22.3703 15.6675C22.2059 15.7576 22.0635 15.8827 21.9532 16.0341C21.8428 16.1856 21.7673 16.3595 21.7319 16.5435L21.1621 19.3931L19.3942 21.1609L16.5446 21.7308C16.3606 21.7661 16.1867 21.8417 16.0353 21.952C15.8839 22.0624 15.7587 22.2048 15.6687 22.3691C15.1773 23.292 14.7769 24.2606 14.4731 25.2611C14.4205 25.4413 14.4082 25.6309 14.4371 25.8163C14.4661 26.0018 14.5355 26.1786 14.6404 26.3342L16.2508 28.7498V31.2498L14.6404 33.6653C14.5355 33.8209 14.4661 33.9977 14.4372 34.1832C14.4082 34.3687 14.4205 34.5582 14.4731 34.7384C14.7768 35.7389 15.1772 36.7075 15.6685 37.6305C15.7585 37.7948 15.8837 37.9372 16.0351 38.0475C16.1865 38.1578 16.3604 38.2334 16.5444 38.2687L19.3942 38.8387L21.1619 40.6064L21.7318 43.4562C21.7672 43.6402 21.8427 43.8141 21.953 43.9655C22.0634 44.1169 22.2058 44.2421 22.3701 44.3322C23.293 44.8235 24.2615 45.2239 25.262 45.5276C25.4422 45.5802 25.6317 45.5924 25.8172 45.5635C26.0026 45.5346 26.1794 45.4652 26.335 45.3603L28.7508 43.7499H31.2508L33.6664 45.3604C33.8221 45.4653 33.9989 45.5347 34.1843 45.5637C34.3698 45.5926 34.5594 45.5803 34.7395 45.5277C35.74 45.2239 36.7085 44.8236 37.6315 44.3323C37.7958 44.2423 37.9382 44.1171 38.0485 43.9657C38.1588 43.8143 38.2344 43.6404 38.2697 43.4564L38.8397 40.6066L40.6074 38.8387L43.4572 38.2689C43.6412 38.2335 43.8151 38.158 43.9665 38.0476C44.1179 37.9373 44.2431 37.7949 44.3331 37.6306C44.8245 36.7077 45.2249 35.7392 45.5287 34.7387C45.5813 34.5585 45.5936 34.369 45.5647 34.1835C45.5357 33.998 45.4663 33.8212 45.3614 33.6656L43.7509 31.2499V28.7499Z" stroke="#0066FF" stroke-width="3" stroke-linecap="round" stroke-linejoin="round"/>
</svg>
