<svg width="80" height="80" viewBox="0 0 80 80" fill="none" xmlns="http://www.w3.org/2000/svg">
<rect opacity="0.2" width="80" height="80" rx="24" fill="#FF0000"/>
<path fill-rule="evenodd" clip-rule="evenodd" d="M23.5224 50.8333C23.1562 50.2765 22.8196 49.7007 22.5141 49.1083C22.0273 48.1396 21.8834 47.0345 22.1059 45.9735C22.3284 44.9124 22.9041 43.9582 23.7391 43.2667L25.4057 41.8333C25.2502 40.6161 25.2502 39.3839 25.4057 38.1667L23.7391 36.7333C22.9161 36.035 22.3496 35.0821 22.1292 34.0256C21.9089 32.969 22.0472 31.8691 22.5224 30.9C22.8233 30.3041 23.1571 29.7254 23.5224 29.1667C24.1213 28.2609 25.0073 27.5828 26.038 27.2412C27.0688 26.8996 28.1844 26.9145 29.2057 27.2833L31.2974 28.0333C32.2739 27.2904 33.3408 26.6744 34.4724 26.2L34.8224 23.9917C35.0186 22.9043 35.5796 21.9163 36.4128 21.1906C37.246 20.465 38.3017 20.045 39.4057 20H41.1391C42.2484 20.042 43.3098 20.4627 44.1468 21.192C44.9837 21.9213 45.5456 22.9152 45.7391 24.0083L46.1391 26.2C47.2773 26.6783 48.3499 27.3 49.3307 28.05L51.4224 27.3C52.4397 26.9337 53.5504 26.9185 54.5774 27.2568C55.6044 27.5951 56.4886 28.2674 57.0891 29.1667C57.4553 29.7235 57.7919 30.2993 58.0974 30.8917C58.5716 31.8616 58.7087 32.9621 58.4868 34.0187C58.2649 35.0754 57.6967 36.0277 56.8724 36.725L55.2057 38.1583C55.3612 39.3756 55.3612 40.6077 55.2057 41.825L56.8724 43.2583C57.7078 43.9478 58.2834 44.9011 58.5046 45.9614C58.7257 47.0218 58.5792 48.1258 58.0891 49.0917C57.7901 49.6913 57.4562 50.2728 57.0891 50.8333C56.4902 51.7391 55.6042 52.4172 54.5734 52.7588C53.5427 53.1004 52.427 53.0855 51.4057 52.7167L49.3141 51.9667C48.3355 52.7066 47.2691 53.3224 46.1391 53.8L45.7224 56.0083C45.5262 57.0957 44.9652 58.0837 44.132 58.8094C43.2988 59.535 42.2431 59.955 41.1391 60H40.3057H39.4724C38.3631 59.958 37.3016 59.5373 36.4647 58.808C35.6278 58.0787 35.0658 57.0848 34.8724 55.9917L34.4724 53.8C33.3357 53.3184 32.2636 52.6969 31.2807 51.95L29.1891 52.7C28.1717 53.0663 27.061 53.0815 26.034 52.7432C25.0071 52.4049 24.1229 51.7326 23.5224 50.8333ZM28.2974 43.7417L25.8974 45.775V45.8333C25.6417 46.0417 25.4627 46.3293 25.3887 46.6508C25.3148 46.9722 25.3501 47.3092 25.4891 47.6083C25.7406 48.1063 26.0188 48.5903 26.3224 49.0583C26.5125 49.3301 26.7882 49.5302 27.1054 49.6269C27.4226 49.7236 27.7631 49.7112 28.0724 49.5917L31.0391 48.5333C31.2181 48.4683 31.4069 48.4345 31.5974 48.4333C31.9986 48.4336 32.3862 48.5786 32.6891 48.8417C33.8015 49.8011 35.0851 50.5419 36.4724 51.025C36.7509 51.1219 36.9987 51.291 37.1905 51.515C37.3822 51.739 37.5112 52.0099 37.5641 52.3L38.1307 55.4083C38.1966 55.7532 38.3775 56.0654 38.644 56.294C38.9104 56.5226 39.2466 56.654 39.5974 56.6667C40.0693 56.6917 40.5422 56.6917 41.0141 56.6667C41.3608 56.6508 41.6922 56.5189 41.9551 56.2923C42.218 56.0656 42.3972 55.7573 42.4641 55.4167L43.0307 52.3083C43.0836 52.0182 43.2126 51.7474 43.4043 51.5234C43.5961 51.2994 43.8439 51.1303 44.1224 51.0333C45.5097 50.5502 46.7933 49.8095 47.9057 48.85C48.1306 48.6542 48.4038 48.5224 48.6969 48.4681C48.9901 48.4139 49.2924 48.4393 49.5724 48.5417L52.5391 49.6C52.8484 49.7195 53.1889 49.7319 53.5061 49.6352C53.8233 49.5386 54.099 49.3384 54.2891 49.0667C54.5926 48.5986 54.8708 48.1146 55.1224 47.6167C55.2635 47.3165 55.2999 46.9778 55.2259 46.6546C55.1519 46.3313 54.9717 46.0422 54.7141 45.8333L52.3224 43.75C52.0961 43.56 51.9243 43.3133 51.8247 43.035C51.7252 42.7568 51.7013 42.4571 51.7557 42.1667C52.0447 40.7198 52.0447 39.2302 51.7557 37.7833C51.7013 37.4929 51.7252 37.1932 51.8247 36.915C51.9243 36.6367 52.0961 36.39 52.3224 36.2L54.7141 34.1667C54.9726 33.9605 55.1549 33.6739 55.2319 33.3523C55.3089 33.0307 55.2762 32.6926 55.1391 32.3917C54.8875 31.8937 54.6093 31.4097 54.3057 30.9417C54.1147 30.6711 53.839 30.4718 53.5221 30.3752C53.2052 30.2787 52.8652 30.2903 52.5557 30.4083L49.5891 31.4667C49.3091 31.569 49.0068 31.5944 48.7136 31.5402C48.4205 31.486 48.1472 31.3541 47.9224 31.1583C46.81 30.1989 45.5264 29.4581 44.1391 28.975C43.8606 28.8781 43.6128 28.709 43.421 28.485C43.2292 28.261 43.1003 27.9901 43.0474 27.7L42.4807 24.5833C42.4132 24.24 42.2316 23.9297 41.9653 23.7027C41.699 23.4758 41.3637 23.3456 41.0141 23.3333C40.5422 23.3083 40.0693 23.3083 39.5974 23.3333C39.2506 23.3492 38.9193 23.4811 38.6563 23.7077C38.3934 23.9344 38.2142 24.2427 38.1474 24.5833L37.5807 27.6917C37.5278 27.9818 37.3989 28.2526 37.2071 28.4766C37.0153 28.7006 36.7675 28.8697 36.4891 28.9667C35.1017 29.4498 33.8181 30.1905 32.7057 31.15C32.4809 31.3458 32.2077 31.4776 31.9145 31.5319C31.6214 31.5861 31.3191 31.5607 31.0391 31.4583L28.0724 30.4C27.7629 30.282 27.4229 30.2703 27.106 30.3669C26.7892 30.4635 26.5135 30.6627 26.3224 30.9333C26.0188 31.4014 25.7406 31.8854 25.4891 32.3833C25.348 32.6835 25.3115 33.0222 25.3856 33.3454C25.4596 33.6687 25.6398 33.9578 25.8974 34.1667L28.2974 36.1917C28.5222 36.3826 28.6924 36.6297 28.7905 36.9079C28.8886 37.1861 28.9111 37.4853 28.8557 37.775C28.5668 39.2218 28.5668 40.7115 28.8557 42.1583C28.9111 42.448 28.8886 42.7473 28.7905 43.0254C28.6924 43.3036 28.5222 43.5508 28.2974 43.7417ZM44.0101 45.5429C42.9138 46.2755 41.6249 46.6665 40.3063 46.6665C38.5382 46.6665 36.8425 45.9641 35.5923 44.7138C34.342 43.4636 33.6396 41.7679 33.6396 39.9998C33.6396 38.6813 34.0306 37.3923 34.7632 36.296C35.4957 35.1997 36.5369 34.3452 37.7551 33.8406C38.9733 33.336 40.3137 33.204 41.6069 33.4612C42.9001 33.7185 44.088 34.3534 45.0204 35.2858C45.9527 36.2181 46.5877 37.406 46.8449 38.6992C47.1021 39.9924 46.9701 41.3328 46.4655 42.551C45.9609 43.7692 45.1064 44.8104 44.0101 45.5429ZM42.1582 37.2282C41.6101 36.862 40.9656 36.6665 40.3063 36.6665C39.4223 36.6665 38.5744 37.0177 37.9493 37.6428C37.3242 38.2679 36.973 39.1157 36.973 39.9998C36.973 40.6591 37.1685 41.3035 37.5347 41.8517C37.901 42.3999 38.4216 42.8271 39.0307 43.0794C39.6398 43.3317 40.31 43.3977 40.9566 43.2691C41.6032 43.1405 42.1972 42.823 42.6633 42.3568C43.1295 41.8906 43.447 41.2967 43.5756 40.6501C43.7042 40.0035 43.6382 39.3333 43.3859 38.7242C43.1336 38.1151 42.7064 37.5945 42.1582 37.2282Z" fill="#FF0000"/>
</svg>
