<svg width="60" height="60" viewBox="0 0 60 60" fill="none" xmlns="http://www.w3.org/2000/svg">
<rect opacity="0.195126" width="60" height="60" rx="16" fill="#0066FF"/>
<path d="M30 45C38.2843 45 45 38.2843 45 30C45 21.7157 38.2843 15 30 15C21.7157 15 15 21.7157 15 30C15 38.2843 21.7157 45 30 45Z" stroke="#0066FF" stroke-width="3" stroke-miterlimit="10"/>
<path d="M17.748 38.6553L19.5253 37.5824C19.7157 37.4674 19.8668 37.2974 19.9583 37.0947C20.0499 36.892 20.0778 36.6663 20.0382 36.4474L19.0289 30.8633C18.9845 30.6181 19.025 30.3651 19.1435 30.1459L20.8131 27.0587C20.8823 26.9307 20.9763 26.8178 21.0896 26.7264L23.6452 24.6654C23.8147 24.5287 24.021 24.4455 24.238 24.4264C24.4549 24.4073 24.6725 24.4531 24.8633 24.558L25.9874 25.1763C26.2196 25.304 26.3978 25.5114 26.489 25.7602L26.7037 26.3457C26.7757 26.5422 26.9025 26.7141 27.069 26.8409C27.2356 26.9678 27.4349 27.0444 27.6435 27.0617C27.8522 27.079 28.0614 27.0363 28.2466 26.9386C28.4317 26.8409 28.5851 26.6923 28.6885 26.5103L29.4263 25.2126C29.5001 25.0828 29.5997 24.9694 29.7188 24.8793C29.8379 24.7893 29.9742 24.7245 30.1192 24.689C30.2643 24.6534 30.4151 24.6478 30.5623 24.6726C30.7096 24.6973 30.8503 24.7518 30.9758 24.8328L33.228 26.2861C33.4141 26.4062 33.6321 26.4672 33.8535 26.4611C34.0749 26.4549 34.2892 26.382 34.4684 26.2519C34.6475 26.1217 34.7831 25.9404 34.8574 25.7318C34.9316 25.5232 34.941 25.2969 34.8843 25.0829V25.0829C34.8189 24.8356 34.8419 24.5732 34.9493 24.341C35.0567 24.1089 35.2418 23.9215 35.4727 23.8113L38.5766 22.3299C38.7945 22.2259 38.972 22.053 39.0817 21.838C39.1913 21.6229 39.2271 21.3777 39.1833 21.1402L38.5436 17.6704" stroke="#0066FF" stroke-width="3" stroke-linecap="round" stroke-linejoin="round"/>
<path d="M39.9104 41.2585L37.6341 38.9777C37.5321 38.8755 37.411 38.7945 37.2777 38.7392C37.1443 38.6839 37.0014 38.6554 36.8571 38.6554H35.0704C34.9127 38.6554 34.7569 38.6214 34.6135 38.5558C34.4701 38.4902 34.3426 38.3945 34.2396 38.2751C34.1365 38.1558 34.0604 38.0157 34.0163 37.8643C33.9723 37.7129 33.9614 37.5538 33.9844 37.3978L34.3564 34.8714C34.3816 34.6998 34.4472 34.5366 34.5477 34.3953C34.6482 34.2539 34.7808 34.1384 34.9346 34.0581L38.6632 32.1128C38.8607 32.0097 39.085 31.9692 39.3061 31.9966C39.5272 32.0241 39.7348 32.1182 39.9011 32.2664L43.8449 35.7798" stroke="#0066FF" stroke-width="3" stroke-linecap="round" stroke-linejoin="round"/>
</svg>
