<svg width="60" height="60" viewBox="0 0 60 60" fill="none" xmlns="http://www.w3.org/2000/svg">
<g id="Group 22 Copy 11">
<rect id="Rectangle Copy 27" opacity="0.2" width="60" height="60" rx="16" fill="#FF6B00"/>
<g id="list-numbers">
<path id="Vector" d="M26.25 30H43.7498" stroke="#FF6B00" stroke-width="3" stroke-linecap="round" stroke-linejoin="round"/>
<path id="Vector_2" d="M26.25 20H43.7498" stroke="#FF6B00" stroke-width="3" stroke-linecap="round" stroke-linejoin="round"/>
<path id="Vector_3" d="M26.25 40H43.75" stroke="#FF6B00" stroke-width="3" stroke-linecap="round" stroke-linejoin="round"/>
<path id="Vector_4" d="M16.25 19.375L18.75 18.125V26.8741" stroke="#FF6B00" stroke-width="3" stroke-linecap="round" stroke-linejoin="round"/>
<path id="Vector_5" d="M16.4219 33.8356C16.5407 33.5546 16.7169 33.3015 16.9393 33.0926C17.1617 32.8837 17.4253 32.7237 17.7133 32.6227C18.0012 32.5218 18.307 32.4822 18.6112 32.5064C18.9153 32.5307 19.211 32.6183 19.4793 32.7636C19.7475 32.909 19.9825 33.1088 20.1689 33.3503C20.3554 33.5918 20.4893 33.8696 20.562 34.1659C20.6347 34.4623 20.6446 34.7705 20.5911 35.0709C20.5376 35.3713 20.4219 35.6571 20.2514 35.9101L16.25 41.2496H20.625" stroke="#FF6B00" stroke-width="3" stroke-linecap="round" stroke-linejoin="round"/>
</g>
</g>
</svg>
