<svg width="80" height="80" viewBox="0 0 80 80" fill="none" xmlns="http://www.w3.org/2000/svg">
<rect opacity="0.2" width="80" height="80" rx="24" fill="#FF96E1"/>
<path fill-rule="evenodd" clip-rule="evenodd" d="M31.6364 48.3352H28.3035C26.3944 48.3287 24.5455 47.6667 23.0661 46.4601C21.5866 45.2535 20.5664 43.5755 20.176 41.7068C19.7857 39.838 20.0489 37.8919 20.9217 36.194C21.7945 34.4961 23.2238 33.1494 24.9706 32.3792C25.0035 29.9701 25.9836 27.6708 27.6989 25.9789C29.4142 24.287 31.7267 23.3386 34.136 23.3388H35.7441C36.4969 22.2654 37.5068 21.3979 38.6815 20.8156C39.8561 20.2334 41.1581 19.955 42.4681 20.0059C44.7824 19.9992 47.0136 20.8681 48.7136 22.4384C50.4137 24.0086 51.4568 26.1639 51.6335 28.4714C54.1139 28.8804 56.3493 30.2088 57.8942 32.192C59.4392 34.1751 60.1804 36.6675 59.9702 39.1726C59.7601 41.6777 58.614 44.0117 56.7602 45.7098C54.9064 47.4078 52.481 48.3452 49.9671 48.3352H48.3006C47.8587 48.3352 47.4348 48.1597 47.1223 47.8471C46.8098 47.5346 46.6342 47.1108 46.6342 46.6688C46.6342 46.2268 46.8098 45.803 47.1223 45.4904C47.4348 45.1779 47.8587 45.0024 48.3006 45.0024H49.9671C51.7349 45.0024 53.4304 44.3001 54.6804 43.05C55.9305 41.8 56.6328 40.1045 56.6328 38.3366C56.6328 36.5688 55.9305 34.8733 54.6804 33.6233C53.4304 32.3732 51.7349 31.6709 49.9671 31.6709C49.5251 31.6709 49.1012 31.4954 48.7887 31.1828C48.4762 30.8703 48.3006 30.4465 48.3006 30.0045V29.1713C48.3006 27.6244 47.6862 26.1409 46.5923 25.0471C45.4985 23.9533 44.015 23.3388 42.4681 23.3388C41.5709 23.2876 40.6779 23.4962 39.8962 23.9395C39.1145 24.3829 38.4771 25.0421 38.0604 25.8384C37.9157 26.0891 37.7083 26.2977 37.4584 26.4438C37.2086 26.5899 36.925 26.6684 36.6356 26.6716H34.136C32.5891 26.6716 31.1056 27.2861 30.0118 28.3799C28.918 29.4737 28.3035 30.9573 28.3035 32.5041C28.3088 32.7249 28.3311 32.945 28.3702 33.1624C28.436 33.589 28.3471 34.0252 28.1194 34.3919C27.8917 34.7587 27.5402 35.0319 27.1287 35.1621C25.9559 35.464 24.9326 36.1812 24.2488 37.1807C23.565 38.1801 23.2672 39.3938 23.4108 40.5962C23.5543 41.7987 24.1295 42.9081 25.0293 43.7185C25.9292 44.5289 27.0926 44.9851 28.3035 45.0024H31.6364C32.0783 45.0024 32.5022 45.1779 32.8147 45.4904C33.1272 45.803 33.3028 46.2268 33.3028 46.6688C33.3028 47.1108 33.1272 47.5346 32.8147 47.8471C32.5022 48.1597 32.0783 48.3352 31.6364 48.3352ZM38.7916 43.8243C39.1041 43.5117 39.528 43.3362 39.97 43.3362C40.4119 43.3362 40.8358 43.5117 41.1483 43.8243C41.4608 44.1368 41.6364 44.5606 41.6364 45.0026V50.0019C42.6763 50.0073 43.6887 50.3369 44.5325 50.9447C45.3763 51.5525 46.0095 52.4084 46.344 53.3931C46.4395 53.3657 46.537 53.3462 46.6357 53.3348H54.9678C55.4098 53.3348 55.8336 53.5103 56.1462 53.8228C56.4587 54.1354 56.6343 54.5592 56.6343 55.0012C56.6343 55.4431 56.4587 55.867 56.1462 56.1795C55.8336 56.492 55.4098 56.6676 54.9678 56.6676H46.6357C46.537 56.6562 46.4395 56.6367 46.344 56.6093C46.0095 57.594 45.3763 58.4498 44.5325 59.0577C43.6887 59.6655 42.6763 59.9951 41.6364 60.0005H38.3035C37.2735 59.9959 36.2701 59.6732 35.4304 59.0766C34.5908 58.4801 33.9559 57.6387 33.6125 56.6676H24.9721C24.5301 56.6676 24.1063 56.492 23.7938 56.1795C23.4812 55.867 23.3057 55.4431 23.3057 55.0012C23.3057 54.5592 23.4812 54.1354 23.7938 53.8228C24.1063 53.5103 24.5301 53.3348 24.9721 53.3348H33.6125C33.9559 52.3636 34.5908 51.5223 35.4304 50.9257C36.2701 50.3292 37.2735 50.0065 38.3035 50.0019V45.0026C38.3035 44.5606 38.4791 44.1368 38.7916 43.8243ZM42.8147 56.1795C43.1272 55.867 43.3028 55.4431 43.3028 55.0012C43.3028 54.5592 43.1272 54.1354 42.8147 53.8228C42.5022 53.5103 42.0784 53.3348 41.6364 53.3348H38.3035C37.8616 53.3348 37.4377 53.5103 37.1252 53.8228C36.8127 54.1354 36.6371 54.5592 36.6371 55.0012C36.6371 55.4431 36.8127 55.867 37.1252 56.1795C37.4377 56.492 37.8616 56.6676 38.3035 56.6676H41.6364C42.0784 56.6676 42.5022 56.492 42.8147 56.1795Z" fill="#FF96E1"/>
</svg>
