<svg width="60" height="60" viewBox="0 0 60 60" fill="none" xmlns="http://www.w3.org/2000/svg">
<g id="Group 22 Copy 9">
<rect id="Rectangle Copy 27" opacity="0.2" width="60" height="60" rx="18" fill="#FF008A"/>
<g id="noun_process_3355340 1">
<g id="Group">
<g id="Group_2">
<path id="Vector" d="M25.6765 9H34.3235C36.3702 9 38.0294 10.6592 38.0294 12.7059V15.1765C38.0294 17.2232 36.3702 18.8824 34.3235 18.8824H25.6765C23.6298 18.8824 21.9706 17.2232 21.9706 15.1765V12.7059C21.9706 10.6592 23.6298 9 25.6765 9ZM25.6765 11.4706C24.9942 11.4706 24.4412 12.0236 24.4412 12.7059V15.1765C24.4412 15.8587 24.9942 16.4118 25.6765 16.4118H34.3235C35.0058 16.4118 35.5588 15.8587 35.5588 15.1765V12.7059C35.5588 12.0236 35.0058 11.4706 34.3235 11.4706H25.6765ZM25.6765 41.1176H34.3235C36.3702 41.1176 38.0294 42.7768 38.0294 44.8235V47.2941C38.0294 49.3408 36.3702 51 34.3235 51H25.6765C23.6298 51 21.9706 49.3408 21.9706 47.2941V44.8235C21.9706 42.7768 23.6298 41.1176 25.6765 41.1176ZM25.6765 43.5882C24.9942 43.5882 24.4412 44.1413 24.4412 44.8235V47.2941C24.4412 47.9764 24.9942 48.5294 25.6765 48.5294H34.3235C35.0058 48.5294 35.5588 47.9764 35.5588 47.2941V44.8235C35.5588 44.1413 35.0058 43.5882 34.3235 43.5882H25.6765ZM25.6765 25.0588H34.3235C36.3702 25.0588 38.0294 26.718 38.0294 28.7647V31.2353C38.0294 33.282 36.3702 34.9412 34.3235 34.9412H25.6765C23.6298 34.9412 21.9706 33.282 21.9706 31.2353V28.7647C21.9706 26.718 23.6298 25.0588 25.6765 25.0588ZM25.6765 27.5294C24.9942 27.5294 24.4412 28.0825 24.4412 28.7647V31.2353C24.4412 31.9175 24.9942 32.4706 25.6765 32.4706H34.3235C35.0058 32.4706 35.5588 31.9175 35.5588 31.2353V28.7647C35.5588 28.0825 35.0058 27.5294 34.3235 27.5294H25.6765ZM15.7813 46.9577C11.848 45.8676 9 42.2598 9 38.0294C9 32.9127 13.148 28.7647 18.2647 28.7647H18.8824C19.5646 28.7647 20.1176 29.3178 20.1176 30C20.1176 30.6822 19.5646 31.2353 18.8824 31.2353H18.2647C14.5124 31.2353 11.4706 34.2771 11.4706 38.0294C11.4706 41.1783 13.6235 43.8577 16.5736 44.6119L15.9702 43.6061C15.6192 43.0211 15.8088 42.2624 16.3939 41.9113C16.9789 41.5603 17.7377 41.7501 18.0887 42.3351L19.9416 45.4233C20.2597 45.9535 20.1368 46.6372 19.654 47.0234L16.5658 49.494C16.0331 49.9202 15.2557 49.8338 14.8295 49.3011C14.4033 48.7684 14.4897 47.991 15.0224 47.5648L15.7813 46.9577ZM44.2187 30.8989L44.9776 31.506C45.5103 31.9322 45.5967 32.7095 45.1705 33.2423C44.7443 33.775 43.9669 33.8614 43.4342 33.4352L40.346 30.9646C39.8632 30.5784 39.7403 29.8947 40.0584 29.3645L41.9113 26.2762C42.2623 25.6912 43.0211 25.5015 43.6061 25.8525C44.1912 26.2035 44.3808 26.9623 44.0298 27.5473L43.4264 28.5531C46.3776 27.7986 48.5294 25.1184 48.5294 21.9706C48.5294 18.2183 45.4876 15.1765 41.7353 15.1765H41.1176C40.4354 15.1765 39.8824 14.6234 39.8824 13.9412C39.8824 13.2589 40.4354 12.7059 41.1176 12.7059H41.7353C46.8521 12.7059 51 16.8538 51 21.9706C51 26.1994 48.1534 29.8084 44.2187 30.8989Z" fill="#FF008A"/>
</g>
</g>
</g>
</g>
</svg>
