<svg xmlns="http://www.w3.org/2000/svg" width="600" height="658" viewBox="0 0 600 658">
    <g fill="none" fill-rule="evenodd">
        <path fill="#EAEAEA" d="M359.5 484.301L359.5 553.487 419.418 518.893 419.418 449.708z"/>
        <path fill="#F5F5F5" d="M359.5 553.487L299.583 518.893 299.583 449.709 359.5 484.301z"/>
        <path fill="#E5E5E5" d="M419.417 449.708L359.5 415.116 299.584 449.708 359.5 484.3z"/>
        <path fill="#EAEAEA" d="M479.334 484.301L479.334 553.487 539.25 518.893 539.25 449.708z"/>
        <path fill="#F5F5F5" d="M479.334 553.487L419.417 518.893 419.417 449.709 479.334 484.301z"/>
        <path fill="#E5E5E5" d="M539.25 449.708L479.334 415.116 419.418 449.708 479.334 484.3z"/>
        <path fill="#EAEAEA" d="M299.583 380.522L299.583 449.708 359.501 415.115 359.501 345.929z"/>
        <path fill="#F5F5F5" d="M299.583 449.708L239.666 415.116 239.666 345.93 299.583 380.522z"/>
        <path fill="#E5E5E5" d="M359.5 345.929L299.583 311.335 239.667 345.929 299.583 380.521z"/>
        <path fill="#EAEAEA" d="M419.417 380.522L419.417 449.708 479.334 415.115 479.334 345.929z"/>
        <path fill="#F5F5F5" d="M419.417 449.708L359.5 415.116 359.5 345.93 419.417 380.522z"/>
        <path fill="#E5E5E5" d="M479.334 345.929L419.417 311.335 359.501 345.929 419.417 380.521z"/>
        <path fill="#EAEAEA" d="M359.5 276.743L359.5 345.929 419.418 311.336 419.418 242.15z"/>
        <path fill="#F5F5F5" d="M359.5 345.929L299.583 311.335 299.583 242.151 359.5 276.743z"/>
        <path fill="#E5E5E5" d="M419.417 242.15L359.5 207.558 299.584 242.15 359.5 276.744z"/>
        <path fill="#EAEAEA" d="M479.334 276.743L479.334 345.929 539.25 311.336 539.25 242.15z"/>
        <path fill="#F5F5F5" d="M479.334 345.929L419.417 311.335 419.417 242.151 479.334 276.743z"/>
        <path fill="#E5E5E5" d="M539.25 242.15L479.334 207.558 419.418 242.15 479.334 276.744z"/>
        <path fill="#EAEAEA" d="M299.583 172.964L299.583 242.15 359.501 207.558 359.501 138.371z"/>
        <path fill="#F5F5F5" d="M299.583 242.15L239.666 207.558 239.666 138.372 299.583 172.964z"/>
        <path fill="#E5E5E5" d="M359.5 138.371L299.583 103.779 239.667 138.371 299.583 172.965z"/>
        <path fill="#EAEAEA" d="M419.417 172.964L419.417 242.15 479.334 207.558 479.334 138.371z"/>
        <path fill="#F5F5F5" d="M419.417 242.15L359.5 207.558 359.5 138.372 419.417 172.964z"/>
        <path fill="#E5E5E5" d="M479.334 138.371L419.417 103.779 359.501 138.371 419.417 172.965z"/>
        <path fill="#EAEAEA" d="M179.75 380.522L179.75 449.708 239.667 415.115 239.667 345.929z"/>
        <path fill="#F5F5F5" d="M179.75 449.708L119.833 415.116 119.833 345.93 179.75 380.522z"/>
        <path fill="#E5E5E5" d="M239.667 345.929L179.749 311.335 119.833 345.929 179.749 380.521z"/>
        <path fill="#EAEAEA" d="M59.916 380.522L59.916 449.708 119.834 415.115 119.834 345.929z"/>
        <path fill="#E5E5E5" d="M0 345.929L59.916 380.522 119.833 345.929 59.916 311.336z"/>
        <path fill="#EAEAEA" d="M119.833 276.743L119.833 345.929 179.75 311.336 179.75 242.15z"/>
        <path fill="#F5F5F5" d="M119.833 345.929L59.916 311.335 59.916 242.151 119.833 276.743z"/>
        <path fill="#E5E5E5" d="M179.75 242.15L119.833 207.558 59.917 242.15 119.833 276.744z"/>
        <path fill="#EAEAEA" d="M239.667 276.743L239.667 345.929 299.584 311.336 299.584 242.15z"/>
        <path fill="#F5F5F5" d="M239.667 345.929L179.749 311.335 179.749 242.151 239.667 276.743z"/>
        <path fill="#E5E5E5" d="M299.583 242.15L239.666 207.558 179.75 242.15 239.666 276.744z"/>
        <path fill="#EAEAEA" d="M359.5 69.186L359.5 138.372 419.418 103.779 419.418 34.593z"/>
        <path fill="#F5F5F5" d="M359.5 138.371L299.583 103.779 299.583 34.593 359.5 69.185z"/>
        <path fill="#E5E5E5" d="M359.501 0L299.583 34.593 359.501 69.186 419.417 34.593z"/>
        <path fill="#EAEAEA" d="M479.334 69.186L479.334 138.372 539.25 103.779 539.25 34.593z"/>
        <path fill="#F5F5F5" d="M479.334 138.371L419.417 103.779 419.417 34.593 479.334 69.185z"/>
        <path fill="#E5E5E5" d="M479.334 0L419.417 34.593 479.334 69.186 539.249 34.593z"/>
        <path fill="#EAEAEA" d="M119.833 69.186L119.833 138.372 179.75 103.779 179.75 34.593z"/>
        <path fill="#F5F5F5" d="M119.833 138.371L59.916 103.779 59.916 34.593 119.833 69.185z"/>
        <path fill="#E5E5E5" d="M119.834 0L59.916 34.593 119.834 69.186 179.75 34.593z"/>
        <path fill="#EAEAEA" d="M239.667 69.186L239.667 138.372 299.584 103.779 299.584 34.593z"/>
        <path fill="#F5F5F5" d="M239.667 138.371L179.749 103.779 179.749 34.593 239.667 69.185z"/>
        <path fill="#E5E5E5" d="M239.667 0L179.75 34.593 239.667 69.186 299.583 34.593z"/>
        <path fill="#EAEAEA" d="M59.916 172.964L59.916 242.15 119.834 207.558 119.834 138.371z"/>
        <path fill="#E5E5E5" d="M0 138.372L59.916 172.964 119.833 138.372 59.916 103.778z"/>
        <path fill="#EAEAEA" d="M179.75 172.964L179.75 242.15 239.667 207.558 239.667 138.371z"/>
        <path fill="#F5F5F5" d="M179.75 242.15L119.833 207.558 119.833 138.372 179.75 172.964z"/>
        <path fill="#E5E5E5" d="M239.667 138.371L179.749 103.779 119.833 138.371 179.749 172.965z"/>
        <path fill="#EAEAEA" d="M179.75 588.079L179.75 657.264 239.667 622.672 239.667 553.487z"/>
        <path fill="#F5F5F5" d="M119.834 622.672L179.75 657.264 179.75 588.079 119.834 553.487z"/>
        <path fill="#E5E5E5" d="M239.667 553.487L179.749 518.893 119.833 553.487 179.749 588.079z"/>
        <path fill="#EAEAEA" d="M59.916 588.079L59.916 657.264 119.833 622.672 119.833 553.487z"/>
        <path fill="#E5E5E5" d="M0 553.487L59.916 588.079 119.833 553.487 59.916 518.893z"/>
        <path fill="#EAEAEA" d="M299.583 588.079L299.583 657.264 359.501 622.672 359.501 553.487z"/>
        <path fill="#F5F5F5" d="M239.667 622.672L299.583 657.264 299.583 588.079 239.667 553.487z"/>
        <path fill="#E5E5E5" d="M359.5 553.487L299.583 518.893 239.667 553.487 299.583 588.079z"/>
        <path fill="#EAEAEA" d="M419.417 588.079L419.417 657.264 479.334 622.672 479.334 553.487z"/>
        <path fill="#F5F5F5" d="M359.501 622.672L419.417 657.264 419.417 588.079 359.501 553.487z"/>
        <path fill="#E5E5E5" d="M479.334 553.487L419.417 518.893 359.501 553.487 419.417 588.079z"/>
        <path fill="#EAEAEA" d="M539.249 588.079L539.249 657.264 599.167 622.672 599.167 553.487z"/>
        <path fill="#F5F5F5" d="M479.334 622.672L539.249 657.264 539.249 588.079 479.334 553.487z"/>
        <path fill="#E5E5E5" d="M479.334 553.487L539.249 588.079 599.166 553.487 539.249 518.893z"/>
        <path fill="#EAEAEA" d="M539.249 380.522L539.249 449.708 599.167 415.114 599.167 345.929z"/>
        <path fill="#F5F5F5" d="M539.25 449.708L479.334 415.114 479.334 345.93 539.25 380.522z"/>
        <path fill="#E5E5E5" d="M479.334 345.929L539.249 380.522 599.166 345.929 539.249 311.336z"/>
        <path fill="#EAEAEA" d="M539.249 172.964L539.249 242.15 599.167 207.558 599.167 138.372z"/>
        <path fill="#F5F5F5" d="M539.25 242.15L479.334 207.557 479.334 138.372 539.25 172.964z"/>
        <path fill="#E5E5E5" d="M479.334 138.372L539.249 172.964 599.166 138.372 539.249 103.778z"/>
        <path fill="#EAEAEA" d="M119.833 484.301L119.833 553.487 179.75 518.893 179.75 449.708z"/>
        <path fill="#F5F5F5" d="M119.833 553.487L59.916 518.893 59.916 449.709 119.833 484.301z"/>
        <path fill="#E5E5E5" d="M179.75 449.708L119.833 415.116 59.917 449.708 119.833 484.3z"/>
        <path fill="#EAEAEA" d="M239.667 484.301L239.667 553.487 299.584 518.893 299.584 449.708z"/>
        <path fill="#F5F5F5" d="M239.667 553.487L179.749 518.893 179.749 449.709 239.667 484.301z"/>
        <path fill="#E5E5E5" d="M299.583 449.708L239.666 415.116 179.75 449.708 239.666 484.3z"/>
    </g>
</svg>
