<?xml version="1.0"?>
<!--Icons from directory ""-->
<svg xmlns="http://www.w3.org/2000/svg" width="160" height="918" viewBox="0 0 160 918"><svg xmlns:xlink="http://www.w3.org/1999/xlink" width="51" height="51" id="abstract" y="0"><defs><path id="abstract-a" d="M0 0h50.82v50.82H0z"/></defs><g fill="none" fill-rule="evenodd"><mask id="abstract-b" fill="#fff"><use xlink:href="#abstract-a"/></mask><path fill="#231F20" d="M21.252 35.31a5.73 5.73 0 0 1-5.712-5.748A5.73 5.73 0 1 1 27 29.58a5.743 5.743 0 0 1-5.748 5.73zm17.658 3.6h-4.77V16.67H11.91v-4.76h27v27zm-17.67.4c-5.374-.017-9.717-4.386-9.7-9.76.016-5.374 4.386-9.717 9.76-9.7 5.362.017 9.7 4.368 9.7 9.73-.012 5.381-4.379 9.735-9.76 9.73zM25.41 0C5.08 0 0 5.08 0 25.41s5.08 25.41 25.41 25.41 25.41-5.08 25.41-25.41S45.74 0 25.41 0z" mask="url(#abstract-b)"/></g></svg><svg width="38" height="40" id="angular" y="51"><g fill="none"><path fill="#DD0031" d="M18.8 0L.18 6.64l2.84 24.62L18.8 40l15.78-8.74 2.84-24.62z"/><path fill="#C3002F" d="M18.8 0v4.44-.02V40l15.78-8.74 2.84-24.62z"/><path fill="#FFF" d="M18.8 4.42L7.16 30.52h4.34l2.34-5.84h9.88l2.34 5.84h4.34L18.8 4.42zm3.4 16.66h-6.8l3.4-8.18 3.4 8.18z"/></g></svg><svg width="61" height="36" id="aws" y="91"><g fill="none" fill-rule="evenodd"><path fill="#252F3E" fill-rule="nonzero" d="M17.08 13.08c0 .74.08 1.34.22 1.78.16.44.36.92.64 1.44.1.16.14.32.14.46 0 .2-.12.4-.38.6l-1.26.84c-.18.12-.36.18-.52.18-.2 0-.4-.1-.6-.28-.28-.3-.52-.62-.72-.94-.2-.34-.4-.72-.62-1.18-1.56 1.84-3.52 2.76-5.88 2.76-1.68 0-3.02-.48-4-1.44s-1.48-2.24-1.48-3.84c0-1.7.6-3.08 1.82-4.12 1.22-1.04 2.84-1.56 4.9-1.56.68 0 1.38.06 2.12.16.74.1 1.5.26 2.3.44V6.92c0-1.52-.32-2.58-.94-3.2-.64-.62-1.72-.92-3.26-.92-.7 0-1.42.08-2.16.26-.74.18-1.46.4-2.16.68-.32.14-.56.22-.7.26-.14.04-.24.06-.32.06-.28 0-.42-.2-.42-.62v-.98c0-.32.04-.56.14-.7.1-.14.28-.28.56-.42.7-.36 1.54-.66 2.52-.9C8 .18 9.04.06 10.14.06c2.38 0 4.12.54 5.24 1.62 1.1 1.08 1.66 2.72 1.66 4.92v6.48h.04zm-8.12 3.04c.66 0 1.34-.12 2.06-.36s1.36-.68 1.9-1.28c.32-.38.56-.8.68-1.28s.2-1.06.2-1.74v-.84c-.58-.14-1.2-.26-1.84-.34-.64-.08-1.26-.12-1.88-.12-1.34 0-2.32.26-2.98.8-.66.54-.98 1.3-.98 2.3 0 .94.24 1.64.74 2.12.48.5 1.18.74 2.1.74zm16.06 2.16c-.36 0-.6-.06-.76-.2-.16-.12-.3-.4-.42-.78l-4.7-15.46c-.12-.4-.18-.66-.18-.8 0-.32.16-.5.48-.5h1.96c.38 0 .64.06.78.2.16.12.28.4.4.78l3.36 13.24 3.12-13.24c.1-.4.22-.66.38-.78s.44-.2.8-.2h1.6c.38 0 .64.06.8.2.16.12.3.4.38.78l3.16 13.4 3.46-13.4c.12-.4.26-.66.4-.78.16-.12.42-.2.78-.2h1.86c.32 0 .5.16.5.5 0 .1-.02.2-.04.32s-.06.28-.14.5l-4.82 15.46c-.12.4-.26.66-.42.78-.16.12-.42.2-.76.2h-1.72c-.38 0-.64-.06-.8-.2-.16-.14-.3-.4-.38-.8L31 4.4l-3.08 12.88c-.1.4-.22.66-.38.8s-.44.2-.8.2h-1.72zm25.7.54c-1.04 0-2.08-.12-3.08-.36s-1.78-.5-2.3-.8c-.32-.18-.54-.38-.62-.56-.08-.18-.12-.38-.12-.56v-1.02c0-.42.16-.62.46-.62.12 0 .24.02.36.06.12.04.3.12.5.2.68.3 1.42.54 2.2.7.8.16 1.58.24 2.38.24 1.26 0 2.24-.22 2.92-.66.68-.44 1.04-1.08 1.04-1.9 0-.56-.18-1.02-.54-1.4-.36-.38-1.04-.72-2.02-1.04l-2.9-.9c-1.46-.46-2.54-1.14-3.2-2.04-.66-.88-1-1.86-1-2.9 0-.84.18-1.58.54-2.22.36-.64.84-1.2 1.44-1.64.6-.46 1.28-.8 2.08-1.04S50.5.02 51.38.02c.44 0 .9.02 1.34.08.46.06.88.14 1.3.22.4.1.78.2 1.14.32.36.12.64.24.84.36.28.16.48.32.6.5.12.16.18.38.18.66v.94c0 .42-.16.64-.46.64-.16 0-.42-.08-.76-.24-1.14-.52-2.42-.78-3.84-.78-1.14 0-2.04.18-2.66.56-.62.38-.94.96-.94 1.78 0 .56.2 1.04.6 1.42.4.38 1.14.76 2.2 1.1l2.84.9c1.44.46 2.48 1.1 3.1 1.92.62.82.92 1.76.92 2.8 0 .86-.18 1.64-.52 2.32-.36.68-.84 1.28-1.46 1.76-.62.5-1.36.86-2.22 1.12-.9.28-1.84.42-2.86.42z"/><g fill="#F90"><path d="M54.5 28.54c-6.58 4.86-16.14 7.44-24.36 7.44-11.52 0-21.9-4.26-29.74-11.34-.62-.56-.06-1.32.68-.88 8.48 4.92 18.94 7.9 29.76 7.9 7.3 0 15.32-1.52 22.7-4.64 1.1-.5 2.04.72.96 1.52z"/><path d="M57.24 25.42c-.84-1.08-5.56-.52-7.7-.26-.64.08-.74-.48-.16-.9 3.76-2.64 9.94-1.88 10.66-1 .72.9-.2 7.08-3.72 10.04-.54.46-1.06.22-.82-.38.8-1.98 2.58-6.44 1.74-7.5z"/></g></g></svg><svg width="100" height="29" id="azure" y="127"><path fill="#0089D6" d="M17.073 27.058c4.741-.838 8.657-1.53 8.702-1.54l.082-.018-4.476-5.324c-2.462-2.929-4.477-5.336-4.477-5.35 0-.026 4.622-12.754 4.648-12.8.009-.015 3.155 5.416 7.625 13.165l7.669 13.291.058.102-14.226-.002-14.226-.001 8.62-1.523zm54.554-1.288c-2.165-.139-3.425-1.372-3.758-3.68-.09-.614-.09-.63-.098-4.616l-.01-3.857h1.918l.008 3.731c.007 3.363.011 3.757.043 3.994.13.96.39 1.606.833 2.07.354.37.768.587 1.342.702.27.055 1.04.055 1.287 0a2.845 2.845 0 0 0 1.459-.791c.468-.469.815-1.133.983-1.885l.056-.253.006-3.763.007-3.763h1.956V25.49h-1.937v-.939c0-.638-.007-.936-.022-.931a.77.77 0 0 0-.11.169 3.936 3.936 0 0 1-1.5 1.5c-.73.402-1.462.545-2.463.481zm21.98-.01a5.077 5.077 0 0 1-2.227-.727c-1.387-.857-2.207-2.271-2.447-4.217-.083-.673-.093-1.577-.024-2.15.155-1.278.657-2.533 1.372-3.428.184-.23.6-.646.83-.83a5.164 5.164 0 0 1 2.115-1.01 6.876 6.876 0 0 1 1.716-.1c1.197.112 2.295.676 3.041 1.563.758.902 1.175 2.162 1.228 3.713.008.243.01.67.004.948l-.01.505-4.195.005-4.194.005v.188c0 .57.138 1.218.378 1.77.206.477.562.997.853 1.248a3.75 3.75 0 0 0 2.126.9 8.293 8.293 0 0 0 1.39-.054 5.889 5.889 0 0 0 2.62-1.08 6.39 6.39 0 0 1 .184-.136c.022-.014.027.157.027.874l-.001.89-.198.123a6.942 6.942 0 0 1-2.811.974c-.303.037-1.415.054-1.777.026zm3.65-7.51c0-.954-.402-2.015-.971-2.56a2.67 2.67 0 0 0-1.481-.719 4.376 4.376 0 0 0-1.15.033 3.005 3.005 0 0 0-1.568.834 4.275 4.275 0 0 0-1.038 1.661c-.08.23-.172.608-.201.817l-.014.1h6.423v-.166zM40.36 25.463l3.165-8.315 3.156-8.289h2.029l.084.216c.257.66 6.319 16.397 6.319 16.405 0 .005-.486.01-1.08.01h-1.078l-.874-2.327-.873-2.326h-7.036l-.03.08c-.017.043-.39 1.09-.83 2.325l-.799 2.247h-1.08c-.857 0-1.08-.005-1.073-.026zm10.205-6.4c0-.004-.587-1.598-1.306-3.543-1.344-3.637-1.42-3.856-1.526-4.44-.05-.274-.075-.281-.104-.032a5.806 5.806 0 0 1-.184.8c-.035.11-.64 1.772-1.345 3.693-.705 1.92-1.282 3.5-1.282 3.51 0 .01 1.294.018 2.874.018s2.873-.003 2.873-.007zm5.2 6.124v-.303l3.505-4.818 3.504-4.818-3.173-.01-3.173-.01-.005-.806-.006-.805h9.18v.544l-3.506 4.844a1547.78 1547.78 0 0 0-3.505 4.854c0 .005 1.558.01 3.463.01h3.463v1.62h-9.747v-.302zm25.718.289c-.008-.008-.014-2.68-.014-5.937v-5.922h1.916v1.22c0 .672.008 1.222.018 1.222.01 0 .056-.11.103-.245a4.22 4.22 0 0 1 1.07-1.648 2.773 2.773 0 0 1 1.514-.752c.164-.027.303-.032.631-.023.413.01.628.04.88.123l.078.026v1.988l-.226-.113c-.4-.2-.794-.28-1.269-.255a2.398 2.398 0 0 0-1.965 1.134 5.727 5.727 0 0 0-.8 2.304c-.016.14-.026 1.288-.03 3.55l-.005 3.342h-.943c-.52 0-.95-.007-.958-.014zM0 25.434c0-.007 2.11-3.669 4.687-8.136l4.687-8.123 5.462-4.584C17.841 2.07 20.306.004 20.316 0c.01-.004-.029.096-.087.221l-5.931 12.722-5.826 12.494-4.236.005c-2.33.003-4.236 0-4.236-.008z"/></svg><svg width="111" height="32" id="browserstack" y="156"><defs><radialGradient id="browserstack-a" cx="50.079%" cy="50.66%" r="50.403%" fx="50.079%" fy="50.66%"><stop offset="0%" stop-color="#797979"/><stop offset="100%" stop-color="#4C4C4C"/></radialGradient></defs><g fill="none"><g transform="translate(.41 .334)"><circle cx="15.366" cy="15.702" r="15.294" fill="#F4B960"/><circle cx="13.815" cy="14.151" r="13.815" fill="#E66F32"/><circle cx="15.717" cy="12.389" r="11.982" fill="#E43C41"/><circle cx="16.633" cy="13.305" r="10.995" fill="#BDD041"/><circle cx="15.858" cy="14.151" r="10.22" fill="#6DB54C"/><circle cx="14.238" cy="12.459" r="8.528" fill="#AEDAE6"/><circle cx="15.576" cy="11.049" r="7.189" fill="#56B8DE"/><circle cx="16.492" cy="12.036" r="6.274" fill="#00B1D5"/><circle cx="15.576" cy="12.882" r="5.356" fill="url(#browserstack-a)"/><circle cx="15.576" cy="12.882" r="5.356" fill="#221F1F"/><ellipse cx="17.722" cy="10.946" fill="#FFF" rx="1.692" ry="1.057" transform="rotate(-65.834 17.722 10.946)"/></g><path fill="#202020" d="M35.632 11.967c0-.05.05-.148.148-.148h3.415c1.93 0 2.82.9 2.82 2.227 0 1-.495 1.485-1.1 1.782v.05c.544.198 1.237.9 1.237 1.93 0 1.683-1.138 2.474-3.118 2.474h-3.255c-.05 0-.148-.05-.148-.148l.001-8.167zm3.514 3.365c.792 0 1.287-.445 1.287-1.1 0-.693-.495-1.138-1.287-1.138h-1.83c-.05 0-.05.05-.05.05v2.08c0 .05.05.05.05.05-.05.05 1.83.05 1.83.05v.008zm-1.88 3.563h1.93c.9 0 1.386-.445 1.386-1.188 0-.743-.495-1.188-1.386-1.188h-1.93c-.05 0-.05.05-.05.05v2.178c-.05.148.05.148.05.148zm5.988 1.287c-.05 0-.148-.05-.148-.148v-5.74c0-.05.05-.148.148-.148h1.237c.05 0 .148.05.148.148v.495h.05c.297-.445.9-.792 1.683-.792.495 0 1.04.198 1.336.495.05.05.05.148.05.148l-.693.84c-.05.05-.148.05-.198.05-.297-.148-.594-.297-1-.297-.84 0-1.237.544-1.237 1.534v3.217c0 .05-.05.148-.148.148l-1.228.05zm4.7-1.485c-.148-.396-.247-.792-.247-1.485 0-.693.05-1.1.247-1.485.396-1.1 1.336-1.633 2.672-1.633s2.276.594 2.672 1.633c.148.396.247.792.247 1.485 0 .693-.05 1.1-.247 1.485-.396 1.1-1.336 1.633-2.672 1.633s-2.326-.544-2.672-1.633zm3.9-.346c.148-.297.148-.594.148-1.1 0-.506-.05-.792-.148-1.1-.198-.495-.594-.792-1.237-.792-.594 0-1.04.297-1.237.792-.148.346-.148.594-.148 1.1 0 .506.05.792.148 1.1.198.495.594.792 1.237.792a1.29 1.29 0 0 0 1.237-.792zm8.116 1.83c-.05 0-.148-.05-.148-.148l-1.237-3.86h-.05l-1.237 3.8c-.05.05-.05.148-.148.148h-1.1c-.05 0-.148-.05-.148-.148l-2.03-5.74c-.05-.05.05-.148.1-.148h1.287c.1 0 .148.05.148.148l1.237 3.96h.05l1.237-3.96c.05-.05.1-.148.148-.148h1c.05 0 .148.05.148.148l1.287 3.96h.05l1.188-3.96c.05-.1.05-.148.148-.148h1.287c.05 0 .148.05.1.148l-1.98 5.74c-.05.05-.05.148-.148.148l-1.189.06zm3.563-.792c-.05-.05-.05-.148 0-.148l.792-.742a.15.15 0 0 1 .198 0c.445.396 1.237.693 1.93.693.792 0 1.188-.297 1.188-.693 0-.346-.247-.594-1.1-.643l-.693-.05c-1.287-.148-1.98-.742-1.98-1.732 0-1.138.9-1.93 2.474-1.93 1 0 1.83.297 2.425.693.05.05.05.148.05.148l-.643.693c-.05.05-.148.05-.198.05-.396-.247-1.1-.495-1.683-.495-.643 0-1 .247-1 .643 0 .346.247.544 1.1.643l.693.05c1.336.148 1.98.792 1.98 1.732 0 1.188-.94 2.03-2.722 2.03-1.336.05-2.276-.445-2.82-.94l.009-.002zm6.533-.693c-.148-.396-.247-.84-.247-1.485 0-.645.05-1.1.247-1.485.396-1.1 1.336-1.633 2.672-1.633s2.276.643 2.672 1.633c.148.396.247.84.247 1.83 0 .05-.05.148-.148.148h-4.058c-.05 0-.05.05-.05.05 0 .148.05.346.1.445.247.594.693.9 1.435.9.742 0 1.188-.247 1.534-.544.05-.05.148-.05.247-.05l.792.643c.05.05.05.148.05.148-.544.594-1.485 1.04-2.672 1.04-1.485.05-2.474-.544-2.82-1.633l-.001-.007zm3.9-2.672c-.148-.495-.643-.792-1.237-.792-.594 0-1.1.297-1.287.792-.05.148-.05.297-.05.495 0 .05.05.05.05.05h2.573c.05 0 .05-.05.05-.05-.05-.148-.05-.346-.1-.495h.001zm2.672 4.157c-.05 0-.148-.05-.148-.148v-5.74c0-.05.05-.148.148-.148h1.237c.05 0 .148.05.148.148v.495h.05c.297-.445.9-.792 1.683-.792.495 0 1.04.198 1.336.495.05.05.05.148.05.148l-.693.84c-.05.05-.148.05-.198.05-.297-.148-.594-.297-1-.297-.84 0-1.237.544-1.237 1.534v3.217c0 .05-.05.148-.148.148l-1.228.05zm4.7-.9c-.05-.05-.05-.148-.05-.198l.84-.9c.05-.05.148-.05.198-.05.594.445 1.485.9 2.474.9 1.1 0 1.732-.495 1.732-1.237 0-.594-.396-1-1.633-1.188l-.495-.05c-1.732-.247-2.722-1-2.722-2.375 0-1.534 1.237-2.573 3.068-2.573 1.138 0 2.227.346 2.92.84.05.05.05.1.05.148l-.621.902c-.05.05-.148.05-.198.05-.742-.445-1.435-.643-2.178-.643-.94 0-1.435.445-1.435 1.138 0 .594.445 1 1.683 1.138l.495.05c1.732.247 2.722 1 2.722 2.474 0 1.474-1.189 2.623-3.415 2.623-1.435.05-2.722-.445-3.415-1.04l-.02-.009zm9.55 1.04c-1.287 0-1.83-.594-1.83-1.732v-3.17c0-.05-.05-.05-.05-.05h-.396c-.05 0-.148-.05-.148-.148v-.84c0-.05.05-.148.148-.148h.396c.05 0 .05-.05.05-.05V12.56c0-.05.05-.148.148-.148h1.237c.05 0 .148.05.148.148v1.633c0 .05.05.05.05.05h.9c.05 0 .148.05.148.148v.84c0 .05-.05.148-.148.148h-.9c-.05 0-.05.05-.05.05v3.118c0 .396.198.544.594.544h.346c.05 0 .148.05.148.148v1c0 .05-.05.148-.148.148l-.643-.066zm5.7-.148c-.05 0-.148-.05-.148-.148V19.6c-.297.396-.9.693-1.83.693-1.188 0-2.178-.544-2.178-1.83s1-1.93 2.573-1.93h1.287c.05 0 .05-.05.05-.05v-.297c0-.693-.346-1-1.435-1-.693 0-1.188.198-1.485.396-.05.05-.148.05-.198-.05l-.495-.792c-.05-.05-.05-.148.05-.148.495-.346 1.237-.594 2.276-.594 1.98 0 2.672.643 2.672 2.08v3.86c0 .05-.05.148-.148.148l-.991.087zm-.148-1.98v-.445c0-.05-.05-.05-.05-.05h-1.1c-1 0-1.386.247-1.386.792 0 .495.396.742 1.138.742.84-.05 1.386-.346 1.386-1.04l.012.001zm2.573.495c-.148-.396-.247-.84-.247-1.485 0-.645.05-1.1.247-1.485.396-1.1 1.386-1.633 2.672-1.633 1 0 1.732.346 2.227.94.05.05.05.148-.05.148l-.84.693c-.05.05-.148.05-.198-.05-.346-.346-.643-.495-1.188-.495-.594 0-1.04.247-1.237.792-.148.297-.148.643-.148 1.1a3.99 3.99 0 0 0 .148 1.138c.198.495.643.792 1.237.792a1.56 1.56 0 0 0 1.188-.495c.05-.05.148-.05.198-.05l.84.693c.05.05.05.148.05.148a2.969 2.969 0 0 1-2.227.891c-1.287.05-2.276-.544-2.672-1.633v-.009zm10.145 1.485c-.1 0-.148-.05-.247-.148l-1.633-2.474-.9.94v1.534c0 .05-.05.148-.148.148h-1.237c-.05 0-.148-.05-.148-.148V11.87c0-.05.05-.148.148-.148h1.237c.05 0 .148.05.148.148v4.85l2.227-2.375a.27.27 0 0 1 .247-.148h1.386c.05 0 .148.05.05.148l-2.08 2.178 2.326 3.563c.05.05.05.148-.05.148l-1.326-.061z"/></g></svg><svg width="39" height="40" id="circleci" y="188"><path fill="#151514" fill-rule="evenodd" d="M19.245.051C10.042.051 2.32 6.357.146 14.881a.826.826 0 0 0-.025.191c0 .519.42.939.94.939h7.945a.94.94 0 0 0 .852-.549h.001c1.633-3.553 5.218-6.023 9.386-6.023 5.701 0 10.326 4.624 10.326 10.327s-4.625 10.327-10.326 10.327c-4.168 0-7.753-2.47-9.386-6.025l-.001.002a.939.939 0 0 0-.852-.549H1.06a.938.938 0 0 0-.939.94c0 .063.01.125.024.186 2.173 8.525 9.895 14.833 19.1 14.833 10.887 0 19.714-8.828 19.714-19.714C38.959 8.878 30.132.05 19.245.05zM14.55 19.766a4.695 4.695 0 1 1 9.389.002 4.695 4.695 0 0 1-9.39-.002z"/></svg><svg width="35" height="36" id="coffee" y="228"><path d="M16.064 5.74a2.676 2.676 0 0 0 0-3.78A1.001 1.001 0 0 1 17.48.544a4.68 4.68 0 0 1 0 6.608 2.676 2.676 0 0 0 0 3.78 1.001 1.001 0 0 1-1.416 1.416 4.68 4.68 0 0 1 0-6.608zm6 1.492a3.624 3.624 0 0 0 0 5.12 1.001 1.001 0 0 0 1.416-1.416 1.624 1.624 0 0 1 0-2.292 3.62 3.62 0 0 0 0-5.12 1.001 1.001 0 1 0-1.416 1.416 1.62 1.62 0 0 1 0 2.292zm-12 5.12a1.001 1.001 0 1 0 1.416-1.416 1.624 1.624 0 0 1 0-2.292 3.624 3.624 0 0 0 0-5.12 1.001 1.001 0 1 0-1.416 1.416 1.624 1.624 0 0 1 0 2.292 3.624 3.624 0 0 0 0 5.116v.004zm-9.856 22.4a1 1 0 0 1 .992-1.004h6.988a11.2 11.2 0 0 1-4.532-5.84 19.19 19.19 0 0 1-.184-.592 46.46 46.46 0 0 1-1.668-9.636 2.74 2.74 0 0 1 2.74-2.896H27.04a2.77 2.77 0 0 1 2 .864c.515.547.783 1.282.74 2.032a36.25 36.25 0 0 1-.188 2.112h.592a4.8 4.8 0 0 1 4.66 5.956 4.8 4.8 0 0 1-4.652 3.636h-2.896a11.504 11.504 0 0 1-3.956 4.364h6.844a1 1 0 0 1 0 2H1.2a1 1 0 0 1-.992-1v.004zm27.888-7.368h2.092a2.8 2.8 0 0 0 2.712-2.12 2.8 2.8 0 0 0-2.712-3.472h-.864a47.6 47.6 0 0 1-1.2 5.528l-.028.064zm-13.456 6.28h2.3a9.6 9.6 0 0 0 9.228-6.8l.028-.092a44.4 44.4 0 0 0 1.6-9.2.72.72 0 0 0-.2-.54.749.749 0 0 0-.556-.232H4.552a.749.749 0 0 0-.752.776 44.4 44.4 0 0 0 1.6 9.2c.048.172.1.34.156.504a9.484 9.484 0 0 0 9.084 6.384z"/></svg><svg xmlns:xlink="http://www.w3.org/1999/xlink" width="54" height="40" id="creative-cloud" y="264"><defs><path id="creative-cloud-a" d="M0 .173h54V40H0z"/></defs><g fill="none" fill-rule="evenodd"><mask id="creative-cloud-b" fill="#fff"><use xlink:href="#creative-cloud-a"/></mask><path fill="#DA1F26" fill-rule="nonzero" d="M54 19.198v1.778c-.017.096-.038.19-.05.287-.091.773-.15 1.551-.278 2.319-.415 2.494-1.312 4.813-2.646 6.957-2.025 3.255-4.762 5.737-8.202 7.433a19.186 19.186 0 0 1-6.327 1.867c-.489.056-.977.107-1.466.16H16.06c-.096-.017-.19-.046-.287-.051a16.177 16.177 0 0 1-5.508-1.324c-3.819-1.672-6.666-4.38-8.53-8.108a15.948 15.948 0 0 1-1.576-5.245L0 23.94v-1.725c.018-.095.046-.191.052-.287.1-1.657.44-3.267 1.038-4.813C2.7 12.953 5.51 9.866 9.5 7.868c2.071-1.036 4.278-1.581 6.587-1.702 1.13-.059 2.26.004 3.383.155a.427.427 0 0 0 .319-.104 20.004 20.004 0 0 1 5.53-4.007A19.35 19.35 0 0 1 31.675.336c.525-.06 1.05-.11 1.576-.164h1.617c.106.016.212.035.318.048.801.093 1.607.152 2.401.284a19.025 19.025 0 0 1 6.915 2.625c3.271 2.025 5.764 4.766 7.467 8.217a19.14 19.14 0 0 1 1.87 6.331c.057.507.106 1.015.16 1.52M23.807 7.695c.032.043.04.063.054.07a21.64 21.64 0 0 1 3.173 1.918c.063.046.22.027.296-.021 2.75-1.743 5.731-2.344 8.934-1.776 3.138.556 5.692 2.124 7.643 4.629 2.21 2.834 3.052 6.039 2.442 9.605-.409 2.39-1.366 4.533-2.993 6.33-2.97 3.274-6.687 4.628-11.064 4.055-2.694-.353-5.02-1.516-6.944-3.46-2.471-2.496-4.958-4.976-7.436-7.464-.33-.332-.697-.599-1.173-.657a1.864 1.864 0 0 0-1.943 1.06c-.32.665-.279 1.417.416 2.1 2.762 2.71 5.5 5.447 8.259 8.161.472.467.978.898 1.515 1.29 2.015 1.463 4.288 2.273 6.749 2.598 1.931.256 3.848.2 5.75-.227 3.627-.814 6.632-2.666 8.999-5.523 1.954-2.36 3.136-5.074 3.548-8.12a15.916 15.916 0 0 0-.148-5.221c-.549-2.813-1.74-5.33-3.646-7.473-3.639-4.086-8.217-5.91-13.664-5.503-2.096.156-4.078.772-5.943 1.748a15.682 15.682 0 0 0-2.824 1.881m-1.333 28.523l-.224-.21c-1.13-1.066-2.265-2.125-3.381-3.205-.216-.21-.415-.31-.72-.304-1.13.028-2.262.033-3.376-.219-5.537-1.252-8.753-7.273-6.712-12.571 1.61-4.177 6.066-6.721 10.46-5.937 1.97.352 3.7 1.185 5.119 2.649 1.73 1.787 3.512 3.522 5.262 5.29.398.403.855.587 1.407.508.713-.102 1.28-.441 1.538-1.14.253-.688.13-1.34-.39-1.867-1.837-1.86-3.629-3.767-5.54-5.548-3.704-3.455-8.073-4.483-12.905-3.014-6.5 1.975-10.303 8.686-8.818 15.308C5.548 31.991 10.824 36.226 17 36.231c1.724.002 3.449.001 5.173 0 .085 0 .17-.007.302-.014" mask="url(#creative-cloud-b)"/></g></svg><svg width="106" height="24" id="express" y="304"><path d="M33 23.753V.708h1.25v3.625a4.74 4.74 0 0 0 .408-.511 6.195 6.195 0 0 1 5.65-3.506c2.85-.085 5.166.97 6.527 3.506a11.27 11.27 0 0 1 .272 10.331c-1.268 2.842-4.4 4.255-7.753 3.736a6.27 6.27 0 0 1-5.004-3.302v9.165l-1.35.001zM34.25 8.86l.28 2.706c.494 3.08 2.315 4.9 5.174 5.242a5.88 5.88 0 0 0 6.459-3.736 10.024 10.024 0 0 0-.22-8.238 5.76 5.76 0 0 0-6.068-3.353 5.61 5.61 0 0 0-5.012 4.144 28.62 28.62 0 0 0-.613 3.234v.001zm39.498 3.132a6.74 6.74 0 0 1-6.587 5.957c-5.242.264-7.702-3.217-8.093-7.234a11.59 11.59 0 0 1 1.021-6.383A7.12 7.12 0 0 1 67.501.358a6.81 6.81 0 0 1 6.042 5.183 34.97 34.97 0 0 1 .587 3.83H60.363c-.255 3.642 1.702 6.57 4.476 7.276 3.455.85 6.408-.647 7.48-3.932.238-.843.672-.962 1.438-.723h-.009zM60.353 8.205h12.314c-.077-3.88-2.493-6.7-5.77-6.732-3.7-.06-6.383 2.647-6.544 6.732zm15.94 3.872H77.5a4.84 4.84 0 0 0 2.842 4.17 7.43 7.43 0 0 0 6.451-.17 2.9 2.9 0 0 0 1.702-2.851 2.63 2.63 0 0 0-1.77-2.63c-1.328-.494-2.74-.766-4.093-1.2a30 30 0 0 1-4.119-1.506c-2.18-1.064-2.315-5.208.153-6.52a8.69 8.69 0 0 1 8.306-.128 4.375 4.375 0 0 1 2.213 4.46H88.15c0-.05-.094-.094-.094-.145-.128-3.3-2.902-4.332-5.88-4.042-.9.1-1.753.372-2.553.774a2.55 2.55 0 0 0-1.48 2.553 2.55 2.55 0 0 0 1.702 2.4c1.3.477 2.68.783 4.025 1.157l3.25.85a3.84 3.84 0 0 1 2.638 3.464 4.093 4.093 0 0 1-2.204 4.255c-2.842 1.608-7.523 1.183-9.608-.85a5.673 5.673 0 0 1-1.65-4.042l-.003.001zm28.78-6.374h-1.132c0-.153-.06-.3-.077-.417a3.7 3.7 0 0 0-3.013-3.557 7.43 7.43 0 0 0-4.774.23 2.9 2.9 0 0 0-2.102 2.766 2.67 2.67 0 0 0 2.042 2.689l5.174 1.328c.56.134 1.11.302 1.65.502 1.65.6 2.77 2.132 2.82 3.883a4.25 4.25 0 0 1-2.6 4.04 9.47 9.47 0 0 1-7.659.077 5.31 5.31 0 0 1-3.2-5.157h1.106a6.205 6.205 0 0 0 9.446 3.949 3.04 3.04 0 0 0 1.634-2.842 2.63 2.63 0 0 0-1.796-2.613c-1.328-.494-2.74-.757-4.093-1.2a30.15 30.15 0 0 1-4.144-1.489c-2.128-1.047-2.298-5.157.128-6.468a8.57 8.57 0 0 1 8.442-.094 4.45 4.45 0 0 1 2.136 4.366l.012.007zm-74.13 11.83a1.95 1.95 0 0 1-2.417-.919l-4.4-6.085-.638-.85-5.106 6.944a1.87 1.87 0 0 1-2.298.902L22.662 8.7 16.542.726a2.035 2.035 0 0 1 2.425.85l4.56 6.16L28.114 1.6a1.83 1.83 0 0 1 2.281-.851L28.02 3.9l-3.217 4.187a.85.85 0 0 0 0 1.268l6.127 8.178h.013zM58.873.641v1.2a6.17 6.17 0 0 0-6.57 6.374v9.361h-1.217V.716h1.2v3.455C53.758 1.651 56.03.716 58.881.648l-.008-.007zM.333 8.59l.536-2.647c1.472-5.234 7.472-7.412 11.6-4.17 2.417 1.898 3.02 4.587 2.902 7.617H1.754c-.22 5.412 3.685 8.68 8.68 7.012a5.201 5.201 0 0 0 3.293-3.668c.264-.85.7-.996 1.498-.75a6.91 6.91 0 0 1-3.302 5.047 8 8 0 0 1-9.319-1.191 8.387 8.387 0 0 1-2.093-4.92c0-.3-.1-.58-.17-.85-.007-.505-.01-.998-.01-1.48h.002zm1.438-.366h12.314c-.077-3.923-2.553-6.706-5.855-6.732-3.676-.05-6.306 2.672-6.468 6.715l.009.017z"/></svg><svg xmlns:xlink="http://www.w3.org/1999/xlink" width="87" height="24" id="github" y="328"><defs><path id="github-a" d="M0 .143h16.989V23.52H0z"/><path id="github-c" d="M.073.03h14.37v22.507H.074z"/></defs><g fill="none" fill-rule="evenodd"><g transform="translate(0 .097)"><mask id="github-b" fill="#fff"><use xlink:href="#github-a"/></mask><path fill="#100F0F" d="M16.65 10.148H9.384a.34.34 0 0 0-.34.34v3.551c0 .188.153.34.34.34h2.834v4.413s-.636.217-2.395.217c-2.076 0-4.975-.758-4.975-7.134S7.87 4.66 10.702 4.66c2.454 0 3.51.432 4.183.64.211.064.407-.146.407-.333l.81-3.432a.317.317 0 0 0-.13-.265C15.7 1.075 14.034.143 9.825.143 4.974.143 0 2.206 0 12.123c0 9.92 5.695 11.397 10.494 11.397 3.974 0 6.385-1.698 6.385-1.698.1-.055.11-.194.11-.257V10.488a.34.34 0 0 0-.34-.34" mask="url(#github-b)"/></g><path fill="#100F0F" d="M54.085 1.428a.338.338 0 0 0-.337-.341h-4.09a.34.34 0 0 0-.338.341v7.905h-6.375V1.428a.339.339 0 0 0-.337-.341h-4.09a.34.34 0 0 0-.338.341v21.403a.34.34 0 0 0 .338.343h4.09a.34.34 0 0 0 .337-.343v-9.155h6.376l-.012 9.155c0 .189.152.343.34.343h4.099a.34.34 0 0 0 .337-.343V1.428zM24.368 4.237c0-1.473-1.181-2.663-2.638-2.663-1.455 0-2.637 1.19-2.637 2.663 0 1.471 1.182 2.665 2.637 2.665 1.457 0 2.638-1.194 2.638-2.665m-.293 14.079v-9.88a.34.34 0 0 0-.338-.34H19.66c-.188 0-.355.193-.355.38v14.155c0 .416.26.54.595.54h3.673c.403 0 .502-.199.502-.547v-4.308zM69.63 8.128h-4.06a.34.34 0 0 0-.338.342v10.494s-1.03.755-2.494.755c-1.464 0-1.852-.664-1.852-2.097V8.47a.34.34 0 0 0-.338-.342H56.43a.34.34 0 0 0-.338.342v9.845c0 4.256 2.372 5.298 5.635 5.298 2.678 0 4.836-1.48 4.836-1.48s.103.78.15.872a.357.357 0 0 0 .298.186l2.62-.012a.341.341 0 0 0 .339-.342L69.968 8.47a.34.34 0 0 0-.338-.342"/><g transform="translate(72 1.057)"><mask id="github-d" fill="#fff"><use xlink:href="#github-c"/></mask><path fill="#100F0F" d="M7.122 18.649c-1.408-.043-2.363-.682-2.363-.682v-6.778s.942-.577 2.098-.68c1.462-.131 2.87.31 2.87 3.797 0 3.676-.635 4.402-2.605 4.343m1.6-12.06c-2.304 0-3.872 1.03-3.872 1.03V.37a.34.34 0 0 0-.338-.342H.411A.34.34 0 0 0 .073.37v21.403a.34.34 0 0 0 .338.342h2.846c.128 0 .225-.066.297-.182.07-.115.173-.986.173-.986s1.677 1.589 4.852 1.589c3.727 0 5.865-1.89 5.865-8.488 0-6.597-3.414-7.46-5.721-7.46" mask="url(#github-d)"/></g><path fill="#100F0F" d="M35.83 8.094h-3.068l-.004-4.054c0-.153-.08-.23-.257-.23h-4.18c-.163 0-.25.072-.25.228v4.189s-2.096.505-2.238.547a.34.34 0 0 0-.244.326v2.632c0 .189.15.342.338.342h2.143v6.332c0 4.703 3.3 5.165 5.526 5.165 1.017 0 2.234-.327 2.435-.4.121-.045.192-.171.192-.308l.003-2.895a.345.345 0 0 0-.339-.342c-.179 0-.636.073-1.107.073-1.507 0-2.018-.7-2.018-1.608v-6.017h3.068a.34.34 0 0 0 .339-.342V8.435a.34.34 0 0 0-.339-.341"/></g></svg><svg width="142" height="23" id="google-cloud" y="352"><g fill="none"><path fill="#EA4335" d="M16.68 5.928h.8l2.28-2.28.112-.968a10.248 10.248 0 0 0-16.672 5 1.24 1.24 0 0 1 .8-.048l4.56-.752s.232-.384.352-.36a5.688 5.688 0 0 1 7.784-.592h-.016z"/><path fill="#4285F4" d="M23.008 7.68a10.272 10.272 0 0 0-3.096-4.992l-3.2 3.2A5.688 5.688 0 0 1 18.8 10.4v.568a2.848 2.848 0 1 1 0 5.696h-5.696l-.568.576v3.416l.568.568H18.8A7.408 7.408 0 0 0 23.008 7.68z"/><path fill="#34A853" d="M7.4 21.192h5.696v-4.56H7.4c-.406 0-.807-.087-1.176-.256l-.8.248-2.296 2.28-.2.8A7.368 7.368 0 0 0 7.4 21.192z"/><path fill="#FBBC05" d="M7.4 6.4a7.408 7.408 0 0 0-4.472 13.28l3.304-3.304A2.848 2.848 0 1 1 10 12.608l3.304-3.304A7.4 7.4 0 0 0 7.4 6.4z"/><path fill="#5F6368" d="M41.432 18.008a7.288 7.288 0 0 1-5.28-2.168 7.04 7.04 0 0 1-2.216-5.216 7.048 7.048 0 0 1 2.216-5.216 7.288 7.288 0 0 1 5.28-2.208 7.072 7.072 0 0 1 5.064 2.04l-1.424 1.448a5.128 5.128 0 0 0-3.64-1.44 5.072 5.072 0 0 0-3.76 1.6 5.224 5.224 0 0 0-1.544 3.8 5.224 5.224 0 0 0 1.544 3.752 5.368 5.368 0 0 0 7.488.088A4.256 4.256 0 0 0 46.256 12h-4.8V9.952h6.792c.067.412.094.83.08 1.248a6.4 6.4 0 0 1-1.752 4.72 6.808 6.808 0 0 1-5.144 2.088zm15.792-1.36a4.896 4.896 0 0 1-6.776 0 4.56 4.56 0 0 1-1.384-3.4 4.568 4.568 0 0 1 1.384-3.4 4.904 4.904 0 0 1 6.776 0 4.568 4.568 0 0 1 1.384 3.4 4.56 4.56 0 0 1-1.392 3.4h.008zm-5.28-1.336a2.592 2.592 0 0 0 3.784 0 2.848 2.848 0 0 0 .8-2.064 2.856 2.856 0 0 0-.8-2.072 2.632 2.632 0 0 0-3.8 0 2.856 2.856 0 0 0-.8 2.072 2.85 2.85 0 0 0 .808 2.064h.008zm15.696 1.336a4.896 4.896 0 0 1-6.776 0 4.56 4.56 0 0 1-1.384-3.4 4.568 4.568 0 0 1 1.384-3.4 4.896 4.896 0 0 1 6.776 0 4.568 4.568 0 0 1 1.384 3.4 4.56 4.56 0 0 1-1.384 3.4zm-5.28-1.336a2.592 2.592 0 0 0 3.784 0 2.848 2.848 0 0 0 .8-2.064 2.856 2.856 0 0 0-.8-2.072 2.632 2.632 0 0 0-3.8 0 2.856 2.856 0 0 0-.8 2.072 2.85 2.85 0 0 0 .808 2.064h.008zm12.128 6.968c-.959.03-1.9-.269-2.664-.848a4.904 4.904 0 0 1-1.552-1.968l1.824-.76c.199.466.509.875.904 1.192.423.34.953.52 1.496.504a2.4 2.4 0 0 0 1.864-.72 2.92 2.92 0 0 0 .664-2.08v-.688h-.072a3.048 3.048 0 0 1-2.504 1.08 4.344 4.344 0 0 1-3.2-1.392 4.6 4.6 0 0 1-1.368-3.352 4.648 4.648 0 0 1 1.368-3.376 4.336 4.336 0 0 1 3.2-1.4 3.44 3.44 0 0 1 1.472.328 2.96 2.96 0 0 1 1.04.76h.072V8.8h1.984v8.52a4.968 4.968 0 0 1-1.272 3.72 4.48 4.48 0 0 1-3.256 1.24zm.144-6.144a2.328 2.328 0 0 0 1.808-.8 2.96 2.96 0 0 0 .728-2.048 3.024 3.024 0 0 0-.728-2.088 2.32 2.32 0 0 0-1.808-.8 2.472 2.472 0 0 0-1.872.8 2.92 2.92 0 0 0-.8 2.072 2.864 2.864 0 0 0 .8 2.048 2.48 2.48 0 0 0 1.872.816zm7.912-12.4V17.72h-2.088V3.736h2.088zm5.728 14.272a4.544 4.544 0 0 1-3.368-1.368 4.632 4.632 0 0 1-1.352-3.392 4.688 4.688 0 0 1 1.304-3.424 4.288 4.288 0 0 1 3.2-1.336 4.04 4.04 0 0 1 1.6.312 3.77 3.77 0 0 1 1.224.8 5.6 5.6 0 0 1 .8.968 5.7 5.7 0 0 1 .472.936l.216.544-6.4 2.632a2.4 2.4 0 0 0 2.304 1.44 2.728 2.728 0 0 0 2.344-1.32l1.6 1.08a5.272 5.272 0 0 1-1.536 1.456 4.352 4.352 0 0 1-2.408.672zM85.6 13.104l4.256-1.768a1.472 1.472 0 0 0-.664-.728 2.168 2.168 0 0 0-1.096-.28c-.651.017-1.27.29-1.72.76a2.536 2.536 0 0 0-.776 2.016zm17.704 4.904a6.592 6.592 0 0 1-6.704-6.744 6.592 6.592 0 0 1 6.704-6.744 5.968 5.968 0 0 1 4.744 2.112l-1.152 1.12a4.352 4.352 0 0 0-3.584-1.64 4.888 4.888 0 0 0-3.56 1.424 4.992 4.992 0 0 0-1.448 3.728 4.992 4.992 0 0 0 1.448 3.728 4.888 4.888 0 0 0 3.56 1.424 5.088 5.088 0 0 0 4-1.872l1.152 1.152a6.288 6.288 0 0 1-2.216 1.688 6.784 6.784 0 0 1-2.944.624zm8.256-.288h-1.656V4.8h1.656v12.92zm2.704-7.776a4.632 4.632 0 0 1 6.528 0 4.68 4.68 0 0 1 1.28 3.36 4.68 4.68 0 0 1-1.28 3.36 4.632 4.632 0 0 1-6.528 0 4.68 4.68 0 0 1-1.28-3.36 4.68 4.68 0 0 1 1.28-3.36zm1.232 5.68a2.792 2.792 0 0 0 4.056 0 3.2 3.2 0 0 0 .856-2.32 3.2 3.2 0 0 0-.856-2.32 2.792 2.792 0 0 0-4.056 0 3.2 3.2 0 0 0-.856 2.32 3.2 3.2 0 0 0 .864 2.312l-.008.008zm15.752 2.096h-1.6v-1.224h-.048a3.08 3.08 0 0 1-1.168 1.104 3.264 3.264 0 0 1-1.64.44 3.112 3.112 0 0 1-2.512-1.008 4 4 0 0 1-.856-2.704v-5.44h1.656v5.136c0 1.648.728 2.472 2.184 2.472a2.032 2.032 0 0 0 1.68-.8c.43-.544.658-1.22.648-1.912V8.888h1.656v8.832zm5.624.288a3.888 3.888 0 0 1-2.96-1.352 4.8 4.8 0 0 1-1.24-3.352 4.8 4.8 0 0 1 1.24-3.352 3.888 3.888 0 0 1 2.96-1.352c.63-.01 1.251.139 1.808.432.49.246.904.62 1.2 1.08h.072l-.072-1.224V4.8h1.656v12.92h-1.6v-1.224h-.072c-.296.46-.71.834-1.2 1.08-.552.29-1.168.44-1.792.432zm.272-1.512a2.64 2.64 0 0 0 1.992-.864 3.24 3.24 0 0 0 .8-2.328 3.24 3.24 0 0 0-.8-2.328 2.704 2.704 0 0 0-4 0 3.2 3.2 0 0 0-.8 2.32 3.2 3.2 0 0 0 .8 2.32 2.64 2.64 0 0 0 2.008.88z"/></g></svg><svg width="36" height="40" id="heroku" y="375"><path fill="#430098" d="M32.4 0H3.6A3.6 3.6 0 0 0 0 3.6v32.8A3.6 3.6 0 0 0 3.6 40h28.8a3.6 3.6 0 0 0 3.6-3.6V3.6A3.6 3.6 0 0 0 32.4 0zM9 34v-8l4.5 4L9 34zm14 0V22.055c-.02-.933-.469-2.055-2.5-2.055-4.067 0-8.629 2.046-8.675 2.066L9 23.346V6h4v11.355c1.997-.65 4.788-1.355 7.5-1.355 2.473 0 3.953.972 4.759 1.788 1.72 1.74 1.744 3.956 1.741 4.212v12h-4zm1-21.5h-4c1.572-2.063 2.559-4.233 3-6.5h4c-.27 2.272-1.191 4.45-3 6.5z"/></svg><svg width="40" height="40" id="invision-studio" y="415"><g fill="none"><path fill="#E74969" d="M0 0h40v40H0z"/><path fill="#FFF" d="M31.005 30.943h3.086v3.086h-3.086v-3.086zm-4.863-1.15c0-3.523-8.057-.754-8.057-6.537 0-2.301 1.948-4.277 5.155-4.277 3.39 0 5.176 2.078 5.237 4.786h-2.415c-.02-1.426-.975-2.566-2.821-2.566-1.684 0-2.72.713-2.72 1.996 0 3.177 8.119.712 8.119 6.496 0 2.627-2.273 4.337-5.723 4.337-3.836 0-5.318-2.443-5.399-4.805h2.436c.102 1.548 1.137 2.586 3.085 2.586 1.967 0 3.103-.713 3.103-2.017z"/></g></svg><svg width="40" height="40" id="invision" y="455"><g fill="none"><path fill="#DC395F" d="M36.374 0H3.626A3.626 3.626 0 0 0 0 3.626v32.748A3.626 3.626 0 0 0 3.626 40h32.748A3.626 3.626 0 0 0 40 36.374V3.626A3.626 3.626 0 0 0 36.374 0"/><path fill="#FFF" d="M13.368 12.585c1.33 0 2.444-1.042 2.444-2.408 0-1.365-1.114-2.407-2.444-2.407-1.33 0-2.443 1.042-2.443 2.407 0 1.366 1.113 2.408 2.443 2.408M8.301 25.48a8.27 8.27 0 0 0-.215 1.809c0 2.12 1.15 3.528 3.593 3.528 2.027 0 3.67-1.204 4.853-3.147l-.723 2.899h4.025l2.3-9.225c.575-2.335 1.689-3.548 3.378-3.548 1.33 0 2.155.827 2.155 2.192 0 .396-.035.826-.18 1.294l-1.185 4.24a6.373 6.373 0 0 0-.251 1.796c0 2.013 1.185 3.486 3.665 3.486 2.12 0 3.809-1.365 4.743-4.635l-1.581-.61c-.79 2.19-1.473 2.586-2.013 2.586-.539 0-.826-.359-.826-1.077 0-.323.072-.682.18-1.114l1.15-4.131a9.11 9.11 0 0 0 .395-2.62c0-3.091-1.869-4.704-4.132-4.704-2.12 0-4.277 1.912-5.355 3.925l.79-3.613h-6.144l-.862 3.182h2.875l-1.77 7.088c-1.39 3.09-3.944 3.14-4.265 3.069-.526-.12-.863-.319-.863-1.003 0-.394.072-.961.252-1.644l2.695-10.692H8.158l-.863 3.182h2.839L8.302 25.48"/></g></svg><svg width="52" height="53" id="jira" y="495"><defs><linearGradient id="jira-a" x1="67.68%" x2="40.821%" y1="40.328%" y2="81.66%"><stop offset="18%" stop-color="#0052CC"/><stop offset="100%" stop-color="#2684FF"/></linearGradient><linearGradient id="jira-b" x1="32.656%" x2="59.343%" y1="59.166%" y2="17.99%"><stop offset="18%" stop-color="#0052CC"/><stop offset="100%" stop-color="#2684FF"/></linearGradient></defs><g fill="none"><path fill="#2684FF" d="M50.68 25.032L27.86 2.212 25.648 0 8.47 17.178.616 25.032a2.1 2.1 0 0 0 0 2.968L16.31 43.694l9.338 9.338 17.178-17.178.266-.266L50.68 28a2.1 2.1 0 0 0 0-2.968zm-25.032 9.324l-7.84-7.84 7.84-7.84 7.84 7.84-7.84 7.84z"/><path fill="url(#jira-a)" d="M25.648 18.676C20.515 13.542 20.49 5.227 25.592.063L8.435 17.213l9.338 9.338 7.875-7.875z"/><path fill="url(#jira-b)" d="M33.509 26.495l-7.861 7.861a13.202 13.202 0 0 1 0 18.676l17.199-17.199-9.338-9.338z"/></g></svg><svg width="52" height="42" id="newrelic" y="548"><g fill="none"><path fill="#0097A0" d="M50.776 15.212C48.381 4.2 35.174-2.279 21.276.742 7.38 3.764-1.944 15.143.45 26.155c2.395 11.012 15.6 17.491 29.5 14.47 13.898-3.022 23.221-14.4 20.827-25.413zM24.682 34.431c-7.756 0-14.04-6.286-14.04-14.041 0-7.756 6.285-14.04 14.04-14.04 7.755 0 14.04 6.286 14.04 14.04 0 7.753-6.287 14.041-14.04 14.041z"/><path fill="#5BC6CC" d="M28.181 2.989c-9.924 0-17.97 8.046-17.97 17.97S18.256 38.93 28.18 38.93s17.972-8.046 17.972-17.971-8.048-17.97-17.972-17.97zm-3.5 31.216c-7.63 0-13.814-6.185-13.814-13.815 0-7.631 6.183-13.813 13.815-13.813 7.631 0 13.81 6.184 13.81 13.813 0 7.628-6.182 13.815-13.81 13.815z"/><path fill="#231F20" d="M19.736 19.012l-1.514-3.175c-.362-.75-.733-1.602-.86-2.002l-.029.029c.049.566.059 1.28.069 1.875l.038 3.272h-1.103v-6.758h1.27l1.641 3.3c.275.56.507 1.142.694 1.738l.029-.029a28.428 28.428 0 0 1-.098-1.925l-.019-3.086h1.065v6.76h-1.183zm3.194-2.178v.075c0 .684.254 1.406 1.22 1.406.46 0 .86-.166 1.232-.488l.42.654a2.67 2.67 0 0 1-1.778.655c-1.396 0-2.276-1.005-2.276-2.588 0-.87.186-1.445.616-1.934.4-.46.889-.665 1.514-.665a1.91 1.91 0 0 1 1.358.508c.43.39.645.996.645 2.149v.225l-2.951.003zm.947-2.071c-.605 0-.938.479-.938 1.28h1.828c0-.801-.352-1.28-.89-1.28zm7.714 4.268h-1.004l-.605-2.275a36.313 36.313 0 0 1-.322-1.35h-.018s-.075.488-.323 1.396l-.595 2.227h-1.009l-1.35-4.894 1.066-.15.537 2.393c.136.616.254 1.3.254 1.3h.029c.072-.448.167-.891.284-1.329l.635-2.285h1.055l.558 2.233c.205.8.313 1.406.313 1.406h.029s.117-.75.244-1.328l.508-2.306h1.114l-1.4 4.962zm-12.703 8.681l-.586-1.046c-.468-.83-.781-1.299-1.152-1.67a.573.573 0 0 0-.44-.205v2.92h-1.104v-6.758h2.061c1.514 0 2.197.879 2.197 1.934 0 .967-.624 1.856-1.68 1.856.245.127.694.782 1.045 1.35l.996 1.622-1.337-.003zm-1.563-5.85h-.616V24h.576c.586 0 .9-.075 1.104-.284.186-.185.3-.468.3-.82.003-.684-.368-1.036-1.364-1.036zm4.375 3.672v.075c0 .684.255 1.406 1.222 1.406.459 0 .859-.166 1.23-.488l.42.654a2.67 2.67 0 0 1-1.777.654c-1.397 0-2.276-1.005-2.276-2.588 0-.869.186-1.446.616-1.934.4-.459.889-.665 1.514-.665.502-.015.99.167 1.358.508.43.391.645.996.645 2.149v.225l-2.951.004zm.948-2.071c-.605 0-.938.479-.938 1.28h1.826c0-.801-.35-1.28-.888-1.28zm4.015 4.356c-1.085 0-1.085-.975-1.085-1.396v-4.21a8.004 8.004 0 0 0-.098-1.446l1.104-.244c.076.3.088.713.088 1.358v4.19c0 .664.03.771.107.888a.3.3 0 0 0 .352.076l.176.664a1.683 1.683 0 0 1-.644.12zm1.865-5.782a.7.7 0 0 1-.694-.715.708.708 0 1 1 .694.713v.002zm-.537 5.675v-4.865l1.085-.195v5.06h-1.085zm4.16.126c-1.35 0-2.1-.947-2.1-2.539 0-1.8 1.075-2.657 2.175-2.657.537 0 .928.127 1.367.538l-.537.713c-.293-.264-.546-.381-.83-.381a.84.84 0 0 0-.781.498c-.15.3-.205.762-.205 1.377 0 .675.107 1.104.332 1.35a.869.869 0 0 0 .657.285c.342 0 .675-.166.996-.488l.508.654c-.449.446-.917.65-1.582.65zm2.499-.018a.725.725 0 1 1-.007-1.45.725.725 0 0 1 .007 1.45zm0-1.307a.584.584 0 1 0 .558.581.566.566 0 0 0-.558-.58zm.142.983c-.031-.055-.044-.075-.075-.134-.08-.15-.105-.188-.134-.2a.054.054 0 0 0-.025-.005v.339h-.161v-.813h.3a.225.225 0 0 1 .24.238c.01.111-.07.21-.182.224.012.01.024.023.033.036.047.058.195.316.195.316l-.19-.001zm-.085-.67a.326.326 0 0 0-.092-.013h-.058v.22h.055c.07 0 .101-.007.123-.026a.115.115 0 0 0 .031-.082.096.096 0 0 0-.06-.1h.001z"/></g></svg><svg width="142" height="25" id="overflow" y="590"><g fill="none"><path fill="#FF4542" d="M50.313 7.995c-1.51-1.493-3.325-2.24-5.443-2.24-2.118 0-3.932.747-5.443 2.24a7.759 7.759 0 0 0-1.667 2.422 8.05 8.05 0 0 0-.312.911 7.552 7.552 0 0 0-.287 2.11c0 1.076.191 2.065.573 2.968a.2.2 0 0 0 .026.078 7.857 7.857 0 0 0 1.667 2.396c1.51 1.51 3.325 2.266 5.443 2.266 2.118 0 3.932-.755 5.443-2.266a7.768 7.768 0 0 0 1.692-2.474c.365-.903.547-1.892.547-2.968 0-.747-.087-1.45-.26-2.11-.348-1.233-1.007-2.344-1.98-3.333zm-5.443-.026c1.51 0 2.795.538 3.854 1.614.52.521.92 1.103 1.198 1.745.26.642.39 1.346.39 2.11 0 1.11-.277 2.1-.833 2.968a9.133 9.133 0 0 1-.755.912c-1.06 1.059-2.344 1.588-3.854 1.588-1.493 0-2.778-.53-3.854-1.588a6.004 6.004 0 0 1-.756-.912c-.572-.868-.859-1.857-.859-2.968 0-.764.139-1.468.417-2.11a5.07 5.07 0 0 1 1.198-1.745c1.076-1.076 2.36-1.614 3.854-1.614zm22.005-1.875h-2.396l-4.896 12.083-4.895-12.083h-2.37l6.015 14.687h2.526l6.016-14.687zm12.708 1.979C78.23 6.545 76.467 5.78 74.297 5.78c-2.24 0-4.071.73-5.495 2.188a7.492 7.492 0 0 0-1.901 3.36 8.566 8.566 0 0 0-.26 2.135c0 1.076.173 2.057.52 2.942a7.01 7.01 0 0 0 1.667 2.578c1.441 1.441 3.316 2.162 5.625 2.162 1.424 0 2.691-.295 3.802-.886 1.146-.642 2.031-1.475 2.656-2.5l.079-.13-1.954-1.172-.104.157c-.364.694-.937 1.258-1.718 1.692-.764.452-1.676.677-2.735.677-1.458 0-2.708-.416-3.75-1.25a4.525 4.525 0 0 1-1.12-1.328 5.155 5.155 0 0 1-.625-1.823H81.51l.079-1.067c0-.764-.087-1.493-.26-2.188a7.934 7.934 0 0 0-1.746-3.255zm-5.286-.104c1.267 0 2.37.408 3.307 1.224.66.555 1.137 1.267 1.432 2.135.105.33.183.686.235 1.068H68.984c.052-.382.148-.738.287-1.068a4.738 4.738 0 0 1 1.406-2.083c.972-.85 2.179-1.276 3.62-1.276zm11.536.052V6.12h-2.24v14.687h2.24v-8.15c0-.487.044-.93.13-1.329.157-.92.521-1.632 1.094-2.135.834-.747 1.867-1.12 3.1-1.12h.182V5.885h-.183c-1.944 0-3.385.712-4.323 2.136zM98.75 2.266V.078l-.156-.026c-1.98-.139-3.507.295-4.584 1.302-1.093.99-1.64 2.448-1.64 4.375v15.078h2.265v-12.5h4.115V6.12h-4.115v-.39c0-1.338.313-2.275.938-2.813.66-.556 1.658-.782 2.995-.677l.182.026zM103.099 0h-2.162v20.73h2.162V0zm10.026 5.781c-2.135 0-3.95.747-5.443 2.24-.972.972-1.632 2.074-1.979 3.307a7.83 7.83 0 0 0-.286 2.136c0 1.059.19 2.04.573 2.942.364.92.928 1.754 1.692 2.5 1.493 1.51 3.308 2.266 5.443 2.266 2.118 0 3.924-.755 5.417-2.266a7.502 7.502 0 0 0 1.718-2.5c.365-.903.547-1.883.547-2.942a7.83 7.83 0 0 0-.286-2.136c-.347-1.233-1.007-2.335-1.98-3.307-1.492-1.493-3.298-2.24-5.416-2.24zm-3.88 3.828c1.076-1.076 2.37-1.614 3.88-1.614 1.493 0 2.778.538 3.854 1.614.521.521.92 1.094 1.198 1.72.278.659.417 1.37.417 2.135 0 1.093-.278 2.074-.834 2.942a6.59 6.59 0 0 1-.78.938c-1.077 1.059-2.362 1.588-3.855 1.588-1.51 0-2.804-.53-3.88-1.588a5.42 5.42 0 0 1-.755-.938c-.556-.868-.834-1.849-.834-2.942 0-.764.14-1.476.417-2.136a5.316 5.316 0 0 1 1.172-1.719zm32.396-3.49h-2.318l-3.412 11.485-3.62-11.484h-2.135l-3.62 11.484-3.411-11.484h-2.318l4.532 14.687h2.317l3.568-11.172 3.568 11.172h2.317l4.532-14.687z"/><path fill="#CAE2E2" d="M24.557 10.573c0-2.9-1.024-5.373-3.073-7.422C19.436 1.102 16.962.078 14.062.078c-2.899 0-5.373 1.024-7.421 3.073C4.592 5.2 3.568 7.674 3.568 10.573h20.99z"/><path fill="#232D41" d="M21.432 18.047l.052-.052c2.014-1.997 3.039-4.41 3.073-7.24v-.182H3.567v.182c.035 2.83 1.06 5.243 3.074 7.24l.052.052c2.048 2.014 4.505 3.02 7.37 3.02 2.864 0 5.32-1.006 7.37-3.02z"/><path fill="#FF4542" d="M27.943 10.573h-3.386v.182c-.034 2.83-1.059 5.243-3.073 7.24l-.052.052c-2.048 2.014-4.505 3.02-7.37 3.02-2.864 0-5.32-1.006-7.37-3.02l-.051-.052c-2.014-1.997-3.039-4.41-3.073-7.24v-.182H.208c-.139 0-.208.06-.208.182.052 3.82 1.45 7.084 4.193 9.792 2.743 2.708 6.033 4.062 9.87 4.062 3.836 0 7.126-1.354 9.87-4.062 2.742-2.708 4.14-5.972 4.192-9.792 0-.121-.06-.182-.182-.182z"/></g></svg><svg width="80" height="28" id="rails" y="615"><g fill="#C00" fill-rule="evenodd"><path d="M68.92 24.3v3.62h6.54c1.34 0 3.64-.98 3.72-3.72v-1.4c0-2.34-1.92-3.72-3.72-3.72H72.2V17.4h6.46v-3.64h-6.2c-1.6 0-3.74 1.32-3.74 3.78v1.26c0 2.46 2.12 3.72 3.74 3.72 4.5.02-1.08 0 3.08 0v1.76l-6.62.02zm-35.04-.88s3.5-.3 3.5-4.82c0-4.52-4.24-4.94-4.24-4.94H25.5v14.26h3.84v-3.44l3.32 3.44h5.68l-4.46-4.5zM32.4 20.5h-3.06v-3.26h3.08s.86.32.86 1.62-.88 1.64-.88 1.64zm14.46-6.74h-3.9c-2.78 0-3.72 2.52-3.72 3.72v10.44h3.9v-2.5h3.66v2.5h3.78V17.48c0-3.04-2.76-3.72-3.72-3.72zm-.06 7.62h-3.68v-3.46s0-.78 1.22-.78h1.34c1.08 0 1.1.78 1.1.78v3.46h.02zm5.56-7.62h4.06v14.16h-4.06zm9.76 10.5v-10.5h-4.04v14.16h9.5v-3.66z"/><path d="M1.4 27.92h15.8s-3.02-13.78 6.98-19.36c2.18-1.06 9.12-5.02 20.48 3.38.36-.3.7-.54.7-.54S34.96 1.02 23.38 2.18C17.56 2.7 10.4 8 6.2 15 2 22 1.4 27.92 1.4 27.92z"/><path d="M1.4 27.92h15.8s-3.02-13.78 6.98-19.36c2.18-1.06 9.12-5.02 20.48 3.38.36-.3.7-.54.7-.54S34.96 1.02 23.38 2.18C17.56 2.7 10.4 8 6.2 15 2 22 1.4 27.92 1.4 27.92z"/><path d="M1.4 27.92h15.8s-3.02-13.78 6.98-19.36c2.18-1.06 9.12-5.02 20.48 3.38.36-.3.7-.54.7-.54S34.96 1.02 23.38 2.18C17.54 2.7 10.38 8 6.18 15 1.98 22 1.4 27.92 1.4 27.92zM34.32 3.3l.08-1.34c-.18-.1-.68-.34-1.94-.7l-.08 1.32c.66.22 1.3.46 1.94.72z"/><path d="M32.42 7.54l-.08 1.26c.66.02 1.32.1 1.98.24l.08-1.24c-.68-.14-1.34-.22-1.98-.26zm-7.4-6.24h.2l-.4-1.22c-.62 0-1.26.04-1.92.12l.38 1.18c.58-.06 1.16-.08 1.74-.08zm.96 7.36l.46 1.38c.58-.28 1.16-.52 1.74-.7l-.44-1.32c-.68.2-1.26.42-1.76.64zM16.9 3.4L16 2.02c-.5.26-1.02.54-1.56.86l.92 1.4c.52-.32 1.02-.62 1.54-.88zm4.1 9l.96 1.44c.34-.5.74-.96 1.18-1.42l-.9-1.36c-.46.42-.88.88-1.24 1.34zm-2.9 6.44l1.62 1.28c.08-.78.22-1.56.42-2.34l-1.44-1.14c-.26.74-.44 1.48-.6 2.2zm-8.76-9.5L7.92 8.1c-.52.5-1.02 1-1.48 1.5l1.54 1.32c.42-.54.88-1.08 1.36-1.58zM3.3 18.28L1 17.44c-.38.86-.8 1.86-1 2.4l2.3.84c.26-.68.68-1.66 1-2.4zm14.5 5.64c.04 1.06.14 1.92.24 2.52l2.4.86c-.18-.78-.36-1.66-.48-2.6l-2.16-.78z"/></g></svg><svg width="160" height="28" id="react-native" y="643"><g fill="#61DAFB"><path d="M31.48 14c0-2.082-2.609-4.056-6.607-5.28.923-4.075.513-7.317-1.294-8.355-.417-.243-.903-.359-1.435-.359v1.43c.294 0 .532.057.73.166.872.5 1.25 2.403.955 4.85-.07.602-.186 1.237-.327 1.884a31.051 31.051 0 0 0-4.069-.698 31.255 31.255 0 0 0-2.665-3.204c2.089-1.942 4.05-3.005 5.382-3.005V0c-1.762 0-4.069 1.256-6.4 3.434C13.416 1.27 11.11.026 9.347.026v1.428c1.327 0 3.294 1.058 5.382 2.986a30.263 30.263 0 0 0-2.646 3.198 29.92 29.92 0 0 0-4.075.704 19.33 19.33 0 0 1-.333-1.858c-.301-2.447.07-4.35.935-4.857.193-.115.443-.166.737-.166V.032C8.81.032 8.323.147 7.9.391 6.1 1.429 5.696 4.665 6.625 8.727 2.64 9.957.045 11.924.045 14c0 2.082 2.608 4.056 6.606 5.28-.923 4.075-.513 7.317 1.294 8.355.417.243.904.359 1.442.359 1.762 0 4.068-1.256 6.4-3.435 2.333 2.166 4.64 3.409 6.402 3.409.538 0 1.025-.115 1.448-.359 1.8-1.038 2.204-4.274 1.275-8.336 3.972-1.224 6.567-3.197 6.567-5.273zm-8.343-4.274a28.857 28.857 0 0 1-.865 2.531A34.669 34.669 0 0 0 20.51 9.22c.91.135 1.787.301 2.627.506zm-2.935 6.824c-.5.865-1.012 1.685-1.544 2.448a33.339 33.339 0 0 1-5.78.006 35.32 35.32 0 0 1-1.55-2.435 33.337 33.337 0 0 1-1.333-2.55 34.135 34.135 0 0 1 2.87-5.004 33.339 33.339 0 0 1 5.78-.006 35.32 35.32 0 0 1 1.55 2.434c.488.84.93 1.692 1.334 2.55a35.875 35.875 0 0 1-1.327 2.557zm2.07-.833c.346.859.64 1.717.884 2.55a28.98 28.98 0 0 1-2.64.513c.314-.494.628-1 .923-1.519.295-.512.57-1.031.833-1.544zm-6.497 6.837a26.415 26.415 0 0 1-1.781-2.05c.576.025 1.166.044 1.762.044.602 0 1.198-.013 1.78-.045a25.01 25.01 0 0 1-1.761 2.05zm-4.767-3.774a28.912 28.912 0 0 1-2.627-.506c.237-.827.532-1.679.865-2.531.262.512.538 1.025.84 1.538.3.512.608 1.012.922 1.499zm4.735-13.334c.596.615 1.192 1.3 1.781 2.05a39.664 39.664 0 0 0-1.762-.044c-.602 0-1.198.013-1.781.045a25.01 25.01 0 0 1 1.762-2.05zM11 9.22a35.397 35.397 0 0 0-1.755 3.056 27.46 27.46 0 0 1-.884-2.55 31.465 31.465 0 0 1 2.64-.506zm-5.798 8.022C2.935 16.275 1.467 15.006 1.467 14c0-1.006 1.468-2.281 3.736-3.242a19.743 19.743 0 0 1 1.775-.647 30.773 30.773 0 0 0 1.441 3.902 30.34 30.34 0 0 0-1.422 3.883 19.464 19.464 0 0 1-1.794-.654zm3.447 9.156c-.872-.5-1.25-2.403-.955-4.85.07-.602.186-1.237.327-1.884a30.85 30.85 0 0 0 4.069.698 31.255 31.255 0 0 0 2.665 3.204c-2.089 1.942-4.05 3.005-5.382 3.005-.288-.006-.532-.064-.724-.173zm15.198-4.882c.301 2.447-.07 4.35-.935 4.857-.193.115-.443.166-.737.166-1.327 0-3.294-1.057-5.382-2.986a30.263 30.263 0 0 0 2.646-3.197 29.92 29.92 0 0 0 4.075-.705c.147.647.263 1.269.333 1.865zm2.467-4.274a19.52 19.52 0 0 1-1.775.647 30.773 30.773 0 0 0-1.442-3.902 30.34 30.34 0 0 0 1.423-3.883c.634.199 1.236.417 1.8.654 2.268.967 3.736 2.236 3.736 3.242-.007 1.006-1.474 2.281-3.742 3.242z"/><circle cx="15.756" cy="14" r="2.928"/><path d="M45.961 13.145c.986 0 1.766-.198 2.34-.594.574-.397.86-1.111.86-2.145 0-1.111-.4-1.869-1.204-2.272-.43-.212-1.003-.318-1.721-.318h-5.134v5.33h4.86zM39 6h7.183c1.183 0 2.158.173 2.926.52 1.458.666 2.186 1.894 2.186 3.684 0 .935-.191 1.7-.575 2.294-.384.594-.921 1.072-1.611 1.433.605.248 1.061.573 1.368.977.306.403.477 1.058.512 1.964l.074 2.092c.021.594.07 1.036.148 1.327.127.495.352.814.676.955v.35H49.31a1.955 1.955 0 0 1-.17-.52c-.042-.212-.077-.623-.105-1.231l-.127-2.601c-.05-1.02-.426-1.703-1.13-2.05-.401-.19-1.032-.286-1.89-.286h-4.786v6.689H39V6zm19.827 3.97c.803 0 1.58.19 2.334.569.754.378 1.328.869 1.722 1.47.38.574.634 1.242.76 2.007.113.524.17 1.359.17 2.506H55.52c.035 1.153.306 2.079.813 2.776.507.697 1.292 1.046 2.356 1.046.993 0 1.785-.33 2.376-.988.338-.382.578-.824.719-1.327h1.87c-.05.418-.214.883-.492 1.396-.278.514-.59.933-.935 1.258-.577.567-1.292.949-2.144 1.147-.458.113-.975.17-1.553.17-1.408 0-2.602-.515-3.58-1.545-.98-1.03-1.469-2.472-1.469-4.326 0-1.826.493-3.31 1.479-4.449.986-1.14 2.274-1.71 3.866-1.71zm3.031 5.033c-.077-.828-.257-1.49-.538-1.985-.521-.92-1.391-1.38-2.61-1.38-.873 0-1.605.316-2.196.95-.592.633-.905 1.439-.94 2.415h6.284zm5.747 3.568c0 .552.2.987.602 1.306.401.318.877.477 1.426.477.669 0 1.317-.155 1.944-.467 1.056-.517 1.584-1.362 1.584-2.537v-1.54a3.244 3.244 0 0 1-.898.372c-.366.099-.725.17-1.077.212l-1.152.149c-.69.092-1.207.237-1.552.435-.585.333-.877.864-.877 1.593zm4.605-3.865c.437-.057.73-.24.877-.552.085-.17.127-.414.127-.733 0-.65-.23-1.123-.692-1.417-.461-.294-1.122-.44-1.98-.44-.994 0-1.698.268-2.113.806-.233.298-.384.74-.454 1.327H66.2c.035-1.401.488-2.376 1.357-2.925.87-.548 1.879-.822 3.027-.822 1.33 0 2.411.254 3.242.764.824.51 1.236 1.302 1.236 2.378v6.551c0 .198.04.357.122.478.08.12.252.18.512.18a4.26 4.26 0 0 0 .623-.063v1.412a5.273 5.273 0 0 1-.676.159 4.915 4.915 0 0 1-.633.032c-.655 0-1.13-.234-1.426-.701-.155-.248-.265-.598-.328-1.051-.387.51-.944.952-1.669 1.327a5.141 5.141 0 0 1-2.398.563c-1.049 0-1.906-.32-2.572-.961-.665-.64-.998-1.442-.998-2.405 0-1.055.327-1.872.982-2.452.655-.58 1.514-.938 2.578-1.073l3.031-.382zm10.331-4.81c1.275 0 2.312.312 3.11.935.8.623 1.28 1.695 1.443 3.217h-1.849c-.113-.701-.37-1.283-.771-1.747-.401-.463-1.046-.695-1.933-.695-1.211 0-2.077.594-2.599 1.784-.338.771-.507 1.723-.507 2.856 0 1.14.24 2.098.719 2.877.479.778 1.232 1.168 2.26 1.168.789 0 1.414-.243 1.875-.728.461-.484.78-1.148.956-1.99h1.849c-.212 1.507-.74 2.61-1.585 3.307-.845.697-1.926 1.046-3.243 1.046-1.478 0-2.658-.544-3.538-1.63-.88-1.087-1.32-2.444-1.32-4.072 0-1.996.482-3.55 1.446-4.66.965-1.112 2.194-1.668 3.687-1.668zm6.834-2.845h1.923v3.175h1.806v1.56h-1.806v7.422c0 .396.134.661.401.796.148.078.395.117.74.117a5.648 5.648 0 0 0 .665-.032v1.508c-.218.063-.445.11-.681.138a6.445 6.445 0 0 1-.766.042c-.887 0-1.49-.228-1.806-.685-.317-.456-.476-1.05-.476-1.778v-7.528h-1.531v-1.56h1.531V7.05zM101.27 6h2.483l7.837 12.634V6h1.997v15.597h-2.356l-7.954-12.624v12.624h-2.007V6zm16.827 12.57c0 .553.201.988.602 1.307.402.318.877.477 1.426.477a4.31 4.31 0 0 0 1.944-.467c1.056-.517 1.584-1.362 1.584-2.537v-1.54a3.244 3.244 0 0 1-.897.372c-.367.099-.726.17-1.078.212l-1.151.149c-.69.092-1.208.237-1.553.435-.584.333-.877.864-.877 1.593zm4.606-3.864c.436-.057.729-.24.877-.552.084-.17.126-.414.126-.733 0-.65-.23-1.123-.692-1.417-.46-.294-1.121-.44-1.98-.44-.993 0-1.697.268-2.113.806-.232.298-.384.74-.454 1.327h-1.775c.036-1.401.488-2.376 1.358-2.925.87-.548 1.878-.822 3.026-.822 1.331 0 2.412.254 3.243.764.824.51 1.236 1.302 1.236 2.378v6.551c0 .198.04.357.121.478.081.12.252.18.513.18.084 0 .18-.005.285-.016.105-.01.218-.026.338-.047v1.412a5.273 5.273 0 0 1-.676.159 4.915 4.915 0 0 1-.634.032c-.655 0-1.13-.234-1.426-.701-.155-.248-.264-.598-.327-1.051-.388.51-.944.952-1.67 1.327a5.141 5.141 0 0 1-2.397.563c-1.05 0-1.907-.32-2.572-.961-.666-.64-.999-1.442-.999-2.405 0-1.055.328-1.872.983-2.452.655-.58 1.514-.938 2.577-1.073l3.032-.382zm6.348-7.655h1.923v3.175h1.806v1.56h-1.806v7.422c0 .396.133.661.401.796.148.078.394.117.74.117a5.648 5.648 0 0 0 .665-.032v1.508c-.218.063-.445.11-.681.138a6.445 6.445 0 0 1-.766.042c-.887 0-1.49-.228-1.806-.685-.317-.456-.476-1.05-.476-1.778v-7.528h-1.531v-1.56h1.531V7.05zm5.63 3.228h1.933v11.318h-1.933V10.279zm0-4.279h1.933v2.166h-1.933V6zm5.736 4.226l3.021 9.258 3.158-9.258h2.081l-4.267 11.37h-2.028l-4.173-11.37h2.208zm14.598-.255c.803 0 1.581.19 2.335.568.753.378 1.327.869 1.721 1.47.38.574.634 1.242.761 2.007.113.524.169 1.359.169 2.506h-8.292c.035 1.153.306 2.079.813 2.776.507.697 1.293 1.046 2.356 1.046.993 0 1.785-.33 2.377-.988a3.33 3.33 0 0 0 .718-1.327h1.87c-.05.418-.213.883-.492 1.396-.278.514-.59.933-.934 1.258-.578.567-1.293.949-2.145 1.147a6.49 6.49 0 0 1-1.553.17c-1.408 0-2.602-.515-3.58-1.545-.98-1.03-1.469-2.472-1.469-4.326 0-1.826.493-3.31 1.48-4.449.985-1.14 2.274-1.71 3.865-1.71zm3.032 5.032c-.078-.828-.257-1.49-.539-1.985-.521-.92-1.39-1.38-2.609-1.38-.873 0-1.606.316-2.197.95-.592.633-.905 1.439-.94 2.415h6.285z"/></g></svg><svg width="45" height="40" id="react" y="671"><g fill="#61DAFB"><path d="M44.97 20c0-2.975-3.725-5.794-9.437-7.542 1.318-5.822.732-10.453-1.849-11.936-.595-.348-1.29-.513-2.05-.513V2.05c.42 0 .76.083 1.043.238 1.245.714 1.785 3.433 1.364 6.93-.1.86-.265 1.766-.467 2.69a44.359 44.359 0 0 0-5.812-.997 44.65 44.65 0 0 0-3.808-4.577c2.984-2.773 5.785-4.293 7.689-4.293V0c-2.517 0-5.812 1.794-9.144 4.906-3.332-3.094-6.627-4.87-9.144-4.87v2.042c1.894 0 4.704 1.51 7.688 4.265a43.232 43.232 0 0 0-3.78 4.568c-2.068.22-4.027.558-5.821 1.007a27.614 27.614 0 0 1-.476-2.655c-.43-3.496.1-6.215 1.336-6.938.275-.165.632-.238 1.053-.238V.046c-.77 0-1.465.165-2.069.512-2.572 1.483-3.149 6.106-1.821 11.909C3.77 14.224.065 17.034.065 20c0 2.975 3.724 5.794 9.436 7.542-1.318 5.822-.732 10.453 1.85 11.936.594.348 1.29.513 2.059.513 2.517 0 5.812-1.794 9.144-4.906 3.332 3.093 6.627 4.87 9.144 4.87.769 0 1.464-.166 2.069-.513 2.572-1.483 3.148-6.106 1.821-11.909 5.675-1.748 9.382-4.567 9.382-7.533zm-11.917-6.105a41.225 41.225 0 0 1-1.236 3.615 43.318 43.318 0 0 0-1.2-2.196 49.527 49.527 0 0 0-1.317-2.142c1.3.192 2.554.43 3.753.723zm-4.193 9.748a48.764 48.764 0 0 1-2.206 3.497 47.627 47.627 0 0 1-8.256.009 50.457 50.457 0 0 1-2.215-3.479 47.678 47.678 0 0 1-1.904-3.643 47.732 47.732 0 0 1 1.895-3.652 48.764 48.764 0 0 1 2.206-3.496 47.627 47.627 0 0 1 8.256-.01 50.457 50.457 0 0 1 2.215 3.479 47.679 47.679 0 0 1 1.904 3.643 51.25 51.25 0 0 1-1.895 3.652zm2.957-1.19a39.227 39.227 0 0 1 1.263 3.643c-1.199.293-2.462.54-3.771.732.448-.704.897-1.428 1.318-2.169.421-.732.815-1.474 1.19-2.206zm-9.282 9.767a37.736 37.736 0 0 1-2.544-2.93c.824.037 1.666.065 2.517.065.86 0 1.712-.019 2.545-.064a35.728 35.728 0 0 1-2.518 2.929zm-6.81-5.392c-1.3-.192-2.553-.43-3.752-.723.338-1.18.76-2.398 1.235-3.615.376.732.77 1.464 1.2 2.196.43.733.869 1.447 1.317 2.142zM22.49 7.78a37.736 37.736 0 0 1 2.544 2.93 56.663 56.663 0 0 0-2.517-.065c-.86 0-1.712.019-2.544.064A35.728 35.728 0 0 1 22.49 7.78zm-6.774 5.392a50.567 50.567 0 0 0-2.508 4.366 39.227 39.227 0 0 1-1.263-3.643 44.33 44.33 0 0 1 3.771-.723zm-8.284 11.46C4.192 23.249 2.096 21.437 2.096 20c0-1.437 2.096-3.259 5.336-4.632.788-.338 1.648-.64 2.536-.924a43.962 43.962 0 0 0 2.06 5.574 43.342 43.342 0 0 0-2.033 5.547 27.806 27.806 0 0 1-2.563-.933zm4.925 13.08c-1.245-.714-1.785-3.433-1.364-6.93.1-.86.266-1.766.467-2.69 1.794.439 3.753.778 5.812.997a44.65 44.65 0 0 0 3.808 4.577c-2.984 2.773-5.785 4.293-7.689 4.293-.412-.01-.76-.092-1.034-.247zm21.712-6.975c.43 3.496-.101 6.215-1.337 6.938-.274.165-.631.238-1.052.238-1.895 0-4.705-1.51-7.69-4.265a43.232 43.232 0 0 0 3.781-4.568 42.744 42.744 0 0 0 5.822-1.007c.21.925.375 1.813.476 2.664zm3.524-6.105c-.788.338-1.648.64-2.536.924a43.962 43.962 0 0 0-2.06-5.574 43.342 43.342 0 0 0 2.033-5.547c.906.284 1.766.595 2.572.933 3.24 1.383 5.336 3.195 5.336 4.632-.009 1.437-2.105 3.259-5.345 4.632z"/><circle cx="22.508" cy="20" r="4.183"/></g></svg><svg width="61" height="48" id="rollbar" y="711"><g fill="none" fill-rule="evenodd"><path fill="#3A4757" fill-rule="nonzero" d="M60.952 47.814V5.146c-.108-2.722-.186-6.862-6.27-4.386-10.15 3.714-20.36 7.29-30.418 11.244-7.62 2.994-15.968 6.278-20.266 22.318-1.126 4.2-2.672 9.29-3.8 13.494h9.872c.91-3.4 2.048-7.682 2.958-11.08 3.076-11.486 9.12-13.862 14.636-16.03 7.918-3.114 15.934-5.956 23.934-8.88v35.988h9.354z"/><path fill="#F7941D" d="M23.998 24.908a15.536 15.536 0 0 0-2.814 1.972c-2.98 2.654-4.6 6.44-5.6 10.222l-2.82 10.38h11.234V24.908z"/><path fill="#BFD730" d="M36.22 19.934a590.203 590.203 0 0 0-7.6 2.9c-.674.266-1.34.528-2 .8v23.84h9.584l.016-27.54z"/><path fill="#00BAD9" d="M48.958 47.474v-32.2c-3.36 1.222-6.74 2.434-10.102 3.682v28.518h10.102z"/></g></svg><svg width="39" height="39" id="sendgrid" y="759"><g fill="none" fill-rule="evenodd"><path fill="#FFFFFE" d="M38.445.155h-25.46v12.73H.255v25.46h25.46v-12.73h12.73V.155"/><path fill="#A7DAE7" d="M.255 25.616v-12.73h12.73H.255v12.73"/><path fill="#A7DAE7" d="M25.715 38.345h-12.73v-12.73H.255v-12.73h12.73v12.73h12.73v12.73"/><path fill="#3A75AD" d="M.255 38.345h12.73v-12.73H.255z"/><path fill="#00B0D4" d="M38.445 25.616v-12.73 12.73M25.715.155h-12.73 12.73m12.73 25.461h-12.73v-12.73h-12.73V.155h12.73v12.73h12.73v12.73"/><path fill="#00B0D4" d="M12.985 25.616h12.73v-12.73h-12.73z"/><path fill="#3A75AD" d="M25.715 12.885h12.73V.155h-12.73z"/></g></svg><svg width="45" height="40" id="sketch" y="798"><g fill="none"><path fill="#FDB300" d="M9.64 1.316L22.09 0l12.451 1.316 9.64 12.94L22.09 39.98 0 14.256z"/><path fill="#EA6C00" d="M8.948 14.256L22.09 39.98 0 14.256zm26.285 0L22.09 39.98l22.09-25.724z"/><path fill="#FDAD00" d="M8.948 14.256h26.285L22.09 39.98z"/><path fill="#FDD231" d="M22.09 0L9.64 1.316l-.692 12.94zm0 0l12.451 1.316.692 12.94z"/><path fill="#FDAD00" d="M44.18 14.256l-9.639-12.94.692 12.94zm-44.18 0l9.64-12.94-.692 12.94z"/><path fill="#FEEEB7" d="M22.09 0L8.948 14.256h26.285z"/></g></svg><svg xmlns:xlink="http://www.w3.org/1999/xlink" width="41" height="40" id="useberry" y="838"><defs><path id="useberry-a" d="M0 0h19.23v40H0z"/><path id="useberry-c" d="M1.385 0h19.384v19.077H1.385z"/></defs><g fill="none" fill-rule="evenodd"><path fill="#5854FF" d="M40.77 21.077H21.384V40c10.461-.462 18.769-8.77 19.384-18.923"/><mask id="useberry-b" fill="#fff"><use xlink:href="#useberry-a"/></mask><path fill="#FF3666" d="M0 0v20c0 10.77 8.615 19.385 19.23 20V0H0z" mask="url(#useberry-b)"/><g transform="translate(20)"><mask id="useberry-d" fill="#fff"><use xlink:href="#useberry-c"/></mask><path fill="#FFC329" d="M11.077 0C5.693 0 1.385 4.308 1.385 9.54c0 5.23 4.308 9.538 9.692 9.538 5.385 0 9.693-4.308 9.693-9.538 0-5.232-4.308-9.54-9.693-9.54" mask="url(#useberry-d)"/></g></g></svg><svg width="50" height="40" id="zeplin" y="878"><g fill="none"><path fill="#FDBD39" d="M7.71 27.582l-2.617.956-.14 7.782 9.056-3.308c-3.108-1.041-5.375-2.876-6.3-5.43"/><path fill="#F69833" d="M9.078 19.352L0 22.668l5.093 5.872 2.616-.956c-.923-2.545-.353-5.419 1.37-8.232"/><path fill="#FECF33" d="M24.353 8.12C12.793 12.344 5.34 21.059 7.71 27.583l41.86-15.291C47.2 5.766 35.913 3.898 24.353 8.12"/><path fill="#EE6723" d="M32.923 31.755c11.56-4.223 19.025-12.898 16.644-19.462l-41.86 15.29c2.381 6.566 13.656 8.394 25.216 4.172"/><path fill="#F69833" d="M49.567 12.29L7.709 27.583c.819 2.261 3.946 3.375 8.33 3.375 4.277 0 9.75-1.058 15.456-3.142 11.56-4.222 19.69-11.06 18.072-15.524"/><path fill="#FDBD39" d="M41.236 8.918c-4.274 0-9.75 1.058-15.455 3.142C14.22 16.283 6.09 23.12 7.709 27.582l41.86-15.291c-.82-2.26-3.946-3.373-8.333-3.373"/><g fill="#EE6723"><path d="M38.924 36.734c-1.233 0-3.049-1.112-5.4-3.306-2.783-2.596-5.969-6.398-8.975-10.706-3.005-4.307-5.474-8.613-6.953-12.127-1.61-3.827-1.841-6.18-.684-6.994.268-.183.586-.276.91-.268.942 0 2.779.7 6.172 4.042l.075.072-.01.104c-.024.241-.044.482-.063.721l-.038.472-.332-.335c-3.657-3.684-5.265-4.08-5.79-4.08a.596.596 0 0 0-.352.089c-.503.353-.536 2.082 1.026 5.79 1.453 3.45 3.886 7.691 6.851 11.943 2.967 4.253 6.105 7.998 8.84 10.547 2.946 2.75 4.274 3.046 4.708 3.046.15 0 .27-.03.362-.095.53-.372.53-2.224-1.212-6.217l-.08-.183.174-.096c.174-.095.345-.189.503-.28l.21-.119.097.22c1.234 2.83 2.39 6.428.875 7.491a1.552 1.552 0 0 1-.914.269zm.04-.437v.218-.218z"/><path d="M33.203 31.634l-.017.216c-.292 3.616-1.061 7.963-3.069 8.14-.041.004-.083.004-.122.004-1.363 0-2.654-1.953-3.832-5.804-1.118-3.645-1.984-8.536-2.44-13.774-.457-5.239-.45-10.207.02-13.991.51-4.123 1.483-6.275 2.892-6.4.041-.004.085-.006.127-.006.989 0 2.479 1.12 4.004 6.335l-.996.191c-.509-1.74-1.064-3.158-1.614-4.135-.51-.9-1.006-1.396-1.394-1.396-.013 0-.025 0-.04.002-.61.054-1.5 1.534-1.995 5.532-.461 3.715-.467 8.61-.016 13.78.45 5.172 1.303 9.991 2.4 13.57.49 1.601 1.028 2.923 1.558 3.818.486.827.958 1.282 1.326 1.282.012 0 .025 0 .037-.002.584-.05 1.685-1.591 2.149-7.013l1.022-.349z"/></g></g></svg></svg>
