<svg width="61" height="60" viewBox="0 0 61 60" fill="none" xmlns="http://www.w3.org/2000/svg">
<rect x="0.800049" width="60" height="60" rx="18" fill="#FFDBC2"/>
<path d="M30.8 37.5C34.9422 37.5 38.3 34.1421 38.3 30C38.3 25.8579 34.9422 22.5 30.8 22.5C26.6579 22.5 23.3 25.8579 23.3 30C23.3 34.1421 26.6579 37.5 30.8 37.5Z" stroke="#FF6B00" stroke-width="3" stroke-linecap="round" stroke-linejoin="round"/>
<path d="M41.6437 22.6094C42.0199 23.1479 42.3492 23.7177 42.6281 24.3125L46.675 26.5625C47.1803 28.8257 47.1856 31.172 46.6906 33.4375L42.6281 35.6875C42.3492 36.2823 42.0199 36.8521 41.6437 37.3906L41.7218 42.0312C40.0068 43.5941 37.9769 44.7716 35.7687 45.4844L31.7843 43.0937C31.1289 43.1406 30.471 43.1406 29.8156 43.0937L25.8468 45.4687C23.6317 44.7689 21.5951 43.596 19.8781 42.0312L19.9562 37.4062C19.5832 36.8602 19.2541 36.2855 18.9718 35.6875L14.925 33.4375C14.4197 31.1743 14.4143 28.828 14.9093 26.5625L18.9718 24.3125C19.2507 23.7177 19.5801 23.1479 19.9562 22.6094L19.8781 17.9687C21.5932 16.4059 23.6231 15.2284 25.8312 14.5156L29.8156 16.9062C30.471 16.8594 31.1289 16.8594 31.7843 16.9062L35.7531 14.5313C37.9682 15.2311 40.0048 16.404 41.7218 17.9687L41.6437 22.6094Z" stroke="#FF6B00" stroke-width="3" stroke-linecap="round" stroke-linejoin="round"/>
</svg>
