<svg width="60" height="60" viewBox="0 0 60 60" fill="none" xmlns="http://www.w3.org/2000/svg">
<rect width="60" height="60" rx="18" fill="#FFC2C2"/>
<path d="M23.75 46.25H36.25" stroke="#FF0000" stroke-width="3" stroke-linecap="round" stroke-linejoin="round"/>
<path d="M30 41.25V32.5" stroke="#FF0000" stroke-width="3" stroke-linecap="round" stroke-linejoin="round"/>
<path d="M25 27.5L30 32.5L35 27.5" stroke="#FF0000" stroke-width="3" stroke-linecap="round" stroke-linejoin="round"/>
<path d="M22.2968 36.0934C20.8086 34.9362 19.6034 33.4556 18.7723 31.7637C17.9412 30.0717 17.5061 28.2128 17.4999 26.3277C17.4686 19.5465 22.9218 13.9059 29.703 13.7496C32.3275 13.6874 34.9049 14.453 37.0698 15.938C39.2347 17.4229 40.8771 19.5518 41.7641 22.0226C42.6511 24.4934 42.7377 27.1808 42.0116 29.7036C41.2854 32.2264 39.7835 34.4565 37.7186 36.0777C37.2625 36.4303 36.8931 36.8825 36.6385 37.3997C36.3839 37.917 36.251 38.4856 36.2499 39.0621V39.9996C36.2499 40.3311 36.1182 40.6491 35.8838 40.8835C35.6494 41.1179 35.3314 41.2496 34.9999 41.2496H24.9999C24.6684 41.2496 24.3504 41.1179 24.116 40.8835C23.8816 40.6491 23.7499 40.3311 23.7499 39.9996V39.0621C23.746 38.4899 23.6133 37.926 23.3618 37.4121C23.1102 36.8981 22.7462 36.4474 22.2968 36.0934V36.0934Z" stroke="#FF0000" stroke-width="3" stroke-linecap="round" stroke-linejoin="round"/>
</svg>
