<svg width="61" height="60" viewBox="0 0 61 60" fill="none" xmlns="http://www.w3.org/2000/svg">
<rect x="0.600098" width="60" height="60" rx="18" fill="#C2D8DA"/>
<path d="M28.7251 35C30.451 35 31.8501 33.6009 31.8501 31.875C31.8501 30.1491 30.451 28.75 28.7251 28.75C26.9992 28.75 25.6001 30.1491 25.6001 31.875C25.6001 33.6009 26.9992 35 28.7251 35Z" stroke="#005D63" stroke-width="3" stroke-linecap="round" stroke-linejoin="round"/>
<path d="M15.6001 45L26.522 34.0781" stroke="#005D63" stroke-width="3" stroke-linecap="round" stroke-linejoin="round"/>
<path d="M15.6001 45L37.397 41.375C37.6121 41.3383 37.8137 41.2452 37.9811 41.1052C38.1485 40.9652 38.2759 40.7834 38.3501 40.5781L41.8501 31.25L29.3501 18.75L20.022 22.25C19.8164 22.3283 19.6348 22.4588 19.4951 22.6287C19.3553 22.7986 19.2623 23.0019 19.2251 23.2187L15.6001 45Z" stroke="#005D63" stroke-width="3" stroke-linecap="round" stroke-linejoin="round"/>
<path d="M41.8501 31.2499L45.9595 27.1405C46.0776 27.0242 46.1714 26.8855 46.2354 26.7326C46.2994 26.5797 46.3324 26.4156 46.3324 26.2499C46.3324 26.0841 46.2994 25.92 46.2354 25.7671C46.1714 25.6142 46.0776 25.4755 45.9595 25.3592L35.2407 14.6405C35.1244 14.5224 34.9858 14.4286 34.8329 14.3646C34.68 14.3005 34.5159 14.2676 34.3501 14.2676C34.1843 14.2676 34.0202 14.3005 33.8673 14.3646C33.7144 14.4286 33.5758 14.5224 33.4595 14.6405L29.3501 18.7499" stroke="#005D63" stroke-width="3" stroke-linecap="round" stroke-linejoin="round"/>
</svg>
