<svg xmlns="http://www.w3.org/2000/svg" width="749" height="822" viewBox="0 0 749 822">
    <g fill="none" fill-rule="evenodd" opacity=".5">
        <path fill="#EAEAEA" d="M449.375 605.376L449.375 691.858 524.272 648.616 524.272 562.135z"/>
        <path fill="#F5F5F5" d="M449.375 691.859L374.479 648.617 374.479 562.136 449.375 605.376z"/>
        <path fill="#E5E5E5" d="M524.271 562.135L449.375 518.894 374.48 562.135 449.375 605.375z"/>
        <path fill="#EAEAEA" d="M599.167 605.376L599.167 691.858 674.062 648.616 674.062 562.135z"/>
        <path fill="#F5F5F5" d="M599.167 691.859L524.271 648.617 524.271 562.136 599.167 605.376z"/>
        <path fill="#E5E5E5" d="M674.062 562.135L599.167 518.894 524.272 562.135 599.167 605.375z"/>
        <path fill="#EAEAEA" d="M374.479 475.652L374.479 562.135 449.376 518.894 449.376 432.412z"/>
        <path fill="#F5F5F5" d="M374.479 562.135L299.583 518.894 299.583 432.412 374.479 475.652z"/>
        <path fill="#E5E5E5" d="M449.375 432.411L374.479 389.169 299.584 432.411 374.479 475.652z"/>
        <path fill="#EAEAEA" d="M524.271 475.652L524.271 562.135 599.168 518.894 599.168 432.412z"/>
        <path fill="#F5F5F5" d="M524.271 562.135L449.375 518.894 449.375 432.412 524.271 475.652z"/>
        <path fill="#E5E5E5" d="M599.167 432.411L524.271 389.169 449.376 432.411 524.271 475.652z"/>
        <path fill="#EAEAEA" d="M449.375 345.929L449.375 432.412 524.272 389.17 524.272 302.687z"/>
        <path fill="#F5F5F5" d="M449.375 432.411L374.479 389.169 374.479 302.688 449.375 345.929z"/>
        <path fill="#E5E5E5" d="M524.271 302.688L449.375 259.447 374.48 302.688 449.375 345.93z"/>
        <path fill="#EAEAEA" d="M599.167 345.929L599.167 432.412 674.062 389.17 674.062 302.687z"/>
        <path fill="#F5F5F5" d="M599.167 432.411L524.271 389.169 524.271 302.688 599.167 345.929z"/>
        <path fill="#E5E5E5" d="M674.062 302.688L599.167 259.447 524.272 302.688 599.167 345.93z"/>
        <path fill="#EAEAEA" d="M374.479 216.206L374.479 302.688 449.376 259.447 449.376 172.964z"/>
        <path fill="#F5F5F5" d="M374.479 302.688L299.583 259.447 299.583 172.965 374.479 216.205z"/>
        <path fill="#E5E5E5" d="M449.375 172.964L374.479 129.724 299.584 172.964 374.479 216.206z"/>
        <path fill="#EAEAEA" d="M524.271 216.206L524.271 302.688 599.168 259.447 599.168 172.964z"/>
        <path fill="#F5F5F5" d="M524.271 302.688L449.375 259.447 449.375 172.965 524.271 216.205z"/>
        <path fill="#E5E5E5" d="M599.167 172.964L524.271 129.724 449.376 172.964 524.271 216.206z"/>
        <path fill="#EAEAEA" d="M224.687 475.652L224.687 562.135 299.584 518.894 299.584 432.412z"/>
        <path fill="#F5F5F5" d="M224.687 562.135L149.791 518.894 149.791 432.412 224.687 475.652z"/>
        <path fill="#E5E5E5" d="M299.583 432.411L224.687 389.169 149.792 432.411 224.687 475.652z"/>
        <path fill="#EAEAEA" d="M74.895 475.652L74.895 562.135 149.792 518.894 149.792 432.412z"/>
        <path fill="#E5E5E5" d="M0 432.412L74.895 475.652 149.792 432.412 74.895 389.17z"/>
        <path fill="#EAEAEA" d="M149.791 345.929L149.791 432.412 224.688 389.17 224.688 302.687z"/>
        <path fill="#F5F5F5" d="M149.791 432.411L74.895 389.169 74.895 302.688 149.791 345.929z"/>
        <path fill="#E5E5E5" d="M224.687 302.688L149.791 259.447 74.896 302.688 149.791 345.93z"/>
        <path fill="#EAEAEA" d="M299.583 345.929L299.583 432.412 374.48 389.17 374.48 302.687z"/>
        <path fill="#F5F5F5" d="M299.583 432.411L224.687 389.169 224.687 302.688 299.583 345.929z"/>
        <path fill="#E5E5E5" d="M374.479 302.688L299.583 259.447 224.688 302.688 299.583 345.93z"/>
        <path fill="#EAEAEA" d="M449.375 86.482L449.375 172.964 524.272 129.724 524.272 43.241z"/>
        <path fill="#F5F5F5" d="M449.375 172.964L374.479 129.724 374.479 43.241 449.375 86.482z"/>
        <path fill="#E5E5E5" d="M449.376 0L374.479 43.242 449.376 86.482 524.271 43.242z"/>
        <path fill="#EAEAEA" d="M599.167 86.482L599.167 172.964 674.062 129.724 674.062 43.241z"/>
        <path fill="#F5F5F5" d="M599.167 172.964L524.271 129.724 524.271 43.241 599.167 86.482z"/>
        <path fill="#E5E5E5" d="M599.168 0L524.271 43.242 599.168 86.482 674.061 43.242z"/>
        <path fill="#EAEAEA" d="M149.791 86.482L149.791 172.964 224.688 129.724 224.688 43.241z"/>
        <path fill="#F5F5F5" d="M149.791 172.964L74.895 129.724 74.895 43.241 149.791 86.482z"/>
        <path fill="#E5E5E5" d="M149.792 0L74.895 43.242 149.792 86.482 224.687 43.242z"/>
        <path fill="#EAEAEA" d="M299.583 86.482L299.583 172.964 374.48 129.724 374.48 43.241z"/>
        <path fill="#F5F5F5" d="M299.583 172.964L224.687 129.724 224.687 43.241 299.583 86.482z"/>
        <path fill="#E5E5E5" d="M299.584 0L224.687 43.242 299.584 86.482 374.479 43.242z"/>
        <path fill="#EAEAEA" d="M74.895 216.206L74.895 302.688 149.792 259.447 149.792 172.964z"/>
        <path fill="#E5E5E5" d="M0 172.965L74.895 216.205 149.792 172.965 74.895 129.723z"/>
        <path fill="#EAEAEA" d="M224.687 216.206L224.687 302.688 299.584 259.447 299.584 172.964z"/>
        <path fill="#F5F5F5" d="M224.687 302.688L149.791 259.447 149.791 172.965 224.687 216.205z"/>
        <path fill="#E5E5E5" d="M299.583 172.964L224.687 129.724 149.792 172.964 224.687 216.206z"/>
        <path fill="#EAEAEA" d="M224.687 735.099L224.687 821.58 299.584 778.34 299.584 691.859z"/>
        <path fill="#F5F5F5" d="M149.792 778.34L224.687 821.58 224.687 735.099 149.792 691.859z"/>
        <path fill="#E5E5E5" d="M299.583 691.859L224.687 648.617 149.792 691.859 224.687 735.099z"/>
        <path fill="#EAEAEA" d="M74.895 735.099L74.895 821.58 149.792 778.34 149.792 691.859z"/>
        <path fill="#E5E5E5" d="M0 691.859L74.895 735.099 149.792 691.859 74.895 648.617z"/>
        <path fill="#EAEAEA" d="M374.479 735.099L374.479 821.58 449.376 778.34 449.376 691.859z"/>
        <path fill="#F5F5F5" d="M299.584 778.34L374.479 821.58 374.479 735.099 299.584 691.859z"/>
        <path fill="#E5E5E5" d="M449.375 691.859L374.479 648.617 299.584 691.859 374.479 735.099z"/>
        <path fill="#EAEAEA" d="M524.271 735.099L524.271 821.58 599.168 778.34 599.168 691.859z"/>
        <path fill="#F5F5F5" d="M449.376 778.34L524.271 821.58 524.271 735.099 449.376 691.859z"/>
        <path fill="#E5E5E5" d="M599.167 691.859L524.271 648.617 449.376 691.859 524.271 735.099z"/>
        <path fill="#EAEAEA" d="M674.062 735.099L674.062 821.58 748.958 778.34 748.958 691.859z"/>
        <path fill="#F5F5F5" d="M599.168 778.34L674.061 821.58 674.061 735.099 599.168 691.859z"/>
        <path fill="#E5E5E5" d="M599.168 691.859L674.061 735.099 748.958 691.859 674.061 648.617z"/>
        <path fill="#EAEAEA" d="M674.062 475.652L674.062 562.135 748.958 518.893 748.958 432.412z"/>
        <path fill="#F5F5F5" d="M674.062 562.135L599.167 518.893 599.167 432.412 674.062 475.652z"/>
        <path fill="#E5E5E5" d="M599.168 432.412L674.061 475.652 748.958 432.412 674.061 389.17z"/>
        <path fill="#EAEAEA" d="M674.062 216.205L674.062 302.688 748.958 259.447 748.958 172.965z"/>
        <path fill="#F5F5F5" d="M674.062 302.688L599.167 259.446 599.167 172.965 674.062 216.205z"/>
        <path fill="#E5E5E5" d="M599.168 172.965L674.061 216.205 748.958 172.965 674.061 129.723z"/>
        <path fill="#EAEAEA" d="M149.791 605.376L149.791 691.858 224.688 648.616 224.688 562.135z"/>
        <path fill="#F5F5F5" d="M149.791 691.859L74.895 648.617 74.895 562.136 149.791 605.376z"/>
        <path fill="#E5E5E5" d="M224.687 562.135L149.791 518.894 74.896 562.135 149.791 605.375z"/>
        <path fill="#EAEAEA" d="M299.583 605.376L299.583 691.858 374.48 648.616 374.48 562.135z"/>
        <path fill="#F5F5F5" d="M299.583 691.859L224.687 648.617 224.687 562.136 299.583 605.376z"/>
        <path fill="#E5E5E5" d="M374.479 562.135L299.583 518.894 224.688 562.135 299.583 605.375z"/>
    </g>
</svg>
