<svg width="15" height="12" viewBox="0 0 15 12" fill="none" xmlns="http://www.w3.org/2000/svg">
    <path fill-rule="evenodd" clip-rule="evenodd" d="M13.5937 0.535156C13.9843 0.535156 14.3164 0.671875 14.5898 0.945312C14.8632 1.21875 15 1.55078 15 1.9414V10.3789C15 10.7695 14.8632 11.1015 14.5898 11.375C14.3164 11.6484 13.9843 11.7851 13.5937 11.7851H1.40625C1.01562 11.7851 0.683592 11.6484 0.410155 11.375C0.136719 11.1015 0 10.7695 0 10.3789V1.9414C0 1.55078 0.136719 1.21875 0.410155 0.945312C0.683592 0.671875 1.01562 0.535156 1.40625 0.535156H13.5937ZM13.5937 1.9414H1.40625V3.14257C2.08984 3.68945 3.40819 4.7246 5.36132 6.24803L5.62499 6.48241C6.01561 6.81444 6.32811 7.04881 6.56248 7.18553C6.93358 7.43944 7.24608 7.56639 7.49998 7.56639C7.75389 7.56639 8.06639 7.43944 8.43748 7.18553C8.67185 7.04881 8.98435 6.81444 9.37498 6.48241L9.63865 6.24803C11.5918 4.74413 12.9101 3.70898 13.5937 3.14257V1.9414ZM13.5937 10.3789H1.40625V4.92968L4.77538 7.62498C5.28319 8.03514 5.68358 8.32811 5.97655 8.50389C6.52342 8.81639 7.03123 8.97264 7.49998 8.97264C7.96873 8.97264 8.46678 8.81639 8.99412 8.50389C9.30662 8.32811 9.70701 8.03514 10.1953 7.62498L13.5937 4.92968V10.3789Z" fill="#FFFFFF"/>
</svg>
