<svg width="32" height="32" viewBox="0 0 32 32" fill="none" xmlns="http://www.w3.org/2000/svg">
<rect width="32" height="32" rx="8" fill="white" fill-opacity="0.2"/>
<path d="M16 8.33301C11.58 8.33301 8 11.853 8 16.194C8 19.668 10.292 22.614 13.47 23.652C13.87 23.726 14.017 23.483 14.017 23.274C14.017 23.087 14.01 22.593 14.007 21.938C11.782 22.412 11.312 20.883 11.312 20.883C10.948 19.976 10.422 19.733 10.422 19.733C9.697 19.246 10.478 19.255 10.478 19.255C11.281 19.31 11.703 20.065 11.703 20.065C12.416 21.267 13.576 20.92 14.033 20.719C14.105 20.211 14.311 19.864 14.54 19.668C12.763 19.471 10.896 18.795 10.896 15.783C10.896 14.925 11.206 14.224 11.719 13.674C11.629 13.476 11.359 12.676 11.789 11.593C11.789 11.593 12.459 11.382 13.989 12.399C14.629 12.224 15.309 12.138 15.989 12.134C16.669 12.138 17.349 12.224 17.989 12.399C19.509 11.382 20.179 11.593 20.179 11.593C20.609 12.676 20.339 13.475 20.259 13.674C20.769 14.224 21.079 14.925 21.079 15.783C21.079 18.803 19.209 19.468 17.429 19.661C17.709 19.897 17.969 20.379 17.969 21.115C17.969 22.167 17.959 23.012 17.959 23.268C17.959 23.474 18.099 23.72 18.509 23.641C21.71 22.611 24 19.663 24 16.195C24 11.853 20.418 8.33301 16 8.33301Z" fill="white"/>
</svg>
