<svg xmlns="http://www.w3.org/2000/svg" width="40" height="40" viewBox="0 0 40 40">
    <g fill="none" fill-rule="evenodd">
        <rect width="40" height="40" fill="#4E5DF6" rx="10"/>
        <g fill="#FFF">
            <path d="M16.364 12.273l3.636.909v-.664zM20 28.636l-2.98-.13-4.775-1.119c-1.196-.28-2.035-1.281-2.035-2.43V11.493l-2.028-.128v14.363c0 1.342 1.042 2.446 2.362 2.503l9.456.406zM19.843 29.539l.314.013zM23.636 12.273L20 12.518v.664zM30.681 11.492v13.47c0 1.148-.846 2.149-2.053 2.43L23.81 28.51l-2.902.126 9.435-.402a2.498 2.498 0 0 0 2.383-2.503V11.364l-2.046.128zM20.91 29.536l-.91.019.91-.018z"/>
            <path d="M20.077 26.943c-1.747 0-3.162-1.332-3.162-2.974 0-.174.016-.345.046-.512.177-.028.36-.044.545-.044 1.501 0 2.756.985 3.079 2.305v-2.675c-.166.025-.335.04-.508.04-1.747 0-3.162-1.331-3.162-2.973 0-.175.016-.346.046-.513a3.38 3.38 0 0 1 .545-.044c1.501 0 2.756.985 3.079 2.304v-2.415c-.141.022-.285.034-.432.034-1.442 0-2.61-1.098-2.61-2.454 0-.144.013-.285.038-.422.146-.024.297-.037.45-.037 1.257 0 2.306.836 2.554 1.949v-1.583a2.217 2.217 0 0 1 .066-3.208c.082-.076.169-.145.258-.208v-.77l-8.182-2.288v14.094c0 1.11.68 2.08 1.649 2.35l6.209 1.737v-1.733c-.166.025-.335.04-.508.04"/>
            <path d="M20 12.747v.768l.064-.047c.114.076.223.162.326.259.947.892.96 2.328.043 3.238v1.46c.287-1.064 1.308-1.851 2.526-1.851.154 0 .304.012.45.036.025.137.039.279.039.423 0 1.358-1.169 2.458-2.61 2.458-.138 0-.273-.011-.405-.03v2.415c.323-1.321 1.577-2.307 3.078-2.307.186 0 .368.015.545.044.03.166.047.338.047.513 0 1.644-1.416 2.978-3.162 2.978a3.36 3.36 0 0 1-.508-.04v2.679c.323-1.322 1.577-2.308 3.078-2.308.186 0 .368.015.545.044.03.167.047.338.047.513 0 1.645-1.416 2.978-3.162 2.978a3.36 3.36 0 0 1-.508-.04v1.706l6.1-1.71c.97-.27 1.649-1.241 1.649-2.354V10.455L20 12.747z"/>
        </g>
    </g>
</svg>
