<svg xmlns="http://www.w3.org/2000/svg" width="40" height="40" viewBox="0 0 40 40">
    <g fill="none" fill-rule="nonzero">
        <rect width="40" height="40" fill="#232426" rx="10"/>
        <path fill="#FFF" d="M20.872 31.5a.874.874 0 0 1-.135-1.739 10.24 10.24 0 0 0 8.527-8.524.874.874 0 0 1 1.725.275 11.984 11.984 0 0 1-9.979 9.977.912.912 0 0 1-.138.011m-8.657-2a.75.75 0 0 1-.515-.208C9.348 27.09 8 23.9 8 20.542c0-1.559.29-3.082.86-4.527.17-.429.629-.63 1.03-.447.398.182.584.678.415 1.107a10.49 10.49 0 0 0-.735 3.866c0 2.87 1.152 5.596 3.16 7.479.328.306.362.84.077 1.19a.76.76 0 0 1-.592.29m15.927-15a.86.86 0 0 1-.686-.338c-1.921-2.52-4.858-3.966-8.057-3.966-1.115 0-2.212.181-3.262.537a.86.86 0 0 1-1.09-.527.846.846 0 0 1 .533-1.077c1.23-.417 2.52-.63 3.82-.629 3.742 0 7.178 1.692 9.427 4.642a.842.842 0 0 1-.17 1.187.86.86 0 0 1-.515.171"/>
        <path fill="#69C2AB" d="M17 10a1.5 1.5 0 1 1-3 0 1.5 1.5 0 0 1 3 0m15 11a1.5 1.5 0 1 1-3 0 1.5 1.5 0 0 1 3 0m-17 8a1.5 1.5 0 1 1-3 0 1.5 1.5 0 0 1 3 0"/>
        <path fill="#FFF" d="M22.192 20.207l-.01-.004c-.086 1.224-1.026 2.194-2.182 2.194-1.213 0-2.199-1.064-2.199-2.373 0-.578.2-1.102.52-1.514l-2.606-3.01C14.655 16.669 14 18.265 14 20.024c0 3.57 2.692 6.476 6 6.476s6-2.905 6-6.476c0-.269-.02-.533-.05-.794l-3.758.977z"/>
        <path fill="#58C0A8" d="M16 15.097l4.103 4.403L26 18.14a6.054 6.054 0 0 0-5.897-4.64c-1.583 0-3.022.61-4.103 1.597"/>
        <path fill="#A2D7C8" d="M19.64 19.5l2.36-.453c-.25-.885-1.209-1.547-2.36-1.547a2.71 2.71 0 0 0-1.64.535l1.64 1.465z"/>
    </g>
</svg>
