<svg xmlns="http://www.w3.org/2000/svg" xmlns:xlink="http://www.w3.org/1999/xlink" width="40" height="40" viewBox="0 0 40 40">
    <defs>
        <path id="a" d="M0 0h12v16H0z"/>
    </defs>
    <g fill="none" fill-rule="evenodd">
        <rect width="40" height="40" fill="#009798" rx="10"/>
        <g transform="translate(14 12)">
            <mask id="b" fill="#fff">
                <use xlink:href="#a"/>
            </mask>
            <path fill="#FFF" d="M.315 15.439v-3.046c1.74.546 3.294.819 4.661.819 1.866 0 2.798-.487 2.798-1.46 0-.363-.133-.668-.396-.915-.28-.262-.995-.625-2.148-1.09-2.048-.828-3.39-1.539-4.02-2.134C.404 6.843 0 5.86 0 4.662c0-1.518.587-2.677 1.765-3.475C2.926.395 4.443 0 6.312 0c1.05 0 2.412.165 4.082.496l.386.066v2.93c-1.45-.573-2.801-.858-4.051-.858-1.745 0-2.616.474-2.616 1.426 0 .356.176.646.528.871.28.176 1.093.56 2.438 1.156 1.892.835 3.157 1.562 3.795 2.18.751.732 1.126 1.68 1.126 2.843 0 1.67-.732 2.945-2.195 3.823C8.606 15.645 7.057 16 5.16 16c-1.605 0-3.22-.186-4.845-.561" mask="url(#b)"/>
        </g>
    </g>
</svg>
