<svg width="386" height="453" viewBox="0 0 386 453" fill="none" xmlns="http://www.w3.org/2000/svg">
<path d="M53.8003 189.889C70.8855 189.889 87.8033 193.254 103.588 199.793C119.372 206.332 133.714 215.917 145.793 227.999C157.873 240.081 167.455 254.425 173.99 270.211C180.526 285.996 183.888 302.915 183.885 320" stroke="black" stroke-width="2.8" stroke-miterlimit="10"/>
<circle cx="190" cy="190" r="159" stroke="#E7E9EE" stroke-width="2"/>
<rect y="152.977" width="60" height="60" rx="16" fill="#CCE0FF"/>
<path d="M37.6359 169.208C36.2563 168.074 34.6409 167.262 32.9074 166.831C31.1739 166.4 29.3661 166.362 27.6159 166.718C25.2855 167.189 23.1474 168.342 21.4729 170.029C19.7985 171.717 18.6631 173.864 18.2109 176.198C17.8807 177.949 17.9407 179.75 18.3866 181.474C18.8326 183.198 19.6535 184.803 20.7909 186.173C21.8464 187.365 22.4514 188.888 22.5009 190.478V194.978C22.5009 196.172 22.975 197.317 23.8189 198.16C24.6628 199.004 25.8074 199.478 27.0009 199.478H33.0009C34.1944 199.478 35.339 199.004 36.1829 198.16C37.0268 197.317 37.5009 196.172 37.5009 194.978V190.763C37.5512 189.007 38.1965 187.32 39.3309 185.978C41.3186 183.52 42.2555 180.376 41.9381 177.23C41.6208 174.084 40.0747 171.191 37.6359 169.178V169.208ZM34.5009 194.978C34.5009 195.376 34.3429 195.758 34.0615 196.039C33.7802 196.32 33.3987 196.478 33.0009 196.478H27.0009C26.6031 196.478 26.2215 196.32 25.9402 196.039C25.6589 195.758 25.5009 195.376 25.5009 194.978V193.478H34.5009V194.978ZM37.0059 184.118C35.4976 185.907 34.6177 188.142 34.5009 190.478H31.5009V185.978C31.5009 185.581 31.3429 185.199 31.0615 184.918C30.7802 184.637 30.3987 184.478 30.0009 184.478C29.6031 184.478 29.2215 184.637 28.9402 184.918C28.6589 185.199 28.5009 185.581 28.5009 185.978V190.478H25.5009C25.4613 188.181 24.6113 185.971 23.1009 184.238C22.1044 183.044 21.4342 181.613 21.1559 180.083C20.8775 178.552 21.0004 176.976 21.5125 175.508C22.0247 174.039 22.9086 172.729 24.0782 171.703C25.2477 170.678 26.663 169.974 28.1859 169.658C29.4947 169.389 30.8471 169.414 32.1449 169.733C33.4428 170.051 34.6534 170.654 35.689 171.499C36.7245 172.343 37.559 173.408 38.1319 174.615C38.7048 175.823 39.0016 177.142 39.0009 178.478C39.012 180.533 38.3065 182.528 37.0059 184.118V184.118Z" fill="#2467F6"/>
<rect x="320" y="152.977" width="60" height="60" rx="16" fill="#FFE1CC"/>
<path d="M365 187.477H362V182.977C362 182.579 361.842 182.197 361.561 181.916C361.279 181.635 360.898 181.477 360.5 181.477H351.5V178.477H354.5C354.898 178.477 355.279 178.319 355.561 178.037C355.842 177.756 356 177.374 356 176.977V167.977C356 167.579 355.842 167.197 355.561 166.916C355.279 166.635 354.898 166.477 354.5 166.477H345.5C345.102 166.477 344.721 166.635 344.439 166.916C344.158 167.197 344 167.579 344 167.977V176.977C344 177.374 344.158 177.756 344.439 178.037C344.721 178.319 345.102 178.477 345.5 178.477H348.5V181.477H339.5C339.102 181.477 338.721 181.635 338.439 181.916C338.158 182.197 338 182.579 338 182.977V187.477H335C334.602 187.477 334.221 187.635 333.939 187.916C333.658 188.197 333.5 188.579 333.5 188.977V197.977C333.5 198.374 333.658 198.756 333.939 199.037C334.221 199.319 334.602 199.477 335 199.477H344C344.398 199.477 344.779 199.319 345.061 199.037C345.342 198.756 345.5 198.374 345.5 197.977V188.977C345.5 188.579 345.342 188.197 345.061 187.916C344.779 187.635 344.398 187.477 344 187.477H341V184.477H359V187.477H356C355.602 187.477 355.221 187.635 354.939 187.916C354.658 188.197 354.5 188.579 354.5 188.977V197.977C354.5 198.374 354.658 198.756 354.939 199.037C355.221 199.319 355.602 199.477 356 199.477H365C365.398 199.477 365.779 199.319 366.061 199.037C366.342 198.756 366.5 198.374 366.5 197.977V188.977C366.5 188.579 366.342 188.197 366.061 187.916C365.779 187.635 365.398 187.477 365 187.477ZM342.5 190.477V196.477H336.5V190.477H342.5ZM347 175.477V169.477H353V175.477H347ZM363.5 196.477H357.5V190.477H363.5V196.477Z" fill="#FF6B00"/>
<rect x="155.918" width="60" height="60" rx="16" fill="#E2CCFF"/>
<path d="M200.449 35.3641L193.669 28.5991C193.811 27.9082 193.881 27.2044 193.879 26.4991C193.878 24.5651 193.39 22.6624 192.46 20.9669C191.529 19.2714 190.186 17.8379 188.555 16.7988C186.924 15.7597 185.057 15.1486 183.127 15.0219C181.197 14.8952 179.267 15.2571 177.514 16.0741C177.292 16.1755 177.098 16.3297 176.949 16.5231C176.8 16.7166 176.7 16.9435 176.659 17.1841C176.617 17.4217 176.634 17.6657 176.707 17.8955C176.78 18.1253 176.908 18.334 177.079 18.5041L183.604 25.0141L180.904 27.7141L174.394 21.1891C174.222 21.0208 174.013 20.8962 173.783 20.8257C173.553 20.7552 173.31 20.7409 173.074 20.7841C172.835 20.824 172.609 20.9212 172.415 21.0675C172.222 21.2138 172.067 21.4048 171.964 21.6241C171.144 23.3828 170.782 25.3204 170.913 27.2564C171.043 29.1924 171.661 31.0641 172.708 32.6972C173.756 34.3304 175.2 35.6719 176.906 36.5972C178.611 37.5224 180.523 38.0012 182.464 37.9891C183.169 37.9914 183.873 37.921 184.564 37.7791L191.329 44.5591C191.468 44.6997 191.634 44.8113 191.817 44.8874C192 44.9636 192.196 45.0028 192.394 45.0028C192.592 45.0028 192.788 44.9636 192.971 44.8874C193.153 44.8113 193.319 44.6997 193.459 44.5591C193.599 44.4196 193.711 44.2537 193.787 44.071C193.863 43.8882 193.902 43.6921 193.902 43.4941C193.902 43.2961 193.863 43.1 193.787 42.9172C193.711 42.7344 193.599 42.5685 193.459 42.4291L186.109 35.0791C185.925 34.8966 185.697 34.7648 185.448 34.6965C185.198 34.6281 184.935 34.6256 184.684 34.6891C183.959 34.883 183.213 34.9839 182.464 34.9891C181.342 34.999 180.229 34.7868 179.189 34.3648C178.15 33.9427 177.204 33.3191 176.407 32.53C175.609 31.7408 174.976 30.8017 174.543 29.7666C174.11 28.7316 173.886 27.6211 173.884 26.4991C173.882 25.9966 173.922 25.4949 174.004 24.9991L179.884 30.8941C180.023 31.0347 180.189 31.1463 180.372 31.2224C180.555 31.2986 180.751 31.3378 180.949 31.3378C181.147 31.3378 181.343 31.2986 181.526 31.2224C181.708 31.1463 181.874 31.0347 182.014 30.8941L186.784 26.0791C187.054 25.7994 187.205 25.4256 187.205 25.0366C187.205 24.6476 187.054 24.2738 186.784 23.9941L180.949 18.1141C181.445 18.0331 181.946 17.993 182.449 17.9941C184.702 17.9981 186.861 18.8959 188.453 20.4904C190.045 22.085 190.939 24.246 190.939 26.4991C190.933 27.2488 190.833 27.9948 190.639 28.7191C190.575 28.9701 190.578 29.2332 190.646 29.4829C190.714 29.7326 190.846 29.9604 191.029 30.1441L198.379 37.4941C198.661 37.7765 199.044 37.9352 199.444 37.9352C199.843 37.9352 200.226 37.7765 200.509 37.4941C200.791 37.2116 200.95 36.8285 200.95 36.4291C200.95 36.0296 200.791 35.6465 200.509 35.3641H200.449Z" fill="#7000FF"/>
<rect x="155.918" y="320" width="60" height="60" rx="16" fill="#FFF1CD"/>
<path d="M198.188 347.285C197.109 347.09 196.015 346.994 194.918 347C194.288 347 193.673 347 193.058 347.12C192.293 346.098 191.315 345.254 190.193 344.645C191.157 343.592 191.692 342.217 191.693 340.79C191.693 339.254 191.083 337.782 189.997 336.696C188.911 335.61 187.439 335 185.903 335C184.368 335 182.895 335.61 181.809 336.696C180.723 337.782 180.113 339.254 180.113 340.79C180.114 342.217 180.649 343.592 181.613 344.645C180.498 345.257 179.522 346.095 178.748 347.105C178.163 347 177.548 347 176.918 347C175.821 347.004 174.726 347.11 173.648 347.315C173.299 347.379 172.983 347.565 172.758 347.839C172.533 348.114 172.412 348.46 172.418 348.815V361.19C172.418 361.41 172.466 361.628 172.559 361.828C172.653 362.027 172.789 362.204 172.958 362.345C173.126 362.487 173.324 362.59 173.536 362.647C173.749 362.704 173.971 362.714 174.188 362.675C175.086 362.48 176 362.369 176.918 362.345C179.824 362.342 182.666 363.192 185.093 364.79V364.79L185.288 364.865C185.487 364.951 185.701 364.997 185.918 365C186.061 364.998 186.203 364.973 186.338 364.925H186.443L186.638 364.85C189.088 363.211 191.971 362.339 194.918 362.345C195.835 362.349 196.749 362.44 197.648 362.615C197.865 362.654 198.087 362.644 198.3 362.587C198.512 362.53 198.71 362.427 198.878 362.285C199.047 362.144 199.184 361.967 199.277 361.768C199.37 361.568 199.419 361.35 199.418 361.13V348.755C199.417 348.405 199.293 348.066 199.069 347.798C198.844 347.529 198.532 347.348 198.188 347.285V347.285ZM185.918 338C186.621 338.052 187.278 338.367 187.758 338.883C188.237 339.399 188.504 340.078 188.504 340.783C188.504 341.487 188.237 342.166 187.758 342.682C187.278 343.198 186.621 343.513 185.918 343.565V343.565C185.215 343.513 184.558 343.198 184.079 342.682C183.599 342.166 183.333 341.487 183.333 340.783C183.333 340.078 183.599 339.399 184.079 338.883C184.558 338.367 185.215 338.052 185.918 338V338ZM184.418 360.995C182.067 359.908 179.508 359.345 176.918 359.345C176.423 359.345 175.928 359.345 175.418 359.42V350C176.676 349.859 177.947 349.885 179.198 350.075H179.363C181.151 350.403 182.863 351.054 184.418 351.995V360.995ZM185.918 349.4C185.251 349.015 184.56 348.674 183.848 348.38H183.758C183.263 348.185 182.768 347.99 182.258 347.84C183.3 347.011 184.587 346.552 185.918 346.535V346.535C187.246 346.543 188.533 346.992 189.578 347.81C188.305 348.208 187.078 348.741 185.918 349.4V349.4ZM196.418 359.42C193.338 359.111 190.231 359.628 187.418 360.92V351.92C188.976 351.003 190.69 350.383 192.473 350.09H192.773C193.979 349.902 195.204 349.872 196.418 350V359.42Z" fill="#FFB800"/>
<path d="M228.043 335.838L222.106 345.469L231.737 351.406" stroke="#E7E9EE" stroke-width="2" stroke-linecap="round" stroke-linejoin="round"/>
<path d="M175.885 310.219L183.885 318.219L191.885 310.219" stroke="black" stroke-width="2" stroke-linecap="round" stroke-linejoin="round"/>
<path d="M13.3828 241.977H11.4609V226.859H13.3828V241.977ZM24.668 236.574C24.668 235.996 24.5742 235.473 24.3867 235.004C24.207 234.535 23.9648 234.133 23.6602 233.797C23.3555 233.461 22.9961 233.203 22.582 233.023C22.1758 232.836 21.75 232.742 21.3047 232.742C20.8594 232.742 20.4297 232.836 20.0156 233.023C19.6094 233.203 19.2539 233.461 18.9492 233.797C18.6445 234.133 18.3984 234.535 18.2109 235.004C18.0312 235.473 17.9414 235.996 17.9414 236.574C17.9414 237.152 18.0312 237.68 18.2109 238.156C18.3984 238.625 18.6445 239.027 18.9492 239.363C19.2539 239.699 19.6094 239.961 20.0156 240.148C20.4297 240.328 20.8594 240.418 21.3047 240.418C21.75 240.418 22.1758 240.328 22.582 240.148C22.9961 239.961 23.3555 239.699 23.6602 239.363C23.9648 239.027 24.207 238.625 24.3867 238.156C24.5742 237.68 24.668 237.152 24.668 236.574ZM24.4219 240.781C24.1797 241.039 23.9102 241.262 23.6133 241.449C23.3398 241.629 23 241.781 22.5938 241.906C22.1953 242.031 21.7266 242.094 21.1875 242.094C20.5 242.094 19.8477 241.961 19.2305 241.695C18.6133 241.422 18.0742 241.043 17.6133 240.559C17.1602 240.066 16.8008 239.484 16.5352 238.812C16.2773 238.141 16.1484 237.395 16.1484 236.574C16.1484 235.762 16.2773 235.02 16.5352 234.348C16.8008 233.676 17.1602 233.098 17.6133 232.613C18.0742 232.121 18.6133 231.738 19.2305 231.465C19.8477 231.191 20.5 231.055 21.1875 231.055C21.7344 231.055 22.207 231.133 22.6055 231.289C23.0039 231.438 23.3398 231.602 23.6133 231.781C23.918 231.992 24.1875 232.23 24.4219 232.496V226.859H26.2266V241.977H24.9023L24.4219 240.781ZM38.2383 239.094C38.0586 239.477 37.832 239.855 37.5586 240.23C37.2852 240.598 36.9648 240.918 36.5977 241.191C36.2305 241.457 35.8125 241.676 35.3438 241.848C34.8828 242.012 34.3672 242.094 33.7969 242.094C33.1094 242.094 32.457 241.961 31.8398 241.695C31.2227 241.422 30.6836 241.043 30.2227 240.559C29.7695 240.066 29.4102 239.484 29.1445 238.812C28.8867 238.141 28.7578 237.395 28.7578 236.574C28.7578 235.762 28.8867 235.02 29.1445 234.348C29.4102 233.676 29.7656 233.098 30.2109 232.613C30.6641 232.121 31.1914 231.738 31.793 231.465C32.3945 231.191 33.0234 231.055 33.6797 231.055C34.3359 231.055 34.9531 231.184 35.5312 231.441C36.1172 231.699 36.625 232.066 37.0547 232.543C37.4922 233.012 37.8359 233.578 38.0859 234.242C38.3438 234.906 38.4727 235.645 38.4727 236.457C38.4727 236.613 38.4648 236.75 38.4492 236.867C38.4336 236.977 38.418 237.07 38.4023 237.148C38.3867 237.242 38.3711 237.332 38.3555 237.418H30.6797C30.7109 237.801 30.8164 238.176 30.9961 238.543C31.1836 238.91 31.4141 239.23 31.6875 239.504C31.9688 239.777 32.293 240 32.6602 240.172C33.0352 240.336 33.4141 240.418 33.7969 240.418C34.1328 240.418 34.4297 240.371 34.6875 240.277C34.9531 240.176 35.1953 240.062 35.4141 239.938C35.6328 239.812 35.8125 239.676 35.9531 239.527C36.1016 239.371 36.2227 239.227 36.3164 239.094H38.2383ZM33.6797 232.742C33.3125 232.742 32.9609 232.82 32.625 232.977C32.2969 233.133 31.9961 233.348 31.7227 233.621C31.457 233.895 31.2305 234.223 31.043 234.605C30.8633 234.988 30.7422 235.406 30.6797 235.859H36.5508C36.4258 234.898 36.0938 234.141 35.5547 233.586C35.0234 233.023 34.3984 232.742 33.6797 232.742ZM44.9414 231.055C45.5352 231.055 46.082 231.156 46.582 231.359C47.0898 231.555 47.5234 231.82 47.8828 232.156C48.2422 232.492 48.5195 232.887 48.7148 233.34C48.918 233.785 49.0195 234.266 49.0195 234.781V241.977H47.707L47.2266 240.781C46.9844 241.039 46.7109 241.262 46.4062 241.449C46.1328 241.629 45.7969 241.781 45.3984 241.906C45 242.031 44.5273 242.094 43.9805 242.094C43.4336 242.094 42.9414 242.012 42.5039 241.848C42.0664 241.676 41.6914 241.441 41.3789 241.145C41.0664 240.848 40.8203 240.504 40.6406 240.113C40.4688 239.723 40.3828 239.305 40.3828 238.859C40.3828 238.344 40.4844 237.875 40.6875 237.453C40.8984 237.031 41.2578 236.664 41.7656 236.352C42.2812 236.039 42.9844 235.801 43.875 235.637C44.7656 235.465 45.8828 235.379 47.2266 235.379V234.781C47.2266 234.234 47.0117 233.758 46.582 233.352C46.1602 232.945 45.6133 232.742 44.9414 232.742C44.2695 232.742 43.7734 232.883 43.4531 233.164C43.1328 233.438 42.9102 233.816 42.7852 234.301H40.8633C40.9258 233.855 41.0625 233.438 41.2734 233.047C41.4844 232.648 41.7617 232.301 42.1055 232.004C42.4492 231.707 42.8555 231.477 43.3242 231.312C43.793 231.141 44.332 231.055 44.9414 231.055ZM43.9805 240.418C44.457 240.418 44.8945 240.344 45.293 240.195C45.6992 240.039 46.043 239.844 46.3242 239.609C46.6055 239.367 46.8242 239.098 46.9805 238.801C47.1445 238.504 47.2266 238.203 47.2266 237.898V237.055C46.1406 237.055 45.2695 237.102 44.6133 237.195C43.957 237.281 43.4453 237.41 43.0781 237.582C42.7188 237.746 42.4805 237.945 42.3633 238.18C42.2461 238.406 42.1875 238.672 42.1875 238.977C42.1875 239.344 42.3477 239.676 42.668 239.973C42.9961 240.27 43.4336 240.418 43.9805 240.418Z" fill="black"/>
<path d="M171.938 80.9609C172.353 81.1719 172.731 81.4453 173.075 81.7812C173.364 82.0703 173.626 82.4531 173.86 82.9297C174.103 83.4062 174.224 83.9883 174.224 84.6758C174.224 85.2383 174.103 85.7812 173.86 86.3047C173.626 86.8203 173.29 87.2812 172.853 87.6875C172.423 88.0859 171.915 88.4062 171.329 88.6484C170.743 88.8828 170.106 89 169.419 89H163.665V73.8828H169.302C169.927 73.8828 170.501 73.9883 171.024 74.1992C171.556 74.4023 172.013 74.6875 172.396 75.0547C172.778 75.4219 173.079 75.8555 173.298 76.3555C173.517 76.8477 173.626 77.3828 173.626 77.9609C173.626 78.5078 173.536 78.9688 173.356 79.3438C173.185 79.7188 172.993 80.0273 172.782 80.2695C172.524 80.5508 172.243 80.7812 171.938 80.9609ZM165.587 80.2344H169.302C169.653 80.2344 169.985 80.1719 170.298 80.0469C170.61 79.9219 170.876 79.7539 171.095 79.543C171.321 79.332 171.497 79.0938 171.622 78.8281C171.755 78.5547 171.821 78.2656 171.821 77.9609C171.821 77.625 171.755 77.3125 171.622 77.0234C171.497 76.7344 171.321 76.4844 171.095 76.2734C170.876 76.0547 170.61 75.8828 170.298 75.7578C169.985 75.625 169.653 75.5586 169.302 75.5586H165.587V80.2344ZM169.419 87.3242C170.271 87.3242 170.962 87.0586 171.493 86.5273C172.032 85.9961 172.302 85.3398 172.302 84.5586C172.302 84.207 172.228 83.8711 172.079 83.5508C171.938 83.2305 171.739 82.9531 171.481 82.7188C171.231 82.4766 170.931 82.2852 170.579 82.1445C170.228 81.9961 169.841 81.9219 169.419 81.9219H165.587V87.3242H169.419ZM180.938 89.1172C180.36 89.1172 179.817 89.0039 179.31 88.7773C178.81 88.543 178.364 88.2227 177.974 87.8164C177.591 87.4023 177.286 86.9102 177.06 86.3398C176.841 85.7617 176.731 85.1289 176.731 84.4414V78.1953H178.536V84.4414C178.536 84.8867 178.603 85.293 178.735 85.6602C178.876 86.0273 179.063 86.3438 179.298 86.6094C179.54 86.875 179.821 87.082 180.142 87.2305C180.462 87.3711 180.806 87.4414 181.173 87.4414C182.024 87.4414 182.716 87.1719 183.247 86.6328C183.786 86.0859 184.056 85.3555 184.056 84.4414V78.1953H185.849V89H184.536L184.056 87.8047C183.829 88.0625 183.563 88.2852 183.259 88.4727C182.985 88.6523 182.657 88.8047 182.274 88.9297C181.899 89.0547 181.454 89.1172 180.938 89.1172ZM190.771 89H188.966V78.1953H190.771V89ZM188.731 75.1484C188.731 74.8125 188.837 74.5391 189.048 74.3281C189.267 74.1094 189.536 74 189.856 74C190.192 74 190.466 74.1094 190.677 74.3281C190.896 74.5391 191.005 74.8125 191.005 75.1484C191.005 75.4688 190.896 75.7383 190.677 75.957C190.466 76.1758 190.192 76.2852 189.856 76.2852C189.536 76.2852 189.267 76.1758 189.048 75.957C188.837 75.7383 188.731 75.4688 188.731 75.1484ZM195.81 89H194.005V73.8828H195.81V89ZM206.849 83.5977C206.849 83.0195 206.755 82.4961 206.567 82.0273C206.388 81.5586 206.146 81.1562 205.841 80.8203C205.536 80.4844 205.177 80.2266 204.763 80.0469C204.356 79.8594 203.931 79.7656 203.485 79.7656C203.04 79.7656 202.61 79.8594 202.196 80.0469C201.79 80.2266 201.435 80.4844 201.13 80.8203C200.825 81.1562 200.579 81.5586 200.392 82.0273C200.212 82.4961 200.122 83.0195 200.122 83.5977C200.122 84.1758 200.212 84.7031 200.392 85.1797C200.579 85.6484 200.825 86.0508 201.13 86.3867C201.435 86.7227 201.79 86.9844 202.196 87.1719C202.61 87.3516 203.04 87.4414 203.485 87.4414C203.931 87.4414 204.356 87.3516 204.763 87.1719C205.177 86.9844 205.536 86.7227 205.841 86.3867C206.146 86.0508 206.388 85.6484 206.567 85.1797C206.755 84.7031 206.849 84.1758 206.849 83.5977ZM206.603 87.8047C206.36 88.0625 206.091 88.2852 205.794 88.4727C205.521 88.6523 205.181 88.8047 204.774 88.9297C204.376 89.0547 203.907 89.1172 203.368 89.1172C202.681 89.1172 202.028 88.9844 201.411 88.7188C200.794 88.4453 200.255 88.0664 199.794 87.582C199.341 87.0898 198.981 86.5078 198.716 85.8359C198.458 85.1641 198.329 84.418 198.329 83.5977C198.329 82.7852 198.458 82.043 198.716 81.3711C198.981 80.6992 199.341 80.1211 199.794 79.6367C200.255 79.1445 200.794 78.7617 201.411 78.4883C202.028 78.2148 202.681 78.0781 203.368 78.0781C203.915 78.0781 204.388 78.1562 204.786 78.3125C205.185 78.4609 205.521 78.625 205.794 78.8047C206.099 79.0156 206.368 79.2539 206.603 79.5195V73.8828H208.407V89H207.083L206.603 87.8047Z" fill="black"/>
<path d="M326.012 240.301V241.977H316.895V226.859H318.816V240.301H326.012ZM331.648 231.055C332.242 231.055 332.789 231.156 333.289 231.359C333.797 231.555 334.23 231.82 334.59 232.156C334.949 232.492 335.227 232.887 335.422 233.34C335.625 233.785 335.727 234.266 335.727 234.781V241.977H334.414L333.934 240.781C333.691 241.039 333.418 241.262 333.113 241.449C332.84 241.629 332.504 241.781 332.105 241.906C331.707 242.031 331.234 242.094 330.688 242.094C330.141 242.094 329.648 242.012 329.211 241.848C328.773 241.676 328.398 241.441 328.086 241.145C327.773 240.848 327.527 240.504 327.348 240.113C327.176 239.723 327.09 239.305 327.09 238.859C327.09 238.344 327.191 237.875 327.395 237.453C327.605 237.031 327.965 236.664 328.473 236.352C328.988 236.039 329.691 235.801 330.582 235.637C331.473 235.465 332.59 235.379 333.934 235.379V234.781C333.934 234.234 333.719 233.758 333.289 233.352C332.867 232.945 332.32 232.742 331.648 232.742C330.977 232.742 330.48 232.883 330.16 233.164C329.84 233.438 329.617 233.816 329.492 234.301H327.57C327.633 233.855 327.77 233.438 327.98 233.047C328.191 232.648 328.469 232.301 328.812 232.004C329.156 231.707 329.562 231.477 330.031 231.312C330.5 231.141 331.039 231.055 331.648 231.055ZM330.688 240.418C331.164 240.418 331.602 240.344 332 240.195C332.406 240.039 332.75 239.844 333.031 239.609C333.312 239.367 333.531 239.098 333.688 238.801C333.852 238.504 333.934 238.203 333.934 237.898V237.055C332.848 237.055 331.977 237.102 331.32 237.195C330.664 237.281 330.152 237.41 329.785 237.582C329.426 237.746 329.188 237.945 329.07 238.18C328.953 238.406 328.895 238.672 328.895 238.977C328.895 239.344 329.055 239.676 329.375 239.973C329.703 240.27 330.141 240.418 330.688 240.418ZM342.934 242.094C342.355 242.094 341.812 241.98 341.305 241.754C340.805 241.52 340.359 241.199 339.969 240.793C339.586 240.379 339.281 239.887 339.055 239.316C338.836 238.738 338.727 238.105 338.727 237.418V231.172H340.531V237.418C340.531 237.863 340.598 238.27 340.73 238.637C340.871 239.004 341.059 239.32 341.293 239.586C341.535 239.852 341.816 240.059 342.137 240.207C342.457 240.348 342.801 240.418 343.168 240.418C344.02 240.418 344.711 240.148 345.242 239.609C345.781 239.062 346.051 238.332 346.051 237.418V231.172H347.844V241.977H346.531L346.051 240.781C345.824 241.039 345.559 241.262 345.254 241.449C344.98 241.629 344.652 241.781 344.27 241.906C343.895 242.031 343.449 242.094 342.934 242.094ZM355.883 231.055C356.461 231.055 357 231.172 357.5 231.406C358.008 231.641 358.453 231.961 358.836 232.367C359.219 232.773 359.52 233.266 359.738 233.844C359.965 234.414 360.078 235.047 360.078 235.742V241.977H358.285V235.742C358.285 235.297 358.211 234.891 358.062 234.523C357.922 234.148 357.73 233.828 357.488 233.562C357.246 233.297 356.965 233.094 356.645 232.953C356.332 232.812 355.996 232.742 355.637 232.742C354.785 232.742 354.094 233.016 353.562 233.562C353.031 234.102 352.766 234.828 352.766 235.742V241.977H350.961V231.172H352.285L352.766 232.379C352.992 232.137 353.254 231.922 353.551 231.734C353.824 231.555 354.152 231.398 354.535 231.266C354.918 231.125 355.367 231.055 355.883 231.055ZM367.402 232.742C366.988 232.742 366.582 232.836 366.184 233.023C365.793 233.203 365.445 233.461 365.141 233.797C364.836 234.133 364.594 234.535 364.414 235.004C364.242 235.473 364.156 235.996 364.156 236.574C364.156 237.152 364.242 237.68 364.414 238.156C364.594 238.625 364.836 239.027 365.141 239.363C365.445 239.699 365.793 239.961 366.184 240.148C366.582 240.328 366.988 240.418 367.402 240.418C367.754 240.418 368.086 240.355 368.398 240.23C368.711 240.098 368.988 239.93 369.23 239.727C369.48 239.516 369.691 239.273 369.863 239C370.043 238.727 370.184 238.438 370.285 238.133H372.078C371.953 238.68 371.754 239.195 371.48 239.68C371.207 240.156 370.867 240.574 370.461 240.934C370.055 241.293 369.59 241.578 369.066 241.789C368.551 241.992 367.996 242.094 367.402 242.094C366.715 242.094 366.062 241.961 365.445 241.695C364.828 241.422 364.289 241.043 363.828 240.559C363.375 240.066 363.016 239.484 362.75 238.812C362.492 238.141 362.363 237.395 362.363 236.574C362.363 235.762 362.492 235.02 362.75 234.348C363.016 233.676 363.375 233.098 363.828 232.613C364.289 232.121 364.828 231.738 365.445 231.465C366.062 231.191 366.715 231.055 367.402 231.055C367.996 231.055 368.551 231.16 369.066 231.371C369.59 231.574 370.055 231.859 370.461 232.227C370.867 232.586 371.207 233.004 371.48 233.48C371.754 233.957 371.953 234.469 372.078 235.016H370.285C370.191 234.711 370.055 234.426 369.875 234.16C369.695 233.887 369.48 233.645 369.23 233.434C368.988 233.223 368.711 233.055 368.398 232.93C368.086 232.805 367.754 232.742 367.402 232.742ZM379.391 231.055C379.969 231.055 380.508 231.172 381.008 231.406C381.516 231.641 381.961 231.961 382.344 232.367C382.727 232.773 383.031 233.266 383.258 233.844C383.484 234.414 383.598 235.047 383.598 235.742V241.977H381.793V235.742C381.793 235.297 381.719 234.891 381.57 234.523C381.43 234.148 381.238 233.828 380.996 233.562C380.762 233.297 380.484 233.094 380.164 232.953C379.844 232.812 379.508 232.742 379.156 232.742C378.305 232.742 377.609 233.016 377.07 233.562C376.539 234.102 376.273 234.828 376.273 235.742V241.977H374.469V226.859H376.273V232.496C376.5 232.223 376.766 231.984 377.07 231.781C377.344 231.602 377.668 231.438 378.043 231.289C378.426 231.133 378.875 231.055 379.391 231.055Z" fill="black"/>
<path d="M153.186 401.44C153.186 402.16 153.306 402.824 153.546 403.432C153.786 404.024 154.106 404.544 154.506 404.992C154.906 405.424 155.37 405.76 155.898 406C156.442 406.24 157.018 406.36 157.626 406.36C158.378 406.36 159.002 406.224 159.498 405.952C159.994 405.664 160.386 405.344 160.674 404.992C161.01 404.576 161.274 404.112 161.466 403.6H157.506V401.08H164.586V409H162.546L161.946 407.56C161.594 407.864 161.202 408.128 160.77 408.352C160.402 408.544 159.954 408.72 159.426 408.88C158.898 409.04 158.298 409.12 157.626 409.12C156.634 409.12 155.69 408.928 154.794 408.544C153.914 408.144 153.138 407.6 152.466 406.912C151.81 406.208 151.282 405.392 150.882 404.464C150.498 403.536 150.306 402.528 150.306 401.44C150.306 400.368 150.498 399.368 150.882 398.44C151.282 397.496 151.81 396.68 152.466 395.992C153.138 395.288 153.914 394.744 154.794 394.36C155.69 393.96 156.634 393.76 157.626 393.76C158.49 393.76 159.29 393.912 160.026 394.216C160.778 394.504 161.442 394.896 162.018 395.392C162.594 395.872 163.082 396.44 163.482 397.096C163.882 397.752 164.17 398.44 164.346 399.16H161.346C161.25 398.824 161.098 398.504 160.89 398.2C160.682 397.88 160.418 397.6 160.098 397.36C159.794 397.104 159.434 396.904 159.018 396.76C158.602 396.6 158.138 396.52 157.626 396.52C157.018 396.52 156.442 396.64 155.898 396.88C155.37 397.12 154.906 397.464 154.506 397.912C154.106 398.344 153.786 398.864 153.546 399.472C153.306 400.064 153.186 400.72 153.186 401.44ZM172.378 397.84C172.506 397.84 172.618 397.848 172.714 397.864C172.81 397.88 172.898 397.896 172.978 397.912C173.058 397.928 173.138 397.944 173.218 397.96V400.84C173.138 400.824 173.05 400.808 172.954 400.792C172.874 400.776 172.77 400.76 172.642 400.744C172.53 400.728 172.402 400.72 172.258 400.72C171.586 400.72 171.034 400.944 170.602 401.392C170.186 401.824 169.978 402.4 169.978 403.12V409H167.218V397.96H169.258L169.738 399.16C169.93 398.92 170.162 398.704 170.434 398.512C170.658 398.336 170.93 398.184 171.25 398.056C171.586 397.912 171.962 397.84 172.378 397.84ZM177.066 403.48C177.066 404.392 177.33 405.12 177.858 405.664C178.386 406.208 179.042 406.48 179.826 406.48C180.61 406.48 181.266 406.208 181.794 405.664C182.322 405.12 182.586 404.392 182.586 403.48C182.586 402.568 182.322 401.84 181.794 401.296C181.266 400.752 180.61 400.48 179.826 400.48C179.042 400.48 178.386 400.752 177.858 401.296C177.33 401.84 177.066 402.568 177.066 403.48ZM185.346 403.48C185.346 404.264 185.194 405 184.89 405.688C184.602 406.36 184.202 406.952 183.69 407.464C183.194 407.976 182.61 408.384 181.938 408.688C181.282 408.976 180.578 409.12 179.826 409.12C179.074 409.12 178.362 408.976 177.69 408.688C177.034 408.384 176.45 407.976 175.938 407.464C175.442 406.952 175.042 406.36 174.738 405.688C174.45 405 174.306 404.264 174.306 403.48C174.306 402.696 174.45 401.968 174.738 401.296C175.042 400.608 175.442 400.008 175.938 399.496C176.45 398.984 177.034 398.584 177.69 398.296C178.362 397.992 179.074 397.84 179.826 397.84C180.578 397.84 181.282 397.992 181.938 398.296C182.61 398.584 183.194 398.984 183.69 399.496C184.202 400.008 184.602 400.608 184.89 401.296C185.194 401.968 185.346 402.696 185.346 403.48ZM194.215 402.4L192.175 409H189.775L186.175 397.96H188.935L191.095 405.04L193.375 397.96H195.055L197.335 405.04L199.495 397.96H202.255L198.655 409H196.255L194.215 402.4ZM204.887 395.32H207.287V397.96H209.687V400.48H207.287V405.04C207.287 405.52 207.423 405.904 207.695 406.192C207.983 406.464 208.367 406.6 208.847 406.6C208.975 406.6 209.079 406.6 209.159 406.6C209.239 406.584 209.311 406.568 209.375 406.552C209.439 406.536 209.503 406.512 209.567 406.48V408.88C209.455 408.928 209.327 408.968 209.183 409C208.911 409.08 208.599 409.12 208.247 409.12C207.703 409.12 207.199 409.032 206.735 408.856C206.287 408.664 205.895 408.392 205.559 408.04C205.239 407.688 204.983 407.272 204.791 406.792C204.615 406.312 204.527 405.768 204.527 405.16V400.48H202.847V398.2H203.567C204.447 398.2 204.887 397.76 204.887 396.88V395.32ZM217.841 397.84C218.433 397.84 218.985 397.952 219.497 398.176C220.025 398.384 220.473 398.696 220.841 399.112C221.209 399.512 221.497 400 221.705 400.576C221.929 401.152 222.041 401.8 222.041 402.52V409H219.281V402.88C219.281 402.16 219.065 401.584 218.633 401.152C218.217 400.704 217.673 400.48 217.001 400.48C216.329 400.48 215.777 400.704 215.345 401.152C214.929 401.584 214.721 402.16 214.721 402.88V409H211.961V393.88H214.721V399.04C214.929 398.816 215.177 398.616 215.465 398.44C215.721 398.296 216.041 398.16 216.425 398.032C216.825 397.904 217.297 397.84 217.841 397.84ZM129.842 434.44C129.842 435.16 129.962 435.824 130.202 436.432C130.442 437.024 130.762 437.544 131.162 437.992C131.562 438.424 132.026 438.76 132.554 439C133.098 439.24 133.674 439.36 134.282 439.36C134.874 439.36 135.442 439.24 135.986 439C136.53 438.76 137.002 438.424 137.402 437.992C137.802 437.544 138.122 437.024 138.362 436.432C138.602 435.824 138.722 435.16 138.722 434.44C138.722 433.72 138.602 433.064 138.362 432.472C138.122 431.864 137.802 431.344 137.402 430.912C137.002 430.464 136.53 430.12 135.986 429.88C135.442 429.64 134.874 429.52 134.282 429.52C133.674 429.52 133.098 429.64 132.554 429.88C132.026 430.12 131.562 430.464 131.162 430.912C130.762 431.344 130.442 431.864 130.202 432.472C129.962 433.064 129.842 433.72 129.842 434.44ZM141.602 434.44C141.602 435.528 141.402 436.536 141.002 437.464C140.618 438.392 140.09 439.208 139.418 439.912C138.762 440.6 137.986 441.144 137.09 441.544C136.21 441.928 135.274 442.12 134.282 442.12C133.29 442.12 132.346 441.928 131.45 441.544C130.57 441.144 129.794 440.6 129.122 439.912C128.466 439.208 127.938 438.392 127.538 437.464C127.154 436.536 126.962 435.528 126.962 434.44C126.962 433.368 127.154 432.368 127.538 431.44C127.938 430.496 128.466 429.68 129.122 428.992C129.794 428.288 130.57 427.744 131.45 427.36C132.346 426.96 133.29 426.76 134.282 426.76C135.274 426.76 136.21 426.96 137.09 427.36C137.986 427.744 138.762 428.288 139.418 428.992C140.09 429.68 140.618 430.496 141.002 431.44C141.402 432.368 141.602 433.368 141.602 434.44ZM149.28 430.84C149.968 430.84 150.624 430.984 151.248 431.272C151.872 431.544 152.416 431.936 152.88 432.448C153.36 432.944 153.736 433.536 154.008 434.224C154.296 434.912 154.44 435.664 154.44 436.48C154.44 437.296 154.296 438.048 154.008 438.736C153.736 439.424 153.36 440.024 152.88 440.536C152.416 441.032 151.872 441.424 151.248 441.712C150.624 441.984 149.968 442.12 149.28 442.12C148.816 442.12 148.408 442.064 148.056 441.952C147.72 441.84 147.424 441.72 147.168 441.592C146.88 441.432 146.624 441.248 146.4 441.04V445.84H143.64V430.96H145.68L146.16 432.04C146.4 431.816 146.68 431.616 147 431.44C147.272 431.296 147.6 431.16 147.984 431.032C148.368 430.904 148.8 430.84 149.28 430.84ZM146.16 436.48C146.16 437.392 146.424 438.12 146.952 438.664C147.48 439.208 148.136 439.48 148.92 439.48C149.704 439.48 150.36 439.208 150.888 438.664C151.416 438.12 151.68 437.392 151.68 436.48C151.68 435.568 151.416 434.84 150.888 434.296C150.36 433.752 149.704 433.48 148.92 433.48C148.136 433.48 147.48 433.752 146.952 434.296C146.424 434.84 146.16 435.568 146.16 436.48ZM162.124 430.84C162.812 430.84 163.468 430.984 164.092 431.272C164.716 431.544 165.26 431.936 165.724 432.448C166.204 432.944 166.58 433.536 166.852 434.224C167.14 434.912 167.284 435.664 167.284 436.48C167.284 437.296 167.14 438.048 166.852 438.736C166.58 439.424 166.204 440.024 165.724 440.536C165.26 441.032 164.716 441.424 164.092 441.712C163.468 441.984 162.812 442.12 162.124 442.12C161.66 442.12 161.252 442.064 160.9 441.952C160.564 441.84 160.268 441.72 160.012 441.592C159.724 441.432 159.468 441.248 159.244 441.04V445.84H156.484V430.96H158.524L159.004 432.04C159.244 431.816 159.524 431.616 159.844 431.44C160.116 431.296 160.444 431.16 160.828 431.032C161.212 430.904 161.644 430.84 162.124 430.84ZM159.004 436.48C159.004 437.392 159.268 438.12 159.796 438.664C160.324 439.208 160.98 439.48 161.764 439.48C162.548 439.48 163.204 439.208 163.732 438.664C164.26 438.12 164.524 437.392 164.524 436.48C164.524 435.568 164.26 434.84 163.732 434.296C163.204 433.752 162.548 433.48 161.764 433.48C160.98 433.48 160.324 433.752 159.796 434.296C159.268 434.84 159.004 435.568 159.004 436.48ZM171.488 436.48C171.488 437.392 171.752 438.12 172.28 438.664C172.808 439.208 173.464 439.48 174.248 439.48C175.032 439.48 175.688 439.208 176.216 438.664C176.744 438.12 177.008 437.392 177.008 436.48C177.008 435.568 176.744 434.84 176.216 434.296C175.688 433.752 175.032 433.48 174.248 433.48C173.464 433.48 172.808 433.752 172.28 434.296C171.752 434.84 171.488 435.568 171.488 436.48ZM179.768 436.48C179.768 437.264 179.616 438 179.312 438.688C179.024 439.36 178.624 439.952 178.112 440.464C177.616 440.976 177.032 441.384 176.36 441.688C175.704 441.976 175 442.12 174.248 442.12C173.496 442.12 172.784 441.976 172.112 441.688C171.456 441.384 170.872 440.976 170.36 440.464C169.864 439.952 169.464 439.36 169.16 438.688C168.872 438 168.728 437.264 168.728 436.48C168.728 435.696 168.872 434.968 169.16 434.296C169.464 433.608 169.864 433.008 170.36 432.496C170.872 431.984 171.456 431.584 172.112 431.296C172.784 430.992 173.496 430.84 174.248 430.84C175 430.84 175.704 430.992 176.36 431.296C177.032 431.584 177.616 431.984 178.112 432.496C178.624 433.008 179.024 433.608 179.312 434.296C179.616 434.968 179.768 435.696 179.768 436.48ZM186.957 430.84C187.085 430.84 187.197 430.848 187.293 430.864C187.389 430.88 187.477 430.896 187.557 430.912C187.637 430.928 187.717 430.944 187.797 430.96V433.84C187.717 433.824 187.629 433.808 187.533 433.792C187.453 433.776 187.349 433.76 187.221 433.744C187.109 433.728 186.981 433.72 186.837 433.72C186.165 433.72 185.613 433.944 185.181 434.392C184.765 434.824 184.557 435.4 184.557 436.12V442H181.797V430.96H183.837L184.317 432.16C184.509 431.92 184.741 431.704 185.013 431.512C185.237 431.336 185.509 431.184 185.829 431.056C186.165 430.912 186.541 430.84 186.957 430.84ZM190.801 428.32H193.201V430.96H195.601V433.48H193.201V438.04C193.201 438.52 193.337 438.904 193.609 439.192C193.897 439.464 194.281 439.6 194.761 439.6C194.889 439.6 194.993 439.6 195.073 439.6C195.153 439.584 195.225 439.568 195.289 439.552C195.353 439.536 195.417 439.512 195.481 439.48V441.88C195.369 441.928 195.241 441.968 195.097 442C194.825 442.08 194.513 442.12 194.161 442.12C193.617 442.12 193.113 442.032 192.649 441.856C192.201 441.664 191.809 441.392 191.473 441.04C191.153 440.688 190.897 440.272 190.705 439.792C190.529 439.312 190.441 438.768 190.441 438.16V433.48H188.761V431.2H189.481C190.361 431.2 190.801 430.76 190.801 429.88V428.32ZM202.198 442.12C201.542 442.12 200.942 442.016 200.398 441.808C199.854 441.584 199.382 441.272 198.982 440.872C198.598 440.456 198.294 439.96 198.07 439.384C197.862 438.808 197.758 438.16 197.758 437.44V430.96H200.518V437.08C200.518 437.8 200.726 438.384 201.142 438.832C201.574 439.264 202.126 439.48 202.798 439.48C203.47 439.48 204.014 439.264 204.43 438.832C204.862 438.384 205.078 437.8 205.078 437.08V430.96H207.838V442H205.798L205.318 440.92C205.046 441.144 204.75 441.344 204.43 441.52C204.158 441.68 203.83 441.824 203.446 441.952C203.062 442.064 202.646 442.12 202.198 442.12ZM216.124 430.84C216.78 430.84 217.38 430.952 217.924 431.176C218.468 431.384 218.932 431.696 219.316 432.112C219.716 432.512 220.02 433 220.228 433.576C220.452 434.152 220.564 434.8 220.564 435.52V442H217.804V435.88C217.804 435.16 217.588 434.584 217.156 434.152C216.74 433.704 216.196 433.48 215.524 433.48C214.852 433.48 214.3 433.704 213.868 434.152C213.452 434.584 213.244 435.16 213.244 435.88V442H210.484V430.96H212.524L213.004 432.04C213.276 431.816 213.572 431.616 213.892 431.44C214.164 431.296 214.484 431.16 214.852 431.032C215.236 430.904 215.66 430.84 216.124 430.84ZM225.853 442H223.093V430.96H225.853V442ZM224.533 429.52C224.117 429.52 223.749 429.368 223.429 429.064C223.125 428.744 222.973 428.376 222.973 427.96C222.973 427.544 223.125 427.184 223.429 426.88C223.749 426.56 224.117 426.4 224.533 426.4C224.949 426.4 225.309 426.56 225.613 426.88C225.933 427.184 226.093 427.544 226.093 427.96C226.093 428.376 225.933 428.744 225.613 429.064C225.309 429.368 224.949 429.52 224.533 429.52ZM229.684 428.32H232.084V430.96H234.484V433.48H232.084V438.04C232.084 438.52 232.22 438.904 232.492 439.192C232.78 439.464 233.164 439.6 233.644 439.6C233.772 439.6 233.876 439.6 233.956 439.6C234.036 439.584 234.108 439.568 234.172 439.552C234.236 439.536 234.3 439.512 234.364 439.48V441.88C234.252 441.928 234.124 441.968 233.98 442C233.708 442.08 233.396 442.12 233.044 442.12C232.5 442.12 231.996 442.032 231.532 441.856C231.084 441.664 230.692 441.392 230.356 441.04C230.036 440.688 229.78 440.272 229.588 439.792C229.412 439.312 229.324 438.768 229.324 438.16V433.48H227.644V431.2H228.364C229.244 431.2 229.684 430.76 229.684 429.88V428.32ZM235.44 430.96H238.32L241.08 438.16L243.6 430.96H246.48C245.696 432.976 244.984 434.8 244.344 436.432C244.072 437.136 243.8 437.824 243.528 438.496C243.272 439.168 243.04 439.784 242.832 440.344C242.624 440.888 242.448 441.344 242.304 441.712C242.16 442.08 242.072 442.296 242.04 442.36C241.768 443.016 241.496 443.568 241.224 444.016C240.968 444.48 240.688 444.856 240.384 445.144C240.08 445.432 239.752 445.64 239.4 445.768C239.048 445.896 238.648 445.96 238.2 445.96C238.072 445.96 237.944 445.952 237.816 445.936C237.704 445.936 237.608 445.928 237.528 445.912C237.416 445.896 237.32 445.872 237.24 445.84V443.56C237.848 443.56 238.312 443.424 238.632 443.152C238.968 442.88 239.224 442.536 239.4 442.12L239.64 441.52L235.44 430.96Z" fill="black"/>
</svg>
