<svg xmlns="http://www.w3.org/2000/svg" width="203" height="1149" viewBox="0 0 203 1149">
    <g fill="none" fill-rule="evenodd" transform="translate(2)">
        <path stroke="#06F" stroke-width="2" d="M99 9v60c0 16.569-13.431 30-30 30H30c-16.569 0-30 13.431-30 30v159c0 16.569 13.431 30 30 30h140c16.569 0 30 13.431 30 30v198c0 16.569-13.431 30-30 30H30c-16.569 0-30 13.431-30 30v106c0 16.569 13.431 30 30 30h140c16.569 0 30 13.431 30 30v325c0 16.569-13.431 30-30 30H0"/>
        <circle cx="99" cy="6" r="6" fill="#06F"/>
        <path stroke="#06F" stroke-width="2" d="M20.39 1106.87L.13 1127.13l20.26 20.26"/>
    </g>
</svg>
