<svg xmlns="http://www.w3.org/2000/svg" width="305" height="1467" viewBox="0 0 305 1467">
    <g fill="none" fill-rule="evenodd">
        <circle cx="6" cy="6" r="6" fill="#06F"/>
        <path stroke="#06F" d="M6 6v320.914c0 11.046 8.954 20 20 20h257.977c11.045 0 20 8.954 20 20v329.203c0 11.046-8.955 20-20 20H26c-11.046 0-20 8.954-20 20v289.324c0 11.046 8.954 20 20 20h257.977c11.045 0 20 8.955 20 20V1405.5c0 11.046-8.955 20-20 20H101c-11.046 0-20 8.954-20 20v21.046"/>
        <path stroke="#06F" stroke-width="2" d="M69 1453l12 12 12-12"/>
    </g>
</svg>
