<svg width="789" height="170" viewBox="0 0 789 170" fill="none" xmlns="http://www.w3.org/2000/svg">
<g opacity="0.05">
<path fill-rule="evenodd" clip-rule="evenodd" d="M244.081 -41.5986H244.082L244.082 297.667H244.081C168.147 297.667 106.59 236.118 106.59 160.192V95.877C106.59 19.9518 168.147 -41.5986 244.081 -41.5986Z" stroke="white" stroke-width="3.658"/>
<path fill-rule="evenodd" clip-rule="evenodd" d="M171.532 -41.5985L671.4 -41.5985C743.131 -41.5985 801.282 16.5453 801.282 88.2693L171.532 88.2693C135.666 88.2693 106.59 59.1974 106.59 23.3358C106.59 -12.5266 135.666 -41.5985 171.532 -41.5985Z" stroke="white" stroke-width="3.658"/>
<path fill-rule="evenodd" clip-rule="evenodd" d="M622.785 611.207V611.207C721.366 611.207 801.282 531.3 801.282 432.731V88.269H734.413C672.763 88.269 622.785 138.241 622.785 199.884V611.207Z" stroke="white" stroke-width="3.658"/>
<path fill-rule="evenodd" clip-rule="evenodd" d="M521.908 88.269C521.908 143.976 567.072 189.135 622.786 189.135C678.498 189.135 723.662 143.976 723.662 88.269C723.662 32.5621 678.498 -12.5962 622.786 -12.5962C567.072 -12.5962 521.908 32.5621 521.908 88.269Z" stroke="white" stroke-width="3.658"/>
<path d="M106.59 131.645L106.59 -186.509" stroke="white" stroke-width="3.658" stroke-linecap="round" stroke-linejoin="round"/>
<path fill-rule="evenodd" clip-rule="evenodd" d="M299.39 88.269H244.082V233.15H444.288C444.288 153.135 379.415 88.269 299.39 88.269Z" stroke="white" stroke-width="3.658"/>
<path d="M403.348 11.8643V-96.6684" stroke="white" stroke-width="3.658" stroke-linecap="round" stroke-linejoin="round"/>
<path fill-rule="evenodd" clip-rule="evenodd" d="M108.199 28.1772C108.199 28.1772 109.064 36.4013 112.453 36.8532C116.976 37.4566 121.834 29.8904 121.834 29.8904L114.081 51.0065L106.591 72.8879L107.799 35.862L108.199 28.1772Z" fill="white"/>
<path fill-rule="evenodd" clip-rule="evenodd" d="M671.43 106.06C671.43 106.06 680.609 100.232 680.609 95.0733C680.609 89.9146 662.518 89.7129 662.518 89.7129L664.93 88.6411H712.033L707.703 91.485C707.703 91.485 679.51 102.143 673.57 106.291L671.43 106.06Z" fill="white"/>
<path fill-rule="evenodd" clip-rule="evenodd" d="M221.032 86.8993C221.032 86.8993 242.674 86.7564 242.674 64.6482L244.483 67.9396L244.082 88.2688L222.439 87.9035L221.032 86.8993Z" fill="white"/>
</g>
</svg>
