<svg width="30" height="34" viewBox="0 0 30 34" fill="none" xmlns="http://www.w3.org/2000/svg">
<path d="M5.85587 3.34546H2.52287C1.92039 3.34546 1.44733 3.85571 1.48229 4.4567C1.79692 9.84706 4.45602 12.6906 8.87348 13.7126" stroke="#636872" stroke-miterlimit="10" stroke-linecap="round"/>
<path d="M24.1436 3.34546H27.4766C28.0791 3.34546 28.5521 3.85571 28.5172 4.4567C28.2025 9.84706 25.5434 12.6906 21.126 13.7126" stroke="#636872" stroke-miterlimit="10" stroke-linecap="round"/>
<path d="M21.9757 26.4233L17.5478 22.7786C17.3462 22.6128 17.2295 22.3651 17.2295 22.104V16.7598C17.2295 16.4236 17.4303 16.1186 17.739 15.9862C23.2104 13.6432 24.103 9.01971 24.1692 1.95356C24.1744 1.42992 23.7489 1 23.226 1H6.77229C6.24866 1 5.82394 1.42992 5.82915 1.95356C5.89535 9.01897 6.78791 13.6425 12.2593 15.9862C12.5688 16.1186 12.7689 16.4236 12.7689 16.7598V22.104C12.7689 22.3651 12.6521 22.6128 12.4505 22.7786L8.02263 26.4233" stroke="#636872" stroke-miterlimit="10" stroke-linecap="round"/>
<path d="M7.25327 33H22.7467C23.3666 33 23.8691 32.4975 23.8691 31.8776V27.5464C23.8691 26.9265 23.3666 26.424 22.7467 26.424H7.25327C6.63338 26.424 6.13087 26.9265 6.13087 27.5464V31.8776C6.13087 32.4975 6.63338 33 7.25327 33Z" stroke="#636872" stroke-miterlimit="10" stroke-linecap="round"/>
<path d="M11.2842 29.7114H18.7155" stroke="#636872" stroke-miterlimit="10" stroke-linecap="round"/>
</svg>
