<svg xmlns="http://www.w3.org/2000/svg" width="55" height="55" viewBox="0 0 55 55">
    <g fill="#06F" fill-rule="evenodd">
        <path d="M17.947 0h19.106c6.24 0 8.503.65 10.785 1.87a12.721 12.721 0 0 1 5.292 5.292C54.35 9.444 55 11.707 55 17.947v19.106c0 6.24-.65 8.503-1.87 10.785a12.721 12.721 0 0 1-5.292 5.292C45.556 54.35 43.293 55 37.053 55H17.947c-6.24 0-8.503-.65-10.785-1.87a12.721 12.721 0 0 1-5.292-5.292C.65 45.556 0 43.293 0 37.053V17.947c0-6.24.65-8.503 1.87-10.785A12.721 12.721 0 0 1 7.162 1.87C9.444.65 11.707 0 17.947 0z" opacity=".195"/>
        <path d="M37.2 42.051a6.655 6.655 0 0 0-2.843 0l-1.482.322a5.233 5.233 0 0 1-2.202 0l-1.481-.322a6.643 6.643 0 0 0-2.843 0l-1.481.322a5.18 5.18 0 0 1-2.203 0l-1.482-.322a6.655 6.655 0 0 0-2.842 0l-1.481.322c-.106.023-.212.035-.318.051l4.956-4.012a1.852 1.852 0 0 1 2.036-.199l2.016 1.068c.045.03.093.056.143.076l2.332 1.234a.754.754 0 0 0 .705-1.333l-1.02-.54 2.527-1.1a2.51 2.51 0 0 1 2.42.222l6.875 4.638a5.232 5.232 0 0 1-.851-.105L37.2 42.05zM19.503 17.384H36.34l3.23 2.388-3.23 2.389H19.503v-4.777zm25.02 24.97a.754.754 0 0 0-.896-.576l-1.843.4L33.5 36.59a4.013 4.013 0 0 0-3.865-.355l-.959.418V23.669h7.913a.753.753 0 0 0 .448-.148l4.25-3.142a.754.754 0 0 0 0-1.213l-4.25-3.143a.753.753 0 0 0-.448-.148h-7.913v-3.12a.754.754 0 0 0-1.508 0v3.12h-8.419a.754.754 0 0 0-.754.754v6.286c0 .416.338.754.754.754h8.419v13.64l-1.162.506-1.766-.935a3.36 3.36 0 0 0-3.691.359l-6.246 5.057-2.39-.518a.755.755 0 0 0-.319 1.473l2.738.594.003.001h.002c.942.205 1.9.205 2.842 0l1.481-.321a5.17 5.17 0 0 1 2.204 0l1.48.321c.944.205 1.9.205 2.844 0l1.481-.321a5.24 5.24 0 0 1 2.203 0l1.48.321a6.705 6.705 0 0 0 2.843 0l1.482-.321a5.172 5.172 0 0 1 2.203 0l1.481.321c.943.205 1.9.205 2.843 0l2.742-.595a.754.754 0 0 0 .577-.896z"/>
    </g>
</svg>
