<svg xmlns="http://www.w3.org/2000/svg" width="55" height="55" viewBox="0 0 55 55">
    <g fill="#06F" fill-rule="evenodd">
        <path d="M17.947 0h19.106c6.24 0 8.503.65 10.785 1.87a12.721 12.721 0 0 1 5.292 5.292C54.35 9.444 55 11.707 55 17.947v19.106c0 6.24-.65 8.503-1.87 10.785a12.721 12.721 0 0 1-5.292 5.292C45.556 54.35 43.293 55 37.053 55H17.947c-6.24 0-8.503-.65-10.785-1.87a12.721 12.721 0 0 1-5.292-5.292C.65 45.556 0 43.293 0 37.053V17.947c0-6.24.65-8.503 1.87-10.785A12.721 12.721 0 0 1 7.162 1.87C9.444.65 11.707 0 17.947 0z" opacity=".195"/>
        <path d="M43.966 22.885a.65.65 0 1 1 .002-1.299.65.65 0 0 1-.002 1.3zm-21.406.403l-1.77-1.753 1.754-1.769 1.76 1.76-1.744 1.762zm1.307 19.68a.65.65 0 1 1-1.3-.002.65.65 0 0 1 1.3.002zM12.469 32.614l-1.004-1.005 1.004-1.004 1.004 1.004-1.004 1.005zm20.151-22.16l1.005 1.004-1.005 1.005-1.004-1.005 1.004-1.004zm11.346 9.751c-.38 0-.736.107-1.04.29-4.788-3.879-11.444-4.442-16.78-1.585l5.483-5.483.153.153c.224.224.522.348.838.348.317 0 .615-.124.839-.348l1.283-1.283c.225-.224.348-.522.348-.839 0-.317-.123-.615-.348-.838L33.46 9.336c-.448-.448-1.23-.448-1.677 0l-1.284 1.284a1.187 1.187 0 0 0 0 1.676l.153.153-6.734 6.735-.396-.396c-.518-.518-1.422-.518-1.94 0l-1.768 1.769a1.374 1.374 0 0 0 0 1.94l.395.395-6.748 6.748-.152-.152c-.448-.449-1.23-.45-1.677 0l-1.284 1.283a1.177 1.177 0 0 0-.347.838c0 .317.123.615.347.838l1.284 1.285c.231.23.535.346.838.346.304 0 .607-.116.838-.347l1.284-1.284c.224-.223.348-.52.348-.838 0-.317-.124-.615-.348-.838l-.153-.153 5.466-5.466c-2.854 5.33-2.296 11.978 1.577 16.767a2.016 2.016 0 0 0-.295 1.05c0 1.12.912 2.031 2.032 2.031s2.032-.911 2.032-2.032c0-1.12-.912-2.032-2.032-2.032-.232 0-.453.04-.661.113-3.844-4.754-4.098-11.521-.642-16.545a1.357 1.357 0 0 0 1.606-.238l1.77-1.77c.432-.432.508-1.082.24-1.599 5.024-3.434 11.778-3.169 16.52.67-.075.21-.117.435-.117.67 0 1.12.912 2.032 2.032 2.032s2.032-.912 2.032-2.032-.912-2.032-2.032-2.032z"/>
    </g>
</svg>
