<svg xmlns="http://www.w3.org/2000/svg" width="55" height="55" viewBox="0 0 55 55">
    <g fill="none" fill-rule="evenodd">
        <path fill="#06F" d="M17.947 0h19.106c6.24 0 8.503.65 10.785 1.87a12.721 12.721 0 0 1 5.292 5.292C54.35 9.444 55 11.707 55 17.947v19.106c0 6.24-.65 8.503-1.87 10.785a12.721 12.721 0 0 1-5.292 5.292C45.556 54.35 43.293 55 37.053 55H17.947c-6.24 0-8.503-.65-10.785-1.87a12.721 12.721 0 0 1-5.292-5.292C.65 45.556 0 43.293 0 37.053V17.947c0-6.24.65-8.503 1.87-10.785A12.721 12.721 0 0 1 7.162 1.87C9.444.65 11.707 0 17.947 0z" opacity=".195"/>
        <g stroke="#06F" stroke-linecap="round" stroke-linejoin="round" stroke-width="2">
            <path d="M19.145 18.388L10 27.533l9.145 9.145M36.751 18.388l9.145 9.145-9.145 9.145M30.898 15l-5.9 25.066"/>
        </g>
    </g>
</svg>
