<svg width="167" height="50" viewBox="0 0 167 50" fill="none" xmlns="http://www.w3.org/2000/svg">
<path d="M25.5009 19.6398C25.5009 19.6398 32.414 23.8768 31.2954 33.8853L16.7635 25.5981H16.7631L2.23134 33.8853C1.11275 23.8768 8.02564 19.6398 8.02564 19.6398" stroke="#0066FF" stroke-width="2.78453" stroke-linecap="round" stroke-linejoin="round"/>
<path fill-rule="evenodd" clip-rule="evenodd" d="M16.7633 47.7813C16.7633 47.7813 18.407 46.2111 20.2775 42.9393C21.7919 40.291 19.8468 37.0145 16.7635 37.0145H16.7631C13.6798 37.0145 11.7347 40.291 13.249 42.9393C15.1197 46.2111 16.7633 47.7813 16.7633 47.7813Z" stroke="#0066FF" stroke-width="2.78453" stroke-linecap="round" stroke-linejoin="round"/>
<path d="M19.6002 32.5257L23.6845 34.8506C24.5384 31.9626 25.2083 28.5714 25.4811 24.6569C26.6483 7.91556 16.7636 2 16.7636 2H16.7632C16.7632 2 6.8785 7.91556 8.04575 24.6569C8.31877 28.5714 8.98844 31.9626 9.84236 34.8506L13.9266 32.5257" stroke="#0066FF" stroke-width="2.78453" stroke-linecap="round" stroke-linejoin="round"/>
</svg>
