<svg xmlns="http://www.w3.org/2000/svg" width="20" height="20" viewBox="0 0 20 20">
    <g fill="#06F" fill-rule="nonzero">
        <path d="M18.128 16.392a7.104 7.104 0 0 0 1.833-4.722 7.092 7.092 0 0 0-2.076-5.081 7.087 7.087 0 0 0-4.05-2.041 7.123 7.123 0 0 0-1.628-2.477A7.096 7.096 0 0 0 7.18 0C5.266 0 3.467.75 2.115 2.112a7.092 7.092 0 0 0-2.076 5.08 7.104 7.104 0 0 0 1.833 4.723l-.24 2.462a.97.97 0 0 0 .967 1.068.972.972 0 0 0 .475-.124l2.284-1.277c.267.07.538.125.811.164.337.86.843 1.655 1.502 2.343a7.09 7.09 0 0 0 4.908 2.2 7.16 7.16 0 0 0 2.063-.23l2.284 1.276a.972.972 0 0 0 1.443-.944l-.24-2.462zm-1.187-.15l.23 2.356L15 17.385a.583.583 0 0 0-.454-.05 5.978 5.978 0 0 1-1.93.25 5.93 5.93 0 0 1-4.103-1.84 5.942 5.942 0 0 1-1.666-4.181 5.935 5.935 0 0 1 1.767-4.188 5.936 5.936 0 0 1 4.206-1.732c1.6 0 3.104.627 4.236 1.767a5.931 5.931 0 0 1 1.737 4.25 5.944 5.944 0 0 1-1.69 4.118.584.584 0 0 0-.163.464zM4.999 12.91L2.83 14.12l.23-2.354a.584.584 0 0 0-.162-.464 5.943 5.943 0 0 1-1.69-4.118 5.931 5.931 0 0 1 1.736-4.25A5.93 5.93 0 0 1 7.18 1.167c1.586 0 3.08.616 4.206 1.733a5.982 5.982 0 0 1 1.146 1.582 7.092 7.092 0 0 0-4.738 2.065 7.095 7.095 0 0 0-2.112 5.007 7.15 7.15 0 0 0 .126 1.4 5.922 5.922 0 0 1-.354-.095.584.584 0 0 0-.454.05z"/>
        <path d="M9.961 9.768h2.218a.584.584 0 0 0 0-1.167H9.961a.584.584 0 0 0 0 1.167zM15.68 10.935H9.962a.584.584 0 0 0 0 1.168h5.72a.584.584 0 0 0 0-1.168zM15.68 13.27H9.962a.584.584 0 0 0 0 1.167h5.72a.584.584 0 0 0 0-1.167z"/>
    </g>
</svg>
