<svg xmlns="http://www.w3.org/2000/svg" width="20" height="21" viewBox="0 0 20 21">
    <g fill="#06F" fill-rule="nonzero">
        <path d="M19.938 1.725A1.552 1.552 0 0 0 18.47.258c-1.6-.088-4.73-.002-7.724 1.546-1.527.79-3.14 2.128-4.429 3.672l-.047.057-2.923.226c-.481.037-.91.29-1.176.692L.178 9.467a1.064 1.064 0 0 0-.086 1.022c.148.335.452.568.814.624l2.463.382-.026.143c-.082.49.08.995.435 1.349l3.43 3.43a1.555 1.555 0 0 0 1.35.435l.143-.025.381 2.463a1.064 1.064 0 0 0 1.057.906c.206 0 .411-.06.59-.178l3.016-1.995c.402-.266.654-.694.691-1.176l.226-2.923c.02-.015.039-.03.058-.047 1.544-1.288 2.882-2.902 3.672-4.428 1.548-2.994 1.633-6.125 1.546-7.724zM13.1 17.048l-2.886 1.907-.372-2.4a13.1 13.1 0 0 0 3.576-1.702l-.148 1.904a.381.381 0 0 1-.17.29zM8.036 15.59l-3.431-3.43a.38.38 0 0 1-.108-.33c.102-.609.26-1.19.456-1.736l5.148 5.147c-.657.235-1.245.376-1.736.458a.38.38 0 0 1-.33-.109zM3.438 6.925l1.904-.147a13.1 13.1 0 0 0-1.702 3.575l-2.4-.372 1.908-2.885a.381.381 0 0 1 .29-.171zm10.532 6.054a13.408 13.408 0 0 1-2.707 1.77L5.446 8.933a13.64 13.64 0 0 1 1.77-2.707c1.192-1.429 2.675-2.662 4.068-3.382 2.747-1.421 5.642-1.498 7.123-1.417.196.01.352.166.363.362.08 1.481.004 4.376-1.417 7.124-.72 1.393-1.954 2.875-3.383 4.067z"/>
        <path d="M13.673 9.445c.749 0 1.498-.285 2.068-.855a2.905 2.905 0 0 0 .856-2.068c0-.78-.304-1.515-.856-2.067a2.927 2.927 0 0 0-4.135 0 2.905 2.905 0 0 0-.857 2.067c0 .781.305 1.515.857 2.068.57.57 1.318.855 2.067.855zm-1.24-4.163a1.749 1.749 0 0 1 1.24-.513 1.749 1.749 0 0 1 1.755 1.753 1.756 1.756 0 0 1-3.509 0c0-.468.182-.909.514-1.24zM.597 16.684c.15 0 .299-.057.413-.171l1.91-1.91a.585.585 0 1 0-.828-.826L.183 15.686a.585.585 0 0 0 .414.998zM4.669 15.526a.585.585 0 0 0-.827 0l-3.67 3.671a.585.585 0 1 0 .826.827l3.671-3.67a.585.585 0 0 0 0-.828zM5.592 17.276l-1.91 1.91a.585.585 0 0 0 .827.826l1.91-1.909a.585.585 0 0 0-.827-.827z"/>
    </g>
</svg>
