<svg width="203" height="867" viewBox="0 0 203 867" fill="none" xmlns="http://www.w3.org/2000/svg">
<path d="M101 7.48853V42.3698C101 64.4612 83.0914 82.3698 61 82.3698H42C19.9086 82.3698 2 100.278 2 122.37V216.581C2 238.672 19.9086 256.581 42 256.581H102H162C184.091 256.581 202 274.489 202 296.581V417.24C202 439.332 184.091 457.24 162 457.24H42C19.9086 457.24 2 475.149 2 497.24V601.355C2 623.446 19.9086 641.355 42 641.355H162C184.091 641.355 202 659.263 202 681.355V817.68C202 839.772 184.091 857.68 162 857.68H102H2" stroke="#00FFD1" stroke-width="2"/>
<path fill-rule="evenodd" clip-rule="evenodd" d="M101 9.98417C104.314 9.98417 107 7.74914 107 4.99208C107 2.23503 104.314 0 101 0C97.6863 0 95 2.23503 95 4.99208C95 7.74914 97.6863 9.98417 101 9.98417Z" fill="#00FFD1"/>
<path d="M12 849.359L2 857.68L12 866" stroke="#00FFD1" stroke-width="2" stroke-linecap="round"/>
</svg>
