<svg width="60" height="60" viewBox="0 0 60 60" fill="none" xmlns="http://www.w3.org/2000/svg">
<rect width="60" height="60" rx="16" fill="#DBF1EE"/>
<path d="M13.6861 40.1188C13.3154 40.5877 13.0842 41.1515 13.019 41.7457C12.9538 42.3399 13.0573 42.9404 13.3176 43.4786C13.5756 44.0102 13.9787 44.458 14.4804 44.7703C14.9821 45.0826 15.5618 45.2466 16.1528 45.2435H21.483C22.477 45.2431 23.4598 45.0337 24.3675 44.6288C25.2753 44.224 26.0878 43.6327 26.7522 42.8934C27.4166 42.1541 27.9181 41.2834 28.2242 40.3377C28.5302 39.392 28.6339 38.3925 28.5285 37.4041L43.8458 23.3556C44.3879 22.8681 44.825 22.2754 45.1304 21.6134C45.4358 20.9514 45.6031 20.2342 45.622 19.5054C45.641 18.7767 45.5113 18.0517 45.2408 17.3747C44.9703 16.6978 44.5647 16.083 44.0487 15.568C43.5328 15.053 42.9173 14.6486 42.2398 14.3793C41.5623 14.1101 40.8371 13.9817 40.1084 14.0021C39.3797 14.0224 38.6627 14.1911 38.0014 14.4977C37.34 14.8043 36.748 15.2425 36.2616 15.7855L22.1918 31.1099C21.2068 31.0109 20.2119 31.1193 19.2713 31.4283C18.3307 31.7372 17.4653 32.2397 16.7308 32.9034C15.9962 33.5672 15.4089 34.3775 15.0066 35.282C14.6043 36.1866 14.3959 37.1654 14.3949 38.1554C14.3947 38.8725 14.144 39.567 13.6861 40.1188ZM38.3526 17.7064C38.5733 17.4267 38.8507 17.1969 39.1667 17.0322C39.4826 16.8674 39.8298 16.7715 40.1855 16.7506C40.5412 16.7297 40.8972 16.7844 41.2303 16.911C41.5633 17.0376 41.8657 17.2334 42.1177 17.4853C42.3696 17.7372 42.5654 18.0397 42.692 18.3727C42.8186 18.7057 42.8733 19.0618 42.8524 19.4175C42.8315 19.7732 42.7356 20.1204 42.5708 20.4363C42.4061 20.7522 42.1763 21.0297 41.8966 21.2504L27.5291 34.4626C26.9403 33.4957 26.1286 32.6839 25.1617 32.0951L38.3526 17.7064ZM15.9047 41.8696C16.7617 40.8215 17.23 39.5093 17.2302 38.1554C17.2303 37.5166 17.3745 36.886 17.6518 36.3105C17.9291 35.735 18.3325 35.2293 18.8321 34.8311C19.5814 34.2237 20.5184 33.8955 21.483 33.9026C21.8292 33.9008 22.1744 33.9412 22.5108 34.0231C23.2673 34.2032 23.9591 34.5892 24.5096 35.1385C25.0601 35.6877 25.4477 36.3787 25.6295 37.1348C25.7852 37.7677 25.7933 38.4281 25.6532 39.0647C25.5131 39.7013 25.2285 40.2972 24.8215 40.8064C24.4218 41.3078 23.9139 41.7123 23.3357 41.9897C22.7576 42.2671 22.1242 42.4102 21.483 42.4083H16.1457C16.0867 42.4121 16.028 42.3978 15.9774 42.3675C15.9267 42.3371 15.8865 42.292 15.8622 42.2382C15.8319 42.1794 15.8198 42.113 15.8274 42.0474C15.8349 41.9818 15.8619 41.9199 15.9047 41.8696Z" fill="#48CFAD"/>
<path d="M18.6474 18.3086C18.2714 18.3086 17.9108 18.4579 17.645 18.7238C17.3791 18.9897 17.2298 19.3502 17.2298 19.7262V21.1438H15.8121C15.4362 21.1438 15.0756 21.2932 14.8097 21.559C14.5439 21.8249 14.3945 22.1855 14.3945 22.5614C14.3945 22.9374 14.5439 23.298 14.8097 23.5638C15.0756 23.8297 15.4362 23.979 15.8121 23.979H17.2298V25.3966C17.2298 25.7726 17.3791 26.1332 17.645 26.3991C17.9108 26.6649 18.2714 26.8143 18.6474 26.8143C19.0233 26.8143 19.3839 26.6649 19.6498 26.3991C19.9156 26.1332 20.065 25.7726 20.065 25.3966V23.979H21.4826C21.8586 23.979 22.2191 23.8297 22.485 23.5638C22.7508 23.298 22.9002 22.9374 22.9002 22.5614C22.9002 22.1855 22.7508 21.8249 22.485 21.559C22.2191 21.2932 21.8586 21.1438 21.4826 21.1438H20.065V19.7262C20.065 19.3502 19.9156 18.9897 19.6498 18.7238C19.3839 18.4579 19.0233 18.3086 18.6474 18.3086Z" fill="#48CFAD"/>
<path d="M47.0001 36.7378C47.0001 36.3619 46.8507 36.0013 46.5849 35.7354C46.319 35.4696 45.9584 35.3202 45.5825 35.3202H42.7472V32.485C42.7472 32.109 42.5979 31.7484 42.332 31.4826C42.0662 31.2167 41.7056 31.0674 41.3296 31.0674C40.9537 31.0674 40.5931 31.2167 40.3272 31.4826C40.0614 31.7484 39.912 32.109 39.912 32.485V35.3202H37.0768C36.7008 35.3202 36.3402 35.4696 36.0744 35.7354C35.8085 36.0013 35.6592 36.3619 35.6592 36.7378C35.6592 37.1138 35.8085 37.4744 36.0744 37.7402C36.3402 38.0061 36.7008 38.1554 37.0768 38.1554H39.912V40.9907C39.912 41.3666 40.0614 41.7272 40.3272 41.9931C40.5931 42.2589 40.9537 42.4083 41.3296 42.4083C41.7056 42.4083 42.0662 42.2589 42.332 41.9931C42.5979 41.7272 42.7472 41.3666 42.7472 40.9907V38.1554H45.5825C45.9584 38.1554 46.319 38.0061 46.5849 37.7402C46.8507 37.4744 47.0001 37.1138 47.0001 36.7378Z" fill="#48CFAD"/>
<path d="M27.8481 18.3085C29.0225 18.3085 29.9745 17.3565 29.9745 16.1821C29.9745 15.0077 29.0225 14.0557 27.8481 14.0557C26.6737 14.0557 25.7217 15.0077 25.7217 16.1821C25.7217 17.3565 26.6737 18.3085 27.8481 18.3085Z" fill="#48CFAD"/>
</svg>
