<svg xmlns="http://www.w3.org/2000/svg" width="55" height="55" viewBox="0 0 55 55">
    <g fill="none" fill-rule="evenodd">
        <path fill="#5080F4" d="M17.947 0h19.106c6.24 0 8.503.65 10.785 1.87a12.721 12.721 0 0 1 5.292 5.292C54.35 9.444 55 11.707 55 17.947v19.106c0 6.24-.65 8.503-1.87 10.785a12.721 12.721 0 0 1-5.292 5.292C45.556 54.35 43.293 55 37.053 55H17.947c-6.24 0-8.503-.65-10.785-1.87a12.721 12.721 0 0 1-5.292-5.292C.65 45.556 0 43.293 0 37.053V17.947c0-6.24.65-8.503 1.87-10.785A12.721 12.721 0 0 1 7.162 1.87C9.444.65 11.707 0 17.947 0z" opacity=".104"/>
        <g stroke="#06F" stroke-linecap="round" stroke-linejoin="round" stroke-width="1.5">
            <path d="M22.023 23.568H14.25v3.137l-.273.34c-.818 1.023-1.772 2.25-1.772 3.546v7.636c0 1.023.886 1.91 1.909 1.91h.136v-1.023 1.568c0 .545.477 1.023 1.023 1.023.545 0 1.022-.478 1.022-1.023v-1.568 2.045c0 .546.478 1.023 1.023 1.023.546 0 1.023-.477 1.023-1.023v-2.045 1.568c0 .545.477 1.023 1.023 1.023.545 0 1.022-.478 1.022-1.023v-1.568 1.568h.341c.955 0 1.705-.75 1.705-1.705V32.91h.75c.682 0 1.295-.545 1.295-1.295v-.887c0-.545-.204-1.159-.613-1.568L22.227 26.5l-.204-2.932z"/>
            <path d="M22.636 33.114v7.772h3.137l.34.273c1.023.818 2.25 1.773 3.546 1.773h7.705c1.022 0 1.909-.887 1.909-1.91v-.136H38.25h1.568c.546 0 1.023-.477 1.023-1.022 0-.546-.477-1.023-1.023-1.023H38.25h2.045c.546 0 1.023-.477 1.023-1.023 0-.545-.477-1.023-1.023-1.023H38.25h1.568c.546 0 1.023-.477 1.023-1.022 0-.546-.477-1.023-1.023-1.023H38.25h1.568v-.34c0-.955-.75-1.705-1.704-1.705h-6.069v-.75c0-.682-.545-1.296-1.295-1.296h-1.023c-.545 0-1.159.205-1.568.614l-2.59 1.84h-2.933z"/>
            <path d="M31.977 32.5h7.773v-3.136l.273-.341c.818-1.023 1.772-2.25 1.772-3.546v-7.704c0-1.023-.886-1.91-1.909-1.91h-.136v1.023-1.568c0-.545-.477-1.023-1.023-1.023-.545 0-1.022.478-1.022 1.023v1.568-2.045c0-.546-.478-1.023-1.023-1.023-.546 0-1.023.477-1.023 1.023v2.045-1.568c0-.545-.477-1.023-1.023-1.023-.545 0-1.022.478-1.022 1.023v1.568-1.568h-.341c-.955 0-1.705.75-1.705 1.705v6.068h-.75c-.682 0-1.295.545-1.295 1.295v.887c0 .545.204 1.159.613 1.568l1.841 2.59V32.5z"/>
            <path d="M31.432 22.886v-7.772h-3.068l-.341-.273c-1.023-.818-2.25-1.773-3.546-1.773h-7.704c-1.023 0-1.91.887-1.91 1.91v.136h1.023-1.568c-.545 0-1.023.477-1.023 1.022 0 .546.478 1.023 1.023 1.023h1.568-2.045c-.546 0-1.023.477-1.023 1.023 0 .545.477 1.023 1.023 1.023h2.045-1.568c-.545 0-1.023.477-1.023 1.022 0 .546.478 1.023 1.023 1.023h1.568-1.568v.34c0 .955.75 1.705 1.705 1.705h6.068v.75c0 .682.545 1.296 1.295 1.296h.887c.545 0 1.159-.205 1.568-.614l2.59-1.84h3z"/>
        </g>
    </g>
</svg>
