<svg xmlns="http://www.w3.org/2000/svg" width="55" height="55" viewBox="0 0 55 55">
    <g fill="none" fill-rule="evenodd">
        <path fill="#5080F4" d="M17.947 0h19.106c6.24 0 8.503.65 10.785 1.87a12.721 12.721 0 0 1 5.292 5.292C54.35 9.444 55 11.707 55 17.947v19.106c0 6.24-.65 8.503-1.87 10.785a12.721 12.721 0 0 1-5.292 5.292C45.556 54.35 43.293 55 37.053 55H17.947c-6.24 0-8.503-.65-10.785-1.87a12.721 12.721 0 0 1-5.292-5.292C.65 45.556 0 43.293 0 37.053V17.947c0-6.24.65-8.503 1.87-10.785A12.721 12.721 0 0 1 7.162 1.87C9.444.65 11.707 0 17.947 0z" opacity=".104"/>
        <path fill="#06F" d="M42.378 35.089v-.311H26.822v.312a5.878 5.878 0 0 1-1.181 3.544l-.377.5h13.07a4.05 4.05 0 0 0 4.044-4.045zm-17.422-1.245c0-.514.418-.933.933-.933h10.267V16.422c0-.857-.698-1.555-1.556-1.555H18.422c-.857 0-1.555.698-1.555 1.555V35.09a4.05 4.05 0 0 0 4.044 4.044 4.05 4.05 0 0 0 4.045-4.044v-1.245zm19.288 0v1.245A5.918 5.918 0 0 1 38.334 41H20.91A5.918 5.918 0 0 1 15 35.089V16.422A3.426 3.426 0 0 1 18.422 13H34.6a3.426 3.426 0 0 1 3.422 3.422v16.49h5.29c.514 0 .932.418.932.932zM32.111 17.978a.934.934 0 0 1 0 1.866h-11.2a.934.934 0 0 1 0-1.866h11.2zm0 4.978a.934.934 0 0 1 0 1.866h-11.2a.934.934 0 0 1 0-1.866h11.2zm-11.2 4.977h4.894a.934.934 0 0 1 0 1.867h-4.894a.934.934 0 0 1 0-1.867z"/>
    </g>
</svg>
