<svg width="375" height="276" viewBox="0 0 375 276" fill="none" xmlns="http://www.w3.org/2000/svg">
<g opacity="0.16">
<path fill-rule="evenodd" clip-rule="evenodd" d="M463.825 242.156C463.825 213.351 440.471 190 411.663 190C382.854 190 359.501 213.351 359.501 242.156C359.501 270.961 382.854 294.312 411.663 294.312C440.471 294.312 463.825 270.961 463.825 242.156Z" stroke="white" stroke-width="3.658"/>
</g>
<g opacity="0.16">
<path fill-rule="evenodd" clip-rule="evenodd" d="M10.6009 124.612H10.6004L10.6004 294.245H10.6009C48.5676 294.245 79.3464 263.47 79.3464 225.507V193.349C79.3464 155.387 48.5676 124.612 10.6009 124.612Z" stroke="white" stroke-width="3.658"/>
<path fill-rule="evenodd" clip-rule="evenodd" d="M46.8754 124.611L-203.059 124.611C-238.925 124.611 -268 153.683 -268 189.545L46.8754 189.545C64.8087 189.545 79.3464 175.009 79.3464 157.079C79.3464 139.147 64.8087 124.611 46.8754 124.611Z" stroke="white" stroke-width="3.658"/>
<path fill-rule="evenodd" clip-rule="evenodd" d="M8.42292 261.986H-103.434C-121.252 261.986 -135.696 276.429 -135.696 294.245C-135.696 312.061 -121.252 326.503 -103.434 326.503H8.42292C26.2411 326.503 40.6853 312.061 40.6853 294.245C40.6853 276.429 26.2411 261.986 8.42292 261.986Z" stroke="white" stroke-width="3.658"/>
<path fill-rule="evenodd" clip-rule="evenodd" d="M-23.8392 294.245C-23.8392 276.429 -9.39505 261.986 8.42273 261.986C26.2414 261.986 40.6855 276.429 40.6855 294.245C40.6855 312.06 26.2414 326.503 8.42273 326.503C-9.39505 326.503 -23.8392 312.06 -23.8392 294.245Z" stroke="white" stroke-width="3.658"/>
<path fill-rule="evenodd" clip-rule="evenodd" d="M27.1839 52.1562C27.1839 23.3509 50.5376 -0.000108249 79.3463 -0.000108249C108.155 -0.000108249 131.508 23.3509 131.508 52.1562C131.508 80.961 108.155 104.312 79.3463 104.312C50.5376 104.312 27.1839 80.961 27.1839 52.1562Z" stroke="white" stroke-width="3.658"/>
<path d="M79.3464 211.233L79.3464 52.1562" stroke="white" stroke-width="3.658" stroke-linecap="round" stroke-linejoin="round"/>
<path fill-rule="evenodd" clip-rule="evenodd" d="M-17.0536 189.545H10.6006L10.6006 261.986H-89.5026C-89.5026 221.978 -57.0662 189.545 -17.0536 189.545Z" stroke="white" stroke-width="3.658"/>
<path fill-rule="evenodd" clip-rule="evenodd" d="M78.643 96.0466C78.643 96.0466 78.165 104.036 67.2352 102.177C67.2352 102.177 74.246 104.89 79.3464 104.312L78.643 96.0466Z" fill="white"/>
<path fill-rule="evenodd" clip-rule="evenodd" d="M78.5423 159.5C78.5423 159.5 78.1094 163.612 76.415 163.838C74.1535 164.139 71.7245 160.356 71.7245 160.356L75.6012 170.914L79.3462 181.855L78.7423 163.342L78.5423 159.5Z" fill="white"/>
<path fill-rule="evenodd" clip-rule="evenodd" d="M-19.5507 276.91C-19.5507 276.91 -15.3295 271.081 -17.3901 266.86C-19.4507 262.639 -28.4456 262.69 -28.4456 262.69L-25.2295 261.986L3.16357 262.187C3.16357 262.187 -12.6412 265.755 -19.5507 276.91Z" fill="white"/>
<path fill-rule="evenodd" clip-rule="evenodd" d="M22.1252 188.861C22.1252 188.861 11.3045 188.789 11.3045 177.735L10.3997 179.381L10.6006 189.545L21.4218 189.363L22.1252 188.861Z" fill="white"/>
</g>
</svg>
