<svg width="368" height="805" viewBox="0 0 368 805" fill="none" xmlns="http://www.w3.org/2000/svg">
<g opacity="0.0548968">
<path fill-rule="evenodd" clip-rule="evenodd" d="M245.133 488.094L245.133 244.547L1.58466 244.547L1.58466 488.094H245.133Z" stroke="black" stroke-width="1.2"/>
<path fill-rule="evenodd" clip-rule="evenodd" d="M366.906 488.094V244.547H245.133L245.133 488.094H366.906Z" stroke="black" stroke-width="1.2"/>
<path fill-rule="evenodd" clip-rule="evenodd" d="M245.133 803.707L245.133 488.094H1.58466L1.58466 803.707H245.133Z" stroke="black" stroke-width="1.2"/>
<path fill-rule="evenodd" clip-rule="evenodd" d="M172.578 773.274V773.274C172.578 784.142 163.767 792.954 152.898 792.954H92.6517C81.7829 792.954 72.9717 784.142 72.9717 773.274C72.9717 762.405 81.7829 753.594 92.6517 753.594H152.898C163.767 753.594 172.578 762.405 172.578 773.274Z" stroke="black" stroke-width="1.2"/>
<path fill-rule="evenodd" clip-rule="evenodd" d="M172.578 582.247V582.247C172.578 593.116 163.767 601.927 152.898 601.927H32.5349C21.6661 601.927 12.8533 593.116 12.8533 582.247C12.8533 571.378 21.6661 562.567 32.5349 562.567H152.898C163.767 562.567 172.578 571.378 172.578 582.247Z" stroke="black" stroke-width="1.2"/>
<path fill-rule="evenodd" clip-rule="evenodd" d="M232.697 645.901V645.901C232.697 656.77 223.886 665.581 213.015 665.581H152.77C141.9 665.581 133.089 656.77 133.089 645.901C133.089 635.032 141.9 626.221 152.77 626.221H213.015C223.886 626.221 232.697 635.032 232.697 645.901Z" stroke="black" stroke-width="1.2"/>
<path fill-rule="evenodd" clip-rule="evenodd" d="M172.578 518.593V518.593C172.578 529.462 163.767 538.273 152.898 538.273H92.6517C81.7829 538.273 72.9717 529.462 72.9717 518.593C72.9717 507.725 81.7829 498.913 92.6517 498.913H152.898C163.767 498.913 172.578 507.725 172.578 518.593Z" stroke="black" stroke-width="1.2"/>
<path fill-rule="evenodd" clip-rule="evenodd" d="M112.461 709.556V709.556C112.461 720.424 103.65 729.236 92.781 729.236H32.5346C21.6658 729.236 12.853 720.424 12.853 709.556C12.853 698.687 21.6658 689.876 32.5346 689.876H92.781C103.65 689.876 112.461 698.687 112.461 709.556Z" stroke="black" stroke-width="1.2"/>
<path fill-rule="evenodd" clip-rule="evenodd" d="M32.5984 753.465C43.5024 753.465 52.344 762.305 52.344 773.209C52.344 784.115 43.5024 792.955 32.5984 792.955C21.6944 792.955 12.8528 784.115 12.8528 773.209C12.8528 762.305 21.6944 753.465 32.5984 753.465Z" stroke="black" stroke-width="1.2"/>
<path fill-rule="evenodd" clip-rule="evenodd" d="M92.7156 753.465C103.62 753.465 112.461 762.305 112.461 773.209C112.461 784.115 103.62 792.955 92.7156 792.955C81.8116 792.955 72.9716 784.115 72.9716 773.209C72.9716 762.305 81.8116 753.465 92.7156 753.465Z" stroke="black" stroke-width="1.2"/>
<path fill-rule="evenodd" clip-rule="evenodd" d="M152.834 753.465C163.738 753.465 172.578 762.305 172.578 773.209C172.578 784.115 163.738 792.955 152.834 792.955C141.93 792.955 133.089 784.115 133.089 773.209C133.089 762.305 141.93 753.465 152.834 753.465Z" stroke="black" stroke-width="1.2"/>
<path fill-rule="evenodd" clip-rule="evenodd" d="M212.952 753.465C223.856 753.465 232.697 762.305 232.697 773.209C232.697 784.115 223.856 792.955 212.952 792.955C202.048 792.955 193.208 784.115 193.208 773.209C193.208 762.305 202.048 753.465 212.952 753.465Z" stroke="black" stroke-width="1.2"/>
<path fill-rule="evenodd" clip-rule="evenodd" d="M32.5984 689.81C43.5024 689.81 52.344 698.65 52.344 709.556C52.344 720.46 43.5024 729.3 32.5984 729.3C21.6944 729.3 12.8528 720.46 12.8528 709.556C12.8528 698.65 21.6944 689.81 32.5984 689.81Z" stroke="black" stroke-width="1.2"/>
<path fill-rule="evenodd" clip-rule="evenodd" d="M92.7156 689.81C103.62 689.81 112.461 698.65 112.461 709.556C112.461 720.46 103.62 729.3 92.7156 729.3C81.8116 729.3 72.9716 720.46 72.9716 709.556C72.9716 698.65 81.8116 689.81 92.7156 689.81Z" stroke="black" stroke-width="1.2"/>
<path fill-rule="evenodd" clip-rule="evenodd" d="M152.834 689.81C163.738 689.81 172.578 698.65 172.578 709.556C172.578 720.46 163.738 729.3 152.834 729.3C141.93 729.3 133.089 720.46 133.089 709.556C133.089 698.65 141.93 689.81 152.834 689.81Z" stroke="black" stroke-width="1.2"/>
<path fill-rule="evenodd" clip-rule="evenodd" d="M212.952 689.81C223.856 689.81 232.697 698.65 232.697 709.556C232.697 720.46 223.856 729.3 212.952 729.3C202.048 729.3 193.208 720.46 193.208 709.556C193.208 698.65 202.048 689.81 212.952 689.81Z" stroke="black" stroke-width="1.2"/>
<path fill-rule="evenodd" clip-rule="evenodd" d="M32.5984 626.157C43.5024 626.157 52.344 634.997 52.344 645.901C52.344 656.806 43.5024 665.646 32.5984 665.646C21.6944 665.646 12.8528 656.806 12.8528 645.901C12.8528 634.997 21.6944 626.157 32.5984 626.157Z" stroke="black" stroke-width="1.2"/>
<path fill-rule="evenodd" clip-rule="evenodd" d="M92.7156 626.157C103.62 626.157 112.461 634.997 112.461 645.901C112.461 656.806 103.62 665.646 92.7156 665.646C81.8116 665.646 72.9716 656.806 72.9716 645.901C72.9716 634.997 81.8116 626.157 92.7156 626.157Z" stroke="black" stroke-width="1.2"/>
<path fill-rule="evenodd" clip-rule="evenodd" d="M152.834 626.157C163.738 626.157 172.578 634.997 172.578 645.901C172.578 656.806 163.738 665.646 152.834 665.646C141.93 665.646 133.089 656.806 133.089 645.901C133.089 634.997 141.93 626.157 152.834 626.157Z" stroke="black" stroke-width="1.2"/>
<path fill-rule="evenodd" clip-rule="evenodd" d="M212.952 626.157C223.856 626.157 232.697 634.997 232.697 645.901C232.697 656.806 223.856 665.646 212.952 665.646C202.048 665.646 193.208 656.806 193.208 645.901C193.208 634.997 202.048 626.157 212.952 626.157Z" stroke="black" stroke-width="1.2"/>
<path fill-rule="evenodd" clip-rule="evenodd" d="M32.5984 562.503C43.5024 562.503 52.344 571.343 52.344 582.247C52.344 593.152 43.5024 601.992 32.5984 601.992C21.6944 601.992 12.8528 593.152 12.8528 582.247C12.8528 571.343 21.6944 562.503 32.5984 562.503Z" stroke="black" stroke-width="1.2"/>
<path fill-rule="evenodd" clip-rule="evenodd" d="M92.7156 562.503C103.62 562.503 112.461 571.343 112.461 582.247C112.461 593.152 103.62 601.992 92.7156 601.992C81.8116 601.992 72.9716 593.152 72.9716 582.247C72.9716 571.343 81.8116 562.503 92.7156 562.503Z" stroke="black" stroke-width="1.2"/>
<path fill-rule="evenodd" clip-rule="evenodd" d="M152.834 562.503C163.738 562.503 172.578 571.343 172.578 582.247C172.578 593.152 163.738 601.992 152.834 601.992C141.93 601.992 133.089 593.152 133.089 582.247C133.089 571.343 141.93 562.503 152.834 562.503Z" stroke="black" stroke-width="1.2"/>
<path fill-rule="evenodd" clip-rule="evenodd" d="M212.952 562.503C223.856 562.503 232.697 571.343 232.697 582.247C232.697 593.152 223.856 601.992 212.952 601.992C202.048 601.992 193.208 593.152 193.208 582.247C193.208 571.343 202.048 562.503 212.952 562.503Z" stroke="black" stroke-width="1.2"/>
<path fill-rule="evenodd" clip-rule="evenodd" d="M32.5984 498.849C43.5024 498.849 52.344 507.689 52.344 518.593C52.344 529.497 43.5024 538.338 32.5984 538.338C21.6944 538.338 12.8528 529.497 12.8528 518.593C12.8528 507.689 21.6944 498.849 32.5984 498.849Z" stroke="black" stroke-width="1.2"/>
<path fill-rule="evenodd" clip-rule="evenodd" d="M92.7156 498.849C103.62 498.849 112.461 507.689 112.461 518.593C112.461 529.497 103.62 538.338 92.7156 538.338C81.8116 538.338 72.9716 529.497 72.9716 518.593C72.9716 507.689 81.8116 498.849 92.7156 498.849Z" stroke="black" stroke-width="1.2"/>
<path fill-rule="evenodd" clip-rule="evenodd" d="M152.834 498.849C163.738 498.849 172.578 507.689 172.578 518.593C172.578 529.497 163.738 538.338 152.834 538.338C141.93 538.338 133.089 529.497 133.089 518.593C133.089 507.689 141.93 498.849 152.834 498.849Z" stroke="black" stroke-width="1.2"/>
<path fill-rule="evenodd" clip-rule="evenodd" d="M212.952 498.849C223.856 498.849 232.697 507.689 232.697 518.593C232.697 529.497 223.856 538.338 212.952 538.338C202.048 538.338 193.208 529.497 193.208 518.593C193.208 507.689 202.048 498.849 212.952 498.849Z" stroke="black" stroke-width="1.2"/>
<path fill-rule="evenodd" clip-rule="evenodd" d="M123.358 366.321C56.105 366.321 1.58496 420.841 1.58496 488.096H245.132C245.132 420.841 190.612 366.321 123.358 366.321Z" stroke="black" stroke-width="1.2"/>
<path fill-rule="evenodd" clip-rule="evenodd" d="M123.358 244.545C56.105 244.545 1.58496 299.065 1.58496 366.318H245.132C245.132 299.065 190.612 244.545 123.358 244.545Z" stroke="black" stroke-width="1.2"/>
<path fill-rule="evenodd" clip-rule="evenodd" d="M245.133 122.773C245.133 190.026 299.653 244.546 366.906 244.546V1C299.653 1 245.133 55.5184 245.133 122.773Z" stroke="black" stroke-width="1.2"/>
<path fill-rule="evenodd" clip-rule="evenodd" d="M366.908 803.707V488.096H245.133L245.133 803.707H366.908Z" stroke="black" stroke-width="1.2"/>
<path fill-rule="evenodd" clip-rule="evenodd" d="M366.908 753.594V718.474H258.585V753.594H366.908Z" stroke="black" stroke-width="1.2"/>
<path fill-rule="evenodd" clip-rule="evenodd" d="M366.908 696.981V661.859H258.585V696.981H366.908Z" stroke="black" stroke-width="1.2"/>
<path fill-rule="evenodd" clip-rule="evenodd" d="M366.908 640.368V605.246H258.585V640.368H366.908Z" stroke="black" stroke-width="1.2"/>
<path fill-rule="evenodd" clip-rule="evenodd" d="M366.908 583.755V548.635H258.585V583.755H366.908Z" stroke="black" stroke-width="1.2"/>
<path fill-rule="evenodd" clip-rule="evenodd" d="M366.908 366.319V488.095H245.133L366.908 366.319Z" stroke="black" stroke-width="1.2"/>
<path fill-rule="evenodd" clip-rule="evenodd" d="M366.908 244.543V366.319H245.133L366.908 244.543Z" stroke="black" stroke-width="1.2"/>
<path fill-rule="evenodd" clip-rule="evenodd" d="M1 82.1806L1 1.0014L122.774 1.0014L1 82.1806Z" stroke="black" stroke-width="1.2"/>
<path fill-rule="evenodd" clip-rule="evenodd" d="M1 163.36L1 82.1811L122.774 82.1811L1 163.36Z" stroke="black" stroke-width="1.2"/>
<path fill-rule="evenodd" clip-rule="evenodd" d="M1 244.542L1 163.361H122.774L1 244.542Z" stroke="black" stroke-width="1.2"/>
<path fill-rule="evenodd" clip-rule="evenodd" d="M232.697 32.5979C232.697 43.5019 223.857 52.3419 212.951 52.3419C202.047 52.3419 193.207 43.5019 193.207 32.5979C193.207 21.6939 202.047 12.8523 212.951 12.8523C223.857 12.8523 232.697 21.6939 232.697 32.5979Z" stroke="black" stroke-width="1.2"/>
<path fill-rule="evenodd" clip-rule="evenodd" d="M232.697 92.715C232.697 103.619 223.857 112.461 212.951 112.461C202.047 112.461 193.207 103.619 193.207 92.715C193.207 81.811 202.047 72.971 212.951 72.971C223.857 72.971 232.697 81.811 232.697 92.715Z" stroke="black" stroke-width="1.2"/>
<path fill-rule="evenodd" clip-rule="evenodd" d="M232.697 152.834C232.697 163.738 223.857 172.578 212.951 172.578C202.047 172.578 193.207 163.738 193.207 152.834C193.207 141.93 202.047 133.088 212.951 133.088C223.857 133.088 232.697 141.93 232.697 152.834Z" stroke="black" stroke-width="1.2"/>
<path fill-rule="evenodd" clip-rule="evenodd" d="M232.697 212.951C232.697 223.855 223.857 232.697 212.951 232.697C202.047 232.697 193.207 223.855 193.207 212.951C193.207 202.047 202.047 193.207 212.951 193.207C223.857 193.207 232.697 202.047 232.697 212.951Z" stroke="black" stroke-width="1.2"/>
<path fill-rule="evenodd" clip-rule="evenodd" d="M177.736 32.5979C177.736 43.5019 168.896 52.3419 157.99 52.3419C147.086 52.3419 138.246 43.5019 138.246 32.5979C138.246 21.6939 147.086 12.8523 157.99 12.8523C168.896 12.8523 177.736 21.6939 177.736 32.5979Z" stroke="black" stroke-width="1.2"/>
<path fill-rule="evenodd" clip-rule="evenodd" d="M177.736 92.715C177.736 103.619 168.896 112.461 157.99 112.461C147.086 112.461 138.246 103.619 138.246 92.715C138.246 81.811 147.086 72.971 157.99 72.971C168.896 72.971 177.736 81.811 177.736 92.715Z" stroke="black" stroke-width="1.2"/>
<path fill-rule="evenodd" clip-rule="evenodd" d="M177.736 152.834C177.736 163.738 168.896 172.578 157.99 172.578C147.086 172.578 138.246 163.738 138.246 152.834C138.246 141.93 147.086 133.088 157.99 133.088C168.896 133.088 177.736 141.93 177.736 152.834Z" stroke="black" stroke-width="1.2"/>
<path fill-rule="evenodd" clip-rule="evenodd" d="M177.736 212.951C177.736 223.855 168.896 232.697 157.99 232.697C147.086 232.697 138.246 223.855 138.246 212.951C138.246 202.047 147.086 193.207 157.99 193.207C168.896 193.207 177.736 202.047 177.736 212.951Z" stroke="black" stroke-width="1.2"/>
</g>
</svg>
