<svg width="32" height="32" viewBox="0 0 32 32" fill="none" xmlns="http://www.w3.org/2000/svg">
    <path d="M16 0C7.17765 0 0 7.17749 0 16C0 24.8225 7.17765 32.0002 16 32.0002C24.8223 32.0002 32 24.8225 32 16C32 7.17749 24.8225 0 16 0ZM25.1875 13.2975L15.1355 23.3495C14.7081 23.7769 14.1399 24.0121 13.5355 24.0121C12.9312 24.0121 12.363 23.7769 11.9356 23.3495L6.81252 18.2264C6.38511 17.799 6.1497 17.2308 6.1497 16.6264C6.1497 16.0219 6.38511 15.4537 6.81252 15.0263C7.23976 14.5989 7.80792 14.3635 8.41247 14.3635C9.01685 14.3635 9.58517 14.5989 10.0124 15.0265L13.5354 18.5493L21.9872 10.0974C22.4147 9.66999 22.9828 9.43474 23.5872 9.43474C24.1916 9.43474 24.7597 9.66999 25.1871 10.0974C26.0697 10.9799 26.0697 12.4153 25.1875 13.2975Z" fill="#005D63"/>
</svg>
    