<svg width="16" height="16" viewBox="0 0 16 16" fill="none" xmlns="http://www.w3.org/2000/svg">
    <path d="M15.4592 3.15143L10.6113 7.99984L15.4592 12.848C16.1803 13.5694 16.1803 14.7379 15.4592 15.4593C15.0989 15.8196 14.6265 15.9999 14.1544 15.9999C13.6814 15.9999 13.209 15.8199 12.849 15.4593L8.00002 10.6106L3.15143 15.4593C2.79118 15.8196 2.31876 15.9999 1.8462 15.9999C1.37378 15.9999 0.901676 15.8198 0.541102 15.4593C-0.18 14.7382 -0.18 13.5696 0.541102 12.848L5.38887 7.99979L0.540827 3.15143C-0.180276 2.43033 -0.180276 1.26152 0.540827 0.540413C1.26179 -0.180138 2.42991 -0.180138 3.15115 0.540413L7.99998 5.38883L12.8484 0.540413C13.5698 -0.180138 14.7381 -0.180138 15.4589 0.540413C16.1803 1.26152 16.1803 2.43033 15.4592 3.15143Z" fill="#8E94A0"/>
</svg>
    