<svg xmlns="http://www.w3.org/2000/svg" width="20" height="20" viewBox="0 0 20 20">
    <g fill="red">
        <path d="M10 .059C4.5.059.059 4.529.059 10c0 5.5 4.47 9.941 9.941 9.941 5.5 0 9.941-4.47 9.941-9.941C19.941 4.5 15.5.059 10 .059zm0 18.47c-4.706 0-8.53-3.823-8.53-8.529 0-4.706 3.824-8.53 8.53-8.53 4.706 0 8.53 3.824 8.53 8.53 0 4.706-3.824 8.53-8.53 8.53z"/>
        <path d="M10 14.5c-.235 0-.441-.088-.588-.235-.118-.147-.206-.324-.206-.56 0-.205.088-.41.235-.558.294-.294.824-.294 1.118 0 .147.147.235.353.235.559 0 .235-.088.412-.235.559-.147.176-.353.235-.559.235zM10 11.265c-.441 0-.794-.353-.794-.794V6.294c0-.441.353-.794.794-.794.441 0 .794.353.794.794v4.177c0 .44-.353.794-.794.794z"/>
    </g>
</svg>
