<svg xmlns="http://www.w3.org/2000/svg" width="742.055" height="529.058" viewBox="0 0 742.055 529.058">
  <g id="Group_45" data-name="Group 45" transform="translate(310.751 -1687.367)">
    <path id="Path_1" data-name="Path 1" d="M737.495,553.106H671.76a65.736,65.736,0,0,0-65.735,65.736h0a65.735,65.735,0,1,0,131.47,0Z" transform="translate(-916.776 1531.846)" fill="#001a64" fill-rule="evenodd"/>
    <path id="Path_2" data-name="Path 2" d="M833.4,411.892H1046.73a141.22,141.22,0,0,1,141.22,141.215H974.611A141.213,141.213,0,0,1,833.4,411.893Z" transform="translate(-916.776 1531.846)" fill="#06f" fill-rule="evenodd"/>
    <path id="Path_3" data-name="Path 3" d="M929.3,411.892A95.9,95.9,0,1,0,833.4,507.8,95.9,95.9,0,0,0,929.3,411.892Z" transform="translate(-916.776 1531.846)" fill="#94e0ff" fill-rule="evenodd"/>
    <path id="Path_4" data-name="Path 4" d="M737.495,411.892A95.9,95.9,0,0,1,833.4,507.8v45.309h-95.9Z" transform="translate(-916.776 1531.846)" fill="#06f" fill-rule="evenodd"/>
    <path id="Path_5" data-name="Path 5" d="M737.495,553.106h95.9V684.579a95.905,95.905,0,0,1-95.9-95.906Z" transform="translate(-916.776 1531.846)" fill="#001a64" fill-rule="evenodd"/>
    <path id="Path_6" data-name="Path 6" d="M676.888,618.843H800.531a32.868,32.868,0,0,0,0-65.737H676.888a32.868,32.868,0,0,0,0,65.737Z" transform="translate(-916.776 1531.846)" fill="#0035af" fill-rule="evenodd"/>
    <path id="Path_7" data-name="Path 7" d="M676.888,618.843h27.739a32.868,32.868,0,0,0,0-65.737H676.888a32.868,32.868,0,0,0,0,65.737Z" transform="translate(-916.776 1531.846)" fill="#94e0ff" fill-rule="evenodd"/>
    <path id="Path_8" data-name="Path 8" d="M1187.95,684.579H964.869V553.106H1187.95Z" transform="translate(-916.776 1531.846)" fill="#001a64" fill-rule="evenodd"/>
    <path id="Path_9" data-name="Path 9" d="M1187.94,270.678V553.107a141.214,141.214,0,0,1,0-282.429Z" transform="translate(-916.776 1531.846)" fill="#0035af" fill-rule="evenodd"/>
    <path id="Path_10" data-name="Path 10" d="M833.4,618.843a65.735,65.735,0,1,0,65.735-65.737A65.736,65.736,0,0,0,833.4,618.843Z" transform="translate(-916.776 1531.846)" fill="#94e0ff" fill-rule="evenodd"/>
    <path id="Path_11" data-name="Path 11" d="M833.4,684.579h65.736A65.736,65.736,0,0,0,833.4,618.843Z" transform="translate(-916.776 1531.846)" fill="#06f" fill-rule="evenodd"/>
    <path id="Path_83" data-name="Path 83" d="M689.292,649.771h64.344V586.819H691.421a33.4,33.4,0,0,1-33.358-33.359v-1.8a33.374,33.374,0,0,1,16.806-28.944,64.348,64.348,0,0,0,14.423,127.058Zm68.689-65.736q-.867-2.791-1.562-5.655v5.655Zm91.558,65.726v-82.98a33.4,33.4,0,0,1-30.574,20.038H761.844A94.679,94.679,0,0,0,849.539,649.761Zm47.991.01a67.411,67.411,0,0,1-45.208-45.208v45.208Zm-45.189-62.936a64.42,64.42,0,0,0,62.918,62.919A64.425,64.425,0,0,0,852.341,586.835Zm128.669-1.408a64.342,64.342,0,0,0-128.67-1.373,67.2,67.2,0,0,1,65.7,65.7A64.419,64.419,0,0,0,981.01,585.427Zm2.783,64.344H1204.08V521.082H983.793Zm223.077,0h128.68c-.75-70.625-58.06-127.937-128.68-128.681ZM1345.3,378.476a140.063,140.063,0,0,0-92.37-131.527v27.025a45.03,45.03,0,0,1-90.06,0V245.3c-55.91,17.929-96.6,70.154-97.2,131.8,77.52.755,140.42,63.664,141.18,141.18C1283.32,517.541,1345.3,455.115,1345.3,378.476Zm-95.15-132.505a139.968,139.968,0,0,0-84.49-1.531v29.535a42.245,42.245,0,1,0,84.49,0Zm0-45.421a42.245,42.245,0,1,0-84.49,0v40.986a142.706,142.706,0,0,1,84.49,1.508ZM850.931,283.963a94.618,94.618,0,0,0-94.494,93.121H945.426A94.616,94.616,0,0,0,850.931,283.963ZM756.419,518.3h93.12V475.756a97.466,97.466,0,0,1-93.12-74.158Zm93.12,33.359a30.61,30.61,0,0,0-30.574-30.576H756.419v34.176a94.179,94.179,0,0,0,4.485,28.778h58.061a30.61,30.61,0,0,0,30.574-30.576Zm0-30.576H832.285a33.557,33.557,0,0,1,17.254,17.255Zm34.474-54.072a94.673,94.673,0,0,0,61.413-87.142h-93.1A139.166,139.166,0,0,0,884.013,467.01Zm-31.69,5.963a94.121,94.121,0,0,0,28.913-4.965,142.115,142.115,0,0,1-28.913-61.447Zm-95.887-93.1a94.616,94.616,0,0,0,93.1,93.1v-93.1ZM1204.08,518.281c-.76-75.979-62.43-137.64-138.41-138.4C1066.43,455.87,1128.09,517.531,1204.08,518.281ZM1062.89,379.868H948.209a97.459,97.459,0,0,1-62.3,89.4A139.551,139.551,0,0,0,992.143,518.3H1177.39C1112.6,505.307,1063.55,448.272,1062.89,379.868ZM852.322,553.46v12.831a67.13,67.13,0,0,1,128.688,0V520.65a142.424,142.424,0,0,1-97.886-50.357,96.81,96.81,0,0,1-30.8,5.463v77.7Zm-160.9-32.378a30.611,30.611,0,0,0-30.575,30.576v1.8a30.611,30.611,0,0,0,30.575,30.576h62.215V521.082Zm-2.129-2.783h64.343V377.084h.018a97.287,97.287,0,0,1,194.555,0H1062.89c.61-63.192,42.52-116.685,99.98-134.712V200.549a45.03,45.03,0,0,1,90.06,0V244c55.37,19.6,95.15,72.476,95.15,134.478,0,72.006-53.65,131.709-123.07,141.263,64.03,9.477,113.33,64.8,113.33,131.424v1.392H981.009V604.563a67.252,67.252,0,0,1-62.952,47.975v.017H849.539v-.017a97.47,97.47,0,0,1-90.647-65.719h-2.473v65.736H689.292a67.128,67.128,0,0,1,0-134.256Z" transform="translate(-916.776 1531.846)" fill="#edf1f7" fill-rule="evenodd"/>
  </g>
</svg>
