<svg width="60" height="60" viewBox="0 0 60 60" fill="none" xmlns="http://www.w3.org/2000/svg">
<rect width="60" height="60" rx="16" fill="#F7DCE3"/>
<path fill-rule="evenodd" clip-rule="evenodd" d="M13 42.3627C13 42.7726 13.1628 43.1658 13.4527 43.4557C13.7425 43.7456 14.1356 43.9084 14.5455 43.9084H16.0909C21.4193 43.9084 26.5296 41.7913 30.2973 38.0228C34.0651 34.2543 36.1818 29.1432 36.1818 23.8137V18.2722L38.1832 20.2662C38.4788 20.5195 38.8591 20.6518 39.2481 20.6368C39.637 20.6217 40.006 20.4605 40.2812 20.1852C40.5565 19.9099 40.7177 19.5409 40.7327 19.1518C40.7478 18.7628 40.6155 18.3824 40.3623 18.0867L35.7259 13.4495C35.4363 13.1616 35.0446 13 34.6364 13C34.2281 13 33.8364 13.1616 33.5468 13.4495L28.9105 18.0867C28.6573 18.3824 28.525 18.7628 28.54 19.1518C28.555 19.5409 28.7163 19.9099 28.9915 20.1852C29.2667 20.4605 29.6357 20.6217 30.0246 20.6368C30.4136 20.6518 30.7939 20.5195 31.0895 20.2662L33.0909 18.2722V23.8137C33.0909 28.3232 31.2998 32.6481 28.1117 35.8368C24.9236 39.0255 20.5996 40.8169 16.0909 40.8169H14.5455C14.1356 40.8169 13.7425 40.9798 13.4527 41.2697C13.1628 41.5595 13 41.9527 13 42.3627ZM15.0002 32.6315C15.2897 32.9194 15.6814 33.081 16.0897 33.081C16.498 33.081 16.8897 32.9194 17.1793 32.6315L19.9534 29.8646L22.7275 32.6315C23.0231 32.8847 23.4034 33.017 23.7924 33.002C24.1813 32.987 24.5503 32.8257 24.8255 32.5504C25.1007 32.2751 25.262 31.9061 25.277 31.5171C25.292 31.1281 25.1597 30.7477 24.9066 30.452L22.1402 27.6774L24.9066 24.9028C25.1597 24.607 25.292 24.2267 25.277 23.8377C25.262 23.4486 25.1007 23.0796 24.8255 22.8043C24.5503 22.529 24.1813 22.3677 23.7924 22.3527C23.4034 22.3377 23.0231 22.47 22.7275 22.7232L19.9534 25.4901L17.1793 22.7232C16.8836 22.47 16.5033 22.3377 16.1144 22.3527C15.7254 22.3677 15.3565 22.529 15.0812 22.8043C14.806 23.0796 14.6447 23.4486 14.6297 23.8377C14.6147 24.2267 14.747 24.607 15.0002 24.9028L17.7665 27.6774L15.0002 30.452C14.7123 30.7416 14.5508 31.1334 14.5508 31.5417C14.5508 31.9501 14.7123 32.3419 15.0002 32.6315ZM45.9585 37.3807C46.6378 38.3975 47.0004 39.5929 47.0004 40.8158C47.0004 42.4556 46.3491 44.0283 45.1897 45.1878C44.0304 46.3474 42.4581 46.9988 40.8185 46.9988C39.5959 46.9988 38.4007 46.6362 37.3841 45.9568C36.3675 45.2774 35.5752 44.3117 35.1073 43.1819C34.6394 42.0521 34.517 40.8089 34.7555 39.6096C34.994 38.4102 35.5828 37.3085 36.4473 36.4438C37.3119 35.5791 38.4134 34.9902 39.6125 34.7516C40.8117 34.513 42.0546 34.6355 43.1842 35.1035C44.3138 35.5714 45.2793 36.3639 45.9585 37.3807ZM39.1013 43.3863C39.6096 43.726 40.2072 43.9073 40.8185 43.9073C41.6383 43.9073 42.4245 43.5816 43.0041 43.0018C43.5838 42.4221 43.9094 41.6357 43.9094 40.8158C43.9094 40.2044 43.7282 39.6067 43.3885 39.0983C43.0489 38.5899 42.5662 38.1936 42.0014 37.9596C41.4366 37.7256 40.8151 37.6644 40.2155 37.7837C39.616 37.903 39.0652 38.1974 38.6329 38.6298C38.2007 39.0621 37.9063 39.613 37.787 40.2127C37.6678 40.8124 37.729 41.434 37.9629 41.9989C38.1969 42.5638 38.593 43.0466 39.1013 43.3863Z" fill="#F5496B"/>
</svg>
