<svg width="343" height="234" viewBox="0 0 343 234" fill="none" xmlns="http://www.w3.org/2000/svg">
<g opacity="0.1">
<path fill-rule="evenodd" clip-rule="evenodd" d="M13.8144 57.1948H13.8153L13.8153 396.46H13.8144C-62.1189 396.46 -123.677 334.911 -123.677 258.986V194.67C-123.677 118.745 -62.1189 57.1948 13.8144 57.1948Z" stroke="white" stroke-width="3.658"/>
<path fill-rule="evenodd" clip-rule="evenodd" d="M-58.7345 57.1949L441.133 57.1949C512.865 57.1949 571.015 115.339 571.015 187.063L-58.7345 187.063C-94.6012 187.063 -123.677 157.991 -123.677 122.129C-123.677 86.2668 -94.6012 57.1949 -58.7345 57.1949Z" stroke="white" stroke-width="3.658"/>
<path fill-rule="evenodd" clip-rule="evenodd" d="M291.641 187.062C291.641 242.769 336.806 287.928 392.519 287.928C448.232 287.928 493.395 242.769 493.395 187.062C493.395 131.356 448.232 86.1973 392.519 86.1973C336.806 86.1973 291.641 131.356 291.641 187.062Z" stroke="white" stroke-width="3.658"/>
<path fill-rule="evenodd" clip-rule="evenodd" d="M69.1232 187.063H13.8149L13.8149 331.943H214.021C214.021 251.929 149.148 187.063 69.1232 187.063Z" stroke="white" stroke-width="3.658"/>
<path d="M173.082 110.658V2.12504" stroke="white" stroke-width="3.658" stroke-linecap="round" stroke-linejoin="round"/>
<path fill-rule="evenodd" clip-rule="evenodd" d="M-9.23438 185.693C-9.23438 185.693 12.4072 185.55 12.4072 163.442L14.2167 166.733L13.815 187.062L-7.82745 186.697L-9.23438 185.693Z" fill="white"/>
</g>
</svg>
