<svg width="60" height="60" viewBox="0 0 60 60" fill="none" xmlns="http://www.w3.org/2000/svg">
<rect width="60" height="60" rx="16" fill="#F7F8FA"/>
<g clip-path="url(#clip0)">
<path fill-rule="evenodd" clip-rule="evenodd" d="M30.2695 12C20.3245 12 12.2695 20.055 12.2695 30C12.2695 37.965 17.422 44.6925 24.577 47.0775C25.477 47.235 25.8145 46.695 25.8145 46.2225C25.8145 45.795 25.792 44.3775 25.792 42.87C21.2695 43.7025 20.0995 41.7675 19.7395 40.755C19.537 40.2375 18.6595 38.64 17.8945 38.2125C17.2645 37.875 16.3645 37.0425 17.872 37.02C19.2895 36.9975 20.302 38.325 20.6395 38.865C22.2595 41.5875 24.847 40.8225 25.882 40.35C26.0395 39.18 26.512 38.3925 27.0295 37.9425C23.0245 37.4925 18.8395 35.94 18.8395 29.055C18.8395 27.0975 19.537 25.4775 20.6845 24.2175C20.5045 23.7675 19.8745 21.9225 20.8645 19.4475C20.8645 19.4475 22.372 18.975 25.8145 21.2925C27.2545 20.8875 28.7845 20.685 30.3145 20.685C31.8445 20.685 33.3745 20.8875 34.8145 21.2925C38.257 18.9525 39.7645 19.4475 39.7645 19.4475C40.7545 21.9225 40.1245 23.7675 39.9445 24.2175C41.092 25.4775 41.7895 27.075 41.7895 29.055C41.7895 35.9625 37.582 37.4925 33.577 37.9425C34.2295 38.505 34.792 39.585 34.792 41.2725C34.792 43.68 34.7695 45.615 34.7695 46.2225C34.7695 46.695 35.107 47.2575 36.007 47.0775C43.117 44.6925 48.2695 37.9425 48.2695 30C48.2695 20.055 40.2145 12 30.2695 12Z" fill="#1B1F23"/>
</g>
<defs>
<clipPath id="clip0">
<rect width="36" height="36" fill="white" transform="translate(12.2695 12)"/>
</clipPath>
</defs>
</svg>
