<svg width="80" height="80" viewBox="0 0 80 80" fill="none" xmlns="http://www.w3.org/2000/svg">
<rect opacity="0.195126" width="80" height="80" rx="24" fill="#DC2424"/>
<path fill-rule="evenodd" clip-rule="evenodd" d="M23.5185 50.8333C23.1523 50.2765 22.8157 49.7007 22.5102 49.1083C22.0234 48.1396 21.8795 47.0345 22.102 45.9735C22.3245 44.9124 22.9002 43.9582 23.7352 43.2667L25.4018 41.8333C25.2463 40.6161 25.2463 39.3839 25.4018 38.1667L23.7352 36.7333C22.9122 36.035 22.3457 35.0821 22.1253 34.0256C21.9049 32.969 22.0433 31.8691 22.5185 30.9C22.8193 30.3041 23.1532 29.7254 23.5185 29.1667C24.1174 28.2609 25.0034 27.5828 26.0341 27.2412C27.0649 26.8996 28.1805 26.9145 29.2018 27.2833L31.2935 28.0333C32.27 27.2904 33.3369 26.6744 34.4685 26.2L34.8185 23.9917C35.0147 22.9043 35.5757 21.9163 36.4089 21.1906C37.2421 20.465 38.2978 20.045 39.4018 20H41.1352C42.2445 20.042 43.3059 20.4627 44.1429 21.192C44.9798 21.9213 45.5417 22.9152 45.7352 24.0083L46.1352 26.2C47.2734 26.6783 48.346 27.3 49.3268 28.05L51.4185 27.3C52.4358 26.9337 53.5465 26.9185 54.5735 27.2568C55.6005 27.5951 56.4847 28.2674 57.0852 29.1667C57.4514 29.7235 57.788 30.2993 58.0935 30.8917C58.5677 31.8616 58.7048 32.9621 58.4829 34.0187C58.261 35.0754 57.6928 36.0277 56.8685 36.725L55.2018 38.1583C55.3573 39.3756 55.3573 40.6077 55.2018 41.825L56.8685 43.2583C57.7039 43.9478 58.2795 44.9011 58.5007 45.9614C58.7218 47.0218 58.5753 48.1258 58.0852 49.0917C57.7862 49.6913 57.4523 50.2728 57.0852 50.8333C56.4862 51.7391 55.6003 52.4172 54.5695 52.7588C53.5388 53.1004 52.4231 53.0855 51.4018 52.7167L49.3102 51.9667C48.3316 52.7066 47.2652 53.3224 46.1352 53.8L45.7185 56.0083C45.5223 57.0957 44.9613 58.0837 44.1281 58.8094C43.2949 59.535 42.2392 59.955 41.1352 60H40.3018H39.4685C38.3592 59.958 37.2977 59.5373 36.4608 58.808C35.6239 58.0787 35.0619 57.0848 34.8685 55.9917L34.4685 53.8C33.3318 53.3184 32.2597 52.6969 31.2768 51.95L29.1852 52.7C28.1678 53.0663 27.0571 53.0815 26.0301 52.7432C25.0031 52.4049 24.119 51.7326 23.5185 50.8333ZM28.2935 43.7417L25.8935 45.775V45.8333C25.6378 46.0417 25.4588 46.3293 25.3848 46.6508C25.3109 46.9722 25.3462 47.3092 25.4852 47.6083C25.7367 48.1063 26.0149 48.5903 26.3185 49.0583C26.5086 49.3301 26.7843 49.5302 27.1015 49.6269C27.4187 49.7236 27.7592 49.7112 28.0685 49.5917L31.0352 48.5333C31.2142 48.4683 31.403 48.4345 31.5935 48.4333C31.9947 48.4336 32.3823 48.5786 32.6852 48.8417C33.7976 49.8011 35.0812 50.5419 36.4685 51.025C36.747 51.1219 36.9948 51.291 37.1865 51.515C37.3783 51.739 37.5073 52.0099 37.5602 52.3L38.1268 55.4083C38.1927 55.7532 38.3736 56.0654 38.64 56.294C38.9065 56.5226 39.2426 56.654 39.5935 56.6667C40.0654 56.6917 40.5383 56.6917 41.0102 56.6667C41.3569 56.6508 41.6883 56.5189 41.9512 56.2923C42.2141 56.0656 42.3933 55.7573 42.4602 55.4167L43.0268 52.3083C43.0797 52.0182 43.2086 51.7474 43.4004 51.5234C43.5922 51.2994 43.84 51.1303 44.1185 51.0333C45.5058 50.5502 46.7894 49.8095 47.9018 48.85C48.1267 48.6542 48.3999 48.5224 48.693 48.4681C48.9862 48.4139 49.2885 48.4393 49.5685 48.5417L52.5352 49.6C52.8445 49.7195 53.185 49.7319 53.5022 49.6352C53.8194 49.5386 54.0951 49.3384 54.2852 49.0667C54.5887 48.5986 54.8669 48.1146 55.1185 47.6167C55.2596 47.3165 55.296 46.9778 55.222 46.6546C55.148 46.3313 54.9678 46.0422 54.7102 45.8333L52.3185 43.75C52.0922 43.56 51.9204 43.3133 51.8208 43.035C51.7212 42.7568 51.6974 42.4571 51.7518 42.1667C52.0408 40.7198 52.0408 39.2302 51.7518 37.7833C51.6974 37.4929 51.7212 37.1932 51.8208 36.915C51.9204 36.6367 52.0922 36.39 52.3185 36.2L54.7102 34.1667C54.9687 33.9605 55.151 33.6739 55.228 33.3523C55.305 33.0307 55.2723 32.6926 55.1352 32.3917C54.8836 31.8937 54.6054 31.4097 54.3018 30.9417C54.1108 30.6711 53.835 30.4718 53.5182 30.3752C53.2013 30.2787 52.8613 30.2903 52.5518 30.4083L49.5852 31.4667C49.3052 31.569 49.0028 31.5944 48.7097 31.5402C48.4166 31.486 48.1433 31.3541 47.9185 31.1583C46.8061 30.1989 45.5225 29.4581 44.1352 28.975C43.8567 28.8781 43.6089 28.709 43.4171 28.485C43.2253 28.261 43.0964 27.9901 43.0435 27.7L42.4768 24.5833C42.4093 24.24 42.2276 23.9297 41.9614 23.7027C41.6951 23.4758 41.3598 23.3456 41.0102 23.3333C40.5383 23.3083 40.0654 23.3083 39.5935 23.3333C39.2467 23.3492 38.9154 23.4811 38.6524 23.7077C38.3895 23.9344 38.2103 24.2427 38.1435 24.5833L37.5768 27.6917C37.5239 27.9818 37.395 28.2526 37.2032 28.4766C37.0114 28.7006 36.7636 28.8697 36.4852 28.9667C35.0978 29.4498 33.8142 30.1905 32.7018 31.15C32.477 31.3458 32.2038 31.4776 31.9106 31.5319C31.6175 31.5861 31.3151 31.5607 31.0352 31.4583L28.0685 30.4C27.759 30.282 27.419 30.2703 27.1021 30.3669C26.7853 30.4635 26.5096 30.6627 26.3185 30.9333C26.0149 31.4014 25.7367 31.8854 25.4852 32.3833C25.3441 32.6835 25.3076 33.0222 25.3817 33.3454C25.4557 33.6687 25.6359 33.9578 25.8935 34.1667L28.2935 36.1917C28.5183 36.3826 28.6885 36.6297 28.7866 36.9079C28.8847 37.1861 28.9072 37.4853 28.8518 37.775C28.5629 39.2218 28.5629 40.7115 28.8518 42.1583C28.9072 42.448 28.8847 42.7473 28.7866 43.0254C28.6885 43.3036 28.5183 43.5508 28.2935 43.7417ZM44.0056 45.5431C42.9093 46.2757 41.6203 46.6667 40.3018 46.6667C38.5337 46.6667 36.838 45.9643 35.5878 44.714C34.3375 43.4638 33.6351 41.7681 33.6351 40C33.6351 38.6815 34.0261 37.3925 34.7587 36.2962C35.4912 35.1999 36.5324 34.3454 37.7506 33.8408C38.9687 33.3362 40.3092 33.2042 41.6024 33.4614C42.8956 33.7187 44.0835 34.3536 45.0158 35.286C45.9482 36.2183 46.5831 37.4062 46.8404 38.6994C47.0976 39.9926 46.9656 41.3331 46.461 42.5512C45.9564 43.7694 45.1019 44.8106 44.0056 45.5431ZM42.1537 37.2284C41.6055 36.8622 40.9611 36.6667 40.3018 36.6667C39.4177 36.6667 38.5699 37.0179 37.9448 37.643C37.3197 38.2681 36.9685 39.1159 36.9685 40C36.9685 40.6593 37.164 41.3037 37.5302 41.8519C37.8965 42.4001 38.4171 42.8273 39.0262 43.0796C39.6353 43.3319 40.3055 43.3979 40.9521 43.2693C41.5987 43.1407 42.1926 42.8232 42.6588 42.357C43.125 41.8909 43.4425 41.2969 43.5711 40.6503C43.6997 40.0037 43.6337 39.3335 43.3814 38.7244C43.1291 38.1153 42.7019 37.5947 42.1537 37.2284Z" fill="#B84E4E"/>
</svg>
