<svg width="60" height="60" viewBox="0 0 60 60" fill="none" xmlns="http://www.w3.org/2000/svg">
<g id="Group 22 Copy 4">
<rect id="Rectangle Copy 27" width="60" height="60" rx="16" fill="#FEECCC"/>
<path id="Vector" d="M37.345 31.1033C38.5995 28.3835 38.8573 25.3091 38.0731 22.4185C37.2889 19.5278 35.5127 17.0052 33.0557 15.2923C30.5987 13.5795 27.6174 12.7856 24.6339 13.0497C21.6504 13.3139 18.8549 14.6192 16.7371 16.7371C14.6192 18.8549 13.3139 21.6504 13.0497 24.6339C12.7856 27.6174 13.5795 30.5987 15.2923 33.0557C17.0052 35.5127 19.5278 37.2889 22.4185 38.0731C25.3091 38.8573 28.3835 38.5995 31.1033 37.345L39.4656 45.7073C40.2933 46.535 41.4159 47 42.5865 47C43.757 47 44.8796 46.535 45.7073 45.7073C46.535 44.8796 47 43.757 47 42.5865C47 41.4159 46.535 40.2933 45.7073 39.4656L37.345 31.1033ZM15.8984 25.7947C15.8984 23.8374 16.4789 21.9241 17.5663 20.2966C18.6537 18.6692 20.1993 17.4008 22.0076 16.6518C23.8159 15.9027 25.8057 15.7068 27.7253 16.0886C29.645 16.4704 31.4084 17.413 32.7924 18.797C34.1764 20.181 35.1189 21.9443 35.5008 23.864C35.8826 25.7837 35.6866 27.7735 34.9376 29.5818C34.1886 31.3901 32.9202 32.9357 31.2927 34.0231C29.6653 35.1105 27.752 35.6909 25.7947 35.6909C23.17 35.6909 20.6529 34.6483 18.797 32.7924C16.9411 30.9365 15.8984 28.4193 15.8984 25.7947ZM42.59 44.1734C42.381 44.1744 42.174 44.1336 41.981 44.0535C41.788 43.9734 41.6129 43.8555 41.4661 43.7068L33.5703 35.8323C34.4117 35.1711 35.1711 34.4117 35.8323 33.5703L43.7068 41.4661C43.9296 41.6871 44.0817 41.9694 44.1437 42.277C44.2057 42.5846 44.1749 42.9037 44.0553 43.1938C43.9356 43.4839 43.7324 43.7319 43.4715 43.9063C43.2106 44.0807 42.9038 44.1737 42.59 44.1734Z" fill="#FCA100"/>
</g>
</svg>
