<svg width="60" height="60" viewBox="0 0 60 60" fill="none" xmlns="http://www.w3.org/2000/svg">
<g id="Group 22 Copy 4">
<rect id="Rectangle Copy 27" width="60" height="60" rx="16" fill="#F7DCE3"/>
<path id="Union" fill-rule="evenodd" clip-rule="evenodd" d="M13 42.3627C13 42.7726 13.1628 43.1658 13.4527 43.4557C13.7425 43.7456 14.1356 43.9084 14.5455 43.9084H16.0909C21.4193 43.9084 26.5296 41.7913 30.2973 38.0228C34.0651 34.2543 36.1818 29.1432 36.1818 23.8137V18.2722L38.1832 20.2662C38.4788 20.5195 38.8591 20.6518 39.2481 20.6368C39.637 20.6217 40.006 20.4605 40.2812 20.1852C40.5565 19.9099 40.7177 19.5409 40.7327 19.1518C40.7478 18.7628 40.6155 18.3824 40.3623 18.0867L35.7259 13.4495C35.4363 13.1616 35.0446 13 34.6364 13C34.2281 13 33.8364 13.1616 33.5468 13.4495L28.9105 18.0867C28.6573 18.3824 28.525 18.7628 28.54 19.1518C28.555 19.5409 28.7163 19.9099 28.9915 20.1852C29.2667 20.4605 29.6357 20.6217 30.0246 20.6368C30.4136 20.6518 30.7939 20.5195 31.0895 20.2662L33.0909 18.2722V23.8137C33.0909 28.3232 31.2998 32.6481 28.1117 35.8368C24.9236 39.0255 20.5996 40.8169 16.0909 40.8169H14.5455C14.1356 40.8169 13.7425 40.9798 13.4527 41.2697C13.1628 41.5595 13 41.9527 13 42.3627ZM15.0002 32.6325C15.2897 32.9204 15.6814 33.0819 16.0897 33.0819C16.498 33.0819 16.8897 32.9204 17.1793 32.6325L19.9534 29.8656L22.7275 32.6325C23.0231 32.8857 23.4034 33.018 23.7924 33.003C24.1813 32.988 24.5503 32.8267 24.8255 32.5514C25.1007 32.2761 25.262 31.9071 25.277 31.5181C25.292 31.129 25.1597 30.7487 24.9066 30.453L22.1402 27.6783L24.9066 24.9037C25.1597 24.608 25.292 24.2277 25.277 23.8386C25.262 23.4496 25.1007 23.0806 24.8255 22.8053C24.5503 22.53 24.1813 22.3687 23.7924 22.3537C23.4034 22.3387 23.0231 22.471 22.7275 22.7242L19.9534 25.4911L17.1793 22.7242C16.8836 22.471 16.5033 22.3387 16.1144 22.3537C15.7254 22.3687 15.3565 22.53 15.0812 22.8053C14.806 23.0806 14.6447 23.4496 14.6297 23.8386C14.6147 24.2277 14.747 24.608 15.0002 24.9037L17.7665 27.6783L15.0002 30.453C14.7123 30.7426 14.5508 31.1343 14.5508 31.5427C14.5508 31.9511 14.7123 32.3428 15.0002 32.6325ZM45.9585 37.3817C46.6378 38.3985 47.0004 39.5939 47.0004 40.8168C47.0004 42.4566 46.3491 44.0293 45.1897 45.1888C44.0304 46.3483 42.4581 46.9998 40.8185 46.9998C39.5959 46.9998 38.4007 46.6371 37.3841 45.9577C36.3675 45.2783 35.5752 44.3127 35.1073 43.1829C34.6394 42.0531 34.517 40.8099 34.7555 39.6105C34.994 38.4112 35.5828 37.3095 36.4473 36.4447C37.3119 35.58 38.4134 34.9912 39.6125 34.7526C40.8117 34.514 42.0546 34.6365 43.1842 35.1044C44.3138 35.5724 45.2793 36.3649 45.9585 37.3817ZM39.1013 43.3873C39.6096 43.727 40.2072 43.9083 40.8185 43.9083C41.6383 43.9083 42.4245 43.5826 43.0041 43.0028C43.5838 42.423 43.9094 41.6367 43.9094 40.8168C43.9094 40.2053 43.7282 39.6076 43.3885 39.0992C43.0489 38.5908 42.5662 38.1946 42.0014 37.9606C41.4366 37.7266 40.8151 37.6654 40.2155 37.7847C39.616 37.904 39.0652 38.1984 38.6329 38.6308C38.2007 39.0631 37.9063 39.614 37.787 40.2137C37.6678 40.8133 37.729 41.4349 37.9629 41.9998C38.1969 42.5647 38.593 43.0476 39.1013 43.3873Z" fill="#F5496B"/>
</g>
</svg>
