<svg xmlns="http://www.w3.org/2000/svg" width="82" height="82" viewBox="0 0 82 82">
    <g fill="none" fill-rule="evenodd" transform="translate(1 1)">
        <circle cx="40" cy="40" r="40" stroke="#F0F0F0"/>
        <path fill="#06F" fill-rule="nonzero" d="M48.146 44.04c.206-1.412.361-2.867.462-4.366.123-1.83.132-3.566.034-5.214a1.069 1.069 0 0 1-.014-.228c-.365-5.559-1.943-10.09-4.378-13.696-.965-1.43-1.995-2.6-3.02-3.53-.26-.235-.504-.44-.73-.618-.226.177-.47.383-.73.618-1.025.93-2.055 2.1-3.02 3.53-2.435 3.607-4.013 8.138-4.378 13.698.004.075-.001.15-.014.225a41.238 41.238 0 0 0 .034 5.215c.101 1.499.256 2.954.463 4.366l7.1-4.189a1.074 1.074 0 0 1 1.09 0l7.1 4.19zm1.986 1.173l4.717 2.783c.117-4.023-.982-7.319-2.904-9.96a14.095 14.095 0 0 0-1.094-1.328 45.476 45.476 0 0 1-.105 3.109 57.999 57.999 0 0 1-.614 5.396zm.605-11.512c.836.622 1.893 1.639 2.942 3.08 2.486 3.417 3.76 7.786 3.184 13.13-.084.773-.94 1.2-1.611.805l-5.532-3.264a50.646 50.646 0 0 1-.904 3.689c-.192.673-.97.983-1.575.627l-4.3-2.532c-.509-.3-.678-.955-.377-1.463.3-.508.958-.677 1.467-.377l3.087 1.818c.241-.95.457-1.92.647-2.915L40.5 42.012l-7.265 4.287c.19.994.406 1.966.647 2.915l3.087-1.818c.51-.3 1.166-.131 1.467.377.301.508.132 1.163-.378 1.463l-4.299 2.532a1.072 1.072 0 0 1-1.575-.627 50.63 50.63 0 0 1-.904-3.689l-5.532 3.264a1.072 1.072 0 0 1-1.61-.805c-.578-5.344.697-9.713 3.183-13.13 1.049-1.441 2.106-2.458 2.942-3.08.438-5.765 2.123-10.528 4.71-14.358 1.064-1.576 2.208-2.876 3.357-3.918.702-.636 1.262-1.052 1.605-1.264a1.074 1.074 0 0 1 1.13 0c.343.212.903.628 1.605 1.264 1.15 1.042 2.293 2.342 3.358 3.918 2.586 3.83 4.271 8.593 4.71 14.358zM30.15 36.708c-.373.399-.74.842-1.094 1.328-1.922 2.641-3.021 5.937-2.904 9.96l4.717-2.783a58.013 58.013 0 0 1-.614-5.396 45.476 45.476 0 0 1-.105-3.11zM41.254 65.69a1.073 1.073 0 0 1-1.508 0c-.249-.245-.666-.712-1.204-1.404a31.662 31.662 0 0 1-2.68-4.112c-1.983-3.59.568-8.038 4.638-8.038s6.62 4.449 4.638 8.038a31.656 31.656 0 0 1-2.68 4.112c-.538.692-.955 1.159-1.204 1.404zm-1.019-2.713c.091.117.18.228.265.333.085-.105.174-.217.265-.333a29.532 29.532 0 0 0 2.496-3.835c1.204-2.179-.338-4.869-2.761-4.869s-3.965 2.69-2.761 4.87a29.538 29.538 0 0 0 2.496 3.834z"/>
    </g>
</svg>
