<svg xmlns="http://www.w3.org/2000/svg" width="82" height="82" viewBox="0 0 82 82">
    <g fill="none" fill-rule="evenodd" transform="translate(1.313 1)">
        <path fill="#06F" fill-rule="nonzero" d="M33.3 51.55H18.7c-1.377 0-2.459-1.298-2.233-2.655.438-3.507 2.345-6.474 5.222-8.086.025-.014.046-.115.05-.109l-.079-.107a6.959 6.959 0 0 1-.977-5.48c.492-2.09 1.981-3.752 3.922-4.399 3.914-1.137 7.545 1.91 7.545 5.986 0 1.42-.458 2.794-1.25 3.85-.05.072-.039.13.02.165.533.304.93.586 1.555 1.092a11.661 11.661 0 0 1 3.263-2.767c.17-.106.228-.468.086-.66-.972-1.214-1.474-2.782-1.474-4.48 0-4.858 4.217-8.433 8.668-7.109 2.345.617 4.09 2.563 4.698 5.12.555 2.332.086 4.617-1.199 6.416-.101.141-.014.613.1.685a11.472 11.472 0 0 1 3.048 2.524 9.574 9.574 0 0 1 1.215-.821c.059-.034.071-.093.02-.165-.792-1.056-1.25-2.43-1.25-3.85 0-4.076 3.632-7.123 7.545-5.986 1.941.647 3.43 2.309 3.922 4.4a6.959 6.959 0 0 1-.977 5.48l-.08.106c.006-.006.026.095.05.11 2.879 1.61 4.786 4.578 5.223 8.085.226 1.357-.856 2.655-2.233 2.655H33.3zm-3.753-2.5c.002-.025.006-.05.01-.074.182-1.83.714-3.553 1.526-5.078-.635-.522-.974-.767-1.403-1.013-1.356-.775-1.718-2.522-.797-3.812a3.99 3.99 0 0 0 .767-2.373c0-2.475-2.102-4.238-4.301-3.6-1.063.356-1.937 1.33-2.232 2.586a4.461 4.461 0 0 0 .595 3.478c.94 1.208.55 3.055-.792 3.821-2.122 1.19-3.559 3.372-3.952 6.065h10.579zm2.515 0h18.176c-.397-3.47-2.216-6.367-4.9-7.89-1.396-.872-1.785-2.985-.855-4.287.87-1.217 1.187-2.763.801-4.383-.404-1.696-1.492-2.91-2.94-3.292-2.808-.835-5.494 1.442-5.494 4.702 0 1.152.325 2.168.95 2.95 1.03 1.372.698 3.413-.784 4.338-2.667 1.511-4.54 4.408-4.954 7.862zm20.691 0h10.079c-.393-2.693-1.83-4.876-3.952-6.065-1.342-.766-1.732-2.613-.792-3.821a4.461 4.461 0 0 0 .595-3.478c-.295-1.255-1.169-2.23-2.232-2.586-2.2-.638-4.301 1.125-4.301 3.6 0 .88.282 1.726.767 2.373.921 1.29.56 3.037-.797 3.812a7.74 7.74 0 0 0-1.026.708 13.683 13.683 0 0 1 1.639 5.302c.009.051.015.103.02.155z"/>
        <circle cx="40" cy="40" r="40" stroke="#F0F0F0"/>
    </g>
</svg>
