<svg width="490" height="360" viewBox="0 0 490 360" fill="none" xmlns="http://www.w3.org/2000/svg">
<rect width="490" height="360" rx="16" fill="#222326"/>
<g clip-path="url(#clip0_9989_28719)">
<path d="M241.688 165.971C236.404 165.971 231.179 168.235 227.205 172.706V150.706H219.33V187.75C219.33 199.78 229.089 209.53 241.129 209.53C253.169 209.53 262.928 199.78 262.928 187.75C262.928 175.721 253.729 165.971 241.688 165.971ZM241.114 201.133C233.711 201.133 227.72 195.133 227.72 187.75C227.72 180.368 233.725 174.368 241.114 174.368C248.518 174.368 254.509 180.368 254.509 187.75C254.509 195.133 248.518 201.133 241.114 201.133Z" fill="white"/>
<path d="M290.512 165.971C285.227 165.971 280.002 168.235 276.028 172.706V150.706H268.153V187.75C268.153 199.78 277.912 209.53 289.952 209.53C301.993 209.53 311.751 199.78 311.751 187.75C311.751 175.721 302.537 165.971 290.512 165.971ZM289.938 201.133C282.534 201.133 276.543 195.133 276.543 187.75C276.543 180.368 282.549 174.368 289.938 174.368C297.341 174.368 303.332 180.368 303.332 187.75C303.332 195.133 297.341 201.133 289.938 201.133Z" fill="white"/>
<path d="M174.996 191.559V167.147H183.445V191.486C183.445 197.706 187.051 201.692 193.13 201.692C199.283 201.692 202.815 197.853 202.815 191.486V167.147H211.338V191.559C211.338 202.839 204.493 209.515 193.13 209.515C182.061 209.53 174.996 202.618 174.996 191.559Z" fill="white"/>
<path d="M326.985 208.53H318.537V150.706H326.985V208.53Z" fill="white"/>
<path d="M374.822 191.103H342.484C343.721 197.545 348.24 201.927 356.232 201.927C360.913 201.927 366.609 200.162 370.289 197.471L373.821 203.692C369.597 206.839 362.915 209.442 355.923 209.442C340.409 209.442 333.727 198.618 333.727 187.721C333.727 181.5 335.64 176.368 339.57 172.295C343.485 168.221 348.637 166.147 354.863 166.147C360.78 166.147 365.696 167.986 369.465 171.75C373.233 175.515 375.146 180.574 375.146 187.03C375.117 188.192 375.043 189.574 374.822 191.103ZM342.47 184.192H366.594C365.903 177.662 361.06 173.442 354.834 173.442C348.46 173.442 343.706 177.75 342.47 184.192Z" fill="white"/>
<path d="M148.163 165.971C142.879 165.971 137.654 168.235 133.679 172.706V150.706H125.79V187.75C125.79 199.78 135.549 209.53 147.589 209.53C159.629 209.53 169.388 199.78 169.388 187.75C169.388 175.721 160.189 165.971 148.163 165.971ZM147.589 201.133C140.185 201.133 134.195 195.133 134.195 187.75C134.195 180.368 140.2 174.368 147.589 174.368C154.993 174.368 160.983 180.368 160.983 187.75C160.983 195.133 154.993 201.133 147.589 201.133Z" fill="white"/>
<path d="M120.064 209.515C123.04 209.515 125.452 207.105 125.452 204.132C125.452 201.16 123.04 198.75 120.064 198.75C117.089 198.75 114.677 201.16 114.677 204.132C114.677 207.105 117.089 209.515 120.064 209.515Z" fill="#0000FF"/>
</g>
<defs>
<clipPath id="clip0_9989_28719">
<rect width="262" height="60" fill="white" transform="translate(114 150)"/>
</clipPath>
</defs>
</svg>
