<svg width="22" height="1136" viewBox="0 0 22 1136" fill="none" xmlns="http://www.w3.org/2000/svg">
<path d="M21.7071 1128.71C22.0976 1128.32 22.0976 1127.68 21.7071 1127.29L15.3431 1120.93C14.9526 1120.54 14.3195 1120.54 13.9289 1120.93C13.5384 1121.32 13.5384 1121.95 13.9289 1122.34L19.5858 1128L13.9289 1133.66C13.5384 1134.05 13.5384 1134.68 13.9289 1135.07C14.3195 1135.46 14.9526 1135.46 15.3431 1135.07L21.7071 1128.71ZM0 0V1117H2V0H0ZM12 1129H21V1127H12V1129ZM0 1117C0 1123.63 5.37258 1129 12 1129V1127C6.47716 1127 2 1122.52 2 1117H0Z" fill="#0066FF"/>
</svg>
