<svg width="55" height="55" viewBox="0 0 55 55" fill="none" xmlns="http://www.w3.org/2000/svg">
<rect opacity="0.203869" width="55" height="55" rx="14" fill="#5080F4"/>
<path fill-rule="evenodd" clip-rule="evenodd" d="M16.9474 36.8348H16.8083C16.0431 36.8348 15.417 36.2087 15.417 35.4435V27.3044C15.417 26.5392 16.0431 25.9131 16.8083 25.9131H16.9474C17.7126 25.9131 18.3387 26.5392 18.3387 27.3044V35.5131C18.3387 36.2087 17.7126 36.8348 16.9474 36.8348Z" stroke="#0066FF" stroke-linecap="round" stroke-linejoin="round"/>
<path fill-rule="evenodd" clip-rule="evenodd" d="M38.0954 36.8348H38.2345C38.9998 36.8348 39.6258 36.2087 39.6258 35.4435V27.3044C39.6258 26.5392 38.9998 25.9131 38.2345 25.9131H38.0954C37.3302 25.9131 36.7041 26.5392 36.7041 27.3044V35.5131C36.7041 36.2087 37.3302 36.8348 38.0954 36.8348Z" stroke="#0066FF" stroke-linecap="round" stroke-linejoin="round"/>
<path d="M15.417 27.2348V24.5218C15.417 17.8435 20.8431 12.4174 27.5213 12.4174V12.4174C34.1996 12.4174 39.6257 17.8435 39.6257 24.5218V27.2348" stroke="#0066FF" stroke-linecap="round" stroke-linejoin="round"/>
<path d="M39.6259 35.4435C39.6259 38.4348 36.7042 42.0522 33.7129 42.0522H31.3477" stroke="#0066FF" stroke-linecap="round" stroke-linejoin="round"/>
<path fill-rule="evenodd" clip-rule="evenodd" d="M25.3652 42.1913V42.0522C25.3652 41.287 25.9913 40.6609 26.7565 40.6609H29.5391C30.3044 40.6609 30.9305 41.287 30.9305 42.0522V42.1913C30.9305 42.9565 30.3044 43.5826 29.5391 43.5826H26.7565C25.9913 43.5826 25.3652 42.9565 25.3652 42.1913Z" stroke="#0066FF" stroke-linecap="round" stroke-linejoin="round"/>
</svg>
