<svg xmlns="http://www.w3.org/2000/svg" width="313" height="71" viewBox="0 0 313 71">
    <g fill="none" fill-rule="evenodd">
        <path fill="#164193" d="M0 70.55h105.826V0H0z"/>
        <path fill="#FFEC00" d="M50.658 15.377l2.24-1.63 2.23 1.63-.853-2.635 2.27-1.63H53.75l-.853-2.667-.854 2.666h-2.805l2.264 1.63zM39.1 18.478l2.24-1.631 2.23 1.63-.852-2.633 2.27-1.632h-2.796l-.859-2.672-.853 2.68-2.79-.008 2.263 1.632zM32.877 20.018l-.854 2.675-2.796-.004 2.266 1.63-.847 2.634 2.231-1.625 2.238 1.625-.852-2.634 2.27-1.63h-2.795zM29.782 36.856l2.224 1.638-.846-2.635 2.272-1.63h-2.797l-.853-2.673-.868 2.681-2.79-.007 2.264 1.629-.845 2.635zM33.736 45.803l-.86-2.666-.851 2.666h-2.8l2.266 1.638-.847 2.628 2.232-1.632 2.239 1.632-.853-2.628 2.271-1.638zM42.204 54.276l-.854-2.668-.86 2.675-2.796-.007 2.271 1.63-.847 2.636 2.232-1.632 2.238 1.632-.852-2.635 2.272-1.631zM53.748 57.346l-.853-2.674-.853 2.674h-2.804l2.271 1.626-.853 2.638 2.24-1.63 2.235 1.63-.858-2.638 2.278-1.626zM65.292 54.276l-.86-2.668-.86 2.675-2.785-.007 2.26 1.63-.847 2.636 2.232-1.632 2.239 1.632-.855-2.635 2.28-1.631zM73.766 45.803l-.86-2.666-.852 2.666h-2.792l2.265 1.638-.859 2.628 2.238-1.632 2.239 1.632-.855-2.628 2.273-1.638zM79.626 34.197H76.83l-.847-2.673-.866 2.673h-2.785l2.266 1.63-.86 2.636 2.245-1.632 2.232 1.632-.852-2.635zM70.67 26.913l2.238-1.623 2.237 1.623-.853-2.633 2.272-1.622h-2.796l-.86-2.68-.852 2.686-2.792-.006 2.265 1.622zM64.465 11.54l-.844 2.68-2.805-.007 2.27 1.63-.845 2.64 2.238-1.638 2.225 1.638-.847-2.64 2.264-1.63h-2.796z"/>
        <path fill="#1D1D1B" d="M129.429 45.926V34.282h7.107v1.395h-5.476v3.461h4.872V40.5h-4.872v4.032h5.896v1.395zM145.475 45.49c-.358.089-.83.183-1.42.285-.587.1-1.268.15-2.041.15-.672 0-1.236-.097-1.697-.293a2.749 2.749 0 0 1-1.11-.832 3.378 3.378 0 0 1-.603-1.268 6.585 6.585 0 0 1-.186-1.622v-4.905h1.564v4.569c0 1.065.167 1.826.503 2.286.337.46.903.688 1.698.688a9.076 9.076 0 0 0 1.024-.059c.156-.016.299-.034.428-.05.13-.016.221-.037.277-.059v-7.375h1.563v8.484zM151.305 37.004a7.093 7.093 0 0 1 .975.091c.167.03.322.058.463.086.138.028.243.053.31.075l-.269 1.361a5.229 5.229 0 0 0-.613-.159 5.354 5.354 0 0 0-1.1-.093c-.292 0-.58.031-.866.093-.286.06-.473.103-.563.125v7.343h-1.561v-8.368c.368-.134.828-.26 1.376-.377a8.841 8.841 0 0 1 1.848-.177M160.563 41.356c0-.986-.22-1.766-.664-2.344-.442-.577-1.044-.865-1.806-.865-.761 0-1.364.288-1.806.865-.442.578-.664 1.358-.664 2.344 0 .985.222 1.767.664 2.343.442.578 1.045.866 1.806.866.762 0 1.364-.288 1.806-.866.443-.576.664-1.358.664-2.343m1.63 0c0 .695-.1 1.32-.302 1.882a4.317 4.317 0 0 1-.849 1.445 3.76 3.76 0 0 1-1.302.933 4.104 4.104 0 0 1-1.647.327 4.104 4.104 0 0 1-1.647-.327 3.76 3.76 0 0 1-1.302-.933 4.317 4.317 0 0 1-.848-1.445c-.202-.561-.302-1.187-.302-1.882 0-.682.1-1.308.302-1.874a4.294 4.294 0 0 1 .848-1.452 3.746 3.746 0 0 1 1.302-.934 4.104 4.104 0 0 1 1.647-.327c.594 0 1.143.109 1.647.327.504.22.938.53 1.302.934.364.403.647.886.849 1.452.201.566.302 1.192.302 1.874M170.375 41.574c0-1.02-.252-1.803-.757-2.352-.502-.548-1.175-.824-2.015-.824-.47 0-.837.017-1.1.05a4.568 4.568 0 0 0-.63.118v5.51c.19.158.465.31.823.455.358.145.75.219 1.177.219.446 0 .83-.081 1.15-.244.32-.163.58-.386.78-.672.202-.286.348-.622.438-1.008.09-.387.134-.804.134-1.252m1.63 0c0 .662-.086 1.271-.26 1.831a4.144 4.144 0 0 1-.764 1.445 3.469 3.469 0 0 1-1.236.941c-.488.224-1.045.336-1.67.336-.504 0-.95-.067-1.338-.202-.385-.134-.675-.262-.865-.385v3.494h-1.563V37.457c.37-.088.833-.187 1.386-.293a10.33 10.33 0 0 1 1.924-.16c.673 0 1.277.107 1.815.32.539.211.997.515 1.379.907.381.391.674.872.882 1.436.206.565.31 1.202.31 1.907M179.632 40.516c.013-.706-.164-1.286-.528-1.74-.365-.452-.866-.68-1.504-.68-.359 0-.674.07-.95.21-.274.14-.506.323-.696.547a2.513 2.513 0 0 0-.447.773c-.107.29-.175.588-.209.89h4.334zm-5.998.857c0-.773.113-1.448.336-2.024.226-.577.521-1.056.892-1.438.368-.38.794-.665 1.276-.857.481-.19.973-.284 1.479-.284 1.177 0 2.078.367 2.704 1.1.63.734.941 1.85.941 3.351v.26c0 .108-.004.206-.014.294h-5.984c.068.909.332 1.597.79 2.068.458.47 1.175.704 2.149.704.55 0 1.012-.045 1.389-.141.374-.096.655-.189.847-.277l.218 1.31c-.192.101-.523.207-.999.319a7.113 7.113 0 0 1-1.623.168c-.762 0-1.417-.115-1.972-.345a3.669 3.669 0 0 1-1.37-.95 3.866 3.866 0 0 1-.799-1.436 6.065 6.065 0 0 1-.26-1.822zM186.388 44.632c.37 0 .697-.008.983-.025.284-.016.523-.047.713-.093V41.91c-.112-.056-.293-.103-.547-.142a5.988 5.988 0 0 0-.915-.059c-.234 0-.484.017-.748.05a2.293 2.293 0 0 0-.722.21 1.56 1.56 0 0 0-.546.437c-.146.184-.217.429-.217.73 0 .56.179.95.537 1.169.357.218.845.327 1.462.327m-.135-7.83c.627 0 1.156.082 1.588.244.43.163.779.393 1.041.69.264.297.45.649.563 1.058.112.408.168.859.168 1.352v5.46l-.562.094c-.241.038-.514.075-.814.109-.304.032-.632.063-.984.091-.352.028-.704.043-1.05.043-.494 0-.948-.05-1.361-.15a3.056 3.056 0 0 1-1.076-.48 2.171 2.171 0 0 1-.705-.865c-.168-.358-.254-.79-.254-1.294 0-.483.1-.897.296-1.244.195-.346.462-.626.799-.84.334-.212.726-.37 1.174-.47.45-.101.917-.152 1.41-.152a5.544 5.544 0 0 1 .968.093l.395.075c.11.022.19.04.235.05v-.436c0-.257-.028-.512-.084-.764a1.752 1.752 0 0 0-.3-.672 1.542 1.542 0 0 0-.599-.471c-.252-.118-.58-.175-.984-.175-.512 0-.965.035-1.352.107-.386.074-.675.149-.863.227l-.186-1.293c.2-.09.538-.177 1.008-.261.47-.084.98-.125 1.529-.125M192.116 37.44c.358-.089.834-.183 1.43-.285.591-.1 1.276-.15 2.048-.15.695 0 1.273.099 1.73.293.46.197.827.471 1.101.823.276.354.469.777.58 1.269.112.493.167 1.037.167 1.63v4.905h-1.561v-4.569c0-.538-.037-.997-.11-1.377-.073-.382-.194-.69-.362-.925a1.435 1.435 0 0 0-.672-.513c-.28-.106-.627-.159-1.04-.159-.169 0-.341.006-.52.016-.18.012-.353.025-.513.043a8.567 8.567 0 0 0-.714.109v7.375h-1.564v-8.484zM208.801 35.593c-.695 0-1.227.016-1.597.05v4.385h1.16c.56 0 1.065-.028 1.51-.084.45-.056.827-.162 1.135-.32a1.7 1.7 0 0 0 .714-.662c.17-.286.252-.664.252-1.134 0-.438-.082-.802-.252-1.093a1.87 1.87 0 0 0-.68-.688 2.984 2.984 0 0 0-1.008-.354 7.162 7.162 0 0 0-1.234-.1m2.469 5.46c.18.224.406.519.68.883s.559.767.849 1.21c.291.441.579.904.866 1.385.284.483.529.947.73 1.395h-1.78a26.728 26.728 0 0 0-1.53-2.545 27.21 27.21 0 0 0-1.512-2.025 5.503 5.503 0 0 1-.445.017h-1.924v4.553h-1.629V34.45c.458-.112.97-.187 1.538-.227a23.148 23.148 0 0 1 1.553-.059c1.636 0 2.88.308 3.738.924.857.617 1.284 1.536 1.284 2.756 0 .773-.203 1.433-.612 1.984-.408.548-1.01.956-1.806 1.226M221.468 40.516c.012-.706-.165-1.286-.529-1.74-.363-.452-.866-.68-1.504-.68-.357 0-.674.07-.948.21-.276.14-.508.323-.698.547a2.51 2.51 0 0 0-.445.773 3.76 3.76 0 0 0-.21.89h4.334zm-5.998.857c0-.773.112-1.448.336-2.024.225-.577.521-1.056.891-1.438.37-.38.796-.665 1.277-.857.48-.19.974-.284 1.48-.284 1.175 0 2.076.367 2.704 1.1.627.734.94 1.85.94 3.351v.26c0 .108-.005.206-.015.294h-5.984c.068.909.332 1.597.79 2.068.46.47 1.177.704 2.15.704.55 0 1.012-.045 1.388-.141.376-.096.657-.189.847-.277l.218 1.31c-.19.101-.523.207-.997.319a7.131 7.131 0 0 1-1.624.168c-.761 0-1.418-.115-1.973-.345a3.68 3.68 0 0 1-1.37-.95 3.887 3.887 0 0 1-.799-1.436 6.113 6.113 0 0 1-.259-1.822zM230.725 38.567a5.05 5.05 0 0 0-.63-.126 7.525 7.525 0 0 0-1.066-.059c-.84 0-1.487.276-1.941.824-.452.548-.68 1.275-.68 2.184 0 .504.064.934.192 1.294.13.358.304.655.522.89.218.235.471.409.755.52.288.113.58.169.884.169a3.54 3.54 0 0 0 1.142-.177c.347-.118.62-.255.822-.411v-5.108zm.017 6.485c-.134.09-.394.205-.78.345-.386.14-.838.21-1.354.21a4.304 4.304 0 0 1-1.486-.253 3.233 3.233 0 0 1-1.218-.78 3.804 3.804 0 0 1-.824-1.319c-.202-.527-.302-1.155-.302-1.882 0-.638.095-1.224.286-1.756.19-.532.468-.992.832-1.377.363-.388.809-.69 1.335-.908.526-.22 1.12-.328 1.78-.328.728 0 1.366.054 1.908.16.544.106 1 .205 1.37.293v7.797c0 1.345-.349 2.318-1.043 2.924-.694.604-1.747.907-3.158.907a8.56 8.56 0 0 1-1.554-.135 8.63 8.63 0 0 1-1.268-.318l.284-1.362c.314.123.698.232 1.152.327.452.096.925.143 1.419.143.93 0 1.6-.184 2.009-.553.408-.37.612-.958.612-1.765v-.37zM234.891 45.925h1.564v-8.736h-1.564v8.736zm.773-10.315c-.278 0-.517-.093-.712-.277-.196-.184-.295-.435-.295-.749 0-.313.099-.562.295-.746a1 1 0 0 1 .712-.279c.28 0 .52.093.715.279.196.184.296.433.296.746 0 .314-.1.565-.296.749a1.004 1.004 0 0 1-.715.277zM245.141 41.356c0-.986-.22-1.766-.663-2.344-.443-.577-1.044-.865-1.807-.865-.762 0-1.364.288-1.806.865-.442.578-.664 1.358-.664 2.344 0 .985.222 1.767.664 2.343.442.578 1.044.866 1.806.866.763 0 1.364-.288 1.807-.866.444-.576.663-1.358.663-2.343m1.63 0c0 .695-.1 1.32-.303 1.882-.2.56-.484 1.042-.848 1.445a3.76 3.76 0 0 1-1.302.933 4.093 4.093 0 0 1-1.647.327 4.097 4.097 0 0 1-1.645-.327 3.766 3.766 0 0 1-1.304-.933 4.314 4.314 0 0 1-.847-1.445 5.528 5.528 0 0 1-.303-1.882c0-.682.101-1.308.303-1.874a4.29 4.29 0 0 1 .847-1.452 3.751 3.751 0 0 1 1.304-.934 4.097 4.097 0 0 1 1.645-.327c.595 0 1.144.109 1.647.327.504.22.938.53 1.302.934.364.403.648.886.848 1.452.202.566.302 1.192.302 1.874M248.887 37.44a20.3 20.3 0 0 1 1.429-.285c.593-.1 1.277-.15 2.049-.15.695 0 1.272.099 1.732.293.46.197.826.471 1.099.823.275.354.47.777.582 1.269.11.493.166 1.037.166 1.63v4.905h-1.563v-4.569c0-.538-.035-.997-.109-1.377-.072-.382-.193-.69-.36-.925a1.443 1.443 0 0 0-.672-.513c-.28-.106-.628-.159-1.042-.159-.168 0-.341.006-.52.016-.18.012-.352.025-.514.043a8.567 8.567 0 0 0-.713.109v7.375h-1.564v-8.484zM261.406 44.632c.37 0 .697-.008.982-.025.285-.016.523-.047.713-.093V41.91c-.112-.056-.293-.103-.546-.142a5.988 5.988 0 0 0-.915-.059c-.234 0-.484.017-.748.05a2.293 2.293 0 0 0-.722.21 1.56 1.56 0 0 0-.546.437c-.146.184-.217.429-.217.73 0 .56.178.95.538 1.169.356.218.844.327 1.461.327m-.136-7.83c.628 0 1.157.082 1.588.244.43.163.78.393 1.042.69.263.297.45.649.562 1.058.112.408.168.859.168 1.352v5.46l-.56.094c-.242.038-.515.075-.815.109-.304.032-.632.063-.984.091-.352.028-.704.043-1.05.043-.494 0-.948-.05-1.362-.15a3.056 3.056 0 0 1-1.075-.48 2.171 2.171 0 0 1-.706-.865c-.167-.358-.253-.79-.253-1.294 0-.483.1-.897.296-1.244.195-.346.461-.626.799-.84.334-.212.727-.37 1.174-.47.449-.101.917-.152 1.41-.152a5.544 5.544 0 0 1 .968.093l.395.075c.11.022.19.04.234.05v-.436c0-.257-.028-.512-.082-.764a1.777 1.777 0 0 0-.302-.672 1.542 1.542 0 0 0-.598-.471c-.252-.118-.579-.175-.984-.175-.513 0-.965.035-1.352.107-.386.074-.675.149-.863.227l-.186-1.293c.2-.09.538-.177 1.007-.261.47-.084.98-.125 1.53-.125M269.755 45.926c-.962-.022-1.647-.23-2.05-.622-.403-.392-.604-1.003-.604-1.83V32.987l1.562-.268v10.501c0 .257.022.47.068.638a.868.868 0 0 0 .218.404c.1.1.234.176.404.226.168.05.372.093.62.126l-.218 1.31zM132.656 65.085c1.546 0 2.7-.396 3.461-1.184.762-.79 1.143-1.896 1.143-3.318 0-1.422-.381-2.53-1.143-3.32-.761-.789-1.915-1.183-3.461-1.183-.46 0-.815.005-1.067.016-.253.012-.429.023-.529.034v8.904c.1.013.276.023.53.035.251.01.606.016 1.066.016m6.333-4.502c0 1.007-.157 1.885-.47 2.629a4.83 4.83 0 0 1-1.327 1.848 5.624 5.624 0 0 1-2.05 1.092c-.795.241-1.667.36-2.62.36-.47 0-.989-.017-1.554-.057a9.109 9.109 0 0 1-1.538-.228v-11.29c.46-.11.972-.188 1.538-.226a22.28 22.28 0 0 1 1.554-.059c.953 0 1.825.121 2.62.361.797.24 1.479.604 2.05 1.092a4.83 4.83 0 0 1 1.326 1.848c.314.746.471 1.622.471 2.63M146.735 61.103c.012-.705-.165-1.286-.528-1.74-.364-.452-.865-.68-1.504-.68-.358 0-.675.07-.949.21-.275.14-.508.323-.698.547a2.51 2.51 0 0 0-.445.773c-.106.29-.177.588-.21.89h4.334zm-5.998.857c0-.773.112-1.448.336-2.024.226-.577.522-1.056.891-1.437.37-.38.796-.666 1.277-.857.48-.19.974-.285 1.48-.285 1.175 0 2.076.367 2.704 1.1.627.734.94 1.85.94 3.352v.26c0 .108-.005.205-.015.293h-5.984c.068.91.332 1.597.791 2.069.46.47 1.176.704 2.15.704.549 0 1.011-.046 1.387-.142a5.14 5.14 0 0 0 .849-.277l.218 1.31c-.192.101-.523.208-1 .32a7.127 7.127 0 0 1-1.62.167c-.764 0-1.42-.115-1.976-.344a3.664 3.664 0 0 1-1.37-.95 3.887 3.887 0 0 1-.798-1.437 6.106 6.106 0 0 1-.26-1.822zM157.354 57.777a43.968 43.968 0 0 1-1.538 4.704 74.477 74.477 0 0 1-1.704 4.032h-1.411a73.255 73.255 0 0 1-1.706-4.032c-.59-1.5-1.1-3.07-1.538-4.704h1.681c.134.549.293 1.134.477 1.755.186.622.382 1.238.59 1.848.207.61.416 1.202.63 1.773.212.572.414 1.081.605 1.529.19-.448.39-.957.604-1.529.212-.571.423-1.162.63-1.773.207-.61.403-1.226.588-1.848a37.6 37.6 0 0 0 .48-1.755h1.612zM164.16 61.103c.01-.705-.165-1.286-.53-1.74-.363-.452-.865-.68-1.505-.68-.358 0-.674.07-.948.21-.276.14-.507.323-.697.547-.191.224-.34.482-.446.773a3.83 3.83 0 0 0-.21.89h4.336zm-5.998.857c0-.773.111-1.448.335-2.024.224-.577.522-1.056.89-1.437.371-.38.795-.666 1.277-.857.482-.19.975-.285 1.479-.285 1.177 0 2.077.367 2.706 1.1.626.734.94 1.85.94 3.352v.26c0 .108-.005.205-.017.293h-5.981c.067.91.33 1.597.79 2.069.459.47 1.175.704 2.15.704.548 0 1.01-.046 1.387-.142.374-.095.657-.188.847-.277l.218 1.31c-.19.101-.523.208-.998.32a7.118 7.118 0 0 1-1.622.167c-.763 0-1.42-.115-1.974-.344a3.652 3.652 0 0 1-1.37-.95 3.866 3.866 0 0 1-.798-1.437 6.059 6.059 0 0 1-.26-1.822zM170.577 66.513c-.962-.022-1.646-.23-2.05-.622-.403-.391-.605-1.003-.605-1.83V53.576l1.563-.268v10.5c0 .257.022.47.068.638a.881.881 0 0 0 .218.404c.1.1.234.177.403.227.168.05.375.093.62.125l-.217 1.311zM178.54 61.943c0-.985-.22-1.766-.661-2.343-.445-.578-1.046-.865-1.808-.865-.761 0-1.364.287-1.807.865-.442.577-.663 1.358-.663 2.343 0 .986.221 1.768.663 2.344.443.577 1.046.866 1.807.866.762 0 1.363-.289 1.808-.866.441-.576.661-1.358.661-2.344m1.63 0c0 .695-.101 1.321-.301 1.883a4.341 4.341 0 0 1-.849 1.445 3.747 3.747 0 0 1-1.303.932 4.091 4.091 0 0 1-1.646.327 4.104 4.104 0 0 1-1.647-.327 3.742 3.742 0 0 1-1.302-.932 4.317 4.317 0 0 1-.848-1.445c-.202-.562-.302-1.188-.302-1.883 0-.682.1-1.306.302-1.874a4.294 4.294 0 0 1 .848-1.452 3.746 3.746 0 0 1 1.302-.934 4.104 4.104 0 0 1 1.647-.327c.594 0 1.143.11 1.646.327.505.22.938.53 1.303.934.363.404.647.887.849 1.452.2.568.302 1.192.302 1.874M188.353 62.162c0-1.02-.252-1.803-.757-2.353-.502-.548-1.175-.823-2.015-.823-.47 0-.837.016-1.1.05a4.568 4.568 0 0 0-.63.118v5.51c.19.158.465.31.823.454.358.146.75.22 1.177.22.446 0 .83-.082 1.149-.245.32-.162.581-.386.782-.672.201-.285.347-.621.437-1.007.09-.388.134-.804.134-1.252m1.63 0c0 .661-.086 1.27-.26 1.83a4.144 4.144 0 0 1-.764 1.446 3.469 3.469 0 0 1-1.236.94c-.486.225-1.045.337-1.67.337a4.08 4.08 0 0 1-1.338-.202c-.385-.134-.675-.262-.865-.386v3.494h-1.563V58.045c.37-.089.831-.187 1.387-.293a10.32 10.32 0 0 1 1.923-.161c.673 0 1.277.108 1.815.32.54.212.997.515 1.379.907.38.392.674.872.882 1.436.206.566.31 1.202.31 1.908M192.1 58.028c.358-.09.831-.184 1.42-.285.587-.1 1.267-.15 2.042-.15.56 0 1.03.074 1.411.226.38.15.7.371.957.663.079-.056.202-.134.37-.236.167-.1.376-.199.622-.293.246-.096.52-.18.822-.253.305-.07.627-.108.976-.108.672 0 1.22.099 1.647.293.424.198.757.475.997.833.243.358.405.783.49 1.275.083.494.125 1.031.125 1.615v4.905h-1.562v-4.57c0-.515-.026-.957-.076-1.327s-.145-.677-.286-.925a1.298 1.298 0 0 0-.572-.545c-.24-.117-.55-.176-.932-.176-.526 0-.96.07-1.3.209-.344.14-.575.266-.699.378.088.292.156.612.202.958.044.347.068.711.068 1.093v4.905h-1.563v-4.57c0-.515-.03-.957-.086-1.327a2.692 2.692 0 0 0-.293-.925 1.306 1.306 0 0 0-.571-.545c-.242-.117-.547-.176-.916-.176-.157 0-.325.005-.503.016-.18.012-.352.025-.514.043a7.041 7.041 0 0 0-.713.109v7.375H192.1v-8.485zM211.993 61.103c.012-.705-.165-1.286-.529-1.74-.364-.452-.864-.68-1.504-.68-.358 0-.674.07-.948.21-.276.14-.509.323-.699.547a2.51 2.51 0 0 0-.444.773 3.76 3.76 0 0 0-.211.89h4.335zm-5.998.857c0-.773.112-1.448.336-2.024.225-.577.521-1.056.891-1.437.37-.38.795-.666 1.277-.857.48-.19.974-.285 1.479-.285 1.175 0 2.077.367 2.704 1.1.628.734.94 1.85.94 3.352v.26c0 .108-.004.205-.015.293h-5.983c.068.91.332 1.597.79 2.069.46.47 1.177.704 2.15.704.55 0 1.012-.046 1.388-.142.375-.095.657-.188.847-.277l.22 1.31c-.192.101-.524.208-1 .32a7.131 7.131 0 0 1-1.623.167c-.761 0-1.418-.115-1.974-.344a3.664 3.664 0 0 1-1.37-.95 3.887 3.887 0 0 1-.798-1.437 6.106 6.106 0 0 1-.259-1.822zM215.79 58.028c.358-.09.834-.184 1.43-.285.591-.1 1.275-.15 2.048-.15.696 0 1.271.098 1.731.292.46.198.826.472 1.1.824a3.2 3.2 0 0 1 .58 1.268c.111.494.167 1.037.167 1.63v4.906h-1.561v-4.57c0-.537-.037-.997-.11-1.377-.073-.381-.194-.689-.362-.925a1.435 1.435 0 0 0-.671-.512c-.28-.106-.628-.16-1.042-.16-.168 0-.341.006-.52.017a11.62 11.62 0 0 0-.512.043 6.251 6.251 0 0 0-.438.058l-.277.05v7.376h-1.562v-8.485zM226.81 57.575h3.31v1.31h-3.31v4.033c0 .437.035.798.102 1.084.067.286.168.51.3.671.136.162.304.277.506.345.202.068.436.1.707.1.469 0 .849-.053 1.133-.159.287-.106.485-.18.598-.227l.302 1.294c-.158.08-.432.176-.825.294a4.66 4.66 0 0 1-1.343.177c-.594 0-1.083-.077-1.47-.227a2.128 2.128 0 0 1-.933-.682 2.714 2.714 0 0 1-.495-1.116 7.317 7.317 0 0 1-.144-1.538v-7.795l1.563-.268v2.704zM235.918 66.513V54.871h7.024v1.393h-5.395v3.512h4.789v1.377h-4.79v5.36zM251.29 66.076c-.357.09-.83.185-1.42.286-.586.1-1.266.15-2.04.15-.673 0-1.238-.097-1.698-.293a2.749 2.749 0 0 1-1.109-.832 3.4 3.4 0 0 1-.604-1.268 6.588 6.588 0 0 1-.184-1.622v-4.905h1.563v4.57c0 1.064.166 1.826.502 2.285.337.46.903.688 1.698.688a9.075 9.075 0 0 0 1.024-.059c.156-.016.3-.034.429-.05.128-.016.22-.037.277-.059v-7.375h1.563v8.484zM253.896 58.028c.358-.09.833-.184 1.427-.285.594-.1 1.277-.15 2.05-.15.696 0 1.272.098 1.731.292.46.198.827.472 1.1.824a3.2 3.2 0 0 1 .58 1.268c.111.494.167 1.037.167 1.63v4.906h-1.562v-4.57c0-.537-.036-.997-.11-1.377-.072-.381-.192-.689-.36-.925a1.435 1.435 0 0 0-.672-.512c-.28-.106-.628-.16-1.041-.16-.168 0-.342.006-.52.017-.182.012-.352.025-.514.043a6.201 6.201 0 0 0-.436.058l-.277.05v7.376h-1.563v-8.485zM269.1 59.423c-.19-.156-.464-.308-.823-.454a3.086 3.086 0 0 0-1.175-.218c-.448 0-.833.081-1.15.243-.32.162-.581.388-.783.673a2.797 2.797 0 0 0-.436 1.015c-.09.394-.136.813-.136 1.261 0 1.02.252 1.806.758 2.36.503.555 1.175.832 2.015.832.425 0 .782-.019 1.068-.059.285-.038.506-.08.662-.126v-5.527zm0-5.88l1.565-.27V66.06c-.36.101-.82.203-1.38.303-.56.1-1.204.15-1.932.15-.673 0-1.277-.106-1.814-.318a3.872 3.872 0 0 1-1.379-.907 4.015 4.015 0 0 1-.88-1.438c-.209-.564-.312-1.2-.312-1.906 0-.672.087-1.289.261-1.848.172-.56.429-1.042.765-1.444a3.484 3.484 0 0 1 1.234-.943c.486-.222 1.044-.336 1.672-.336.504 0 .948.068 1.336.204.386.132.674.262.864.386v-4.42zM129.569 22.413V4.77h11.328v2.723h-8.12v4.354h7.23v2.674h-7.23v5.167h8.732v2.725zM154.671 21.725c-.593.154-1.367.31-2.315.472-.953.162-1.996.241-3.133.241-1.07 0-1.965-.153-2.685-.458-.724-.306-1.3-.729-1.731-1.272-.433-.544-.744-1.193-.931-1.95a10.381 10.381 0 0 1-.28-2.481v-7.46h3.081v6.977c0 1.424.208 2.443.624 3.055.415.61 1.141.916 2.177.916.374 0 .767-.016 1.184-.052a6.16 6.16 0 0 0 .93-.126V8.817h3.08v12.908zM166.027 11.872a9.917 9.917 0 0 0-1.058-.267 7.786 7.786 0 0 0-1.564-.14c-.34 0-.701.034-1.083.102-.382.068-.65.127-.803.178v10.668h-3.08V9.733c.594-.22 1.338-.428 2.227-.623.893-.194 1.881-.293 2.967-.293.205 0 .442.013.713.038.27.025.543.06.814.102.273.043.535.094.79.153.255.06.458.115.611.165l-.534 2.597zM177.432 15.411c0-1.324-.283-2.371-.853-3.143-.568-.773-1.36-1.16-2.38-1.16-1.018 0-1.812.387-2.382 1.16-.567.772-.853 1.82-.853 3.143 0 1.342.286 2.403.853 3.184.57.78 1.364 1.17 2.382 1.17 1.02 0 1.812-.39 2.38-1.17.57-.781.853-1.842.853-3.184m3.158 0c0 1.052-.153 2.011-.46 2.877-.304.866-.737 1.604-1.297 2.216a5.866 5.866 0 0 1-2.024 1.425c-.79.34-1.66.51-2.61.51-.952 0-1.816-.17-2.597-.51a5.87 5.87 0 0 1-2.01-1.425c-.562-.612-1-1.35-1.313-2.216-.314-.866-.47-1.825-.47-2.877 0-1.051.156-2.006.47-2.863a6.418 6.418 0 0 1 1.326-2.202 5.829 5.829 0 0 1 2.024-1.414c.779-.332 1.636-.497 2.57-.497.932 0 1.794.165 2.585.497.79.331 1.464.802 2.024 1.414a6.573 6.573 0 0 1 1.31 2.202c.313.857.472 1.812.472 2.863M192.453 15.82c0-1.377-.31-2.446-.928-3.209-.62-.764-1.619-1.146-2.992-1.146-.288 0-.59.013-.903.038a5.014 5.014 0 0 0-.93.165v7.613c.27.187.631.362 1.08.523.451.16.931.241 1.441.241 1.12 0 1.939-.383 2.456-1.146.517-.763.776-1.79.776-3.08m3.158-.051c0 1.018-.131 1.953-.395 2.801-.263.849-.642 1.578-1.134 2.19a5.044 5.044 0 0 1-1.844 1.425c-.738.339-1.575.51-2.51.51a6.17 6.17 0 0 1-1.73-.23c-.525-.153-.96-.323-1.299-.51v5.169h-3.08V9.53c.628-.168 1.4-.33 2.317-.484a17.583 17.583 0 0 1 2.902-.228c1.053 0 1.995.16 2.827.483.83.323 1.54.785 2.125 1.388.587.602 1.034 1.331 1.35 2.189.313.857.47 1.82.47 2.89M206.839 14.138c0-.424-.06-.827-.178-1.209a2.918 2.918 0 0 0-.523-.993 2.46 2.46 0 0 0-.84-.661c-.331-.162-.724-.243-1.184-.243-.474 0-.891.09-1.248.268a2.84 2.84 0 0 0-.904.7c-.246.288-.436.62-.572.992a5.45 5.45 0 0 0-.28 1.146h5.729zm-8.935 1.376c0-1.172.172-2.199.52-3.081.347-.883.81-1.616 1.387-2.202a5.723 5.723 0 0 1 1.987-1.325 6.158 6.158 0 0 1 2.29-.445c1.835 0 3.264.569 4.292 1.706 1.025 1.137 1.539 2.834 1.539 5.092a12.418 12.418 0 0 1-.05 1.145h-8.784c.083 1.07.462 1.897 1.132 2.483.67.585 1.644.878 2.916.878.747 0 1.43-.068 2.05-.203.618-.137 1.107-.281 1.463-.433l.408 2.52a5.04 5.04 0 0 1-.702.268c-.296.093-.635.177-1.017.254-.383.076-.794.14-1.234.191-.442.052-.891.077-1.35.077-1.172 0-2.19-.174-3.056-.522-.866-.349-1.577-.832-2.137-1.452a5.92 5.92 0 0 1-1.248-2.189c-.272-.841-.406-1.76-.406-2.762zM217.71 19.994c.95 0 1.671-.051 2.163-.153V16.43a5.735 5.735 0 0 0-.738-.152 6.798 6.798 0 0 0-1.069-.078c-.34 0-.683.027-1.031.078-.348.05-.661.143-.943.28-.28.135-.504.327-.674.571-.17.248-.255.557-.255.93 0 .73.23 1.234.688 1.514.458.282 1.078.421 1.859.421m-.255-11.482c1.019 0 1.876.127 2.57.382.697.255 1.254.611 1.669 1.07.415.457.713 1.013.893 1.667.178.654.265 1.37.265 2.152v8.07a37.38 37.38 0 0 1-2.152.369c-.96.144-2.04.216-3.245.216a9.792 9.792 0 0 1-2.19-.228c-.66-.153-1.226-.4-1.693-.74a3.475 3.475 0 0 1-1.095-1.322c-.262-.544-.394-1.214-.394-2.012 0-.763.148-1.409.445-1.936a3.673 3.673 0 0 1 1.209-1.284 5.227 5.227 0 0 1 1.77-.713 9.959 9.959 0 0 1 3.169-.154c.374.043.773.115 1.197.217v-.51a4.09 4.09 0 0 0-.126-1.018 2.118 2.118 0 0 0-.447-.852 2.083 2.083 0 0 0-.84-.573c-.348-.136-.784-.204-1.31-.204-.713 0-1.367.05-1.962.152-.594.103-1.077.221-1.451.357l-.382-2.494c.392-.137.96-.273 1.708-.408a13.38 13.38 0 0 1 2.392-.204M226.468 9.53c.594-.17 1.366-.331 2.316-.483.952-.153 2.003-.23 3.158-.23 1.086 0 1.993.15 2.724.445.73.298 1.31.715 1.745 1.25.432.533.738 1.18.916 1.933.179.756.268 1.584.268 2.482v7.486h-3.081v-7.001c0-.713-.047-1.32-.14-1.82-.094-.501-.246-.908-.458-1.223a1.848 1.848 0 0 0-.866-.688c-.366-.143-.812-.217-1.336-.217-.392 0-.799.027-1.224.078-.425.05-.738.093-.942.127v10.744h-3.08V9.53zM253.939 22.438c-1.205 0-2.24-.174-3.107-.521-.864-.348-1.583-.837-2.15-1.464a5.976 5.976 0 0 1-1.261-2.216c-.271-.848-.407-1.782-.407-2.8V4.413h3.232v10.72c0 .796.09 1.48.268 2.048.178.569.433 1.031.763 1.388.332.356.723.618 1.171.79.451.169.956.254 1.517.254.559 0 1.068-.085 1.526-.255.459-.17.853-.433 1.183-.79.333-.356.587-.818.765-1.387.178-.568.268-1.252.268-2.049V4.413h3.233v11.024c0 1.018-.14 1.952-.42 2.8a6.146 6.146 0 0 1-1.272 2.216c-.57.627-1.295 1.116-2.178 1.464-.883.347-1.926.521-3.131.521M264.733 9.53c.594-.17 1.366-.331 2.317-.483a19.92 19.92 0 0 1 3.157-.23c1.085 0 1.994.15 2.723.445.731.298 1.311.715 1.746 1.25.431.533.738 1.18.916 1.933.178.756.268 1.584.268 2.482v7.486h-3.081v-7.001c0-.713-.046-1.32-.14-1.82-.095-.501-.246-.908-.458-1.223a1.851 1.851 0 0 0-.865-.688c-.367-.143-.812-.217-1.338-.217-.391 0-.798.027-1.224.078-.424.05-.738.093-.94.127v10.744h-3.08V9.53zM279.5 22.413h3.08V9.097h-3.08v13.316zm3.41-17.21c0 .577-.186 1.035-.56 1.374-.373.34-.814.51-1.323.51-.526 0-.977-.17-1.35-.51-.372-.339-.56-.797-.56-1.374 0-.594.188-1.06.56-1.401.373-.34.824-.51 1.35-.51.51 0 .95.17 1.323.51.374.34.56.807.56 1.4zM295.233 15.411c0-1.324-.283-2.371-.853-3.143-.568-.773-1.36-1.16-2.38-1.16-1.018 0-1.812.387-2.38 1.16-.569.772-.853 1.82-.853 3.143 0 1.342.284 2.403.853 3.184.568.78 1.362 1.17 2.38 1.17 1.02 0 1.812-.39 2.38-1.17.57-.781.853-1.842.853-3.184m3.158 0c0 1.052-.153 2.011-.46 2.877-.304.866-.737 1.604-1.297 2.216a5.866 5.866 0 0 1-2.024 1.425c-.79.34-1.66.51-2.61.51-.952 0-1.816-.17-2.597-.51a5.87 5.87 0 0 1-2.01-1.425c-.562-.612-.998-1.35-1.312-2.216-.315-.866-.47-1.825-.47-2.877 0-1.051.155-2.006.47-2.863.314-.857.755-1.591 1.325-2.202a5.829 5.829 0 0 1 2.024-1.414c.78-.332 1.636-.497 2.57-.497.932 0 1.794.165 2.585.497.79.331 1.464.802 2.024 1.414.56.611.996 1.345 1.31 2.202.315.857.472 1.812.472 2.863M301.42 9.53c.594-.17 1.367-.331 2.317-.483a19.92 19.92 0 0 1 3.157-.23c1.085 0 1.994.15 2.723.445.73.298 1.313.715 1.746 1.25.433.533.738 1.18.916 1.933.178.756.268 1.584.268 2.482v7.486h-3.081v-7.001c0-.713-.046-1.32-.14-1.82-.095-.501-.246-.908-.459-1.223a1.851 1.851 0 0 0-.864-.688c-.365-.143-.812-.217-1.338-.217-.391 0-.798.027-1.224.078-.424.05-.738.093-.94.127v10.744h-3.081V9.53z"/>
    </g>
</svg>
