<svg xmlns="http://www.w3.org/2000/svg" width="208" height="90" viewBox="0 0 208 90">
    <g fill="none" fill-rule="evenodd">
        <path fill="#044DA1" d="M44.868 89.723L0 81.311v-67.29L44.868 0z"/>
        <path fill="#FFF100" d="M.01 65.14V47.668c2.257.616 4.77.906 6.427-.098 3.626-2.16 9.112-8.78 9.112-8.78s-2.893 7.14-1.802 9.76c1.155 2.782 8.012 2.933 8.012 2.933s-7.753 4.71-11.358 7.833c-3.714 3.188-6.288 14.901-6.288 14.901S2.314 66.707.01 65.14"/>
        <path fill="#EC1D24" d="M44.868 34.316c-1.552.98-3.073 1.748-4.221 1.97-3.602.698-7.462-3.445-7.462-3.445s.907 6.057-1.36 9.787c-2.387 3.93-10.065 8.853-10.065 8.853s8.486-1.643 10.135.99c1.757 2.822 1.99 12.655 1.99 12.655s4.322-11.806 8.248-13.412c.76-.326 1.716-.626 2.735-.918v-16.48z"/>
        <path fill="#FFF" d="M15.55 38.79s4.335-6.793 4.075-9.21c-.256-2.296-4.754-3.122-4.754-3.122s5.887-1.446 8.456-3.758c2.477-2.228 4.644-6.855 4.644-6.855s.545 3.83 2.749 4.377c2.273.571 8.345-1.88 8.345-1.88s-4.792 4.535-6.674 7.008c-1.966 2.58.795 7.49.795 7.49s-5.09-1.768-7.935-1.236c-2.8.53-9.701 7.186-9.701 7.186"/>
        <path fill="#1D1D1B" d="M67.288 33.647V16.821h10.634v2.594H70.35v4.301h6.723v2.599H70.35v7.332zM90.26 32.992c-.567.144-1.303.296-2.21.447-.906.156-1.904.231-2.988.231-1.018 0-1.874-.144-2.561-.435-.688-.29-1.237-.7-1.653-1.218-.41-.517-.706-1.134-.884-1.855a9.829 9.829 0 0 1-.268-2.364v-7.117h2.937v6.65c0 1.361.2 2.332.595 2.915.399.584 1.09.876 2.077.876.357 0 .732-.017 1.13-.052.397-.03.69-.07.886-.122V20.68h2.939v12.31zM93.853 21.36c.567-.161 1.301-.315 2.21-.462.905-.148 1.91-.218 3.012-.218 1.035 0 1.901.14 2.598.421.696.289 1.251.684 1.66 1.193.416.512.707 1.125.876 1.848.17.72.257 1.506.257 2.368v7.138h-2.94v-6.676c0-.683-.046-1.262-.132-1.74-.088-.478-.235-.865-.439-1.164a1.74 1.74 0 0 0-.826-.656c-.347-.136-.771-.205-1.273-.205-.373 0-.761.022-1.166.074-.405.044-.703.086-.9.117v10.25h-2.937V21.359zM118.645 32.966c-.584.178-1.315.338-2.199.486-.882.144-1.808.219-2.78.219-1.004 0-1.9-.153-2.693-.462a5.636 5.636 0 0 1-2.029-1.321c-.558-.574-.988-1.275-1.288-2.09-.297-.818-.45-1.735-.45-2.757 0-1 .125-1.913.38-2.73.251-.817.618-1.518 1.102-2.106a4.886 4.886 0 0 1 1.773-1.342c.696-.318 1.497-.474 2.406-.474a5.58 5.58 0 0 1 1.624.217c.471.148.874.308 1.216.488v-3.792l2.938-.481v16.145zm-8.427-5.994c0 1.29.31 2.308.923 3.047.614.734 1.465 1.103 2.549 1.103.47 0 .87-.022 1.203-.06.331-.044.602-.088.814-.136v-7.285c-.26-.178-.604-.342-1.034-.495a3.968 3.968 0 0 0-1.369-.23c-1.069 0-1.85.36-2.345 1.09-.494.73-.741 1.717-.741 2.966zM132.655 32.992c-.566.144-1.302.296-2.21.447-.906.156-1.901.231-2.985.231-1.022 0-1.874-.144-2.562-.435-.688-.29-1.24-.7-1.652-1.218-.414-.517-.71-1.134-.885-1.855a9.683 9.683 0 0 1-.268-2.364v-7.117h2.936v6.65c0 1.361.2 2.332.596 2.915.396.584 1.089.876 2.075.876.358 0 .735-.017 1.13-.052.397-.03.693-.07.887-.122V20.68h2.938v12.31zM139.43 31.239c.777 0 1.344-.092 1.7-.277.355-.187.532-.504.532-.957 0-.421-.188-.769-.57-1.043-.38-.278-1.008-.577-1.883-.9-.532-.195-1.023-.4-1.467-.618a5.154 5.154 0 0 1-1.154-.77 3.126 3.126 0 0 1-.764-1.051c-.187-.418-.281-.922-.281-1.521 0-1.165.431-2.083 1.29-2.752.856-.674 2.02-1.008 3.495-1.008.745 0 1.456.069 2.138.203.677.14 1.188.27 1.53.4l-.536 2.38a6.998 6.998 0 0 0-1.239-.396c-.502-.127-1.083-.185-1.747-.185-.6 0-1.084.102-1.458.302-.372.204-.56.517-.56.934 0 .213.039.4.11.56.076.161.201.313.38.448.176.14.412.273.702.413.291.14.648.284 1.069.425.696.262 1.287.514 1.774.767.486.248.882.535 1.201.851.314.314.547.675.692 1.078.145.405.22.892.22 1.458 0 1.212-.45 2.133-1.349 2.756-.901.62-2.182.934-3.849.934-1.119 0-2.017-.092-2.697-.279-.68-.187-1.157-.34-1.433-.447l.511-2.456c.437.176.959.347 1.565.512.608.16 1.3.239 2.078.239M156.086 23.011c-.325.339-.75.817-1.275 1.434a73.998 73.998 0 0 0-1.687 2.047c-.6.757-1.205 1.544-1.81 2.357-.608.819-1.153 1.6-1.639 2.343h6.556v2.451H146.13v-1.818c.356-.646.802-1.35 1.335-2.11a131.58 131.58 0 0 1 1.652-2.297 72.4 72.4 0 0 1 1.688-2.2 94.51 94.51 0 0 1 1.493-1.82h-5.851v-2.453h9.64v2.066zM157.689 27.066c0-1.118.165-2.095.496-2.937.331-.843.772-1.545 1.324-2.102a5.478 5.478 0 0 1 1.895-1.264 5.869 5.869 0 0 1 2.183-.421c1.75 0 3.111.538 4.095 1.625.98 1.082 1.468 2.703 1.468 4.856 0 .16-.004.343-.012.543-.007.21-.022.388-.038.548h-8.378c.08 1.022.443 1.814 1.082 2.37.64.556 1.568.838 2.782.838.71 0 1.36-.066 1.953-.195.592-.131 1.058-.267 1.395-.413l.39 2.405a4.89 4.89 0 0 1-.667.254c-.283.087-.608.171-.972.243-.365.071-.758.131-1.176.18-.424.052-.851.074-1.289.074-1.117 0-2.087-.165-2.913-.497-.827-.334-1.505-.795-2.04-1.387a5.69 5.69 0 0 1-1.19-2.084c-.259-.801-.388-1.683-.388-2.636zm8.522-1.313a3.81 3.81 0 0 0-.17-1.152 2.74 2.74 0 0 0-.498-.947 2.278 2.278 0 0 0-.8-.63c-.316-.153-.693-.23-1.13-.23-.453 0-.85.082-1.19.252-.34.174-.626.395-.86.67-.237.273-.418.59-.548.946-.13.356-.22.721-.268 1.09h5.464zM67.288 56.075V39.247h10.806v2.6H70.35v4.156h6.895v2.548H70.35v4.929h8.327v2.595zM91.23 55.422c-.568.145-1.301.296-2.21.448-.905.156-1.903.231-2.987.231-1.019 0-1.873-.144-2.562-.436-.687-.294-1.237-.697-1.652-1.214-.41-.52-.707-1.141-.885-1.858a9.844 9.844 0 0 1-.268-2.37v-7.111h2.94v6.65c0 1.363.2 2.331.592 2.914.4.586 1.092.877 2.078.877.358 0 .735-.017 1.13-.052.397-.03.69-.07.887-.12V43.11h2.938v12.311zM102.06 46.024a9.645 9.645 0 0 0-1.009-.251 7.22 7.22 0 0 0-1.493-.14c-.323 0-.667.035-1.03.101-.365.065-.622.121-.766.17v10.175h-2.937V43.981c.565-.208 1.275-.404 2.126-.59.846-.19 1.79-.28 2.828-.28.193 0 .42.008.68.035.257.026.517.056.775.099a10.316 10.316 0 0 1 1.336.301l-.51 2.478zM115.949 49.398c0 1.004-.145 1.918-.436 2.743-.293.83-.703 1.534-1.239 2.117a5.56 5.56 0 0 1-1.931 1.356c-.753.326-1.583.488-2.489.488-.905 0-1.731-.162-2.476-.488a5.557 5.557 0 0 1-1.917-1.356c-.538-.583-.954-1.287-1.25-2.117-.302-.825-.45-1.74-.45-2.743 0-.999.148-1.913.45-2.73a6.07 6.07 0 0 1 1.26-2.1 5.571 5.571 0 0 1 1.93-1.348c.747-.316 1.563-.473 2.453-.473.891 0 1.713.157 2.465.473a5.386 5.386 0 0 1 1.93 1.348 6.208 6.208 0 0 1 1.249 2.1c.302.817.45 1.731.45 2.73m-3.01 0c0-1.26-.271-2.26-.813-3-.544-.734-1.297-1.104-2.27-1.104-.971 0-1.728.37-2.271 1.104-.543.74-.814 1.74-.814 3 0 1.28.27 2.292.814 3.036.543.745 1.3 1.114 2.27 1.114.974 0 1.727-.37 2.27-1.114.543-.744.814-1.755.814-3.036M130.276 49.741c0 .97-.127 1.862-.376 2.668-.252.81-.612 1.505-1.082 2.088a4.8 4.8 0 0 1-1.761 1.364c-.704.322-1.5.483-2.393.483a5.944 5.944 0 0 1-1.649-.217c-.5-.149-.914-.309-1.236-.487v4.93h-2.94V43.79c.597-.16 1.335-.314 2.21-.46a16.999 16.999 0 0 1 2.767-.219c1.003 0 1.904.153 2.696.463a5.61 5.61 0 0 1 2.028 1.32 5.83 5.83 0 0 1 1.285 2.091c.302.817.45 1.736.45 2.756m-3.01.048c0-1.31-.296-2.33-.887-3.06-.592-.73-1.541-1.096-2.853-1.096-.276 0-.564.014-.86.039-.302.028-.598.08-.886.157v7.26c.257.179.602.344 1.03.5a4.08 4.08 0 0 0 1.372.23c1.07 0 1.847-.366 2.342-1.092.494-.73.742-1.709.742-2.938M132.461 49.497c0-1.116.165-2.1.5-2.937.33-.843.77-1.544 1.32-2.102a5.457 5.457 0 0 1 1.895-1.264 5.898 5.898 0 0 1 2.185-.424c1.75 0 3.113.541 4.092 1.628.979 1.082 1.47 2.705 1.47 4.856 0 .16-.007.343-.013.543-.008.205-.02.388-.038.548h-8.375c.08 1.023.44 1.814 1.08 2.37.639.556 1.568.838 2.78.838a9.06 9.06 0 0 0 1.956-.195c.59-.13 1.056-.27 1.396-.413l.387 2.405c-.16.08-.386.165-.667.254a8.77 8.77 0 0 1-.972.24 14.27 14.27 0 0 1-1.176.183c-.421.053-.851.074-1.288.074-1.116 0-2.087-.165-2.914-.497-.826-.332-1.505-.793-2.04-1.385a5.697 5.697 0 0 1-1.19-2.086c-.258-.8-.388-1.685-.388-2.636zm8.524-1.312c0-.405-.056-.792-.171-1.153a2.735 2.735 0 0 0-.5-.945 2.265 2.265 0 0 0-.799-.632c-.316-.153-.693-.23-1.129-.23-.453 0-.851.082-1.191.252-.34.174-.626.395-.86.67a2.95 2.95 0 0 0-.548.947c-.13.356-.22.722-.265 1.091h5.463zM145.256 60.593c-.21 0-.505-.017-.886-.06a3.97 3.97 0 0 1-1.009-.231l.39-2.4c.357.109.785.169 1.287.169.68 0 1.158-.2 1.433-.6.274-.397.412-.987.412-1.782V43.378h2.938v12.358c0 1.652-.392 2.874-1.177 3.669-.786.79-1.914 1.188-3.388 1.188m4.881-20.933c0 .552-.178.991-.534 1.314a1.807 1.807 0 0 1-1.262.487c-.504 0-.93-.162-1.285-.487-.358-.323-.536-.762-.536-1.314 0-.565.178-1.007.536-1.335a1.846 1.846 0 0 1 1.285-.482c.486 0 .905.16 1.262.482.356.328.534.77.534 1.335M156.597 53.671c.777 0 1.344-.091 1.7-.277.355-.187.532-.505.532-.961 0-.418-.189-.764-.57-1.04-.38-.278-1.008-.578-1.883-.9-.532-.197-1.023-.401-1.467-.622a5.04 5.04 0 0 1-1.154-.764 3.11 3.11 0 0 1-.764-1.054c-.187-.416-.281-.92-.281-1.52 0-1.165.43-2.083 1.29-2.756.855-.67 2.02-1.003 3.495-1.003.743 0 1.458.07 2.138.202.679.14 1.188.27 1.528.402l-.533 2.378a7.018 7.018 0 0 0-1.24-.396c-.502-.126-1.083-.183-1.749-.183-.596 0-1.082.1-1.456.3-.372.204-.56.517-.56.934 0 .213.039.396.11.56.076.163.201.314.378.448.178.14.412.274.704.414.291.14.648.28 1.069.427.696.26 1.285.514 1.774.766.484.246.883.533 1.201.845.314.318.547.679.692 1.082.145.407.218.894.218 1.458 0 1.213-.449 2.136-1.348 2.758-.9.618-2.183.932-3.85.932-1.115 0-2.015-.092-2.695-.279-.678-.187-1.158-.338-1.433-.447l.51-2.456c.438.178.96.349 1.566.514.608.16 1.3.238 2.078.238M167.304 48.334c.371-.393.769-.806 1.191-1.253.421-.448.834-.891 1.237-1.334.405-.445.79-.875 1.153-1.289.365-.412.677-.773.935-1.08h3.472c-.807.907-1.663 1.848-2.56 2.816-.897.974-1.803 1.919-2.707 2.84.484.407.994.899 1.528 1.473a26.426 26.426 0 0 1 1.552 1.83c.504.647.972 1.296 1.41 1.944.438.648.802 1.247 1.093 1.795h-3.398c-.292-.501-.629-1.025-1.009-1.577-.38-.551-.79-1.084-1.226-1.6a23.578 23.578 0 0 0-1.336-1.47 11.508 11.508 0 0 0-1.335-1.18v5.827h-2.937V39.734l2.937-.482v9.082zM180.878 39.66c0 .553-.18.991-.535 1.314a1.807 1.807 0 0 1-1.265.487c-.5 0-.93-.162-1.285-.487-.356-.323-.532-.761-.532-1.313 0-.566.176-1.01.532-1.336a1.851 1.851 0 0 1 1.285-.481c.49 0 .91.16 1.265.481.355.327.535.77.535 1.336zm-3.254 16.415h2.937V43.377h-2.937v12.698zM183.451 49.497c0-1.116.165-2.1.5-2.937.33-.843.771-1.544 1.32-2.102a5.457 5.457 0 0 1 1.895-1.264 5.905 5.905 0 0 1 2.187-.424c1.748 0 3.11.541 4.09 1.628.98 1.082 1.468 2.705 1.468 4.856 0 .16-.004.343-.01.543-.01.205-.02.388-.039.548h-8.373c.078 1.023.439 1.814 1.08 2.37.637.556 1.564.838 2.78.838.71 0 1.361-.064 1.954-.195.59-.13 1.056-.27 1.396-.413l.388 2.405c-.161.08-.386.165-.667.254a8.77 8.77 0 0 1-.972.24c-.365.074-.756.134-1.177.183-.42.053-.85.074-1.287.074-1.117 0-2.086-.165-2.915-.497-.826-.332-1.505-.793-2.04-1.385a5.67 5.67 0 0 1-1.187-2.086c-.261-.8-.39-1.685-.39-2.636zm8.523-1.312c0-.405-.055-.792-.17-1.153a2.735 2.735 0 0 0-.499-.945 2.253 2.253 0 0 0-.8-.632c-.316-.153-.693-.23-1.129-.23-.453 0-.85.082-1.19.252a2.787 2.787 0 0 0-.86.67c-.235.273-.417.59-.548.947-.13.356-.22.722-.267 1.091h5.463zM67.308 78.525h1.553V67.42h-1.553zM71.442 70.43c.343-.083.795-.174 1.362-.27.567-.1 1.217-.143 1.955-.143.663 0 1.213.092 1.65.279.44.187.788.447 1.049.786.262.334.448.74.555 1.209.106.47.16.988.16 1.552v4.682h-1.49v-4.361c0-.513-.038-.95-.104-1.312-.072-.362-.184-.657-.347-.884a1.35 1.35 0 0 0-.638-.486c-.268-.101-.6-.153-.995-.153-.16 0-.326.005-.498.014-.17.013-.333.026-.486.042a8.156 8.156 0 0 0-.42.058c-.122.022-.212.035-.265.048v7.034h-1.488V70.43zM81.955 70h3.155v1.248h-3.155v3.846c0 .417.03.761.096 1.034.063.275.16.489.287.645.13.151.288.26.481.325s.418.097.673.097c.45 0 .808-.048 1.082-.153.271-.104.461-.174.569-.216l.288 1.234c-.149.072-.412.169-.786.278a4.465 4.465 0 0 1-1.281.168c-.567 0-1.034-.07-1.403-.212a2.087 2.087 0 0 1-.888-.653 2.577 2.577 0 0 1-.473-1.064 7.073 7.073 0 0 1-.137-1.465v-7.437l1.492-.252V70zM86.296 74.181c0-.733.107-1.38.321-1.93.214-.552.497-1.007.847-1.368.355-.365.76-.64 1.22-.823.459-.18.928-.27 1.41-.27 1.12 0 1.983.354 2.58 1.047.597.701.898 1.767.898 3.2v.247c0 .102-.006.196-.017.284H87.85c.065.865.316 1.517.754 1.97.436.447 1.122.67 2.05.67.522 0 .964-.045 1.323-.135.358-.088.627-.178.81-.26l.206 1.246c-.18.096-.498.196-.953.305-.453.108-.967.16-1.546.16-.726 0-1.354-.108-1.883-.33a3.515 3.515 0 0 1-1.304-.905 3.665 3.665 0 0 1-.765-1.369 5.88 5.88 0 0 1-.246-1.739zm5.72-.816c.013-.675-.158-1.227-.504-1.657-.348-.435-.823-.651-1.434-.651a1.995 1.995 0 0 0-1.57.72 2.368 2.368 0 0 0-.424.739c-.103.28-.17.56-.2.85h4.131zM98.138 78.525c-.92-.024-1.57-.222-1.954-.596-.384-.374-.58-.953-.58-1.745V66.182l1.492-.252v10.015c0 .243.023.45.065.606a.822.822 0 0 0 .207.387c.096.096.224.17.386.216.159.05.356.089.59.118l-.206 1.253zM100.669 68.685a.968.968 0 0 1-.682-.265c-.187-.178-.28-.412-.28-.712 0-.298.093-.538.28-.711a.95.95 0 0 1 .682-.267.95.95 0 0 1 .682.267c.187.173.28.413.28.71 0 .301-.093.535-.28.713a.968.968 0 0 1-.682.265zm-.736 9.84h1.49v-8.333h-1.49v8.333zM109.13 77.69c-.129.088-.375.195-.744.33-.368.135-.8.2-1.292.2-.502 0-.974-.077-1.417-.243a2.985 2.985 0 0 1-1.162-.744 3.522 3.522 0 0 1-.783-1.257c-.195-.504-.29-1.099-.29-1.795 0-.607.09-1.165.272-1.674.182-.507.447-.947.793-1.312a3.65 3.65 0 0 1 1.274-.864c.504-.214 1.07-.318 1.698-.318.695 0 1.3.051 1.82.157.52.1.954.194 1.306.277v7.434c0 1.282-.332 2.213-.994 2.79-.663.574-1.667.865-3.014.865a8.074 8.074 0 0 1-1.481-.13 8.667 8.667 0 0 1-1.21-.3l.273-1.3c.3.12.666.223 1.099.313.432.087.884.136 1.351.136.888 0 1.527-.174 1.916-.53.39-.352.586-.913.586-1.683v-.352zm-.014-6.186a5.424 5.424 0 0 0-.6-.118 6.927 6.927 0 0 0-1.018-.056c-.804 0-1.42.26-1.852.787-.435.52-.651 1.219-.651 2.082 0 .477.062.89.185 1.233.123.34.287.623.497.85.209.22.449.392.721.495.274.109.554.16.84.16.397 0 .76-.056 1.092-.17.331-.107.592-.242.786-.39v-4.873zM112.623 74.181c0-.733.106-1.38.32-1.93.214-.552.497-1.007.847-1.368.355-.365.762-.64 1.22-.823.46-.18.93-.27 1.413-.27 1.119 0 1.98.354 2.578 1.047.596.701.897 1.767.897 3.2v.247c0 .102-.006.196-.015.284h-5.707c.065.865.317 1.517.755 1.97.436.447 1.122.67 2.05.67.523 0 .964-.045 1.32-.135.36-.088.63-.178.812-.26l.206 1.246c-.178.096-.498.196-.951.305-.455.108-.97.16-1.547.16-.726 0-1.354-.108-1.88-.33a3.485 3.485 0 0 1-1.307-.905 3.647 3.647 0 0 1-.765-1.369 5.979 5.979 0 0 1-.246-1.739zm5.72-.816c.012-.675-.156-1.227-.504-1.657-.346-.435-.824-.651-1.434-.651-.344 0-.643.069-.907.2-.26.133-.483.308-.662.52a2.431 2.431 0 0 0-.426.739c-.103.28-.17.56-.2.85h4.133zM121.965 70.43c.34-.083.795-.174 1.362-.27.566-.1 1.217-.143 1.955-.143.662 0 1.213.092 1.65.279.44.187.787.447 1.049.786.262.334.447.74.555 1.209.106.47.157.988.157 1.552v4.682h-1.488v-4.361c0-.513-.034-.95-.103-1.312-.072-.362-.184-.657-.348-.884a1.357 1.357 0 0 0-.637-.486c-.268-.101-.6-.153-.996-.153-.16 0-.325.005-.496.014-.172.013-.334.026-.487.042a7.795 7.795 0 0 0-.417.058c-.125.022-.215.035-.268.048v7.034h-1.488V70.43zM132.478 70h3.155v1.248h-3.155v3.846c0 .417.032.761.095 1.034.064.275.16.489.29.645.127.151.286.26.48.325.192.065.417.097.672.097.45 0 .811-.048 1.082-.153.273-.104.463-.174.57-.216l.287 1.234c-.149.072-.412.169-.785.278-.372.112-.8.168-1.28.168-.568 0-1.036-.07-1.402-.212a2.087 2.087 0 0 1-.891-.653 2.557 2.557 0 0 1-.471-1.064 6.98 6.98 0 0 1-.136-1.465v-7.437l1.489-.252V70zM137.445 70.43c.343-.083.795-.174 1.362-.27.567-.1 1.218-.143 1.955-.143.663 0 1.213.092 1.65.279.44.187.788.447 1.05.786.263.334.447.74.554 1.209.106.47.158.988.158 1.552v4.682h-1.489v-4.361c0-.513-.034-.95-.103-1.312-.07-.362-.184-.657-.346-.884a1.36 1.36 0 0 0-.639-.486c-.268-.101-.6-.153-.995-.153-.16 0-.326.005-.496.014-.17.013-.335.026-.488.042a7.795 7.795 0 0 0-.417.058c-.125.022-.213.035-.268.048v7.034h-1.488V70.43zM145.297 80.077c.12.055.27.107.46.151.184.053.368.074.552.074.583 0 1.044-.131 1.378-.389.331-.262.629-.689.895-1.276a46.767 46.767 0 0 1-1.883-4.078 35.628 35.628 0 0 1-1.449-4.368h1.602a36.991 36.991 0 0 0 .98 3.27c.2.585.419 1.176.656 1.758.232.592.48 1.157.736 1.7.406-1.121.758-2.228 1.056-3.331a80.56 80.56 0 0 0 .85-3.397h1.54a65.227 65.227 0 0 1-1.283 4.529 47.13 47.13 0 0 1-1.521 4.06 8.692 8.692 0 0 1-.667 1.245c-.23.346-.483.63-.758.855a2.793 2.793 0 0 1-.94.495 4.112 4.112 0 0 1-1.547.14 6.29 6.29 0 0 1-.377-.065 2.97 2.97 0 0 1-.336-.093 1.307 1.307 0 0 1-.216-.078l.272-1.202zM163.309 73.878c.172.212.387.494.65.842.261.343.53.729.809 1.151.278.424.552.862.824 1.324.271.46.506.903.697 1.33h-1.698a25.351 25.351 0 0 0-1.459-2.431c-.255-.379-.51-.73-.76-1.066a37.088 37.088 0 0 0-.681-.865c-.14.014-.282.018-.426.018H159.431v4.344h-1.552V67.58a9.183 9.183 0 0 1 1.466-.22 23.783 23.783 0 0 1 1.48-.05c1.56 0 2.749.29 3.565.877.82.586 1.228 1.464 1.228 2.63 0 .734-.196 1.365-.586 1.89-.39.524-.965.915-1.723 1.17m-2.356-5.209c-.663 0-1.168.018-1.522.048v4.183h1.104c.537 0 1.016-.027 1.443-.078.43-.058.789-.157 1.085-.305.293-.152.52-.361.677-.633.164-.276.243-.635.243-1.084 0-.412-.08-.764-.243-1.044a1.788 1.788 0 0 0-.648-.657 2.931 2.931 0 0 0-.96-.334 6.678 6.678 0 0 0-1.179-.096M175.135 74.164c0 .664-.096 1.259-.287 1.795a4.065 4.065 0 0 1-.812 1.378 3.593 3.593 0 0 1-1.24.892 3.919 3.919 0 0 1-1.57.31 3.916 3.916 0 0 1-1.571-.31c-.48-.209-.894-.51-1.242-.892a4.035 4.035 0 0 1-.808-1.378 5.257 5.257 0 0 1-.29-1.795c0-.646.097-1.244.29-1.786.191-.539.46-1.001.808-1.383a3.546 3.546 0 0 1 1.242-.89 3.894 3.894 0 0 1 1.57-.316c.566 0 1.089.107 1.57.316.48.209.895.503 1.241.89.348.382.619.844.812 1.383a5.34 5.34 0 0 1 .287 1.786m-1.554 0c0-.938-.212-1.683-.631-2.235-.424-.548-.999-.825-1.724-.825-.728 0-1.302.277-1.725.825-.42.552-.631 1.297-.631 2.235 0 .94.212 1.687.631 2.235.423.552.997.826 1.725.826.725 0 1.3-.274 1.724-.826.42-.548.631-1.296.631-2.235M182.36 71.313c-.224.247-.521.59-.888 1.042-.37.45-.764.945-1.185 1.489a44.769 44.769 0 0 0-1.268 1.715c-.42.595-.792 1.17-1.111 1.714h4.582v1.251h-6.361v-.995c.255-.47.571-.987.945-1.553.371-.566.766-1.131 1.175-1.69.412-.559.816-1.09 1.202-1.588.393-.495.731-.917 1.02-1.254h-4.12V70.19h6.01v1.122zM191.11 78.525a65.49 65.49 0 0 1-.953-2.64 42.127 42.127 0 0 1-.92-3.082 47.93 47.93 0 0 1-.915 3.082 54.637 54.637 0 0 1-.946 2.64h-1.296a40.966 40.966 0 0 1-1.443-3.766 66.42 66.42 0 0 1-1.331-4.568h1.602c.107.505.236 1.049.386 1.635.148.587.306 1.178.47 1.76.164.591.34 1.156.522 1.7a38 38 0 0 0 .511 1.43 35.96 35.96 0 0 0 .54-1.597c.176-.56.342-1.129.505-1.697.16-.574.311-1.135.455-1.683.143-.552.27-1.065.377-1.548h1.234c.097.483.214.996.354 1.548.138.548.288 1.109.447 1.683.162.568.328 1.138.504 1.697.176.561.356 1.091.54 1.596.158-.407.327-.887.502-1.43a58.35 58.35 0 0 0 1.001-3.46c.152-.585.279-1.129.388-1.634h1.537a64.785 64.785 0 0 1-1.333 4.568 40.985 40.985 0 0 1-1.441 3.766h-1.297zM203.832 74.164c0 .664-.094 1.259-.286 1.795a4.089 4.089 0 0 1-.81 1.378 3.593 3.593 0 0 1-1.242.892 3.924 3.924 0 0 1-1.57.31 3.923 3.923 0 0 1-1.572-.31 3.56 3.56 0 0 1-1.24-.892 4.012 4.012 0 0 1-.808-1.378c-.196-.536-.292-1.131-.292-1.795 0-.646.096-1.244.292-1.786.191-.539.459-1.001.808-1.383a3.501 3.501 0 0 1 1.24-.89 3.9 3.9 0 0 1 1.572-.316c.564 0 1.088.107 1.57.316.48.209.895.503 1.241.89.348.382.617.844.811 1.383a5.34 5.34 0 0 1 .286 1.786zm-1.555 0c0-.938-.209-1.683-.63-2.235-.423-.548-.998-.825-1.723-.825-.727 0-1.301.277-1.725.825-.421.552-.632 1.297-.632 2.235 0 .94.21 1.687.632 2.235.424.552.998.826 1.725.826.725 0 1.3-.274 1.723-.826.421-.548.63-1.296.63-2.235zm-.415-7.128l-2.259 2.193-.755-.673 2.054-2.464.96.944zM204.49 81.519c-.13 0-.294-.014-.499-.043a2.958 2.958 0 0 1-.512-.131l.191-1.216a3.24 3.24 0 0 0 .757.107c.513 0 .876-.156 1.094-.47.221-.315.33-.777.33-1.385v-8.19h1.49v8.172c0 1.07-.244 1.86-.729 2.383-.486.517-1.195.773-2.123.773m2.098-12.834a.97.97 0 0 1-.681-.265c-.183-.178-.282-.412-.282-.712 0-.298.099-.538.282-.711a.984.984 0 0 1 .681-.267c.267 0 .498.094.682.267.187.173.28.413.28.71 0 .301-.093.535-.28.713a.96.96 0 0 1-.682.265"/>
    </g>
</svg>
