<svg xmlns="http://www.w3.org/2000/svg" width="20" height="24" viewBox="0 0 20 24">
    <path fill="#8B9097" fill-rule="nonzero" d="M13.278.678C12.835.235 12.235 0 11.583 0H3.39A3.385 3.385 0 0 0 0 3.391V20.61A3.385 3.385 0 0 0 3.391 24h12.757a3.385 3.385 0 0 0 3.391-3.391V7.643c0-.678-.287-1.33-.782-1.8L13.278.678zm-.235 1.905L16.8 6.13h-2.843a.924.924 0 0 1-.914-.913V2.583zM18 20.609a1.815 1.815 0 0 1-1.826 1.826H3.39a1.815 1.815 0 0 1-1.826-1.826V3.39c0-1.017.809-1.826 1.826-1.826h8.087v3.652a2.494 2.494 0 0 0 2.479 2.479H18v12.913zm-9.298-6.557L5.931 11.28a.75.75 0 1 1 1.06-1.06l2.772 2.771 2.771-2.771a.75.75 0 0 1 1.061 1.06l-2.772 2.772 2.772 2.772a.75.75 0 0 1-1.06 1.06l-2.772-2.771-2.772 2.771a.75.75 0 1 1-1.06-1.06l2.771-2.772z"/>
</svg>
