<svg xmlns="http://www.w3.org/2000/svg" width="242" height="71" viewBox="0 0 242 71">
    <g fill="none" fill-rule="evenodd">
        <path fill="#FFF" d="M0 36.709h106.036V0H0z"/>
        <path fill="#B72232" d="M0 70.7h106.036V35.35H0z"/>
        <path fill="#808184" d="M.333 70.364h105.374V.334H.333v70.03zM0 70.702h106.036V0H0v70.702z"/>
        <path fill="#1D1D1B" d="M131.944 14.257c-.902.062-1.753.177-2.55.35V32.38h3.277v-6.817h2.082c.172 0 .383-.01.624-.026.332.415.685.888 1.068 1.42.382.527.768 1.091 1.158 1.69a65.47 65.47 0 0 1 1.158 1.848c.381.632.736 1.26 1.068 1.885h3.669a28.05 28.05 0 0 0-1.068-2.068 42.756 42.756 0 0 0-2.525-3.915 28.802 28.802 0 0 0-1.118-1.458c2.41-.866 3.618-2.525 3.618-4.97 0-1.962-.69-3.417-2.07-4.37-1.378-.955-3.37-1.43-5.971-1.43-.713 0-1.519.029-2.42.09zm4.423 2.887a4.205 4.205 0 0 1 1.39.482c.392.225.691.53.9.91.208.382.313.85.313 1.405 0 .591-.105 1.076-.312 1.457-.21.382-.517.687-.924.91-.41.229-.915.383-1.523.47-.608.087-1.31.13-2.106.13h-1.434v-5.829c.591-.051 1.233-.076 1.927-.076.64 0 1.231.047 1.77.141zm9.184 11.322a6.131 6.131 0 0 0 1.276 2.236c.573.634 1.302 1.126 2.187 1.481.884.358 1.925.535 3.123.535.467 0 .928-.025 1.379-.078.45-.053.87-.116 1.262-.194.39-.08.737-.167 1.041-.263.304-.094.543-.184.716-.272l-.417-2.576c-.363.156-.863.303-1.496.445a9.93 9.93 0 0 1-2.095.206c-1.302 0-2.295-.3-2.981-.896-.686-.6-1.07-1.446-1.158-2.538h8.98a13.32 13.32 0 0 0 .051-1.172c0-2.307-.526-4.042-1.574-5.203-1.05-1.164-2.512-1.744-4.384-1.744-.8 0-1.578.152-2.342.455a5.889 5.889 0 0 0-2.031 1.352c-.59.6-1.062 1.35-1.419 2.253-.355.903-.533 1.95-.533 3.149 0 1.022.138 1.963.415 2.824zm2.864-4.23c.053-.4.147-.789.287-1.172.138-.38.334-.719.583-1.015.254-.294.56-.534.925-.714.366-.184.791-.274 1.277-.274.467 0 .87.082 1.208.246.338.165.625.392.86.679.233.284.411.623.532 1.015.122.39.183.801.183 1.234h-5.855zm20.57 4.554c-.53.78-1.365 1.17-2.511 1.17-.52 0-1.01-.082-1.47-.248-.459-.165-.83-.342-1.107-.532v-7.782c.314-.085.63-.143.952-.168.32-.026.627-.04.923-.04 1.406 0 2.425.39 3.057 1.173.633.78.95 1.872.95 3.279 0 1.318-.264 2.364-.794 3.148zm3.54-6.156c-.321-.875-.781-1.622-1.38-2.237a6.007 6.007 0 0 0-2.17-1.417c-.853-.33-1.815-.495-2.89-.495-1.042 0-2.029.078-2.968.235a24.8 24.8 0 0 0-2.366.492v17.983h3.146V31.91c.35.191.79.365 1.328.521a6.389 6.389 0 0 0 1.77.235c.953 0 1.807-.176 2.563-.52a5.16 5.16 0 0 0 1.886-1.459c.505-.624.89-1.37 1.157-2.237.27-.87.404-1.822.404-2.862 0-1.093-.16-2.076-.48-2.955zm14.898-3.864h-3.15v11.01c-.209.051-.524.094-.95.128-.423.035-.83.053-1.21.053-1.057 0-1.8-.313-2.225-.939-.425-.624-.638-1.664-.638-3.122v-7.13h-3.147v7.626c0 .92.095 1.765.285 2.537.192.771.509 1.436.95 1.99.44.555 1.032.988 1.771 1.302.736.313 1.651.468 2.744.468a19.18 19.18 0 0 0 3.201-.247c.97-.167 1.762-.327 2.369-.482V18.77zm12.046 10.031c-.659.79-1.57 1.185-2.731 1.185-.504 0-.933-.022-1.29-.065a8.73 8.73 0 0 1-.871-.141v-7.834c.277-.191.647-.365 1.106-.52.46-.156.95-.235 1.472-.235 1.144 0 1.98.39 2.511 1.172.527.78.793 1.84.793 3.173 0 1.389-.33 2.476-.99 3.265zm3.812-6.112c-.268-.878-.654-1.628-1.156-2.253a5.023 5.023 0 0 0-1.889-1.443c-.753-.339-1.608-.508-2.563-.508-.64 0-1.225.078-1.754.235-.53.155-.975.327-1.342.52v-7.054l-3.15.522v19.256c.628.191 1.412.362 2.357.521.945.155 1.937.233 2.979.233 1.074 0 2.04-.165 2.888-.493a5.97 5.97 0 0 0 2.173-1.432c.601-.625 1.058-1.376 1.38-2.25.321-.877.48-1.861.48-2.954 0-1.06-.134-2.025-.403-2.9zm8.835 7.35a5.089 5.089 0 0 1-1.03-.223 1.446 1.446 0 0 1-.636-.415 1.521 1.521 0 0 1-.326-.664 4.32 4.32 0 0 1-.09-.962V12.186l-3.147.522v15.665c0 .676.072 1.278.22 1.809.145.528.403.972.767 1.327.363.355.852.627 1.47.817.615.193 1.392.298 2.331.314l.44-2.601zm2.575 2.34h3.149V18.77h-3.15v13.61zm2.915-19.02a1.945 1.945 0 0 0-1.354-.522c-.538 0-.996.174-1.379.522-.381.347-.571.824-.571 1.431 0 .591.19 1.06.571 1.404.383.35.841.522 1.379.522.52 0 .972-.173 1.354-.522.383-.345.573-.813.573-1.404 0-.607-.19-1.084-.573-1.431zm3.903 15.079c.277.876.698 1.63 1.263 2.264.564.634 1.274 1.126 2.132 1.481.86.358 1.87.535 3.032.535.747 0 1.471-.068 2.174-.208.701-.14 1.227-.296 1.573-.468l-.442-2.601a7.892 7.892 0 0 1-1.353.39 8.14 8.14 0 0 1-1.588.155c-1.44 0-2.462-.395-3.069-1.185-.606-.79-.911-1.86-.911-3.212 0-1.405.322-2.492.961-3.264.644-.775 1.58-1.161 2.811-1.161.523 0 1.01.053 1.47.156.46.106.873.236 1.236.393l.677-2.577a9.56 9.56 0 0 0-3.642-.703c-1.04 0-1.979.181-2.812.547a6.147 6.147 0 0 0-2.12 1.508 6.732 6.732 0 0 0-1.339 2.277 8.359 8.359 0 0 0-.47 2.824c0 1.025.139 1.974.417 2.849zM141.856 48.407c-.32-.873-.767-1.626-1.34-2.252a5.819 5.819 0 0 0-2.067-1.44c-.809-.34-1.688-.509-2.642-.509-.955 0-1.831.168-2.628.508a5.95 5.95 0 0 0-2.07 1.441c-.58.626-1.03 1.379-1.353 2.252-.323.875-.482 1.853-.482 2.927 0 1.077.159 2.056.482 2.939.322.885.768 1.642 1.34 2.267a6.009 6.009 0 0 0 2.056 1.456c.799.347 1.682.522 2.655.522.972 0 1.86-.175 2.667-.522a5.952 5.952 0 0 0 2.067-1.456c.573-.625 1.016-1.382 1.328-2.267.313-.883.469-1.862.469-2.939 0-1.074-.16-2.052-.482-2.927zm-3.616 6.18c-.582.8-1.392 1.197-2.433 1.197-1.042 0-1.853-.398-2.432-1.196-.582-.798-.872-1.884-.872-3.254 0-1.352.29-2.425.872-3.211.579-.79 1.39-1.184 2.432-1.184 1.041 0 1.851.394 2.433 1.184.58.786.872 1.859.872 3.211 0 1.37-.292 2.456-.872 3.254zm8.73-15.13c-.92.996-1.38 2.373-1.38 4.123v14.573h3.15V47.17h4.943v-2.627h-4.943v-.908c0-.437.042-.842.13-1.214.085-.37.233-.689.443-.95.207-.259.486-.464.832-.611.346-.147.77-.22 1.274-.22.45 0 .872.042 1.264.129.39.088.732.2 1.026.34l.598-2.603c-.278-.104-.692-.22-1.25-.352-.554-.13-1.195-.196-1.925-.196-1.855 0-3.242.5-4.162 1.498zm17.785.573c-.928.06-1.773.178-2.536.35v17.773h3.279v-6.35h1.638c1.318 0 2.492-.111 3.514-.338 1.023-.227 1.889-.576 2.6-1.053a4.705 4.705 0 0 0 1.628-1.849c.374-.755.56-1.66.56-2.717 0-2.03-.699-3.524-2.095-4.477-1.396-.953-3.406-1.433-6.025-1.433-.779 0-1.636.032-2.563.094zm4.553 2.887c.548.096 1.02.257 1.42.483.398.224.71.538.934.936.227.399.34.894.34 1.485 0 1.23-.425 2.066-1.274 2.508-.851.443-2.066.663-3.644.663h-1.586v-6.14c.537-.054 1.222-.076 2.055-.076.624 0 1.209.049 1.755.141zm20.323 5.49c-.322-.873-.766-1.626-1.34-2.252a5.778 5.778 0 0 0-2.07-1.44c-.804-.34-1.683-.509-2.64-.509-.952 0-1.829.168-2.627.508a5.944 5.944 0 0 0-2.068 1.441c-.583.626-1.034 1.379-1.354 2.252-.322.875-.48 1.853-.48 2.927 0 1.077.158 2.056.48 2.939.32.885.768 1.642 1.34 2.267a6.003 6.003 0 0 0 2.055 1.456c.797.347 1.684.522 2.655.522.972 0 1.86-.175 2.67-.522a6.021 6.021 0 0 0 2.067-1.456c.571-.625 1.013-1.382 1.326-2.267.312-.883.47-1.862.47-2.939 0-1.074-.164-2.052-.484-2.927zm-3.616 6.18c-.58.8-1.393 1.197-2.433 1.197-1.042 0-1.853-.398-2.432-1.196-.582-.798-.874-1.884-.874-3.254 0-1.352.292-2.425.874-3.211.579-.79 1.39-1.184 2.432-1.184 1.04 0 1.853.394 2.433 1.184.582.786.87 1.859.87 3.211 0 1.37-.288 2.456-.87 3.254zm12.53 1.223c-.417-.054-.76-.125-1.03-.222a1.446 1.446 0 0 1-.637-.415 1.494 1.494 0 0 1-.322-.665 4.134 4.134 0 0 1-.094-.962V37.96l-3.148.522v15.664c0 .677.07 1.28.222 1.807.148.53.4.974.766 1.33.365.355.857.63 1.472.819.614.189 1.392.293 2.329.31l.441-2.6zm5.438-.3c-.469-.286-.703-.8-.703-1.547 0-.381.086-.7.26-.95.172-.25.401-.446.689-.585a3.25 3.25 0 0 1 .965-.287 7.098 7.098 0 0 1 1.053-.078c.397 0 .763.025 1.093.078.33.052.579.103.755.156v3.487c-.505.103-1.243.156-2.214.156-.796 0-1.428-.143-1.898-.43zm-.807-11.096c-.763.138-1.344.277-1.745.417l.392 2.548c.382-.138.875-.26 1.484-.364a11.991 11.991 0 0 1 2.003-.154c.539 0 .984.069 1.34.207.355.139.641.335.858.585.216.252.37.544.456.872.086.33.131.675.131 1.04v.52a10.706 10.706 0 0 0-1.224-.22 10.2 10.2 0 0 0-3.24.156 5.329 5.329 0 0 0-1.808.728 3.735 3.735 0 0 0-1.237 1.314c-.303.538-.454 1.196-.454 1.978 0 .815.133 1.501.401 2.055a3.58 3.58 0 0 0 1.12 1.355c.477.347 1.056.595 1.732.752.674.157 1.42.235 2.237.235 1.23 0 2.338-.073 3.316-.22a38.614 38.614 0 0 0 2.2-.378v-8.25c0-.795-.09-1.529-.273-2.198-.183-.667-.487-1.237-.912-1.702-.426-.469-.993-.836-1.704-1.095-.709-.26-1.587-.389-2.627-.389-.869 0-1.683.07-2.446.208zm11.813 13.739h3.15V47.17c.208-.034.528-.076.961-.128.433-.053.851-.08 1.25-.08.537 0 .995.076 1.368.22.372.15.665.383.882.704.218.321.373.738.468 1.248.095.514.143 1.133.143 1.862v7.156h3.15v-7.651c0-.92-.092-1.763-.275-2.537-.18-.772-.491-1.43-.935-1.976-.442-.547-1.035-.971-1.784-1.275-.745-.305-1.673-.456-2.784-.456-1.18 0-2.255.078-3.225.234-.971.156-1.76.323-2.37.495v13.166zm18.487-10.018c.53-.781 1.367-1.171 2.512-1.171.521 0 1.012.084 1.471.247.46.165.828.342 1.104.533v7.806c-.224.053-.514.1-.87.143a10.74 10.74 0 0 1-1.288.063c-1.164 0-2.076-.393-2.733-1.181-.66-.79-.99-1.878-.99-3.266 0-1.336.266-2.395.794-3.174zm8.239-10.176l-3.152.522v6.53a7.56 7.56 0 0 0-1.3-.519c-.503-.156-1.085-.234-1.742-.234-.972 0-1.83.17-2.578.506a5.3 5.3 0 0 0-1.898 1.445c-.522.625-.917 1.375-1.185 2.251-.27.875-.403 1.85-.403 2.926 0 1.094.159 2.08.481 2.954.321.875.78 1.622 1.38 2.236a6 6 0 0 0 2.172 1.42c.851.329 1.813.494 2.888.494 1.042 0 2.036-.078 2.98-.233.946-.156 1.73-.328 2.357-.523V37.96z"/>
    </g>
</svg>
