<svg xmlns="http://www.w3.org/2000/svg" width="293" height="68" viewBox="0 0 293 68">
    <g fill="none" fill-rule="evenodd">
        <path fill="#231F20" d="M128.408 14.162c2.468 0 4.348.452 5.652 1.355 1.31.903 1.966 2.282 1.966 4.137 0 2.316-1.144 3.887-3.43 4.708a26.2 26.2 0 0 1 1.06 1.378c.395.543.797 1.134 1.208 1.76.41.63.8 1.282 1.181 1.952a27.99 27.99 0 0 1 1.015 1.955h-3.474a37.543 37.543 0 0 0-1.016-1.786 47.427 47.427 0 0 0-1.095-1.75 47.459 47.459 0 0 0-1.094-1.601c-.36-.5-.7-.947-1.013-1.342a6.45 6.45 0 0 1-.59.026H126.81v6.453h-3.107V14.583a17.652 17.652 0 0 1 2.418-.337 35.346 35.346 0 0 1 2.288-.084m.22 2.683c-.656 0-1.261.031-1.82.074v5.52h1.355c.756 0 1.42-.042 1.994-.125.576-.077 1.057-.227 1.441-.442.383-.212.68-.5.878-.859.196-.363.292-.824.292-1.382 0-.524-.096-.968-.292-1.328a2.151 2.151 0 0 0-.852-.862c-.364-.218-.809-.368-1.321-.459a9.802 9.802 0 0 0-1.674-.137M148.538 20.616c-.333.341-.76.829-1.295 1.45a82.007 82.007 0 0 0-1.713 2.086c-.61.763-1.218 1.561-1.834 2.387a43.95 43.95 0 0 0-1.661 2.384h6.648v2.484h-10.245v-1.85c.359-.653.81-1.369 1.353-2.14.543-.775 1.104-1.552 1.675-2.333a74.814 74.814 0 0 1 1.713-2.227 108.77 108.77 0 0 1 1.515-1.847h-5.937v-2.49h9.781v2.096zM150.31 25.024c0-1.134.166-2.127.506-2.978.334-.856.783-1.564 1.337-2.134a5.637 5.637 0 0 1 1.926-1.28 6.05 6.05 0 0 1 2.214-.43c1.778 0 3.162.55 4.154 1.653.997 1.098 1.489 2.744 1.489 4.923 0 .171 0 .35-.01.554-.011.209-.023.395-.039.556h-8.497c.078 1.036.447 1.837 1.094 2.405.648.562 1.592.848 2.821.848.723 0 1.383-.066 1.986-.2.595-.131 1.07-.27 1.414-.417l.394 2.438c-.165.08-.39.17-.677.262-.287.09-.618.168-.982.246-.371.075-.77.136-1.2.184-.424.047-.861.071-1.3.071-1.14 0-2.12-.166-2.958-.5-.84-.342-1.529-.806-2.072-1.41a5.662 5.662 0 0 1-1.204-2.121c-.268-.806-.396-1.698-.396-2.67zm8.647-1.33c0-.406-.06-.797-.174-1.168a2.805 2.805 0 0 0-.502-.959 2.37 2.37 0 0 0-.816-.64c-.316-.161-.7-.236-1.142-.236-.465 0-.863.085-1.212.256a2.791 2.791 0 0 0-.874.677 3.175 3.175 0 0 0-.553.962 5.53 5.53 0 0 0-.272 1.107h5.545zM164.375 24.978c0-.951.149-1.843.45-2.674.29-.827.715-1.55 1.26-2.154a5.853 5.853 0 0 1 2.014-1.431c.79-.345 1.668-.518 2.659-.518 1.212 0 2.366.222 3.45.667l-.642 2.438a6.502 6.502 0 0 0-1.17-.365c-.437-.103-.899-.15-1.39-.15-1.168 0-2.056.36-2.666 1.094-.603.734-.907 1.764-.907 3.093 0 1.283.286 2.299.862 3.04.572.749 1.543 1.123 2.906 1.123.511 0 1.009-.053 1.502-.15a7.2 7.2 0 0 0 1.282-.369l.42 2.464c-.328.16-.829.313-1.49.444-.666.134-1.352.195-2.058.195-1.105 0-2.06-.168-2.87-.501-.813-.342-1.487-.805-2.019-1.41a5.733 5.733 0 0 1-1.197-2.144 8.906 8.906 0 0 1-.396-2.692M185.732 20.616c-.323.341-.76.829-1.29 1.45a73.52 73.52 0 0 0-1.712 2.086c-.607.763-1.22 1.561-1.838 2.387a47.68 47.68 0 0 0-1.664 2.384h6.653v2.484h-10.242v-1.85c.356-.653.804-1.369 1.351-2.14a103.9 103.9 0 0 1 1.676-2.333 80.182 80.182 0 0 1 1.706-2.227c.573-.706 1.077-1.32 1.521-1.847h-5.942v-2.49h9.78v2.096zM200.242 24.978c0 .982-.124 1.888-.385 2.708-.254.823-.615 1.527-1.092 2.119a4.831 4.831 0 0 1-1.79 1.38c-.709.33-1.52.494-2.421.494-.61 0-1.17-.074-1.677-.224a6.081 6.081 0 0 1-1.255-.493v5h-2.981V18.938a24.96 24.96 0 0 1 2.24-.465 17.21 17.21 0 0 1 2.808-.224c1.02 0 1.928.158 2.733.47.804.314 1.49.763 2.059 1.341.57.586 1.004 1.293 1.306 2.12.303.828.455 1.764.455 2.798m-3.051.046c0-1.327-.3-2.362-.901-3.098-.6-.742-1.567-1.11-2.894-1.11-.28 0-.572.008-.876.032a4.385 4.385 0 0 0-.898.166v7.365c.262.174.614.345 1.046.5.434.157.9.238 1.392.238 1.083 0 1.878-.37 2.377-1.11.499-.74.754-1.73.754-2.983M214.977 24.95c0 1.021-.149 1.949-.448 2.784-.293.839-.71 1.552-1.25 2.146a5.765 5.765 0 0 1-1.958 1.382c-.767.326-1.608.488-2.528.488-.916 0-1.76-.162-2.513-.488a5.732 5.732 0 0 1-1.947-1.382c-.543-.594-.963-1.307-1.265-2.146-.309-.835-.46-1.763-.46-2.783 0-1.019.151-1.938.46-2.771a6.221 6.221 0 0 1 1.275-2.13 5.612 5.612 0 0 1 1.966-1.364c.75-.324 1.58-.485 2.484-.485.904 0 1.736.16 2.502.485a5.475 5.475 0 0 1 1.953 1.363c.544.59.97 1.302 1.271 2.13.305.834.458 1.753.458 2.772m-3.06 0c0-1.283-.27-2.293-.823-3.04-.552-.747-1.318-1.123-2.301-1.123-.987 0-1.757.376-2.307 1.124-.547.746-.822 1.756-.822 3.039 0 1.299.275 2.325.822 3.079.55.755 1.32 1.135 2.307 1.135.983 0 1.75-.38 2.301-1.135.554-.754.823-1.78.823-3.08M221.28 29.262c.79 0 1.363-.093 1.726-.28.36-.193.544-.515.544-.976 0-.429-.195-.776-.583-1.055-.385-.285-1.02-.591-1.906-.915a14.151 14.151 0 0 1-1.49-.626 5.117 5.117 0 0 1-1.172-.778 3.261 3.261 0 0 1-.776-1.073c-.187-.42-.284-.93-.284-1.539 0-1.182.434-2.114 1.306-2.793.869-.683 2.051-1.026 3.549-1.026.755 0 1.476.07 2.167.21.692.143 1.207.279 1.553.41l-.546 2.412a6.871 6.871 0 0 0-1.256-.404c-.503-.125-1.092-.188-1.77-.188-.606 0-1.101.101-1.478.307-.383.204-.57.522-.57.949 0 .213.036.402.112.564.075.169.202.32.383.458.18.142.415.28.716.42.294.136.658.285 1.082.432.708.26 1.307.523 1.796.776.496.252.904.537 1.222.863.317.32.554.684.701 1.094.15.412.222.904.222 1.48 0 1.229-.453 2.161-1.368 2.797-.907.63-2.211.944-3.903.944-1.132 0-2.046-.096-2.736-.281-.69-.19-1.174-.337-1.456-.454l.522-2.493c.447.182.97.358 1.588.517.614.17 1.318.248 2.104.248M240.914 24.978c0 .982-.126 1.888-.383 2.708a6.24 6.24 0 0 1-1.094 2.119 4.857 4.857 0 0 1-1.786 1.38c-.713.33-1.523.494-2.425.494a5.942 5.942 0 0 1-1.679-.224 5.934 5.934 0 0 1-1.253-.493v5h-2.983V18.938a25.497 25.497 0 0 1 2.243-.465c.889-.147 1.825-.224 2.809-.224 1.017 0 1.929.158 2.736.47a5.803 5.803 0 0 1 2.055 1.341c.566.586 1 1.293 1.306 2.12.3.828.454 1.764.454 2.798m-3.051.046c0-1.327-.305-2.362-.901-3.098-.604-.742-1.561-1.11-2.895-1.11-.283 0-.573.008-.876.032-.306.025-.6.078-.897.166v7.365c.26.174.611.345 1.046.5a4.08 4.08 0 0 0 1.394.238c1.084 0 1.871-.37 2.376-1.11.503-.74.753-1.73.753-2.983M255.649 24.95c0 1.021-.149 1.949-.445 2.784-.294.839-.712 1.552-1.254 2.146a5.734 5.734 0 0 1-1.961 1.382c-.762.326-1.604.488-2.523.488-.921 0-1.76-.162-2.513-.488a5.753 5.753 0 0 1-1.948-1.382c-.542-.594-.961-1.307-1.265-2.146-.307-.835-.46-1.763-.46-2.783 0-1.019.153-1.938.46-2.771.304-.83.728-1.54 1.281-2.13a5.617 5.617 0 0 1 1.95-1.364c.76-.324 1.593-.485 2.495-.485.897 0 1.736.16 2.5.485.76.316 1.416.774 1.956 1.363.548.59.964 1.302 1.268 2.13.306.834.459 1.753.459 2.772m-3.054 0c0-1.283-.28-2.293-.827-3.04-.55-.747-1.32-1.123-2.302-1.123-.988 0-1.758.376-2.308 1.124-.55.746-.822 1.756-.822 3.039 0 1.299.271 2.325.822 3.079.55.755 1.32 1.135 2.308 1.135.983 0 1.751-.38 2.302-1.135.548-.754.827-1.78.827-3.08M263.208 31.651c-.888-.017-1.621-.116-2.203-.293-.584-.184-1.05-.437-1.394-.777a2.716 2.716 0 0 1-.724-1.253 6.519 6.519 0 0 1-.208-1.715V14.997l2.979-.493v12.543c0 .357.029.664.085.909.059.249.158.458.31.631.146.17.345.307.6.392.255.091.58.162.973.208l-.418 2.464zM269.368 14.755c0 .558-.18 1-.54 1.328-.363.331-.791.492-1.281.492-.508 0-.944-.16-1.304-.492-.36-.328-.543-.77-.543-1.328 0-.577.183-1.028.543-1.356a1.86 1.86 0 0 1 1.304-.493c.49 0 .918.163 1.28.493.361.328.54.779.54 1.356zm-3.298 16.65h2.975V18.52h-2.975v12.884zM272.694 14.998l2.983-.495v4.018h4.58v2.493h-4.58v5.243c0 1.035.16 1.777.49 2.216.328.445.888.667 1.677.667.54 0 1.02-.059 1.442-.172.42-.114.75-.222.995-.321l.495 2.366c-.346.15-.8.302-1.358.455-.558.156-1.218.234-1.97.234-.92 0-1.687-.122-2.301-.368-.617-.247-1.107-.604-1.468-1.073-.364-.467-.614-1.038-.76-1.702-.152-.665-.225-1.42-.225-2.275V14.998zM287.423 18.201c.988 0 1.814.126 2.489.37.674.246 1.214.589 1.613 1.03.404.448.693.986.865 1.619.172.633.257 1.325.257 2.085v7.806c-.459.096-1.152.215-2.079.36-.932.135-1.977.207-3.145.207a9.382 9.382 0 0 1-2.115-.22c-.64-.154-1.189-.386-1.64-.716a3.374 3.374 0 0 1-1.058-1.281c-.256-.527-.383-1.175-.383-1.948 0-.735.146-1.362.43-1.87.289-.51.68-.928 1.175-1.247a5.163 5.163 0 0 1 1.71-.69 9.81 9.81 0 0 1 2.035-.207 9.15 9.15 0 0 1 2.188.27v-.495c0-.343-.04-.672-.124-.98a1.973 1.973 0 0 0-.432-.828 2.01 2.01 0 0 0-.81-.554c-.337-.13-.76-.199-1.269-.199-.686 0-1.322.053-1.899.15a8.133 8.133 0 0 0-1.399.345l-.374-2.415c.376-.13.928-.257 1.652-.391.723-.134 1.493-.2 2.313-.2m.25 11.112c.918 0 1.617-.052 2.092-.15v-3.303a7.938 7.938 0 0 0-.716-.144 6.547 6.547 0 0 0-1.034-.074c-.324 0-.656.023-.995.074a3.238 3.238 0 0 0-.916.27 1.675 1.675 0 0 0-.648.553c-.166.24-.247.538-.247.902 0 .704.222 1.19.664 1.464.442.27 1.041.408 1.8.408M128.531 37.005c2.481 0 4.378.45 5.702 1.351 1.323.906 1.981 2.316 1.981 4.238 0 1.005-.178 1.862-.527 2.578a4.467 4.467 0 0 1-1.537 1.745c-.674.456-1.494.785-2.462 1-.976.216-2.082.319-3.33.319H126.8v6.01h-3.099V37.421c.72-.16 1.524-.274 2.403-.33a37.381 37.381 0 0 1 2.426-.086m.221 2.682c-.786 0-1.435.025-1.95.075v5.816h1.51c1.49 0 2.642-.207 3.445-.628.809-.42 1.212-1.217 1.212-2.38 0-.558-.11-1.023-.325-1.401a2.264 2.264 0 0 0-.887-.888 4.204 4.204 0 0 0-1.342-.46 10.205 10.205 0 0 0-1.663-.134M150.11 47.793c0 1.015-.146 1.95-.443 2.784-.295.838-.712 1.55-1.255 2.144a5.616 5.616 0 0 1-1.96 1.38c-.764.33-1.606.49-2.525.49-.921 0-1.762-.16-2.51-.49a5.62 5.62 0 0 1-1.947-1.38 6.34 6.34 0 0 1-1.273-2.144c-.3-.834-.454-1.77-.454-2.784 0-1.017.153-1.942.454-2.768a6.282 6.282 0 0 1 1.282-2.133 5.643 5.643 0 0 1 1.963-1.37c.755-.32 1.58-.48 2.485-.48.907 0 1.736.16 2.5.48a5.48 5.48 0 0 1 1.959 1.37 6.3 6.3 0 0 1 1.267 2.133c.307.826.457 1.75.457 2.768m-3.054 0c0-1.278-.274-2.294-.824-3.04-.551-.748-1.32-1.12-2.305-1.12-.983 0-1.752.372-2.303 1.12-.55.746-.824 1.762-.824 3.04 0 1.299.274 2.325.824 3.082.551.752 1.32 1.132 2.303 1.132.985 0 1.754-.38 2.305-1.132.55-.757.824-1.783.824-3.082M157.675 54.49c-.89-.017-1.622-.114-2.206-.286-.583-.187-1.048-.442-1.394-.78a2.756 2.756 0 0 1-.726-1.26 6.428 6.428 0 0 1-.21-1.712V37.87l2.985-.496v12.513c0 .36.03.665.086.91.057.248.156.456.307.63.15.172.346.304.604.397.25.089.576.16.973.206l-.42 2.46zM163.732 52.104c.79 0 1.367-.094 1.727-.278.361-.198.54-.519.54-.977 0-.43-.194-.78-.58-1.061-.382-.279-1.023-.58-1.905-.91a15.834 15.834 0 0 1-1.49-.627 5.062 5.062 0 0 1-1.172-.775 3.176 3.176 0 0 1-.776-1.075c-.187-.42-.282-.932-.282-1.541 0-1.178.433-2.115 1.303-2.79.877-.682 2.054-1.028 3.544-1.028.76 0 1.482.073 2.174.209.691.144 1.206.281 1.552.41l-.546 2.414c-.327-.152-.745-.281-1.25-.404a7.547 7.547 0 0 0-1.776-.187c-.606 0-1.101.104-1.48.31-.376.203-.563.518-.563.946 0 .214.034.402.106.564.076.165.2.318.384.454.177.146.417.284.71.42.301.142.664.285 1.09.434.706.262 1.302.521 1.8.776.489.253.895.542 1.22.863.314.32.553.686.698 1.092.146.415.221.907.221 1.486 0 1.23-.453 2.158-1.368 2.791-.91.63-2.213.947-3.906.947-1.13 0-2.038-.096-2.728-.283-.695-.188-1.178-.34-1.456-.455l.517-2.49c.444.182.974.354 1.584.52.618.164 1.32.245 2.108.245M174.744 46.388c.378-.39.78-.814 1.207-1.267.427-.452.851-.903 1.259-1.356l1.175-1.305c.363-.418.682-.782.945-1.097h3.518c-.816.922-1.677 1.873-2.589 2.862-.907.982-1.824 1.947-2.743 2.879.495.41 1.01.907 1.55 1.49s1.067 1.206 1.577 1.861c.505.658.983 1.313 1.424 1.973.44.657.806 1.263 1.106 1.821h-3.454a21.99 21.99 0 0 0-1.02-1.6 21.12 21.12 0 0 0-1.243-1.631 30.335 30.335 0 0 0-1.356-1.488 11.347 11.347 0 0 0-1.356-1.197v5.916h-2.985V37.871l2.985-.497v9.014zM189.626 41.042c.988 0 1.81.127 2.485.368.677.25 1.21.597 1.617 1.04.4.443.687.979.861 1.61.174.632.26 1.327.26 2.084v7.813c-.459.092-1.154.217-2.081.353-.935.14-1.978.209-3.142.209a9.6 9.6 0 0 1-2.12-.22c-.638-.15-1.189-.391-1.638-.716a3.365 3.365 0 0 1-1.06-1.283c-.255-.524-.378-1.172-.378-1.946 0-.737.14-1.36.427-1.872.285-.51.681-.922 1.172-1.242a5.022 5.022 0 0 1 1.712-.691 9.582 9.582 0 0 1 3.064-.146c.36.038.748.112 1.162.208v-.496c0-.345-.041-.673-.127-.98a2.041 2.041 0 0 0-.428-.827 2.056 2.056 0 0 0-.816-.557c-.334-.13-.758-.194-1.268-.194-.69 0-1.32.047-1.898.149a8.246 8.246 0 0 0-1.401.344l-.371-2.417c.378-.13.929-.261 1.655-.392a13.03 13.03 0 0 1 2.313-.199m.247 11.115c.917 0 1.61-.053 2.094-.15v-3.301a6.15 6.15 0 0 0-.717-.149 6.424 6.424 0 0 0-1.038-.075 6.5 6.5 0 0 0-.991.075c-.34.053-.644.139-.916.27-.27.132-.487.32-.654.556-.162.239-.246.536-.246.898 0 .706.223 1.196.67 1.467.438.268 1.041.41 1.798.41"/>
        <path fill="#FFF" d="M0 35.047h101.237V0H0z"/>
        <path fill="#B72232" d="M0 67.502h101.237V33.749H0z"/>
        <path fill="#808184" d="M.318 67.178h100.604V.32H.318v66.857zM0 67.502h101.237V0H0v67.502z"/>
    </g>
</svg>
