<svg xmlns="http://www.w3.org/2000/svg" width="156" height="107" viewBox="0 0 156 107">
    <g fill="none" fill-rule="evenodd">
        <path fill="#231F20" d="M27.089 78.238c-1.968 0-2.81-1.181-2.81-4.283 0-3.546 1.123-4.872 3.085-4.872 1.966 0 2.809 1.177 2.809 4.284 0 3.544-1.124 4.871-3.084 4.871m.477-13.466c-5.743 0-8.62 3.25-8.62 9.233 0 5.979 3.21 8.543 7.942 8.543 5.746 0 8.62-3.248 8.62-9.228 0-5.984-3.212-8.548-7.942-8.548M91.385 77.69c-.71.27-1.26.499-2.337.499-.983 0-1.962-.2-1.962-1.522 0-1.12.49-1.53 1.632-1.53h2.667v2.552zm5.028 1.011v-8.146c0-5.09-3.491-5.77-7.356-5.77-7.841 0-6.997 5.003-4.804 5.623 0 0 2.273-1.728 4.8-1.728 1.76 0 2.332.483 2.332 2.889v.776c-1.342-.29-2.27-.433-3.471-.433-3.595 0-5.888 1.766-5.888 5.26 0 3.494 2.127 5.259 4.91 5.259 1.86 0 3.704-.669 4.738-2.202h.162c0 2.013 1.32 2.202 3.079 2.202 2.437 0 5.235-1.456 3.536-3.73h-2.038zM55.872 77.383c-.018-.762-.498-.843-3.061-1.394-3.363-.716-5.003-2.555-5.003-5.512 0-3.436 2.37-5.613 7.074-5.613 5.775 0 6.95 3.405 4.697 5.705-1.719-1.084-3.411-1.528-4.881-1.528-1.582 0-2.356.407-2.34 1.081.018.803.653 1.107 2.65 1.525 4.087.851 5.717 1.849 5.717 4.936 0 3.332-1.984 5.948-6.94 5.948-3.592 0-6.233-.804-6.29-3.376-.025-1.056.35-1.899 1.346-2.361 1.022.84 3.267 1.6 4.742 1.6 1.797 0 2.3-.462 2.289-1.011M9.383 70.746c-.636 0-1.153-.014-1.582-.042v-7.413c.47-.053 1.067-.089 1.843-.089 1.804 0 2.576 1.14 2.576 3.631 0 2.843-1.031 3.913-2.837 3.913m.128-12.063c-.615 0-1.046 0-2.61.093-5.902.342-7.95 2.641-6.406 4.718h2.012v17.218c0 1.704 1.741 1.897 2.68 1.897.913 0 1.792-.065 2.614-.181v-7.05c.442.044.89.077 1.364.077 5.953 0 8.935-3.063 8.935-8.709 0-5.646-3.684-8.063-8.589-8.063M45.58 78.7h-2.013V60.873c-1.112-.137-5.294-.77-5.294 2.3v17.522c0 1.732 1.244 1.822 3.488 1.822 2.783 0 5.517-1.542 3.82-3.817M79.762 78.7h-1.454l-2.632-3.984c3.672-.84 5.398-4.01 4.127-6.885-1.41-3.196-4.836-3.525-7.462-2.616-2.01.694-3.736 3.438-.59 5.185 1.758-1.944 3.421-1.902 3.825-1.075.47.966-1.036 2.644-2.718 3.295-1.461.564-2.945.79-2.945.79l3.898 7.285c.835 1.54 1.446 1.822 2.777 1.822 3.007 0 4.87-1.542 3.174-3.817M63.859 63.172v17.523c0 1.72 1.738 1.913 2.683 1.913.911 0 1.792-.065 2.613-.18V60.872c-1.112-.137-5.296-.77-5.296 2.3"/>
        <path fill="#E11F26" d="M131.633 71.319l11.089 11.095-10.65 10.643-.001-7.208a3.442 3.442 0 0 0 3.015-3.42 3.45 3.45 0 0 0-3.446-3.456 3.453 3.453 0 0 0-3.452 3.455 3.448 3.448 0 0 0 2.999 3.416v7.216L120.54 82.41l11.092-11.091zm-12.34-35.75L108.65 46.212l-.001-7.27a3.45 3.45 0 1 0-.884.012l.005 7.255-10.643-10.643 11.081-11.08 11.083 11.083zm12.778 10.647V38.96a3.447 3.447 0 0 0 2.99-3.416 3.451 3.451 0 0 0-6.903 0 3.447 3.447 0 0 0 3.029 3.42v7.25l-10.643-10.645 11.086-11.082 11.083 11.082-10.642 10.647zm0 16.185a3.435 3.435 0 0 0 3.003-3.418 3.449 3.449 0 1 0-3.887 3.422l.003 7.229-10.643-10.646 11.089-11.082 11.08 11.085-10.644 10.646-.001-7.236zM119.48 36.64v7.194a3.454 3.454 0 0 0-3.036 3.425 3.45 3.45 0 0 0 3.454 3.448 3.443 3.443 0 0 0 3.448-3.448c0-1.75-1.3-3.191-2.988-3.42v-7.2l10.644 10.645-11.083 11.08-11.084-11.086 10.645-10.638zm0-16.247a3.445 3.445 0 0 0-3.048 3.424 3.447 3.447 0 0 0 3.451 3.45 3.447 3.447 0 0 0 3.449-3.453 3.443 3.443 0 0 0-2.974-3.41v-7.186l10.647 10.65-11.088 11.085L108.83 23.86l10.65-10.646v7.178zm35.885 73.425L143.67 82.12c-.006-.006-.006-.012-.007-.016h-.004c-.005-.005-.008-.005-.012-.01L132.459 70.9l-.203-.202 11.395-11.395a.44.44 0 0 0 0-.625c0-.003 0-.003-.003-.003l-11.392-11.395 10.645-10.642v7.214a3.448 3.448 0 0 0 .435 6.868 3.444 3.444 0 0 0 3.453-3.45c0-1.756-1.313-3.201-3.008-3.418V36.64l10.957 10.959c.086.087.2.128.313.128a.441.441 0 0 0 .312-.75l-11.4-11.404 11.4-11.395a.441.441 0 0 0-.625-.621l-11.4 11.396-11.397-11.4c0-.002-.002-.002-.002-.002l-11.398-11.398L131.94.757a.437.437 0 0 0 0-.624.437.437 0 0 0-.623 0L119.918 11.53 108.526.13a.439.439 0 0 0-.623-.002.435.435 0 0 0 0 .623l11.394 11.4-11.4 11.398c-.006.006-.006.01-.009.013L96.501 34.946 85.106 23.55a.44.44 0 1 0-.625.62l11.4 11.4-11.406 11.403a.445.445 0 0 0 0 .625.449.449 0 0 0 .623 0l10.964-10.962v7.178a3.457 3.457 0 0 0-3.057 3.43 3.448 3.448 0 0 0 3.45 3.449 3.446 3.446 0 0 0 3.45-3.449 3.443 3.443 0 0 0-2.965-3.413v-7.195l10.642 10.64-11.397 11.399a.443.443 0 0 0 .311.752.448.448 0 0 0 .312-.13l11.401-11.396 11.09 11.09-11.402 11.401c-.17.171-.17.45 0 .62a.434.434 0 0 0 .312.129.43.43 0 0 0 .311-.128l10.962-10.957v7.218a3.456 3.456 0 0 0-3.022 3.419 3.447 3.447 0 0 0 3.452 3.451 3.449 3.449 0 0 0 3.45-3.451 3.441 3.441 0 0 0-3-3.413l.003-7.227 10.643 10.649-11.399 11.396c-.037.036-.059.08-.081.121a.426.426 0 0 0-.02.342c.021.06.054.113.101.159l11.69 11.693c.007.007.007.017.014.025.003 0 .003 0 .005.003v.001c.006.009.02.01.026.015l11.681 11.688a.44.44 0 0 0 .311.127.44.44 0 0 0 .312-.751l-11.392-11.393 10.648-10.645v7.256a3.455 3.455 0 0 0-2.988 3.416 3.449 3.449 0 0 0 3.45 3.448 3.449 3.449 0 1 0 .417-6.873l.002-7.253 10.956 10.96a.433.433 0 0 0 .31.132.441.441 0 0 0 .315-.752z"/>
    </g>
</svg>
