<svg xmlns="http://www.w3.org/2000/svg" width="170" height="32" viewBox="0 0 170 32">
    <g fill="none">
        <path fill="#0A71ED" d="M10.672 21.202L19.103 25.424 15.94 31.75zM31.761.108L6.451 12.766.125.108z"/>
        <path fill="#002990" d="M31.761 0.108L19.103 25.424 10.672 21.202 6.451 12.766z"/>
        <path fill="#0A71ED" d="M6.451 12.766L10.672 21.202.125 15.929zM31.761.108L31.761 31.75 19.103 25.424z"/>
        <path fill="#030307" d="M90.231 16.612c4.04 0 6.907 3.191 6.907 7.207-.003.485-.05.969-.137 1.445H86.704c.495 1.804 1.997 2.572 3.852 2.572 1.177.044 2.307-.46 3.06-1.366l2.845 1.639c-1.358 1.921-3.6 3.02-5.95 2.918-4.592 0-7.487-3.14-7.487-7.208-.066-1.93.672-3.802 2.038-5.169 1.367-1.366 3.238-2.104 5.17-2.038zm49.932 0c4.045 0 6.912 3.191 6.912 7.207-.003.485-.05.969-.137 1.445h-10.297c.49 1.804 1.992 2.572 3.875 2.572 1.175.045 2.304-.46 3.054-1.366l2.845 1.639c-1.36 1.923-3.604 3.023-5.956 2.918-4.586 0-7.481-3.14-7.481-7.208-.066-1.927.67-3.795 2.03-5.16 1.362-1.366 3.228-2.107 5.155-2.047zm28.968 2.918l-3.015 1.61c-.377-.866-1.242-1.415-2.185-1.388-.87 0-1.581.381-1.581 1.138.01 2.002 7.06.728 7.06 5.768 0 2.953-2.572 4.37-5.49 4.37-2.731 0-4.756-1.139-5.74-3.25l3.06-1.706c.38 1.137 1.485 1.868 2.68 1.775 1.137 0 1.883-.387 1.883-1.177 0-1.992-7.049-.9-7.049-5.69 0-2.787 2.378-4.34 5.188-4.34 2.132-.074 4.13 1.038 5.189 2.89zm-94.038.603l-3.032 1.775c-.596-1.161-1.807-1.875-3.112-1.832-2.003.078-3.586 1.725-3.586 3.73 0 2.004 1.583 3.65 3.586 3.728 1.31.062 2.535-.642 3.14-1.803l3.061 1.746c-1.644 2.799-4.96 4.148-8.09 3.292-3.13-.856-5.298-3.704-5.29-6.95h-.028c-.045-1.924.7-3.783 2.062-5.145 1.362-1.361 3.22-2.106 5.145-2.062 2.542-.055 4.906 1.3 6.144 3.521zm55.399-8.602v19.115h-3.527v-1.633c-1.065 1.34-2.712 2.082-4.42 1.991-3.647.023-6.662-3.128-6.662-7.185 0-4.056 3.015-7.207 6.661-7.207 1.71-.09 3.356.651 4.42 1.99v-7.07h3.528zm-20.571 7.072v-1.61h3.521v13.653h-3.521v-1.633c-1.087 1.33-2.739 2.068-4.455 1.991-3.63 0-6.633-3.14-6.633-7.207 0-4.068 2.998-7.185 6.633-7.185 1.716-.077 3.368.66 4.455 1.99zm-58.994-1.61l3.305 9.557 3.334-9.557h3.874l-5.188 13.653h-4.01l-5.195-13.653h3.88zm106.246-.273v3.93c-1.832-.216-4.153.604-4.153 3.47v6.526h-3.522V16.993h3.533v2.35c.7-1.861 2.418-2.623 4.142-2.623zm-76.561-6.008v19.911H77.09v-19.91h3.522zm25.485 9.393c-2.08.023-3.75 1.719-3.742 3.797.008 2.08 1.692 3.762 3.771 3.769 1.027.036 2.023-.36 2.744-1.092.721-.732 1.102-1.733 1.05-2.76-.037-2.078-1.745-3.737-3.823-3.714zm17.034 0c-2.082.028-3.75 1.734-3.732 3.816.019 2.083 1.717 3.759 3.8 3.75 1.022.03 2.011-.37 2.726-1.1.716-.732 1.092-1.73 1.04-2.752-.038-2.082-1.751-3.742-3.834-3.714zm-36.478 2.429h6.963c-.278-1.638-1.725-2.817-3.385-2.76-1.717-.114-3.252 1.07-3.578 2.76zm49.954 0h6.963c-.275-1.64-1.724-2.82-3.384-2.76-1.718-.114-3.253 1.07-3.579 2.76z"/>
    </g>
</svg>
