<svg width="369" height="253" viewBox="0 0 369 253" fill="none" xmlns="http://www.w3.org/2000/svg">
<path opacity="0.1" fill-rule="evenodd" clip-rule="evenodd" d="M-22.8001 53.0819L-22.8001 103.963L26.9809 103.963L26.9809 54.7651C26.9809 40.2196 38.8149 28.3863 53.3601 28.3863L54.7853 28.3863C64.5691 28.3863 73.1196 33.7447 77.6737 41.6766C72.4819 19.0941 52.2178 2.20125 28.0814 2.20125C0.0249994 2.20125 -22.8001 25.0264 -22.8001 53.0819ZM29.1831 107.399C30.6551 106.942 32.1474 106.533 33.6551 106.164L29.1831 106.164L29.1831 107.399ZM-22.7894 179.801L29.1844 179.801L42.8288 179.801C33.5123 175.727 26.9834 166.426 26.9833 155.624L26.9833 110.455C-1.66463 120.633 -22.326 147.815 -22.7894 179.801ZM-22.7991 217.749C-17.6976 200.627 -4.17259 187.102 12.9501 182L-22.7991 182L-22.7991 217.749ZM26.9706 182.015C-0.202684 182.602 -22.1974 204.596 -22.784 231.77C4.38817 231.182 26.3829 209.187 26.9706 182.015ZM28.082 283.763C56.1385 283.763 78.9641 260.938 78.9641 232.882C78.9641 205.189 56.7251 182.595 29.1677 182.015C28.5806 210.401 5.60091 233.381 -22.7862 233.968C-22.2052 261.525 0.389331 283.763 28.082 283.763ZM-22.7995 285.964L-22.7994 460.165L78.9641 460.165L78.9641 292.567L78.9641 285.964L-22.7995 285.964ZM-22.7995 462.366L-22.7995 564.121C33.0493 563.533 78.3698 518.214 78.958 462.366L-22.7995 462.366ZM191.732 571.832C239.531 571.832 280.34 541.341 295.739 498.789L274.369 498.789C254.735 498.789 238.762 482.816 238.762 463.183C238.762 443.548 254.735 427.576 274.369 427.576L297.045 427.576C282.867 383.363 241.568 351.186 192.818 350.714C192.221 412.01 142.475 461.754 81.1773 462.352C81.7633 522.819 131.128 571.832 191.732 571.832ZM296.515 496.589C300.265 485.492 302.301 473.613 302.301 461.266C302.301 450.33 300.697 439.762 297.725 429.777L274.37 429.777C255.95 429.777 240.964 444.763 240.964 463.183C240.964 481.603 255.95 496.589 274.37 496.589L296.515 496.589ZM332.432 496.589C350.852 496.589 365.838 481.603 365.838 463.183C365.838 444.763 350.852 429.777 332.432 429.777L300.022 429.777C302.934 439.775 304.502 450.341 304.502 461.266C304.502 473.599 302.505 485.472 298.829 496.589L332.432 496.589ZM266.472 180.901C266.472 140.059 233.539 106.77 192.834 106.178L192.834 179.801L192.834 182.002L192.834 255.625C233.539 255.034 266.472 221.745 266.472 180.901ZM81.1667 106.165L81.1667 155.624L81.1667 179.801L114.808 179.801C115.311 144.162 140.166 114.309 173.45 106.165L81.1667 106.165ZM54.7859 179.801C68.1178 179.801 78.9641 168.955 78.9641 155.624L78.9641 106.165L51.9389 106.165C44.0062 106.165 36.3613 107.412 29.1826 109.712L29.1826 155.624C29.1826 168.955 40.0289 179.801 53.3607 179.801L54.7859 179.801ZM78.9641 179.801L78.9641 166.158C76.3013 172.245 71.4073 177.139 65.3197 179.801L78.9641 179.801ZM121.723 207.061C132.227 235.082 159.096 255.167 190.633 255.625L190.633 182.007C164.514 182.264 140.539 191.628 121.723 207.061ZM117.008 182.002C117.124 189.985 118.492 197.67 120.934 204.865C134.808 193.644 151.385 185.639 169.524 182.002L117.008 182.002ZM190.633 106.179C150.294 106.765 117.594 139.464 117.008 179.801L190.633 179.801L190.633 106.179ZM81.1776 460.16C141.26 459.562 190.02 410.796 190.617 350.714C130.53 351.311 81.7708 400.074 81.1776 460.16ZM190.633 348.513L190.633 257.826C158.426 257.372 130.945 237.033 119.938 208.557C96.224 228.853 81.1654 258.982 81.1654 292.568L81.1654 439.057C91.4389 387.825 136.54 349.034 190.633 348.513ZM53.3604 182.001L43.214 182.001C65.1345 188.532 81.1648 208.868 81.1648 232.882C81.1648 256.895 65.1345 277.232 43.214 283.763L79.3055 283.763C81.709 252.786 96.6884 225.284 119.127 206.357C116.439 198.714 114.927 190.523 114.806 182.001L81.1648 182.001L78.9638 182.001L54.7856 182.001L53.3604 182.001ZM78.9641 54.7651C78.9641 41.4335 68.1178 30.5874 54.7859 30.5874L53.3607 30.5874C40.0289 30.5874 29.1826 41.4335 29.1826 54.7651L29.1826 103.963L51.9389 103.963L78.9641 103.963L78.9641 54.7651ZM81.1657 53.0816L81.1657 54.7648L81.1657 103.963L192.834 103.963L192.834 103.977C234.753 104.568 268.673 138.845 268.673 180.901C268.673 222.957 234.753 257.235 192.834 257.826L192.834 348.512C242.805 348.994 285.106 382.135 299.361 427.576L332.433 427.576C352.067 427.576 368.04 443.548 368.04 463.183C368.04 482.816 352.067 498.789 332.433 498.789L298.075 498.789C282.578 542.576 240.763 574.032 191.734 574.032C134.793 574.032 87.5818 531.61 80.0272 476.713C72.5331 527.347 28.7859 566.328 -23.8994 566.328L-24.9999 566.328L-24.9999 462.366L-24.9999 460.165L-25 283.764L12.9503 283.764C-8.63447 277.333 -24.5053 257.515 -24.9862 233.983L-25 233.983L-25 182.001L-25 180.901L-25 179.8L-24.9862 179.8C-24.5174 146.586 -2.90017 118.395 26.9821 108.12L26.9821 106.164L-25 106.164L-25 53.0816C-25 23.8124 -1.18719 -4.48957e-05 28.0831 -4.61752e-05C57.3529 -4.74546e-05 81.1657 23.8124 81.1657 53.0816Z" fill="#009BF1"/>
</svg>
