<svg width="375" height="700" viewBox="0 0 375 700" fill="none" xmlns="http://www.w3.org/2000/svg">
<g opacity="0.1">
<path fill-rule="evenodd" clip-rule="evenodd" d="M48.8141 196.223H48.815L48.815 535.489H48.8141C-27.1192 535.489 -88.6768 473.939 -88.6768 398.014V333.699C-88.6768 257.773 -27.1192 196.223 48.8141 196.223Z" stroke="white" stroke-width="3.658"/>
<path fill-rule="evenodd" clip-rule="evenodd" d="M-23.7348 196.223L476.133 196.223C547.864 196.223 606.015 254.367 606.015 326.091L-23.7348 326.091C-59.6014 326.091 -88.6768 297.019 -88.6768 261.158C-88.6768 225.295 -59.6014 196.223 -23.7348 196.223Z" stroke="white" stroke-width="3.658"/>
<path fill-rule="evenodd" clip-rule="evenodd" d="M326.641 326.091C326.641 381.798 371.805 426.957 427.519 426.957C483.231 426.957 528.395 381.798 528.395 326.091C528.395 270.384 483.231 225.226 427.519 225.226C371.805 225.226 326.641 270.384 326.641 326.091Z" stroke="white" stroke-width="3.658"/>
<path fill-rule="evenodd" clip-rule="evenodd" d="M53.1702 470.972H276.884C312.52 470.972 341.408 499.857 341.408 535.489C341.408 571.121 312.52 600.006 276.884 600.006H53.1702C17.5338 600.006 -11.3545 571.121 -11.3545 535.489C-11.3545 499.857 17.5338 470.972 53.1702 470.972Z" stroke="white" stroke-width="3.658"/>
<path fill-rule="evenodd" clip-rule="evenodd" d="M117.695 535.489C117.695 499.857 88.8065 470.972 53.1711 470.972C17.5338 470.972 -11.3545 499.857 -11.3545 535.489C-11.3545 571.12 17.5338 600.005 53.1711 600.005C88.8065 600.005 117.695 571.12 117.695 535.489Z" stroke="white" stroke-width="3.658"/>
<path fill-rule="evenodd" clip-rule="evenodd" d="M15.6485 51.3125C15.6485 -6.29803 -31.0589 -52.9999 -88.6762 -52.9999C-146.293 -52.9999 -193 -6.29803 -193 51.3125C-193 108.922 -146.293 155.624 -88.6762 155.624C-31.0589 155.624 15.6485 108.922 15.6485 51.3125Z" stroke="white" stroke-width="3.658"/>
<path fill-rule="evenodd" clip-rule="evenodd" d="M104.124 326.091H48.8154L48.8154 470.972H249.021C249.021 390.957 184.149 326.091 104.124 326.091Z" stroke="white" stroke-width="3.658"/>
<path d="M208.082 249.686V141.153" stroke="white" stroke-width="3.658" stroke-linecap="round" stroke-linejoin="round"/>
<path fill-rule="evenodd" clip-rule="evenodd" d="M249.021 599.804H427.518V849.028C328.937 849.028 249.021 769.121 249.021 670.552L249.021 599.804Z" stroke="white" stroke-width="3.658"/>
<path fill-rule="evenodd" clip-rule="evenodd" d="M327.315 577.997C327.315 577.997 319.442 587.238 327.516 593.925C333.394 598.796 346.712 598.397 346.712 598.397L293.042 600.006L293.604 597.817C293.604 597.817 317.934 588.784 327.315 577.997Z" fill="white"/>
<path fill-rule="evenodd" clip-rule="evenodd" d="M109.118 500.819C109.118 500.819 100.676 489.162 104.797 480.72C108.918 472.279 126.908 472.379 126.908 472.379L120.476 470.972L63.6895 471.374C63.6895 471.374 95.299 478.509 109.118 500.819Z" fill="white"/>
<path fill-rule="evenodd" clip-rule="evenodd" d="M25.7656 324.721C25.7656 324.721 47.4072 324.578 47.4072 302.47L49.2167 305.761L48.815 326.091L27.1726 325.725L25.7656 324.721Z" fill="white"/>
</g>
</svg>
