<?xml version="1.0" encoding="UTF-8"?>
<svg width="55px" height="55px" viewBox="0 0 55 55" version="1.1" xmlns="http://www.w3.org/2000/svg" xmlns:xlink="http://www.w3.org/1999/xlink">
    <!-- Generator: Sketch 57.1 (83088) - https://sketch.com -->
    <title>1_1</title>
    <desc>Created with Sketch.</desc>
    <g id="NEWEST-HOMEPAGE-🔥" stroke="none" stroke-width="1" fill="none" fill-rule="evenodd">
        <g id="1_1" fill="#0066FF">
            <rect id="Rectangle" opacity="0.1" x="0" y="0" width="55" height="55" rx="14"></rect>
            <g id="003_astronaut_cosmonaut_space_cosmos_science_flag" transform="translate(10.000000, 10.000000)" fill-rule="nonzero">
                <path d="M35.4,14 L30.6,14 C30.2688,14 30,13.7386667 30,13.4166667 L30,12.8333333 L24,12.8333333 L24,15.36675 L25.6668,16.9878333 C26.6028,17.89725 26.6028,19.3771667 25.6668,20.2871667 C25.221,20.7211667 24.6294,20.9603333 24,20.9679167 L24,34.4166667 C24,34.7386667 23.7312,35 23.4,35 C23.0688,35 22.8,34.7386667 22.8,34.4166667 L22.8,20.6634167 C22.611,20.5601667 22.4304,20.4405833 22.2732,20.2871667 L16.8,15.4099167 L16.8,33.25 L16.8,34.4166667 C16.8,34.7386667 16.5312,35 16.2,35 L11.4,35 C11.0688,35 10.8,34.7386667 10.8,34.4166667 L10.8,33.25 L10.8,23.3333333 L9.6,23.3333333 L9.6,33.25 L9.6,34.4166667 C9.6,34.7386667 9.3312,35 9,35 L4.2,35 C3.8688,35 3.6,34.7386667 3.6,34.4166667 L3.6,33.25 L3.6,24.759 C3.2454,24.9596667 2.8392,25.0833333 2.4,25.0833333 C1.0764,25.0833333 0,24.0368333 0,22.75 L0,13.4166667 C0,11.3650833 1.5696,9.67808333 3.6,9.39225 L3.6,6.41666667 C3.6,2.87875 6.561,0 10.2,0 C13.839,0 16.8,2.87875 16.8,6.41666667 L16.8,9.39108333 C18.1578,9.65125 19.2714,10.7508333 20.268,11.7349167 L20.5974,12.0586667 L22.8,14.2000833 L22.8,12.25 L22.8,4.08333333 L22.8,3.39266667 C22.1034,3.15116667 21.6,2.5095 21.6,1.75 C21.6,0.785166667 22.4076,0 23.4,0 C24.3924,0 25.2,0.785166667 25.2,1.75 C25.2,2.5095 24.6966,3.15116667 24,3.39266667 L24,3.5 L30.6,3.5 C30.9312,3.5 31.2,3.76133333 31.2,4.08333333 L31.2,4.66666667 L35.4,4.66666667 C35.7312,4.66666667 36,4.928 36,5.25 L36,13.4166667 C36,13.7386667 35.7312,14 35.4,14 Z M24,19.7925 C24.3018,19.7866667 24.5982,19.6764167 24.8184,19.4623333 C25.2864,19.0073333 25.2864,18.2670833 24.8184,17.8126667 L24,17.0158333 L24,19.7925 Z M22.8,19.17475 L22.8,17.2999167 L21.7938,18.2781667 L22.8,19.17475 Z M12,33.8333333 L15.6,33.8333333 L15.6,33.25 C15.6,32.2851667 14.7924,31.5 13.8,31.5 C12.8076,31.5 12,32.2851667 12,33.25 L12,33.8333333 Z M12,30.9318333 C12.5028,30.5614167 13.122,30.3333333 13.8,30.3333333 C14.478,30.3333333 15.0972,30.5614167 15.6,30.9318333 L15.6,27.4166667 L12,27.4166667 L12,30.9318333 Z M4.8,33.8333333 L8.4,33.8333333 L8.4,33.25 C8.4,32.2851667 7.5924,31.5 6.6,31.5 C5.6076,31.5 4.8,32.2851667 4.8,33.25 L4.8,33.8333333 Z M4.8,30.93125 C5.3028,30.5614167 5.922,30.3333333 6.6,30.3333333 C7.278,30.3333333 7.8972,30.5614167 8.4,30.9318333 L8.4,27.4166667 L4.8,27.4166667 L4.8,30.93125 Z M4.8,22.75 L4.8,26.25 L8.4,26.25 L8.4,22.75 C8.4,22.428 8.6688,22.1666667 9,22.1666667 L11.4,22.1666667 C11.7312,22.1666667 12,22.428 12,22.75 L12,26.25 L15.6,26.25 L15.6,19.8333333 L4.8,19.8333333 L4.8,22.75 Z M1.2,22.75 C1.2,23.3934167 1.7382,23.9166667 2.4,23.9166667 C3.0618,23.9166667 3.6,23.3934167 3.6,22.75 L3.6,21.5833333 L1.2,21.5833333 L1.2,22.75 Z M15.6,6.41666667 C15.6,3.52216667 13.1772,1.16666667 10.2,1.16666667 C7.2228,1.16666667 4.8,3.52216667 4.8,6.41666667 L4.8,9.75041667 C6.0864,10.4953333 14.313,10.4953333 15.6,9.75041667 L15.6,6.41666667 Z M19.4124,12.5533333 C18.5292,11.6806667 17.5386,10.7111667 16.5162,10.5361667 C15.996,10.9870833 14.5062,11.4665833 10.2,11.4665833 C8.5998,11.4665833 7.104,11.3785 5.988,11.2186667 C5.1186,11.0944167 4.3044,10.91475 3.8892,10.5303333 C2.3826,10.6843333 1.2,11.9116667 1.2,13.4166667 L1.2,20.4166667 L3.6,20.4166667 L3.6,13.4166667 C3.6,13.0946667 3.8688,12.8333333 4.2,12.8333333 C4.5312,12.8333333 4.8,13.0946667 4.8,13.4166667 L4.8,18.6666667 L15.6,18.6666667 L15.6,14.3400833 L15.0792,13.8763333 C14.835,13.6581667 14.8182,13.2895 15.042,13.0520833 C15.2658,12.8146667 15.6456,12.7983333 15.8898,13.0159167 L20.9088,17.4889167 L22.698,15.7494167 L19.4124,12.5533333 Z M23.4,1.16666667 C23.0694,1.16666667 22.8,1.42858333 22.8,1.75 C22.8,2.07141667 23.0694,2.33333333 23.4,2.33333333 C23.7306,2.33333333 24,2.07141667 24,1.75 C24,1.42858333 23.7306,1.16666667 23.4,1.16666667 Z M30,5.25 L30,4.66666667 L24,4.66666667 L24,11.6666667 L30,11.6666667 L30,5.25 Z M34.8,5.83333333 L31.2,5.83333333 L31.2,12.25 L31.2,12.8333333 L34.8,12.8333333 L34.8,5.83333333 Z M12.6,16.3333333 L7.8,16.3333333 C6.8076,16.3333333 6,15.5481667 6,14.5833333 C6,13.6185 6.8076,12.8333333 7.8,12.8333333 L12.6,12.8333333 C13.5924,12.8333333 14.4,13.6185 14.4,14.5833333 C14.4,15.5481667 13.5924,16.3333333 12.6,16.3333333 Z M12.6,14 L7.8,14 C7.4694,14 7.2,14.2619167 7.2,14.5833333 C7.2,14.90475 7.4694,15.1666667 7.8,15.1666667 L12.6,15.1666667 C12.9306,15.1666667 13.2,14.90475 13.2,14.5833333 C13.2,14.2619167 12.9306,14 12.6,14 Z M7.2252,8.42975 C6.6324,8.34516667 5.4,8.16841667 5.4,7.34533333 C5.4,7.02333333 5.6688,6.762 6,6.762 L6,6.41666667 C6,4.165 7.884,2.33333333 10.2,2.33333333 C12.516,2.33333333 14.4,4.165 14.4,6.41666667 L14.4,6.762 C14.7312,6.762 15,7.02333333 15,7.34533333 C15,7.75425 15,8.60533333 10.2,8.60533333 C9.0714,8.60533333 8.0148,8.54291667 7.2252,8.42975 Z M13.2,7.25666667 L13.2,6.41666667 C13.2,4.80841667 11.8542,3.5 10.2,3.5 C8.5458,3.5 7.2,4.80841667 7.2,6.41666667 L7.2,7.25666667 C8.664,7.49525 11.736,7.49525 13.2,7.25666667 Z" id="Shape"></path>
            </g>
        </g>
    </g>
</svg>