<svg xmlns="http://www.w3.org/2000/svg" width="1073" height="764" viewBox="0 0 1073 764">
    <g fill="none" fill-rule="evenodd">
        <g fill="#001A64" fill-rule="nonzero">
            <path d="M292.8 734.3l1.4.8 47.9-27.9c-3.4.9-6.6 2.2-9.4 3.8l-39.9 23.3zM297.6 737l1.4.8 55.7-32.4c-1.1 0-2.1.1-3.2.2L297.6 737zM302.3 739.7l1.4.8 59.7-34.8c-.8-.1-1.6-.2-2.5-.2l-58.6 34.2zM307 742.5l1.4.8 62.1-36.2c-.7-.2-1.3-.3-2-.5L307 742.5zM311.8 745.2l1.4.8 63.3-36.9c-.6-.2-1.1-.5-1.7-.7l-63 36.8zM380.1 710.9l-63.6 37 1.4.8 63.6-37.1-1.1-.6s-.2 0-.3-.1zM321.2 750.7l1.5.8 63.6-37-1.4-.9zM326 753.4l1.4.8 63.6-37-1.4-.8zM330.7 756.2l1.5.8 63.6-37.1-1.5-.8zM335.6 758.8c.5.3 1.1.5 1.7.7l63.3-36.8-1.4-.8-63.6 36.9zM341.3 761c.6.2 1.3.4 2 .5l62-36.1-1.4-.8-62.6 36.4zM348.2 762.5c.8.1 1.5.2 2.3.3l59.5-34.7-1.4-.8-60.4 35.2zM356.5 763.1c1 0 2 0 3-.1l55.3-32.2-1.4-.8-56.9 33.1zM367.7 762.1c1.7-.3 3.4-.7 5-1.2l46.8-27.2-1.4-.8-50.4 29.2z"/>
        </g>
        <g stroke="#001A64" stroke-linecap="round" stroke-linejoin="round" stroke-width="1.445">
            <path stroke-dasharray="6.118,7.649" d="M785.3 166l88.1-50.9c7.9-4.5 17.5-4.6 25.4-.2l67.1 37.6c17.4 9.8 17.6 34.7.3 44.7l-84.1 48.5c-8 4.6-17.8 4.6-25.7 0l-75-43.3c-8-4.6-17.8-4.6-25.7 0L600.6 292M709.1 451.3l78.6 45.4c13.7 7.9 30.6 7.9 44.3 0L938.9 435c13.7-7.9 30.6-7.9 44.3 0l78.6 45.4"/>
            <path d="M1071.4.8L473.7 345.9c-15.8 9.1-15.8 31.9 0 41l17.5 10.1c20.9 12.1 20.9 42.2 0 54.3l-90.8 52.4a57.362 57.362 0 0 1-57.5 0L293.2 475c-13.4-7.7-29.8-7.7-43.2 0L15.5 610.4c-19.5 11.3-19.5 39.4 0 50.7l127.6 73.6c12.7 7.3 28.5-1.8 28.5-16.5v-49.7"/>
        </g>
        <g fill="#001A64" fill-rule="nonzero">
            <path d="M355.5 432h-.3c-.3.1-.7.1-1 .2-.1 0-.2 0-.3.1l-.9.3c-.1 0-.2.1-.3.1l-38.8 22.6c-.4.5-.8 1-1.1 1.5-.1.3-.2.5-.3.8 0 .1 0 .1-.1.2l44.6-26h-.3c-.5.1-.9.2-1.2.2zM312.6 461.5c.1.3.3.6.5.9.1.1.2.2.2.3l51.8-30.2c-.7-.2-1.4-.3-2.1-.4l-50.4 29.4zM369.1 434L316 465c.1.1.2.1.3.2l1.1.7 53.1-31-1.1-.7c-.1-.1-.2-.1-.3-.2zM320.8 467.8l1.4.8 53.1-31-1.4-.8zM325.5 470.5l1.4.8 53.1-31-1.4-.8zM330.2 473.3l1.5.8 53.1-31-1.5-.8zM335 476l1.4.8 53.1-31-1.4-.8zM339.7 478.8l1.4.8 53.2-31-1.5-.8zM344.4 481.5l1.5.8 53.1-31-1.4-.8zM402.3 453.2l-53.1 31 .1.1h.1c.3.2.7.4 1 .5.1.1.2.1.3.1l52.9-30.9c-.4-.3-.8-.6-1.2-.8h-.1zM355 486.3c.1 0 .2 0 .3.1.3.1.6.1.9.1.1 0 .3 0 .4.1.2 0 .4 0 .7.1l49.1-28.7c-.1-.5-.3-.9-.6-1.3L355 486.3zM402.5 465.2c1.5-.9 2.5-1.9 3.2-2.9l-41 23.9c1.8-.4 3.5-1 5-1.9l32.8-19.1z"/>
        </g>
        <path fill="#FFF" d="M383.9 425.1V426.1s0 .1-.1.1v.1l-.1.1s0 .1-.1.1l-.1.1v.1l-.2.2-.1.1-.2.2s-.1 0-.1.1l-.1.1-.1.1-.1.1-.1.1-.1.1-.1.1-.1.1c-.1 0-.1.1-.2.1l-16.6 9.7c-.2.1-.3.2-.5.3 0 0-.1 0-.1.1-.2.1-.3.1-.5.2h-.1c-.2.1-.3.1-.5.2-.1 0-.3.1-.4.1-.1 0-.2.1-.3.1-.1 0-.3.1-.4.1-.1 0-.2 0-.3.1h-.1c-.2 0-.3.1-.5.1h-.1c-.2 0-.4 0-.6.1h-2.6c-.1 0-.3 0-.4-.1-.1 0-.3-.1-.4-.1h-.1c-.2 0-.4-.1-.6-.1h-.2c-.2 0-.3-.1-.4-.2h-.1c-.1-.1-.3-.1-.4-.2-.1 0-.1-.1-.2-.1-.2-.1-.4-.2-.5-.3L338 428c-1.4-.8-2.2-1.9-2.2-3l-.1 24.5c0 1.1.7 2.2 2.2 3l16.8 9.7c.2.1.4.2.5.3.1 0 .1.1.2.1s.2.1.3.1h.2c.1.1.3.1.4.2H356.6c.1 0 .3.1.4.1h.1c.1 0 .1 0 .2.1h.2c.1 0 .3 0 .4.1H361.4c.2 0 .3 0 .5-.1h.2c.1 0 .2 0 .2-.1.1 0 .3-.1.4-.1.1 0 .2-.1.3-.1.1 0 .3-.1.4-.1h.1c.2 0 .3-.1.4-.2h.1c.2-.1.3-.1.5-.2 0 0 .1 0 .1-.1.2-.1.3-.2.5-.3l16.6-9.7s.1 0 .1-.1c0 0 .1 0 .1-.1l.1-.1.1-.1.1-.1.1-.1.1-.1.1-.1.1-.1.2-.2.1-.1.2-.2v-.1l.1-.1s0-.1.1-.1l.1-.1v-.1s0-.1.1-.1v-.1-.1-.1-.1-.1-.1-.1-.1-.1-.1-.1l.4-24.1v.1"/>
        <path stroke="#001A64" stroke-linecap="round" stroke-linejoin="round" stroke-width="1.445" d="M383.9 425.1V426.1s0 .1-.1.1v.1l-.1.1s0 .1-.1.1l-.1.1v.1l-.2.2-.1.1-.2.2s-.1 0-.1.1l-.1.1-.1.1-.1.1-.1.1-.1.1-.1.1-.1.1c-.1 0-.1.1-.2.1l-16.6 9.7c-.2.1-.3.2-.5.3 0 0-.1 0-.1.1-.2.1-.3.1-.5.2h-.1c-.2.1-.3.1-.5.2-.1 0-.3.1-.4.1-.1 0-.2.1-.3.1-.1 0-.3.1-.4.1-.1 0-.2 0-.3.1h-.1c-.2 0-.3.1-.5.1h-.1c-.2 0-.4 0-.6.1h-2.6c-.1 0-.3 0-.4-.1-.1 0-.3-.1-.4-.1h-.1c-.2 0-.4-.1-.6-.1h-.2c-.2 0-.3-.1-.4-.2h-.1c-.1-.1-.3-.1-.4-.2-.1 0-.1-.1-.2-.1-.2-.1-.4-.2-.5-.3L338 428c-1.4-.8-2.2-1.9-2.2-3l-.1 24.5c0 1.1.7 2.2 2.2 3l16.8 9.7c.2.1.4.2.5.3.1 0 .1.1.2.1s.2.1.3.1h.2c.1.1.3.1.4.2H356.6c.1 0 .3.1.4.1h.1c.1 0 .1 0 .2.1h.2c.1 0 .3 0 .4.1H361.4c.2 0 .3 0 .5-.1h.2c.1 0 .2 0 .2-.1.1 0 .3-.1.4-.1.1 0 .2-.1.3-.1.1 0 .3-.1.4-.1h.1c.2 0 .3-.1.4-.2h.1c.2-.1.3-.1.5-.2 0 0 .1 0 .1-.1.2-.1.3-.2.5-.3l16.6-9.7s.1 0 .1-.1c0 0 .1 0 .1-.1l.1-.1.1-.1.1-.1.1-.1.1-.1.1-.1.1-.1.2-.2.1-.1.2-.2v-.1l.1-.1s0-.1.1-.1l.1-.1v-.1s0-.1.1-.1v-.1-.1-.1-.1-.1-.1-.1-.1-.1-.1-.1l.4-24.1v.1z"/>
        <path fill="#FFF" d="M381.8 421.9c2.9 1.7 2.9 4.4 0 6l-16.6 9.7c-2.9 1.7-7.5 1.7-10.4 0L338 428c-2.9-1.7-2.9-4.4 0-6l16.6-9.7c2.9-1.7 7.5-1.7 10.4 0l16.8 9.6z"/>
        <path stroke="#001A64" stroke-linecap="round" stroke-linejoin="round" stroke-width="1.445" d="M381.8 421.9c2.9 1.7 2.9 4.4 0 6l-16.6 9.7c-2.9 1.7-7.5 1.7-10.4 0L338 428c-2.9-1.7-2.9-4.4 0-6l16.6-9.7c2.9-1.7 7.5-1.7 10.4 0l16.8 9.6z"/>
        <path fill="#94E0FF" d="M395.2 366.3c0 19.6-15.8 35.4-35.3 35.4-19.5 0-35.3-15.9-35.3-35.4s15.8-35.4 35.3-35.4c19.5 0 35.3 15.8 35.3 35.4"/>
        <path stroke="#001A64" stroke-linecap="round" stroke-linejoin="round" stroke-width="1.445" d="M359.9 352.4v86.5M359.9 390.6l22-22.1M359.9 371.2l6.2-6.2"/>
        <g fill="#001A64" fill-rule="nonzero">
            <path d="M777.5 438.1l-23.6 14c-.2.6-.2 1.2-.1 1.7l26.6-15.8c-.4 0-.8-.1-1.1-.1-.6 0-1.2.1-1.8.2zM784.9 439.2l-29 17.2c.1 0 .1.1.2.1.4.2.8.4 1.3.6l28.8-17c-.3-.3-.7-.5-1.1-.8 0 0-.1 0-.2-.1zM785.2 446.3c1.4-.8 2.2-1.9 2.4-3L762.8 458c1.9-.1 3.7-.5 5.1-1.4l17.3-10.3z"/>
        </g>
        <g fill="#001A64" fill-rule="nonzero">
            <path d="M798.5 449.8l-25.9 15.4c0 .5.2.9.5 1.4l27.8-16.5c-.8-.2-1.6-.3-2.4-.3zM804.7 451.7l-28.9 17.1c.6.3 1.1.5 1.8.6l28.1-16.7c-.2-.3-.5-.6-1-1zM784.4 469.4c.9-.2 1.7-.5 2.4-1l17.3-10.3c.7-.4 1.3-.9 1.7-1.4l-21.4 12.7z"/>
        </g>
        <g fill="#001A64" fill-rule="nonzero">
            <path d="M820.1 460.9l-27.4 16.2c.2.4.5.8.8 1.2l28.6-16.9c-.6-.3-1.3-.4-2-.5zM825.4 463.3L797 480.1c.7.2 1.4.4 2.1.5l27.1-16.1c-.2-.4-.5-.8-.8-1.2z"/>
        </g>
        <path fill="#94E0FF" d="M785 428.4c3.3 1.9 3.3 4.9 0 6.8l-17.4 10.1c-3.2 1.9-8.5 1.9-11.8 0-3.3-1.9-3.3-4.9 0-6.8l17.4-10.1c3.3-1.9 8.5-1.9 11.8 0"/>
        <path fill="#06F" d="M804.4 439.6c3.3 1.9 3.3 4.9 0 6.8L787 456.5c-3.2 1.9-8.5 1.9-11.8 0-3.3-1.9-3.3-4.9 0-6.8l17.4-10.1c3.3-1.9 8.6-1.9 11.8 0"/>
        <path fill="#94E0FF" d="M823.9 450.9c3.3 1.9 3.3 4.9 0 6.8l-17.4 10.1c-3.2 1.9-8.5 1.9-11.8 0-3.3-1.9-3.3-4.9 0-6.8l17.4-10.1c3.3-1.9 8.6-1.9 11.8 0"/>
        <path fill="#FFF" d="M775.4 535.1v1.1c0 .1 0 .1-.1.2 0 0 0 .1-.1.1l-.1.1s0 .1-.1.1c0 .1-.1.1-.1.2 0 0 0 .1-.1.1 0 .1-.1.1-.1.2 0 0 0 .1-.1.1l-.3.3s0 .1-.1.1c-.1.1-.1.2-.2.2l-.1.1-.1.1-.1.1c-.1 0-.1.1-.2.1l-.1.1c-.1 0-.1.1-.2.1s-.1.1-.2.1-.1.1-.2.1-.2.1-.2.1l-49.8 28.9c-.1.1-.3.2-.5.2 0 0-.1 0-.1.1-.1.1-.2.1-.4.2 0 0-.1 0-.1.1-.2.1-.3.1-.5.2h-.1c-.1.1-.3.1-.4.2-.1 0-.1 0-.2.1-.1 0-.2.1-.2.1-.1 0-.1 0-.2.1-.1 0-.2 0-.2.1-.1 0-.1 0-.2.1-.1 0-.2 0-.3.1h-.2c-.1 0-.2 0-.3.1h-.2c-.2 0-.4.1-.6.1h-.1c-.2 0-.3 0-.5.1h-3.6-.1c-.2 0-.3 0-.5-.1h-.1c-.1 0-.3 0-.4-.1h-.2c-.1 0-.2 0-.3-.1h-.2c-.1 0-.2 0-.3-.1h-.2c-.1 0-.2-.1-.3-.1h-.2c-.2 0-.3-.1-.5-.1h-.1c-.2-.1-.4-.1-.5-.2-.1 0-.1-.1-.2-.1s-.1 0-.2-.1c-.1 0-.2-.1-.2-.1-.1 0-.1 0-.2-.1-.1 0-.2-.1-.2-.1s-.1 0-.1-.1c-.1-.1-.2-.1-.4-.2L690 557.5c-2-1.1-3-2.6-3-4.1v16.3c0 1.5 1 3 3 4.1l18.4 10.6c.1.1.2.1.4.2 0 0 .1 0 .1.1.1 0 .2.1.2.1s.1 0 .2.1c.1 0 .2.1.2.1.1 0 .1 0 .2.1.1 0 .1 0 .2.1h.1c.2.1.4.1.5.2h.1c.2.1.3.1.5.1h.2c.1 0 .2.1.3.1h.2c.1 0 .2.1.3.1h.1c.1 0 .2 0 .3.1h.2c.1 0 .3 0 .4.1h.1c.2 0 .3 0 .5.1h3.7c.2 0 .3 0 .5-.1h.1c.2 0 .4-.1.6-.1h.2c.1 0 .2 0 .3-.1h.2c.1 0 .2 0 .3-.1.1 0 .1 0 .2-.1.1 0 .2 0 .2-.1.1 0 .1 0 .2-.1.1 0 .2 0 .2-.1h.2c.1 0 .3-.1.4-.2h.1c.2-.1.3-.1.5-.2 0 0 .1 0 .1-.1.1-.1.2-.1.4-.2 0 0 .1 0 .1-.1.2-.1.3-.2.5-.2l49.8-28.9s.1 0 .1-.1c0 0 .1 0 .1-.1.1 0 .1-.1.2-.1s.1-.1.2-.1.1-.1.2-.1.1-.1.1-.1c.1 0 .1-.1.2-.1l.1-.1.1-.1.1-.1h.1c.1-.1.2-.1.2-.2 0 0 0-.1.1-.1l.3-.3.1-.1c0-.1.1-.1.1-.2 0 0 0-.1.1-.1 0-.1.1-.1.1-.2v-.1s.1-.1.1-.2c0 0 0-.1.1-.1 0-.1 0-.1.1-.2v-.1-.1-.1-.1-.1-.1-.1-.1-.1-.2-.1-.1l.1-16.1z"/>
        <path stroke="#001A64" stroke-linecap="round" stroke-linejoin="round" stroke-width="1.445" d="M775.4 535.1v1.1c0 .1 0 .1-.1.2 0 0 0 .1-.1.1l-.1.1s0 .1-.1.1c0 .1-.1.1-.1.2 0 0 0 .1-.1.1 0 .1-.1.1-.1.2 0 0 0 .1-.1.1l-.3.3s0 .1-.1.1c-.1.1-.1.2-.2.2l-.1.1-.1.1-.1.1c-.1 0-.1.1-.2.1l-.1.1c-.1 0-.1.1-.2.1s-.1.1-.2.1-.1.1-.2.1-.2.1-.2.1l-49.8 28.9c-.1.1-.3.2-.5.2 0 0-.1 0-.1.1-.1.1-.2.1-.4.2 0 0-.1 0-.1.1-.2.1-.3.1-.5.2h-.1c-.1.1-.3.1-.4.2-.1 0-.1 0-.2.1-.1 0-.2.1-.2.1-.1 0-.1 0-.2.1-.1 0-.2 0-.2.1-.1 0-.1 0-.2.1-.1 0-.2 0-.3.1h-.2c-.1 0-.2 0-.3.1h-.2c-.2 0-.4.1-.6.1h-.1c-.2 0-.3 0-.5.1h-3.6-.1c-.2 0-.3 0-.5-.1h-.1c-.1 0-.3 0-.4-.1h-.2c-.1 0-.2 0-.3-.1h-.2c-.1 0-.2 0-.3-.1h-.2c-.1 0-.2-.1-.3-.1h-.2c-.2 0-.3-.1-.5-.1h-.1c-.2-.1-.4-.1-.5-.2-.1 0-.1-.1-.2-.1s-.1 0-.2-.1c-.1 0-.2-.1-.2-.1-.1 0-.1 0-.2-.1-.1 0-.2-.1-.2-.1s-.1 0-.1-.1c-.1-.1-.2-.1-.4-.2L690 557.5c-2-1.1-3-2.6-3-4.1v16.3c0 1.5 1 3 3 4.1l18.4 10.6c.1.1.2.1.4.2 0 0 .1 0 .1.1.1 0 .2.1.2.1s.1 0 .2.1c.1 0 .2.1.2.1.1 0 .1 0 .2.1.1 0 .1 0 .2.1h.1c.2.1.4.1.5.2h.1c.2.1.3.1.5.1h.2c.1 0 .2.1.3.1h.2c.1 0 .2.1.3.1h.1c.1 0 .2 0 .3.1h.2c.1 0 .3 0 .4.1h.1c.2 0 .3 0 .5.1h3.7c.2 0 .3 0 .5-.1h.1c.2 0 .4-.1.6-.1h.2c.1 0 .2 0 .3-.1h.2c.1 0 .2 0 .3-.1.1 0 .1 0 .2-.1.1 0 .2 0 .2-.1.1 0 .1 0 .2-.1.1 0 .2 0 .2-.1h.2c.1 0 .3-.1.4-.2h.1c.2-.1.3-.1.5-.2 0 0 .1 0 .1-.1.1-.1.2-.1.4-.2 0 0 .1 0 .1-.1.2-.1.3-.2.5-.2l49.8-28.9s.1 0 .1-.1c0 0 .1 0 .1-.1.1 0 .1-.1.2-.1s.1-.1.2-.1.1-.1.2-.1.1-.1.1-.1c.1 0 .1-.1.2-.1l.1-.1.1-.1.1-.1h.1c.1-.1.2-.1.2-.2 0 0 0-.1.1-.1l.3-.3.1-.1c0-.1.1-.1.1-.2 0 0 0-.1.1-.1 0-.1.1-.1.1-.2v-.1s.1-.1.1-.2c0 0 0-.1.1-.1 0-.1 0-.1.1-.2v-.1-.1-.1-.1-.1-.1-.1-.1-.1-.2-.1-.1l.1-16.1z"/>
        <path fill="#FFF" d="M772.4 531c3.9 2.3 3.9 5.9 0 8.2l-49.8 28.9c-3.9 2.3-10.2 2.3-14.1 0L690 557.5c-3.9-2.3-3.9-5.9 0-8.2l49.8-28.9c3.9-2.3 10.2-2.3 14.1 0l18.5 10.6z"/>
        <path stroke="#001A64" stroke-linecap="round" stroke-linejoin="round" stroke-width="1.445" d="M772.4 531c3.9 2.3 3.9 5.9 0 8.2l-49.8 28.9c-3.9 2.3-10.2 2.3-14.1 0L690 557.5c-3.9-2.3-3.9-5.9 0-8.2l49.8-28.9c3.9-2.3 10.2-2.3 14.1 0l18.5 10.6z"/>
        <path fill="#94E0FF" d="M718 551.8c1.6.9 2.3 2.3 1.7 3.6-.9 2-4.4 3.2-7.9 2.7-1.1-.2-2.1-.5-2.9-1-1.6-.9-2.3-2.3-1.7-3.6.9-2 4.4-3.2 7.9-2.7 1.1.2 2.1.5 2.9 1M735.7 541.5c1.6.9 2.3 2.3 1.7 3.6-.9 2-4.4 3.2-7.9 2.7-1.2-.2-2.1-.5-2.9-1-1.6-.9-2.3-2.3-1.7-3.6.9-2 4.4-3.2 7.9-2.7 1.1.2 2.1.5 2.9 1M753.5 531.1c1.6.9 2.3 2.3 1.7 3.6-.9 2-4.4 3.2-7.9 2.7-1.1-.2-2.1-.5-2.9-1-1.6-.9-2.3-2.3-1.7-3.6.9-2 4.4-3.2 7.9-2.7 1.1.2 2.1.6 2.9 1M174.4 519.4c2.7 1.5 2.7 4.1 0 5.6l-14.3 8.3c-2.7 1.5-7 1.5-9.7 0-2.7-1.5-2.7-4.1 0-5.6l14.3-8.3c2.7-1.6 7-1.6 9.7 0M945.9 208.9c2.7 1.5 2.7 4.1 0 5.6l-14.3 8.3c-2.7 1.5-7 1.5-9.7 0-2.7-1.5-2.7-4.1 0-5.6l14.3-8.3c2.6-1.6 7-1.6 9.7 0"/>
        <g fill="#001A64" fill-rule="nonzero">
            <path d="M299.4 557.4l-75.7 44 1.4.8 77.3-45c-.4 0-.8-.1-1.2-.1l-1.8.3zM228.4 604.2l1.5.8 78.2-45.5-1.5-.8zM233.2 606.9l1.4.9 78.2-45.5-1.4-.9zM237.9 609.7l1.5.8 78.2-45.5-1.5-.8zM242.7 612.4l1.4.9 78.2-45.5-1.4-.9zM247.4 615.2l1.5.8 78.2-45.5-1.5-.8zM252.2 617.9l1.4.9 78.2-45.5-1.4-.9zM257 620.7l1.4.8 78.2-45.5-1.4-.8zM261.7 623.4l1.5.9 78.1-45.5-1.4-.9zM266.5 626.2l1.4.8 78.2-45.5-1.4-.8zM271.2 628.9l1.5.9 78.2-45.5-1.5-.9zM276 631.7l1.4.8 78.2-45.5-1.4-.8zM280.7 634.4l1.5.9 78.2-45.5-1.5-.9zM362.8 592.2l-77.3 45 1.4.8 75.7-44c.3-.6.3-1.2.2-1.8z"/>
        </g>
        <path fill="#FFF" d="M354.7 560.9c2.7-1.6 2.7-4.2 0-5.7l-54.5-31.4c-2.7-1.6-7.2-1.6-9.9 0l-9 5.2 64.4 37.2 9-5.3z"/>
        <path stroke="#001A64" stroke-linecap="round" stroke-linejoin="round" stroke-width="1.445" d="M354.7 555.1c2.7 1.6 2.8 4.2 0 5.7l-9 5.2-64.4-37.2 9-5.2c2.7-1.6 7.2-1.6 9.9 0l54.5 31.5z"/>
        <path fill="#FFF" d="M345.7 566.1l-64 37.2-64.4-37.2 64-37.2z"/>
        <path stroke="#001A64" stroke-linecap="round" stroke-linejoin="round" stroke-width="1.445" d="M345.7 566.1l-64 37.2-64.4-37.2 64-37.2z"/>
        <path fill="#94E0FF" d="M305.1 554.3c1.4.8 1.4 2.1 0 3-1.4.8-3.7.8-5.1 0l-21.8-12.6c-1.4-.8-1.4-2.1 0-3 1.4-.8 3.7-.8 5.1 0l21.8 12.6zM285.7 553.7c1.4.8 1.4 2.1 0 3-1.4.8-3.7.8-5.1 0L269 550c-1.4-.8-1.4-2.1 0-3 1.4-.8 3.7-.8 5.1 0l11.6 6.7zM288.6 567.2c1.4.8 1.4 2.1 0 3-1.4.8-3.7.8-5.1 0L258.8 556c-1.4-.8-1.4-2.1 0-3 1.4-.8 3.7-.8 5.1 0l24.7 14.2z"/>
        <path fill="#FFF" d="M881.8 364.9c-6.2-42.8-37.7-84.6-94.5-117.3-2.8-1.6-5.6-3.2-8.5-4.7-.5-.3-1-.6-1.6-.8-2.8-1.5-5.5-2.9-8.4-4.3-.5-.3-1.1-.5-1.6-.8-2.9-1.4-5.9-2.8-8.9-4.2-.1 0-.1 0-.2-.1-3-1.3-6-2.7-9-3.9-.6-.2-1.1-.5-1.7-.7-2.5-1-5-2.1-7.5-3-.4-.2-.8-.3-1.2-.5-1.3-.5-2.7-1-4-1.5-2-.8-4-1.5-6.1-2.2-1.4-.5-2.8-1-4.3-1.5-2-.7-4-1.4-6-2-1.5-.5-2.9-1-4.4-1.4-2-.6-4-1.3-6.1-1.9-1.5-.4-3-.9-4.5-1.3-.8-.2-1.6-.5-2.4-.7-1.6-.5-3.3-.9-4.9-1.4-.8-.2-1.6-.5-2.5-.7-3.3-.9-6.7-1.8-10.1-2.6-.7-.2-1.5-.3-2.2-.5-2.7-.6-5.4-1.3-8.2-1.9-1.1-.2-2.1-.5-3.2-.7-.9-.2-1.9-.4-2.8-.6-2-.4-3.9-.8-5.9-1.2l-1.5-.3c-3.4-.7-6.8-1.3-10.3-1.8-.9-.1-1.7-.3-2.6-.4-2.9-.5-5.8-.9-8.7-1.4l-2.1-.3c-.3 0-.6-.1-.9-.1l-6.9-.9c-1.3-.2-2.5-.3-3.8-.5-3.8-.5-7.7-.9-11.5-1.3-3.1-.3-6.2-.6-9.3-.8-.6 0-1.2-.1-1.7-.1-.8-.1-1.6-.1-2.5-.2l-9.3-.6c-.6 0-1.1-.1-1.7-.1-3.5-.2-7-.3-10.6-.5-.8 0-1.7-.1-2.5-.1-1.2 0-2.4-.1-3.5-.1-1.9 0-3.8-.1-5.7-.1h-15.1c-2.9 0-5.9.1-8.8.2-.8 0-1.6 0-2.3.1h-1.2c-3.2.1-6.4.3-9.6.4-.7 0-1.4.1-2.2.1-2.9.2-5.8.3-8.8.6-1.1.1-2.2.2-3.3.2-2.8.2-5.5.4-8.3.7-.9.1-1.8.2-2.6.2-.3 0-.7.1-1 .1-3 .3-5.9.6-8.9 1-.5.1-1 .1-1.4.2-3.7.4-7.5.9-11.2 1.4-1.1.2-2.3.3-3.4.5-2.6.4-5.1.8-7.7 1.2-1.4.2-2.8.5-4.2.7-1.5.3-3.1.5-4.7.8-.8.1-1.5.3-2.3.4-1.3.2-2.7.5-4 .8-2.3.4-4.6.9-6.9 1.4-1.3.3-2.6.5-4 .8-2.4.5-4.8 1.1-7.2 1.6-1.1.3-2.3.5-3.4.8-3.5.8-7 1.7-10.4 2.6l-5.1 1.4-.2 65.7 5.1-1.4c3.5-.9 6.9-1.8 10.4-2.6 1.1-.3 2.3-.5 3.4-.8 2.4-.6 4.8-1.1 7.2-1.6 1.3-.3 2.6-.6 4-.8 2.3-.5 4.6-.9 6.9-1.4 1.3-.3 2.7-.5 4-.8l6.9-1.2c1.4-.2 2.8-.5 4.2-.7 2.6-.4 5.1-.8 7.7-1.2 1.1-.2 2.3-.3 3.4-.5 3.7-.5 7.4-1 11.2-1.4.5-.1 1-.1 1.4-.2 3.3-.4 6.6-.7 9.9-1.1.9-.1 1.8-.2 2.6-.2 2.8-.3 5.5-.5 8.3-.7 1.1-.1 2.2-.2 3.3-.2 2.9-.2 5.8-.4 8.8-.6.7 0 1.4-.1 2.2-.1 3.6-.2 7.2-.3 10.8-.4.8 0 1.6 0 2.3-.1 2.9-.1 5.9-.1 8.8-.2h15.1c3.1 0 6.1.1 9.2.2.8 0 1.7.1 2.5.1 3.5.1 7.1.3 10.6.5.6 0 1.1.1 1.7.1l9.3.6c.8.1 1.6.1 2.5.2 3.7.3 7.3.6 11 1 3.9.4 7.7.8 11.5 1.3 1.3.2 2.5.3 3.8.5 2.6.3 5.2.7 7.8 1l2.1.3c2.9.4 5.8.9 8.7 1.4.9.1 1.7.3 2.6.4 3.4.6 6.9 1.2 10.3 1.8l1.5.3 8.7 1.8c1.1.2 2.1.5 3.2.7 2.7.6 5.5 1.2 8.2 1.9.7.2 1.5.3 2.2.5 3.4.8 6.7 1.7 10.1 2.6.8.2 1.6.5 2.5.7 2.5.7 4.9 1.4 7.3 2.1 1.5.4 3 .9 4.5 1.3 2 .6 4.1 1.2 6.1 1.9 1.5.5 2.9.9 4.4 1.4 2 .7 4 1.3 6 2 1.4.5 2.9 1 4.3 1.5 2 .7 4.1 1.5 6.1 2.3 1.3.5 2.7 1 4 1.5 2.9 1.1 5.8 2.3 8.7 3.5.6.2 1.1.5 1.7.7l9 3.9c.1 0 .1 0 .2.1 3 1.4 5.9 2.8 8.9 4.2.5.3 1.1.5 1.6.8 2.8 1.4 5.6 2.8 8.4 4.3.5.3 1 .6 1.6.8 2.9 1.5 5.7 3.1 8.5 4.7 56.7 32.7 88.2 74.5 94.5 117.3.8 5.4 1.2 10.8 1.2 16.2l.2-65.7c.1-5.6-.3-11-1.1-16.4z"/>
        <path stroke="#001A64" stroke-linecap="round" stroke-linejoin="round" stroke-width="1.445" d="M881.8 364.9c-6.2-42.8-37.7-84.6-94.5-117.3-2.8-1.6-5.6-3.2-8.5-4.7-.5-.3-1-.6-1.6-.8-2.8-1.5-5.5-2.9-8.4-4.3-.5-.3-1.1-.5-1.6-.8-2.9-1.4-5.9-2.8-8.9-4.2-.1 0-.1 0-.2-.1-3-1.3-6-2.7-9-3.9-.6-.2-1.1-.5-1.7-.7-2.5-1-5-2.1-7.5-3-.4-.2-.8-.3-1.2-.5-1.3-.5-2.7-1-4-1.5-2-.8-4-1.5-6.1-2.2-1.4-.5-2.8-1-4.3-1.5-2-.7-4-1.4-6-2-1.5-.5-2.9-1-4.4-1.4-2-.6-4-1.3-6.1-1.9-1.5-.4-3-.9-4.5-1.3-.8-.2-1.6-.5-2.4-.7-1.6-.5-3.3-.9-4.9-1.4-.8-.2-1.6-.5-2.5-.7-3.3-.9-6.7-1.8-10.1-2.6-.7-.2-1.5-.3-2.2-.5-2.7-.6-5.4-1.3-8.2-1.9-1.1-.2-2.1-.5-3.2-.7-.9-.2-1.9-.4-2.8-.6-2-.4-3.9-.8-5.9-1.2l-1.5-.3c-3.4-.7-6.8-1.3-10.3-1.8-.9-.1-1.7-.3-2.6-.4-2.9-.5-5.8-.9-8.7-1.4l-2.1-.3c-.3 0-.6-.1-.9-.1l-6.9-.9c-1.3-.2-2.5-.3-3.8-.5-3.8-.5-7.7-.9-11.5-1.3-3.1-.3-6.2-.6-9.3-.8-.6 0-1.2-.1-1.7-.1-.8-.1-1.6-.1-2.5-.2l-9.3-.6c-.6 0-1.1-.1-1.7-.1-3.5-.2-7-.3-10.6-.5-.8 0-1.7-.1-2.5-.1-1.2 0-2.4-.1-3.5-.1-1.9 0-3.8-.1-5.7-.1h-15.1c-2.9 0-5.9.1-8.8.2-.8 0-1.6 0-2.3.1h-1.2c-3.2.1-6.4.3-9.6.4-.7 0-1.4.1-2.2.1-2.9.2-5.8.3-8.8.6-1.1.1-2.2.2-3.3.2-2.8.2-5.5.4-8.3.7-.9.1-1.8.2-2.6.2-.3 0-.7.1-1 .1-3 .3-5.9.6-8.9 1-.5.1-1 .1-1.4.2-3.7.4-7.5.9-11.2 1.4-1.1.2-2.3.3-3.4.5-2.6.4-5.1.8-7.7 1.2-1.4.2-2.8.5-4.2.7-1.5.3-3.1.5-4.7.8-.8.1-1.5.3-2.3.4-1.3.2-2.7.5-4 .8-2.3.4-4.6.9-6.9 1.4-1.3.3-2.6.5-4 .8-2.4.5-4.8 1.1-7.2 1.6-1.1.3-2.3.5-3.4.8-3.5.8-7 1.7-10.4 2.6l-5.1 1.4-.2 65.7 5.1-1.4c3.5-.9 6.9-1.8 10.4-2.6 1.1-.3 2.3-.5 3.4-.8 2.4-.6 4.8-1.1 7.2-1.6 1.3-.3 2.6-.6 4-.8 2.3-.5 4.6-.9 6.9-1.4 1.3-.3 2.7-.5 4-.8l6.9-1.2c1.4-.2 2.8-.5 4.2-.7 2.6-.4 5.1-.8 7.7-1.2 1.1-.2 2.3-.3 3.4-.5 3.7-.5 7.4-1 11.2-1.4.5-.1 1-.1 1.4-.2 3.3-.4 6.6-.7 9.9-1.1.9-.1 1.8-.2 2.6-.2 2.8-.3 5.5-.5 8.3-.7 1.1-.1 2.2-.2 3.3-.2 2.9-.2 5.8-.4 8.8-.6.7 0 1.4-.1 2.2-.1 3.6-.2 7.2-.3 10.8-.4.8 0 1.6 0 2.3-.1 2.9-.1 5.9-.1 8.8-.2h15.1c3.1 0 6.1.1 9.2.2.8 0 1.7.1 2.5.1 3.5.1 7.1.3 10.6.5.6 0 1.1.1 1.7.1l9.3.6c.8.1 1.6.1 2.5.2 3.7.3 7.3.6 11 1 3.9.4 7.7.8 11.5 1.3 1.3.2 2.5.3 3.8.5 2.6.3 5.2.7 7.8 1l2.1.3c2.9.4 5.8.9 8.7 1.4.9.1 1.7.3 2.6.4 3.4.6 6.9 1.2 10.3 1.8l1.5.3 8.7 1.8c1.1.2 2.1.5 3.2.7 2.7.6 5.5 1.2 8.2 1.9.7.2 1.5.3 2.2.5 3.4.8 6.7 1.7 10.1 2.6.8.2 1.6.5 2.5.7 2.5.7 4.9 1.4 7.3 2.1 1.5.4 3 .9 4.5 1.3 2 .6 4.1 1.2 6.1 1.9 1.5.5 2.9.9 4.4 1.4 2 .7 4 1.3 6 2 1.4.5 2.9 1 4.3 1.5 2 .7 4.1 1.5 6.1 2.3 1.3.5 2.7 1 4 1.5 2.9 1.1 5.8 2.3 8.7 3.5.6.2 1.1.5 1.7.7l9 3.9c.1 0 .1 0 .2.1 3 1.4 5.9 2.8 8.9 4.2.5.3 1.1.5 1.6.8 2.8 1.4 5.6 2.8 8.4 4.3.5.3 1 .6 1.6.8 2.9 1.5 5.7 3.1 8.5 4.7 56.7 32.7 88.2 74.5 94.5 117.3.8 5.4 1.2 10.8 1.2 16.2l.2-65.7c.1-5.6-.3-11-1.1-16.4z"/>
        <path fill="#FFF" d="M894.2 384.4c0 1.4-.1 2.9-.2 4.3 0 .3-.1.6-.1.9-.1 1.1-.2 2.3-.3 3.4 0 .5-.1.9-.2 1.4-.1 1.1-.3 2.2-.4 3.3-.1.4-.1.8-.2 1.1-.2 1.4-.5 2.9-.8 4.3-.1.3-.1.5-.2.8-.2 1.2-.5 2.3-.8 3.5-.1.5-.2.9-.3 1.4-.3 1-.5 2.1-.8 3.1l-.3 1.2c-.4 1.4-.8 2.8-1.3 4.2 0 .1-.1.3-.1.4-.4 1.3-.9 2.6-1.4 3.9-.2.4-.3.9-.5 1.3-.4 1.1-.8 2.2-1.3 3.2-.2.4-.3.8-.5 1.2-.6 1.4-1.2 2.9-1.9 4.3-.1.1-.1.2-.2.4-.6 1.3-1.3 2.6-1.9 3.9-.2.4-.4.8-.7 1.3-.6 1.1-1.1 2.1-1.7 3.2-.2.4-.4.8-.6 1.1-.8 1.5-1.7 3-2.6 4.4-.2.3-.4.6-.5.9-.8 1.2-1.6 2.5-2.4 3.7-.3.4-.5.8-.8 1.1-1 1.5-2 2.9-3.1 4.4-.1.2-.3.3-.4.5-1 1.3-1.9 2.6-2.9 3.9-.3.4-.6.7-.8 1.1-1.3 1.7-2.7 3.3-4.1 5-.2.3-.4.5-.7.8-1.4 1.6-2.9 3.3-4.4 4.9l-.3.3c-1.5 1.7-3.1 3.3-4.8 4.9l-.9.9c-1.6 1.6-3.2 3.2-4.9 4.7-.4.3-.8.7-1.1 1-1 .9-2.1 1.9-3.1 2.8-.4.4-.8.7-1.3 1.1-1.4 1.3-2.9 2.5-4.4 3.8l-3.2 2.7-.2 65.7 3.2-2.7c1.5-1.2 3-2.5 4.4-3.8.4-.4.8-.7 1.3-1.1 1.1-.9 2.1-1.9 3.1-2.8.3-.2.5-.5.8-.7l.4-.4c1.7-1.6 3.3-3.1 4.9-4.7l.9-.9c1.6-1.6 3.2-3.3 4.8-4.9l.3-.3c1.5-1.6 2.9-3.2 4.3-4.9.2-.3.5-.5.7-.8 1.4-1.6 2.8-3.3 4.1-5 .1-.2.3-.3.4-.5.2-.2.3-.4.5-.6 1-1.3 2-2.6 2.9-3.9.1-.2.3-.4.4-.5 1.1-1.5 2.1-2.9 3.1-4.4.3-.4.5-.8.8-1.1.8-1.2 1.6-2.5 2.4-3.7l.6-.9c.9-1.5 1.8-3 2.6-4.4.1-.1.1-.2.2-.4.1-.3.3-.5.4-.8.6-1.1 1.2-2.1 1.7-3.2.2-.4.4-.8.7-1.3.7-1.3 1.3-2.6 1.9-3.9.1-.1.1-.2.2-.4.7-1.4 1.3-2.8 1.9-4.3.2-.4.3-.8.5-1.2.4-1.1.9-2.2 1.3-3.2.1-.3.2-.5.3-.8.1-.2.1-.3.2-.5.5-1.3.9-2.6 1.4-3.9 0-.1.1-.3.1-.4.5-1.4.9-2.8 1.3-4.2l.3-1.2c.3-1 .6-2.1.8-3.1.1-.5.2-.9.3-1.4.3-1.2.5-2.3.8-3.5 0-.2.1-.4.1-.7v-.2c.3-1.4.5-2.9.8-4.3.1-.4.1-.8.2-1.1.2-1.1.3-2.2.4-3.3.1-.5.1-.9.2-1.4.1-1.1.2-2.3.3-3.4 0-.3.1-.6.1-1 .1-1.4.2-2.9.2-4.3v-.3-3l.2-65.7c0 1.5-.1 2.6-.1 3.7"/>
        <path stroke="#001A64" stroke-linecap="round" stroke-linejoin="round" stroke-width="1.445" d="M894.2 384.4c0 1.4-.1 2.9-.2 4.3 0 .3-.1.6-.1.9-.1 1.1-.2 2.3-.3 3.4 0 .5-.1.9-.2 1.4-.1 1.1-.3 2.2-.4 3.3-.1.4-.1.8-.2 1.1-.2 1.4-.5 2.9-.8 4.3-.1.3-.1.5-.2.8-.2 1.2-.5 2.3-.8 3.5-.1.5-.2.9-.3 1.4-.3 1-.5 2.1-.8 3.1l-.3 1.2c-.4 1.4-.8 2.8-1.3 4.2 0 .1-.1.3-.1.4-.4 1.3-.9 2.6-1.4 3.9-.2.4-.3.9-.5 1.3-.4 1.1-.8 2.2-1.3 3.2-.2.4-.3.8-.5 1.2-.6 1.4-1.2 2.9-1.9 4.3-.1.1-.1.2-.2.4-.6 1.3-1.3 2.6-1.9 3.9-.2.4-.4.8-.7 1.3-.6 1.1-1.1 2.1-1.7 3.2-.2.4-.4.8-.6 1.1-.8 1.5-1.7 3-2.6 4.4-.2.3-.4.6-.5.9-.8 1.2-1.6 2.5-2.4 3.7-.3.4-.5.8-.8 1.1-1 1.5-2 2.9-3.1 4.4-.1.2-.3.3-.4.5-1 1.3-1.9 2.6-2.9 3.9-.3.4-.6.7-.8 1.1-1.3 1.7-2.7 3.3-4.1 5-.2.3-.4.5-.7.8-1.4 1.6-2.9 3.3-4.4 4.9l-.3.3c-1.5 1.7-3.1 3.3-4.8 4.9l-.9.9c-1.6 1.6-3.2 3.2-4.9 4.7-.4.3-.8.7-1.1 1-1 .9-2.1 1.9-3.1 2.8-.4.4-.8.7-1.3 1.1-1.4 1.3-2.9 2.5-4.4 3.8l-3.2 2.7-.2 65.7 3.2-2.7c1.5-1.2 3-2.5 4.4-3.8.4-.4.8-.7 1.3-1.1 1.1-.9 2.1-1.9 3.1-2.8.3-.2.5-.5.8-.7l.4-.4c1.7-1.6 3.3-3.1 4.9-4.7l.9-.9c1.6-1.6 3.2-3.3 4.8-4.9l.3-.3c1.5-1.6 2.9-3.2 4.3-4.9.2-.3.5-.5.7-.8 1.4-1.6 2.8-3.3 4.1-5 .1-.2.3-.3.4-.5.2-.2.3-.4.5-.6 1-1.3 2-2.6 2.9-3.9.1-.2.3-.4.4-.5 1.1-1.5 2.1-2.9 3.1-4.4.3-.4.5-.8.8-1.1.8-1.2 1.6-2.5 2.4-3.7l.6-.9c.9-1.5 1.8-3 2.6-4.4.1-.1.1-.2.2-.4.1-.3.3-.5.4-.8.6-1.1 1.2-2.1 1.7-3.2.2-.4.4-.8.7-1.3.7-1.3 1.3-2.6 1.9-3.9.1-.1.1-.2.2-.4.7-1.4 1.3-2.8 1.9-4.3.2-.4.3-.8.5-1.2.4-1.1.9-2.2 1.3-3.2.1-.3.2-.5.3-.8.1-.2.1-.3.2-.5.5-1.3.9-2.6 1.4-3.9 0-.1.1-.3.1-.4.5-1.4.9-2.8 1.3-4.2l.3-1.2c.3-1 .6-2.1.8-3.1.1-.5.2-.9.3-1.4.3-1.2.5-2.3.8-3.5 0-.2.1-.4.1-.7v-.2c.3-1.4.5-2.9.8-4.3.1-.4.1-.8.2-1.1.2-1.1.3-2.2.4-3.3.1-.5.1-.9.2-1.4.1-1.1.2-2.3.3-3.4 0-.3.1-.6.1-1 .1-1.4.2-2.9.2-4.3v-.3-3l.2-65.7c0 1.5-.1 2.6-.1 3.7zM418.4 210.9l-.2 65.7-4.8-5.9.2-65.8z"/>
        <path fill="#FFF" d="M830.7 494.5l-.2 65.7-9.2-3.8.2-65.7z"/>
        <path stroke="#001A64" stroke-linecap="round" stroke-linejoin="round" stroke-width="1.445" d="M830.7 494.5l-.2 65.7-9.2-3.8.2-65.7z"/>
        <path fill="#FFF" d="M893.1 364.4c-6.4-44.3-39.1-87.6-97.7-121.4-51-29.5-114.3-47.5-180.3-54-65.9-6.6-134.5-1.7-196.3 14.7l-5.1 1.4 4.7 5.9 5.1-1.4c59.7-15.8 126-20.5 189.7-14.2 63.7 6.3 124.8 23.7 174.2 52.2 56.7 32.7 88.2 74.5 94.5 117.3 6.2 42.8-12.8 86.5-57.1 123.1l-3.2 2.7 9.3 3.8 3.2-2.7c45.7-37.9 65.4-83.2 59-127.4z"/>
        <path stroke="#001A64" stroke-linecap="round" stroke-linejoin="round" stroke-width="1.445" d="M893.1 364.4c-6.4-44.3-39.1-87.6-97.7-121.4-51-29.5-114.3-47.5-180.3-54-65.9-6.6-134.5-1.7-196.3 14.7l-5.1 1.4 4.7 5.9 5.1-1.4c59.7-15.8 126-20.5 189.7-14.2 63.7 6.3 124.8 23.7 174.2 52.2 56.7 32.7 88.2 74.5 94.5 117.3 6.2 42.8-12.8 86.5-57.1 123.1l-3.2 2.7 9.3 3.8 3.2-2.7c45.7-37.9 65.4-83.2 59-127.4z"/>
        <path fill="#001A64" d="M830.7 516.7s.2 17.6 6.5 20.8c6.3 3.2 15.4-2.9 21-12.1s11.9-5.7 16.5-13.8c0 0-18.1 29.3-44.1 48.5l.1-43.4z"/>
        <path fill="#FFF" d="M719.7 264.1c0 24-19.5 43.4-43.4 43.4-24 0-43.4-19.4-43.4-43.4s19.5-43.4 43.4-43.4c24 0 43.4 19.4 43.4 43.4"/>
        <path stroke="#001A64" stroke-linecap="round" stroke-linejoin="round" stroke-width="1.445" d="M719.7 264.1c0 24-19.5 43.4-43.4 43.4-24 0-43.4-19.4-43.4-43.4s19.5-43.4 43.4-43.4c24 0 43.4 19.4 43.4 43.4z"/>
        <path fill="#001A64" d="M685.3 306.2s-13.6 1.2-19.9-1.4c-11.4-4.6-16.3-11.8-15.5-17 1.4-10.1-1.1-12.8-8.2-20.7-8.6-9.7-2.5-26.8 5.6-32.6 8.1-5.8 24.8-7.9 24.1-13.9 0 0-38.6 6-39.4 42.8-.6 34.9 34.7 48.5 53.3 42.8"/>
        <path stroke="#001A64" stroke-linecap="round" stroke-linejoin="round" stroke-width="1.445" d="M700.6 249.7c-2.3-4.4-1.9-9.2 1-10.7s7.1.8 9.4 5.2c2.3 4.4 1.9 9.2-1 10.7s-7.1-.8-9.4-5.2zM678.3 292.9c5-.2 9.1 2 9.2 5 .1 3-3.8 5.6-8.8 5.8-5 .2-9.1-2-9.2-5-.1-3 3.8-5.6 8.8-5.8zM696.8 302.4s-6 1.2-11.2-1M672.5 294.4s-15.5-12.5-19.8-28.9M651.3 259.2s-3.1-14.5 0-24.6"/>
        <path fill="#FFF" d="M712.2 336.1c.8-.2 1.5-.4 2.3-.5.2 0 .5-.1.7-.1l1.5-.3c.2 0 .5-.1.7-.1.7-.1 1.4-.2 2.2-.2.7-.1 1.3-.1 2-.1h2.4c1.2 0 2.3 0 3.4.1h.4c1.1.1 2.1.2 3.1.3.1 0 .3 0 .4.1 1 .1 2 .3 2.9.5.2 0 .3.1.5.1.3.1.6.1.9.2.2 0 .4.1.7.1.3.1.5.1.8.2.2.1.4.1.6.2.3.1.6.2.9.2.2 0 .4.1.5.1l.9.3c.1 0 .2.1.4.1.4.1.8.3 1.2.4.1 0 .2.1.3.1.3.1.6.2.8.3.1 0 .3.1.4.1.2.1.5.2.7.3.1 0 .2.1.3.1.2.1.4.2.6.2.1 0 .2.1.3.1.3.1.6.2.8.3.1 0 .1 0 .2.1.2.1.4.2.5.2.1 0 .1 0 .2.1.1 0 .2.1.3.1h.1c.1 0 .1.1.2.1h.1l19.2-11.1s-.1-.1-.2-.1h-.1c-.1 0-.2-.1-.3-.1h-.1-.1c-.2-.1-.3-.1-.5-.2-.1 0-.1 0-.2-.1-.2-.1-.5-.2-.8-.3h-.1c-.1 0-.1 0-.2-.1-.2-.1-.4-.2-.7-.3-.1 0-.2-.1-.3-.1-.2-.1-.5-.2-.7-.3-.1 0-.2-.1-.2-.1h-.1c-.3-.1-.5-.2-.8-.3-.1 0-.2-.1-.3-.1-.4-.1-.8-.3-1.2-.4-.1 0-.2-.1-.3-.1l-.9-.3c-.2 0-.3-.1-.5-.1-.3-.1-.6-.2-.9-.2-.1 0-.1 0-.2-.1-.1 0-.3-.1-.4-.1-.3-.1-.5-.1-.8-.2-.2-.1-.4-.1-.7-.1-.3-.1-.6-.1-.9-.2-.1 0-.2 0-.3-.1h-.2c-.9-.2-1.9-.3-2.9-.5h-.4c-1-.1-2.1-.2-3.1-.3h-.4c-1.1-.1-2.3-.1-3.4-.1H741c-.6 0-1.3.1-1.9.1-.7.1-1.4.1-2.2.2-.2 0-.5.1-.7.1l-1.5.3c-.1 0-.3 0-.4.1-.1 0-.2.1-.3.1-.8.2-1.5.3-2.3.5-.1 0-.2 0-.3.1-.8.2-1.7.5-2.6.8-.1 0-.2.1-.3.1-.2.1-.5.2-.7.3-.3.1-.5.2-.8.3-.4.1-.8.3-1.1.5-.2.1-.5.2-.7.3-.4.2-.8.4-1.3.6l-.6.3c-.6.3-1.3.7-1.9 1l-13.7 7.9c-.2 0-.3.1-.5.1-.8.1-1.5.3-2.3.3h-.5c-.8.1-1.7.1-2.5.1h-.1c-1 0-2.1 0-3.2-.1h-.1c-.7-.1-1.4-.1-2.2-.2-.2 0-.4 0-.6-.1-.5-.1-1.1-.1-1.6-.2-.2 0-.4-.1-.6-.1-1.1-.2-2.2-.3-3.3-.5-.2 0-.3-.1-.5-.1-1.2-.2-2.3-.4-3.5-.6-1.1-.2-2.3-.4-3.5-.6-.2 0-.4-.1-.6-.1-1.1-.2-2.2-.4-3.4-.5h-.6c-.6-.1-1.2-.2-1.8-.2-.2 0-.4 0-.6-.1-.8-.1-1.5-.2-2.3-.2H672.5c-.3 0-.7 0-1-.1h-3.6c-.5 0-1 .1-1.4.1h-.3c-.6.1-1.1.1-1.7.2-.2 0-.3.1-.5.1-.3.1-.7.1-1 .2h-.2c-.3.1-.6.1-.8.2-.3.1-.6.1-.9.2-.3.1-.6.2-.8.3-.2.1-.5.1-.7.2 0 0-.1 0-.1.1-.4.1-.8.3-1.1.5-.2.1-.4.2-.6.2-.6.3-1.1.5-1.6.9L637 348.5c.5-.3 1.1-.6 1.6-.9.2-.1.4-.2.6-.2.4-.2.8-.3 1.1-.5.3-.1.6-.2.8-.3.3-.1.5-.2.8-.3.3-.1.6-.1.9-.2.3-.1.6-.1.8-.2.4-.1.8-.1 1.2-.2.2 0 .3-.1.5-.1.6-.1 1.1-.1 1.7-.2h.3c.5 0 1-.1 1.4-.1h3.6c.3 0 .7 0 1 .1.3 0 .6 0 .9.1.8.1 1.5.1 2.3.2.2 0 .4 0 .6.1.6.1 1.2.1 1.8.2.2 0 .4.1.6.1 1.1.2 2.2.3 3.4.5.2 0 .4.1.6.1 1.2.2 2.3.4 3.5.6 1.2.2 2.4.4 3.5.6.2 0 .3.1.5.1 1.1.2 2.2.4 3.3.5h.7c.6.1 1.1.1 1.6.2.2 0 .4.1.6.1.7.1 1.5.1 2.2.2h.2c1.1.1 2.1.1 3.2.1h.1c.9 0 1.7 0 2.5-.1h.5c.8-.1 1.6-.2 2.3-.3h.2c.2 0 .5-.1.7-.2.2 0 .4-.1.6-.1.3-.1.7-.2 1-.3.1 0 .3-.1.4-.1h.1c.3-.1.6-.2.9-.4.2-.1.3-.1.5-.2.5-.2.9-.4 1.4-.7l16.4-9.5c.7-.2 1.4-.5 2.1-.6-.5-.4-.4-.5-.3-.5"/>
        <path stroke="#001A64" stroke-linecap="round" stroke-linejoin="round" stroke-width="1.445" d="M712.2 336.1c.8-.2 1.5-.4 2.3-.5.2 0 .5-.1.7-.1l1.5-.3c.2 0 .5-.1.7-.1.7-.1 1.4-.2 2.2-.2.7-.1 1.3-.1 2-.1h2.4c1.2 0 2.3 0 3.4.1h.4c1.1.1 2.1.2 3.1.3.1 0 .3 0 .4.1 1 .1 2 .3 2.9.5.2 0 .3.1.5.1.3.1.6.1.9.2.2 0 .4.1.7.1.3.1.5.1.8.2.2.1.4.1.6.2.3.1.6.2.9.2.2 0 .4.1.5.1l.9.3c.1 0 .2.1.4.1.4.1.8.3 1.2.4.1 0 .2.1.3.1.3.1.6.2.8.3.1 0 .3.1.4.1.2.1.5.2.7.3.1 0 .2.1.3.1.2.1.4.2.6.2.1 0 .2.1.3.1.3.1.6.2.8.3.1 0 .1 0 .2.1.2.1.4.2.5.2.1 0 .1 0 .2.1.1 0 .2.1.3.1h.1c.1 0 .1.1.2.1h.1l19.2-11.1s-.1-.1-.2-.1h-.1c-.1 0-.2-.1-.3-.1h-.1-.1c-.2-.1-.3-.1-.5-.2-.1 0-.1 0-.2-.1-.2-.1-.5-.2-.8-.3h-.1c-.1 0-.1 0-.2-.1-.2-.1-.4-.2-.7-.3-.1 0-.2-.1-.3-.1-.2-.1-.5-.2-.7-.3-.1 0-.2-.1-.2-.1h-.1c-.3-.1-.5-.2-.8-.3-.1 0-.2-.1-.3-.1-.4-.1-.8-.3-1.2-.4-.1 0-.2-.1-.3-.1l-.9-.3c-.2 0-.3-.1-.5-.1-.3-.1-.6-.2-.9-.2-.1 0-.1 0-.2-.1-.1 0-.3-.1-.4-.1-.3-.1-.5-.1-.8-.2-.2-.1-.4-.1-.7-.1-.3-.1-.6-.1-.9-.2-.1 0-.2 0-.3-.1h-.2c-.9-.2-1.9-.3-2.9-.5h-.4c-1-.1-2.1-.2-3.1-.3h-.4c-1.1-.1-2.3-.1-3.4-.1H741c-.6 0-1.3.1-1.9.1-.7.1-1.4.1-2.2.2-.2 0-.5.1-.7.1l-1.5.3c-.1 0-.3 0-.4.1-.1 0-.2.1-.3.1-.8.2-1.5.3-2.3.5-.1 0-.2 0-.3.1-.8.2-1.7.5-2.6.8-.1 0-.2.1-.3.1-.2.1-.5.2-.7.3-.3.1-.5.2-.8.3-.4.1-.8.3-1.1.5-.2.1-.5.2-.7.3-.4.2-.8.4-1.3.6l-.6.3c-.6.3-1.3.7-1.9 1l-13.7 7.9c-.2 0-.3.1-.5.1-.8.1-1.5.3-2.3.3h-.5c-.8.1-1.7.1-2.5.1h-.1c-1 0-2.1 0-3.2-.1h-.1c-.7-.1-1.4-.1-2.2-.2-.2 0-.4 0-.6-.1-.5-.1-1.1-.1-1.6-.2-.2 0-.4-.1-.6-.1-1.1-.2-2.2-.3-3.3-.5-.2 0-.3-.1-.5-.1-1.2-.2-2.3-.4-3.5-.6-1.1-.2-2.3-.4-3.5-.6-.2 0-.4-.1-.6-.1-1.1-.2-2.2-.4-3.4-.5h-.6c-.6-.1-1.2-.2-1.8-.2-.2 0-.4 0-.6-.1-.8-.1-1.5-.2-2.3-.2H672.5c-.3 0-.7 0-1-.1h-3.6c-.5 0-1 .1-1.4.1h-.3c-.6.1-1.1.1-1.7.2-.2 0-.3.1-.5.1-.3.1-.7.1-1 .2h-.2c-.3.1-.6.1-.8.2-.3.1-.6.1-.9.2-.3.1-.6.2-.8.3-.2.1-.5.1-.7.2 0 0-.1 0-.1.1-.4.1-.8.3-1.1.5-.2.1-.4.2-.6.2-.6.3-1.1.5-1.6.9L637 348.5c.5-.3 1.1-.6 1.6-.9.2-.1.4-.2.6-.2.4-.2.8-.3 1.1-.5.3-.1.6-.2.8-.3.3-.1.5-.2.8-.3.3-.1.6-.1.9-.2.3-.1.6-.1.8-.2.4-.1.8-.1 1.2-.2.2 0 .3-.1.5-.1.6-.1 1.1-.1 1.7-.2h.3c.5 0 1-.1 1.4-.1h3.6c.3 0 .7 0 1 .1.3 0 .6 0 .9.1.8.1 1.5.1 2.3.2.2 0 .4 0 .6.1.6.1 1.2.1 1.8.2.2 0 .4.1.6.1 1.1.2 2.2.3 3.4.5.2 0 .4.1.6.1 1.2.2 2.3.4 3.5.6 1.2.2 2.4.4 3.5.6.2 0 .3.1.5.1 1.1.2 2.2.4 3.3.5h.7c.6.1 1.1.1 1.6.2.2 0 .4.1.6.1.7.1 1.5.1 2.2.2h.2c1.1.1 2.1.1 3.2.1h.1c.9 0 1.7 0 2.5-.1h.5c.8-.1 1.6-.2 2.3-.3h.2c.2 0 .5-.1.7-.2.2 0 .4-.1.6-.1.3-.1.7-.2 1-.3.1 0 .3-.1.4-.1h.1c.3-.1.6-.2.9-.4.2-.1.3-.1.5-.2.5-.2.9-.4 1.4-.7l16.4-9.5c.7-.2 1.4-.5 2.1-.6-.5-.4-.4-.5-.3-.5z"/>
        <path fill="#FFF" d="M747.3 339.8l19.2-11.2-.3 89.7-19.2 11.1z"/>
        <path stroke="#001A64" stroke-linecap="round" stroke-linejoin="round" stroke-width="1.445" d="M747.3 339.8l19.2-11.2-.3 89.7-19.2 11.1z"/>
        <path fill="#FFF" d="M747.3 339.8l-.3 89.7L626.7 360c13.7-31.7 52-.8 68.9-15.2 22.5-19 50.2-5.7 51.7-5"/>
        <path stroke="#001A64" stroke-linecap="round" stroke-linejoin="round" stroke-width="1.445" d="M747.3 339.8l-.3 89.7L626.7 360c13.7-31.7 52-.8 68.9-15.2 22.5-19 50.2-5.7 51.7-5z"/>
        <path fill="#FFF" d="M680.7 365.7c.3-.1.6-.3 1-.4.5-.2 1-.4 1.6-.6.3-.1.7-.2 1-.4.5-.2 1-.4 1.5-.5.3-.1.7-.2 1-.3.5-.2 1-.3 1.5-.5l.9-.3c.6-.2 1.1-.3 1.7-.4.2-.1.5-.1.7-.2.8-.2 1.5-.3 2.3-.5 1-.2 1.9-.3 2.9-.5.3 0 .5-.1.8-.1.7-.1 1.4-.2 2.1-.2.3 0 .5-.1.8-.1.5 0 1-.1 1.5-.1h5.1c.5 0 1 0 1.5.1h.4c1.2.1 2.3.2 3.3.3h.2c.9.1 1.8.3 2.7.4.1 0 .3 0 .4.1.8.2 1.6.3 2.3.5.1 0 .3.1.4.1.7.2 1.4.4 2 .6.1 0 .1 0 .2.1.6.2 1.2.4 1.7.6.1 0 .1 0 .2.1.6.2 1.1.4 1.5.6.1.1.3.1.4.2.1 0 .2.1.3.1.2.1.3.1.5.2.1 0 .2.1.3.1.2.1.3.1.5.2.1 0 .2.1.2.1.2.1.3.2.5.2h.1c.2.1.3.2.5.2.1.1.3.1.4.2.1.1.2.1.2.1h.1s.1 0 .1.1l19.2-11.1c-.1 0-.2-.1-.3-.2-.1 0-.1-.1-.2-.1-.1-.1-.2-.1-.3-.2-.1 0-.1-.1-.2-.1-.1-.1-.2-.1-.4-.2 0 0-.1 0-.1-.1-.1-.1-.3-.1-.4-.2-.1 0-.2-.1-.2-.1-.1-.1-.2-.1-.3-.2h-.1c-.1 0-.2-.1-.3-.1-.2-.1-.3-.1-.5-.2-.1 0-.2-.1-.3-.1-.1 0-.2-.1-.3-.1 0 0-.1 0-.1-.1l-1.5-.6h-.1-.1c-.5-.2-1.1-.4-1.7-.6-.1 0-.1 0-.2-.1h-.1c-.6-.2-1.3-.4-2-.6-.1 0-.1 0-.2-.1h-.2c-.7-.2-1.5-.4-2.3-.5h-.4c-.9-.2-1.8-.3-2.7-.4h-.1-.1c-1.1-.1-2.2-.3-3.3-.3h-.4c-.5 0-1-.1-1.5-.1h-2.1H721.1c-.5 0-1 .1-1.5.1h-.3c-.2 0-.3 0-.5.1-.7.1-1.4.1-2.1.2-.3 0-.5.1-.8.1-.9.1-1.9.3-2.9.5-.7.1-1.5.3-2.3.5-.2.1-.5.1-.7.2-.6.1-1.1.3-1.7.4l-.9.3c-.5.1-1 .3-1.5.5-.3.1-.7.2-1 .3-.3.1-.6.2-.8.3-.2.1-.5.2-.7.3-.3.1-.7.2-1 .4-.5.2-1 .4-1.6.6-.3.1-.6.3-1 .4-.6.2-1.2.5-1.7.8-.3.1-.6.2-.8.4-.9.4-1.7.8-2.6 1.3-.5.3-1.1.5-1.7.7-.5.2-1 .3-1.4.5-.1 0-.3.1-.4.1-.3.1-.6.1-1 .2s-.7.1-1.1.2c-.3 0-.5.1-.8.1h-2.8c-.3 0-.6 0-.9-.1-.3 0-.7-.1-1-.1-.3 0-.6-.1-.9-.1-.4-.1-.7-.1-1.1-.2-.3 0-.5-.1-.8-.1-.7-.1-1.4-.3-2.2-.5h-.1c-.8-.2-1.6-.4-2.5-.7-.2-.1-.4-.1-.6-.2-1.2-.4-2.3-.8-3.5-1.2-.2-.1-.4-.1-.6-.2-1-.3-1.9-.7-2.9-1.1-.2-.1-.4-.1-.5-.2-.9-.4-1.9-.7-2.8-1.1-1-.4-2-.8-3-1.1-.2-.1-.4-.2-.7-.2-1-.4-2-.7-3-1.1h-.1-.1c-1.2-.4-2.5-.8-3.7-1.2h-.1c-.1 0-.2-.1-.3-.1-.7-.2-1.3-.4-2-.6-.1 0-.3-.1-.4-.1-.1 0-.2-.1-.4-.1l-1.5-.3c-.2 0-.3-.1-.5-.1h-.2c-.4-.1-.9-.1-1.3-.2-.2 0-.4-.1-.6-.1h-.1c-.3 0-.7-.1-1-.1-.3 0-.5-.1-.8-.1h-1.8-.1c-.4 0-.8 0-1.2.1h-.6c-.6.1-1.2.1-1.8.3-.5.1-1 .2-1.4.4-.1 0-.3.1-.4.1-.2 0-.3.1-.5.1l-.6.3c-.2.1-.3.1-.5.2-.5.2-1 .5-1.4.7l-19 10.7c.5-.3.9-.5 1.4-.7.1-.1.3-.1.5-.2.4-.1.7-.3 1.1-.4.1 0 .3-.1.4-.1.5-.1 1-.3 1.5-.4l1.8-.3h.6c.4 0 .8-.1 1.2-.1h1.8c.3 0 .6.1.9.1.3 0 .7.1 1 .1.2 0 .5.1.7.1.4.1.9.1 1.3.2.2 0 .5.1.7.2l1.5.3c.2.1.5.1.7.2.7.2 1.3.4 2 .6.1 0 .3.1.4.1 1.2.4 2.5.8 3.7 1.2.1 0 .2.1.3.1 1 .3 2 .7 3 1.1.2.1.4.2.7.2 1 .4 2 .7 3 1.1.9.4 1.9.7 2.8 1.1.2.1.4.1.5.2 1 .4 1.9.7 2.9 1.1.1 0 .2.1.3.1.1 0 .1 0 .2.1 1.2.4 2.4.8 3.5 1.2.1 0 .2.1.3.1.1 0 .2.1.3.1.8.2 1.6.5 2.5.7h.1c.7.2 1.5.3 2.2.5h.2c.2 0 .4.1.6.1.4.1.8.1 1.1.2h.3c.2 0 .4 0 .6.1.3 0 .7.1 1 .1H669.5c.1 0 .3 0 .4-.1.4 0 .7-.1 1.1-.2.1 0 .3 0 .4-.1.2 0 .4-.1.6-.1.1 0 .3-.1.4-.1.5-.1.9-.3 1.4-.4h.1c.6-.2 1.1-.4 1.6-.7.9-.4 1.7-.9 2.6-1.3.3-.1.6-.3.8-.4.6-.1 1.2-.4 1.8-.6"/>
        <path stroke="#001A64" stroke-linecap="round" stroke-linejoin="round" stroke-width="1.445" d="M680.7 365.7c.3-.1.6-.3 1-.4.5-.2 1-.4 1.6-.6.3-.1.7-.2 1-.4.5-.2 1-.4 1.5-.5.3-.1.7-.2 1-.3.5-.2 1-.3 1.5-.5l.9-.3c.6-.2 1.1-.3 1.7-.4.2-.1.5-.1.7-.2.8-.2 1.5-.3 2.3-.5 1-.2 1.9-.3 2.9-.5.3 0 .5-.1.8-.1.7-.1 1.4-.2 2.1-.2.3 0 .5-.1.8-.1.5 0 1-.1 1.5-.1h5.1c.5 0 1 0 1.5.1h.4c1.2.1 2.3.2 3.3.3h.2c.9.1 1.8.3 2.7.4.1 0 .3 0 .4.1.8.2 1.6.3 2.3.5.1 0 .3.1.4.1.7.2 1.4.4 2 .6.1 0 .1 0 .2.1.6.2 1.2.4 1.7.6.1 0 .1 0 .2.1.6.2 1.1.4 1.5.6.1.1.3.1.4.2.1 0 .2.1.3.1.2.1.3.1.5.2.1 0 .2.1.3.1.2.1.3.1.5.2.1 0 .2.1.2.1.2.1.3.2.5.2h.1c.2.1.3.2.5.2.1.1.3.1.4.2.1.1.2.1.2.1h.1s.1 0 .1.1l19.2-11.1c-.1 0-.2-.1-.3-.2-.1 0-.1-.1-.2-.1-.1-.1-.2-.1-.3-.2-.1 0-.1-.1-.2-.1-.1-.1-.2-.1-.4-.2 0 0-.1 0-.1-.1-.1-.1-.3-.1-.4-.2-.1 0-.2-.1-.2-.1-.1-.1-.2-.1-.3-.2h-.1c-.1 0-.2-.1-.3-.1-.2-.1-.3-.1-.5-.2-.1 0-.2-.1-.3-.1-.1 0-.2-.1-.3-.1 0 0-.1 0-.1-.1l-1.5-.6h-.1-.1c-.5-.2-1.1-.4-1.7-.6-.1 0-.1 0-.2-.1h-.1c-.6-.2-1.3-.4-2-.6-.1 0-.1 0-.2-.1h-.2c-.7-.2-1.5-.4-2.3-.5h-.4c-.9-.2-1.8-.3-2.7-.4h-.1-.1c-1.1-.1-2.2-.3-3.3-.3h-.4c-.5 0-1-.1-1.5-.1h-2.1H721.1c-.5 0-1 .1-1.5.1h-.3c-.2 0-.3 0-.5.1-.7.1-1.4.1-2.1.2-.3 0-.5.1-.8.1-.9.1-1.9.3-2.9.5-.7.1-1.5.3-2.3.5-.2.1-.5.1-.7.2-.6.1-1.1.3-1.7.4l-.9.3c-.5.1-1 .3-1.5.5-.3.1-.7.2-1 .3-.3.1-.6.2-.8.3-.2.1-.5.2-.7.3-.3.1-.7.2-1 .4-.5.2-1 .4-1.6.6-.3.1-.6.3-1 .4-.6.2-1.2.5-1.7.8-.3.1-.6.2-.8.4-.9.4-1.7.8-2.6 1.3-.5.3-1.1.5-1.7.7-.5.2-1 .3-1.4.5-.1 0-.3.1-.4.1-.3.1-.6.1-1 .2s-.7.1-1.1.2c-.3 0-.5.1-.8.1h-2.8c-.3 0-.6 0-.9-.1-.3 0-.7-.1-1-.1-.3 0-.6-.1-.9-.1-.4-.1-.7-.1-1.1-.2-.3 0-.5-.1-.8-.1-.7-.1-1.4-.3-2.2-.5h-.1c-.8-.2-1.6-.4-2.5-.7-.2-.1-.4-.1-.6-.2-1.2-.4-2.3-.8-3.5-1.2-.2-.1-.4-.1-.6-.2-1-.3-1.9-.7-2.9-1.1-.2-.1-.4-.1-.5-.2-.9-.4-1.9-.7-2.8-1.1-1-.4-2-.8-3-1.1-.2-.1-.4-.2-.7-.2-1-.4-2-.7-3-1.1h-.1-.1c-1.2-.4-2.5-.8-3.7-1.2h-.1c-.1 0-.2-.1-.3-.1-.7-.2-1.3-.4-2-.6-.1 0-.3-.1-.4-.1-.1 0-.2-.1-.4-.1l-1.5-.3c-.2 0-.3-.1-.5-.1h-.2c-.4-.1-.9-.1-1.3-.2-.2 0-.4-.1-.6-.1h-.1c-.3 0-.7-.1-1-.1-.3 0-.5-.1-.8-.1h-1.8-.1c-.4 0-.8 0-1.2.1h-.6c-.6.1-1.2.1-1.8.3-.5.1-1 .2-1.4.4-.1 0-.3.1-.4.1-.2 0-.3.1-.5.1l-.6.3c-.2.1-.3.1-.5.2-.5.2-1 .5-1.4.7l-19 10.7c.5-.3.9-.5 1.4-.7.1-.1.3-.1.5-.2.4-.1.7-.3 1.1-.4.1 0 .3-.1.4-.1.5-.1 1-.3 1.5-.4l1.8-.3h.6c.4 0 .8-.1 1.2-.1h1.8c.3 0 .6.1.9.1.3 0 .7.1 1 .1.2 0 .5.1.7.1.4.1.9.1 1.3.2.2 0 .5.1.7.2l1.5.3c.2.1.5.1.7.2.7.2 1.3.4 2 .6.1 0 .3.1.4.1 1.2.4 2.5.8 3.7 1.2.1 0 .2.1.3.1 1 .3 2 .7 3 1.1.2.1.4.2.7.2 1 .4 2 .7 3 1.1.9.4 1.9.7 2.8 1.1.2.1.4.1.5.2 1 .4 1.9.7 2.9 1.1.1 0 .2.1.3.1.1 0 .1 0 .2.1 1.2.4 2.4.8 3.5 1.2.1 0 .2.1.3.1.1 0 .2.1.3.1.8.2 1.6.5 2.5.7h.1c.7.2 1.5.3 2.2.5h.2c.2 0 .4.1.6.1.4.1.8.1 1.1.2h.3c.2 0 .4 0 .6.1.3 0 .7.1 1 .1H669.5c.1 0 .3 0 .4-.1.4 0 .7-.1 1.1-.2.1 0 .3 0 .4-.1.2 0 .4-.1.6-.1.1 0 .3-.1.4-.1.5-.1.9-.3 1.4-.4h.1c.6-.2 1.1-.4 1.6-.7.9-.4 1.7-.9 2.6-1.3.3-.1.6-.3.8-.4.6-.1 1.2-.4 1.8-.6z"/>
        <path fill="#FFF" d="M728.1 365.9l19.2-11.1-.3 74.6-19.1 11.2z"/>
        <path stroke="#001A64" stroke-linecap="round" stroke-linejoin="round" stroke-width="1.445" d="M728.1 365.9l19.2-11.1-.3 74.6-19.1 11.2z"/>
        <path fill="#FFF" d="M728.1 365.9l-.2 74.6-120.3-69.4c13.7-31.7 48 7.2 67.9-3 29.8-15.3 51.4-2.8 52.6-2.2"/>
        <path stroke="#001A64" stroke-linecap="round" stroke-linejoin="round" stroke-width="1.445" d="M728.1 365.9l-.2 74.6-120.3-69.4c13.7-31.7 48 7.2 67.9-3 29.8-15.3 51.4-2.8 52.6-2.2z"/>
        <path fill="#FFF" d="M670.5 389.4c.3-.1.7-.2 1-.2.5-.1 1-.3 1.6-.4.3-.1.7-.1 1-.2.5-.1 1-.2 1.4-.3.3-.1.7-.1 1-.2.5-.1.9-.2 1.4-.3.3-.1.7-.1 1-.2.4-.1.9-.1 1.3-.2.3 0 .7-.1 1-.1.4-.1.8-.1 1.2-.2.3 0 .6-.1 1-.1s.8-.1 1.2-.1c.2 0 .4 0 .6-.1.9-.1 1.8-.1 2.7-.2h.1c.9 0 1.8-.1 2.6-.1h2.5c.7 0 1.3.1 1.9.1h.6c.3 0 .7.1 1 .1.2 0 .4 0 .6.1.3 0 .7.1 1 .1.2 0 .3 0 .5.1.3 0 .5.1.8.1.2 0 .3.1.5.1.3 0 .5.1.8.1.1 0 .3.1.4.1.2 0 .3.1.5.1s.4.1.5.1c.2 0 .3.1.5.1s.3.1.5.1c.5.1 1 .3 1.4.4.1 0 .1 0 .2.1.4.1.8.2 1.1.4.1 0 .1 0 .2.1l.9.3h.1l.6.3s.1 0 .1.1c.2.1.3.2.5.2h.1c.1.1.2.1.3.1.1 0 .1.1.1.1L728 379s-.1 0-.1-.1c-.1 0-.2-.1-.3-.1h-.1c-.1-.1-.3-.1-.5-.2h-.1l-.6-.3h-.1l-.9-.3h-.1-.1c-.3-.1-.7-.2-1.1-.4h-.1-.1c-.4-.1-.9-.3-1.4-.4-.1 0-.3-.1-.4-.1-.2 0-.3-.1-.5-.1s-.4-.1-.5-.1c-.2 0-.3-.1-.5-.1h-.1c-.1 0-.2 0-.4-.1-.3 0-.5-.1-.8-.1-.2 0-.3-.1-.5-.1-.3 0-.5-.1-.8-.1h-.5c-.3 0-.6-.1-1-.1-.2 0-.4 0-.6-.1-.3 0-.7-.1-1-.1H714.2c-.6 0-1.2-.1-1.9-.1H709.7c-.8 0-1.7 0-2.6.1h-.1c-.9 0-1.8.1-2.7.2h-.6c-.4 0-.8.1-1.2.1-.3 0-.6.1-1 .1s-.8.1-1.2.2c-.3 0-.6.1-1 .1-.4.1-.9.1-1.3.2-.3.1-.7.1-1 .2-.5.1-.9.2-1.4.3-.3.1-.6.1-.8.2h-.1c-.5.1-.9.2-1.4.3-.3.1-.7.1-1 .2-.5.1-1 .2-1.6.4-.3.1-.6.1-1 .2-.6.1-1.2.3-1.8.5-.3.1-.6.1-.9.2-.9.2-1.8.5-2.7.8-.8.3-1.7.5-2.5.6-.8.2-1.5.3-2.3.4-.2 0-.3 0-.5.1-.4 0-.9.1-1.3.1-.5 0-.9.1-1.4.1h-2.5c-.5 0-.9-.1-1.4-.1-.3 0-.7-.1-1-.1-.5-.1-1-.2-1.5-.2-.3 0-.6-.1-.9-.1-.6-.1-1.3-.3-1.9-.4-.1 0-.3-.1-.4-.1-.8-.2-1.6-.4-2.4-.7-.3-.1-.6-.2-1-.3-.5-.2-1-.3-1.5-.5-.9-.3-1.7-.6-2.6-1-.2-.1-.4-.2-.6-.2l-2.1-.9c-.2-.1-.5-.2-.7-.3-1-.4-2-.9-2.9-1.4-.2-.1-.3-.2-.5-.2-1.9-.9-3.7-1.9-5.5-2.9l-.6-.3c-1.2-.6-2.3-1.3-3.5-1.9l-3.3-1.8c-.2-.1-.3-.2-.5-.3-.1 0-.1-.1-.2-.1-.4-.2-.9-.5-1.3-.7-.3-.2-.6-.3-.9-.5-.5-.3-1-.5-1.6-.8l-.6-.3-2.4-1.2c-.1 0-.2-.1-.3-.1-.2-.1-.5-.2-.7-.3-.3-.1-.6-.3-.9-.4-.1 0-.2-.1-.3-.1-.3-.1-.6-.2-.8-.3-.2-.1-.5-.2-.7-.3-.1 0-.1 0-.2-.1-.5-.2-1-.3-1.4-.5h-.1c-.1 0-.2 0-.2-.1-.3-.1-.7-.2-1-.3-.1 0-.3-.1-.4-.1-.1 0-.3-.1-.4-.1-.1 0-.3-.1-.4-.1-.4-.1-.8-.1-1.2-.2h-.1c-.4 0-.7-.1-1-.1h-1.1c-.3 0-.7 0-1 .1h-.2c-.4 0-.8.1-1.2.2h-.1c-.4.1-.8.2-1.2.4-.1 0-.3.1-.4.1h-.1c-.5.2-1.1.5-1.6.8l-19.2 11.1c.5-.3 1-.5 1.6-.8.1-.1.3-.1.5-.1.4-.1.8-.3 1.2-.4.5-.1.9-.2 1.4-.2h2c.5 0 1 .1 1.5.1h.1c.5.1 1 .2 1.6.3.1 0 .3.1.4.1.5.1.9.2 1.4.4.1 0 .2 0 .2.1.6.2 1.1.4 1.7.6.2.1.5.2.7.3.4.1.7.3 1.1.4.3.1.6.3.9.4.3.1.6.3 1 .4.8.4 1.6.7 2.4 1.2l.6.3c.5.3 1 .5 1.6.8.3.2.6.3.9.5.4.2.9.5 1.3.7l.6.3 3.3 1.8c1.1.6 2.3 1.3 3.5 1.9.2.1.4.2.5.3 0 0 .1 0 .1.1 1.8 1 3.6 1.9 5.5 2.9 0 0 .1 0 .1.1.1.1.2.1.3.2 1 .5 1.9.9 2.9 1.4.2.1.3.1.5.2.1 0 .2.1.2.1l2.1.9c.2.1.3.1.5.2h.1c.8.3 1.7.7 2.6 1 .5.2 1 .3 1.4.5l.9.3c.8.2 1.6.5 2.3.6.1 0 .3.1.4.1.6.1 1.2.3 1.8.4h.2c.3.1.6.1.9.1.4.1.8.2 1.3.2h.3c.3 0 .7.1 1 .1.4 0 .7.1 1.1.1h2.9c.5 0 .9 0 1.4-.1h.9c.1 0 .3 0 .4-.1.2 0 .3 0 .5-.1.8-.1 1.5-.2 2.3-.4.8-.2 1.7-.4 2.5-.6.9-.3 1.8-.5 2.7-.8.3-.1.6-.2.9-.2.5-.8 1.1-.9 1.7-1.1"/>
        <path stroke="#001A64" stroke-linecap="round" stroke-linejoin="round" stroke-width="1.445" d="M670.5 389.4c.3-.1.7-.2 1-.2.5-.1 1-.3 1.6-.4.3-.1.7-.1 1-.2.5-.1 1-.2 1.4-.3.3-.1.7-.1 1-.2.5-.1.9-.2 1.4-.3.3-.1.7-.1 1-.2.4-.1.9-.1 1.3-.2.3 0 .7-.1 1-.1.4-.1.8-.1 1.2-.2.3 0 .6-.1 1-.1s.8-.1 1.2-.1c.2 0 .4 0 .6-.1.9-.1 1.8-.1 2.7-.2h.1c.9 0 1.8-.1 2.6-.1h2.5c.7 0 1.3.1 1.9.1h.6c.3 0 .7.1 1 .1.2 0 .4 0 .6.1.3 0 .7.1 1 .1.2 0 .3 0 .5.1.3 0 .5.1.8.1.2 0 .3.1.5.1.3 0 .5.1.8.1.1 0 .3.1.4.1.2 0 .3.1.5.1s.4.1.5.1c.2 0 .3.1.5.1s.3.1.5.1c.5.1 1 .3 1.4.4.1 0 .1 0 .2.1.4.1.8.2 1.1.4.1 0 .1 0 .2.1l.9.3h.1l.6.3s.1 0 .1.1c.2.1.3.2.5.2h.1c.1.1.2.1.3.1.1 0 .1.1.1.1L728 379s-.1 0-.1-.1c-.1 0-.2-.1-.3-.1h-.1c-.1-.1-.3-.1-.5-.2h-.1l-.6-.3h-.1l-.9-.3h-.1-.1c-.3-.1-.7-.2-1.1-.4h-.1-.1c-.4-.1-.9-.3-1.4-.4-.1 0-.3-.1-.4-.1-.2 0-.3-.1-.5-.1s-.4-.1-.5-.1c-.2 0-.3-.1-.5-.1h-.1c-.1 0-.2 0-.4-.1-.3 0-.5-.1-.8-.1-.2 0-.3-.1-.5-.1-.3 0-.5-.1-.8-.1h-.5c-.3 0-.6-.1-1-.1-.2 0-.4 0-.6-.1-.3 0-.7-.1-1-.1H714.2c-.6 0-1.2-.1-1.9-.1H709.7c-.8 0-1.7 0-2.6.1h-.1c-.9 0-1.8.1-2.7.2h-.6c-.4 0-.8.1-1.2.1-.3 0-.6.1-1 .1s-.8.1-1.2.2c-.3 0-.6.1-1 .1-.4.1-.9.1-1.3.2-.3.1-.7.1-1 .2-.5.1-.9.2-1.4.3-.3.1-.6.1-.8.2h-.1c-.5.1-.9.2-1.4.3-.3.1-.7.1-1 .2-.5.1-1 .2-1.6.4-.3.1-.6.1-1 .2-.6.1-1.2.3-1.8.5-.3.1-.6.1-.9.2-.9.2-1.8.5-2.7.8-.8.3-1.7.5-2.5.6-.8.2-1.5.3-2.3.4-.2 0-.3 0-.5.1-.4 0-.9.1-1.3.1-.5 0-.9.1-1.4.1h-2.5c-.5 0-.9-.1-1.4-.1-.3 0-.7-.1-1-.1-.5-.1-1-.2-1.5-.2-.3 0-.6-.1-.9-.1-.6-.1-1.3-.3-1.9-.4-.1 0-.3-.1-.4-.1-.8-.2-1.6-.4-2.4-.7-.3-.1-.6-.2-1-.3-.5-.2-1-.3-1.5-.5-.9-.3-1.7-.6-2.6-1-.2-.1-.4-.2-.6-.2l-2.1-.9c-.2-.1-.5-.2-.7-.3-1-.4-2-.9-2.9-1.4-.2-.1-.3-.2-.5-.2-1.9-.9-3.7-1.9-5.5-2.9l-.6-.3c-1.2-.6-2.3-1.3-3.5-1.9l-3.3-1.8c-.2-.1-.3-.2-.5-.3-.1 0-.1-.1-.2-.1-.4-.2-.9-.5-1.3-.7-.3-.2-.6-.3-.9-.5-.5-.3-1-.5-1.6-.8l-.6-.3-2.4-1.2c-.1 0-.2-.1-.3-.1-.2-.1-.5-.2-.7-.3-.3-.1-.6-.3-.9-.4-.1 0-.2-.1-.3-.1-.3-.1-.6-.2-.8-.3-.2-.1-.5-.2-.7-.3-.1 0-.1 0-.2-.1-.5-.2-1-.3-1.4-.5h-.1c-.1 0-.2 0-.2-.1-.3-.1-.7-.2-1-.3-.1 0-.3-.1-.4-.1-.1 0-.3-.1-.4-.1-.1 0-.3-.1-.4-.1-.4-.1-.8-.1-1.2-.2h-.1c-.4 0-.7-.1-1-.1h-1.1c-.3 0-.7 0-1 .1h-.2c-.4 0-.8.1-1.2.2h-.1c-.4.1-.8.2-1.2.4-.1 0-.3.1-.4.1h-.1c-.5.2-1.1.5-1.6.8l-19.2 11.1c.5-.3 1-.5 1.6-.8.1-.1.3-.1.5-.1.4-.1.8-.3 1.2-.4.5-.1.9-.2 1.4-.2h2c.5 0 1 .1 1.5.1h.1c.5.1 1 .2 1.6.3.1 0 .3.1.4.1.5.1.9.2 1.4.4.1 0 .2 0 .2.1.6.2 1.1.4 1.7.6.2.1.5.2.7.3.4.1.7.3 1.1.4.3.1.6.3.9.4.3.1.6.3 1 .4.8.4 1.6.7 2.4 1.2l.6.3c.5.3 1 .5 1.6.8.3.2.6.3.9.5.4.2.9.5 1.3.7l.6.3 3.3 1.8c1.1.6 2.3 1.3 3.5 1.9.2.1.4.2.5.3 0 0 .1 0 .1.1 1.8 1 3.6 1.9 5.5 2.9 0 0 .1 0 .1.1.1.1.2.1.3.2 1 .5 1.9.9 2.9 1.4.2.1.3.1.5.2.1 0 .2.1.2.1l2.1.9c.2.1.3.1.5.2h.1c.8.3 1.7.7 2.6 1 .5.2 1 .3 1.4.5l.9.3c.8.2 1.6.5 2.3.6.1 0 .3.1.4.1.6.1 1.2.3 1.8.4h.2c.3.1.6.1.9.1.4.1.8.2 1.3.2h.3c.3 0 .7.1 1 .1.4 0 .7.1 1.1.1h2.9c.5 0 .9 0 1.4-.1h.9c.1 0 .3 0 .4-.1.2 0 .3 0 .5-.1.8-.1 1.5-.2 2.3-.4.8-.2 1.7-.4 2.5-.6.9-.3 1.8-.5 2.7-.8.3-.1.6-.2.9-.2.5-.8 1.1-.9 1.7-1.1z"/>
        <path fill="#FFF" d="M708.8 390.1L728 379l-.1 61.6-19.2 11.1z"/>
        <path stroke="#001A64" stroke-linecap="round" stroke-linejoin="round" stroke-width="1.445" d="M708.8 390.1L728 379l-.1 61.6-19.2 11.1z"/>
        <path fill="#FFF" d="M708.8 390.1l-.1 61.6-120.3-69.4c13.7-31.7 44.9 18.2 76.7 8.6 29.1-8.7 42.7-1.3 43.7-.8"/>
        <path stroke="#001A64" stroke-linecap="round" stroke-linejoin="round" stroke-width="1.445" d="M708.8 390.1l-.1 61.6-120.3-69.4c13.7-31.7 44.9 18.2 76.7 8.6 29.1-8.7 42.7-1.3 43.7-.8z"/>
        <path fill="#001A64" d="M671.9 380.8s7.9 1.3 23.1-8.8c15.3-10.1 33-.4 33-.4v7.4s-13.8-6-29.5-2.1c-18.1 4.4-26.6 3.9-26.6 3.9M690.2 358.4s4.4-2 19.6-12c15.3-10.1 37.3.8 37.3.8l-.1 7.4s-21.7-8.3-32.9-4.5c-17.7 6-23.9 8.3-23.9 8.3"/>
        <path fill="#06F" d="M928.9 440c2.7 1.5 2.7 4.1 0 5.6l-14.3 8.3c-2.7 1.5-7 1.5-9.7 0-2.7-1.5-2.7-4.1 0-5.6l14.3-8.3c2.7-1.5 7-1.5 9.7 0M631.9 469.7c-58.5-33.7-152.9-33.7-211 0-58.1 33.7-57.8 88.4.7 122.2 58.5 33.7 152.9 33.7 211 0 58-33.8 57.7-88.5-.7-122.2z"/>
        <g fill="#001A64" fill-rule="nonzero">
            <path d="M453.4 605.8c.6.2 1.2.4 1.9.6l13.8-8c-1.8.5-3.7 1-5.5 1.5l-10.2 5.9zM459.5 607.8c.6.2 1.3.4 1.9.6l22.8-13.2c-1.4.3-2.9.5-4.3.8l-20.4 11.8zM467.9 610c-.1 0-.3-.1-.4-.1.1.1.3.1.4.1z"/>
            <path d="M493.4 593.6l-27.5 15.9c.5.1 1.1.3 1.6.4.1 0 .3.1.4.1l29.2-17c-1.2.2-2.5.4-3.7.6zM472.5 611.1c.7.2 1.4.3 2.1.5l33.9-19.7c-1.1.1-2.2.2-3.4.3l-32.6 18.9zM479.5 612.6c.7.1 1.4.3 2.2.4l37.3-21.7c-1 0-2.1.1-3.1.1l-36.4 21.2zM525.7 591.2l-39.1 22.7c.8.1 1.5.2 2.3.4l39.7-23H527c-.4-.1-.8-.1-1.3-.1zM494.2 615l2.4.3 41.1-23.8c-.9 0-1.8-.1-2.7-.1L494.2 615zM502.1 615.9h.5-.5zM546.2 592c-.9-.1-1.7-.1-2.6-.2l-41.5 24.1c.2 0 .4 0 .5.1.7.1 1.3.1 2 .2l41.6-24.2zM510.4 616.6c.9.1 1.7.1 2.6.2l41.3-24-2.4-.3-41.5 24.1zM519.1 617c.9 0 1.8.1 2.7.1l40.2-23.3c-.8-.1-1.6-.2-2.3-.3L519.1 617zM528.4 617.1h2.9l38.1-22.1c-.7-.1-1.5-.3-2.2-.4l-38.8 22.5zM538.2 616.9c1 0 2.1-.1 3.1-.2l35.1-20.4c-.7-.2-1.4-.3-2.1-.4l-36.1 21zM552.2 615.9c-.2 0-.4 0-.6.1.2-.1.4-.1.6-.1z"/>
            <path d="M581.1 597.4l-32.3 18.8c.9-.1 1.9-.2 2.8-.2.2 0 .4 0 .6-.1l30.9-17.9c-.6-.2-1.3-.4-2-.6zM560.4 615c1.3-.2 2.5-.3 3.8-.5l25.4-14.7c-.6-.2-1.3-.4-1.9-.5L560.4 615zM573.5 612.9c1.5-.3 2.9-.6 4.4-.9l18-10.4c-.6-.2-1.2-.4-1.9-.6l-20.5 11.9zM588.9 609.4c1.9-.5 3.7-1 5.5-1.5l7.3-4.3-1.8-.6-11 6.4z"/>
        </g>
        <path fill="#FFF" fill-rule="nonzero" stroke="#001A64" stroke-linecap="round" stroke-linejoin="round" stroke-width="1.445" d="M554 565.6v.4c0 .1-.1.2-.1.3 0 .1-.1.3-.1.4-.1.2-.2.4-.2.6 0 0 0 .1-.1.1-.1.2-.2.4-.4.6 0 0 0 .1-.1.1-.1.2-.3.4-.4.6l-.1.1-.6.6c-.1.1-.3.2-.4.3-.1.1-.2.2-.4.3-.2.1-.3.2-.5.3-.2.1-.3.2-.5.3-.3.2-.6.3-.9.5-.1 0-.2.1-.2.1-.3.1-.6.3-.9.4h-.1c-.3.1-.6.2-1 .3-.2.1-.5.1-.7.2-.2 0-.3.1-.5.1-.2.1-.5.1-.7.2-.2 0-.3.1-.5.1-.5.1-1 .2-1.5.2h-.5c-.3 0-.6 0-.9.1H539.1c-.2 0-.4 0-.6-.1-.2 0-.4 0-.7-.1-.2 0-.4-.1-.6-.1-.2 0-.5-.1-.7-.1-.2 0-.4-.1-.6-.1-.3-.1-.6-.1-.8-.2-.2 0-.4-.1-.5-.1-.1 0-.2-.1-.3-.1-.3-.1-.5-.2-.8-.3-.1 0-.2-.1-.2-.1-.2-.1-.5-.2-.7-.3-.1-.1-.2-.1-.3-.2-.3-.2-.7-.3-1-.5-2.6-1.5-4-3.5-4-5.5v52c9 0 18-.5 26.9-1.4v-50.5c-.2.2-.2.3-.2.5z"/>
        <path fill="#FFF" fill-rule="nonzero" stroke="#001A64" stroke-linecap="round" stroke-linejoin="round" stroke-width="1.445" d="M550.5 559.6c-5.3-3-13.8-3-19 0-5.2 3-5.2 8 .1 11s13.8 3 19 0c5.2-3 5.2-7.9-.1-11z"/>
        <path fill="#FFF" fill-rule="nonzero" stroke="#001A64" stroke-linecap="round" stroke-linejoin="round" stroke-width="1.445" d="M558 521.5v-.4-.4c0-.5 0-1.1-.1-1.6v-.1-.2-.1-.3-.1-.2-.3-.5-.4-.2-.1c0-.4-.1-.8-.2-1.3v-.3c0-.1 0-.3-.1-.4v-.2-.1c0-.2-.1-.5-.1-.8v-.1c0-.1 0-.2-.1-.3 0-.1 0-.2-.1-.3v-.2c0-.1 0-.2-.1-.3v-.2c0-.1 0-.2-.1-.3 0-.1-.1-.2-.1-.4v-.1-.1-.1c-.2-.8-.3-1.3-.5-1.9v-.1c-.1-.3-.2-.7-.3-1.1 0-.1-.1-.3-.1-.4-.1-.2-.1-.4-.2-.7-.2-.5-.4-1.1-.6-1.5-.4-1-.9-2.2-1.5-3.3 0-.1-.1-.1-.1-.2s-.1-.1-.1-.2c-.2-.4-1-1.8-2-3.4-.1-.2-.4-.6-.7-1.1 0-.1-.1-.1-.1-.1l-.3-.3c-.1-.2-.3-.4-.4-.5-.1-.1-.1-.2-.2-.2l-.2-.2-.2-.2s-.1-.2-.3-.3l-.5-.5-.1-.1c-.1-.2-.3-.3-.5-.5s-.4-.3-.5-.5l-.1-.1c-.8-.7-1.4-1.2-2.1-1.5h-.1-.1c-.1-.1-.5-.3-1-.5-.1 0-.1-.1-.2-.1s-.2-.1-.2-.1c-.3-.1-.6-.2-.7-.3h-.1c-.1 0-.2 0-.3-.1h-.1c-.1 0-.2 0-.3-.1h-.1c-.1 0-.3 0-.4-.1h-1.1-.7c-.1 0-.2 0-.3.1h-.1c-.1 0-.2.1-.3.1-.5.1-.8.3-1 .4h-.1c-.1 0-.1 0-.2.1 0 0-.1 0-.1.1-.3.1-.5.2-.8.4-.2.1-.5.3-.9.6-.1.1-.2.1-.2.2-.2.1-.4.3-.6.5-.2.2-.4.3-.6.5l-.1.1-.1.1-.1.1-.1.1c-.2.1-.3.3-.5.5l-.5.5c-.3.3-.7.8-1 1.2-.5.7-1 1.3-1.4 1.9-.2.2-.3.5-.5.7-.3.5-.7 1-.9 1.5-.3.6-.8 1.4-1.1 2-.2.4-.4.9-.7 1.4-.3.6-.6 1.2-.8 1.8-.2.4-.4.9-.5 1.3 0 .1-.1.2-.1.3-.1.2-.2.5-.2.7-.1.2-.2.5-.2.7v.1c0 .1-.1.2-.1.3 0 .1-.1.2-.1.3-.1.2-.1.4-.2.6-.1.4-.2.9-.3 1.3-.2.7-.3 1.4-.5 1.9v.2c0 .2-.1.3-.1.5s-.1.4-.1.6c-.1.3-.1.6-.1.9 0 .1 0 .2-.1.4 0 .3-.1.7-.1 1.1v.3c0 .3-.1.6-.1.9v.6c0 .4-.1.8-.1 1.2v5.7c0 .6 0 1.2.1 2.1V530.1c0 .5 0 .9.1 1.3V557.4c0 .9.1 1.6.3 2.1v.1c0 .2.1.3.1.4v.1c0 .1.1.3.2.5v.1c0 .1.1.2.1.3 0 .1 0 .1.1.2v.1c0 .1.1.2.1.3v.1c.1.2.2.5.4.7.1.2.3.4.4.7.1.2.3.4.3.5v.1c.2.2.3.4.5.6.5.6 1 1 1.1 1.1.2.2.6.5.8.7.4.3.7.5 1.4.9.1.1.3.2.4.2 0 0 .1 0 .1.1 0 0 .1 0 .1.1.2.1.5.3.7.4.2.1.6.3 1.2.5 0 0 .1 0 .1.1h.1c.4.2 1.1.4 1.8.6.1 0 .2.1.3.1.5.1 1.1.3 1.8.4.1 0 .3 0 .4.1.4.1.8.1 1.2.2.5.1 1.4.2 2.6.2H543.1c.5 0 1.1-.1 1.7-.2h.2c.3-.1.8-.1 1.1-.2.6-.1 1.3-.3 2-.5h.1c.1 0 .1 0 .2-.1.1 0 .2-.1.3-.1.1 0 .1 0 .2-.1h.1c.1 0 .1 0 .2-.1h.1c.3-.1.7-.3.9-.4h.1c.1 0 .2-.1.3-.1.3-.2.6-.3.9-.5.2-.1.3-.2.4-.2 0 0 .1-.1.2-.1.1-.1.3-.2.4-.3.1-.1.5-.3.9-.6 0 0 .1 0 .1-.1.2-.1.5-.4.9-.7l.1-.1.7-.7.5-.5c.1-.1.1-.2.2-.3.1-.1.2-.3.3-.4.2-.2.3-.5.5-.8.2-.4.6-1 .9-1.9.1-.2.1-.4.2-.6v-.1c.1-.2.1-.4.2-.7.1-.5.2-1.1.2-1.6v-.7-1.6-2.2-2.7-3-3.2-3.2-3.1-2.7-2.3c0-.9 0-1.2.1-2 0-.3 0-.7.1-1.1v-.4-.4c.2-3.2.2-4.3.2-6.5-.6-1.2-.6-1.3-.6-1.4z"/>
        <path stroke="#001A64" stroke-linecap="round" stroke-linejoin="round" stroke-width="1.445" d="M631.9 469.7c58.5 33.7 58.8 88.4.7 122.2-58.1 33.7-152.5 33.7-211 0s-58.8-88.4-.7-122.2c58-33.8 152.5-33.8 211 0"/>
        <path fill="#FFF" d="M646.7 576.5v13.8l-14 8.1-.1 13.8-14 8.2v13.8l-14 8.1v13.8l-14 8.1V678l-14.1 8.1v13.8l-14 8.1v13.8l115.3-66.9v-82.6l.1-13.8z"/>
        <path stroke="#001A64" stroke-linecap="round" stroke-linejoin="round" stroke-width="1.445" d="M646.7 576.5v13.8l-14 8.1-.1 13.8-14 8.2v13.8l-14 8.1v13.8l-14 8.1V678l-14.1 8.1v13.8l-14 8.1v13.8l115.3-66.9v-82.6l.1-13.8z"/>
        <path fill="#FFF" d="M576.5 699.9l-14 8.1-31.2-17.9 14-8.2z"/>
        <path stroke="#001A64" stroke-linecap="round" stroke-linejoin="round" stroke-width="1.445" d="M576.5 699.9l-14 8.1-31.2-17.9 14-8.2z"/>
        <path fill="#FFF" d="M562.5 708v13.8l-31.2-18v-13.7z"/>
        <path stroke="#001A64" stroke-linecap="round" stroke-linejoin="round" stroke-width="1.445" d="M562.5 708v13.8l-31.2-18v-13.7z"/>
        <path fill="#FFF" d="M590.6 678l-14.1 8.1-31.1-18 14-8.1z"/>
        <path stroke="#001A64" stroke-linecap="round" stroke-linejoin="round" stroke-width="1.445" d="M590.6 678l-14.1 8.1-31.1-18 14-8.1z"/>
        <path fill="#FFF" d="M576.5 686.1v13.8l-31.2-18 .1-13.8z"/>
        <path stroke="#001A64" stroke-linecap="round" stroke-linejoin="round" stroke-width="1.445" d="M576.5 686.1v13.8l-31.2-18 .1-13.8z"/>
        <path fill="#FFF" d="M604.6 656.1l-14 8.1-31.2-18 14-8.1z"/>
        <path stroke="#001A64" stroke-linecap="round" stroke-linejoin="round" stroke-width="1.445" d="M604.6 656.1l-14 8.1-31.2-18 14-8.1z"/>
        <path fill="#FFF" d="M590.6 664.2V678l-31.2-18v-13.8z"/>
        <path stroke="#001A64" stroke-linecap="round" stroke-linejoin="round" stroke-width="1.445" d="M590.6 664.2V678l-31.2-18v-13.8z"/>
        <path fill="#FFF" d="M618.6 634.1l-14 8.2-31.2-18 14-8.1z"/>
        <path stroke="#001A64" stroke-linecap="round" stroke-linejoin="round" stroke-width="1.445" d="M618.6 634.1l-14 8.2-31.2-18 14-8.1z"/>
        <path fill="#FFF" d="M604.6 642.3v13.8l-31.2-18v-13.8zM632.6 612.2l-14 8.2-31.2-18 14.1-8.2z"/>
        <path stroke="#001A64" stroke-linecap="round" stroke-linejoin="round" stroke-width="1.445" d="M604.6 642.3v13.8l-31.2-18v-13.8zM632.6 612.2l-14 8.2-31.2-18 14.1-8.2z"/>
        <path fill="#FFF" d="M618.6 620.4v13.7l-31.2-17.9v-13.8z"/>
        <path stroke="#001A64" stroke-linecap="round" stroke-linejoin="round" stroke-width="1.445" d="M618.6 620.4v13.7l-31.2-17.9v-13.8z"/>
        <path fill="#FFF" d="M646.7 590.3l-14 8.1-31.2-17.9 14-8.2z"/>
        <path stroke="#001A64" stroke-linecap="round" stroke-linejoin="round" stroke-width="1.445" d="M646.7 590.3l-14 8.1-31.2-17.9 14-8.2z"/>
        <path fill="#FFF" d="M632.7 598.4l-.1 13.8-31.1-18v-13.7z"/>
        <path stroke="#001A64" stroke-linecap="round" stroke-linejoin="round" stroke-width="1.445" d="M632.7 598.4l-.1 13.8-31.1-18v-13.7z"/>
        <path fill="#FFF" d="M677.9 558.5l-31.2 18-31.2-17.1s8.6-3.9 17.6-8.8c7.4-4 14-9.5 14-9.5l30.8 17.4z"/>
        <path stroke="#001A64" stroke-linecap="round" stroke-linejoin="round" stroke-width="1.445" d="M677.9 558.5l-31.2 18-31.2-17.1s8.6-3.9 17.6-8.8c7.4-4 14-9.5 14-9.5l30.8 17.4z"/>
        <path fill="#FFF" d="M646.7 576.5v13.8l-31.2-18v-12.9z"/>
        <path stroke="#001A64" stroke-linecap="round" stroke-linejoin="round" stroke-width="1.445" d="M646.7 576.5v13.8l-31.2-18v-12.9z"/>
        <path fill="#001A64" d="M677.8 640.2s-.1 10.5-8.2 14.5c-8.1 4.1-10.4 11-19.7 16.4l28-16.2v-14.7h-.1z"/>
        <g fill="#FFF" fill-rule="nonzero" stroke="#001A64" stroke-linecap="round" stroke-linejoin="round" stroke-width="1.7">
            <path d="M417.1 703.7l-37.3 21.7c-12.3 7.2-32.3 7.2-44.7 0l-37.5-21.7 37.3-21.7c12.3-7.2 32.3-7.1 44.7 0l37.5 21.7z"/>
        </g>
        <g stroke="#001A64" stroke-linecap="round" stroke-linejoin="round" stroke-width="1.7">
            <path d="M372.6 666.9c-8.3-5-8-13 .6-17.8 8.7-4.8 22.5-4.7 30.8.3s8 13-.6 17.8c-8.7 4.8-22.5 4.7-30.8-.3z"/>
        </g>
        <g fill="#FFF">
            <path d="M408.2 673.9c-.1.1-.1.1-.1.2-.1.2-.3.3-.4.5 0 .1-.1.1-.1.2-.2.3-.5.5-.8.8l-.1.1c-.2.2-.4.4-.7.6-.2.2-.4.3-.6.5-.2.2-.5.3-.8.5-.2.1-.4.3-.6.4-.1.1-.2.1-.3.2-.6.4-1.3.7-2 1l-.6.3c-.6.2-1.1.4-1.7.6-.1 0-.3.1-.4.1-.1 0-.2 0-.2.1-.4.1-.7.2-1.1.3-.3.1-.6.2-.9.2l-1.2.3c-.2 0-.5.1-.7.1h-.1-.1c-.1 0-.2 0-.3.1-.8.1-1.5.2-2.3.3-.2 0-.5 0-.7.1-.5 0-.9.1-1.4.1h-2.9c-.3 0-.7 0-1-.1-.3 0-.6 0-.9-.1-.3 0-.7-.1-1-.1-.1 0-.3 0-.4-.1-.2 0-.3 0-.5-.1-.2 0-.3-.1-.5-.1-.4-.1-.8-.1-1.1-.2-.2 0-.4-.1-.5-.1-.1 0-.2-.1-.4-.1-.5-.1-.9-.2-1.3-.3-.2 0-.4-.1-.6-.1-.1 0-.1 0-.2-.1-.8-.2-1.6-.5-2.3-.8h-.1c-.3-.1-.7-.3-1-.4-.2-.1-.4-.2-.6-.2-.5-.3-1.1-.5-1.6-.8-2.3-1.3-3.9-2.8-5-4.4v12.2c0 3 2 6.1 6 8.4.5.3 1 .5 1.5.8.2.1.3.1.5.2.3.1.6.3.9.4h.1c.7.3 1.4.5 2.2.7.1 0 .1 0 .2.1.2 0 .3.1.5.1.4.1.8.2 1.3.3.1 0 .2.1.3.1.2 0 .3.1.5.1.4.1.7.1 1.1.2.1 0 .3.1.4.1.2 0 .3 0 .5.1.3 0 .7.1 1 .1.2 0 .3 0 .5.1h.5c.3 0 .7 0 1 .1h2.9c.5 0 .9-.1 1.4-.1h.8c.8-.1 1.5-.2 2.3-.3h.1c.2 0 .4-.1.7-.1.4-.1.8-.2 1.1-.2.3-.1.5-.1.8-.2.4-.1.7-.2 1-.3.1 0 .2 0 .2-.1.1 0 .2-.1.4-.1.5-.2 1.1-.4 1.6-.6.2-.1.4-.2.6-.2.7-.3 1.3-.6 1.9-1 .1 0 .2-.1.2-.1.2-.1.3-.2.5-.3.2-.2.5-.3.7-.5.2-.1.4-.3.6-.4.2-.2.4-.3.6-.5l.1-.1c.3-.2.5-.5.7-.7 0-.1.1-.1.1-.2.1-.2.3-.3.4-.5.1-.1.1-.1.1-.2.2-.2.3-.5.5-.7.1-.1.1-.2.2-.3 0 0 0-.1.1-.2l.3-.6c.1-.1.1-.2.2-.4v-.1c.1-.2.1-.4.2-.6 0-.1.1-.3.1-.4v-.1c0-.2.1-.4.1-.6v-.4-12.6c-.1-.3-.3-.1-.4.1"/>
        </g>
        <g stroke="#001A64" stroke-linecap="round" stroke-linejoin="round" stroke-width="1.7">
            <path d="M408.2 673.9c-.1.1-.1.1-.1.2-.1.2-.3.3-.4.5 0 .1-.1.1-.1.2-.2.3-.5.5-.8.8l-.1.1c-.2.2-.4.4-.7.6-.2.2-.4.3-.6.5-.2.2-.5.3-.8.5-.2.1-.4.3-.6.4-.1.1-.2.1-.3.2-.6.4-1.3.7-2 1l-.6.3c-.6.2-1.1.4-1.7.6-.1 0-.3.1-.4.1-.1 0-.2 0-.2.1-.4.1-.7.2-1.1.3-.3.1-.6.2-.9.2l-1.2.3c-.2 0-.5.1-.7.1h-.1-.1c-.1 0-.2 0-.3.1-.8.1-1.5.2-2.3.3-.2 0-.5 0-.7.1-.5 0-.9.1-1.4.1h-2.9c-.3 0-.7 0-1-.1-.3 0-.6 0-.9-.1-.3 0-.7-.1-1-.1-.1 0-.3 0-.4-.1-.2 0-.3 0-.5-.1-.2 0-.3-.1-.5-.1-.4-.1-.8-.1-1.1-.2-.2 0-.4-.1-.5-.1-.1 0-.2-.1-.4-.1-.5-.1-.9-.2-1.3-.3-.2 0-.4-.1-.6-.1-.1 0-.1 0-.2-.1-.8-.2-1.6-.5-2.3-.8h-.1c-.3-.1-.7-.3-1-.4-.2-.1-.4-.2-.6-.2-.5-.3-1.1-.5-1.6-.8-2.3-1.3-3.9-2.8-5-4.4v12.2c0 3 2 6.1 6 8.4.5.3 1 .5 1.5.8.2.1.3.1.5.2.3.1.6.3.9.4h.1c.7.3 1.4.5 2.2.7.1 0 .1 0 .2.1.2 0 .3.1.5.1.4.1.8.2 1.3.3.1 0 .2.1.3.1.2 0 .3.1.5.1.4.1.7.1 1.1.2.1 0 .3.1.4.1.2 0 .3 0 .5.1.3 0 .7.1 1 .1.2 0 .3 0 .5.1h.5c.3 0 .7 0 1 .1h2.9c.5 0 .9-.1 1.4-.1h.8c.8-.1 1.5-.2 2.3-.3h.1c.2 0 .4-.1.7-.1.4-.1.8-.2 1.1-.2.3-.1.5-.1.8-.2.4-.1.7-.2 1-.3.1 0 .2 0 .2-.1.1 0 .2-.1.4-.1.5-.2 1.1-.4 1.6-.6.2-.1.4-.2.6-.2.7-.3 1.3-.6 1.9-1 .1 0 .2-.1.2-.1.2-.1.3-.2.5-.3.2-.2.5-.3.7-.5.2-.1.4-.3.6-.4.2-.2.4-.3.6-.5l.1-.1c.3-.2.5-.5.7-.7 0-.1.1-.1.1-.2.1-.2.3-.3.4-.5.1-.1.1-.1.1-.2.2-.2.3-.5.5-.7.1-.1.1-.2.2-.3 0 0 0-.1.1-.2l.3-.6c.1-.1.1-.2.2-.4v-.1c.1-.2.1-.4.2-.6 0-.1.1-.3.1-.4v-.1c0-.2.1-.4.1-.6v-.4-12.6c-.1-.3-.3-.1-.4.1z"/>
        </g>
        <g stroke="#001A64" stroke-linecap="round" stroke-linejoin="round" stroke-width="1.7">
            <path d="M408.6 680.7c-.1.2-.3.4-.4.6-.1.1-.1.1-.1.2-.1.2-.3.3-.4.5 0 .1-.1.1-.1.2-.2.3-.5.5-.8.8l-.1.1c-.2.2-.4.4-.7.6-.2.2-.4.3-.6.5-.2.2-.5.3-.8.5-.2.1-.4.3-.6.4-.1.1-.2.1-.3.2-.7.4-1.3.7-2 1l-.6.3c-.6.2-1.1.4-1.7.6-.1 0-.3.1-.4.1-.1 0-.2 0-.2.1-.4.1-.7.2-1.1.3-.3.1-.6.2-.9.2l-1.2.3c-.2 0-.5.1-.7.2h-.1-.1c-.1 0-.2 0-.3.1-.8.1-1.5.2-2.3.3-.2 0-.5 0-.7.1-.5 0-.9.1-1.4.1h-2.9c-.3 0-.7 0-1-.1-.3 0-.6 0-.9-.1-.3 0-.7-.1-1-.1-.1 0-.3 0-.4-.1-.2 0-.3 0-.5-.1-.2 0-.3-.1-.5-.1-.4-.1-.8-.1-1.1-.2-.2 0-.4-.1-.5-.1-.1 0-.2-.1-.4-.1-.5-.1-.9-.2-1.3-.3-.2 0-.4-.1-.6-.1-.1 0-.1 0-.2-.1-.8-.2-1.6-.5-2.3-.8h-.1c-.3-.1-.7-.3-1-.4-.2-.1-.4-.2-.6-.2-.5-.3-1.1-.5-1.6-.8-2.3-1.3-3.9-2.8-5-4.4"/>
        </g>
        <g stroke="#001A64" stroke-linecap="round" stroke-linejoin="round" stroke-width="1.7">
            <path d="M410 658.9c0 .2 0 .5-.1.7 0 .2-.1.4-.1.6-.1.2-.1.4-.2.6-.1.2-.1.4-.2.5-.1.2-.2.5-.3.7-.1.2-.2.3-.3.5-.2.3-.3.5-.5.8-.2.2-.4.5-.6.7 0 .1-.1.1-.1.2l-.9.9c-.2.2-.4.4-.7.6-.2.2-.4.3-.6.5-.2.2-.5.4-.8.5-.3.2-.5.4-.8.5-.7.4-1.3.7-2 1l-.6.3c-.6.2-1.1.4-1.7.6-.2.1-.4.1-.6.2-.4.1-.7.2-1.1.3-.3.1-.6.2-.9.2l-1.2.3c-.3.1-.5.1-.8.2-.8.1-1.6.3-2.5.3-.3 0-.5 0-.8.1-.5 0-1 .1-1.5.1H387c-.4 0-.7 0-1.1-.1-.3 0-.7-.1-1-.1-.4 0-.7-.1-1.1-.1-.3 0-.7-.1-1-.1-.4-.1-.8-.1-1.1-.2-.3-.1-.6-.1-.9-.2-.5-.1-.9-.2-1.3-.3-.2-.1-.5-.1-.7-.2-.8-.2-1.6-.5-2.3-.8-.4-.1-.7-.3-1.1-.5-.2-.1-.4-.2-.6-.2-.5-.3-1.1-.5-1.6-.8-4.3-2.5-6.4-5.7-6.4-9l-.1 10.7c0 3.2 2.1 6.5 6.4 9 .5.3 1 .6 1.6.8.2.1.4.2.6.2.3.1.6.3 1 .4h.1c.8.3 1.5.6 2.3.8.1 0 .1 0 .2.1.2.1.4.1.6.1.4.1.9.2 1.3.3.1 0 .2.1.4.1s.4.1.5.1c.4.1.8.1 1.1.2.2 0 .3.1.5.1s.3 0 .5.1c.4 0 .7.1 1.1.1.2 0 .3 0 .5.1h.5c.4 0 .7 0 1.1.1h3.1c.5 0 1-.1 1.5-.1h.8c.8-.1 1.7-.2 2.5-.3h.1c.2 0 .5-.1.7-.1l1.2-.3c.3-.1.6-.2.9-.2.4-.1.8-.2 1.1-.3.1 0 .2 0 .2-.1.1 0 .3-.1.4-.1.6-.2 1.2-.4 1.7-.6l.6-.3c.7-.3 1.4-.7 2-1 .1-.1.2-.1.3-.2.2-.1.4-.2.6-.4.3-.2.5-.3.8-.5.2-.2.4-.3.6-.5.2-.2.5-.4.7-.6l.1-.1.8-.8c0-.1.1-.1.1-.2.1-.2.3-.3.4-.5.1-.1.1-.1.1-.2.2-.3.4-.5.5-.8.1-.1.2-.2.2-.3 0-.1 0-.1.1-.2.1-.2.2-.5.3-.7.1-.1.1-.3.2-.4v-.1c.1-.2.1-.4.2-.6 0-.1.1-.3.1-.4v-.1c0-.2.1-.5.1-.7 0-.1 0-.3.1-.4v-.2l.1-10.7c-.2-.1-.2.2-.2.4z"/>
        </g>
        <g fill="#FFF">
            <path d="M402.9 693.9c-.1 0-.2.1-.2.1-.6.4-1.3.7-1.9 1-.2.1-.4.2-.6.2-.5.2-1.1.4-1.6.6-.1 0-.2.1-.4.1-.1 0-.2 0-.2.1-.3.1-.7.2-1 .3-.3.1-.5.1-.8.2-.4.1-.7.2-1.1.2-.2 0-.4.1-.7.1h-.1c-.8.1-1.5.2-2.3.3h-.8c-.5 0-.9.1-1.4.1H387c-.3 0-.7 0-1-.1h-.5c-.2 0-.3 0-.5-.1-.3 0-.7-.1-1-.1-.2 0-.3 0-.5-.1-.1 0-.3-.1-.4-.1-.4-.1-.7-.1-1.1-.2-.2 0-.3-.1-.5-.1-.1 0-.2-.1-.3-.1-.4-.1-.8-.2-1.3-.3-.2 0-.4-.1-.5-.1-.1 0-.1 0-.2-.1-.7-.2-1.5-.5-2.2-.7h-.1c-.3-.1-.6-.3-.9-.4-.2-.1-.4-.1-.5-.2-.5-.2-1-.5-1.5-.8-.1-.1-.2-.1-.3-.2v1.4c0 2.2 1.4 4.4 4.3 6 .3.2.7.4 1.1.6.1.1.3.1.4.2.2.1.4.2.7.3h.1c.5.2 1 .4 1.6.5h.1c.1 0 .3.1.4.1.3.1.6.2.9.2.1 0 .2 0 .2.1.1 0 .2 0 .4.1.3 0 .5.1.8.1.1 0 .2 0 .3.1h.3c.2 0 .5.1.7.1h3.4c.3 0 .7 0 1-.1h.5c.6-.1 1.1-.1 1.7-.2h.1c.2 0 .3-.1.5-.1.3-.1.5-.1.8-.2.2 0 .4-.1.6-.2.3-.1.5-.1.8-.2h.2c.1 0 .2-.1.3-.1.4-.1.8-.3 1.2-.4.1-.1.3-.1.4-.2.5-.2.9-.4 1.4-.7.1 0 .1-.1.2-.1.1-.1.2-.2.4-.3.2-.1.4-.2.5-.4.1-.1.3-.2.4-.3.2-.1.3-.2.5-.4 0 0 .1 0 .1-.1.2-.2.4-.3.5-.5l.1-.1.3-.3.1-.1c.1-.2.2-.3.3-.5 0-.1.1-.1.1-.2 0 0 0-.1.1-.1.1-.2.1-.3.2-.5 0-.1.1-.2.1-.3v-.1c.1-.1.1-.3.1-.4 0-.1.1-.2.1-.3v-.1c0-.2 0-.3.1-.5v-.3-.1l-.2-1"/>
        </g>
        <g stroke="#001A64" stroke-linecap="round" stroke-linejoin="round" stroke-width="1.7">
            <path d="M402.9 693.9c-.1 0-.2.1-.2.1-.6.4-1.3.7-1.9 1-.2.1-.4.2-.6.2-.5.2-1.1.4-1.6.6-.1 0-.2.1-.4.1-.1 0-.2 0-.2.1-.3.1-.7.2-1 .3-.3.1-.5.1-.8.2-.4.1-.7.2-1.1.2-.2 0-.4.1-.7.1h-.1c-.8.1-1.5.2-2.3.3h-.8c-.5 0-.9.1-1.4.1H387c-.3 0-.7 0-1-.1h-.5c-.2 0-.3 0-.5-.1-.3 0-.7-.1-1-.1-.2 0-.3 0-.5-.1-.1 0-.3-.1-.4-.1-.4-.1-.7-.1-1.1-.2-.2 0-.3-.1-.5-.1-.1 0-.2-.1-.3-.1-.4-.1-.8-.2-1.3-.3-.2 0-.4-.1-.5-.1-.1 0-.1 0-.2-.1-.7-.2-1.5-.5-2.2-.7h-.1c-.3-.1-.6-.3-.9-.4-.2-.1-.4-.1-.5-.2-.5-.2-1-.5-1.5-.8-.1-.1-.2-.1-.3-.2v1.4c0 2.2 1.4 4.4 4.3 6 .3.2.7.4 1.1.6.1.1.3.1.4.2.2.1.4.2.7.3h.1c.5.2 1 .4 1.6.5h.1c.1 0 .3.1.4.1.3.1.6.2.9.2.1 0 .2 0 .2.1.1 0 .2 0 .4.1.3 0 .5.1.8.1.1 0 .2 0 .3.1h.3c.2 0 .5.1.7.1h3.4c.3 0 .7 0 1-.1h.5c.6-.1 1.1-.1 1.7-.2h.1c.2 0 .3-.1.5-.1.3-.1.5-.1.8-.2.2 0 .4-.1.6-.2.3-.1.5-.1.8-.2h.2c.1 0 .2-.1.3-.1.4-.1.8-.3 1.2-.4.1-.1.3-.1.4-.2.5-.2.9-.4 1.4-.7.1 0 .1-.1.2-.1.1-.1.2-.2.4-.3.2-.1.4-.2.5-.4.1-.1.3-.2.4-.3.2-.1.3-.2.5-.4 0 0 .1 0 .1-.1.2-.2.4-.3.5-.5l.1-.1.3-.3.1-.1c.1-.2.2-.3.3-.5 0-.1.1-.1.1-.2 0 0 0-.1.1-.1.1-.2.1-.3.2-.5 0-.1.1-.2.1-.3v-.1c.1-.1.1-.3.1-.4 0-.1.1-.2.1-.3v-.1c0-.2 0-.3.1-.5v-.3-.1l-.2-1z"/>
        </g>
        <g fill="#001A64">
            <path d="M403.1 660.8c-.8 1.2-2.1 2.4-3.9 3.4-6.3 3.5-16.4 3.4-22.4-.2-1.5-.9-2.7-2-3.4-3.1.8-1.2 2.1-2.4 3.9-3.4 6.3-3.5 16.4-3.4 22.4.2 1.6.9 2.7 2 3.4 3.1"/>
        </g>
        <g fill="#FFF" fill-rule="nonzero" stroke="#001A64" stroke-linecap="round" stroke-linejoin="round" stroke-width="1.7">
            <path d="M387.1 558.3c-19.4.6-35.5 16.1-36.7 35.5-.8 12.1 4.2 23.1 12.4 30.6 6 5.5 9.6 13.1 9.6 21.3v12c0 2.3 1.4 4.6 4.4 6.4 6 3.6 16 3.7 22.3.2 3.2-1.8 4.8-4.2 4.9-6.6v-12c0-8 3.3-15.7 9.3-21 7.9-6.9 12.8-17.1 12.8-28.4.1-21.4-17.5-38.6-39-38z"/>
        </g>
        <g stroke="#001A64" stroke-linecap="round" stroke-linejoin="round" stroke-width="1.7">
            <path d="M376.9 664c-6-3.6-5.8-9.4.5-12.9s16.3-3.4 22.3.2 5.8 9.4-.5 12.9-16.3 3.4-22.3-.2z"/>
        </g>
        <g stroke="#001A64" stroke-linecap="round" stroke-linejoin="round" stroke-width="1.7">
            <path d="M386.6 658.4l17-71.5M390.9 640.3l-19.1-48.4"/>
        </g>
        <g fill="#001A64">
            <path d="M378.9 702.5s6.7 2.4 8.4 6.6c1.7 4.2.5 10.9-2.4 12.5l-.1.8 32.2-18.7-14.2-8.3c.1 0 .5 12.7-23.9 7.1"/>
        </g>
        <g stroke="#001A64" stroke-linecap="round" stroke-linejoin="round" stroke-width="1.445">
            <path d="M129.6 485.8l-68.1 39.4"/>
        </g>
        <g stroke="#001A64" stroke-linecap="round" stroke-linejoin="round" stroke-width="1.445">
            <path d="M39.7 514.6V399.4l81.5-47v107"/>
        </g>
        <g stroke="#001A64" stroke-linecap="round" stroke-linejoin="round" stroke-width="1.445">
            <path d="M54.2 498.1l68.2-39.4"/>
        </g>
        <g stroke="#001A64" stroke-linecap="round" stroke-linejoin="round" stroke-width="1.445">
            <path d="M183.2 395.9l-49.5 28.6v-79.3l49.5-28.6z"/>
        </g>
        <g stroke="#001A64" stroke-linecap="round" stroke-linejoin="round" stroke-width="1.445">
            <path d="M152.4 358.7l-12.3 7.1V352c0-1.6 1-3.5 2.2-4.2l12.3-7.1v13.8c0 1.6-1 3.5-2.2 4.2z"/>
        </g>
        <g stroke="#001A64" stroke-linecap="round" stroke-linejoin="round" stroke-width="1.445">
            <path d="M140.1 373.6l36.5-21"/>
        </g>
        <g stroke="#001A64" stroke-linecap="round" stroke-linejoin="round" stroke-width="1.445">
            <path d="M140.1 381.5l36.5-21"/>
        </g>
        <g stroke="#001A64" stroke-linecap="round" stroke-linejoin="round" stroke-width="1.445">
            <path d="M140.1 389.4l36.5-21"/>
        </g>
        <g stroke="#001A64" stroke-linecap="round" stroke-linejoin="round" stroke-width="1.445">
            <path d="M140.1 397.3l36.5-21.1"/>
        </g>
        <g stroke="#001A64" stroke-linecap="round" stroke-linejoin="round" stroke-width="1.445">
            <path d="M140.1 405.1l18.3-10.5"/>
        </g>
        <g stroke="#001A64" stroke-linecap="round" stroke-linejoin="round" stroke-width="1.445">
            <path d="M63.2 418L98 398"/>
        </g>
        <g stroke="#001A64" stroke-linecap="round" stroke-linejoin="round" stroke-width="1.445">
            <path d="M55.7 430.2l49.8-28.7"/>
        </g>
        <g stroke="#001A64" stroke-linecap="round" stroke-linejoin="round" stroke-width="1.445">
            <path d="M174.4 346l-12.3 7.1v-13.8c0-1.6 1-3.5 2.2-4.3l12.3-7.1v13.8c0 1.7-1 3.6-2.2 4.3z"/>
        </g>
        <g fill="#94E0FF">
            <path d="M103.3 446.4L58 472.5c-1.2.7-2.3 0-2.3-1.7v-24.4c0-1.7 1-3.6 2.3-4.3l45.3-26.1c1.2-.7 2.3 0 2.3 1.7V442c-.1 1.7-1.1 3.6-2.3 4.4z"/>
        </g>
        <g stroke="#001A64" stroke-linecap="round" stroke-linejoin="round" stroke-width="1.445">
            <path d="M100.8 429.4v-6.3l-5.5 3.2"/>
        </g>
        <g stroke="#001A64" stroke-linecap="round" stroke-linejoin="round" stroke-width="1.445">
            <path d="M60 465.5l7.7-14.3c2.4-4.6 6.7-7.1 9.3-5.6l1.3.7c2.4 1.4 6.1-.4 8.9-4.2l13.7-19"/>
        </g>
        <g stroke="#001A64" stroke-linecap="round" stroke-linejoin="round" stroke-width="1.445">
            <path d="M55.7 485.6l49.8-28.7"/>
        </g>
        <g stroke="#001A64" stroke-linecap="round" stroke-linejoin="round" stroke-width="1.445">
            <path d="M54.2 498.1c8 0 14.5 6.5 14.5 14.5s-6.5 14.5-14.5 14.5-14.5-6.5-14.5-14.5"/>
        </g>
        <g stroke="#001A64" stroke-linecap="round" stroke-linejoin="round" stroke-width="1.445">
            <path d="M122.4 458.7c8 0 14.5 6.5 14.5 14.5 0 5.5-3 10.2-7.5 12.7"/>
        </g>
        <g fill="#001A64" fill-rule="nonzero">
            <path d="M140.1 357.3s4.5-5 6.6-2.4c2.2 2.6 2.7 4.1 6.6 2.9l-13.3 8v-8.5h.1z"/>
        </g>
        <g stroke="#001A64" stroke-linecap="round" stroke-linejoin="round" stroke-width="1.445">
            <path d="M154.7 601.8c1.8.4 3.6 1.2 5.5 2.3"/>
        </g>
        <g stroke="#001A64" stroke-linecap="round" stroke-linejoin="round" stroke-width="1.445">
            <path d="M140 615.8c0-9 4.4-14.2 10.8-14.4"/>
        </g>
        <g stroke="#001A64" stroke-linecap="round" stroke-linejoin="round" stroke-width="1.445">
            <path d="M138.2 588l8.9-5.2"/>
        </g>
        <g stroke="#001A64" stroke-linecap="round" stroke-linejoin="round" stroke-width="1.445">
            <path d="M147 582.9c5.8-3.3 13.8-2.9 22.6 2.2 17.6 10.2 31.9 34.9 31.9 55.3 0 10.1-3.5 17.2-9.2 20.6"/>
        </g>
        <g stroke="#001A64" stroke-linecap="round" stroke-linejoin="round" stroke-width="1.445">
            <path d="M182.9 666.5l9.5-5.5"/>
        </g>
        <g fill="#FFF" stroke="#001A64" stroke-linecap="round" stroke-linejoin="round" stroke-width="1.445">
            <path d="M198.2 652.1l35.9 35.9c2.2 2.2 2.2 5.8 0 8s-5.8 2.2-8 0l-35.9-35.9c-.1 0 1-6.1 8-8z"/>
        </g>
        <g stroke="#001A64" stroke-linecap="round" stroke-linejoin="round" stroke-width="1.445" transform="translate(114 575)">
            <ellipse cx="46.175" cy="52.388" rx="26.099" ry="45.199" transform="rotate(-30.001 46.175 52.388)"/>
        </g>
        <g stroke="#001A64" stroke-linecap="round" stroke-linejoin="round" stroke-width="1.445" transform="translate(121 583)">
            <ellipse cx="39.175" cy="44.388" rx="22.1" ry="38.299" transform="rotate(-30.001 39.175 44.388)"/>
        </g>
    </g>
</svg>
