<svg xmlns="http://www.w3.org/2000/svg" width="1072" height="870" viewBox="0 0 1072 870">
    <g fill="none" fill-rule="evenodd">
        <g fill="#001A64" fill-rule="nonzero">
            <path d="M419.8 625.7c-3.4 2.3-6.6 4.7-9.5 7.2l37-21.5c-4.4 1.7-8.6 3.6-12.6 5.7l-14.9 8.6zM400.9 642.1c-.9 1.1-1.8 2.1-2.6 3.2l70.6-41c-1.9.5-3.7 1-5.5 1.5l-62.5 36.3zM393.9 651.7c-.5.8-1 1.7-1.4 2.5l91.7-53.2c-1.4.3-2.9.5-4.3.8l-86 49.9zM389.9 659.5c-.3.7-.6 1.4-.9 2.2L497 599c-1.2.2-2.5.3-3.7.5l-103.4 60zM387.5 666.3c-.2.6-.3 1.3-.5 2l121.4-70.4c-1.1.1-2.2.2-3.4.3l-117.5 68.1zM386.3 672.5c-.1.6-.1 1.2-.2 1.8l132.8-77c-1 0-2.1.1-3.1.1l-129.5 75.1zM525.6 597.1l-139.8 81.1v1.7l142.6-82.8h-2.8zM386.1 683.6c.1.5.1 1 .2 1.6l151.3-87.8c-.9 0-1.8-.1-2.7-.1l-148.8 86.3zM386.8 688.6l.3 1.5L546 597.9c-.9-.1-1.7-.1-2.6-.2l-156.6 90.9zM388.1 693.4c.1.5.3.9.4 1.4l165.7-96.2c-.8-.1-1.6-.2-2.5-.2l-163.6 95zM389.7 698c.2.4.4.9.6 1.3L562 599.7c-.8-.1-1.5-.2-2.3-.3l-170 98.6zM391.7 702.3c.2.4.4.9.7 1.3l176.9-102.7c-.7-.1-1.4-.3-2.2-.4L391.7 702.3zM394 706.4c.2.4.5.8.8 1.2l181.6-105.4c-.7-.2-1.4-.3-2.1-.5L394 706.4zM396.6 710.4l.9 1.2L583 603.9c-.7-.2-1.3-.3-2-.5l-184.4 107zM399.5 714.2c.3.4.6.8.9 1.1l189.1-109.7c-.6-.2-1.3-.4-1.9-.6L399.5 714.2zM402.6 717.8c.3.4.7.7 1 1.1l192-111.4-1.8-.6-191.2 110.9zM406.1 721.3c.4.3.7.7 1.1 1l194.5-112.9-1.8-.6-193.8 112.5zM409.7 724.7c.4.3.8.7 1.2 1l196.5-114c-.6-.2-1.1-.5-1.7-.7l-196 113.7zM413.6 727.9c.4.3.8.6 1.2 1l198-114.9c-.5-.2-1.1-.5-1.6-.7L413.6 727.9zM417.8 731c.4.3.9.6 1.3.9l199-115.5c-.5-.3-1-.5-1.6-.8L417.8 731zM422.1 733.9c.5.3.9.6 1.4.9L623.1 619c-.5-.3-1-.5-1.5-.8L422.1 733.9zM626.4 620.8l-199.7 116 .9.6c.2.1.3.2.5.3l199.8-115.9c-.3-.2-.6-.3-.8-.5-.3-.2-.5-.3-.7-.5zM431.5 739.4c.5.3 1 .5 1.5.8l199.5-115.8c-.5-.3-.9-.6-1.4-.9L431.5 739.4zM436.5 742c.5.3 1 .5 1.6.8l198.8-115.3c-.4-.3-.9-.6-1.3-.9L436.5 742zM441.8 744.5c.5.2 1.1.5 1.6.7L641 630.5c-.4-.3-.8-.6-1.2-1l-198 115zM447.2 746.8c.6.2 1.1.5 1.7.7l196-113.7c-.4-.3-.8-.7-1.2-1l-196.5 114zM452.9 748.9l1.8.6L648.5 637c-.4-.3-.7-.7-1.1-1L452.9 748.9zM458.9 751l1.8.6 191.3-111c-.3-.4-.7-.7-1-1.1L458.9 751zM465.1 752.9c.6.2 1.3.4 1.9.6l188.2-109.2c-.3-.4-.6-.8-.9-1.1L465.1 752.9zM471.5 754.6c.7.2 1.3.3 2 .5L658 648l-.9-1.2-185.6 107.8zM478.2 756.2c.7.2 1.4.3 2.1.5L660.7 652c-.2-.4-.5-.8-.8-1.2L478.2 756.2zM485.3 757.6c.7.1 1.4.3 2.2.4L663 656.1c-.2-.4-.4-.9-.7-1.3l-177 102.8zM492.6 758.8c.8.1 1.5.2 2.3.3l170-98.7c-.2-.4-.4-.9-.6-1.3l-171.7 99.7zM500.3 759.8l2.4.3L666.6 665c-.1-.5-.3-.9-.4-1.4l-165.9 96.2zM508.4 760.6c.9.1 1.7.1 2.6.2l156.8-91-.3-1.5-159.1 92.3zM517 761.1c.9 0 1.8.1 2.7.1l148.9-86.4c-.1-.5-.1-1-.2-1.6L517 761.1zM668.8 678.5L526 761.3h2.9l139.9-81.2v-1.6zM535.6 761.2c1 0 2.1-.1 3.1-.1l129.7-75.2c.1-.6.1-1.2.2-1.8l-133 77.1zM546 760.7l3.3-.3 117.8-68.3c.2-.6.3-1.3.5-1.9L546 760.7zM557.4 759.5c1.2-.2 2.5-.3 3.7-.5l103.7-60.2c.3-.7.6-1.4.8-2.2l-108.2 62.9zM570.3 757.6c1.4-.3 2.8-.5 4.3-.8l86.4-50.1c.5-.8 1-1.7 1.4-2.5l-92.1 53.4zM585.5 754.2c1.8-.5 3.7-1 5.5-1.5l63-36.6c.9-1 1.8-2.1 2.6-3.2l-71.1 41.3zM606.8 747.3c4.1-1.6 8.1-3.4 11.9-5.3l17.1-9.9c3.2-2.2 6.2-4.5 8.9-6.8l-37.9 22z"/>
        </g>
        <g fill="#001A64" fill-rule="nonzero">
            <path d="M299.4 662.9l-75.7 44 1.4.8 77.3-45c-.4 0-.8-.1-1.2-.1-.6.2-1.2.2-1.8.3zM228.4 709.7l1.5.9 78.2-45.5-1.5-.9zM233.2 712.5l1.4.8 78.2-45.5-1.4-.8zM237.9 715.2l1.5.9 78.2-45.5-1.5-.9zM242.7 718l1.4.8 78.2-45.5-1.4-.8zM247.4 720.7l1.5.9 78.2-45.5-1.5-.9zM252.2 723.5l1.4.8 78.2-45.5-1.4-.8zM257 726.2l1.4.9 78.2-45.5-1.5-.9zM261.7 729l1.5.8 78.1-45.5-1.4-.8zM266.5 731.7l1.4.9 78.2-45.5-1.4-.9zM271.2 734.5l1.5.8 78.2-45.5-1.5-.8zM276 737.2l1.4.8 78.2-45.4-1.4-.9zM280.7 740l1.5.8 78.2-45.5-1.5-.8zM362.8 697.8l-77.3 45 1.4.8 75.7-44c.3-.7.3-1.3.2-1.8z"/>
        </g>
        <g fill="#001A64" fill-rule="nonzero">
            <path d="M355.9 538h-.3c-.3.1-.7.1-1 .2-.1 0-.2 0-.3.1l-.9.3c-.1 0-.2.1-.3.1l-38.8 22.6c-.4.5-.8 1-1.1 1.5-.1.3-.2.5-.3.8 0 .1 0 .1-.1.2l44.6-26h-.3c-.5.1-.9.1-1.2.2zM313 567.5c.1.3.3.6.5.9.1.1.2.2.2.3l51.8-30.2c-.7-.2-1.4-.3-2.1-.4L313 567.5zM369.5 540l-53.1 31c.1.1.2.1.3.2l1.1.7 53.1-31-1.1-.7c-.1-.1-.2-.1-.3-.2zM321.1 573.7l1.5.9 53.1-31-1.4-.9zM325.9 576.5l1.4.8 53.1-31-1.4-.8zM330.6 579.2l1.5.9 53.1-31-1.5-.9zM335.4 582l1.4.8 53.1-31-1.4-.8zM340.1 584.7l1.4.9 53.1-31-1.4-.9zM344.8 587.5l1.5.8 53.1-31-1.5-.8zM402.7 559.2l-53.1 31 .1.1h.1c.3.2.7.4 1 .5.1.1.2.1.3.1L404 560c-.4-.3-.8-.6-1.2-.8h-.1zM355.4 592.3c.1 0 .2 0 .3.1.3.1.6.1.9.1.1 0 .3 0 .4.1.2 0 .4 0 .7.1l49.1-28.7c-.1-.5-.3-.9-.6-1.3l-50.8 29.6zM402.9 571.2c1.5-.9 2.5-1.9 3.2-2.9l-41 23.9c1.8-.4 3.5-1 5-1.9l32.8-19.1z"/>
        </g>
        <g stroke="#001A64" stroke-linecap="round" stroke-linejoin="round" stroke-width="1.445">
            <path stroke-dasharray="6.118,7.649" d="M785.2 271.9l88.1-50.9c7.9-4.5 17.5-4.6 25.4-.2l67.1 37.6c17.4 9.8 17.6 34.7.3 44.7L882 351.7c-8 4.6-17.8 4.6-25.7 0l-75-43.3c-8-4.6-17.8-4.6-25.7 0l-155.1 89.5M709 557.2l78.6 45.4c13.7 7.9 30.6 7.9 44.3 0l106.9-61.7c13.7-7.9 30.6-7.9 44.3 0l78.6 45.4"/>
            <path d="M1071.3 106.7L473.6 451.8c-15.8 9.1-15.8 31.9 0 41l17.5 10.1c20.9 12.1 20.9 42.2 0 54.3l-90.8 52.4a57.362 57.362 0 0 1-57.5 0l-49.7-28.7c-13.4-7.7-29.8-7.7-43.2 0L15.4 716.3c-19.5 11.3-19.5 39.4 0 50.7L143 840.6c12.7 7.3 28.5-1.8 28.5-16.5v-49.7"/>
        </g>
        <g fill="#001A64" fill-rule="nonzero">
            <path d="M293.8 840.3l1.4.8 47.9-27.9c-3.4.9-6.6 2.2-9.4 3.8l-39.9 23.3zM298.6 843l1.4.8 55.7-32.4c-1.1 0-2.1.1-3.2.2L298.6 843zM303.3 845.7l1.4.8 59.7-34.8c-.8-.1-1.6-.2-2.5-.2l-58.6 34.2zM308 848.5l1.4.8 62.1-36.2c-.7-.2-1.3-.3-2-.5L308 848.5zM312.8 851.2l1.4.8 63.3-36.9c-.6-.2-1.1-.5-1.7-.7l-63 36.8zM381.1 816.9l-63.6 37 1.4.8 63.6-37.1-1.1-.6s-.2 0-.3-.1zM322.2 856.7l1.5.8 63.6-37-1.4-.9zM327 859.4l1.4.8 63.6-37-1.4-.8zM331.7 862.2l1.5.8 63.6-37.1-1.5-.8zM336.6 864.8c.5.3 1.1.5 1.7.7l63.3-36.8-1.4-.8-63.6 36.9zM342.3 867c.6.2 1.3.4 2 .5l62-36.1-1.4-.8-62.6 36.4zM349.2 868.5c.8.1 1.5.2 2.3.3l59.5-34.7-1.4-.8-60.4 35.2zM357.5 869.1c1 0 2 0 3-.1l55.3-32.2-1.4-.8-56.9 33.1zM368.7 868.1c1.7-.3 3.4-.7 5-1.2l46.8-27.2-1.4-.8-50.4 29.2z"/>
        </g>
        <path fill="#FFF" d="M383.8 531V532s0 .1-.1.1v.1l-.1.1s0 .1-.1.1l-.1.1v.1l-.2.2-.1.1-.2.2s-.1 0-.1.1l-.1.1-.1.1-.1.1-.1.1-.1.1-.1.1-.1.1c-.1 0-.1.1-.2.1l-16.6 9.7c-.2.1-.3.2-.5.3 0 0-.1 0-.1.1-.2.1-.3.1-.5.2h-.1c-.2.1-.3.1-.5.2-.1 0-.3.1-.4.1-.1 0-.2.1-.3.1-.1 0-.3.1-.4.1-.1 0-.2 0-.3.1h-.1c-.2 0-.3.1-.5.1h-.1c-.2 0-.4 0-.6.1h-2.6c-.1 0-.3 0-.4-.1-.1 0-.3-.1-.4-.1h-.1c-.2 0-.4-.1-.6-.1h-.2c-.2 0-.3-.1-.4-.2h-.1c-.1-.1-.3-.1-.4-.2-.1 0-.1-.1-.2-.1-.2-.1-.4-.2-.5-.3l-16.8-9.7c-1.4-.8-2.2-1.9-2.2-3l-.1 24.5c0 1.1.7 2.2 2.2 3l16.8 9.7c.2.1.4.2.5.3.1 0 .1.1.2.1s.2.1.3.1h.2c.1.1.3.1.4.2H356.8c.1 0 .3.1.4.1h.1c.1 0 .1 0 .2.1h.2c.1 0 .3 0 .4.1H361.6c.2 0 .3 0 .5-.1h.2c.1 0 .2 0 .2-.1.1 0 .3-.1.4-.1.1 0 .2-.1.3-.1.1 0 .3-.1.4-.1h.1c.2 0 .3-.1.4-.2h.1c.2-.1.3-.1.5-.2 0 0 .1 0 .1-.1.2-.1.3-.2.5-.3l16.6-9.7s.1 0 .1-.1c0 0 .1 0 .1-.1l.1-.1.1-.1.1-.1.1-.1.1-.1.1-.1.1-.1.2-.2.1-.1.2-.2v-.1l.1-.1s0-.1.1-.1l.1-.1v-.1s0-.1.1-.1v-.1-.1-.1-.1-.1-.1-.1-.1-.1-.1-.1l.1-24.5v.1"/>
        <path stroke="#001A64" stroke-linecap="round" stroke-linejoin="round" stroke-width="1.445" d="M383.8 531V532s0 .1-.1.1v.1l-.1.1s0 .1-.1.1l-.1.1v.1l-.2.2-.1.1-.2.2s-.1 0-.1.1l-.1.1-.1.1-.1.1-.1.1-.1.1-.1.1-.1.1c-.1 0-.1.1-.2.1l-16.6 9.7c-.2.1-.3.2-.5.3 0 0-.1 0-.1.1-.2.1-.3.1-.5.2h-.1c-.2.1-.3.1-.5.2-.1 0-.3.1-.4.1-.1 0-.2.1-.3.1-.1 0-.3.1-.4.1-.1 0-.2 0-.3.1h-.1c-.2 0-.3.1-.5.1h-.1c-.2 0-.4 0-.6.1h-2.6c-.1 0-.3 0-.4-.1-.1 0-.3-.1-.4-.1h-.1c-.2 0-.4-.1-.6-.1h-.2c-.2 0-.3-.1-.4-.2h-.1c-.1-.1-.3-.1-.4-.2-.1 0-.1-.1-.2-.1-.2-.1-.4-.2-.5-.3l-16.8-9.7c-1.4-.8-2.2-1.9-2.2-3l-.1 24.5c0 1.1.7 2.2 2.2 3l16.8 9.7c.2.1.4.2.5.3.1 0 .1.1.2.1s.2.1.3.1h.2c.1.1.3.1.4.2H356.8c.1 0 .3.1.4.1h.1c.1 0 .1 0 .2.1h.2c.1 0 .3 0 .4.1H361.6c.2 0 .3 0 .5-.1h.2c.1 0 .2 0 .2-.1.1 0 .3-.1.4-.1.1 0 .2-.1.3-.1.1 0 .3-.1.4-.1h.1c.2 0 .3-.1.4-.2h.1c.2-.1.3-.1.5-.2 0 0 .1 0 .1-.1.2-.1.3-.2.5-.3l16.6-9.7s.1 0 .1-.1c0 0 .1 0 .1-.1l.1-.1.1-.1.1-.1.1-.1.1-.1.1-.1.1-.1.2-.2.1-.1.2-.2v-.1l.1-.1s0-.1.1-.1l.1-.1v-.1s0-.1.1-.1v-.1-.1-.1-.1-.1-.1-.1-.1-.1-.1-.1l.1-24.5v.1z"/>
        <path fill="#FFF" d="M381.7 527.8c2.9 1.7 2.9 4.4 0 6l-16.6 9.7c-2.9 1.7-7.5 1.7-10.4 0l-16.8-9.7c-2.9-1.7-2.9-4.4 0-6l16.6-9.7c2.9-1.7 7.5-1.7 10.4 0l16.8 9.7z"/>
        <path stroke="#001A64" stroke-linecap="round" stroke-linejoin="round" stroke-width="1.445" d="M381.7 527.8c2.9 1.7 2.9 4.4 0 6l-16.6 9.7c-2.9 1.7-7.5 1.7-10.4 0l-16.8-9.7c-2.9-1.7-2.9-4.4 0-6l16.6-9.7c2.9-1.7 7.5-1.7 10.4 0l16.8 9.7z"/>
        <path fill="#94E0FF" d="M395.1 472.2c0 19.6-15.8 35.4-35.3 35.4-19.5 0-35.4-15.8-35.4-35.4 0-19.6 15.8-35.4 35.3-35.4 19.5 0 35.4 15.9 35.4 35.4"/>
        <path stroke="#001A64" stroke-linecap="round" stroke-linejoin="round" stroke-width="1.445" d="M359.8 458.3v86.5M359.8 496.5l22-22.1M359.8 477.1l6.2-6.2"/>
        <g fill="#001A64" fill-rule="nonzero">
            <path d="M777.4 544.4l-23.6 14c-.2.6-.2 1.2-.1 1.7l26.6-15.8c-.4 0-.8-.1-1.1-.1-.6.1-1.2.1-1.8.2zM784.8 545.6l-29 17.2c.1 0 .1.1.2.1.4.2.8.4 1.3.6l28.8-17c-.3-.3-.7-.5-1.1-.8 0-.1-.1-.1-.2-.1zM785.1 552.6c1.4-.8 2.2-1.9 2.4-3l-24.8 14.7c1.9-.1 3.7-.5 5.1-1.4l17.3-10.3zM798.4 556.1l-25.9 15.4c0 .5.2.9.5 1.4l27.8-16.5-2.4-.3zM804.6 558l-28.9 17.1c.6.3 1.1.5 1.8.6l28.1-16.7c-.2-.3-.6-.6-1-1zM784.2 575.7c.9-.2 1.7-.5 2.4-1l17.3-10.3c.7-.4 1.3-.9 1.7-1.4l-21.4 12.7zM819.9 567.2l-27.4 16.2c.2.4.5.8.8 1.2l28.6-16.9c-.6-.3-1.3-.4-2-.5zM825.2 569.6l-28.4 16.8c.7.2 1.4.4 2.1.5l27.1-16.1c-.2-.4-.4-.8-.8-1.2z"/>
        </g>
        <path fill="#94E0FF" d="M784.9 534.3c3.3 1.9 3.3 4.9 0 6.8l-17.4 10.1c-3.2 1.9-8.5 1.9-11.8 0-3.3-1.9-3.3-4.9 0-6.8l17.4-10.1c3.2-1.9 8.5-1.9 11.8 0"/>
        <path fill="#06F" d="M804.3 545.5c3.3 1.9 3.3 4.9 0 6.8L787 562.4c-3.2 1.9-8.5 1.9-11.8 0-3.3-1.9-3.3-4.9 0-6.8l17.4-10.1c3.2-1.8 8.5-1.8 11.7 0"/>
        <path fill="#94E0FF" d="M823.8 556.8c3.3 1.9 3.3 4.9 0 6.8l-17.4 10.1c-3.2 1.9-8.5 1.9-11.8 0-3.3-1.9-3.3-4.9 0-6.8l17.4-10.1c3.3-1.9 8.5-1.9 11.8 0"/>
        <path fill="#FFF" d="M775.3 641v1.1c0 .1 0 .1-.1.2 0 0 0 .1-.1.1l-.1.1s0 .1-.1.1c0 .1-.1.1-.1.2 0 0 0 .1-.1.1 0 .1-.1.1-.1.2 0 0 0 .1-.1.1l-.3.3s0 .1-.1.1c-.1.1-.1.2-.2.2l-.1.1-.1.1-.1.1c-.1 0-.1.1-.2.1l-.1.1c-.1 0-.1.1-.2.1s-.1.1-.2.1-.1.1-.2.1-.2.1-.2.1l-50 29.3c-.1.1-.3.2-.5.2 0 0-.1 0-.1.1-.1.1-.2.1-.4.2 0 0-.1 0-.1.1-.2.1-.3.1-.5.2h-.1c-.1.1-.3.1-.4.2-.1 0-.1 0-.2.1-.1 0-.2.1-.2.1-.1 0-.1 0-.2.1-.1 0-.2 0-.2.1-.1 0-.1 0-.2.1-.1 0-.2 0-.3.1h-.2c-.1 0-.2 0-.3.1h-.2c-.2 0-.4.1-.6.1h-.1c-.2 0-.3 0-.5.1h-3.6-.1c-.2 0-.3 0-.5-.1h-.1c-.1 0-.3 0-.4-.1h-.2c-.1 0-.2 0-.3-.1h-.2c-.1 0-.2 0-.3-.1h-.2c-.1 0-.2-.1-.3-.1h-.2c-.2 0-.3-.1-.5-.1h-.1c-.2-.1-.4-.1-.5-.2-.1 0-.1-.1-.2-.1s-.1 0-.2-.1c-.1 0-.2-.1-.2-.1-.1 0-.1 0-.2-.1-.1 0-.2-.1-.2-.1s-.1 0-.1-.1c-.1-.1-.2-.1-.4-.2l-18.4-10.6c-2-1.1-3-2.6-3-4.1v16.3c0 1.5 1 3 3 4.1l18.4 10.6c.1.1.2.1.4.2 0 0 .1 0 .1.1.1 0 .2.1.2.1s.1 0 .2.1c.1 0 .2.1.2.1.1 0 .1 0 .2.1.1 0 .1 0 .2.1h.1c.2.1.4.1.5.2h.1c.2.1.3.1.5.1h.2c.1 0 .2.1.3.1h.2c.1 0 .2.1.3.1h.1c.1 0 .2 0 .3.1h.2c.1 0 .3 0 .4.1h.1c.2 0 .3 0 .5.1h3.7c.2 0 .3 0 .5-.1h.1c.2 0 .4-.1.6-.1h.2c.1 0 .2 0 .3-.1h.2c.1 0 .2 0 .3-.1.1 0 .1 0 .2-.1.1 0 .2 0 .2-.1.1 0 .1 0 .2-.1.1 0 .2 0 .2-.1h.2c.1 0 .3-.1.4-.2h.1c.2-.1.3-.1.5-.2 0 0 .1 0 .1-.1.1-.1.2-.1.4-.2 0 0 .1 0 .1-.1.2-.1.3-.2.5-.2l49.8-28.9s.1 0 .1-.1c0 0 .1 0 .1-.1.1 0 .1-.1.2-.1s.1-.1.2-.1.1-.1.2-.1.1-.1.1-.1c.1 0 .1-.1.2-.1l.1-.1.1-.1.1-.1h.1c.1-.1.2-.1.2-.2 0 0 0-.1.1-.1l.3-.3.1-.1c0-.1.1-.1.1-.2 0 0 0-.1.1-.1 0-.1.1-.1.1-.2v-.1s.1-.1.1-.2c0 0 0-.1.1-.1 0-.1 0-.1.1-.2v-.1-.1-.1-.1-.1-.1-.1-.1-.1-.2-.1-.1l.2-16.4z"/>
        <path stroke="#001A64" stroke-linecap="round" stroke-linejoin="round" stroke-width="1.445" d="M775.3 641v1.1c0 .1 0 .1-.1.2 0 0 0 .1-.1.1l-.1.1s0 .1-.1.1c0 .1-.1.1-.1.2 0 0 0 .1-.1.1 0 .1-.1.1-.1.2 0 0 0 .1-.1.1l-.3.3s0 .1-.1.1c-.1.1-.1.2-.2.2l-.1.1-.1.1-.1.1c-.1 0-.1.1-.2.1l-.1.1c-.1 0-.1.1-.2.1s-.1.1-.2.1-.1.1-.2.1-.2.1-.2.1l-50 29.3c-.1.1-.3.2-.5.2 0 0-.1 0-.1.1-.1.1-.2.1-.4.2 0 0-.1 0-.1.1-.2.1-.3.1-.5.2h-.1c-.1.1-.3.1-.4.2-.1 0-.1 0-.2.1-.1 0-.2.1-.2.1-.1 0-.1 0-.2.1-.1 0-.2 0-.2.1-.1 0-.1 0-.2.1-.1 0-.2 0-.3.1h-.2c-.1 0-.2 0-.3.1h-.2c-.2 0-.4.1-.6.1h-.1c-.2 0-.3 0-.5.1h-3.6-.1c-.2 0-.3 0-.5-.1h-.1c-.1 0-.3 0-.4-.1h-.2c-.1 0-.2 0-.3-.1h-.2c-.1 0-.2 0-.3-.1h-.2c-.1 0-.2-.1-.3-.1h-.2c-.2 0-.3-.1-.5-.1h-.1c-.2-.1-.4-.1-.5-.2-.1 0-.1-.1-.2-.1s-.1 0-.2-.1c-.1 0-.2-.1-.2-.1-.1 0-.1 0-.2-.1-.1 0-.2-.1-.2-.1s-.1 0-.1-.1c-.1-.1-.2-.1-.4-.2l-18.4-10.6c-2-1.1-3-2.6-3-4.1v16.3c0 1.5 1 3 3 4.1l18.4 10.6c.1.1.2.1.4.2 0 0 .1 0 .1.1.1 0 .2.1.2.1s.1 0 .2.1c.1 0 .2.1.2.1.1 0 .1 0 .2.1.1 0 .1 0 .2.1h.1c.2.1.4.1.5.2h.1c.2.1.3.1.5.1h.2c.1 0 .2.1.3.1h.2c.1 0 .2.1.3.1h.1c.1 0 .2 0 .3.1h.2c.1 0 .3 0 .4.1h.1c.2 0 .3 0 .5.1h3.7c.2 0 .3 0 .5-.1h.1c.2 0 .4-.1.6-.1h.2c.1 0 .2 0 .3-.1h.2c.1 0 .2 0 .3-.1.1 0 .1 0 .2-.1.1 0 .2 0 .2-.1.1 0 .1 0 .2-.1.1 0 .2 0 .2-.1h.2c.1 0 .3-.1.4-.2h.1c.2-.1.3-.1.5-.2 0 0 .1 0 .1-.1.1-.1.2-.1.4-.2 0 0 .1 0 .1-.1.2-.1.3-.2.5-.2l49.8-28.9s.1 0 .1-.1c0 0 .1 0 .1-.1.1 0 .1-.1.2-.1s.1-.1.2-.1.1-.1.2-.1.1-.1.1-.1c.1 0 .1-.1.2-.1l.1-.1.1-.1.1-.1h.1c.1-.1.2-.1.2-.2 0 0 0-.1.1-.1l.3-.3.1-.1c0-.1.1-.1.1-.2 0 0 0-.1.1-.1 0-.1.1-.1.1-.2v-.1s.1-.1.1-.2c0 0 0-.1.1-.1 0-.1 0-.1.1-.2v-.1-.1-.1-.1-.1-.1-.1-.1-.1-.2-.1-.1l.2-16.4z"/>
        <path fill="#FFF" d="M772.3 636.9c3.9 2.3 3.9 5.9 0 8.2L722.5 674c-3.9 2.3-10.2 2.3-14.1 0L690 663.4c-3.9-2.3-3.9-5.9 0-8.2l49.8-28.9c3.9-2.3 10.2-2.3 14.1 0l18.4 10.6z"/>
        <path stroke="#001A64" stroke-linecap="round" stroke-linejoin="round" stroke-width="1.445" d="M772.3 636.9c3.9 2.3 3.9 5.9 0 8.2L722.5 674c-3.9 2.3-10.2 2.3-14.1 0L690 663.4c-3.9-2.3-3.9-5.9 0-8.2l49.8-28.9c3.9-2.3 10.2-2.3 14.1 0l18.4 10.6z"/>
        <path fill="#94E0FF" d="M717.9 657.7c1.6.9 2.3 2.3 1.7 3.6-.9 2-4.4 3.2-7.9 2.7-1.1-.2-2.1-.5-2.9-1-1.6-.9-2.3-2.3-1.7-3.6.9-2 4.4-3.2 7.9-2.7 1.1.2 2.1.5 2.9 1M735.6 647.4c1.6.9 2.3 2.3 1.7 3.6-.9 2-4.4 3.2-7.9 2.7-1.2-.2-2.1-.5-2.9-1-1.6-.9-2.3-2.3-1.7-3.6.9-2 4.4-3.2 7.9-2.7 1.1.2 2.1.5 2.9 1M753.4 637c1.6.9 2.3 2.3 1.7 3.6-.9 2-4.4 3.2-7.9 2.7-1.1-.2-2.1-.5-2.9-1-1.6-.9-2.3-2.3-1.7-3.6.9-2 4.4-3.2 7.9-2.7 1.1.2 2.1.6 2.9 1M174.3 625.3c2.7 1.5 2.7 4.1 0 5.6l-14.3 8.3c-2.7 1.5-7 1.5-9.7 0-2.7-1.5-2.7-4.1 0-5.6l14.3-8.3c2.7-1.5 7-1.5 9.7 0M945.7 314.8c2.7 1.5 2.7 4.1 0 5.6l-14.3 8.3c-2.7 1.5-7 1.5-9.7 0-2.7-1.5-2.7-4.1 0-5.6l14.3-8.3c2.7-1.5 7.1-1.5 9.7 0"/>
        <path fill="#FFF" d="M354.6 661c2.7 1.6 2.8 4.2 0 5.7l-9 5.2-64.4-37.2 9-5.2c2.7-1.6 7.2-1.6 9.9 0l54.5 31.5z"/>
        <path stroke="#001A64" stroke-linecap="round" stroke-linejoin="round" stroke-width="1.445" d="M354.6 661c2.7 1.6 2.8 4.2 0 5.7l-9 5.2-64.4-37.2 9-5.2c2.7-1.6 7.2-1.6 9.9 0l54.5 31.5z"/>
        <path fill="#FFF" d="M345.6 672l-64 37.2-64.5-37.2 64.1-37.2z"/>
        <path stroke="#001A64" stroke-linecap="round" stroke-linejoin="round" stroke-width="1.445" d="M345.6 672l-64 37.2-64.5-37.2 64.1-37.2z"/>
        <path fill="#94E0FF" d="M305 660.2c1.4.8 1.4 2.1 0 3-1.4.8-3.7.8-5.1 0l-21.8-12.6c-1.4-.8-1.4-2.1 0-3 1.4-.8 3.7-.8 5.1 0l21.8 12.6zM285.6 659.6c1.4.8 1.4 2.1 0 3-1.4.8-3.7.8-5.1 0l-11.6-6.7c-1.4-.8-1.4-2.1 0-3 1.4-.8 3.7-.8 5.1 0l11.6 6.7zM288.5 673.1c1.4.8 1.4 2.1 0 3-1.4.8-3.7.8-5.1 0l-24.7-14.2c-1.4-.8-1.4-2.1 0-3 1.4-.8 3.7-.8 5.1 0l24.7 14.2z"/>
        <path fill="#FFF" d="M881.7 470.8c-6.2-42.8-37.7-84.6-94.5-117.3-2.8-1.6-5.6-3.2-8.5-4.7-.5-.3-1-.6-1.6-.8-2.8-1.5-5.5-2.9-8.4-4.3-.5-.3-1.1-.5-1.6-.8-2.9-1.4-5.9-2.8-8.9-4.2-.1 0-.1 0-.2-.1-3-1.3-6-2.7-9-3.9-.6-.2-1.1-.5-1.7-.7-2.5-1-5-2.1-7.5-3-.4-.2-.8-.3-1.2-.5-1.3-.5-2.7-1-4-1.5-2-.8-4-1.5-6.1-2.2-1.4-.5-2.8-1-4.3-1.5-2-.7-4-1.4-6-2-1.5-.5-2.9-1-4.4-1.4-2-.6-4-1.3-6.1-1.9-1.5-.4-3-.9-4.5-1.3-.8-.2-1.6-.5-2.4-.7-1.6-.5-3.3-.9-4.9-1.4-.8-.2-1.6-.5-2.5-.7-3.3-.9-6.7-1.8-10.1-2.6-.7-.2-1.5-.3-2.2-.5-2.7-.6-5.4-1.3-8.2-1.9-1.1-.2-2.1-.5-3.2-.7-.9-.2-1.9-.4-2.8-.6-2-.4-3.9-.8-5.9-1.2l-1.5-.3c-3.4-.7-6.8-1.3-10.3-1.8-.9-.1-1.7-.3-2.6-.4-2.9-.5-5.8-.9-8.7-1.4l-2.1-.3c-.3 0-.6-.1-.9-.1l-6.9-.9c-1.3-.2-2.5-.3-3.8-.5-3.8-.5-7.7-.9-11.5-1.3-3.1-.3-6.2-.6-9.3-.8-.6 0-1.2-.1-1.7-.1-.8-.1-1.6-.1-2.5-.2l-9.3-.6c-.6 0-1.1-.1-1.7-.1-3.5-.2-7-.3-10.6-.5-.8 0-1.7-.1-2.5-.1-1.2 0-2.4-.1-3.5-.1-1.9 0-3.8-.1-5.7-.1h-15.1c-2.9 0-5.9.1-8.8.2-.8 0-1.6 0-2.3.1h-1.2c-3.2.1-6.4.3-9.6.4-.7 0-1.4.1-2.2.1-2.9.2-5.8.3-8.8.6-1.1.1-2.2.2-3.3.2-2.8.2-5.5.4-8.3.7-.9.1-1.8.2-2.6.2-.3 0-.7.1-1 .1-3 .3-5.9.6-8.9 1-.5.1-1 .1-1.4.2-3.7.4-7.5.9-11.2 1.4-1.1.2-2.3.3-3.4.5-2.6.4-5.1.8-7.7 1.2-1.4.2-2.8.5-4.2.7-1.5.3-3.1.5-4.7.8-.8.1-1.5.3-2.3.4-1.3.2-2.7.5-4 .8-2.3.4-4.6.9-6.9 1.4-1.3.3-2.6.5-4 .8-2.4.5-4.8 1.1-7.2 1.6-1.1.3-2.3.5-3.4.8-3.5.8-7 1.7-10.4 2.6l-5.1 1.4-.2 65.7 5.1-1.4c3.5-.9 6.9-1.8 10.4-2.6 1.1-.3 2.3-.5 3.4-.8 2.4-.6 4.8-1.1 7.2-1.6 1.3-.3 2.6-.6 4-.8 2.3-.5 4.6-.9 6.9-1.4 1.3-.3 2.7-.5 4-.8l6.9-1.2c1.4-.2 2.8-.5 4.2-.7 2.6-.4 5.1-.8 7.7-1.2 1.1-.2 2.3-.3 3.4-.5 3.7-.5 7.4-1 11.2-1.4.5-.1 1-.1 1.4-.2 3.3-.4 6.6-.7 9.9-1.1.9-.1 1.8-.2 2.6-.2 2.8-.3 5.5-.5 8.3-.7 1.1-.1 2.2-.2 3.3-.2 2.9-.2 5.8-.4 8.8-.6.7 0 1.4-.1 2.2-.1 3.6-.2 7.2-.3 10.8-.4.8 0 1.6 0 2.3-.1 2.9-.1 5.9-.1 8.8-.2h15.1c3.1 0 6.1.1 9.2.2.8 0 1.7.1 2.5.1 3.5.1 7.1.3 10.6.5.6 0 1.1.1 1.7.1l9.3.6c.8.1 1.6.1 2.5.2 3.7.3 7.3.6 11 1 3.9.4 7.7.8 11.5 1.3 1.3.2 2.5.3 3.8.5 2.6.3 5.2.7 7.8 1l2.1.3c2.9.4 5.8.9 8.7 1.4.9.1 1.7.3 2.6.4 3.4.6 6.9 1.2 10.3 1.8l1.5.3 8.7 1.8c1.1.2 2.1.5 3.2.7 2.7.6 5.5 1.2 8.2 1.9.7.2 1.5.3 2.2.5 3.4.8 6.7 1.7 10.1 2.6.8.2 1.6.5 2.5.7 2.5.7 4.9 1.4 7.3 2.1 1.5.4 3 .9 4.5 1.3 2 .6 4.1 1.2 6.1 1.9 1.5.5 2.9.9 4.4 1.4 2 .7 4 1.3 6 2 1.4.5 2.9 1 4.3 1.5 2 .7 4.1 1.5 6.1 2.3 1.3.5 2.7 1 4 1.5 2.9 1.1 5.8 2.3 8.7 3.5.6.2 1.1.5 1.7.7l9 3.9c.1 0 .1 0 .2.1 3 1.4 5.9 2.8 8.9 4.2.5.3 1.1.5 1.6.8 2.8 1.4 5.6 2.8 8.4 4.3.5.3 1 .6 1.6.8 2.9 1.5 5.7 3.1 8.5 4.7 56.7 32.7 88.2 74.5 94.5 117.3.8 5.4 1.2 10.8 1.2 16.2l.2-65.7c.1-5.6-.3-11-1.1-16.4"/>
        <path stroke="#001A64" stroke-linecap="round" stroke-linejoin="round" stroke-width="1.445" d="M881.7 470.8c-6.2-42.8-37.7-84.6-94.5-117.3-2.8-1.6-5.6-3.2-8.5-4.7-.5-.3-1-.6-1.6-.8-2.8-1.5-5.5-2.9-8.4-4.3-.5-.3-1.1-.5-1.6-.8-2.9-1.4-5.9-2.8-8.9-4.2-.1 0-.1 0-.2-.1-3-1.3-6-2.7-9-3.9-.6-.2-1.1-.5-1.7-.7-2.5-1-5-2.1-7.5-3-.4-.2-.8-.3-1.2-.5-1.3-.5-2.7-1-4-1.5-2-.8-4-1.5-6.1-2.2-1.4-.5-2.8-1-4.3-1.5-2-.7-4-1.4-6-2-1.5-.5-2.9-1-4.4-1.4-2-.6-4-1.3-6.1-1.9-1.5-.4-3-.9-4.5-1.3-.8-.2-1.6-.5-2.4-.7-1.6-.5-3.3-.9-4.9-1.4-.8-.2-1.6-.5-2.5-.7-3.3-.9-6.7-1.8-10.1-2.6-.7-.2-1.5-.3-2.2-.5-2.7-.6-5.4-1.3-8.2-1.9-1.1-.2-2.1-.5-3.2-.7-.9-.2-1.9-.4-2.8-.6-2-.4-3.9-.8-5.9-1.2l-1.5-.3c-3.4-.7-6.8-1.3-10.3-1.8-.9-.1-1.7-.3-2.6-.4-2.9-.5-5.8-.9-8.7-1.4l-2.1-.3c-.3 0-.6-.1-.9-.1l-6.9-.9c-1.3-.2-2.5-.3-3.8-.5-3.8-.5-7.7-.9-11.5-1.3-3.1-.3-6.2-.6-9.3-.8-.6 0-1.2-.1-1.7-.1-.8-.1-1.6-.1-2.5-.2l-9.3-.6c-.6 0-1.1-.1-1.7-.1-3.5-.2-7-.3-10.6-.5-.8 0-1.7-.1-2.5-.1-1.2 0-2.4-.1-3.5-.1-1.9 0-3.8-.1-5.7-.1h-15.1c-2.9 0-5.9.1-8.8.2-.8 0-1.6 0-2.3.1h-1.2c-3.2.1-6.4.3-9.6.4-.7 0-1.4.1-2.2.1-2.9.2-5.8.3-8.8.6-1.1.1-2.2.2-3.3.2-2.8.2-5.5.4-8.3.7-.9.1-1.8.2-2.6.2-.3 0-.7.1-1 .1-3 .3-5.9.6-8.9 1-.5.1-1 .1-1.4.2-3.7.4-7.5.9-11.2 1.4-1.1.2-2.3.3-3.4.5-2.6.4-5.1.8-7.7 1.2-1.4.2-2.8.5-4.2.7-1.5.3-3.1.5-4.7.8-.8.1-1.5.3-2.3.4-1.3.2-2.7.5-4 .8-2.3.4-4.6.9-6.9 1.4-1.3.3-2.6.5-4 .8-2.4.5-4.8 1.1-7.2 1.6-1.1.3-2.3.5-3.4.8-3.5.8-7 1.7-10.4 2.6l-5.1 1.4-.2 65.7 5.1-1.4c3.5-.9 6.9-1.8 10.4-2.6 1.1-.3 2.3-.5 3.4-.8 2.4-.6 4.8-1.1 7.2-1.6 1.3-.3 2.6-.6 4-.8 2.3-.5 4.6-.9 6.9-1.4 1.3-.3 2.7-.5 4-.8l6.9-1.2c1.4-.2 2.8-.5 4.2-.7 2.6-.4 5.1-.8 7.7-1.2 1.1-.2 2.3-.3 3.4-.5 3.7-.5 7.4-1 11.2-1.4.5-.1 1-.1 1.4-.2 3.3-.4 6.6-.7 9.9-1.1.9-.1 1.8-.2 2.6-.2 2.8-.3 5.5-.5 8.3-.7 1.1-.1 2.2-.2 3.3-.2 2.9-.2 5.8-.4 8.8-.6.7 0 1.4-.1 2.2-.1 3.6-.2 7.2-.3 10.8-.4.8 0 1.6 0 2.3-.1 2.9-.1 5.9-.1 8.8-.2h15.1c3.1 0 6.1.1 9.2.2.8 0 1.7.1 2.5.1 3.5.1 7.1.3 10.6.5.6 0 1.1.1 1.7.1l9.3.6c.8.1 1.6.1 2.5.2 3.7.3 7.3.6 11 1 3.9.4 7.7.8 11.5 1.3 1.3.2 2.5.3 3.8.5 2.6.3 5.2.7 7.8 1l2.1.3c2.9.4 5.8.9 8.7 1.4.9.1 1.7.3 2.6.4 3.4.6 6.9 1.2 10.3 1.8l1.5.3 8.7 1.8c1.1.2 2.1.5 3.2.7 2.7.6 5.5 1.2 8.2 1.9.7.2 1.5.3 2.2.5 3.4.8 6.7 1.7 10.1 2.6.8.2 1.6.5 2.5.7 2.5.7 4.9 1.4 7.3 2.1 1.5.4 3 .9 4.5 1.3 2 .6 4.1 1.2 6.1 1.9 1.5.5 2.9.9 4.4 1.4 2 .7 4 1.3 6 2 1.4.5 2.9 1 4.3 1.5 2 .7 4.1 1.5 6.1 2.3 1.3.5 2.7 1 4 1.5 2.9 1.1 5.8 2.3 8.7 3.5.6.2 1.1.5 1.7.7l9 3.9c.1 0 .1 0 .2.1 3 1.4 5.9 2.8 8.9 4.2.5.3 1.1.5 1.6.8 2.8 1.4 5.6 2.8 8.4 4.3.5.3 1 .6 1.6.8 2.9 1.5 5.7 3.1 8.5 4.7 56.7 32.7 88.2 74.5 94.5 117.3.8 5.4 1.2 10.8 1.2 16.2l.2-65.7c.1-5.6-.3-11-1.1-16.4z"/>
        <path fill="#FFF" d="M894.1 490.3c0 1.4-.1 2.9-.2 4.3 0 .3-.1.6-.1.9-.1 1.1-.2 2.3-.3 3.4 0 .5-.1.9-.2 1.4-.1 1.1-.3 2.2-.4 3.3-.1.4-.1.8-.2 1.1-.2 1.4-.5 2.9-.8 4.3-.1.3-.1.5-.2.8-.2 1.2-.5 2.3-.8 3.5-.1.5-.2.9-.3 1.4-.3 1-.5 2.1-.8 3.1l-.3 1.2c-.4 1.4-.8 2.8-1.3 4.2 0 .1-.1.3-.1.4-.4 1.3-.9 2.6-1.4 3.9-.2.4-.3.9-.5 1.3-.4 1.1-.8 2.2-1.3 3.2-.2.4-.3.8-.5 1.2-.6 1.4-1.2 2.9-1.9 4.3-.1.1-.1.2-.2.4-.6 1.3-1.3 2.6-1.9 3.9-.2.4-.4.8-.7 1.3-.6 1.1-1.1 2.1-1.7 3.2-.2.4-.4.8-.6 1.1-.8 1.5-1.7 3-2.6 4.4-.2.3-.4.6-.5.9-.8 1.2-1.6 2.5-2.4 3.7-.3.4-.5.8-.8 1.1-1 1.5-2 2.9-3.1 4.4-.1.2-.3.3-.4.5-1 1.3-1.9 2.6-2.9 3.9-.3.4-.6.7-.8 1.1-1.3 1.7-2.7 3.3-4.1 5-.2.3-.4.5-.7.8-1.4 1.6-2.9 3.3-4.4 4.9l-.3.3c-1.5 1.7-3.1 3.3-4.8 4.9l-.9.9c-1.6 1.6-3.2 3.2-4.9 4.7-.4.3-.8.7-1.1 1-1 .9-2.1 1.9-3.1 2.8-.4.4-.8.7-1.3 1.1-1.4 1.3-2.9 2.5-4.4 3.8l-3.2 2.7-.2 65.7 3.2-2.7c1.5-1.2 3-2.5 4.4-3.8.4-.4.8-.7 1.3-1.1 1.1-.9 2.1-1.9 3.1-2.8.3-.2.5-.5.8-.7l.4-.4c1.7-1.6 3.3-3.1 4.9-4.7l.9-.9c1.6-1.6 3.2-3.3 4.8-4.9l.3-.3c1.5-1.6 2.9-3.2 4.3-4.9.2-.3.5-.5.7-.8 1.4-1.6 2.8-3.3 4.1-5 .1-.2.3-.3.4-.5.2-.2.3-.4.5-.6 1-1.3 2-2.6 2.9-3.9.1-.2.3-.4.4-.5 1.1-1.5 2.1-2.9 3.1-4.4.3-.4.5-.8.8-1.1.8-1.2 1.6-2.5 2.4-3.7l.6-.9c.9-1.5 1.8-3 2.6-4.4.1-.1.1-.2.2-.4.1-.3.3-.5.4-.8.6-1.1 1.2-2.1 1.7-3.2.2-.4.4-.8.7-1.3.7-1.3 1.3-2.6 1.9-3.9.1-.1.1-.2.2-.4.7-1.4 1.3-2.8 1.9-4.3.2-.4.3-.8.5-1.2.4-1.1.9-2.2 1.3-3.2.1-.3.2-.5.3-.8.1-.2.1-.3.2-.5.5-1.3.9-2.6 1.4-3.9 0-.1.1-.3.1-.4.5-1.4.9-2.8 1.3-4.2l.3-1.2c.3-1 .6-2.1.8-3.1.1-.5.2-.9.3-1.4.3-1.2.5-2.3.8-3.5 0-.2.1-.4.1-.7v-.2c.3-1.4.5-2.9.8-4.3.1-.4.1-.8.2-1.1.2-1.1.3-2.2.4-3.3.1-.5.1-.9.2-1.4.1-1.1.2-2.3.3-3.4 0-.3.1-.6.1-1 .1-1.4.2-2.9.2-4.3v-.3-3l.2-65.7c0 1.5-.1 2.6-.1 3.7"/>
        <path stroke="#001A64" stroke-linecap="round" stroke-linejoin="round" stroke-width="1.445" d="M894.1 490.3c0 1.4-.1 2.9-.2 4.3 0 .3-.1.6-.1.9-.1 1.1-.2 2.3-.3 3.4 0 .5-.1.9-.2 1.4-.1 1.1-.3 2.2-.4 3.3-.1.4-.1.8-.2 1.1-.2 1.4-.5 2.9-.8 4.3-.1.3-.1.5-.2.8-.2 1.2-.5 2.3-.8 3.5-.1.5-.2.9-.3 1.4-.3 1-.5 2.1-.8 3.1l-.3 1.2c-.4 1.4-.8 2.8-1.3 4.2 0 .1-.1.3-.1.4-.4 1.3-.9 2.6-1.4 3.9-.2.4-.3.9-.5 1.3-.4 1.1-.8 2.2-1.3 3.2-.2.4-.3.8-.5 1.2-.6 1.4-1.2 2.9-1.9 4.3-.1.1-.1.2-.2.4-.6 1.3-1.3 2.6-1.9 3.9-.2.4-.4.8-.7 1.3-.6 1.1-1.1 2.1-1.7 3.2-.2.4-.4.8-.6 1.1-.8 1.5-1.7 3-2.6 4.4-.2.3-.4.6-.5.9-.8 1.2-1.6 2.5-2.4 3.7-.3.4-.5.8-.8 1.1-1 1.5-2 2.9-3.1 4.4-.1.2-.3.3-.4.5-1 1.3-1.9 2.6-2.9 3.9-.3.4-.6.7-.8 1.1-1.3 1.7-2.7 3.3-4.1 5-.2.3-.4.5-.7.8-1.4 1.6-2.9 3.3-4.4 4.9l-.3.3c-1.5 1.7-3.1 3.3-4.8 4.9l-.9.9c-1.6 1.6-3.2 3.2-4.9 4.7-.4.3-.8.7-1.1 1-1 .9-2.1 1.9-3.1 2.8-.4.4-.8.7-1.3 1.1-1.4 1.3-2.9 2.5-4.4 3.8l-3.2 2.7-.2 65.7 3.2-2.7c1.5-1.2 3-2.5 4.4-3.8.4-.4.8-.7 1.3-1.1 1.1-.9 2.1-1.9 3.1-2.8.3-.2.5-.5.8-.7l.4-.4c1.7-1.6 3.3-3.1 4.9-4.7l.9-.9c1.6-1.6 3.2-3.3 4.8-4.9l.3-.3c1.5-1.6 2.9-3.2 4.3-4.9.2-.3.5-.5.7-.8 1.4-1.6 2.8-3.3 4.1-5 .1-.2.3-.3.4-.5.2-.2.3-.4.5-.6 1-1.3 2-2.6 2.9-3.9.1-.2.3-.4.4-.5 1.1-1.5 2.1-2.9 3.1-4.4.3-.4.5-.8.8-1.1.8-1.2 1.6-2.5 2.4-3.7l.6-.9c.9-1.5 1.8-3 2.6-4.4.1-.1.1-.2.2-.4.1-.3.3-.5.4-.8.6-1.1 1.2-2.1 1.7-3.2.2-.4.4-.8.7-1.3.7-1.3 1.3-2.6 1.9-3.9.1-.1.1-.2.2-.4.7-1.4 1.3-2.8 1.9-4.3.2-.4.3-.8.5-1.2.4-1.1.9-2.2 1.3-3.2.1-.3.2-.5.3-.8.1-.2.1-.3.2-.5.5-1.3.9-2.6 1.4-3.9 0-.1.1-.3.1-.4.5-1.4.9-2.8 1.3-4.2l.3-1.2c.3-1 .6-2.1.8-3.1.1-.5.2-.9.3-1.4.3-1.2.5-2.3.8-3.5 0-.2.1-.4.1-.7v-.2c.3-1.4.5-2.9.8-4.3.1-.4.1-.8.2-1.1.2-1.1.3-2.2.4-3.3.1-.5.1-.9.2-1.4.1-1.1.2-2.3.3-3.4 0-.3.1-.6.1-1 .1-1.4.2-2.9.2-4.3v-.3-3l.2-65.7c0 1.5-.1 2.6-.1 3.7zM418.2 316.8l-.1 65.7-4.8-5.9.2-65.8z"/>
        <path fill="#FFF" d="M830.6 600.4l-.2 65.7-9.2-3.8.1-65.7z"/>
        <path stroke="#001A64" stroke-linecap="round" stroke-linejoin="round" stroke-width="1.445" d="M830.6 600.4l-.2 65.7-9.2-3.8.1-65.7z"/>
        <path fill="#FFF" d="M795.2 348.8c58.7 33.9 91.3 77.2 97.7 121.4 6.5 44.3-13.2 89.6-59.1 127.4l-3.2 2.7-9.3-3.8 3.2-2.7c44.3-36.6 63.4-80.3 57.1-123.1-6.2-42.8-37.7-84.6-94.5-117.3-49.3-28.5-110.5-45.9-174.2-52.2-63.7-6.3-130-1.6-189.7 14.2l-5.1 1.4-4.7-5.9 5.1-1.4c61.8-16.4 130.3-21.2 196.3-14.7 66.1 6.6 129.4 24.6 180.4 54"/>
        <path stroke="#001A64" stroke-linecap="round" stroke-linejoin="round" stroke-width="1.445" d="M795.2 348.8c58.7 33.9 91.3 77.2 97.7 121.4 6.5 44.3-13.2 89.6-59.1 127.4l-3.2 2.7-9.3-3.8 3.2-2.7c44.3-36.6 63.4-80.3 57.1-123.1-6.2-42.8-37.7-84.6-94.5-117.3-49.3-28.5-110.5-45.9-174.2-52.2-63.7-6.3-130-1.6-189.7 14.2l-5.1 1.4-4.7-5.9 5.1-1.4c61.8-16.4 130.3-21.2 196.3-14.7 66.1 6.6 129.4 24.6 180.4 54z"/>
        <path fill="#FFF" d="M675.8 597.8c0 .4 0 .8-.1 1.1 0 .3 0 .6-.1 1 0 .4-.1.8-.1 1.1 0 .3-.1.6-.1 1s-.1.8-.2 1.1c0 .3-.1.6-.1 1-.1.4-.1.8-.2 1.2-.1.3-.1.6-.2.9-.1.4-.2.8-.3 1.1-.1.3-.1.6-.2.9-.1.4-.2.8-.3 1.1l-.3.9c-.1.4-.2.8-.4 1.2l-.3.9c-.1.4-.3.8-.4 1.2-.1.3-.2.6-.3.8-.2.6-.5 1.2-.7 1.8 0 .1-.1.2-.1.3l-.9 2.1-.3.6c-.2.5-.5 1-.7 1.4-.1.3-.3.5-.4.8-.2.4-.4.8-.7 1.2-.1.2-.3.5-.4.7-.3.5-.5.9-.8 1.4-.2.3-.3.5-.5.8-.3.4-.6.9-.8 1.3-.2.3-.4.6-.6.8-.3.4-.6.8-.9 1.3-.2.3-.4.6-.6.8-.3.4-.7.9-1 1.3-.2.3-.4.5-.6.7-.6.8-1.2 1.5-1.9 2.3-.1.1-.2.2-.3.4-.5.6-1.1 1.3-1.7 1.9-.2.2-.4.5-.6.7-.5.6-1.1 1.1-1.6 1.7l-.6.6c-.7.7-1.5 1.5-2.3 2.2-.3.3-.6.5-.9.8-.4.3-.7.7-1.1 1-.3.3-.6.5-1 .8-.4.3-.8.7-1.1 1-.3.3-.7.5-1 .8l-1.2.9c-.3.3-.7.5-1.1.8l-1.2.9c-.4.3-.7.5-1.1.8-.4.3-.8.6-1.3.9-.4.3-.8.5-1.2.8-.4.3-.9.6-1.3.9-.4.3-.8.5-1.2.8-.4.3-.9.6-1.3.9-.4.3-.8.5-1.2.8-.5.3-.9.6-1.4.9-.7.4-1.5.9-2.2 1.3-1.6.9-3.3 1.8-4.9 2.7-.4.2-.9.5-1.3.7-1.5.8-3 1.5-4.6 2.3l-.6.3c-1.7.8-3.5 1.6-5.2 2.4-.5.2-.9.4-1.4.6-1.5.6-3 1.3-4.6 1.8-.3.1-.7.3-1 .4-1.8.7-3.7 1.4-5.5 2-.4.2-.9.3-1.3.5-1.3.4-2.5.8-3.8 1.2-1.2.4-2.4.7-3.6 1.1-1 .3-2.1.6-3.1.9-1.2.3-2.5.7-3.7 1-1 .3-2.1.5-3.1.8-1.3.3-2.5.6-3.8.9-1.1.2-2.1.5-3.2.7-1.3.3-2.6.5-3.9.8-1.2.2-2.3.4-3.5.7-.5.1-1.1.2-1.6.3-1.8.3-3.6.6-5.4.8-.3 0-.6.1-.9.1-2.1.3-4.1.5-6.2.8-.5.1-1 .1-1.6.2l-6 .6h-.2c-2.1.2-4.3.3-6.4.4-.4 0-.7 0-1.1.1-1.9.1-3.9.2-5.8.2-1.5 0-2.9.1-4.4.1h-10.5c-1.4 0-2.8-.1-4.3-.2-1 0-2-.1-3-.1-1.5-.1-3.1-.2-4.6-.3-.9-.1-1.8-.1-2.6-.2-1.8-.2-3.6-.3-5.5-.5-.6-.1-1.2-.1-1.7-.2-2.4-.3-4.8-.6-7.1-.9-.4-.1-.7-.1-1.1-.2-2-.3-4.1-.6-6.1-1-.8-.1-1.7-.3-2.5-.5-1.5-.3-3.1-.6-4.6-.9l-5.7-1.2c-.4-.1-.8-.2-1.1-.3-2-.5-3.9-1-5.9-1.5-.3-.1-.5-.1-.8-.2l-5.1-1.5c-.5-.1-1-.3-1.4-.4l-5.7-1.8c-.4-.1-.7-.3-1.1-.4-1.6-.5-3.1-1.1-4.6-1.7-.5-.2-1-.4-1.6-.6l-3.6-1.5c-.8-.3-1.7-.7-2.5-1-1.2-.5-2.3-1-3.5-1.6-.8-.3-1.5-.7-2.3-1-1.3-.6-2.5-1.2-3.7-1.8-.6-.3-1.2-.6-1.9-.9-1.8-1-3.6-1.9-5.4-3-29.4-17-44.1-39.3-44-61.5l-.1 40.9c-.1 22.2 14.6 44.5 44 61.5l5.4 3c.6.3 1.2.6 1.9.9 1.2.6 2.5 1.2 3.7 1.8.7.4 1.5.7 2.3 1 1.2.5 2.3 1 3.5 1.6.8.4 1.6.7 2.5 1 .8.3 1.6.7 2.4 1 .4.2.8.3 1.2.5.5.2 1 .4 1.6.6 1.5.6 3.1 1.1 4.6 1.7.4.1.7.3 1.1.4l5.7 1.8c.5.1 1 .3 1.4.4.8.2 1.6.5 2.5.7.9.2 1.7.5 2.6.7.3.1.5.1.8.2 1.9.5 3.9 1 5.9 1.5.4.1.8.2 1.1.3 1.7.4 3.5.8 5.2 1.1.2 0 .3.1.5.1 1.5.3 3.1.6 4.6.9.8.2 1.7.3 2.5.5 2 .3 4.1.7 6.1 1 .4.1.7.1 1.1.2h.1c2.4.3 4.7.6 7.1.9.5.1 1.1.1 1.6.2 1.8.2 3.7.4 5.5.5h.1c.8.1 1.7.1 2.5.2 1.5.1 3.1.2 4.6.3 1 .1 2 .1 3 .1 1.4.1 2.9.1 4.3.2h2.8c1.6 0 3.1.1 4.7 0h3c1.5 0 2.9 0 4.4-.1h.8c1.7-.1 3.4-.1 5-.2.4 0 .7 0 1.1-.1 2.1-.1 4.3-.3 6.4-.4h.2c1.3-.1 2.5-.2 3.8-.3.7-.1 1.4-.2 2.2-.2.5-.1 1-.1 1.6-.2 2.1-.2 4.1-.5 6.2-.8.3 0 .6-.1.9-.1 1.8-.3 3.6-.5 5.4-.8.5-.1 1.1-.2 1.6-.3.4-.1.8-.1 1.3-.2.7-.1 1.5-.3 2.2-.4 1.3-.2 2.6-.5 3.9-.8 1.1-.2 2.1-.5 3.2-.7 1.3-.3 2.5-.6 3.8-.9 1.1-.3 2.1-.5 3.1-.8 1.2-.3 2.5-.6 3.7-1 1-.3 2.1-.6 3.1-.9 1.2-.4 2.4-.7 3.6-1.1.5-.2 1.1-.3 1.6-.5.7-.2 1.5-.5 2.2-.7.4-.2.9-.3 1.3-.5 1.9-.6 3.7-1.3 5.5-2 .3-.1.7-.3 1-.4 1.5-.6 3.1-1.2 4.6-1.8.5-.2.9-.4 1.4-.6 1.8-.8 3.5-1.5 5.2-2.4l.6-.3c1.5-.7 3.1-1.5 4.6-2.3.4-.2.9-.5 1.3-.7 1.7-.9 3.3-1.8 4.9-2.7.6-.4 1.2-.7 1.8-1.1.1-.1.3-.2.4-.3.5-.3.9-.6 1.4-.9.4-.3.8-.5 1.2-.8.5-.3.9-.6 1.3-.9.4-.3.8-.5 1.2-.8.4-.3.9-.6 1.3-.9.4-.3.8-.5 1.2-.8.4-.3.8-.6 1.3-.9.4-.3.7-.5 1.1-.8l1.2-.9c.4-.3.7-.5 1.1-.8.4-.3.8-.6 1.2-1 .3-.3.7-.5 1-.8.4-.3.8-.6 1.1-1 .3-.3.6-.5 1-.8.4-.3.7-.7 1.1-1 .3-.2.5-.5.8-.7l.1-.1c.8-.7 1.5-1.4 2.3-2.2l.6-.6c.6-.6 1.1-1.1 1.6-1.7.2-.2.4-.5.6-.7.6-.6 1.1-1.3 1.7-1.9.1-.1.2-.2.3-.4.6-.8 1.3-1.5 1.9-2.3 0-.1.1-.1.2-.2.1-.2.3-.4.4-.6.3-.4.7-.9 1-1.3.2-.3.4-.6.6-.8.3-.4.6-.8.9-1.3.2-.3.4-.6.6-.8.3-.4.6-.9.8-1.3.2-.3.3-.5.5-.8.3-.5.6-.9.8-1.4l.3-.6c0-.1.1-.1.1-.2.2-.4.5-.8.7-1.3.1-.3.3-.5.4-.8.2-.5.5-1 .7-1.4l.3-.6.9-2.1c0-.1.1-.2.1-.3.2-.6.5-1.2.7-1.8v-.1c.1-.3.2-.5.3-.8.1-.4.3-.8.4-1.2l.3-.9c.1-.4.2-.8.4-1.2l.3-.9c.1-.4.2-.8.3-1.1.1-.3.1-.6.2-.9.1-.4.2-.8.3-1.1v-.2c0-.2.1-.5.1-.7.1-.4.1-.8.2-1.1.1-.3.1-.6.1-1 .1-.4.1-.8.2-1.1 0-.3.1-.6.1-1s.1-.8.1-1.1c0-.3 0-.7.1-1 0-.4 0-.7.1-1.1v-.4-1.3l.1-40.9c.1 1 .1 1.6.1 2.1"/>
        <path stroke="#001A64" stroke-linecap="round" stroke-linejoin="round" stroke-width="1.445" d="M675.8 597.8c0 .4 0 .8-.1 1.1 0 .3 0 .6-.1 1 0 .4-.1.8-.1 1.1 0 .3-.1.6-.1 1s-.1.8-.2 1.1c0 .3-.1.6-.1 1-.1.4-.1.8-.2 1.2-.1.3-.1.6-.2.9-.1.4-.2.8-.3 1.1-.1.3-.1.6-.2.9-.1.4-.2.8-.3 1.1l-.3.9c-.1.4-.2.8-.4 1.2l-.3.9c-.1.4-.3.8-.4 1.2-.1.3-.2.6-.3.8-.2.6-.5 1.2-.7 1.8 0 .1-.1.2-.1.3l-.9 2.1-.3.6c-.2.5-.5 1-.7 1.4-.1.3-.3.5-.4.8-.2.4-.4.8-.7 1.2-.1.2-.3.5-.4.7-.3.5-.5.9-.8 1.4-.2.3-.3.5-.5.8-.3.4-.6.9-.8 1.3-.2.3-.4.6-.6.8-.3.4-.6.8-.9 1.3-.2.3-.4.6-.6.8-.3.4-.7.9-1 1.3-.2.3-.4.5-.6.7-.6.8-1.2 1.5-1.9 2.3-.1.1-.2.2-.3.4-.5.6-1.1 1.3-1.7 1.9-.2.2-.4.5-.6.7-.5.6-1.1 1.1-1.6 1.7l-.6.6c-.7.7-1.5 1.5-2.3 2.2-.3.3-.6.5-.9.8-.4.3-.7.7-1.1 1-.3.3-.6.5-1 .8-.4.3-.8.7-1.1 1-.3.3-.7.5-1 .8l-1.2.9c-.3.3-.7.5-1.1.8l-1.2.9c-.4.3-.7.5-1.1.8-.4.3-.8.6-1.3.9-.4.3-.8.5-1.2.8-.4.3-.9.6-1.3.9-.4.3-.8.5-1.2.8-.4.3-.9.6-1.3.9-.4.3-.8.5-1.2.8-.5.3-.9.6-1.4.9-.7.4-1.5.9-2.2 1.3-1.6.9-3.3 1.8-4.9 2.7-.4.2-.9.5-1.3.7-1.5.8-3 1.5-4.6 2.3l-.6.3c-1.7.8-3.5 1.6-5.2 2.4-.5.2-.9.4-1.4.6-1.5.6-3 1.3-4.6 1.8-.3.1-.7.3-1 .4-1.8.7-3.7 1.4-5.5 2-.4.2-.9.3-1.3.5-1.3.4-2.5.8-3.8 1.2-1.2.4-2.4.7-3.6 1.1-1 .3-2.1.6-3.1.9-1.2.3-2.5.7-3.7 1-1 .3-2.1.5-3.1.8-1.3.3-2.5.6-3.8.9-1.1.2-2.1.5-3.2.7-1.3.3-2.6.5-3.9.8-1.2.2-2.3.4-3.5.7-.5.1-1.1.2-1.6.3-1.8.3-3.6.6-5.4.8-.3 0-.6.1-.9.1-2.1.3-4.1.5-6.2.8-.5.1-1 .1-1.6.2l-6 .6h-.2c-2.1.2-4.3.3-6.4.4-.4 0-.7 0-1.1.1-1.9.1-3.9.2-5.8.2-1.5 0-2.9.1-4.4.1h-10.5c-1.4 0-2.8-.1-4.3-.2-1 0-2-.1-3-.1-1.5-.1-3.1-.2-4.6-.3-.9-.1-1.8-.1-2.6-.2-1.8-.2-3.6-.3-5.5-.5-.6-.1-1.2-.1-1.7-.2-2.4-.3-4.8-.6-7.1-.9-.4-.1-.7-.1-1.1-.2-2-.3-4.1-.6-6.1-1-.8-.1-1.7-.3-2.5-.5-1.5-.3-3.1-.6-4.6-.9l-5.7-1.2c-.4-.1-.8-.2-1.1-.3-2-.5-3.9-1-5.9-1.5-.3-.1-.5-.1-.8-.2l-5.1-1.5c-.5-.1-1-.3-1.4-.4l-5.7-1.8c-.4-.1-.7-.3-1.1-.4-1.6-.5-3.1-1.1-4.6-1.7-.5-.2-1-.4-1.6-.6l-3.6-1.5c-.8-.3-1.7-.7-2.5-1-1.2-.5-2.3-1-3.5-1.6-.8-.3-1.5-.7-2.3-1-1.3-.6-2.5-1.2-3.7-1.8-.6-.3-1.2-.6-1.9-.9-1.8-1-3.6-1.9-5.4-3-29.4-17-44.1-39.3-44-61.5l-.1 40.9c-.1 22.2 14.6 44.5 44 61.5l5.4 3c.6.3 1.2.6 1.9.9 1.2.6 2.5 1.2 3.7 1.8.7.4 1.5.7 2.3 1 1.2.5 2.3 1 3.5 1.6.8.4 1.6.7 2.5 1 .8.3 1.6.7 2.4 1 .4.2.8.3 1.2.5.5.2 1 .4 1.6.6 1.5.6 3.1 1.1 4.6 1.7.4.1.7.3 1.1.4l5.7 1.8c.5.1 1 .3 1.4.4.8.2 1.6.5 2.5.7.9.2 1.7.5 2.6.7.3.1.5.1.8.2 1.9.5 3.9 1 5.9 1.5.4.1.8.2 1.1.3 1.7.4 3.5.8 5.2 1.1.2 0 .3.1.5.1 1.5.3 3.1.6 4.6.9.8.2 1.7.3 2.5.5 2 .3 4.1.7 6.1 1 .4.1.7.1 1.1.2h.1c2.4.3 4.7.6 7.1.9.5.1 1.1.1 1.6.2 1.8.2 3.7.4 5.5.5h.1c.8.1 1.7.1 2.5.2 1.5.1 3.1.2 4.6.3 1 .1 2 .1 3 .1 1.4.1 2.9.1 4.3.2h2.8c1.6 0 3.1.1 4.7 0h3c1.5 0 2.9 0 4.4-.1h.8c1.7-.1 3.4-.1 5-.2.4 0 .7 0 1.1-.1 2.1-.1 4.3-.3 6.4-.4h.2c1.3-.1 2.5-.2 3.8-.3.7-.1 1.4-.2 2.2-.2.5-.1 1-.1 1.6-.2 2.1-.2 4.1-.5 6.2-.8.3 0 .6-.1.9-.1 1.8-.3 3.6-.5 5.4-.8.5-.1 1.1-.2 1.6-.3.4-.1.8-.1 1.3-.2.7-.1 1.5-.3 2.2-.4 1.3-.2 2.6-.5 3.9-.8 1.1-.2 2.1-.5 3.2-.7 1.3-.3 2.5-.6 3.8-.9 1.1-.3 2.1-.5 3.1-.8 1.2-.3 2.5-.6 3.7-1 1-.3 2.1-.6 3.1-.9 1.2-.4 2.4-.7 3.6-1.1.5-.2 1.1-.3 1.6-.5.7-.2 1.5-.5 2.2-.7.4-.2.9-.3 1.3-.5 1.9-.6 3.7-1.3 5.5-2 .3-.1.7-.3 1-.4 1.5-.6 3.1-1.2 4.6-1.8.5-.2.9-.4 1.4-.6 1.8-.8 3.5-1.5 5.2-2.4l.6-.3c1.5-.7 3.1-1.5 4.6-2.3.4-.2.9-.5 1.3-.7 1.7-.9 3.3-1.8 4.9-2.7.6-.4 1.2-.7 1.8-1.1.1-.1.3-.2.4-.3.5-.3.9-.6 1.4-.9.4-.3.8-.5 1.2-.8.5-.3.9-.6 1.3-.9.4-.3.8-.5 1.2-.8.4-.3.9-.6 1.3-.9.4-.3.8-.5 1.2-.8.4-.3.8-.6 1.3-.9.4-.3.7-.5 1.1-.8l1.2-.9c.4-.3.7-.5 1.1-.8.4-.3.8-.6 1.2-1 .3-.3.7-.5 1-.8.4-.3.8-.6 1.1-1 .3-.3.6-.5 1-.8.4-.3.7-.7 1.1-1 .3-.2.5-.5.8-.7l.1-.1c.8-.7 1.5-1.4 2.3-2.2l.6-.6c.6-.6 1.1-1.1 1.6-1.7.2-.2.4-.5.6-.7.6-.6 1.1-1.3 1.7-1.9.1-.1.2-.2.3-.4.6-.8 1.3-1.5 1.9-2.3 0-.1.1-.1.2-.2.1-.2.3-.4.4-.6.3-.4.7-.9 1-1.3.2-.3.4-.6.6-.8.3-.4.6-.8.9-1.3.2-.3.4-.6.6-.8.3-.4.6-.9.8-1.3.2-.3.3-.5.5-.8.3-.5.6-.9.8-1.4l.3-.6c0-.1.1-.1.1-.2.2-.4.5-.8.7-1.3.1-.3.3-.5.4-.8.2-.5.5-1 .7-1.4l.3-.6.9-2.1c0-.1.1-.2.1-.3.2-.6.5-1.2.7-1.8v-.1c.1-.3.2-.5.3-.8.1-.4.3-.8.4-1.2l.3-.9c.1-.4.2-.8.4-1.2l.3-.9c.1-.4.2-.8.3-1.1.1-.3.1-.6.2-.9.1-.4.2-.8.3-1.1v-.2c0-.2.1-.5.1-.7.1-.4.1-.8.2-1.1.1-.3.1-.6.1-1 .1-.4.1-.8.2-1.1 0-.3.1-.6.1-1s.1-.8.1-1.1c0-.3 0-.7.1-1 0-.4 0-.7.1-1.1v-.4-1.3l.1-40.9c.1 1 .1 1.6.1 2.1z"/>
        <path fill="#FFF" d="M631.7 534.6c58.5 33.7 58.8 88.4.7 122.2-58.1 33.7-152.5 33.7-211 0s-58.8-88.4-.7-122.2c58.1-33.7 152.6-33.7 211 0"/>
        <path stroke="#001A64" stroke-linecap="round" stroke-linejoin="round" stroke-width="1.445" d="M631.7 534.6c58.5 33.7 58.8 88.4.7 122.2-58.1 33.7-152.5 33.7-211 0s-58.8-88.4-.7-122.2c58.1-33.7 152.6-33.7 211 0z"/>
        <path fill="#FFF" d="M646.6 682.4v13.8l-14.1 8.2v13.7l-14 8.2v13.8l-14 8.1V762l-14 8.1-.1 13.8-14 8.1v13.8l-14 8.2v13.7l115.3-66.9v-82.6l.1-13.8z"/>
        <path stroke="#001A64" stroke-linecap="round" stroke-linejoin="round" stroke-width="1.445" d="M646.6 682.4v13.8l-14.1 8.2v13.7l-14 8.2v13.8l-14 8.1V762l-14 8.1-.1 13.8-14 8.1v13.8l-14 8.2v13.7l115.3-66.9v-82.6l.1-13.8z"/>
        <path fill="#FFF" d="M576.4 805.8l-14 8.2-31.2-18 14-8.2z"/>
        <path stroke="#001A64" stroke-linecap="round" stroke-linejoin="round" stroke-width="1.445" d="M576.4 805.8l-14 8.2-31.2-18 14-8.2z"/>
        <path fill="#FFF" d="M562.4 814v13.7l-31.2-18V796z"/>
        <path stroke="#001A64" stroke-linecap="round" stroke-linejoin="round" stroke-width="1.445" d="M562.4 814v13.7l-31.2-18V796z"/>
        <path fill="#FFF" d="M590.4 783.9l-14 8.1-31.1-18 14-8.1z"/>
        <path stroke="#001A64" stroke-linecap="round" stroke-linejoin="round" stroke-width="1.445" d="M590.4 783.9l-14 8.1-31.1-18 14-8.1z"/>
        <path fill="#FFF" d="M576.4 792v13.8l-31.2-18 .1-13.8z"/>
        <path stroke="#001A64" stroke-linecap="round" stroke-linejoin="round" stroke-width="1.445" d="M576.4 792v13.8l-31.2-18 .1-13.8z"/>
        <path fill="#FFF" d="M604.5 762l-14 8.1-31.2-18 14-8.1z"/>
        <path stroke="#001A64" stroke-linecap="round" stroke-linejoin="round" stroke-width="1.445" d="M604.5 762l-14 8.1-31.2-18 14-8.1z"/>
        <path fill="#FFF" d="M590.5 770.1l-.1 13.8-31.1-18v-13.8z"/>
        <path stroke="#001A64" stroke-linecap="round" stroke-linejoin="round" stroke-width="1.445" d="M590.5 770.1l-.1 13.8-31.1-18v-13.8z"/>
        <path fill="#FFF" d="M618.5 740.1l-14 8.1-31.2-18 14-8.1z"/>
        <path stroke="#001A64" stroke-linecap="round" stroke-linejoin="round" stroke-width="1.445" d="M618.5 740.1l-14 8.1-31.2-18 14-8.1z"/>
        <path fill="#FFF" d="M604.5 748.2V762l-31.2-18v-13.8z"/>
        <path stroke="#001A64" stroke-linecap="round" stroke-linejoin="round" stroke-width="1.445" d="M604.5 748.2V762l-31.2-18v-13.8z"/>
        <path fill="#FFF" d="M632.5 718.1l-14 8.2-31.2-18 14-8.2z"/>
        <path stroke="#001A64" stroke-linecap="round" stroke-linejoin="round" stroke-width="1.445" d="M632.5 718.1l-14 8.2-31.2-18 14-8.2z"/>
        <path fill="#FFF" d="M618.5 726.3v13.8l-31.2-18v-13.8z"/>
        <path stroke="#001A64" stroke-linecap="round" stroke-linejoin="round" stroke-width="1.445" d="M618.5 726.3v13.8l-31.2-18v-13.8z"/>
        <path fill="#FFF" d="M646.6 696.2l-14.1 8.2-31.1-18 14-8.2z"/>
        <path stroke="#001A64" stroke-linecap="round" stroke-linejoin="round" stroke-width="1.445" d="M646.6 696.2l-14.1 8.2-31.1-18 14-8.2z"/>
        <path fill="#FFF" d="M632.5 704.4v13.7l-31.2-18 .1-13.7z"/>
        <path stroke="#001A64" stroke-linecap="round" stroke-linejoin="round" stroke-width="1.445" d="M632.5 704.4v13.7l-31.2-18 .1-13.7z"/>
        <path fill="#FFF" d="M677.8 664.4l-31.2 18-31.2-17.1s8.6-3.9 17.6-8.8c7.4-4 14-9.5 14-9.5l30.8 17.4z"/>
        <path stroke="#001A64" stroke-linecap="round" stroke-linejoin="round" stroke-width="1.445" d="M677.8 664.4l-31.2 18-31.2-17.1s8.6-3.9 17.6-8.8c7.4-4 14-9.5 14-9.5l30.8 17.4z"/>
        <path fill="#FFF" d="M646.6 682.4v13.8l-31.2-18v-12.9z"/>
        <path stroke="#001A64" stroke-linecap="round" stroke-linejoin="round" stroke-width="1.445" d="M646.6 682.4v13.8l-31.2-18v-12.9z"/>
        <path fill="#FFF" d="M712.1 442c.8-.2 1.5-.4 2.3-.5.2 0 .5-.1.7-.1l1.5-.3c.2 0 .5-.1.7-.1.7-.1 1.4-.2 2.2-.2.7-.1 1.3-.1 2-.1h2.4c1.2 0 2.3 0 3.4.1h.4c1.1.1 2.1.2 3.1.3.1 0 .3 0 .4.1 1 .1 2 .3 2.9.5.2 0 .3.1.5.1.3.1.6.1.9.2.2 0 .4.1.7.1.3.1.5.1.8.2.2.1.4.1.6.2.3.1.6.2.9.2.2 0 .4.1.5.1l.9.3c.1 0 .2.1.4.1.4.1.8.3 1.2.4.1 0 .2.1.3.1.3.1.6.2.8.3.1 0 .3.1.4.1.2.1.5.2.7.3.1 0 .2.1.3.1.2.1.4.2.6.2.1 0 .2.1.3.1.3.1.6.2.8.3.1 0 .1 0 .2.1.2.1.4.2.5.2.1 0 .1 0 .2.1.1 0 .2.1.3.1h.1c.1 0 .1.1.2.1h.1l19.2-11.1s-.1-.1-.2-.1h-.1c-.1 0-.2-.1-.3-.1h-.1-.1c-.2-.1-.3-.1-.5-.2-.1 0-.1 0-.2-.1-.2-.1-.5-.2-.8-.3h-.1c-.1 0-.1 0-.2-.1-.2-.1-.4-.2-.7-.3-.1 0-.2-.1-.3-.1-.2-.1-.5-.2-.7-.3-.1 0-.2-.1-.2-.1h-.1c-.3-.1-.5-.2-.8-.3-.1 0-.2-.1-.3-.1-.4-.1-.8-.3-1.2-.4-.1 0-.2-.1-.3-.1l-.9-.3c-.2 0-.3-.1-.5-.1-.3-.1-.6-.2-.9-.2-.1 0-.1 0-.2-.1-.1 0-.3-.1-.4-.1-.3-.1-.5-.1-.8-.2-.2-.1-.4-.1-.7-.1-.3-.1-.6-.1-.9-.2-.1 0-.2 0-.3-.1h-.2c-.9-.2-1.9-.3-2.9-.5h-.4c-1-.1-2.1-.2-3.1-.3h-.4c-1.1-.1-2.3-.1-3.4-.1H740.9c-.6 0-1.3.1-1.9.1-.7.1-1.4.1-2.2.2-.2 0-.5.1-.7.1l-1.5.3c-.1 0-.3 0-.4.1-.1 0-.2.1-.3.1-.8.2-1.5.3-2.3.5-.1 0-.2 0-.3.1-.8.2-1.7.5-2.6.8-.1 0-.2.1-.3.1-.2.1-.5.2-.7.3-.3.1-.5.2-.8.3-.4.1-.8.3-1.1.5-.2.1-.5.2-.7.3-.4.2-.8.4-1.3.6l-.6.3c-.6.3-1.3.7-1.9 1l-13.7 7.9c-.2 0-.3.1-.5.1-.8.1-1.5.3-2.3.3h-.5c-.8.1-1.7.1-2.5.1h-.1c-1 0-2.1 0-3.2-.1h-.1c-.7-.1-1.4-.1-2.2-.2-.2 0-.4 0-.6-.1-.5-.1-1.1-.1-1.6-.2-.2 0-.4-.1-.6-.1-1.1-.2-2.2-.3-3.3-.5-.2 0-.3-.1-.5-.1-1.2-.2-2.3-.4-3.5-.6-1.1-.2-2.3-.4-3.5-.6-.2 0-.4-.1-.6-.1-1.1-.2-2.2-.4-3.4-.5h-.6c-.6-.1-1.2-.2-1.8-.2-.2 0-.4 0-.6-.1-.8-.1-1.5-.2-2.3-.2H672.4c-.3 0-.7 0-1-.1h-3.6c-.5 0-1 .1-1.4.1h-.3c-.6.1-1.1.1-1.7.2-.2 0-.3.1-.5.1-.3.1-.7.1-1 .2h-.2c-.3.1-.6.1-.8.2-.3.1-.6.1-.9.2-.3.1-.6.2-.8.3-.2.1-.5.1-.7.2 0 0-.1 0-.1.1-.4.1-.8.3-1.1.5-.2.1-.4.2-.6.2-.6.3-1.1.5-1.6.9l-19.2 11.1c.5-.3 1.1-.6 1.6-.9.2-.1.4-.2.6-.2.4-.2.8-.3 1.1-.5.3-.1.6-.2.8-.3.3-.1.5-.2.8-.3.3-.1.6-.1.9-.2.3-.1.6-.1.8-.2.4-.1.8-.1 1.2-.2.2 0 .3-.1.5-.1.6-.1 1.1-.1 1.7-.2h.3c.5 0 1-.1 1.4-.1h3.6c.3 0 .7 0 1 .1.3 0 .6 0 .9.1.8.1 1.5.1 2.3.2.2 0 .4 0 .6.1.6.1 1.2.1 1.8.2.2 0 .4.1.6.1 1.1.2 2.2.3 3.4.5.2 0 .4.1.6.1 1.2.2 2.3.4 3.5.6 1.2.2 2.4.4 3.5.6.2 0 .3.1.5.1 1.1.2 2.2.4 3.3.5h.7c.6.1 1.1.1 1.6.2.2 0 .4.1.6.1.7.1 1.5.1 2.2.2h.2c1.1.1 2.1.1 3.2.1h.1c.9 0 1.7 0 2.5-.1h.5c.8-.1 1.6-.2 2.3-.3h.2c.2 0 .5-.1.7-.2.2 0 .4-.1.6-.1.3-.1.7-.2 1-.3.1 0 .3-.1.4-.1h.1c.3-.1.6-.2.9-.4.2-.1.3-.1.5-.2.5-.2.9-.4 1.4-.7l16.4-9.5c.7-.2 1.4-.5 2.1-.6-.5-.4-.4-.5-.3-.5"/>
        <path stroke="#001A64" stroke-linecap="round" stroke-linejoin="round" stroke-width="1.445" d="M712.1 442c.8-.2 1.5-.4 2.3-.5.2 0 .5-.1.7-.1l1.5-.3c.2 0 .5-.1.7-.1.7-.1 1.4-.2 2.2-.2.7-.1 1.3-.1 2-.1h2.4c1.2 0 2.3 0 3.4.1h.4c1.1.1 2.1.2 3.1.3.1 0 .3 0 .4.1 1 .1 2 .3 2.9.5.2 0 .3.1.5.1.3.1.6.1.9.2.2 0 .4.1.7.1.3.1.5.1.8.2.2.1.4.1.6.2.3.1.6.2.9.2.2 0 .4.1.5.1l.9.3c.1 0 .2.1.4.1.4.1.8.3 1.2.4.1 0 .2.1.3.1.3.1.6.2.8.3.1 0 .3.1.4.1.2.1.5.2.7.3.1 0 .2.1.3.1.2.1.4.2.6.2.1 0 .2.1.3.1.3.1.6.2.8.3.1 0 .1 0 .2.1.2.1.4.2.5.2.1 0 .1 0 .2.1.1 0 .2.1.3.1h.1c.1 0 .1.1.2.1h.1l19.2-11.1s-.1-.1-.2-.1h-.1c-.1 0-.2-.1-.3-.1h-.1-.1c-.2-.1-.3-.1-.5-.2-.1 0-.1 0-.2-.1-.2-.1-.5-.2-.8-.3h-.1c-.1 0-.1 0-.2-.1-.2-.1-.4-.2-.7-.3-.1 0-.2-.1-.3-.1-.2-.1-.5-.2-.7-.3-.1 0-.2-.1-.2-.1h-.1c-.3-.1-.5-.2-.8-.3-.1 0-.2-.1-.3-.1-.4-.1-.8-.3-1.2-.4-.1 0-.2-.1-.3-.1l-.9-.3c-.2 0-.3-.1-.5-.1-.3-.1-.6-.2-.9-.2-.1 0-.1 0-.2-.1-.1 0-.3-.1-.4-.1-.3-.1-.5-.1-.8-.2-.2-.1-.4-.1-.7-.1-.3-.1-.6-.1-.9-.2-.1 0-.2 0-.3-.1h-.2c-.9-.2-1.9-.3-2.9-.5h-.4c-1-.1-2.1-.2-3.1-.3h-.4c-1.1-.1-2.3-.1-3.4-.1H740.9c-.6 0-1.3.1-1.9.1-.7.1-1.4.1-2.2.2-.2 0-.5.1-.7.1l-1.5.3c-.1 0-.3 0-.4.1-.1 0-.2.1-.3.1-.8.2-1.5.3-2.3.5-.1 0-.2 0-.3.1-.8.2-1.7.5-2.6.8-.1 0-.2.1-.3.1-.2.1-.5.2-.7.3-.3.1-.5.2-.8.3-.4.1-.8.3-1.1.5-.2.1-.5.2-.7.3-.4.2-.8.4-1.3.6l-.6.3c-.6.3-1.3.7-1.9 1l-13.7 7.9c-.2 0-.3.1-.5.1-.8.1-1.5.3-2.3.3h-.5c-.8.1-1.7.1-2.5.1h-.1c-1 0-2.1 0-3.2-.1h-.1c-.7-.1-1.4-.1-2.2-.2-.2 0-.4 0-.6-.1-.5-.1-1.1-.1-1.6-.2-.2 0-.4-.1-.6-.1-1.1-.2-2.2-.3-3.3-.5-.2 0-.3-.1-.5-.1-1.2-.2-2.3-.4-3.5-.6-1.1-.2-2.3-.4-3.5-.6-.2 0-.4-.1-.6-.1-1.1-.2-2.2-.4-3.4-.5h-.6c-.6-.1-1.2-.2-1.8-.2-.2 0-.4 0-.6-.1-.8-.1-1.5-.2-2.3-.2H672.4c-.3 0-.7 0-1-.1h-3.6c-.5 0-1 .1-1.4.1h-.3c-.6.1-1.1.1-1.7.2-.2 0-.3.1-.5.1-.3.1-.7.1-1 .2h-.2c-.3.1-.6.1-.8.2-.3.1-.6.1-.9.2-.3.1-.6.2-.8.3-.2.1-.5.1-.7.2 0 0-.1 0-.1.1-.4.1-.8.3-1.1.5-.2.1-.4.2-.6.2-.6.3-1.1.5-1.6.9l-19.2 11.1c.5-.3 1.1-.6 1.6-.9.2-.1.4-.2.6-.2.4-.2.8-.3 1.1-.5.3-.1.6-.2.8-.3.3-.1.5-.2.8-.3.3-.1.6-.1.9-.2.3-.1.6-.1.8-.2.4-.1.8-.1 1.2-.2.2 0 .3-.1.5-.1.6-.1 1.1-.1 1.7-.2h.3c.5 0 1-.1 1.4-.1h3.6c.3 0 .7 0 1 .1.3 0 .6 0 .9.1.8.1 1.5.1 2.3.2.2 0 .4 0 .6.1.6.1 1.2.1 1.8.2.2 0 .4.1.6.1 1.1.2 2.2.3 3.4.5.2 0 .4.1.6.1 1.2.2 2.3.4 3.5.6 1.2.2 2.4.4 3.5.6.2 0 .3.1.5.1 1.1.2 2.2.4 3.3.5h.7c.6.1 1.1.1 1.6.2.2 0 .4.1.6.1.7.1 1.5.1 2.2.2h.2c1.1.1 2.1.1 3.2.1h.1c.9 0 1.7 0 2.5-.1h.5c.8-.1 1.6-.2 2.3-.3h.2c.2 0 .5-.1.7-.2.2 0 .4-.1.6-.1.3-.1.7-.2 1-.3.1 0 .3-.1.4-.1h.1c.3-.1.6-.2.9-.4.2-.1.3-.1.5-.2.5-.2.9-.4 1.4-.7l16.4-9.5c.7-.2 1.4-.5 2.1-.6-.5-.4-.4-.5-.3-.5z"/>
        <path fill="#FFF" d="M747.2 445.7l19.2-11.2-.3 89.7-19.2 11.1z"/>
        <path stroke="#001A64" stroke-linecap="round" stroke-linejoin="round" stroke-width="1.445" d="M747.2 445.7l19.2-11.2-.3 89.7-19.2 11.1z"/>
        <path fill="#FFF" d="M747.2 445.7l-.3 89.7L626.6 466c13.7-31.7 52-.8 68.9-15.2 22.5-19.1 50.2-5.8 51.7-5.1"/>
        <path stroke="#001A64" stroke-linecap="round" stroke-linejoin="round" stroke-width="1.445" d="M747.2 445.7l-.3 89.7L626.6 466c13.7-31.7 52-.8 68.9-15.2 22.5-19.1 50.2-5.8 51.7-5.1z"/>
        <path fill="#FFF" d="M680.5 471.6c.3-.1.6-.3 1-.4.5-.2 1-.4 1.6-.6.3-.1.7-.2 1-.4.5-.2 1-.4 1.5-.5.3-.1.7-.2 1-.3.5-.2 1-.3 1.5-.5l.9-.3c.6-.2 1.1-.3 1.7-.4.2-.1.5-.1.7-.2.8-.2 1.5-.3 2.3-.5 1-.2 1.9-.3 2.9-.5.3 0 .5-.1.8-.1.7-.1 1.4-.2 2.1-.2.3 0 .5-.1.8-.1.5 0 1-.1 1.5-.1h5.1c.5 0 1 0 1.5.1h.4c1.2.1 2.3.2 3.3.3h.2c.9.1 1.8.3 2.7.4.1 0 .3 0 .4.1.8.2 1.6.3 2.3.5.1 0 .3.1.4.1.7.2 1.4.4 2 .6.1 0 .1 0 .2.1.6.2 1.2.4 1.7.6.1 0 .1 0 .2.1.6.2 1.1.4 1.5.6.1.1.3.1.4.2.1 0 .2.1.3.1.2.1.3.1.5.2.1 0 .2.1.3.1.2.1.3.1.5.2.1 0 .2.1.2.1.2.1.3.2.5.2h.1c.2.1.3.2.5.2.1.1.3.1.4.2.1.1.2.1.2.1h.1s.1 0 .1.1l19.2-11.1c-.1 0-.2-.1-.3-.2-.1 0-.1-.1-.2-.1-.1-.1-.2-.1-.3-.2-.1 0-.1-.1-.2-.1-.1-.1-.2-.1-.4-.2 0 0-.1 0-.1-.1-.1-.1-.3-.1-.4-.2-.1 0-.2-.1-.2-.1-.1-.1-.2-.1-.3-.2h-.1c-.1 0-.2-.1-.3-.1-.2-.1-.3-.1-.5-.2-.1 0-.2-.1-.3-.1-.1 0-.2-.1-.3-.1 0 0-.1 0-.1-.1l-1.5-.6h-.1-.1c-.5-.2-1.1-.4-1.7-.6-.1 0-.1 0-.2-.1h-.1c-.6-.2-1.3-.4-2-.6-.1 0-.1 0-.2-.1h-.2c-.7-.2-1.5-.4-2.3-.5h-.4c-.9-.2-1.8-.3-2.7-.4h-.1-.1c-1.1-.1-2.2-.3-3.3-.3h-.4c-.5 0-1-.1-1.5-.1H724 720.9c-.5 0-1 .1-1.5.1h-.3c-.2 0-.3 0-.5.1-.7.1-1.4.1-2.1.2-.3 0-.5.1-.8.1-.9.1-1.9.3-2.9.5-.7.1-1.5.3-2.3.5-.2.1-.5.1-.7.2-.6.1-1.1.3-1.7.4l-.9.3c-.5.1-1 .3-1.5.5-.3.1-.7.2-1 .3-.3.1-.6.2-.8.3-.2.1-.5.2-.7.3-.3.1-.7.2-1 .4-.5.2-1 .4-1.6.6-.3.1-.6.3-1 .4-.6.2-1.2.5-1.7.8-.3.1-.6.2-.8.4-.9.4-1.7.8-2.6 1.3-.5.3-1.1.5-1.7.7-.5.2-1 .3-1.4.5-.1 0-.3.1-.4.1-.3.1-.6.1-1 .2s-.7.1-1.1.2c-.3 0-.5.1-.8.1h-2.8c-.3 0-.6 0-.9-.1-.3 0-.7-.1-1-.1-.3 0-.6-.1-.9-.1-.4-.1-.7-.1-1.1-.2-.3 0-.5-.1-.8-.1-.7-.1-1.4-.3-2.2-.5h-.1c-.8-.2-1.6-.4-2.5-.7-.2-.1-.4-.1-.6-.2-1.2-.4-2.3-.8-3.5-1.2-.2-.1-.4-.1-.6-.2-1-.3-1.9-.7-2.9-1.1-.2-.1-.4-.1-.5-.2-.9-.4-1.9-.7-2.8-1.1-1-.4-2-.8-3-1.1-.2-.1-.4-.2-.7-.2-1-.4-2-.7-3-1.1h-.1-.1c-1.2-.4-2.5-.8-3.7-1.2h-.1c-.1 0-.2-.1-.3-.1-.7-.2-1.3-.4-2-.6-.1 0-.3-.1-.4-.1-.1 0-.2-.1-.4-.1l-1.5-.3c-.2 0-.3-.1-.5-.1h-.2c-.4-.1-.9-.1-1.3-.2-.2 0-.4-.1-.6-.1h-.1c-.3 0-.7-.1-1-.1-.3 0-.5-.1-.8-.1h-1.8-.1c-.4 0-.8 0-1.2.1h-.6c-.6.1-1.2.1-1.8.3-.5.1-1 .2-1.4.4-.1 0-.3.1-.4.1-.2 0-.3.1-.5.1l-.6.3c-.2.1-.3.1-.5.2-.5.2-1 .5-1.4.7l-19.2 11.1c.5-.3.9-.5 1.4-.7.1-.1.3-.1.5-.2.4-.1.7-.3 1.1-.4.1 0 .3-.1.4-.1.5-.1 1-.3 1.5-.4l1.8-.3h.6c.4 0 .8-.1 1.2-.1h1.8c.3 0 .6.1.9.1.3 0 .7.1 1 .1.2 0 .5.1.7.1.4.1.9.1 1.3.2.2 0 .5.1.7.2l1.5.3c.2.1.5.1.7.2.7.2 1.3.4 2 .6.1 0 .3.1.4.1 1.2.4 2.5.8 3.7 1.2.1 0 .2.1.3.1 1 .3 2 .7 3 1.1.2.1.4.2.7.2 1 .4 2 .7 3 1.1.9.4 1.9.7 2.8 1.1.2.1.4.1.5.2 1 .4 1.9.7 2.9 1.1.1 0 .2.1.3.1.1 0 .1 0 .2.1 1.2.4 2.4.8 3.5 1.2.1 0 .2.1.3.1.1 0 .2.1.3.1.8.2 1.6.5 2.5.7h.1c.7.2 1.5.3 2.2.5h.2c.2 0 .4.1.6.1.4.1.8.1 1.1.2h.3c.2 0 .4 0 .6.1.3 0 .7.1 1 .1H669.1c.1 0 .3 0 .4-.1.4 0 .7-.1 1.1-.2.1 0 .3 0 .4-.1.2 0 .4-.1.6-.1.1 0 .3-.1.4-.1.5-.1.9-.3 1.4-.4h.1c.6-.2 1.1-.4 1.6-.7.9-.4 1.7-.9 2.6-1.3.3-.1.6-.3.8-.4.9-.5 1.5-.7 2-1"/>
        <path stroke="#001A64" stroke-linecap="round" stroke-linejoin="round" stroke-width="1.445" d="M680.5 471.6c.3-.1.6-.3 1-.4.5-.2 1-.4 1.6-.6.3-.1.7-.2 1-.4.5-.2 1-.4 1.5-.5.3-.1.7-.2 1-.3.5-.2 1-.3 1.5-.5l.9-.3c.6-.2 1.1-.3 1.7-.4.2-.1.5-.1.7-.2.8-.2 1.5-.3 2.3-.5 1-.2 1.9-.3 2.9-.5.3 0 .5-.1.8-.1.7-.1 1.4-.2 2.1-.2.3 0 .5-.1.8-.1.5 0 1-.1 1.5-.1h5.1c.5 0 1 0 1.5.1h.4c1.2.1 2.3.2 3.3.3h.2c.9.1 1.8.3 2.7.4.1 0 .3 0 .4.1.8.2 1.6.3 2.3.5.1 0 .3.1.4.1.7.2 1.4.4 2 .6.1 0 .1 0 .2.1.6.2 1.2.4 1.7.6.1 0 .1 0 .2.1.6.2 1.1.4 1.5.6.1.1.3.1.4.2.1 0 .2.1.3.1.2.1.3.1.5.2.1 0 .2.1.3.1.2.1.3.1.5.2.1 0 .2.1.2.1.2.1.3.2.5.2h.1c.2.1.3.2.5.2.1.1.3.1.4.2.1.1.2.1.2.1h.1s.1 0 .1.1l19.2-11.1c-.1 0-.2-.1-.3-.2-.1 0-.1-.1-.2-.1-.1-.1-.2-.1-.3-.2-.1 0-.1-.1-.2-.1-.1-.1-.2-.1-.4-.2 0 0-.1 0-.1-.1-.1-.1-.3-.1-.4-.2-.1 0-.2-.1-.2-.1-.1-.1-.2-.1-.3-.2h-.1c-.1 0-.2-.1-.3-.1-.2-.1-.3-.1-.5-.2-.1 0-.2-.1-.3-.1-.1 0-.2-.1-.3-.1 0 0-.1 0-.1-.1l-1.5-.6h-.1-.1c-.5-.2-1.1-.4-1.7-.6-.1 0-.1 0-.2-.1h-.1c-.6-.2-1.3-.4-2-.6-.1 0-.1 0-.2-.1h-.2c-.7-.2-1.5-.4-2.3-.5h-.4c-.9-.2-1.8-.3-2.7-.4h-.1-.1c-1.1-.1-2.2-.3-3.3-.3h-.4c-.5 0-1-.1-1.5-.1H724 720.9c-.5 0-1 .1-1.5.1h-.3c-.2 0-.3 0-.5.1-.7.1-1.4.1-2.1.2-.3 0-.5.1-.8.1-.9.1-1.9.3-2.9.5-.7.1-1.5.3-2.3.5-.2.1-.5.1-.7.2-.6.1-1.1.3-1.7.4l-.9.3c-.5.1-1 .3-1.5.5-.3.1-.7.2-1 .3-.3.1-.6.2-.8.3-.2.1-.5.2-.7.3-.3.1-.7.2-1 .4-.5.2-1 .4-1.6.6-.3.1-.6.3-1 .4-.6.2-1.2.5-1.7.8-.3.1-.6.2-.8.4-.9.4-1.7.8-2.6 1.3-.5.3-1.1.5-1.7.7-.5.2-1 .3-1.4.5-.1 0-.3.1-.4.1-.3.1-.6.1-1 .2s-.7.1-1.1.2c-.3 0-.5.1-.8.1h-2.8c-.3 0-.6 0-.9-.1-.3 0-.7-.1-1-.1-.3 0-.6-.1-.9-.1-.4-.1-.7-.1-1.1-.2-.3 0-.5-.1-.8-.1-.7-.1-1.4-.3-2.2-.5h-.1c-.8-.2-1.6-.4-2.5-.7-.2-.1-.4-.1-.6-.2-1.2-.4-2.3-.8-3.5-1.2-.2-.1-.4-.1-.6-.2-1-.3-1.9-.7-2.9-1.1-.2-.1-.4-.1-.5-.2-.9-.4-1.9-.7-2.8-1.1-1-.4-2-.8-3-1.1-.2-.1-.4-.2-.7-.2-1-.4-2-.7-3-1.1h-.1-.1c-1.2-.4-2.5-.8-3.7-1.2h-.1c-.1 0-.2-.1-.3-.1-.7-.2-1.3-.4-2-.6-.1 0-.3-.1-.4-.1-.1 0-.2-.1-.4-.1l-1.5-.3c-.2 0-.3-.1-.5-.1h-.2c-.4-.1-.9-.1-1.3-.2-.2 0-.4-.1-.6-.1h-.1c-.3 0-.7-.1-1-.1-.3 0-.5-.1-.8-.1h-1.8-.1c-.4 0-.8 0-1.2.1h-.6c-.6.1-1.2.1-1.8.3-.5.1-1 .2-1.4.4-.1 0-.3.1-.4.1-.2 0-.3.1-.5.1l-.6.3c-.2.1-.3.1-.5.2-.5.2-1 .5-1.4.7l-19.2 11.1c.5-.3.9-.5 1.4-.7.1-.1.3-.1.5-.2.4-.1.7-.3 1.1-.4.1 0 .3-.1.4-.1.5-.1 1-.3 1.5-.4l1.8-.3h.6c.4 0 .8-.1 1.2-.1h1.8c.3 0 .6.1.9.1.3 0 .7.1 1 .1.2 0 .5.1.7.1.4.1.9.1 1.3.2.2 0 .5.1.7.2l1.5.3c.2.1.5.1.7.2.7.2 1.3.4 2 .6.1 0 .3.1.4.1 1.2.4 2.5.8 3.7 1.2.1 0 .2.1.3.1 1 .3 2 .7 3 1.1.2.1.4.2.7.2 1 .4 2 .7 3 1.1.9.4 1.9.7 2.8 1.1.2.1.4.1.5.2 1 .4 1.9.7 2.9 1.1.1 0 .2.1.3.1.1 0 .1 0 .2.1 1.2.4 2.4.8 3.5 1.2.1 0 .2.1.3.1.1 0 .2.1.3.1.8.2 1.6.5 2.5.7h.1c.7.2 1.5.3 2.2.5h.2c.2 0 .4.1.6.1.4.1.8.1 1.1.2h.3c.2 0 .4 0 .6.1.3 0 .7.1 1 .1H669.1c.1 0 .3 0 .4-.1.4 0 .7-.1 1.1-.2.1 0 .3 0 .4-.1.2 0 .4-.1.6-.1.1 0 .3-.1.4-.1.5-.1.9-.3 1.4-.4h.1c.6-.2 1.1-.4 1.6-.7.9-.4 1.7-.9 2.6-1.3.3-.1.6-.3.8-.4.9-.5 1.5-.7 2-1z"/>
        <path fill="#FFF" d="M728 471.9l19.1-11.2-.2 74.6-19.1 11.2z"/>
        <path stroke="#001A64" stroke-linecap="round" stroke-linejoin="round" stroke-width="1.445" d="M728 471.9l19.1-11.2-.2 74.6-19.1 11.2z"/>
        <path fill="#FFF" d="M728 471.9l-.2 74.6L607.5 477c13.7-31.7 48 7.2 67.9-3 29.8-15.3 51.4-2.8 52.6-2.1"/>
        <path stroke="#001A64" stroke-linecap="round" stroke-linejoin="round" stroke-width="1.445" d="M728 471.9l-.2 74.6L607.5 477c13.7-31.7 48 7.2 67.9-3 29.8-15.3 51.4-2.8 52.6-2.1z"/>
        <path fill="#FFF" d="M670.4 495.3c.3-.1.7-.2 1-.2.5-.1 1-.3 1.6-.4.3-.1.7-.1 1-.2.5-.1 1-.2 1.4-.3.3-.1.7-.1 1-.2.5-.1.9-.2 1.4-.3.3-.1.7-.1 1-.2.4-.1.9-.1 1.3-.2.3 0 .7-.1 1-.1.4-.1.8-.1 1.2-.2.3 0 .6-.1 1-.1s.8-.1 1.2-.1c.2 0 .4 0 .6-.1.9-.1 1.8-.1 2.7-.2h.1c.9 0 1.8-.1 2.6-.1h2.5c.7 0 1.3.1 1.9.1h.6c.3 0 .7.1 1 .1.2 0 .4 0 .6.1.3 0 .7.1 1 .1.2 0 .3 0 .5.1.3 0 .5.1.8.1.2 0 .3.1.5.1.3 0 .5.1.8.1.1 0 .3.1.4.1.2 0 .3.1.5.1s.4.1.5.1c.2 0 .3.1.5.1s.3.1.5.1c.5.1 1 .3 1.4.4.1 0 .1 0 .2.1.4.1.8.2 1.1.4.1 0 .1 0 .2.1l.9.3h.1l.6.3s.1 0 .1.1c.2.1.3.2.5.2h.1c.1.1.2.1.3.1.1 0 .1.1.1.1l19.2-11.1s-.1 0-.1-.1c-.1 0-.2-.1-.3-.1h-.1c-.1-.1-.3-.1-.5-.2h-.1l-.6-.3h-.1l-.9-.3h-.1-.1c-.3-.1-.7-.2-1.1-.4h-.1-.1c-.4-.1-.9-.3-1.4-.4-.1 0-.3-.1-.4-.1-.2 0-.3-.1-.5-.1s-.4-.1-.5-.1c-.2 0-.3-.1-.5-.1h-.1c-.1 0-.2 0-.4-.1-.3 0-.5-.1-.8-.1-.2 0-.3-.1-.5-.1-.3 0-.5-.1-.8-.1h-.5c-.3 0-.6-.1-1-.1-.2 0-.4 0-.6-.1-.3 0-.7-.1-1-.1H714.1c-.6 0-1.2-.1-1.9-.1H709.6c-.8 0-1.7 0-2.6.1h-.1c-.9 0-1.8.1-2.7.2h-.6c-.4 0-.8.1-1.2.1-.3 0-.6.1-1 .1s-.8.1-1.2.2c-.3 0-.6.1-1 .1-.4.1-.9.1-1.3.2-.3.1-.7.1-1 .2-.5.1-.9.2-1.4.3-.3.1-.6.1-.8.2h-.1c-.5.1-.9.2-1.4.3-.3.1-.7.1-1 .2-.5.1-1 .2-1.6.4-.3.1-.6.1-1 .2-.6.1-1.2.3-1.8.5-.3.1-.6.1-.9.2-.9.2-1.8.5-2.7.8-.8.3-1.7.5-2.5.6-.8.2-1.5.3-2.3.4-.2 0-.3 0-.5.1-.4 0-.9.1-1.3.1-.5 0-.9.1-1.4.1h-2.5c-.5 0-.9-.1-1.4-.1-.3 0-.7-.1-1-.1-.5-.1-1-.2-1.5-.2-.3 0-.6-.1-.9-.1-.6-.1-1.3-.3-1.9-.4-.1 0-.3-.1-.4-.1-.8-.2-1.6-.4-2.4-.7-.3-.1-.6-.2-1-.3-.5-.2-1-.3-1.5-.5-.9-.3-1.7-.6-2.6-1-.2-.1-.4-.2-.6-.2l-2.1-.9c-.2-.1-.5-.2-.7-.3-1-.4-2-.9-2.9-1.4-.2-.1-.3-.2-.5-.2-1.9-.9-3.7-1.9-5.5-2.9l-.6-.3c-1.2-.6-2.3-1.3-3.5-1.9l-3.3-1.8c-.2-.1-.3-.2-.5-.3-.1 0-.1-.1-.2-.1-.4-.2-.9-.5-1.3-.7-.3-.2-.6-.3-.9-.5-.5-.3-1-.5-1.6-.8l-.6-.3-2.4-1.2c-.1 0-.2-.1-.3-.1-.2-.1-.5-.2-.7-.3-.3-.1-.6-.3-.9-.4-.1 0-.2-.1-.3-.1-.3-.1-.6-.2-.8-.3-.2-.1-.5-.2-.7-.3-.1 0-.1 0-.2-.1-.5-.2-1-.3-1.4-.5h-.1c-.1 0-.2 0-.2-.1-.3-.1-.7-.2-1-.3-.1 0-.3-.1-.4-.1-.1 0-.3-.1-.4-.1-.1 0-.3-.1-.4-.1-.4-.1-.8-.1-1.2-.2h-.1c-.4 0-.7-.1-1-.1h-1.1c-.3 0-.7 0-1 .1h-.2c-.4 0-.8.1-1.2.2h-.1c-.4.1-.8.2-1.2.4-.1 0-.3.1-.4.1h-.1c-.5.2-1.1.5-1.6.8L595.4 479c.5-.3 1-.5 1.6-.8.1-.1.3-.1.5-.1.4-.1.8-.3 1.2-.4.5-.1.9-.2 1.4-.2h2c.5 0 1 .1 1.5.1h.1c.5.1 1 .2 1.6.3.1 0 .3.1.4.1.5.1.9.2 1.4.4.1 0 .2 0 .2.1.6.2 1.1.4 1.7.6.2.1.5.2.7.3.4.1.7.3 1.1.4.3.1.6.3.9.4.3.1.6.3 1 .4.8.4 1.6.7 2.4 1.2l.6.3c.5.3 1 .5 1.6.8.3.2.6.3.9.5.4.2.9.5 1.3.7l.6.3 3.3 1.8c1.1.6 2.3 1.3 3.5 1.9.2.1.4.2.5.3 0 0 .1 0 .1.1 1.8 1 3.6 1.9 5.5 2.9 0 0 .1 0 .1.1.1.1.2.1.3.2 1 .5 1.9.9 2.9 1.4.2.1.3.1.5.2.1 0 .2.1.2.1l2.1.9c.2.1.3.1.5.2h.1c.8.3 1.7.7 2.6 1 .5.2 1 .3 1.4.5l.9.3c.8.2 1.6.5 2.3.6.1 0 .3.1.4.1.6.1 1.2.3 1.8.4h.2c.3.1.6.1.9.1.4.1.8.2 1.3.2h.3c.3 0 .7.1 1 .1.4 0 .7.1 1.1.1h2.9c.5 0 .9 0 1.4-.1h.9c.1 0 .3 0 .4-.1.2 0 .3 0 .5-.1.8-.1 1.5-.2 2.3-.4.8-.2 1.7-.4 2.5-.6.9-.3 1.8-.5 2.7-.8.3-.1.6-.2.9-.2.8 0 1.4-.1 2-.3"/>
        <path stroke="#001A64" stroke-linecap="round" stroke-linejoin="round" stroke-width="1.445" d="M670.4 495.3c.3-.1.7-.2 1-.2.5-.1 1-.3 1.6-.4.3-.1.7-.1 1-.2.5-.1 1-.2 1.4-.3.3-.1.7-.1 1-.2.5-.1.9-.2 1.4-.3.3-.1.7-.1 1-.2.4-.1.9-.1 1.3-.2.3 0 .7-.1 1-.1.4-.1.8-.1 1.2-.2.3 0 .6-.1 1-.1s.8-.1 1.2-.1c.2 0 .4 0 .6-.1.9-.1 1.8-.1 2.7-.2h.1c.9 0 1.8-.1 2.6-.1h2.5c.7 0 1.3.1 1.9.1h.6c.3 0 .7.1 1 .1.2 0 .4 0 .6.1.3 0 .7.1 1 .1.2 0 .3 0 .5.1.3 0 .5.1.8.1.2 0 .3.1.5.1.3 0 .5.1.8.1.1 0 .3.1.4.1.2 0 .3.1.5.1s.4.1.5.1c.2 0 .3.1.5.1s.3.1.5.1c.5.1 1 .3 1.4.4.1 0 .1 0 .2.1.4.1.8.2 1.1.4.1 0 .1 0 .2.1l.9.3h.1l.6.3s.1 0 .1.1c.2.1.3.2.5.2h.1c.1.1.2.1.3.1.1 0 .1.1.1.1l19.2-11.1s-.1 0-.1-.1c-.1 0-.2-.1-.3-.1h-.1c-.1-.1-.3-.1-.5-.2h-.1l-.6-.3h-.1l-.9-.3h-.1-.1c-.3-.1-.7-.2-1.1-.4h-.1-.1c-.4-.1-.9-.3-1.4-.4-.1 0-.3-.1-.4-.1-.2 0-.3-.1-.5-.1s-.4-.1-.5-.1c-.2 0-.3-.1-.5-.1h-.1c-.1 0-.2 0-.4-.1-.3 0-.5-.1-.8-.1-.2 0-.3-.1-.5-.1-.3 0-.5-.1-.8-.1h-.5c-.3 0-.6-.1-1-.1-.2 0-.4 0-.6-.1-.3 0-.7-.1-1-.1H714.1c-.6 0-1.2-.1-1.9-.1H709.6c-.8 0-1.7 0-2.6.1h-.1c-.9 0-1.8.1-2.7.2h-.6c-.4 0-.8.1-1.2.1-.3 0-.6.1-1 .1s-.8.1-1.2.2c-.3 0-.6.1-1 .1-.4.1-.9.1-1.3.2-.3.1-.7.1-1 .2-.5.1-.9.2-1.4.3-.3.1-.6.1-.8.2h-.1c-.5.1-.9.2-1.4.3-.3.1-.7.1-1 .2-.5.1-1 .2-1.6.4-.3.1-.6.1-1 .2-.6.1-1.2.3-1.8.5-.3.1-.6.1-.9.2-.9.2-1.8.5-2.7.8-.8.3-1.7.5-2.5.6-.8.2-1.5.3-2.3.4-.2 0-.3 0-.5.1-.4 0-.9.1-1.3.1-.5 0-.9.1-1.4.1h-2.5c-.5 0-.9-.1-1.4-.1-.3 0-.7-.1-1-.1-.5-.1-1-.2-1.5-.2-.3 0-.6-.1-.9-.1-.6-.1-1.3-.3-1.9-.4-.1 0-.3-.1-.4-.1-.8-.2-1.6-.4-2.4-.7-.3-.1-.6-.2-1-.3-.5-.2-1-.3-1.5-.5-.9-.3-1.7-.6-2.6-1-.2-.1-.4-.2-.6-.2l-2.1-.9c-.2-.1-.5-.2-.7-.3-1-.4-2-.9-2.9-1.4-.2-.1-.3-.2-.5-.2-1.9-.9-3.7-1.9-5.5-2.9l-.6-.3c-1.2-.6-2.3-1.3-3.5-1.9l-3.3-1.8c-.2-.1-.3-.2-.5-.3-.1 0-.1-.1-.2-.1-.4-.2-.9-.5-1.3-.7-.3-.2-.6-.3-.9-.5-.5-.3-1-.5-1.6-.8l-.6-.3-2.4-1.2c-.1 0-.2-.1-.3-.1-.2-.1-.5-.2-.7-.3-.3-.1-.6-.3-.9-.4-.1 0-.2-.1-.3-.1-.3-.1-.6-.2-.8-.3-.2-.1-.5-.2-.7-.3-.1 0-.1 0-.2-.1-.5-.2-1-.3-1.4-.5h-.1c-.1 0-.2 0-.2-.1-.3-.1-.7-.2-1-.3-.1 0-.3-.1-.4-.1-.1 0-.3-.1-.4-.1-.1 0-.3-.1-.4-.1-.4-.1-.8-.1-1.2-.2h-.1c-.4 0-.7-.1-1-.1h-1.1c-.3 0-.7 0-1 .1h-.2c-.4 0-.8.1-1.2.2h-.1c-.4.1-.8.2-1.2.4-.1 0-.3.1-.4.1h-.1c-.5.2-1.1.5-1.6.8L595.4 479c.5-.3 1-.5 1.6-.8.1-.1.3-.1.5-.1.4-.1.8-.3 1.2-.4.5-.1.9-.2 1.4-.2h2c.5 0 1 .1 1.5.1h.1c.5.1 1 .2 1.6.3.1 0 .3.1.4.1.5.1.9.2 1.4.4.1 0 .2 0 .2.1.6.2 1.1.4 1.7.6.2.1.5.2.7.3.4.1.7.3 1.1.4.3.1.6.3.9.4.3.1.6.3 1 .4.8.4 1.6.7 2.4 1.2l.6.3c.5.3 1 .5 1.6.8.3.2.6.3.9.5.4.2.9.5 1.3.7l.6.3 3.3 1.8c1.1.6 2.3 1.3 3.5 1.9.2.1.4.2.5.3 0 0 .1 0 .1.1 1.8 1 3.6 1.9 5.5 2.9 0 0 .1 0 .1.1.1.1.2.1.3.2 1 .5 1.9.9 2.9 1.4.2.1.3.1.5.2.1 0 .2.1.2.1l2.1.9c.2.1.3.1.5.2h.1c.8.3 1.7.7 2.6 1 .5.2 1 .3 1.4.5l.9.3c.8.2 1.6.5 2.3.6.1 0 .3.1.4.1.6.1 1.2.3 1.8.4h.2c.3.1.6.1.9.1.4.1.8.2 1.3.2h.3c.3 0 .7.1 1 .1.4 0 .7.1 1.1.1h2.9c.5 0 .9 0 1.4-.1h.9c.1 0 .3 0 .4-.1.2 0 .3 0 .5-.1.8-.1 1.5-.2 2.3-.4.8-.2 1.7-.4 2.5-.6.9-.3 1.8-.5 2.7-.8.3-.1.6-.2.9-.2.8 0 1.4-.1 2-.3z"/>
        <path fill="#FFF" d="M708.7 496l19.2-11.1-.1 61.6-19.2 11.1z"/>
        <path stroke="#001A64" stroke-linecap="round" stroke-linejoin="round" stroke-width="1.445" d="M708.7 496l19.2-11.1-.1 61.6-19.2 11.1z"/>
        <path fill="#FFF" d="M708.7 496l-.1 61.6-120.3-69.4c13.7-31.7 44.9 18.2 76.7 8.6 29.1-8.7 42.7-1.3 43.7-.8"/>
        <path stroke="#001A64" stroke-linecap="round" stroke-linejoin="round" stroke-width="1.445" d="M708.7 496l-.1 61.6-120.3-69.4c13.7-31.7 44.9 18.2 76.7 8.6 29.1-8.7 42.7-1.3 43.7-.8z"/>
        <path fill="#001A64" d="M830.6 622.7s.2 17.6 6.5 20.8c6.3 3.2 15.4-2.9 21-12.1s11.9-5.7 16.5-13.8c0 0-18.1 29.3-44.1 48.5l.1-43.4zM677.7 746.1s-.1 10.5-8.2 14.5c-8.1 4.1-10.4 11-19.7 16.4l28-16.2v-14.7h-.1zM671.8 486.7s7.9 1.3 23.1-8.8c15.3-10.1 33-.4 33-.4l-.1 7.4s-13.8-6-29.5-2.1c-18 4.4-26.5 3.9-26.5 3.9M690.1 464.3s4.4-2 19.6-12c15.3-10.1 37.3.8 37.3.8l-.1 7.4s-21.7-8.3-32.9-4.5c-17.7 6-23.9 8.3-23.9 8.3"/>
        <path fill="#06F" d="M928.8 545.9c2.7 1.5 2.7 4.1 0 5.6l-14.3 8.3c-2.7 1.5-7 1.5-9.7 0-2.7-1.5-2.7-4.1 0-5.6l14.3-8.3c2.6-1.5 7-1.5 9.7 0"/>
        <path fill="#FFF" fill-rule="nonzero" stroke="#001A64" stroke-linecap="round" stroke-linejoin="round" stroke-width="1.7" d="M417 809.6l-37.3 21.7c-12.3 7.2-32.3 7.2-44.7 0l-37.5-21.7 37.3-21.7c12.3-7.2 32.3-7.1 44.7 0l37.5 21.7z"/>
        <path stroke="#001A64" stroke-linecap="round" stroke-linejoin="round" stroke-width="1.7" d="M372.5 772.8c-8.3-5-8-13 .6-17.8 8.7-4.8 22.5-4.7 30.8.3s8 13-.6 17.8c-8.7 4.8-22.5 4.7-30.8-.3z"/>
        <path fill="#FFF" d="M408.1 779.8c-.1.1-.1.1-.1.2-.1.2-.3.3-.4.5 0 .1-.1.1-.1.2-.2.3-.5.5-.8.8l-.1.1c-.2.2-.4.4-.7.6-.2.2-.4.3-.6.5-.2.2-.5.3-.8.5-.2.1-.4.3-.6.4-.1.1-.2.1-.3.2-.6.4-1.3.7-2 1l-.6.3c-.6.2-1.1.4-1.7.6-.1 0-.3.1-.4.1-.1 0-.2 0-.2.1-.4.1-.7.2-1.1.3-.3.1-.6.2-.9.2l-1.2.3c-.2 0-.5.1-.7.1h-.1-.1c-.1 0-.2 0-.3.1-.8.1-1.5.2-2.3.3-.2 0-.5 0-.7.1-.5 0-.9.1-1.4.1H387c-.3 0-.7 0-1-.1-.3 0-.6 0-.9-.1-.3 0-.7-.1-1-.1-.1 0-.3 0-.4-.1-.2 0-.3 0-.5-.1-.2 0-.3-.1-.5-.1-.4-.1-.8-.1-1.1-.2-.2 0-.4-.1-.5-.1-.1 0-.2-.1-.4-.1-.5-.1-.9-.2-1.3-.3-.2 0-.4-.1-.6-.1-.1 0-.1 0-.2-.1-.8-.2-1.6-.5-2.3-.8h-.1c-.3-.1-.7-.3-1-.4-.2-.1-.4-.2-.6-.2-.5-.3-1.1-.5-1.6-.8-2.3-1.3-3.9-2.8-5-4.4v12.2c0 3 2 6.1 6 8.4.5.3 1 .5 1.5.8.2.1.3.1.5.2.3.1.6.3.9.4h.1c.7.3 1.4.5 2.2.7.1 0 .1 0 .2.1.2 0 .3.1.5.1.4.1.8.2 1.3.3.1 0 .2.1.3.1.2 0 .3.1.5.1.4.1.7.1 1.1.2.1 0 .3.1.4.1.2 0 .3 0 .5.1.3 0 .7.1 1 .1.2 0 .3 0 .5.1h.5c.3 0 .7 0 1 .1h2.9c.5 0 .9-.1 1.4-.1h.8c.8-.1 1.5-.2 2.3-.3h.1c.2 0 .4-.1.7-.1.4-.1.8-.2 1.1-.2.3-.1.5-.1.8-.2.4-.1.7-.2 1-.3.1 0 .2 0 .2-.1.1 0 .2-.1.4-.1.5-.2 1.1-.4 1.6-.6.2-.1.4-.2.6-.2.7-.3 1.3-.6 1.9-1 .1 0 .2-.1.2-.1.2-.1.3-.2.5-.3.2-.2.5-.3.7-.5.2-.1.4-.3.6-.4.2-.2.4-.3.6-.5l.1-.1c.3-.2.5-.5.7-.7 0-.1.1-.1.1-.2.1-.2.3-.3.4-.5.1-.1.1-.1.1-.2.2-.2.3-.5.5-.7.1-.1.1-.2.2-.3 0 0 0-.1.1-.2l.3-.6c.1-.1.1-.2.2-.4v-.1c.1-.2.1-.4.2-.6 0-.1.1-.3.1-.4v-.1c0-.2.1-.4.1-.6v-.4-12.6c-.1-.3-.3-.1-.4.1"/>
        <path stroke="#001A64" stroke-linecap="round" stroke-linejoin="round" stroke-width="1.7" d="M408.1 779.8c-.1.1-.1.1-.1.2-.1.2-.3.3-.4.5 0 .1-.1.1-.1.2-.2.3-.5.5-.8.8l-.1.1c-.2.2-.4.4-.7.6-.2.2-.4.3-.6.5-.2.2-.5.3-.8.5-.2.1-.4.3-.6.4-.1.1-.2.1-.3.2-.6.4-1.3.7-2 1l-.6.3c-.6.2-1.1.4-1.7.6-.1 0-.3.1-.4.1-.1 0-.2 0-.2.1-.4.1-.7.2-1.1.3-.3.1-.6.2-.9.2l-1.2.3c-.2 0-.5.1-.7.1h-.1-.1c-.1 0-.2 0-.3.1-.8.1-1.5.2-2.3.3-.2 0-.5 0-.7.1-.5 0-.9.1-1.4.1H387c-.3 0-.7 0-1-.1-.3 0-.6 0-.9-.1-.3 0-.7-.1-1-.1-.1 0-.3 0-.4-.1-.2 0-.3 0-.5-.1-.2 0-.3-.1-.5-.1-.4-.1-.8-.1-1.1-.2-.2 0-.4-.1-.5-.1-.1 0-.2-.1-.4-.1-.5-.1-.9-.2-1.3-.3-.2 0-.4-.1-.6-.1-.1 0-.1 0-.2-.1-.8-.2-1.6-.5-2.3-.8h-.1c-.3-.1-.7-.3-1-.4-.2-.1-.4-.2-.6-.2-.5-.3-1.1-.5-1.6-.8-2.3-1.3-3.9-2.8-5-4.4v12.2c0 3 2 6.1 6 8.4.5.3 1 .5 1.5.8.2.1.3.1.5.2.3.1.6.3.9.4h.1c.7.3 1.4.5 2.2.7.1 0 .1 0 .2.1.2 0 .3.1.5.1.4.1.8.2 1.3.3.1 0 .2.1.3.1.2 0 .3.1.5.1.4.1.7.1 1.1.2.1 0 .3.1.4.1.2 0 .3 0 .5.1.3 0 .7.1 1 .1.2 0 .3 0 .5.1h.5c.3 0 .7 0 1 .1h2.9c.5 0 .9-.1 1.4-.1h.8c.8-.1 1.5-.2 2.3-.3h.1c.2 0 .4-.1.7-.1.4-.1.8-.2 1.1-.2.3-.1.5-.1.8-.2.4-.1.7-.2 1-.3.1 0 .2 0 .2-.1.1 0 .2-.1.4-.1.5-.2 1.1-.4 1.6-.6.2-.1.4-.2.6-.2.7-.3 1.3-.6 1.9-1 .1 0 .2-.1.2-.1.2-.1.3-.2.5-.3.2-.2.5-.3.7-.5.2-.1.4-.3.6-.4.2-.2.4-.3.6-.5l.1-.1c.3-.2.5-.5.7-.7 0-.1.1-.1.1-.2.1-.2.3-.3.4-.5.1-.1.1-.1.1-.2.2-.2.3-.5.5-.7.1-.1.1-.2.2-.3 0 0 0-.1.1-.2l.3-.6c.1-.1.1-.2.2-.4v-.1c.1-.2.1-.4.2-.6 0-.1.1-.3.1-.4v-.1c0-.2.1-.4.1-.6v-.4-12.6c-.1-.3-.3-.1-.4.1z"/>
        <path stroke="#001A64" stroke-linecap="round" stroke-linejoin="round" stroke-width="1.7" d="M408.5 786.6c-.1.2-.3.4-.4.6-.1.1-.1.1-.1.2-.1.2-.3.3-.4.5 0 .1-.1.1-.1.2-.2.3-.5.5-.8.8l-.1.1c-.2.2-.4.4-.7.6-.2.2-.4.3-.6.5-.2.2-.5.3-.8.5-.2.1-.4.3-.6.4-.1.1-.2.1-.3.2-.7.4-1.3.7-2 1l-.6.3c-.6.2-1.1.4-1.7.6-.1 0-.3.1-.4.1-.1 0-.2 0-.2.1-.4.1-.7.2-1.1.3-.3.1-.6.2-.9.2l-1.2.3c-.2 0-.5.1-.7.2h-.1-.1c-.1 0-.2 0-.3.1-.8.1-1.5.2-2.3.3-.2 0-.5 0-.7.1-.5 0-.9.1-1.4.1H387c-.3 0-.7 0-1-.1-.3 0-.6 0-.9-.1-.3 0-.7-.1-1-.1-.1 0-.3 0-.4-.1-.2 0-.3 0-.5-.1-.2 0-.3-.1-.5-.1-.4-.1-.8-.1-1.1-.2-.2 0-.4-.1-.5-.1-.1 0-.2-.1-.4-.1-.5-.1-.9-.2-1.3-.3-.2 0-.4-.1-.6-.1-.1 0-.1 0-.2-.1-.8-.2-1.6-.5-2.3-.8h-.1c-.3-.1-.7-.3-1-.4-.2-.1-.4-.2-.6-.2-.5-.3-1.1-.5-1.6-.8-2.3-1.3-3.9-2.8-5-4.4"/>
        <path stroke="#001A64" stroke-linecap="round" stroke-linejoin="round" stroke-width="1.7" d="M409.9 764.8c0 .2 0 .5-.1.7 0 .2-.1.4-.1.6-.1.2-.1.4-.2.6-.1.2-.1.4-.2.5-.1.2-.2.5-.3.7-.1.2-.2.3-.3.5-.2.3-.3.5-.5.8-.2.2-.4.5-.6.7 0 .1-.1.1-.1.2l-.9.9c-.2.2-.4.4-.7.6-.2.2-.4.3-.6.5-.2.2-.5.4-.8.5-.3.2-.5.4-.8.5-.7.4-1.3.7-2 1l-.6.3c-.6.2-1.1.4-1.7.6-.2.1-.4.1-.6.2-.4.1-.7.2-1.1.3-.3.1-.6.2-.9.2l-1.2.3c-.3.1-.5.1-.8.2-.8.1-1.6.3-2.5.3-.3 0-.5 0-.8.1-.5 0-1 .1-1.5.1h-3.1c-.4 0-.7 0-1.1-.1-.3 0-.7-.1-1-.1-.4 0-.7-.1-1.1-.1-.3 0-.6-.1-1-.1-.4-.1-.8-.1-1.1-.2-.3-.1-.6-.1-.9-.2-.5-.1-.9-.2-1.3-.3-.2-.1-.5-.1-.7-.2-.8-.2-1.6-.5-2.3-.8-.4-.1-.7-.3-1.1-.5-.2-.1-.4-.2-.6-.2-.5-.3-1.1-.5-1.6-.8-4.3-2.5-6.4-5.7-6.4-9l-.1 10.7c0 3.2 2.1 6.5 6.4 9 .5.3 1 .6 1.6.8.2.1.4.2.6.2.3.1.6.3 1 .4h.1c.8.3 1.5.6 2.3.8.1 0 .1 0 .2.1.2.1.4.1.6.1.4.1.9.2 1.3.3.1 0 .2.1.4.1s.4.1.5.1c.4.1.8.1 1.1.2.2 0 .3.1.5.1s.3 0 .5.1c.4 0 .7.1 1.1.1.2 0 .3 0 .5.1h.5c.4 0 .7 0 1.1.1h3.1c.5 0 1-.1 1.5-.1h.8c.8-.1 1.7-.2 2.5-.3h.1c.2 0 .5-.1.7-.1l1.2-.3c.3-.1.6-.2.9-.2.4-.1.8-.2 1.1-.3.1 0 .2 0 .2-.1.1 0 .3-.1.4-.1.6-.2 1.2-.4 1.7-.6l.6-.3c.7-.3 1.4-.7 2-1 .1-.1.2-.1.3-.2.2-.1.4-.2.6-.4.3-.2.5-.3.8-.5.2-.2.4-.3.6-.5.2-.2.5-.4.7-.6l.1-.1.8-.8c0-.1.1-.1.1-.2.1-.2.3-.3.4-.5.1-.1.1-.1.1-.2.2-.3.4-.5.5-.8.1-.1.2-.2.2-.3 0-.1 0-.1.1-.2.1-.2.2-.5.3-.7.1-.1.1-.3.2-.4v-.1c.1-.2.1-.4.2-.6 0-.1.1-.3.1-.4v-.1c0-.2.1-.5.1-.7 0-.1 0-.3.1-.4v-.2l.1-10.7c-.2-.1-.2.2-.2.4z"/>
        <path fill="#FFF" d="M402.8 799.8c-.1 0-.2.1-.2.1-.6.4-1.3.7-1.9 1-.2.1-.4.2-.6.2-.5.2-1.1.4-1.6.6-.1 0-.2.1-.4.1-.1 0-.2 0-.2.1-.3.1-.7.2-1 .3-.3.1-.5.1-.8.2-.4.1-.7.2-1.1.2-.2 0-.4.1-.7.1h-.1c-.8.1-1.5.2-2.3.3h-.8c-.5 0-.9.1-1.4.1H386.9c-.3 0-.7 0-1-.1h-.5c-.2 0-.3 0-.5-.1-.3 0-.7-.1-1-.1-.2 0-.3 0-.5-.1-.1 0-.3-.1-.4-.1-.4-.1-.7-.1-1.1-.2-.2 0-.3-.1-.5-.1-.1 0-.2-.1-.3-.1-.4-.1-.8-.2-1.3-.3-.2 0-.4-.1-.5-.1-.1 0-.1 0-.2-.1-.7-.2-1.5-.5-2.2-.7h-.1c-.3-.1-.6-.3-.9-.4-.2-.1-.4-.1-.5-.2-.5-.2-1-.5-1.5-.8-.1-.1-.2-.1-.3-.2v1.4c0 2.2 1.4 4.4 4.3 6 .3.2.7.4 1.1.6.1.1.3.1.4.2.2.1.4.2.7.3h.1c.5.2 1 .4 1.6.5h.1c.1 0 .3.1.4.1.3.1.6.2.9.2.1 0 .2 0 .2.1.1 0 .2 0 .4.1.3 0 .5.1.8.1.1 0 .2 0 .3.1h.3c.2 0 .5.1.7.1h3.4c.3 0 .7 0 1-.1h.5c.6-.1 1.1-.1 1.7-.2h.1c.2 0 .3-.1.5-.1.3-.1.5-.1.8-.2.2 0 .4-.1.6-.2.3-.1.5-.1.8-.2h.2c.1 0 .2-.1.3-.1.4-.1.8-.3 1.2-.4.1-.1.3-.1.4-.2.5-.2.9-.4 1.4-.7.1 0 .1-.1.2-.1.1-.1.2-.2.4-.3.2-.1.4-.2.5-.4.1-.1.3-.2.4-.3.2-.1.3-.2.5-.4 0 0 .1 0 .1-.1.2-.2.4-.3.5-.5l.1-.1.3-.3.1-.1c.1-.2.2-.3.3-.5 0-.1.1-.1.1-.2 0 0 0-.1.1-.1.1-.2.1-.3.2-.5 0-.1.1-.2.1-.3v-.1c.1-.1.1-.3.1-.4 0-.1.1-.2.1-.3v-.1c0-.2 0-.3.1-.5v-.3-.1l-.2-1"/>
        <path stroke="#001A64" stroke-linecap="round" stroke-linejoin="round" stroke-width="1.7" d="M402.8 799.8c-.1 0-.2.1-.2.1-.6.4-1.3.7-1.9 1-.2.1-.4.2-.6.2-.5.2-1.1.4-1.6.6-.1 0-.2.1-.4.1-.1 0-.2 0-.2.1-.3.1-.7.2-1 .3-.3.1-.5.1-.8.2-.4.1-.7.2-1.1.2-.2 0-.4.1-.7.1h-.1c-.8.1-1.5.2-2.3.3h-.8c-.5 0-.9.1-1.4.1H386.9c-.3 0-.7 0-1-.1h-.5c-.2 0-.3 0-.5-.1-.3 0-.7-.1-1-.1-.2 0-.3 0-.5-.1-.1 0-.3-.1-.4-.1-.4-.1-.7-.1-1.1-.2-.2 0-.3-.1-.5-.1-.1 0-.2-.1-.3-.1-.4-.1-.8-.2-1.3-.3-.2 0-.4-.1-.5-.1-.1 0-.1 0-.2-.1-.7-.2-1.5-.5-2.2-.7h-.1c-.3-.1-.6-.3-.9-.4-.2-.1-.4-.1-.5-.2-.5-.2-1-.5-1.5-.8-.1-.1-.2-.1-.3-.2v1.4c0 2.2 1.4 4.4 4.3 6 .3.2.7.4 1.1.6.1.1.3.1.4.2.2.1.4.2.7.3h.1c.5.2 1 .4 1.6.5h.1c.1 0 .3.1.4.1.3.1.6.2.9.2.1 0 .2 0 .2.1.1 0 .2 0 .4.1.3 0 .5.1.8.1.1 0 .2 0 .3.1h.3c.2 0 .5.1.7.1h3.4c.3 0 .7 0 1-.1h.5c.6-.1 1.1-.1 1.7-.2h.1c.2 0 .3-.1.5-.1.3-.1.5-.1.8-.2.2 0 .4-.1.6-.2.3-.1.5-.1.8-.2h.2c.1 0 .2-.1.3-.1.4-.1.8-.3 1.2-.4.1-.1.3-.1.4-.2.5-.2.9-.4 1.4-.7.1 0 .1-.1.2-.1.1-.1.2-.2.4-.3.2-.1.4-.2.5-.4.1-.1.3-.2.4-.3.2-.1.3-.2.5-.4 0 0 .1 0 .1-.1.2-.2.4-.3.5-.5l.1-.1.3-.3.1-.1c.1-.2.2-.3.3-.5 0-.1.1-.1.1-.2 0 0 0-.1.1-.1.1-.2.1-.3.2-.5 0-.1.1-.2.1-.3v-.1c.1-.1.1-.3.1-.4 0-.1.1-.2.1-.3v-.1c0-.2 0-.3.1-.5v-.3-.1l-.2-1z"/>
        <path fill="#001A64" d="M403 766.7c-.8 1.2-2.1 2.4-3.9 3.4-6.3 3.5-16.4 3.4-22.4-.2-1.5-.9-2.7-2-3.4-3.1.8-1.2 2.1-2.4 3.9-3.4 6.3-3.5 16.4-3.4 22.4.2 1.6.9 2.7 2 3.4 3.1"/>
        <path fill="#FFF" fill-rule="nonzero" stroke="#001A64" stroke-linecap="round" stroke-linejoin="round" stroke-width="1.7" d="M387 664.2c-19.4.6-35.5 16.1-36.7 35.5-.8 12.1 4.2 23.1 12.4 30.6 6 5.5 9.6 13.1 9.6 21.3v12c0 2.3 1.4 4.6 4.4 6.4 6 3.6 16 3.7 22.3.2 3.2-1.8 4.8-4.2 4.9-6.6v-12c0-8 3.3-15.7 9.3-21 7.9-6.9 12.8-17.1 12.8-28.4.1-21.4-17.5-38.6-39-38z"/>
        <path stroke="#001A64" stroke-linecap="round" stroke-linejoin="round" stroke-width="1.7" d="M376.8 769.9c-6-3.6-5.8-9.4.5-12.9s16.3-3.4 22.3.2 5.8 9.4-.5 12.9-16.3 3.4-22.3-.2z"/>
        <path fill="#06F" d="M395.4 726.8l-4.3-29.5c-1.2-8 6.1-14.7 14-12.9 7.9 1.8 11.5 11 7 17.7l-16.7 24.7z"/>
        <path stroke="#001A64" stroke-linecap="round" stroke-linejoin="round" stroke-width="1.7" d="M386.5 764.3l17-71.5M399.4 710.5l6.7-3.1M401.5 701.2l-5.9-6.5"/>
        <path fill="#94E0FF" d="M382.1 724.1l-16.3-17.5c-4.4-4.8-2.7-12.5 3.3-14.9 6-2.4 12.6 2 12.7 8.5l.3 23.9z"/>
        <path stroke="#001A64" stroke-linecap="round" stroke-linejoin="round" stroke-width="1.7" d="M390.8 746.2l-19.1-48.4M377.6 712.8l2-1.5M374.4 704.6l-5.7-.2M375.7 707.8l2.3-5"/>
        <path fill="#94E0FF" d="M385.2 730.7l-14.5.8c-3.9.2-6.9-3.6-5.7-7.3 1.2-3.8 5.8-5.1 8.9-2.6l11.3 9.1z"/>
        <path stroke="#001A64" stroke-linecap="round" stroke-linejoin="round" stroke-width="1.7" d="M384.6 730.5l-12.2-3.8M378.2 728.5l-.2-2.1M376 727.8l-1.9 2.3M374.5 727.3l-1.3-3.3"/>
        <path fill="#06F" d="M394.8 730.3l8.9-10.4c2.4-2.8 6.9-2.3 8.7.9 1.8 3.3-.3 7.3-4 7.8l-13.6 1.7z"/>
        <path stroke="#001A64" stroke-linecap="round" stroke-linejoin="round" stroke-width="1.7" d="M394.6 730.3l13.4-7.4M401.7 726.4l1.8 1.4M404.1 725.1l-.4-3.2M405.7 724.2l3.8 1.6"/>
        <path fill="#001A64" d="M378.8 808.4s6.7 2.4 8.4 6.6c1.7 4.2.5 10.9-2.4 12.5l-.1.8 32.2-18.7-14.2-8.3c.1 0 .5 12.7-23.9 7.1"/>
        <path stroke="#001A64" stroke-linecap="round" stroke-linejoin="round" stroke-width="1.445" d="M129.5 591.7l-68.1 39.4M39.6 620.5V505.3l81.5-47v107M54.1 604l68.2-39.4M63.1 523.9l34.8-20M55.6 536.1l49.8-28.7"/>
        <path fill="#94E0FF" d="M103.2 552.3l-45.3 26.1c-1.2.7-2.3 0-2.3-1.7v-24.4c0-1.7 1-3.6 2.3-4.3l45.3-26.1c1.2-.7 2.3 0 2.3 1.7V548c-.1 1.6-1.1 3.5-2.3 4.3z"/>
        <path stroke="#001A64" stroke-linecap="round" stroke-linejoin="round" stroke-width="1.445" d="M100.7 535.3V529l-5.5 3.2"/>
        <path stroke="#001A64" stroke-linecap="round" stroke-linejoin="round" stroke-width="1.445" d="M59.8 571.4l7.7-14.3c2.4-4.6 6.7-7.1 9.3-5.6l1.3.7c2.4 1.4 6.1-.4 8.9-4.2l13.7-19M55.6 591.5l49.8-28.7M54.1 604c8 0 14.5 6.5 14.5 14.5S62.1 633 54.1 633s-14.5-6.5-14.5-14.5M122.3 564.6c8 0 14.5 6.5 14.5 14.5 0 5.5-3 10.2-7.5 12.7M183.1 501.8l-49.5 28.6v-79.3l49.5-28.6z"/>
        <path stroke="#001A64" stroke-linecap="round" stroke-linejoin="round" stroke-width="1.445" d="M152.3 464.6l-12.3 7.1v-13.8c0-1.6 1-3.5 2.2-4.2l12.3-7.1v13.8c0 1.6-1 3.5-2.2 4.2zM140 479.5l36.5-21M140 487.4l36.5-21M140 495.3l36.5-21M140 503.2l36.5-21.1M140 511l18.3-10.5M174.2 451.9L162 459v-13.8c0-1.6 1-3.5 2.2-4.3l12.3-7.1v13.8c0 1.7-1 3.6-2.3 4.3z"/>
        <path fill="#001A64" fill-rule="nonzero" d="M140 463.2s4.5-5 6.6-2.4c2.2 2.6 2.7 4.1 6.6 2.9l-13.3 8v-8.5h.1z"/>
        <path stroke="#001A64" stroke-linecap="round" stroke-linejoin="round" stroke-width="1.445" d="M154.6 707.7c1.8.4 3.6 1.2 5.5 2.3M139.9 721.7c0-9 4.4-14.2 10.8-14.4M138.1 693.9l8.9-5.2"/>
        <path stroke="#001A64" stroke-linecap="round" stroke-linejoin="round" stroke-width="1.445" d="M146.9 688.8c5.8-3.3 13.8-2.9 22.6 2.2 17.6 10.2 31.9 34.9 31.9 55.3 0 10.1-3.5 17.2-9.2 20.6M182.8 772.4l9.4-5.5"/>
        <path fill="#FFF" stroke="#001A64" stroke-linecap="round" stroke-linejoin="round" stroke-width="1.445" d="M198.1 758l35.9 35.9c2.2 2.2 2.2 5.8 0 8s-5.8 2.2-8 0L190 766s1.1-6.1 8.1-8z"/>
        <ellipse cx="46.072" cy="52.285" stroke="#001A64" stroke-linecap="round" stroke-linejoin="round" stroke-width="1.445" rx="26.099" ry="45.199" transform="rotate(-30.001 1373.803 180.063)"/>
        <ellipse cx="39.072" cy="44.285" stroke="#001A64" stroke-linecap="round" stroke-linejoin="round" stroke-width="1.445" rx="22.1" ry="38.299" transform="rotate(-30.001 1385.23 163.001)"/>
        <path fill="#FFF" d="M719.6 370c0 24-19.5 43.4-43.4 43.4-24 0-43.4-19.4-43.4-43.4s19.5-43.4 43.4-43.4c24 0 43.4 19.4 43.4 43.4"/>
        <path stroke="#001A64" stroke-linecap="round" stroke-linejoin="round" stroke-width="1.445" d="M719.6 370c0 24-19.5 43.4-43.4 43.4-24 0-43.4-19.4-43.4-43.4s19.5-43.4 43.4-43.4c24 0 43.4 19.4 43.4 43.4z"/>
        <path fill="#001A64" d="M685.2 412.1s-13.6 1.2-19.9-1.4c-11.4-4.6-16.3-11.8-15.5-17 1.4-10.1-1.1-12.8-8.2-20.7-8.6-9.7-2.5-26.8 5.6-32.6 8.1-5.8 24.8-7.9 24.1-13.9 0 0-38.6 6-39.4 42.8-.7 34.9 34.7 48.6 53.3 42.8"/>
        <path stroke="#001A64" stroke-linecap="round" stroke-linejoin="round" stroke-width="1.445" d="M700.5 355.6c-2.3-4.4-1.9-9.2 1-10.7s7.1.8 9.4 5.2c2.3 4.4 1.9 9.2-1 10.7-2.9 1.6-7.1-.8-9.4-5.2zM678.1 398.8c5-.2 9.1 2 9.2 5 .1 3-3.8 5.6-8.8 5.8-5 .2-9.1-2-9.2-5-.1-3 3.9-5.6 8.8-5.8zM696.7 408.3s-6 1.2-11.2-1M672.4 400.3s-15.5-12.5-19.8-28.9M651.2 365.1s-3.1-14.5 0-24.6"/>
        <path fill="#FFF" d="M571.5 521.5c15.8-1.9 16.8 11.6 16.8 11.6 24.9-7.6 27.8 18.1 27.8 18.1.9-6.8 12-10 18.8-8.1 18.6 5.3 16.8 27.3 16.8 27.3 19.2-3.2 24.8 24.6 14 34.5l-265.3-17.7c-5.2-24.7 20-29.3 20-29.3 6.6-30.7 34.7-22.1 34.7-22.1 12.6-21.4 38.1-6.9 38.1-6.9s15.7-27.3 51.8-11.9c0 .2 18.7-7.3 26.5 4.5"/>
        <path stroke="#001A64" stroke-linecap="round" stroke-linejoin="round" stroke-width="1.445" d="M571.5 521.5c15.8-1.9 16.8 11.6 16.8 11.6 24.9-7.6 27.8 18.1 27.8 18.1.9-6.8 12-10 18.8-8.1 18.6 5.3 16.8 27.3 16.8 27.3 19.2-3.2 24.8 24.6 14 34.5l-265.3-17.7c-5.2-24.7 20-29.3 20-29.3 6.6-30.7 34.7-22.1 34.7-22.1 12.6-21.4 38.1-6.9 38.1-6.9s15.7-27.3 51.8-11.9c0 .2 18.7-7.3 26.5 4.5z"/>
        <path fill="#FFF" d="M469.5 581.2s41.7-10.8 46.7-95.5l38.7 10.7s1.9 66.5 43.9 88.4l-129.3-3.6z"/>
        <path fill="#FFF" d="M425.579 585.623s-25.2-13-35.5 3.5c-12.1 19.3 9.5 57.3 39 36.5 0 0 8.6 27.9 41.9 23.1 0 0 23.2 29.9 48.2 9.4 0 0 30.4 31.2 60.5-5.2 0 0 27.1 12.7 37.5-18 0 0 19.2 13.1 46.9-3.5 20.3-12.1 9.4-52.5-23.6-34.9"/>
        <path stroke="#001A64" stroke-linecap="round" stroke-linejoin="round" stroke-width="1.445" d="M425.579 585.623s-25.2-13-35.5 3.5c-12.1 19.3 9.5 57.3 39 36.5 0 0 8.6 27.9 41.9 23.1 0 0 23.2 29.9 48.2 9.4 0 0 30.4 31.2 60.5-5.2 0 0 27.1 12.7 37.5-18 0 0 19.2 13.1 46.9-3.5 20.3-12.1 9.4-52.5-23.6-34.9"/>
        <path stroke="#001A64" stroke-linecap="round" stroke-linejoin="round" stroke-width="1.445" d="M609.8 603.4s-22.1 21.6-43.4 3.8c0 0-11.3 5.6-17.4-1.3"/>
        <g stroke="#001A64" stroke-linecap="round" stroke-linejoin="round" stroke-width="1.445">
            <path d="M439 596.6s17.4 16.1 39.5 6.9c0 0 16.2 16 37.8 2.8"/>
        </g>
        <g stroke="#001A64" stroke-linecap="round" stroke-linejoin="round" stroke-width="1.445">
            <path d="M645.1 566.7s-.3-9-5.3-12.7"/>
        </g>
        <g stroke="#001A64" stroke-linecap="round" stroke-linejoin="round" stroke-width="1.445">
            <path d="M552.6 454.8s1.3 28.5 2.3 41.6c1.9 24.6 4.5 82 53.7 84.3 0 0 15.4-13.9 31.2 2.3"/>
        </g>
        <g stroke="#001A64" stroke-linecap="round" stroke-linejoin="round" stroke-width="1.445">
            <path d="M517.5 450.7s-1 26.3-1.3 35c-2.8 102.5-46.7 89.6-46.7 89.6s-22.1-21.1-40.6-3.3"/>
        </g>
        <g>
            <path fill="#FFF" d="M526.844 470.052s.4 12.1 0 19"/>
            <path stroke="#001A64" stroke-linecap="round" stroke-linejoin="round" stroke-width="1.445" d="M526.844 470.052s.4 12.1 0 19"/>
        </g>
        <g>
            <path fill="#FFF" d="M542.151 480.486s.1 16.4 2 26.5"/>
            <path stroke="#001A64" stroke-linecap="round" stroke-linejoin="round" stroke-width="1.445" d="M542.151 480.486s.1 16.4 2 26.5"/>
        </g>
        <g>
            <path fill="#FFF" d="M524.237 530.621s-5.2 21.4-13.6 33.6"/>
            <path stroke="#001A64" stroke-linecap="round" stroke-linejoin="round" stroke-width="1.445" d="M524.237 530.621s-5.2 21.4-13.6 33.6"/>
        </g>
        <g>
            <path fill="#FFF" d="M548.254 532.788s4 22.3 21.1 41.1"/>
            <path stroke="#001A64" stroke-linecap="round" stroke-linejoin="round" stroke-width="1.445" d="M548.254 532.788s4 22.3 21.1 41.1"/>
        </g>
        <g stroke="#001A64" stroke-linecap="round" stroke-linejoin="round" stroke-width="1.445">
            <path d="M521.3 151.2v126.4"/>
        </g>
        <g fill="#94E0FF">
            <path d="M559.4 406.5s-6 7.8-5.5 25.6 9.5 35.3 9.5 35.3 10.2-15 10.5-35.3c.3-20.3-4.5-25.6-4.5-25.6h-10z"/>
        </g>
        <g fill="#06F">
            <path d="M569.4 410.4s-.5 14.9-4.8 35.1c0 0-5.2-23.4-5.1-34.4l9.9-.7z"/>
        </g>
        <g fill="#94E0FF">
            <path d="M534.1 392s-6 7.8-5.5 25.6c.4 17.7 9.5 35.3 9.5 35.3s10.2-15 10.5-35.3c.3-20.3-4.5-25.6-4.5-25.6h-10z"/>
        </g>
        <g fill="#06F">
            <path d="M544.1 395.9s-.5 14.9-4.8 35.1c0 0-5.2-23.4-5.1-34.4l9.9-.7z"/>
        </g>
        <g fill="#94E0FF">
            <path d="M508.8 375.1s-6 7.8-5.5 25.6c.4 17.7 9.5 35.3 9.5 35.3s10.2-15 10.5-35.3c.3-20.3-4.5-25.6-4.5-25.6h-10z"/>
        </g>
        <g fill="#06F">
            <path d="M518.8 379s-.5 14.9-4.8 35.1c0 0-5.2-23.4-5.1-34.4l9.9-.7z"/>
        </g>
        <g fill="#FFF">
            <path d="M529.3 156.6v.4c0 .1-.1.2-.1.3 0 .1-.1.3-.1.4-.1.2-.1.4-.2.6v.1c-.1.2-.2.4-.4.6 0 0 0 .1-.1.1-.1.2-.3.4-.4.5l-.1.1-.5.5c-.1.1-.3.2-.4.3-.1.1-.2.2-.4.3-.1.1-.3.2-.5.3-.2.1-.3.2-.5.3-.3.2-.6.3-.9.5-.1 0-.2.1-.2.1-.3.1-.5.2-.8.4h-.1l-.9.3c-.2.1-.4.1-.7.2-.2 0-.3.1-.5.1-.2.1-.5.1-.7.2-.2 0-.3.1-.5.1-.5.1-1 .2-1.5.2h-.5c-.3 0-.6 0-.9.1H514.2c-.2 0-.4 0-.6-.1-.2 0-.4-.1-.6-.1-.2 0-.5-.1-.7-.1-.2 0-.4-.1-.5-.1-.3-.1-.5-.1-.8-.2-.2 0-.3-.1-.5-.1-.1 0-.2-.1-.3-.1-.3-.1-.5-.2-.8-.3-.1 0-.2-.1-.2-.1-.2-.1-.5-.2-.7-.3-.1 0-.2-.1-.3-.1-.3-.2-.6-.3-.9-.5-2.6-1.5-3.8-3.4-3.8-5.3l-.2 221.4c0 1.9 1.3 3.9 3.8 5.3.3.2.6.3.9.5.1.1.2.1.3.1l.6.3h.1c.1 0 .2.1.2.1.3.1.5.2.8.3.1 0 .2.1.3.1.1 0 .1 0 .2.1.1 0 .2.1.3.1.3.1.5.1.8.2.1 0 .1 0 .2.1.1 0 .2 0 .3.1.2 0 .5.1.7.1h.6c.2 0 .4.1.6.1H517.2c.3 0 .6 0 .9-.1h.5c.5-.1 1-.1 1.5-.2h.1c.1 0 .3-.1.4-.1.2 0 .5-.1.7-.2.2 0 .3-.1.5-.1.2-.1.4-.1.7-.2h.1c.3-.1.5-.2.8-.3h.1c.3-.1.6-.2.8-.4.1 0 .2-.1.2-.1.3-.1.6-.3.9-.5.1 0 .1-.1.2-.1.1-.1.2-.1.3-.2.2-.1.3-.2.5-.3.1-.1.2-.2.4-.3.1-.1.3-.2.4-.3 0 0 .1 0 .1-.1l.5-.5.1-.1.3-.3c.1-.1.1-.2.2-.2 0 0 0-.1.1-.1.1-.1.2-.3.3-.4v-.1c.1-.1.1-.3.2-.4 0-.1.1-.2.1-.2v-.1c0-.1.1-.3.1-.4 0-.1.1-.2.1-.3v-.1-.4-.3-.1l.2-221.4c-.1.1-.2.2-.2.4"/>
        </g>
        <g stroke="#001A64" stroke-linecap="round" stroke-linejoin="round" stroke-width="1.445">
            <path d="M529.3 156.6v.4c0 .1-.1.2-.1.3 0 .1-.1.3-.1.4-.1.2-.1.4-.2.6v.1c-.1.2-.2.4-.4.6 0 0 0 .1-.1.1-.1.2-.3.4-.4.5l-.1.1-.5.5c-.1.1-.3.2-.4.3-.1.1-.2.2-.4.3-.1.1-.3.2-.5.3-.2.1-.3.2-.5.3-.3.2-.6.3-.9.5-.1 0-.2.1-.2.1-.3.1-.5.2-.8.4h-.1l-.9.3c-.2.1-.4.1-.7.2-.2 0-.3.1-.5.1-.2.1-.5.1-.7.2-.2 0-.3.1-.5.1-.5.1-1 .2-1.5.2h-.5c-.3 0-.6 0-.9.1H514.2c-.2 0-.4 0-.6-.1-.2 0-.4-.1-.6-.1-.2 0-.5-.1-.7-.1-.2 0-.4-.1-.5-.1-.3-.1-.5-.1-.8-.2-.2 0-.3-.1-.5-.1-.1 0-.2-.1-.3-.1-.3-.1-.5-.2-.8-.3-.1 0-.2-.1-.2-.1-.2-.1-.5-.2-.7-.3-.1 0-.2-.1-.3-.1-.3-.2-.6-.3-.9-.5-2.6-1.5-3.8-3.4-3.8-5.3l-.2 221.4c0 1.9 1.3 3.9 3.8 5.3.3.2.6.3.9.5.1.1.2.1.3.1l.6.3h.1c.1 0 .2.1.2.1.3.1.5.2.8.3.1 0 .2.1.3.1.1 0 .1 0 .2.1.1 0 .2.1.3.1.3.1.5.1.8.2.1 0 .1 0 .2.1.1 0 .2 0 .3.1.2 0 .5.1.7.1h.6c.2 0 .4.1.6.1H517.2c.3 0 .6 0 .9-.1h.5c.5-.1 1-.1 1.5-.2h.1c.1 0 .3-.1.4-.1.2 0 .5-.1.7-.2.2 0 .3-.1.5-.1.2-.1.4-.1.7-.2h.1c.3-.1.5-.2.8-.3h.1c.3-.1.6-.2.8-.4.1 0 .2-.1.2-.1.3-.1.6-.3.9-.5.1 0 .1-.1.2-.1.1-.1.2-.1.3-.2.2-.1.3-.2.5-.3.1-.1.2-.2.4-.3.1-.1.3-.2.4-.3 0 0 .1 0 .1-.1l.5-.5.1-.1.3-.3c.1-.1.1-.2.2-.2 0 0 0-.1.1-.1.1-.1.2-.3.3-.4v-.1c.1-.1.1-.3.2-.4 0-.1.1-.2.1-.2v-.1c0-.1.1-.3.1-.4 0-.1.1-.2.1-.3v-.1-.4-.3-.1l.2-221.4c-.1.1-.2.2-.2.4z"/>
        </g>
        <g fill="#FFF">
            <path d="M526 150.9c5.1 2.9 5.1 7.7.1 10.6-5 2.9-13.2 2.9-18.3 0-5.1-2.9-5.1-7.7-.1-10.6 5-3 13.2-3 18.3 0"/>
        </g>
        <g stroke="#001A64" stroke-linecap="round" stroke-linejoin="round" stroke-width="1.445">
            <path d="M526 150.9c5.1 2.9 5.1 7.7.1 10.6-5 2.9-13.2 2.9-18.3 0-5.1-2.9-5.1-7.7-.1-10.6 5-3 13.2-3 18.3 0z"/>
        </g>
        <g fill="#FFF">
            <path d="M529.1 154.8c.1-.2.2-.4.3-.5v-.1l.3-.6c0-.1 0-.1.1-.2.1-.2.1-.3.1-.5v-.2c0-.2.1-.4.1-.6v-1.8-.7-.6c0-.5-.1-1-.1-1.6 0-.2-.1-.5-.1-.7-.1-.5-.1-1-.2-1.4v-.1c0-.1 0-.3-.1-.4-.1-.7-.3-1.3-.4-2-.1-.4-.2-.6-.2-.7-.1-.2-.1-.4-.2-.7 0-.1 0-.1-.1-.2-.1-.2-.1-.5-.2-.7 0-.1 0-.1-.1-.2 0-.1-.1-.2-.1-.2-.1-.2-.1-.4-.2-.5-.2-.5-.4-1-.6-1.4 0 0 0-.1-.1-.1l-.3-.6c-.2-.5-.6-1.2-1-1.9v-.1c-.2-.3-.3-.5-.5-.8-.1-.2-.2-.3-.4-.5 0 0 0-.1-.1-.1 0-.1-.1-.1-.1-.2-.4-.5-.7-.9-1.1-1.3l-.2-.2-.2-.2-.2-.2-.2-.2c-.4-.4-.7-.6-.8-.7-.3-.3-.6-.5-1-.7-.1-.1-.2-.1-.3-.2-.1 0-.1-.1-.2-.1-.1-.1-.2-.1-.3-.1h-.1c-.4-.2-.8-.4-1.1-.5h-.1c-.1 0-.1-.1-.2-.1-.2-.1-.6-.2-1.1-.2h-.1c-.4-.1-.9-.1-1.4 0 0 0-.4 0-.9.2-.1 0-.2 0-.3.1h-.1-.1c-.1 0-.1 0-.2.1h-.1c-.3.1-.5.2-.7.3-.2.1-.4.2-.5.3-.2.1-.7.4-1.3.8 0 0-.1 0-.1.1l-.1.1c-.1.1-.2.1-.2.2l-.1.1-.1.1-.2.2-.3.3-.1.1-.1.1-.6.6c-.2.2-.3.4-.3.4-.2.2-.3.4-.5.6v.1c-.1.1-.1.2-.2.3v.1c-.2.2-.3.4-.4.6l-.1.1c-.1.2-.2.3-.3.4-.1.1-.1.2-.2.3-.1.1-.1.2-.2.3-.1.1-.1.2-.2.4-.1.1-.1.2-.1.3-.2.4-.5.9-.7 1.4-.1.2-.2.4-.2.5-.1.3-.5 1.2-.9 2.6v.1c-.2.6-.4 1.4-.5 2-.1.4-.2.7-.2 1.1-.1.7-.3 1.6-.4 2.3-.2 1.3-.3 2.9-.3 5v.8c0 .2.1.3.1.5v.2l.3.6s0 .1.1.1c.1.2.2.3.3.5 0 .1.1.1.1.2.1.2.2.3.4.5l.1.1.6.6c.1 0 .1.1.2.1.2.1.3.3.5.4l.2.2c.2.2.5.3.8.5 5 3 13.2 3.1 18.3.2.3-.2.6-.3.8-.5l.2-.2c.2-.1.4-.3.6-.4.1 0 .1-.1.2-.1l.6-.6.1-.1c.1-.2.3-.3.4-.5-.4.1-.4 0-.3-.1"/>
        </g>
        <g stroke="#001A64" stroke-linecap="round" stroke-linejoin="round" stroke-width="1.445">
            <path d="M529.1 154.8c.1-.2.2-.4.3-.5v-.1l.3-.6c0-.1 0-.1.1-.2.1-.2.1-.3.1-.5v-.2c0-.2.1-.4.1-.6v-1.8-.7-.6c0-.5-.1-1-.1-1.6 0-.2-.1-.5-.1-.7-.1-.5-.1-1-.2-1.4v-.1c0-.1 0-.3-.1-.4-.1-.7-.3-1.3-.4-2-.1-.4-.2-.6-.2-.7-.1-.2-.1-.4-.2-.7 0-.1 0-.1-.1-.2-.1-.2-.1-.5-.2-.7 0-.1 0-.1-.1-.2 0-.1-.1-.2-.1-.2-.1-.2-.1-.4-.2-.5-.2-.5-.4-1-.6-1.4 0 0 0-.1-.1-.1l-.3-.6c-.2-.5-.6-1.2-1-1.9v-.1c-.2-.3-.3-.5-.5-.8-.1-.2-.2-.3-.4-.5 0 0 0-.1-.1-.1 0-.1-.1-.1-.1-.2-.4-.5-.7-.9-1.1-1.3l-.2-.2-.2-.2-.2-.2-.2-.2c-.4-.4-.7-.6-.8-.7-.3-.3-.6-.5-1-.7-.1-.1-.2-.1-.3-.2-.1 0-.1-.1-.2-.1-.1-.1-.2-.1-.3-.1h-.1c-.4-.2-.8-.4-1.1-.5h-.1c-.1 0-.1-.1-.2-.1-.2-.1-.6-.2-1.1-.2h-.1c-.4-.1-.9-.1-1.4 0 0 0-.4 0-.9.2-.1 0-.2 0-.3.1h-.1-.1c-.1 0-.1 0-.2.1h-.1c-.3.1-.5.2-.7.3-.2.1-.4.2-.5.3-.2.1-.7.4-1.3.8 0 0-.1 0-.1.1l-.1.1c-.1.1-.2.1-.2.2l-.1.1-.1.1-.2.2-.3.3-.1.1-.1.1-.6.6c-.2.2-.3.4-.3.4-.2.2-.3.4-.5.6v.1c-.1.1-.1.2-.2.3v.1c-.2.2-.3.4-.4.6l-.1.1c-.1.2-.2.3-.3.4-.1.1-.1.2-.2.3-.1.1-.1.2-.2.3-.1.1-.1.2-.2.4-.1.1-.1.2-.1.3-.2.4-.5.9-.7 1.4-.1.2-.2.4-.2.5-.1.3-.5 1.2-.9 2.6v.1c-.2.6-.4 1.4-.5 2-.1.4-.2.7-.2 1.1-.1.7-.3 1.6-.4 2.3-.2 1.3-.3 2.9-.3 5v.8c0 .2.1.3.1.5v.2l.3.6s0 .1.1.1c.1.2.2.3.3.5 0 .1.1.1.1.2.1.2.2.3.4.5l.1.1.6.6c.1 0 .1.1.2.1.2.1.3.3.5.4l.2.2c.2.2.5.3.8.5 5 3 13.2 3.1 18.3.2.3-.2.6-.3.8-.5l.2-.2c.2-.1.4-.3.6-.4.1 0 .1-.1.2-.1l.6-.6.1-.1c.1-.2.3-.3.4-.5-.4.1-.4 0-.3-.1z"/>
        </g>
        <g fill="#FFF">
            <path d="M553.9 76.4v.4c0 .1-.1.2-.1.3 0 .1-.1.3-.1.4-.1.2-.2.4-.2.6 0 0 0 .1-.1.1-.1.2-.2.4-.4.6 0 0 0 .1-.1.1-.1.2-.3.4-.4.6l-.1.1-.6.6c-.1.1-.3.2-.4.3-.1.1-.2.2-.4.3-.2.1-.3.2-.5.3-.2.1-.3.2-.5.3-.3.2-.6.3-.9.5-.1.1-.1.1-.2.1-.3.1-.6.3-.9.4h-.1c-.3.1-.6.2-1 .3-.2.1-.5.1-.7.2-.2 0-.3.1-.5.1-.2.1-.5.1-.7.2-.2 0-.3.1-.5.1-.5.1-1 .2-1.5.2h-.5c-.3 0-.6 0-.9.1H539c-.2 0-.4 0-.6-.1-.2 0-.4 0-.7-.1-.2 0-.4-.1-.6-.1-.2 0-.5-.1-.7-.1-.2 0-.4-.1-.6-.1-.3-.1-.6-.1-.8-.2-.2 0-.4-.1-.5-.1-.1 0-.2-.1-.3-.1-.3-.1-.5-.2-.8-.3-.1 0-.2-.1-.2-.1-.2-.1-.5-.2-.7-.3-.2.1-.4 0-.5 0-.3-.2-.7-.3-1-.5-2.6-1.5-4-3.5-4-5.5l-.2 314.3c0 2 1.3 4 4 5.5.3.2.6.4 1 .5.1.1.2.1.3.1l.6.3h.1c.1 0 .2.1.2.1.3.1.5.2.8.3.1 0 .2.1.3.1.1 0 .1 0 .2.1.1 0 .2.1.3.1.3.1.6.1.8.2.1 0 .1 0 .2.1.1 0 .2 0 .3.1.2 0 .5.1.7.1h.6c.2 0 .4.1.7.1H541.1c.3 0 .6 0 .9-.1h.5c.5-.1 1-.1 1.5-.2h.1c.1 0 .3-.1.4-.1.2-.1.5-.1.7-.2.2 0 .4-.1.5-.1.2-.1.5-.1.7-.2h.1c.3-.1.5-.2.8-.3h.1c.3-.1.6-.2.9-.4.1 0 .2-.1.2-.1.3-.2.6-.3.9-.5.1 0 .1-.1.2-.1.1-.1.2-.2.3-.2.2-.1.3-.2.5-.3.1-.1.3-.2.4-.3.1-.1.3-.2.4-.3 0 0 .1 0 .1-.1l.5-.5.1-.1.3-.3c.1-.1.1-.2.2-.2 0 0 0-.1.1-.1.1-.2.2-.3.3-.5v-.1c.1-.1.1-.3.2-.4 0-.1.1-.2.1-.2v-.1c0-.1.1-.3.1-.4 0-.1.1-.2.1-.3v-.1-.4-.3-.1l.6-314.4v.4"/>
        </g>
        <g stroke="#001A64" stroke-linecap="round" stroke-linejoin="round" stroke-width="1.445">
            <path d="M553.9 76.4v.4c0 .1-.1.2-.1.3 0 .1-.1.3-.1.4-.1.2-.2.4-.2.6 0 0 0 .1-.1.1-.1.2-.2.4-.4.6 0 0 0 .1-.1.1-.1.2-.3.4-.4.6l-.1.1-.6.6c-.1.1-.3.2-.4.3-.1.1-.2.2-.4.3-.2.1-.3.2-.5.3-.2.1-.3.2-.5.3-.3.2-.6.3-.9.5-.1.1-.1.1-.2.1-.3.1-.6.3-.9.4h-.1c-.3.1-.6.2-1 .3-.2.1-.5.1-.7.2-.2 0-.3.1-.5.1-.2.1-.5.1-.7.2-.2 0-.3.1-.5.1-.5.1-1 .2-1.5.2h-.5c-.3 0-.6 0-.9.1H539c-.2 0-.4 0-.6-.1-.2 0-.4 0-.7-.1-.2 0-.4-.1-.6-.1-.2 0-.5-.1-.7-.1-.2 0-.4-.1-.6-.1-.3-.1-.6-.1-.8-.2-.2 0-.4-.1-.5-.1-.1 0-.2-.1-.3-.1-.3-.1-.5-.2-.8-.3-.1 0-.2-.1-.2-.1-.2-.1-.5-.2-.7-.3-.2.1-.4 0-.5 0-.3-.2-.7-.3-1-.5-2.6-1.5-4-3.5-4-5.5l-.2 314.3c0 2 1.3 4 4 5.5.3.2.6.4 1 .5.1.1.2.1.3.1l.6.3h.1c.1 0 .2.1.2.1.3.1.5.2.8.3.1 0 .2.1.3.1.1 0 .1 0 .2.1.1 0 .2.1.3.1.3.1.6.1.8.2.1 0 .1 0 .2.1.1 0 .2 0 .3.1.2 0 .5.1.7.1h.6c.2 0 .4.1.7.1H541.1c.3 0 .6 0 .9-.1h.5c.5-.1 1-.1 1.5-.2h.1c.1 0 .3-.1.4-.1.2-.1.5-.1.7-.2.2 0 .4-.1.5-.1.2-.1.5-.1.7-.2h.1c.3-.1.5-.2.8-.3h.1c.3-.1.6-.2.9-.4.1 0 .2-.1.2-.1.3-.2.6-.3.9-.5.1 0 .1-.1.2-.1.1-.1.2-.2.3-.2.2-.1.3-.2.5-.3.1-.1.3-.2.4-.3.1-.1.3-.2.4-.3 0 0 .1 0 .1-.1l.5-.5.1-.1.3-.3c.1-.1.1-.2.2-.2 0 0 0-.1.1-.1.1-.2.2-.3.3-.5v-.1c.1-.1.1-.3.2-.4 0-.1.1-.2.1-.2v-.1c0-.1.1-.3.1-.4 0-.1.1-.2.1-.3v-.1-.4-.3-.1l.6-314.4v.4z"/>
        </g>
        <g fill="#FFF">
            <path d="M550.4 70.5c5.3 3 5.3 8 .1 11s-13.7 3-19 0c-5.3-3-5.3-8-.1-11 5.3-3.1 13.8-3.1 19 0"/>
        </g>
        <g stroke="#001A64" stroke-linecap="round" stroke-linejoin="round" stroke-width="1.445">
            <path d="M550.4 70.5c5.3 3 5.3 8 .1 11s-13.7 3-19 0c-5.3-3-5.3-8-.1-11 5.3-3.1 13.8-3.1 19 0z"/>
        </g>
        <g fill="#FFF">
            <path d="M557.6 39.6v-.5c.2-3.2.2-4.3.2-6.5v-.3-.4-.4c0-.5 0-1.1-.1-1.6v-.1-.2-.1-.3-.1-.2-.3-.5-.4-.2-.1c0-.4-.1-.8-.2-1.3v-.3c0-.1 0-.3-.1-.4v-.2-.1c0-.2-.1-.5-.1-.8v-.1c0-.1 0-.2-.1-.3 0-.1 0-.2-.1-.3v-.2c0-.1 0-.2-.1-.3v-.2c0-.1 0-.2-.1-.3 0-.1-.1-.2-.1-.4v-.1-.1-.1c-.2-.8-.3-1.3-.5-1.9v-.1c-.1-.3-.2-.7-.3-1.1 0-.1-.1-.3-.1-.4-.1-.2-.1-.4-.2-.7-.2-.5-.4-1.1-.6-1.5-.4-1-.9-2.2-1.5-3.3 0-.1-.1-.1-.1-.2s-.1-.1-.1-.2c-.2-.4-1-1.8-2-3.4-.1-.2-.4-.6-.7-1.1 0-.1-.1-.1-.1-.1l-.3-.3c-.1-.2-.3-.4-.4-.5-.1-.1-.1-.2-.2-.2l-.2-.2-.2-.2s-.1-.2-.3-.3l-.5-.5-.1-.1c-.1-.2-.3-.3-.5-.5s-.4-.3-.5-.5l-.1-.1c-.8-.7-1.4-1.2-2.1-1.5h-.1-.1c-.1-.1-.5-.3-1-.5-.1 0-.1-.1-.2-.1s-.2-.1-.2-.1c-.3-.1-.6-.2-.7-.3h-.1c-.1 0-.2 0-.3-.1h-.1c-.1 0-.2 0-.3-.1h-.1c-.1 0-.3 0-.4-.1h-1.1-.7c-.1 0-.2 0-.3.1h-.1c-.1 0-.2.1-.3.1-.5.1-.8.3-1 .4h-.1c-.1 0-.1 0-.2.1 0 0-.1 0-.1.1-.3.1-.5.2-.8.4-.2.1-.5.3-.9.6-.1.1-.2.1-.2.2-.2.1-.4.3-.6.5-.2.2-.4.3-.6.5l-.1.1-.1.1-.1.1-.1.1c-.2.1-.3.3-.5.5l-.5.5c-.3.3-.7.8-1 1.2-.5.7-1 1.3-1.4 1.9-.2.2-.3.5-.5.7-.3.5-.7 1-.9 1.5-.3.6-.8 1.4-1.1 2-.2.4-.4.9-.7 1.4-.3.6-.6 1.2-.8 1.8-.2.4-.4.9-.5 1.3 0 .1-.1.2-.1.3-.1.2-.2.5-.2.7-.1.2-.2.5-.2.7v.1c0 .1-.1.2-.1.3 0 .1-.1.2-.1.3-.1.2-.1.4-.2.6-.1.4-.2.9-.3 1.3-.2.7-.3 1.4-.5 1.9v.2c0 .2-.1.3-.1.5s-.1.4-.1.6c-.1.3-.1.6-.1.9 0 .1 0 .2-.1.4 0 .3-.1.7-.1 1.1v.3c0 .3-.1.6-.1.9v.6c0 .4-.1.8-.1 1.2v5.7c0 .6 0 1.2.1 2.1V40.9c0 .5 0 .9.1 1.3V68.2c0 .9.1 1.6.3 2.1v.1c0 .2.1.3.1.4v.1c0 .1.1.3.2.5v.1c0 .1.1.2.1.3 0 .1 0 .1.1.2v.1c0 .1.1.2.1.3v.1c.1.2.2.5.4.7.1.2.3.4.4.7.1.2.3.4.3.5v.1c.2.2.3.4.5.6.5.6 1 1 1.1 1.1.2.2.6.5.8.7.4.3.7.5 1.4.9.1.1.3.2.4.2 0 0 .1 0 .1.1 0 0 .1 0 .1.1.2.1.5.3.7.4.2.1.6.3 1.2.5 0 0 .1 0 .1.1h.1c.4.2 1.1.4 1.8.6.1 0 .2.1.3.1.5.1 1.1.3 1.8.4.1 0 .3 0 .4.1.4.1.8.1 1.2.2.5.1 1.4.2 2.6.2H542.9c.5 0 1.1-.1 1.7-.2h.2c.3-.1.8-.1 1.1-.2.6-.1 1.3-.3 2-.5h.1c.1 0 .1 0 .2-.1.1 0 .2-.1.3-.1.1 0 .1 0 .2-.1h.1c.1 0 .1 0 .2-.1h.1c.3-.1.7-.3.9-.4h.1c.1 0 .2-.1.3-.1.3-.2.6-.3.9-.5.2-.1.3-.2.4-.2 0 0 .1-.1.2-.1.1-.1.3-.2.4-.3.1-.1.5-.3.9-.6 0 0 .1 0 .1-.1.2-.1.5-.4.9-.7l.1-.1.7-.7.5-.5c.1-.1.1-.2.2-.3.1-.1.2-.3.3-.4.2-.2.3-.5.5-.8.2-.4.6-1 .9-1.9.1-.2.1-.4.2-.6v-.1c.1-.2.1-.4.2-.7.1-.5.2-1.1.2-1.6v-.7-1.6-2.2-2.7-3-3.2-3.2-3.1-2.7-2.3c0-.9 0-1.2.1-2 0-.3 0-.7.1-1.1-.6-1.1-.6-1.3-.6-1.4"/>
        </g>
        <g stroke="#001A64" stroke-linecap="round" stroke-linejoin="round" stroke-width="1.445">
            <path d="M557.6 39.6v-.5c.2-3.2.2-4.3.2-6.5v-.3-.4-.4c0-.5 0-1.1-.1-1.6v-.1-.2-.1-.3-.1-.2-.3-.5-.4-.2-.1c0-.4-.1-.8-.2-1.3v-.3c0-.1 0-.3-.1-.4v-.2-.1c0-.2-.1-.5-.1-.8v-.1c0-.1 0-.2-.1-.3 0-.1 0-.2-.1-.3v-.2c0-.1 0-.2-.1-.3v-.2c0-.1 0-.2-.1-.3 0-.1-.1-.2-.1-.4v-.1-.1-.1c-.2-.8-.3-1.3-.5-1.9v-.1c-.1-.3-.2-.7-.3-1.1 0-.1-.1-.3-.1-.4-.1-.2-.1-.4-.2-.7-.2-.5-.4-1.1-.6-1.5-.4-1-.9-2.2-1.5-3.3 0-.1-.1-.1-.1-.2s-.1-.1-.1-.2c-.2-.4-1-1.8-2-3.4-.1-.2-.4-.6-.7-1.1 0-.1-.1-.1-.1-.1l-.3-.3c-.1-.2-.3-.4-.4-.5-.1-.1-.1-.2-.2-.2l-.2-.2-.2-.2s-.1-.2-.3-.3l-.5-.5-.1-.1c-.1-.2-.3-.3-.5-.5s-.4-.3-.5-.5l-.1-.1c-.8-.7-1.4-1.2-2.1-1.5h-.1-.1c-.1-.1-.5-.3-1-.5-.1 0-.1-.1-.2-.1s-.2-.1-.2-.1c-.3-.1-.6-.2-.7-.3h-.1c-.1 0-.2 0-.3-.1h-.1c-.1 0-.2 0-.3-.1h-.1c-.1 0-.3 0-.4-.1h-1.1-.7c-.1 0-.2 0-.3.1h-.1c-.1 0-.2.1-.3.1-.5.1-.8.3-1 .4h-.1c-.1 0-.1 0-.2.1 0 0-.1 0-.1.1-.3.1-.5.2-.8.4-.2.1-.5.3-.9.6-.1.1-.2.1-.2.2-.2.1-.4.3-.6.5-.2.2-.4.3-.6.5l-.1.1-.1.1-.1.1-.1.1c-.2.1-.3.3-.5.5l-.5.5c-.3.3-.7.8-1 1.2-.5.7-1 1.3-1.4 1.9-.2.2-.3.5-.5.7-.3.5-.7 1-.9 1.5-.3.6-.8 1.4-1.1 2-.2.4-.4.9-.7 1.4-.3.6-.6 1.2-.8 1.8-.2.4-.4.9-.5 1.3 0 .1-.1.2-.1.3-.1.2-.2.5-.2.7-.1.2-.2.5-.2.7v.1c0 .1-.1.2-.1.3 0 .1-.1.2-.1.3-.1.2-.1.4-.2.6-.1.4-.2.9-.3 1.3-.2.7-.3 1.4-.5 1.9v.2c0 .2-.1.3-.1.5s-.1.4-.1.6c-.1.3-.1.6-.1.9 0 .1 0 .2-.1.4 0 .3-.1.7-.1 1.1v.3c0 .3-.1.6-.1.9v.6c0 .4-.1.8-.1 1.2v5.7c0 .6 0 1.2.1 2.1V40.9c0 .5 0 .9.1 1.3V68.2c0 .9.1 1.6.3 2.1v.1c0 .2.1.3.1.4v.1c0 .1.1.3.2.5v.1c0 .1.1.2.1.3 0 .1 0 .1.1.2v.1c0 .1.1.2.1.3v.1c.1.2.2.5.4.7.1.2.3.4.4.7.1.2.3.4.3.5v.1c.2.2.3.4.5.6.5.6 1 1 1.1 1.1.2.2.6.5.8.7.4.3.7.5 1.4.9.1.1.3.2.4.2 0 0 .1 0 .1.1 0 0 .1 0 .1.1.2.1.5.3.7.4.2.1.6.3 1.2.5 0 0 .1 0 .1.1h.1c.4.2 1.1.4 1.8.6.1 0 .2.1.3.1.5.1 1.1.3 1.8.4.1 0 .3 0 .4.1.4.1.8.1 1.2.2.5.1 1.4.2 2.6.2H542.9c.5 0 1.1-.1 1.7-.2h.2c.3-.1.8-.1 1.1-.2.6-.1 1.3-.3 2-.5h.1c.1 0 .1 0 .2-.1.1 0 .2-.1.3-.1.1 0 .1 0 .2-.1h.1c.1 0 .1 0 .2-.1h.1c.3-.1.7-.3.9-.4h.1c.1 0 .2-.1.3-.1.3-.2.6-.3.9-.5.2-.1.3-.2.4-.2 0 0 .1-.1.2-.1.1-.1.3-.2.4-.3.1-.1.5-.3.9-.6 0 0 .1 0 .1-.1.2-.1.5-.4.9-.7l.1-.1.7-.7.5-.5c.1-.1.1-.2.2-.3.1-.1.2-.3.3-.4.2-.2.3-.5.5-.8.2-.4.6-1 .9-1.9.1-.2.1-.4.2-.6v-.1c.1-.2.1-.4.2-.7.1-.5.2-1.1.2-1.6v-.7-1.6-2.2-2.7-3-3.2-3.2-3.1-2.7-2.3c0-.9 0-1.2.1-2 0-.3 0-.7.1-1.1-.6-1.1-.6-1.3-.6-1.4z"/>
        </g>
        <g fill="#FFF">
            <path d="M576.9 182.8v.4c0 .1-.1.2-.1.3 0 .1-.1.3-.1.4-.1.2-.1.4-.2.6v.1c-.1.2-.2.4-.4.6 0 0 0 .1-.1.1-.1.2-.3.4-.4.5l-.1.1-.5.5c-.1.1-.3.2-.4.3-.1.1-.2.2-.4.3-.1.1-.3.2-.5.3-.2.1-.3.2-.5.3-.3.2-.6.3-.9.5-.1 0-.2.1-.2.1-.3.1-.5.2-.8.4h-.1l-.9.3c-.2.1-.4.1-.7.2-.2 0-.3.1-.5.1-.2.1-.5.1-.7.2-.2 0-.3.1-.5.1-.5.1-1 .2-1.5.2h-.5c-.3 0-.6 0-.9.1H562.4c-.2 0-.4 0-.6-.1-.2 0-.4 0-.6-.1-.2 0-.4-.1-.6-.1-.2 0-.5-.1-.7-.1-.2 0-.4-.1-.5-.1-.3-.1-.5-.1-.8-.2-.2 0-.3-.1-.5-.1-.1 0-.2-.1-.3-.1-.3-.1-.5-.2-.8-.3-.1 0-.2-.1-.2-.1-.2-.1-.5-.2-.7-.3-.1 0-.2-.1-.3-.1-.3-.2-.6-.3-.9-.5-2.6-1.5-3.8-3.4-3.8-5.3l-.2 221.4c0 1.9 1.3 3.9 3.8 5.3.3.2.6.3 1 .5.1.1.2.1.3.1l.6.3h.1c.1 0 .2.1.2.1.3.1.5.2.8.3.1 0 .2.1.3.1.1 0 .1 0 .2.1.1 0 .2.1.3.1.3.1.5.1.8.2.1 0 .1 0 .2.1.1 0 .2 0 .3.1.2 0 .5.1.7.1h.6c.2 0 .4.1.6.1H564.9c.3 0 .6 0 .9-.1h.5c.5-.1 1-.1 1.5-.2h.1c.1 0 .3-.1.4-.1.2 0 .5-.1.7-.2.2 0 .3-.1.5-.1.2-.1.4-.1.7-.2h.1c.3-.1.5-.2.8-.3h.1c.3-.1.6-.2.8-.4.1 0 .2-.1.2-.1.3-.1.6-.3.9-.5.1 0 .1-.1.2-.1.1-.1.2-.1.3-.2.2-.1.3-.2.5-.3.1-.1.2-.2.4-.3.1-.1.3-.2.4-.3 0 0 .1 0 .1-.1l.5-.5.1-.1.3-.3c.1-.1.1-.2.2-.2 0 0 0-.1.1-.1.1-.1.2-.3.3-.4v-.1c.1-.1.1-.3.2-.4 0-.1.1-.2.1-.2v-.1c0-.1.1-.3.1-.4 0-.1.1-.2.1-.3v-.1-.4-.3-221.4c0 .1-.1.3-.1.4"/>
        </g>
        <g stroke="#001A64" stroke-linecap="round" stroke-linejoin="round" stroke-width="1.445">
            <path d="M576.9 182.8v.4c0 .1-.1.2-.1.3 0 .1-.1.3-.1.4-.1.2-.1.4-.2.6v.1c-.1.2-.2.4-.4.6 0 0 0 .1-.1.1-.1.2-.3.4-.4.5l-.1.1-.5.5c-.1.1-.3.2-.4.3-.1.1-.2.2-.4.3-.1.1-.3.2-.5.3-.2.1-.3.2-.5.3-.3.2-.6.3-.9.5-.1 0-.2.1-.2.1-.3.1-.5.2-.8.4h-.1l-.9.3c-.2.1-.4.1-.7.2-.2 0-.3.1-.5.1-.2.1-.5.1-.7.2-.2 0-.3.1-.5.1-.5.1-1 .2-1.5.2h-.5c-.3 0-.6 0-.9.1H562.4c-.2 0-.4 0-.6-.1-.2 0-.4 0-.6-.1-.2 0-.4-.1-.6-.1-.2 0-.5-.1-.7-.1-.2 0-.4-.1-.5-.1-.3-.1-.5-.1-.8-.2-.2 0-.3-.1-.5-.1-.1 0-.2-.1-.3-.1-.3-.1-.5-.2-.8-.3-.1 0-.2-.1-.2-.1-.2-.1-.5-.2-.7-.3-.1 0-.2-.1-.3-.1-.3-.2-.6-.3-.9-.5-2.6-1.5-3.8-3.4-3.8-5.3l-.2 221.4c0 1.9 1.3 3.9 3.8 5.3.3.2.6.3 1 .5.1.1.2.1.3.1l.6.3h.1c.1 0 .2.1.2.1.3.1.5.2.8.3.1 0 .2.1.3.1.1 0 .1 0 .2.1.1 0 .2.1.3.1.3.1.5.1.8.2.1 0 .1 0 .2.1.1 0 .2 0 .3.1.2 0 .5.1.7.1h.6c.2 0 .4.1.6.1H564.9c.3 0 .6 0 .9-.1h.5c.5-.1 1-.1 1.5-.2h.1c.1 0 .3-.1.4-.1.2 0 .5-.1.7-.2.2 0 .3-.1.5-.1.2-.1.4-.1.7-.2h.1c.3-.1.5-.2.8-.3h.1c.3-.1.6-.2.8-.4.1 0 .2-.1.2-.1.3-.1.6-.3.9-.5.1 0 .1-.1.2-.1.1-.1.2-.1.3-.2.2-.1.3-.2.5-.3.1-.1.2-.2.4-.3.1-.1.3-.2.4-.3 0 0 .1 0 .1-.1l.5-.5.1-.1.3-.3c.1-.1.1-.2.2-.2 0 0 0-.1.1-.1.1-.1.2-.3.3-.4v-.1c.1-.1.1-.3.2-.4 0-.1.1-.2.1-.2v-.1c0-.1.1-.3.1-.4 0-.1.1-.2.1-.3v-.1-.4-.3-221.4c0 .1-.1.3-.1.4z"/>
        </g>
        <g fill="#FFF">
            <path d="M572.9 177.1c5.1 2.9 5.1 7.7.1 10.6-5 2.9-13.2 2.9-18.3 0-5.1-2.9-5.1-7.7-.1-10.6 5-2.9 13.2-2.9 18.3 0"/>
        </g>
        <g stroke="#001A64" stroke-linecap="round" stroke-linejoin="round" stroke-width="1.445">
            <path d="M572.9 177.1c5.1 2.9 5.1 7.7.1 10.6-5 2.9-13.2 2.9-18.3 0-5.1-2.9-5.1-7.7-.1-10.6 5-2.9 13.2-2.9 18.3 0z"/>
        </g>
        <g fill="#FFF">
            <path d="M575.6 181.1c.1-.2.2-.4.3-.5v-.1l.3-.6c0-.1 0-.1.1-.2.1-.2.1-.3.1-.5v-.2c0-.2.1-.4.1-.6v-1.8-.7-.6c0-.5-.1-1-.1-1.6 0-.2-.1-.5-.1-.7-.1-.5-.1-1-.2-1.4v-.1c0-.1 0-.3-.1-.4-.1-.7-.3-1.3-.4-2-.1-.4-.2-.6-.2-.7-.1-.2-.1-.4-.2-.7 0-.1 0-.1-.1-.2-.1-.2-.1-.5-.2-.7 0-.1 0-.1-.1-.2 0-.1-.1-.2-.1-.2-.1-.2-.1-.4-.2-.5-.2-.5-.4-1-.6-1.4 0 0 0-.1-.1-.1l-.3-.6c-.2-.5-.6-1.2-1-1.9v-.1c-.2-.3-.3-.5-.5-.8-.1-.2-.2-.3-.4-.5 0 0 0-.1-.1-.1 0-.1-.1-.1-.1-.2-.4-.5-.7-.9-1.1-1.3l-.2-.2-.2-.2-.2-.2-.2-.2c-.4-.4-.7-.6-.8-.7-.3-.3-.6-.5-1-.7-.1-.1-.2-.1-.3-.2-.1 0-.1-.1-.2-.1-.1-.1-.2-.1-.3-.1h-.1c-.4-.2-.8-.4-1.1-.5h-.1c-.1 0-.1-.1-.2-.1-.2-.1-.6-.2-1.1-.2h-.1c-.4-.1-.9-.1-1.4 0 0 0-.4 0-.9.2-.1 0-.2 0-.3.1h-.1-.1c-.1 0-.1 0-.2.1h-.1c-.3.1-.5.2-.7.3-.2.1-.4.2-.5.3-.2.1-.7.4-1.3.8 0 0-.1 0-.1.1l-.1.1c-.1.1-.2.1-.2.2l-.1.1-.1.1-.2.2-.3.3-.1.1-.1.1-.6.6c-.2.2-.3.4-.3.4-.2.2-.3.4-.5.6v.1c-.1.1-.1.2-.2.3v.1c-.2.2-.3.4-.4.6l-.1.1c-.1.2-.2.3-.3.4-.1.1-.1.2-.2.3-.1.1-.1.2-.2.3-.1.1-.1.2-.2.4-.1.1-.1.2-.1.3-.2.4-.5.9-.7 1.4-.1.2-.2.4-.2.5-.1.3-.5 1.2-.9 2.6v.1c-.2.6-.4 1.4-.5 2-.1.4-.2.7-.2 1.1-.1.7-.3 1.6-.4 2.3-.2 1.3-.3 2.9-.3 5v.8c0 .2.1.3.1.5v.2l.3.6s0 .1.1.1c.1.2.2.3.3.5 0 .1.1.1.1.2.1.2.2.3.4.5l.1.1.6.6c.1 0 .1.1.2.1.2.1.3.3.5.4l.2.2c.2.2.5.3.8.5 5 3 13.2 3.1 18.3.2.3-.2.6-.3.8-.5.1 0 .1-.1.2-.2.2-.1.4-.3.6-.4.1 0 .1-.1.2-.1l.6-.6.1-.1c.1-.2.3-.3.4-.5-.3 0-.3-.1-.3-.1"/>
        </g>
        <g stroke="#001A64" stroke-linecap="round" stroke-linejoin="round" stroke-width="1.445">
            <path d="M575.6 181.1c.1-.2.2-.4.3-.5v-.1l.3-.6c0-.1 0-.1.1-.2.1-.2.1-.3.1-.5v-.2c0-.2.1-.4.1-.6v-1.8-.7-.6c0-.5-.1-1-.1-1.6 0-.2-.1-.5-.1-.7-.1-.5-.1-1-.2-1.4v-.1c0-.1 0-.3-.1-.4-.1-.7-.3-1.3-.4-2-.1-.4-.2-.6-.2-.7-.1-.2-.1-.4-.2-.7 0-.1 0-.1-.1-.2-.1-.2-.1-.5-.2-.7 0-.1 0-.1-.1-.2 0-.1-.1-.2-.1-.2-.1-.2-.1-.4-.2-.5-.2-.5-.4-1-.6-1.4 0 0 0-.1-.1-.1l-.3-.6c-.2-.5-.6-1.2-1-1.9v-.1c-.2-.3-.3-.5-.5-.8-.1-.2-.2-.3-.4-.5 0 0 0-.1-.1-.1 0-.1-.1-.1-.1-.2-.4-.5-.7-.9-1.1-1.3l-.2-.2-.2-.2-.2-.2-.2-.2c-.4-.4-.7-.6-.8-.7-.3-.3-.6-.5-1-.7-.1-.1-.2-.1-.3-.2-.1 0-.1-.1-.2-.1-.1-.1-.2-.1-.3-.1h-.1c-.4-.2-.8-.4-1.1-.5h-.1c-.1 0-.1-.1-.2-.1-.2-.1-.6-.2-1.1-.2h-.1c-.4-.1-.9-.1-1.4 0 0 0-.4 0-.9.2-.1 0-.2 0-.3.1h-.1-.1c-.1 0-.1 0-.2.1h-.1c-.3.1-.5.2-.7.3-.2.1-.4.2-.5.3-.2.1-.7.4-1.3.8 0 0-.1 0-.1.1l-.1.1c-.1.1-.2.1-.2.2l-.1.1-.1.1-.2.2-.3.3-.1.1-.1.1-.6.6c-.2.2-.3.4-.3.4-.2.2-.3.4-.5.6v.1c-.1.1-.1.2-.2.3v.1c-.2.2-.3.4-.4.6l-.1.1c-.1.2-.2.3-.3.4-.1.1-.1.2-.2.3-.1.1-.1.2-.2.3-.1.1-.1.2-.2.4-.1.1-.1.2-.1.3-.2.4-.5.9-.7 1.4-.1.2-.2.4-.2.5-.1.3-.5 1.2-.9 2.6v.1c-.2.6-.4 1.4-.5 2-.1.4-.2.7-.2 1.1-.1.7-.3 1.6-.4 2.3-.2 1.3-.3 2.9-.3 5v.8c0 .2.1.3.1.5v.2l.3.6s0 .1.1.1c.1.2.2.3.3.5 0 .1.1.1.1.2.1.2.2.3.4.5l.1.1.6.6c.1 0 .1.1.2.1.2.1.3.3.5.4l.2.2c.2.2.5.3.8.5 5 3 13.2 3.1 18.3.2.3-.2.6-.3.8-.5.1 0 .1-.1.2-.2.2-.1.4-.3.6-.4.1 0 .1-.1.2-.1l.6-.6.1-.1c.1-.2.3-.3.4-.5-.3 0-.3-.1-.3-.1z"/>
        </g>
        <g stroke="#001A64" stroke-linecap="round" stroke-linejoin="round" stroke-width="1.445">
            <path d="M453.1 118.6s-11 22.5 19.5 30.1M628.6 138.5s19.3 16 19.3 47.2M485.6 234.9c-17.9 1.5-35.9 6.1-41.4 18.2-12 26.5 46.3 34.3 57 35.4 23.2 2.4 87.5-4.4 120.2-54.2 32.7-49.9-3.7-97-24.7-105"/>
            <path d="M519.7 107.9s-50.4-6.5-58.8 12.1c-8.4 18.5 29.5 23.9 39.9 24.8 16.2 1.3 61.2-3 84.1-37.9 22.8-34.9-2.6-67.8-17.2-73.4M571.8 44s9.5 7.8 11.1 20.1"/>
        </g>
        <g fill="#0035AF">
            <path d="M576.1 339.8s.3 54.9-.7 55.6c-.5.4.2-1.6-1.4-18.3-1.6-16.7-3-32.8-5.9-32.8-2.9 0-6.5 49.3-7 51.9-.6 2.7-3.4 4.4-3.9-1.1-.6-5.5-4.6-52.6-5.5-53.5-.9-.9-1.8.7-2 5-.1 4.3 0 53.6 0 59.5 0 5.9 12 6.4 16.2 6.4 4.2 0 12.5-1.7 12.5-6.9v-53.4c0-6.8.1-12.4-2.3-12.4"/>
        </g>
        <g fill="#0035AF">
            <path d="M554.5 392.4c0 4.2-6.5 7.7-13 7.7-6.4 0-15.7-1.2-15.7-7.1 0-5.9-.1-55.2 0-59.5.1-4.3 1-5.9 2-5 .9.9 5 47.9 5.5 53.5.6 5.5 3.4 3.8 3.9 1.1.6-2.7 3.6-51.9 7-51.9 2.9 0 4.3 16.1 5.9 32.8 1.6 16.7 1.7 21.1 2.4 18.4l2 10z"/>
        </g>
        <g fill="#0035AF">
            <path d="M530.7 378.6c0 4.2-6.5 7.7-13 7.7-6.4 0-15.7-1.2-15.7-7.1 0-5.9-.1-55.2 0-59.5.1-4.3 1-5.9 2-5 .9.9 5 47.9 5.5 53.5.6 5.5 3.4 3.8 3.9 1.1.6-2.7 3.2-51.9 7-51.9 2.9 0 4.3 16.1 5.9 32.8 1.6 16.7 1.7 21.1 2.4 18.4l2 10z"/>
        </g>
    </g>
</svg>
