<svg xmlns="http://www.w3.org/2000/svg" width="817" height="880" viewBox="0 0 817 880">
    <g fill="none" fill-rule="evenodd">
        <g stroke="#001A64" stroke-linecap="round" stroke-linejoin="round" stroke-width="1.45">
            <path d="M656.9 823.21c-62.57 24.93-134.32 38.86-207.2 41.77M584.67 401.11c47 11.78 91 28.77 129.51 51M1.34 632.35c-2.3-33.1 7.06-66.41 28.1-97.68M580.44 833.76c-103.24 26.33-222 25.88-325-1.35M793.44 547.06c35.62 58.19 29.6 123-18.13 178.78M471.8 395.64c83 6.53 163.28 28.27 227.3 65.21a369.28 369.28 0 0 1 14.17 8.61M25.21 650c-6.61-32.1-1.56-64.83 15.17-95.9M278.1 408.25a642 642 0 0 1 86.28-12.62"/>
        </g>
        <g transform="translate(58 660)">
            <path stroke="#001A64" stroke-linecap="round" stroke-linejoin="round" stroke-width="1.45" d="M139.64 209.11L0 128.49v-121C0 1.76 3.48-.87 7.78 1.61l124.08 71.63c4.29 2.48 7.78 9.14 7.78 14.87v121zM0 18.57l139.64 80.62M129.91 83.41l19.43 11.22"/>
            <path stroke="#001A64" stroke-linecap="round" stroke-linejoin="round" stroke-width="1.45" d="M45.51 141.44l-34.92-20.16a3.74 3.74 0 0 1-1.56-3V38.55c0-1.15.7-1.68 1.56-1.18l34.92 20.16a3.74 3.74 0 0 1 1.56 3v79.75c0 1.13-.7 1.66-1.56 1.16zM128.36 189.27L59.3 149.4a3.73 3.73 0 0 1-1.55-3V66.67c0-1.14.7-1.67 1.55-1.17l69.06 39.86a3.76 3.76 0 0 1 1.55 3v79.75c0 1.13-.7 1.66-1.55 1.16z"/>
            <text fill="#001A64" font-family="TiemposHeadline-Regular, Tiempos Headline" font-size="20.74">
                <tspan x="22.34" y="82.17">T</tspan>
            </text>
            <path stroke="#001A64" stroke-dasharray="3" stroke-linecap="round" stroke-linejoin="round" stroke-width="1.45" d="M37.59 96.85L17.26 85.12V58.03l20.33 11.73v27.09z"/>
            <path fill="#FFF" fill-rule="nonzero" stroke="#001A64" stroke-linecap="round" stroke-linejoin="round" stroke-width="1.45" d="M18.79 60.94l-3.05-1.76v-4.06l3.05 1.76zM27.42 81.5l-3.04-1.76v-4.06l3.04 1.76zM39.11 72.67l-3.05-1.76v-4.06l3.05 1.76zM39.11 99.76L36.06 98v-4.06l3.05 1.76z"/>
            <path stroke="#001A64" stroke-linecap="round" stroke-linejoin="round" stroke-width="1.45" d="M34.11 119.86l-13.37-7.72a8.33 8.33 0 0 1-3.48-6.64c0-2.56 1.56-3.73 3.48-2.63l13.37 7.72a8.32 8.32 0 0 1 3.47 6.64c0 2.56-1.58 3.77-3.47 2.63zM93.55 161.66l-28-16.17a3.74 3.74 0 0 1-1.56-3v-64c0-1.14.7-1.67 1.56-1.17l28 16.17a3.73 3.73 0 0 1 1.55 3v64c0 1.14-.69 1.67-1.55 1.17zM64.42 77.36l30.16 84.37M94.58 94.78l-30.16 49.54"/>
            <path fill="#FFF" fill-rule="nonzero" stroke="#001A64" stroke-linecap="round" stroke-linejoin="round" stroke-width="1.45" d="M107 218.43l-36-20.76a3.73 3.73 0 0 1-1.55-3v-79.73c0-1.15.69-1.67 1.55-1.18l36 20.77a3.7 3.7 0 0 1 1.55 3v79.76c-.04 1.11-.73 1.64-1.55 1.14z"/>
            <path stroke="#001A64" stroke-linecap="round" stroke-linejoin="round" stroke-width="1.45" d="M100.44 173.8L77.5 160.56a3.76 3.76 0 0 1-1.55-3V127c0-1.15.7-1.68 1.55-1.18l22.94 13.24a3.74 3.74 0 0 1 1.56 3v30.58c0 1.13-.7 1.66-1.56 1.16z"/>
            <ellipse cx="82.57" cy="137.494" stroke="#001A64" stroke-linecap="round" stroke-linejoin="round" stroke-width="1.45" rx="3.05" ry="5.4" transform="rotate(-23.05 82.57 137.494)"/>
            <path stroke="#001A64" stroke-linecap="round" stroke-linejoin="round" stroke-width="1.45" d="M86.38 157.3l2-3.51 4.38-7.59c.57-1 2-.17 2.55 1.47l4.38 12.65 2.28 6.57M77.13 160.28l3.2-5.54 2.15-3.71c.48-.83 1.67-.14 2.15 1.24l2.15 6.19 3.22 9.31"/>
            <path fill="#06F" fill-rule="nonzero" d="M92.2 182.73l-14.85-8.57a3.38 3.38 0 0 1-1.4-2.68c0-1 .63-1.5 1.4-1.06L92.2 179a3.36 3.36 0 0 1 1.4 2.68c0 1.02-.6 1.5-1.4 1.05z"/>
            <path fill="#94E0FF" fill-rule="nonzero" d="M100.6 194.11l-23.25-13.43A3.34 3.34 0 0 1 76 178c0-1 .63-1.5 1.4-1.06l23.25 13.42a3.38 3.38 0 0 1 1.4 2.68c-.05 1.04-.68 1.51-1.45 1.07z"/>
            <path stroke="#001A64" stroke-linecap="round" stroke-linejoin="round" stroke-width="1.45" d="M100.6 187.58l-4-2.33a3.38 3.38 0 0 1-1.4-2.68c0-1 .63-1.5 1.4-1.06l4 2.34a3.36 3.36 0 0 1 1.4 2.67c0 1.03-.63 1.48-1.4 1.06z"/>
            <path fill="#94E0FF" fill-rule="nonzero" d="M98.61 199l-8.29-4.79a3.38 3.38 0 0 1-1.4-2.68c0-1 .63-1.5 1.4-1.06l8.29 4.79a3.38 3.38 0 0 1 1.4 2.68c-.01 1.06-.63 1.48-1.4 1.06z"/>
            <path stroke="#001A64" stroke-linecap="round" stroke-linejoin="round" stroke-width="1.45" d="M85.65 191.49l-8.3-4.79A3.36 3.36 0 0 1 76 184c0-1 .63-1.51 1.4-1.06l8.3 4.79a3.36 3.36 0 0 1 1.4 2.67c-.05 1.06-.68 1.54-1.45 1.09z"/>
            <path fill="#06F" fill-rule="nonzero" d="M81.37 195.25l-4-2.33a3.34 3.34 0 0 1-1.4-2.67c0-1 .63-1.5 1.4-1.06l4 2.32a3.38 3.38 0 0 1 1.4 2.68c0 1.03-.63 1.5-1.4 1.06z"/>
        </g>
        <g stroke="#001A64" stroke-linecap="round" stroke-linejoin="round" stroke-width="1.45" transform="translate(9 391)">
            <path fill="#FFF" fill-rule="nonzero" d="M670.29 472.46l4.84 11.08a6.33 6.33 0 0 0 5.57.06l5.07-11.14"/>
            <path fill="#001A64" fill-rule="nonzero" d="M680.7 483.6a6.33 6.33 0 0 1-5.57-.06l1.52 3.47a1.36 1.36 0 0 0 2.48 0l1.57-3.41z"/>
            <path fill="#FFF" fill-rule="nonzero" d="M678 472a3.82 3.82 0 0 0 5.6 2.5c1.64-.92 2.47-2.14 2.48-3.36v-91.35c0 1.22-.83 2.45-2.48 3.37a12.61 12.61 0 0 1-11.43-.12 3.94 3.94 0 0 1-2.25-3.25v91.33a3.93 3.93 0 0 0 2.25 3.24A4.06 4.06 0 0 0 678 472"/>
            <path d="M678.03 471.98v-86.83"/>
            <ellipse cx="677.995" cy="380.005" fill="#FFF" fill-rule="nonzero" rx="8.98" ry="5.2" transform="rotate(-.16 677.995 380.005)"/>
            <path fill="#FFF" fill-rule="nonzero" d="M685.73 370.14h-15.4v7.33a3.73 3.73 0 0 0 2.14 3.09 12 12 0 0 0 10.88.11 3.9 3.9 0 0 0 2.36-3.2l.02-7.33z"/>
            <ellipse cx="677.997" cy="370.205" fill="#FFF" fill-rule="nonzero" rx="7.7" ry="4.46" transform="rotate(-.16 677.997 370.205)"/>
            <path fill="#FFF" fill-rule="nonzero" d="M797.52 322.86L697.07 458.18v-77.32z"/>
            <path fill="#FFF" fill-rule="nonzero" d="M752.52 365.02l-40.08 53.99v-30.85zM782.6 331.47v4.86M774.9 335.92v4.86M767.19 340.37v4.86M759.49 344.81v4.86M751.79 349.26v4.86M744.09 353.71v4.86M736.39 358.15v4.86M728.68 362.6v4.86M720.98 367.05v4.86M713.28 371.5v4.85M705.58 375.94v4.86M83.75 50.96L43.6 73"/>
            <path stroke-dasharray="4.39" d="M150.4 68.72l-40.14 22.04"/>
            <path d="M78.57 108.14l.8-2.04"/>
            <path stroke-dasharray="4.74" d="M82.27 98.75l17.09-43.4"/>
            <path d="M100.81 51.67l.81-2.04M60.59 132.11L37.54 73.6"/>
            <path fill="#FFF" fill-rule="nonzero" d="M154.32 79.28l31.29-18.06c5.93-3.43 10.74-12.62 10.74-20.54 0-7.91-4.81-11.55-10.74-8.12l-31.29 18.06c-5.94 3.43-10.75 12.62-10.75 20.54 0 7.91 4.81 11.55 10.75 8.12zM87.13 63.61l41.11-23.74c7.8-4.5 14.12-16.58 14.12-27 0-10.4-6.32-15.18-14.12-10.68L87.13 26c-7.8 4.5-14.12 16.58-14.12 27-.01 10.33 6.32 15.11 14.12 10.61zM63.19 142l41.11-23.74c7.8-4.5 14.12-16.58 14.12-27 0-10.4-6.32-15.18-14.12-10.68l-41.11 23.74c-7.8 4.5-14.12 16.58-14.12 27 0 10.38 6.32 15.16 14.12 10.68zM10.74 110L42 91.93c5.93-3.43 10.74-12.62 10.74-20.54 0-7.91-4.81-11.55-10.74-8.12L10.71 81.33C4.81 84.76 0 94 0 101.86c0 7.92 4.81 11.56 10.74 8.14z"/>
            <path d="M741.47 131.55l2.5-6.16-6.06-19.17-6.1 12.15 2.5 9.05M737.87 106.99V119"/>
            <ellipse cx="737.812" cy="121.47" rx="1.04" ry="1.84" transform="rotate(-23.05 737.812 121.47)"/>
            <path d="M732.86 126.59l10.16 5.86v3.8l-10.16-5.86zM759.69 98.79l-19.15-11c-.28-.16-.3-.47.09-.7l22-12.73"/>
            <path d="M751.49 74.74l19.15 11.06c.28.16.3.47-.09.7l-22.11 12.76"/>
        </g>
        <path fill="#FFF" d="M252.92 423.49c0 .12.11.25.16.38a3 3 0 0 1 .09.32c0 .13.07.26.1.39.037.205.064.412.08.62v.1a5.48 5.48 0 0 1 0 .7v.11a5.43 5.43 0 0 1-.1.67v.13a7.55 7.55 0 0 1-.21.74 4.68 4.68 0 0 1-.18.48c0 .14-.1.28-.17.43-.07.15-.16.33-.24.5-.08.17-.17.34-.27.52s-.34.56-.53.83l-.15.22c-.173.24-.353.48-.54.72l-.07.09c-.21.25-.43.5-.65.74-.22.24-.32.33-.48.5-.16.17-.24.25-.37.37l-.54.49-.38.33c-.37.32-.77.62-1.17.91l-.38.27c-.24.16-.48.33-.73.48l-.47.3-.62.36-.52.28-.58.3-.54.25-.6.26-.54.22-.65.24-.52.17c-.27.09-.53.16-.8.23l-.51.14-.28.07-.82.16h-.23l-.74.09h-.36a9.66 9.66 0 0 1-1.07 0c-3 0-5-1-6-2.7l110.52 191.82c1 1.67 3 2.71 6 2.71H348.29l.64-.07H349.27l.82-.16.27-.06.19-.05.33-.09.79-.23.21-.06.31-.12.66-.24.26-.09.28-.12.59-.26.29-.13.25-.13.59-.3c.1-.044.197-.094.29-.15l.23-.13c.21-.12.41-.23.61-.36l.31-.17.17-.12.73-.49.29-.19.09-.07c.4-.29.79-.6 1.17-.91l.06-.05.31-.28.55-.49.37-.38.48-.49.1-.11c.193-.207.373-.417.54-.63l.08-.1c.19-.24.37-.47.54-.72l.15-.21c.18-.28.36-.56.52-.84a.83.83 0 0 0 .09-.16c.07-.12.12-.23.18-.35.06-.12.18-.34.25-.51l.17-.42c.06-.17.13-.33.18-.49a1 1 0 0 0 0-.1c.06-.21.12-.42.16-.63a.79.79 0 0 0 0-.13c0-.13 0-.26.07-.38v-.29a.45.45 0 0 0 0-.11 4.84 4.84 0 0 0 0-.53.41.41 0 0 1 0-.11v-.44-.26a.24.24 0 0 1 0-.08c0-.14-.07-.26-.1-.39s0-.18-.07-.27a.14.14 0 0 1 0-.06c0-.13-.11-.25-.17-.38-.06-.13-.06-.16-.1-.24l-.06-.1-110.55-191.86c.063.114.12.23.17.35"/>
        <path stroke="#001A64" stroke-linecap="round" stroke-linejoin="round" stroke-width="1.45" d="M252.92 423.49c0 .12.11.25.16.38a3 3 0 0 1 .09.32c0 .13.07.26.1.39.037.205.064.412.08.62v.1a5.48 5.48 0 0 1 0 .7v.11a5.43 5.43 0 0 1-.1.67v.13a7.55 7.55 0 0 1-.21.74 4.68 4.68 0 0 1-.18.48c0 .14-.1.28-.17.43-.07.15-.16.33-.24.5-.08.17-.17.34-.27.52s-.34.56-.53.83l-.15.22c-.173.24-.353.48-.54.72l-.07.09c-.21.25-.43.5-.65.74-.22.24-.32.33-.48.5-.16.17-.24.25-.37.37l-.54.49-.38.33c-.37.32-.77.62-1.17.91l-.38.27c-.24.16-.48.33-.73.48l-.47.3-.62.36-.52.28-.58.3-.54.25-.6.26-.54.22-.65.24-.52.17c-.27.09-.53.16-.8.23l-.51.14-.28.07-.82.16h-.23l-.74.09h-.36a9.66 9.66 0 0 1-1.07 0c-3 0-5-1-6-2.7l110.52 191.82c1 1.67 3 2.71 6 2.71H348.29l.64-.07H349.27l.82-.16.27-.06.19-.05.33-.09.79-.23.21-.06.31-.12.66-.24.26-.09.28-.12.59-.26.29-.13.25-.13.59-.3c.1-.044.197-.094.29-.15l.23-.13c.21-.12.41-.23.61-.36l.31-.17.17-.12.73-.49.29-.19.09-.07c.4-.29.79-.6 1.17-.91l.06-.05.31-.28.55-.49.37-.38.48-.49.1-.11c.193-.207.373-.417.54-.63l.08-.1c.19-.24.37-.47.54-.72l.15-.21c.18-.28.36-.56.52-.84a.83.83 0 0 0 .09-.16c.07-.12.12-.23.18-.35.06-.12.18-.34.25-.51l.17-.42c.06-.17.13-.33.18-.49a1 1 0 0 0 0-.1c.06-.21.12-.42.16-.63a.79.79 0 0 0 0-.13c0-.13 0-.26.07-.38v-.29a.45.45 0 0 0 0-.11 4.84 4.84 0 0 0 0-.53.41.41 0 0 1 0-.11v-.44-.26a.24.24 0 0 1 0-.08c0-.14-.07-.26-.1-.39s0-.18-.07-.27a.14.14 0 0 1 0-.06c0-.13-.11-.25-.17-.38-.06-.13-.06-.16-.1-.24l-.06-.1-110.55-191.86c.063.114.12.23.17.35z"/>
        <path fill="#FFF" d="M247.18 420.21c5.85 0 8.24 4.09 5.34 9.14-2.9 5.05-10 9.14-15.84 9.14s-8.24-4.09-5.34-9.14c2.9-5.05 10-9.14 15.84-9.14"/>
        <path stroke="#001A64" stroke-linecap="round" stroke-linejoin="round" stroke-width="1.45" d="M247.18 420.21c5.85 0 8.24 4.09 5.34 9.14-2.9 5.05-10 9.14-15.84 9.14s-8.24-4.09-5.34-9.14c2.9-5.05 9.99-9.14 15.84-9.14z"/>
        <path fill="#FFF" d="M251.82 422.13a4.61 4.61 0 0 0 0-.64v-.09a5 5 0 0 0-.08-.69 1.16 1.16 0 0 0 0-.18 2.75 2.75 0 0 0-.14-.49.84.84 0 0 0 0-.17 4 4 0 0 0-.28-.59c-.19-.33-.5-.87-.92-1.52l-.35-.57-.32-.47c-.27-.4-.57-.83-.89-1.28-.15-.19-.28-.38-.41-.56-.3-.39-.6-.76-.88-1.1l-.08-.09a3.61 3.61 0 0 0-.25-.3c-.43-.52-.9-1-1.39-1.55-.28-.29-.46-.46-.48-.48l-.5-.48-.15-.14-.53-.48-.15-.13-.18-.16-.45-.37c-.39-.33-.82-.66-1.18-.91l-.13-.09-.51-.36a20.39 20.39 0 0 0-1.83-1.1h-.06c-.26-.14-.57-.3-.88-.44-.31-.14-.38-.18-.56-.25l-.11-.05-.2-.08a14.67 14.67 0 0 0-1.55-.55l-.27-.08-.21-.06-.28-.07-.3-.07c-.55-.12-.92-.18-1-.19a9.62 9.62 0 0 0-1.17-.11h-1a8.31 8.31 0 0 0-1.17.12h-.37a5.6 5.6 0 0 0-1.08.35h-.06a5.62 5.62 0 0 0-1.23.71 7.62 7.62 0 0 0-.67.59l-.18.19-.1.1v.06l-.11.12-.07.08c-.19.23-.31.41-.47.64-.16.23-.22.33-.33.51-.13.24-.39.69-.68 1.34a1.17 1.17 0 0 1-.05.11l-.06.15-.11.29a.78.78 0 0 0 0 .14l-.05.12c0 .08 0 .16-.08.24 0 .12-.08.24-.11.36V411.65c-.09.31-.17.6-.23.87s-.09.47-.1.51c0 .24-.09.5-.13.78v.56a.2.2 0 0 1 0 .07 7 7 0 0 0-.06.91V417.32c.005.508.038 1.016.1 1.52 0 .213.02.413.06.6 0 .29.17 1.33.48 2.72a.29.29 0 0 1 0 .09c.13.62.34 1.38.55 2 .1.35.22.71.35 1.07.23.66.54 1.5.83 2.19a41.86 41.86 0 0 0 2.24 4.5c.098.168.209.328.33.48l.12.14a4 4 0 0 0 .35.37l.11.11c.17.14.34.28.53.41l.12.07c.16.1.32.19.5.28l.19.09c.189.09.383.17.58.24h.12c.25.08.51.15.77.21h.22l.65.11h1.17c5.8.09 12.94-3.93 15.94-9 .17-.29.31-.57.45-.86l.11-.23c.1-.22.19-.44.27-.65.08-.21.05-.13.07-.2a6.43 6.43 0 0 0 .24-.79v-.16c0-.21.08-.42.1-.62a1.8 1.8 0 0 0 0-.22"/>
        <path stroke="#001A64" stroke-linecap="round" stroke-linejoin="round" stroke-width="1.45" d="M251.82 422.13a4.61 4.61 0 0 0 0-.64v-.09a5 5 0 0 0-.08-.69 1.16 1.16 0 0 0 0-.18 2.75 2.75 0 0 0-.14-.49.84.84 0 0 0 0-.17 4 4 0 0 0-.28-.59c-.19-.33-.5-.87-.92-1.52l-.35-.57-.32-.47c-.27-.4-.57-.83-.89-1.28-.15-.19-.28-.38-.41-.56-.3-.39-.6-.76-.88-1.1l-.08-.09a3.61 3.61 0 0 0-.25-.3c-.43-.52-.9-1-1.39-1.55-.28-.29-.46-.46-.48-.48l-.5-.48-.15-.14-.53-.48-.15-.13-.18-.16-.45-.37c-.39-.33-.82-.66-1.18-.91l-.13-.09-.51-.36a20.39 20.39 0 0 0-1.83-1.1h-.06c-.26-.14-.57-.3-.88-.44-.31-.14-.38-.18-.56-.25l-.11-.05-.2-.08a14.67 14.67 0 0 0-1.55-.55l-.27-.08-.21-.06-.28-.07-.3-.07c-.55-.12-.92-.18-1-.19a9.62 9.62 0 0 0-1.17-.11h-1a8.31 8.31 0 0 0-1.17.12h-.37a5.6 5.6 0 0 0-1.08.35h-.06a5.62 5.62 0 0 0-1.23.71 7.62 7.62 0 0 0-.67.59l-.18.19-.1.1v.06l-.11.12-.07.08c-.19.23-.31.41-.47.64-.16.23-.22.33-.33.51-.13.24-.39.69-.68 1.34a1.17 1.17 0 0 1-.05.11l-.06.15-.11.29a.78.78 0 0 0 0 .14l-.05.12c0 .08 0 .16-.08.24 0 .12-.08.24-.11.36V411.65c-.09.31-.17.6-.23.87s-.09.47-.1.51c0 .24-.09.5-.13.78v.56a.2.2 0 0 1 0 .07 7 7 0 0 0-.06.91V417.32c.005.508.038 1.016.1 1.52 0 .213.02.413.06.6 0 .29.17 1.33.48 2.72a.29.29 0 0 1 0 .09c.13.62.34 1.38.55 2 .1.35.22.71.35 1.07.23.66.54 1.5.83 2.19a41.86 41.86 0 0 0 2.24 4.5c.098.168.209.328.33.48l.12.14a4 4 0 0 0 .35.37l.11.11c.17.14.34.28.53.41l.12.07c.16.1.32.19.5.28l.19.09c.189.09.383.17.58.24h.12c.25.08.51.15.77.21h.22l.65.11h1.17c5.8.09 12.94-3.93 15.94-9 .17-.29.31-.57.45-.86l.11-.23c.1-.22.19-.44.27-.65.08-.21.05-.13.07-.2a6.43 6.43 0 0 0 .24-.79v-.16c0-.21.08-.42.1-.62a1.8 1.8 0 0 0-.38.12z"/>
        <path fill="#0035AF" d="M365.11 615.11c2.08 3.6-1.8 9.89-7.41 13.12-5.61 3.23-14.18 6.81-17.12 1.71-2.94-5.1-27.71-47.76-29.75-51.52-2.04-3.76-2-5.62-.78-5.28 1.22.34 28.27 39 31.55 43.54 3.28 4.54 4.8 1.63 4-1-.8-2.63-23.16-46.61-19.87-48.51 2.5-1.44 11.73 11.77 21.51 25.47 9.78 13.7 12.07 17.44 11.28 14.69l6.59 7.78z"/>
        <path fill="#94E0FF" d="M412.49 521.93s-6 7.83-5.54 25.55c.46 17.72 9.54 35.34 9.54 35.34a70 70 0 0 0 10.5-35.34c.25-20.34-4.54-25.55-4.54-25.55h-9.96z"/>
        <path fill="#06F" d="M422.45 525.79a224.82 224.82 0 0 1-4.83 35.13s-5.24-23.42-5.13-34.37l9.96-.76z"/>
        <path fill="#FFF" d="M432.28 206.26v.43c0 .15-.06.22-.09.34-.03.12-.07.27-.11.4a4.35 4.35 0 0 1-.25.59v.1a5.73 5.73 0 0 1-.38.62l-.07.09a5.58 5.58 0 0 1-.44.55l-.08.11c-.18.19-.37.37-.57.55-.2.18-.27.23-.41.34l-.38.3-.48.32-.51.33c-.29.17-.6.32-.91.47l-.24.12-.86.37h-.12c-.31.12-.64.23-1 .33s-.46.14-.69.2l-.53.14-.74.16-.51.1c-.5.09-1 .16-1.53.22h-.48l-.9.06H416.77l-.67-.07-.6-.09-.72-.12-.55-.11-.84-.21-.53-.14-.28-.09-.82-.28-.23-.08-.72-.31c-.11-.05-.23-.09-.34-.15-.34-.16-.673-.33-1-.51-2.65-1.53-4-3.53-4-5.54l-.21 314.31c0 2 1.31 4 4 5.54.32.18.653.35 1 .51l.34.15.61.27h.11l.23.09.82.28.28.09.19.06.34.08.84.2.22.06.33.06.72.12.28.05h.31l.68.08H419.79l.91-.06h.47c.52-.06 1-.13 1.53-.22h.07c.15 0 .29-.06.44-.09l.74-.16.53-.14.69-.2h.15l.81-.29h.12c.29-.11.58-.23.86-.36l.24-.12c.31-.15.62-.3.91-.47l.16-.1c.13-.07.23-.15.35-.23l.48-.32c.14-.1.25-.2.38-.3.13-.1.28-.22.41-.34a.27.27 0 0 0 .08-.07c.18-.16.33-.32.49-.48l.08-.11c.09-.1.19-.2.27-.3l.17-.25.07-.09c.11-.15.21-.307.3-.47a.3.3 0 0 0 0-.1c.08-.14.14-.28.2-.41.06-.13.08-.17.11-.25v-.08a3.45 3.45 0 0 0 .11-.4 2.76 2.76 0 0 0 .08-.27v-.08-.42a2.48 2.48 0 0 0 0-.27v-.12l.21-314.31v.39"/>
        <path stroke="#001A64" stroke-linecap="round" stroke-linejoin="round" stroke-width="1.45" d="M432.28 206.26v.43c0 .15-.06.22-.09.34-.03.12-.07.27-.11.4a4.35 4.35 0 0 1-.25.59v.1a5.73 5.73 0 0 1-.38.62l-.07.09a5.58 5.58 0 0 1-.44.55l-.08.11c-.18.19-.37.37-.57.55-.2.18-.27.23-.41.34l-.38.3-.48.32-.51.33c-.29.17-.6.32-.91.47l-.24.12-.86.37h-.12c-.31.12-.64.23-1 .33s-.46.14-.69.2l-.53.14-.74.16-.51.1c-.5.09-1 .16-1.53.22h-.48l-.9.06H416.77l-.67-.07-.6-.09-.72-.12-.55-.11-.84-.21-.53-.14-.28-.09-.82-.28-.23-.08-.72-.31c-.11-.05-.23-.09-.34-.15-.34-.16-.673-.33-1-.51-2.65-1.53-4-3.53-4-5.54l-.21 314.31c0 2 1.31 4 4 5.54.32.18.653.35 1 .51l.34.15.61.27h.11l.23.09.82.28.28.09.19.06.34.08.84.2.22.06.33.06.72.12.28.05h.31l.68.08H419.79l.91-.06h.47c.52-.06 1-.13 1.53-.22h.07c.15 0 .29-.06.44-.09l.74-.16.53-.14.69-.2h.15l.81-.29h.12c.29-.11.58-.23.86-.36l.24-.12c.31-.15.62-.3.91-.47l.16-.1c.13-.07.23-.15.35-.23l.48-.32c.14-.1.25-.2.38-.3.13-.1.28-.22.41-.34a.27.27 0 0 0 .08-.07c.18-.16.33-.32.49-.48l.08-.11c.09-.1.19-.2.27-.3l.17-.25.07-.09c.11-.15.21-.307.3-.47a.3.3 0 0 0 0-.1c.08-.14.14-.28.2-.41.06-.13.08-.17.11-.25v-.08a3.45 3.45 0 0 0 .11-.4 2.76 2.76 0 0 0 .08-.27v-.08-.42a2.48 2.48 0 0 0 0-.27v-.12l.21-314.31c.1.13.08.26.07.39z"/>
        <path fill="#FFF" d="M428.81 200.34c5.26 3 5.28 7.95.06 11-5.22 3.05-13.73 3-19 0s-5.29-8-.06-11 13.72-3 19 0"/>
        <path stroke="#001A64" stroke-linecap="round" stroke-linejoin="round" stroke-width="1.45" d="M428.81 200.34c5.26 3 5.28 7.95.06 11-5.22 3.05-13.73 3-19 0s-5.29-8-.06-11 13.73-3.04 19 0z"/>
        <path fill="#FFF" d="M436 169.5v-.44c.18-3.17.22-4.3.2-6.54v-.73-.38c0-.54 0-1.12-.08-1.64v-.09-.24a.61.61 0 0 0 0-.14 2 2 0 0 0 0-.25v-.15a1.79 1.79 0 0 0 0-.23v-.32-.81a1.11 1.11 0 0 1 0-.19v-.12c-.05-.43-.1-.81-.16-1.28v-.3c0-.11 0-.26-.06-.42a.78.78 0 0 1 0-.16.13.13 0 0 1 0-.06c0-.24-.09-.5-.14-.79v-.15-.29l-.06-.31v-.16c0-.05 0-.23-.07-.35-.07-.12 0-.13 0-.19l-.06-.28c0-.12 0-.24-.08-.36s0-.05 0-.07v-.12a.29.29 0 0 0 0-.09c-.19-.83-.3-1.25-.5-1.91a.19.19 0 0 1 0-.07c-.1-.33-.23-.73-.35-1.11-.04-.12-.08-.25-.12-.39-.06-.2-.15-.44-.24-.71-.18-.5-.38-1.05-.58-1.51-.4-1-.91-2.17-1.49-3.3a1.09 1.09 0 0 1-.08-.15l-.09-.17c-.2-.39-1-1.81-2-3.39-.14-.21-.4-.59-.75-1.07a.83.83 0 0 0-.11-.15l-.25-.35-.4-.52-.19-.23-.18-.22-.15-.19s-.14-.15-.28-.32l-.45-.49-.14-.15-.47-.48-.55-.51-.14-.13a15.72 15.72 0 0 0-2-1.55H423.86l-.08-.05a10.17 10.17 0 0 0-1-.52l-.19-.09-.22-.1-.74-.27h-.7l-.25-.07h-.11l-.29-.06h-.13l-.41-.06H417.95l-.32.05h-.1l-.34.08h-.06a8.49 8.49 0 0 0-1 .36l-.15.07-.12.05c-.26.12-.51.25-.76.39s-.53.31-.89.55l-.24.16c-.2.14-.41.29-.62.47-.21.18-.41.32-.57.46l-.09.07-.12.11-.08.07-.12.11c-.16.15-.34.31-.55.52l-.5.51c-.34.35-.75.81-1 1.17-.53.65-1 1.3-1.44 1.92-.16.22-.32.45-.47.69-.31.47-.65 1-.92 1.48s-.78 1.35-1.07 1.95c-.21.42-.43.9-.66 1.39-.23.49-.57 1.24-.8 1.77-.17.38-.35.85-.52 1.31l-.12.33c-.08.23-.16.45-.22.66l-.24.72v.06l-.09.29-.09.28c-.06.22-.13.43-.18.61-.1.41-.22.86-.34 1.33-.17.67-.33 1.36-.45 1.95a.36.36 0 0 0 0 .1v.1c0 .16-.07.33-.1.5-.03.17-.08.41-.11.63l-.15.92v.36c0 .34-.09.7-.13 1.06v.3l-.09.93v.52a.09.09 0 0 1 0 .05c0 .4 0 .79-.08 1.18V165.82c0 .61 0 1.24.08 2.11v2.48c0 .51 0 .94.06 1.34.06.4 0 .77 0 1.34V197.75c0 .697.084 1.392.25 2.07v.06l.12.42v.06c0 .06 0 0 0 0a6.614 6.614 0 0 0 .2.59c.035.105.075.209.12.31a.77.77 0 0 0 .07.16v.08c0 .09.08.19.13.29v.1c.11.23.23.46.35.66.11.19.26.43.43.69.17.26.27.38.33.46a6.4 6.4 0 0 0 .47.59v.05c.334.392.694.76 1.08 1.1.24.22.57.51.83.7.435.338.89.652 1.36.94l.4.24.12.07.1.05.68.36c.21.1.6.3 1.2.55h.24a18.31 18.31 0 0 0 1.85.63l.27.08c.53.15 1.11.29 1.76.41l.38.06c.38.07.77.13 1.19.18.867.1 1.738.153 2.61.16h2.12c.54 0 1.11-.11 1.71-.2h.18c.34-.05.8-.13 1.13-.21.55-.12 1.28-.31 2-.53h.07l.2-.06.27-.1.21-.07h.1l.17-.06.94-.39h.07l.29-.14c.33-.15.62-.3.9-.45l.44-.25.16-.1.43-.26c.12-.07.47-.31.9-.63l.09-.06c.2-.15.54-.42.88-.73l.15-.13a7.27 7.27 0 0 0 .68-.68l.47-.54.2-.26.32-.44a10.31 10.31 0 0 0 1.38-2.64c.07-.2.13-.41.19-.62a.24.24 0 0 0 0-.08 6 6 0 0 0 .16-.67 9.38 9.38 0 0 0 .17-1.64V197v-3.76-2.7-3-3.2-3.21V175.33v-2.26c0-.87 0-1.18.06-2 0-.32 0-.7.06-1.15v-.37"/>
        <path stroke="#001A64" stroke-linecap="round" stroke-linejoin="round" stroke-width="1.45" d="M436 169.5v-.44c.18-3.17.22-4.3.2-6.54v-.73-.38c0-.54 0-1.12-.08-1.64v-.09-.24a.61.61 0 0 0 0-.14 2 2 0 0 0 0-.25v-.15a1.79 1.79 0 0 0 0-.23v-.32-.81a1.11 1.11 0 0 1 0-.19v-.12c-.05-.43-.1-.81-.16-1.28v-.3c0-.11 0-.26-.06-.42a.78.78 0 0 1 0-.16.13.13 0 0 1 0-.06c0-.24-.09-.5-.14-.79v-.15-.29l-.06-.31v-.16c0-.05 0-.23-.07-.35-.07-.12 0-.13 0-.19l-.06-.28c0-.12 0-.24-.08-.36s0-.05 0-.07v-.12a.29.29 0 0 0 0-.09c-.19-.83-.3-1.25-.5-1.91a.19.19 0 0 1 0-.07c-.1-.33-.23-.73-.35-1.11-.04-.12-.08-.25-.12-.39-.06-.2-.15-.44-.24-.71-.18-.5-.38-1.05-.58-1.51-.4-1-.91-2.17-1.49-3.3a1.09 1.09 0 0 1-.08-.15l-.09-.17c-.2-.39-1-1.81-2-3.39-.14-.21-.4-.59-.75-1.07a.83.83 0 0 0-.11-.15l-.25-.35-.4-.52-.19-.23-.18-.22-.15-.19s-.14-.15-.28-.32l-.45-.49-.14-.15-.47-.48-.55-.51-.14-.13a15.72 15.72 0 0 0-2-1.55H423.86l-.08-.05a10.17 10.17 0 0 0-1-.52l-.19-.09-.22-.1-.74-.27h-.7l-.25-.07h-.11l-.29-.06h-.13l-.41-.06H417.95l-.32.05h-.1l-.34.08h-.06a8.49 8.49 0 0 0-1 .36l-.15.07-.12.05c-.26.12-.51.25-.76.39s-.53.31-.89.55l-.24.16c-.2.14-.41.29-.62.47-.21.18-.41.32-.57.46l-.09.07-.12.11-.08.07-.12.11c-.16.15-.34.31-.55.52l-.5.51c-.34.35-.75.81-1 1.17-.53.65-1 1.3-1.44 1.92-.16.22-.32.45-.47.69-.31.47-.65 1-.92 1.48s-.78 1.35-1.07 1.95c-.21.42-.43.9-.66 1.39-.23.49-.57 1.24-.8 1.77-.17.38-.35.85-.52 1.31l-.12.33c-.08.23-.16.45-.22.66l-.24.72v.06l-.09.29-.09.28c-.06.22-.13.43-.18.61-.1.41-.22.86-.34 1.33-.17.67-.33 1.36-.45 1.95a.36.36 0 0 0 0 .1v.1c0 .16-.07.33-.1.5-.03.17-.08.41-.11.63l-.15.92v.36c0 .34-.09.7-.13 1.06v.3l-.09.93v.52a.09.09 0 0 1 0 .05c0 .4 0 .79-.08 1.18V165.82c0 .61 0 1.24.08 2.11v2.48c0 .51 0 .94.06 1.34.06.4 0 .77 0 1.34V197.75c0 .697.084 1.392.25 2.07v.06l.12.42v.06c0 .06 0 0 0 0a6.614 6.614 0 0 0 .2.59c.035.105.075.209.12.31a.77.77 0 0 0 .07.16v.08c0 .09.08.19.13.29v.1c.11.23.23.46.35.66.11.19.26.43.43.69.17.26.27.38.33.46a6.4 6.4 0 0 0 .47.59v.05c.334.392.694.76 1.08 1.1.24.22.57.51.83.7.435.338.89.652 1.36.94l.4.24.12.07.1.05.68.36c.21.1.6.3 1.2.55h.24a18.31 18.31 0 0 0 1.85.63l.27.08c.53.15 1.11.29 1.76.41l.38.06c.38.07.77.13 1.19.18.867.1 1.738.153 2.61.16h2.12c.54 0 1.11-.11 1.71-.2h.18c.34-.05.8-.13 1.13-.21.55-.12 1.28-.31 2-.53h.07l.2-.06.27-.1.21-.07h.1l.17-.06.94-.39h.07l.29-.14c.33-.15.62-.3.9-.45l.44-.25.16-.1.43-.26c.12-.07.47-.31.9-.63l.09-.06c.2-.15.54-.42.88-.73l.15-.13a7.27 7.27 0 0 0 .68-.68l.47-.54.2-.26.32-.44a10.31 10.31 0 0 0 1.38-2.64c.07-.2.13-.41.19-.62a.24.24 0 0 0 0-.08 6 6 0 0 0 .16-.67 9.38 9.38 0 0 0 .17-1.64V197v-3.76-2.7-3-3.2-3.21V175.33v-2.26c0-.87 0-1.18.06-2 0-.32 0-.7.06-1.15l.17-.42z"/>
        <path fill="#0035AF" d="M432.9 522.29c0 4.15-6.5 7.66-13 7.66s-15.69-1.2-15.69-7.09-.11-55.22 0-59.49c.11-4.27 1-5.89 2-5 1 .89 5 47.94 5.54 53.49.54 5.55 3.36 3.81 3.93 1.12.57-2.69 3.6-51.95 7-51.95 2.89 0 4.28 16.06 5.9 32.81 1.62 16.75 1.73 21.14 2.42 18.37l1.9 10.08z"/>
        <path fill="#FFF" d="M597.9 496.41l-.24.32-.24.25-.29.28a4.49 4.49 0 0 1-.49.37l-.09.06a6.14 6.14 0 0 1-.62.34h-.1c-.2.09-.41.17-.63.25h-.12a6.17 6.17 0 0 1-.74.19c-.16 0-.34.06-.51.09-.17.03-.3.05-.46.06H590.97l-.9-.11h-.12c-.32-.05-.64-.12-1-.19l-.67-.17-.51-.13-.7-.23-.47-.15c-.46-.17-.92-.36-1.37-.56l-.42-.2c-.27-.12-.53-.25-.79-.39l-.49-.26-.53-.23-.5-.31-.55-.36-.49-.34-.53-.39-.46-.36c-.18-.14-.36-.29-.53-.45l-.41-.36c-.21-.18-.4-.38-.6-.57l-.37-.38-.2-.21c-.19-.2-.37-.41-.55-.62l-.15-.19c-.16-.19-.3-.39-.45-.59l-.22-.29c-.2-.3-.39-.6-.57-.91-1.47-2.55-1.61-4.86-.64-6.53l-110.9 191.58c-1 1.66-.83 4 .64 6.52.18.31.37.61.58.91l.22.29.37.51.07.09.16.18c.167.207.347.417.54.63l.2.21.13.14.24.23.6.58c.058.045.112.095.16.15l.25.21c.18.15.35.3.54.44l.21.18.25.18.52.39.25.18.24.16.55.36.28.18.23.13.61.35.31.17.19.1.78.38.32.16h.1c.45.2.91.39 1.38.56h.06l.41.13.69.22.51.14.67.17h.15l.82.16h.12c.3 0 .59.08.89.11h2.4l.45-.07.51-.08h.1a6 6 0 0 0 .64-.18h.12l.37-.13.27-.12h.1c.16-.08.32-.16.47-.25l.09-.06.36-.25.21-.15.06-.06c.104-.086.2-.18.29-.28a1.8 1.8 0 0 0 .2-.19l.24-.33c.08-.11.12-.14.16-.22l.06-.09 110.87-191.63-.22.32"/>
        <path stroke="#001A64" stroke-linecap="round" stroke-linejoin="round" stroke-width="1.45" d="M597.9 496.41l-.24.32-.24.25-.29.28a4.49 4.49 0 0 1-.49.37l-.09.06a6.14 6.14 0 0 1-.62.34h-.1c-.2.09-.41.17-.63.25h-.12a6.17 6.17 0 0 1-.74.19c-.16 0-.34.06-.51.09-.17.03-.3.05-.46.06H590.97l-.9-.11h-.12c-.32-.05-.64-.12-1-.19l-.67-.17-.51-.13-.7-.23-.47-.15c-.46-.17-.92-.36-1.37-.56l-.42-.2c-.27-.12-.53-.25-.79-.39l-.49-.26-.53-.23-.5-.31-.55-.36-.49-.34-.53-.39-.46-.36c-.18-.14-.36-.29-.53-.45l-.41-.36c-.21-.18-.4-.38-.6-.57l-.37-.38-.2-.21c-.19-.2-.37-.41-.55-.62l-.15-.19c-.16-.19-.3-.39-.45-.59l-.22-.29c-.2-.3-.39-.6-.57-.91-1.47-2.55-1.61-4.86-.64-6.53l-110.9 191.58c-1 1.66-.83 4 .64 6.52.18.31.37.61.58.91l.22.29.37.51.07.09.16.18c.167.207.347.417.54.63l.2.21.13.14.24.23.6.58c.058.045.112.095.16.15l.25.21c.18.15.35.3.54.44l.21.18.25.18.52.39.25.18.24.16.55.36.28.18.23.13.61.35.31.17.19.1.78.38.32.16h.1c.45.2.91.39 1.38.56h.06l.41.13.69.22.51.14.67.17h.15l.82.16h.12c.3 0 .59.08.89.11h2.4l.45-.07.51-.08h.1a6 6 0 0 0 .64-.18h.12l.37-.13.27-.12h.1c.16-.08.32-.16.47-.25l.09-.06.36-.25.21-.15.06-.06c.104-.086.2-.18.29-.28a1.8 1.8 0 0 0 .2-.19l.24-.33c.08-.11.12-.14.16-.22l.06-.09 110.87-191.63-.19.28z"/>
        <path fill="#FFF" d="M597.24 489.43c2.92 5.06.58 9.18-5.25 9.2-5.83.02-12.91-4.08-15.84-9.15-2.93-5.07-.58-9.18 5.24-9.2 5.82-.02 12.92 4.08 15.85 9.15"/>
        <path stroke="#001A64" stroke-linecap="round" stroke-linejoin="round" stroke-width="1.45" d="M597.24 489.43c2.92 5.06.58 9.18-5.25 9.2-5.83.02-12.91-4.08-15.84-9.15-2.93-5.07-.58-9.18 5.24-9.2 5.82-.02 12.92 4.08 15.85 9.15z"/>
        <path fill="#FFF" d="M597.65 494.27a5.12 5.12 0 0 0 .57-.3l.08-.05c.196-.12.38-.257.55-.41l.14-.12a4.17 4.17 0 0 0 .36-.37l.11-.13a4 4 0 0 0 .38-.54c.19-.34.5-.88.86-1.56.11-.21.22-.41.31-.6l.25-.5c.21-.44.44-.91.66-1.42l.28-.63c.19-.45.36-.9.52-1.31v-.11c0-.03.09-.25.13-.37.23-.63.45-1.3.64-2 .11-.39.18-.63.18-.66l.17-.67v-.19c.06-.25.11-.49.16-.71v-.2-.23c0-.07.07-.39.1-.57a15 15 0 0 0 .2-1.49v-.16c0-.21 0-.42.06-.61 0-.55.06-1.34 0-2.14v-.07c0-.29 0-.64-.06-1s0-.42-.06-.61 0-.08 0-.12v-.22c-.08-.59-.19-1.13-.3-1.62 0-.09 0-.18-.07-.27l-.06-.21c0-.1 0-.19-.07-.28l-.09-.29v-.05a8.78 8.78 0 0 0-.34-1v-.05c-.15-.37-.31-.73-.48-1.06l-.16-.28-.09-.17c0-.09-.11-.17-.16-.25v-.09a7.34 7.34 0 0 0-.7-1l-.1-.1-.15-.19a6 6 0 0 0-.84-.76 6 6 0 0 0-2.07-1l-.26-.06h-.48a7.238 7.238 0 0 0-.78-.09h-.61a12.729 12.729 0 0 0-1.5.08h-.31l-.31.05h-.27l-.25.05-.37.08H593.18l-.87.24-.49.17-.74.27h-.07l-.34.14h-.06a7.67 7.67 0 0 0-.7.32l-.13.07-.48.24-.29.16-.33.18-.37.22-.26.15c-.39.23-.85.54-1.27.85l-.49.35c-.23.18-1.07.81-2.11 1.78l-.08.06c-.46.42-1 1-1.49 1.49a33.05 33.05 0 0 0-.75.84c-.45.53-1 1.22-1.47 1.82a39.05 39.05 0 0 0-2.79 4.19 5.12 5.12 0 0 0-.25.53l-.06.17a4 4 0 0 0-.15.49v.15a3.74 3.74 0 0 0-.09.66V482.11c0 .07 0 .41.09.62a.51.51 0 0 1 0 .13c.06.25.13.5.21.77 0 .06 0 .13.07.2s.15.41.24.62c.09.21.06.15.1.23.12.27.26.55.41.83 2.83 5.06 9.88 9.23 15.75 9.3h1.26c.24 0 .47-.06.7-.09h.21c.28-.05.55-.12.8-.19h.15c.21-.07.41-.15.59-.23l.2-.09"/>
        <path stroke="#001A64" stroke-linecap="round" stroke-linejoin="round" stroke-width="1.45" d="M597.65 494.27a5.12 5.12 0 0 0 .57-.3l.08-.05c.196-.12.38-.257.55-.41l.14-.12a4.17 4.17 0 0 0 .36-.37l.11-.13a4 4 0 0 0 .38-.54c.19-.34.5-.88.86-1.56.11-.21.22-.41.31-.6l.25-.5c.21-.44.44-.91.66-1.42l.28-.63c.19-.45.36-.9.52-1.31v-.11c0-.03.09-.25.13-.37.23-.63.45-1.3.64-2 .11-.39.18-.63.18-.66l.17-.67v-.19c.06-.25.11-.49.16-.71v-.2-.23c0-.07.07-.39.1-.57a15 15 0 0 0 .2-1.49v-.16c0-.21 0-.42.06-.61 0-.55.06-1.34 0-2.14v-.07c0-.29 0-.64-.06-1s0-.42-.06-.61 0-.08 0-.12v-.22c-.08-.59-.19-1.13-.3-1.62 0-.09 0-.18-.07-.27l-.06-.21c0-.1 0-.19-.07-.28l-.09-.29v-.05a8.78 8.78 0 0 0-.34-1v-.05c-.15-.37-.31-.73-.48-1.06l-.16-.28-.09-.17c0-.09-.11-.17-.16-.25v-.09a7.34 7.34 0 0 0-.7-1l-.1-.1-.15-.19a6 6 0 0 0-.84-.76 6 6 0 0 0-2.07-1l-.26-.06h-.48a7.238 7.238 0 0 0-.78-.09h-.61a12.729 12.729 0 0 0-1.5.08h-.31l-.31.05h-.27l-.25.05-.37.08H593.18l-.87.24-.49.17-.74.27h-.07l-.34.14h-.06a7.67 7.67 0 0 0-.7.32l-.13.07-.48.24-.29.16-.33.18-.37.22-.26.15c-.39.23-.85.54-1.27.85l-.49.35c-.23.18-1.07.81-2.11 1.78l-.08.06c-.46.42-1 1-1.49 1.49a33.05 33.05 0 0 0-.75.84c-.45.53-1 1.22-1.47 1.82a39.05 39.05 0 0 0-2.79 4.19 5.12 5.12 0 0 0-.25.53l-.06.17a4 4 0 0 0-.15.49v.15a3.74 3.74 0 0 0-.09.66V482.11c0 .07 0 .41.09.62a.51.51 0 0 1 0 .13c.06.25.13.5.21.77 0 .06 0 .13.07.2s.15.41.24.62c.09.21.06.15.1.23.12.27.26.55.41.83 2.83 5.06 9.88 9.23 15.75 9.3h1.26c.24 0 .47-.06.7-.09h.21c.28-.05.55-.12.8-.19h.15c.21-.07.41-.15.59-.23l.02-.03z"/>
        <path fill="#0035AF" d="M518.66 632s-27.2 47.66-28.44 47.83c-.61.09 1-1.25 8-16.56 7-15.31 13.8-29.92 11.3-31.36-2.5-1.44-30.23 39.41-32.08 41.46-1.85 2.05-5.12 2.16-2.84-2.93 2.28-5.09 22.27-47.83 21.93-49.1-.34-1.27-1.94-.32-4.18 3.32-2.24 3.64-26.8 46.42-29.75 51.52-2.95 5.1 7.24 11.52 10.84 13.6 3.6 2.08 11.64 4.79 14.27.23 2.08-3.6 22.79-39.56 26.74-46.21 3.48-5.86 6.29-10.62 4.24-11.8"/>
        <g stroke="#001A64" stroke-linecap="round" stroke-linejoin="round">
            <path stroke-width="1.45" d="M765.17 541.85l-36.99-21.35v-42.71l36.99 21.35zM802.16 520.5l-36.99 21.35v-42.71l36.99-21.35zM765.17 499.14l-36.99-21.35 36.99-21.36 36.99 21.36z"/>
            <path stroke-width="1.44" d="M765.17 504.65l36.99-21.49M765.11 510l37.05-21.53M765.17 515.28l36.99-21.5M765.11 520.63l37.05-21.53M765.17 525.91l36.99-21.5M765.17 531.22l36.99-21.49M765.17 536.54l36.99-21.5"/>
        </g>
        <g stroke="#001A64" stroke-linecap="round" stroke-linejoin="round" stroke-width="1.45">
            <path d="M635.67 147.52a4.83 4.83 0 0 0-3.36.35M637 147.93a7.27 7.27 0 0 0-1.31-.41M690.37 196.08c1.2-.71 1.94-2.22 1.94-4.35a15 15 0 0 0-6.76-11.71 7.43 7.43 0 0 0-1.74-.74V179c0-6.15-4.32-13.64-9.65-16.72-2.7-1.56-5.13-1.69-6.89-.64-1.7-7.37-6.84-15-12.93-18.49-3.61-2.09-6.9-2.34-9.33-1.07"/>
            <path fill="#FFF" fill-rule="nonzero" d="M684.14 196.32a15 15 0 0 0-6.76-11.71 7.43 7.43 0 0 0-1.74-.74v-.26c0-6.16-4.32-13.65-9.65-16.73-2.7-1.56-5.13-1.69-6.89-.64-1.7-7.36-6.84-15-12.93-18.49-7.33-4.23-13.3-.93-13.51 7.35a14.3 14.3 0 0 0-2.6-2c-4.73-2.73-8.56-.52-8.56 4.94 0 5.46 3.83 12.1 8.56 14.83l.26.14 47.79 27.59v-.05c3.39 1.59 6.03-.2 6.03-4.23z"/>
            <path d="M682.21 200.69l8.17-4.61M624.16 152.48l8.15-4.61M636.85 146.69l8.16-4.6M699.23 9.12a6.69 6.69 0 0 0-4.57.48M701 9.68a11.12 11.12 0 0 0-1.79-.56M773.8 75.32c1.63-1 2.64-3 2.64-5.93 0-5.88-4.13-13-9.22-16a9.8 9.8 0 0 0-2.37-1v-.37c0-8.39-5.9-18.6-13.17-22.79-3.67-2.12-7-2.3-9.38-.88-2.32-10-9.33-20.41-17.62-25.19-4.93-2.85-9.41-3.2-12.72-1.47"/>
            <path fill="#FFF" fill-rule="nonzero" d="M765.3 75.65c0-5.88-4.12-13-9.22-16a9.42 9.42 0 0 0-2.37-1v-.37c0-8.39-5.89-18.6-13.16-22.79-3.68-2.12-7-2.3-9.38-.88-2.32-10-9.34-20.41-17.63-25.19-10-5.78-18.13-1.28-18.42 10a19.53 19.53 0 0 0-3.54-2.68c-6.45-3.72-11.67-.7-11.67 6.74s5.22 16.49 11.67 20.21l.36.2 65.13 37.61v-.07c4.63 2.15 8.23-.29 8.23-5.78z"/>
            <path d="M762.68 81.61l11.12-6.29M683.54 15.88l11.12-6.28M700.85 8L712 1.72M139.66 151.61a4.83 4.83 0 0 0-3.36.35M141 152a7 7 0 0 0-1.31-.41M194.36 200.17c1.2-.71 1.94-2.22 1.94-4.35a15 15 0 0 0-6.76-11.72 7.63 7.63 0 0 0-1.74-.73v-.27c0-6.16-4.32-13.64-9.65-16.72-2.7-1.56-5.13-1.69-6.89-.64-1.7-7.37-6.84-15-12.92-18.49-3.62-2.09-6.91-2.34-9.33-1.07"/>
            <path fill="#FFF" fill-rule="nonzero" d="M188.13 200.41a15 15 0 0 0-6.76-11.71 7.43 7.43 0 0 0-1.74-.74v-.27c0-6.15-4.32-13.64-9.65-16.72-2.7-1.56-5.13-1.69-6.89-.64-1.7-7.37-6.84-15-12.93-18.49-7.33-4.23-13.3-.93-13.51 7.35a14 14 0 0 0-2.6-2c-4.73-2.73-8.56-.52-8.56 4.94 0 5.46 3.83 12.1 8.56 14.83l.27.14 47.78 27.59v-.05c3.39 1.59 6.03-.2 6.03-4.23z"/>
            <path d="M186.2 204.78l8.17-4.61M128.15 156.57l8.15-4.57M140.84 150.78l8.17-4.6"/>
        </g>
    </g>
</svg>
