<svg xmlns="http://www.w3.org/2000/svg" width="966" height="695" viewBox="0 0 966 695">
    <g fill="none" fill-rule="evenodd">
        <circle cx="2.1" cy="1.8" r="1.5" fill="#FFF" fill-rule="nonzero" transform="translate(60 85)"/>
        <circle cx="1.9" cy="2" r="1.5" fill="#FFF" fill-rule="nonzero" transform="translate(161 37)"/>
        <circle cx="1.5" cy="2" r="1.5" fill="#FFF" fill-rule="nonzero" transform="translate(133 37)"/>
        <circle cx="1.5" cy="1.8" r="1.5" fill="#FFF" fill-rule="nonzero" transform="translate(153 20)"/>
        <circle cx="2.1" cy="1.5" r="1.5" fill="#FFF" fill-rule="nonzero" transform="translate(707 242)"/>
        <circle cx="2.2" cy="2.1" r="1.5" fill="#FFF" fill-rule="nonzero" transform="translate(743 272)"/>
        <circle cx="2.3" cy="1.9" r="1.5" fill="#FFF" fill-rule="nonzero" transform="translate(758 258)"/>
        <circle cx="2.1" cy="1.5" r="1.5" fill="#FFF" fill-rule="nonzero" transform="translate(631 692)"/>
        <circle cx="2.2" cy="1.8" r="1.5" fill="#FFF" fill-rule="nonzero" transform="translate(676 668)"/>
        <circle cx="1.7" cy="2" r="1.5" fill="#FFF" fill-rule="nonzero" transform="translate(39 543)"/>
        <circle cx="1.6" cy="2.2" r="1.5" fill="#FFF" fill-rule="nonzero" transform="translate(51 566)"/>
        <circle cx="1.6" cy="2.4" r="1.5" fill="#FFF" fill-rule="nonzero" transform="translate(60 615)"/>
        <circle cx="2" cy="2.2" r="1.5" fill="#FFF" fill-rule="nonzero" transform="translate(70 591)"/>
        <circle cx="1.6" cy="1.9" r="1.5" fill="#FFF" fill-rule="nonzero" transform="translate(124 614)"/>
        <circle cx="2.2" cy="1.7" r="1.5" fill="#FFF" fill-rule="nonzero" transform="translate(101 643)"/>
        <circle cx="1.6" cy="2.4" r="1.5" fill="#FFF" fill-rule="nonzero" transform="translate(0 518)"/>
        <path fill="#94E0FF" d="M444.5 610.5s-6 7.8-5.5 25.6c.4 17.7 9.5 35.3 9.5 35.3s10.2-15 10.5-35.3c.3-20.3-4.5-25.6-4.5-25.6h-10z"/>
        <path fill="#06F" d="M454.4 614.3s-.5 14.9-4.8 35.1c0 0-5.2-23.4-5.1-34.4l9.9-.7z"/>
        <path fill="#FFF" d="M437.5 294.3l-.2 314.3c0 2 1.3 4 4 5.5.3.2.6.4 1 .5.1.1.2.1.3.1l.6.3h.1c.1 0 .2.1.2.1.3.1.5.2.8.3.1 0 .2.1.3.1.1 0 .1 0 .2.1.1 0 .2.1.3.1.3.1.6.1.8.2.1 0 .1 0 .2.1.1 0 .2 0 .3.1.2 0 .5.1.7.1h.6c.2 0 .4.1.7.1H451.6c.3 0 .6 0 .9-.1h.5c.5-.1 1-.1 1.5-.2h.1c.1 0 .3-.1.4-.1.2-.1.5-.1.7-.2.2 0 .4-.1.5-.1.2-.1.5-.1.7-.2h.1c.3-.1.5-.2.8-.3h.1c.3-.1.6-.2.9-.4.1 0 .2-.1.2-.1.3-.2.6-.3.9-.5.1 0 .1-.1.2-.1.1-.1.2-.2.3-.2.2-.1.3-.2.5-.3.1-.1.3-.2.4-.3.1-.1.3-.2.4-.3 0 0 .1 0 .1-.1l.5-.5.1-.1.3-.3c.1-.1.1-.2.2-.2 0 0 0-.1.1-.1.1-.2.2-.3.3-.5v-.1c.1-.1.1-.3.2-.4 0-.1.1-.2.1-.2v-.1c0-.1.1-.3.1-.4 0-.1.1-.2.1-.3v-.1-.4-.3-.1l.2-314.3v.4"/>
        <path stroke="#001A64" stroke-linecap="round" stroke-linejoin="round" stroke-width="1.445" d="M437.5 294.3l-.2 314.3c0 2 1.3 4 4 5.5.3.2.6.4 1 .5.1.1.2.1.3.1l.6.3h.1c.1 0 .2.1.2.1.3.1.5.2.8.3.1 0 .2.1.3.1.1 0 .1 0 .2.1.1 0 .2.1.3.1.3.1.6.1.8.2.1 0 .1 0 .2.1.1 0 .2 0 .3.1.2 0 .5.1.7.1h.6c.2 0 .4.1.7.1H451.6c.3 0 .6 0 .9-.1h.5c.5-.1 1-.1 1.5-.2h.1c.1 0 .3-.1.4-.1.2-.1.5-.1.7-.2.2 0 .4-.1.5-.1.2-.1.5-.1.7-.2h.1c.3-.1.5-.2.8-.3h.1c.3-.1.6-.2.9-.4.1 0 .2-.1.2-.1.3-.2.6-.3.9-.5.1 0 .1-.1.2-.1.1-.1.2-.2.3-.2.2-.1.3-.2.5-.3.1-.1.3-.2.4-.3.1-.1.3-.2.4-.3 0 0 .1 0 .1-.1l.5-.5.1-.1.3-.3c.1-.1.1-.2.2-.2 0 0 0-.1.1-.1.1-.2.2-.3.3-.5v-.1c.1-.1.1-.3.2-.4 0-.1.1-.2.1-.2v-.1c0-.1.1-.3.1-.4 0-.1.1-.2.1-.3v-.1-.4-.3-.1l.2-314.3"/>
        <path fill="#94E0FF" d="M447.1 210s-4.9 6.4-4.5 20.9c.4 14.5 7.8 28.9 7.8 28.9s8.4-12.3 8.6-28.9c.2-16.7-3.7-20.9-3.7-20.9h-8.2z"/>
        <path fill="#06F" d="M455.3 213.2s-.4 12.2-4 28.8c0 0-4.3-19.2-4.2-28.1l8.2-.7z"/>
        <path fill="#FFF" fill-rule="nonzero" stroke="#001A64" stroke-linecap="round" stroke-linejoin="round" stroke-width="1.445" d="M442.7 144.4l-.1 64.8c0 1.2.8 2.4 2.4 3.4l.6.3c.1 0 .1.1.2.1.1.1.2.1.4.2h.1s.1 0 .1.1c.2.1.3.1.5.2.1 0 .1 0 .2.1h.1c.1 0 .1 0 .2.1.2 0 .3.1.5.1H448.2c.1 0 .3.1.4.1H452.2c.3 0 .6-.1.9-.1.1 0 .2 0 .3-.1.2 0 .3-.1.5-.1.1 0 .2-.1.3-.1.1 0 .3-.1.4-.1h.1c.2-.1.3-.1.5-.2h.1c.2-.1.4-.1.5-.2.1 0 .1 0 .2-.1.2-.1.4-.2.5-.3 0 0 .1 0 .1-.1.1 0 .1-.1.2-.1.1-.1.2-.1.3-.2.1-.1.2-.1.2-.2.1-.1.2-.1.3-.2h.1l.3-.3.1-.1.2-.2.1-.1v-.1c.1-.1.1-.2.2-.3v-.1c0-.1.1-.2.1-.3l.1-.1v-.1c0-.1 0-.2.1-.2v-.2-.3-.2-.1l.1-64.8"/>
        <path fill="#FFF" d="M460.8 138.9c5.3 3 5.3 8 .1 11s-13.7 3-19 0c-5.3-3-5.3-8-.1-11 5.2-3.1 13.7-3.1 19 0"/>
        <path stroke="#001A64" stroke-linecap="round" stroke-linejoin="round" stroke-width="1.445" d="M460.8 138.9c5.3 3 5.3 8 .1 11s-13.7 3-19 0c-5.3-3-5.3-8-.1-11 5.2-3.1 13.7-3.1 19 0z"/>
        <path fill="#FFF" d="M468 108v-.5c.2-3.2.2-4.3.2-6.5v-.3-.4-.4c0-.5 0-1.1-.1-1.6v-.1-.2-.1-.3-.1-.2-.3-.5-.4-.2-.1c0-.4-.1-.8-.2-1.3v-.3c0-.1 0-.3-.1-.4v-.2-.1c0-.2-.1-.5-.1-.8v-.1c0-.1 0-.2-.1-.3 0-.1 0-.2-.1-.3v-.2c0-.1 0-.2-.1-.3v-.2c0-.1 0-.2-.1-.3 0-.1-.1-.2-.1-.4v-.1-.1-.1c-.2-.8-.3-1.3-.5-1.9v-.1c-.1-.3-.2-.7-.3-1.1 0-.1-.1-.3-.1-.4-.1-.2-.1-.4-.2-.7-.2-.5-.4-1.1-.6-1.5-.4-1-.9-2.2-1.5-3.3 0-.1-.1-.1-.1-.2s-.1-.1-.1-.2c-.2-.4-1-1.8-2-3.4-.1-.2-.4-.6-.7-1.1 0-.1-.1-.1-.1-.1l-.3-.3c-.1-.2-.3-.4-.4-.5-.1-.1-.1-.2-.2-.2l-.2-.2-.2-.2s-.1-.2-.3-.3l-.5-.5-.1-.1c-.1-.2-.3-.3-.5-.5s-.4-.3-.5-.5l-.1-.1c-.8-.7-1.4-1.2-2.1-1.5h-.1-.1c-.1-.1-.5-.3-1-.5-.1 0-.1-.1-.2-.1s-.2-.1-.2-.1c-.3-.1-.6-.2-.7-.3h-.1c-.1 0-.2 0-.3-.1h-.1c-.1 0-.2 0-.3-.1h-.1c-.1 0-.3 0-.4-.1h-1.1-.7c-.1 0-.2 0-.3.1h-.1c-.1 0-.2.1-.3.1-.5.1-.8.3-1 .4h-.1c-.1 0-.1 0-.2.1 0 0-.1 0-.1.1-.3.1-.5.2-.8.4-.2.1-.5.3-.9.6-.1.1-.2.1-.2.2-.2.1-.4.3-.6.5-.2.2-.4.3-.6.5l-.1.1-.1.1-.1.1-.1.1c-.2.1-.3.3-.5.5l-.5.5c-.3.3-.7.8-1 1.2-.5.7-1 1.3-1.4 1.9-.2.2-.3.5-.5.7-.3.5-.7 1-.9 1.5-.3.6-.8 1.4-1.1 2-.2.4-.4.9-.7 1.4-.3.6-.6 1.2-.8 1.8-.2.4-.4.9-.5 1.3 0 .1-.1.2-.1.3-.1.2-.2.5-.2.7-.1.2-.2.5-.2.7v.1c0 .1-.1.2-.1.3 0 .1-.1.2-.1.3-.1.2-.1.4-.2.6-.1.4-.2.9-.3 1.3-.2.7-.3 1.4-.5 1.9v.2c0 .2-.1.3-.1.5s-.1.4-.1.6c-.1.3-.1.6-.1.9 0 .1 0 .2-.1.4 0 .3-.1.7-.1 1.1v.3c0 .3-.1.6-.1.9v.6c0 .4-.1.8-.1 1.2v5.7c0 .6 0 1.2.1 2.1V109.3c0 .5 0 .9.1 1.3V136.6c0 .9.1 1.6.3 2.1v.1c0 .2.1.3.1.4v.1c0 .1.1.3.2.5v.1c0 .1.1.2.1.3 0 .1 0 .1.1.2v.1c0 .1.1.2.1.3v.1c.1.2.2.5.4.7.1.2.3.4.4.7.1.2.3.4.3.5v.1c.2.2.3.4.5.6.5.6 1 1 1.1 1.1.2.2.6.5.8.7.4.3.7.5 1.4.9.1.1.3.2.4.2 0 0 .1 0 .1.1 0 0 .1 0 .1.1.2.1.5.3.7.4.2.1.6.3 1.2.5 0 0 .1 0 .1.1h.1c.4.2 1.1.4 1.8.6.1 0 .2.1.3.1.5.1 1.1.3 1.8.4.1 0 .3 0 .4.1.4.1.8.1 1.2.2.5.1 1.4.2 2.6.2H453.3c.5 0 1.1-.1 1.7-.2h.2c.3-.1.8-.1 1.1-.2.6-.1 1.3-.3 2-.5h.1c.1 0 .1 0 .2-.1.1 0 .2-.1.3-.1.1 0 .1 0 .2-.1h.1c.1 0 .1 0 .2-.1h.1c.3-.1.7-.3.9-.4h.1c.1 0 .2-.1.3-.1.3-.2.6-.3.9-.5.2-.1.3-.2.4-.2 0 0 .1-.1.2-.1.1-.1.3-.2.4-.3.1-.1.5-.3.9-.6 0 0 .1 0 .1-.1.2-.1.5-.4.9-.7l.1-.1.7-.7.5-.5c.1-.1.1-.2.2-.3.1-.1.2-.3.3-.4.2-.2.3-.5.5-.8.2-.4.6-1 .9-1.9.1-.2.1-.4.2-.6v-.1c.1-.2.1-.4.2-.7.1-.5.2-1.1.2-1.6v-.7-1.6-2.2-2.7-3-3.2-3.2-3.1-2.7-2.3c0-.9 0-1.2.1-2 0-.3 0-.7.1-1.1-.6-1.1-.6-1.2-.6-1.4"/>
        <path stroke="#001A64" stroke-linecap="round" stroke-linejoin="round" stroke-width="1.445" d="M468 108v-.5c.2-3.2.2-4.3.2-6.5v-.3-.4-.4c0-.5 0-1.1-.1-1.6v-.1-.2-.1-.3-.1-.2-.3-.5-.4-.2-.1c0-.4-.1-.8-.2-1.3v-.3c0-.1 0-.3-.1-.4v-.2-.1c0-.2-.1-.5-.1-.8v-.1c0-.1 0-.2-.1-.3 0-.1 0-.2-.1-.3v-.2c0-.1 0-.2-.1-.3v-.2c0-.1 0-.2-.1-.3 0-.1-.1-.2-.1-.4v-.1-.1-.1c-.2-.8-.3-1.3-.5-1.9v-.1c-.1-.3-.2-.7-.3-1.1 0-.1-.1-.3-.1-.4-.1-.2-.1-.4-.2-.7-.2-.5-.4-1.1-.6-1.5-.4-1-.9-2.2-1.5-3.3 0-.1-.1-.1-.1-.2s-.1-.1-.1-.2c-.2-.4-1-1.8-2-3.4-.1-.2-.4-.6-.7-1.1 0-.1-.1-.1-.1-.1l-.3-.3c-.1-.2-.3-.4-.4-.5-.1-.1-.1-.2-.2-.2l-.2-.2-.2-.2s-.1-.2-.3-.3l-.5-.5-.1-.1c-.1-.2-.3-.3-.5-.5s-.4-.3-.5-.5l-.1-.1c-.8-.7-1.4-1.2-2.1-1.5h-.1-.1c-.1-.1-.5-.3-1-.5-.1 0-.1-.1-.2-.1s-.2-.1-.2-.1c-.3-.1-.6-.2-.7-.3h-.1c-.1 0-.2 0-.3-.1h-.1c-.1 0-.2 0-.3-.1h-.1c-.1 0-.3 0-.4-.1h-1.1-.7c-.1 0-.2 0-.3.1h-.1c-.1 0-.2.1-.3.1-.5.1-.8.3-1 .4h-.1c-.1 0-.1 0-.2.1 0 0-.1 0-.1.1-.3.1-.5.2-.8.4-.2.1-.5.3-.9.6-.1.1-.2.1-.2.2-.2.1-.4.3-.6.5-.2.2-.4.3-.6.5l-.1.1-.1.1-.1.1-.1.1c-.2.1-.3.3-.5.5l-.5.5c-.3.3-.7.8-1 1.2-.5.7-1 1.3-1.4 1.9-.2.2-.3.5-.5.7-.3.5-.7 1-.9 1.5-.3.6-.8 1.4-1.1 2-.2.4-.4.9-.7 1.4-.3.6-.6 1.2-.8 1.8-.2.4-.4.9-.5 1.3 0 .1-.1.2-.1.3-.1.2-.2.5-.2.7-.1.2-.2.5-.2.7v.1c0 .1-.1.2-.1.3 0 .1-.1.2-.1.3-.1.2-.1.4-.2.6-.1.4-.2.9-.3 1.3-.2.7-.3 1.4-.5 1.9v.2c0 .2-.1.3-.1.5s-.1.4-.1.6c-.1.3-.1.6-.1.9 0 .1 0 .2-.1.4 0 .3-.1.7-.1 1.1v.3c0 .3-.1.6-.1.9v.6c0 .4-.1.8-.1 1.2v5.7c0 .6 0 1.2.1 2.1V109.3c0 .5 0 .9.1 1.3V136.6c0 .9.1 1.6.3 2.1v.1c0 .2.1.3.1.4v.1c0 .1.1.3.2.5v.1c0 .1.1.2.1.3 0 .1 0 .1.1.2v.1c0 .1.1.2.1.3v.1c.1.2.2.5.4.7.1.2.3.4.4.7.1.2.3.4.3.5v.1c.2.2.3.4.5.6.5.6 1 1 1.1 1.1.2.2.6.5.8.7.4.3.7.5 1.4.9.1.1.3.2.4.2 0 0 .1 0 .1.1 0 0 .1 0 .1.1.2.1.5.3.7.4.2.1.6.3 1.2.5 0 0 .1 0 .1.1h.1c.4.2 1.1.4 1.8.6.1 0 .2.1.3.1.5.1 1.1.3 1.8.4.1 0 .3 0 .4.1.4.1.8.1 1.2.2.5.1 1.4.2 2.6.2H453.3c.5 0 1.1-.1 1.7-.2h.2c.3-.1.8-.1 1.1-.2.6-.1 1.3-.3 2-.5h.1c.1 0 .1 0 .2-.1.1 0 .2-.1.3-.1.1 0 .1 0 .2-.1h.1c.1 0 .1 0 .2-.1h.1c.3-.1.7-.3.9-.4h.1c.1 0 .2-.1.3-.1.3-.2.6-.3.9-.5.2-.1.3-.2.4-.2 0 0 .1-.1.2-.1.1-.1.3-.2.4-.3.1-.1.5-.3.9-.6 0 0 .1 0 .1-.1.2-.1.5-.4.9-.7l.1-.1.7-.7.5-.5c.1-.1.1-.2.2-.3.1-.1.2-.3.3-.4.2-.2.3-.5.5-.8.2-.4.6-1 .9-1.9.1-.2.1-.4.2-.6v-.1c.1-.2.1-.4.2-.7.1-.5.2-1.1.2-1.6v-.7-1.6-2.2-2.7-3-3.2-3.2-3.1-2.7-2.3c0-.9 0-1.2.1-2 0-.3 0-.7.1-1.1-.6-1.1-.6-1.2-.6-1.4z"/>
        <path fill="#0035AF" d="M464.9 610.8c0 4.2-6.5 7.7-13 7.7-6.4 0-15.7-1.2-15.7-7.1 0-5.9-.1-55.2 0-59.5.1-4.3 1-5.9 2-5 .9.9 5 47.9 5.5 53.5.6 5.5 3.4 3.8 3.9 1.1.5-2.7 3.6-51.9 7-51.9 2.9 0 4.3 16.1 5.9 32.8 1.6 16.8 1.7 21.1 2.4 18.4l2 10z"/>
        <path fill="#FFF" fill-rule="nonzero" stroke="#001A64" stroke-linecap="round" stroke-linejoin="round" stroke-width="1.445" d="M460.3 288.9c5.3 3 5.3 8 .1 11s-13.7 3-19 0c-5.3-3-5.3-8-.1-11 5.3-3.1 13.8-3.1 19 0z"/>
        <path stroke="#001A64" stroke-linecap="round" stroke-linejoin="round" stroke-width="1.445" d="M451 69.7V148"/>
        <path stroke="#FFF" stroke-linecap="round" stroke-linejoin="round" stroke-width="1.445" d="M830.5 559.1c0 33.5-27.2 60.7-60.7 60.7s-60.7-27.2-60.7-60.7 27.2-60.7 60.7-60.7 60.7 27.2 60.7 60.7"/>
        <path stroke="#47494C" stroke-linecap="round" stroke-linejoin="round" stroke-width="1.445" d="M830.5 559.1c0 33.5-27.2 60.7-60.7 60.7s-60.7-27.2-60.7-60.7 27.2-60.7 60.7-60.7 60.7 27.2 60.7 60.7z"/>
        <path fill="#47494C" d="M782.4 617.9s-19.1 1.6-27.8-1.9c-16-6.5-22.7-16.5-21.7-23.8 1.9-14.1-1.5-17.8-11.4-28.9-12-13.5-3.4-37.4 7.8-45.5 11.3-8.1 34.6-11 33.7-19.4 0 0-54 8.4-55.1 59.9-.9 48.6 48.5 67.7 74.5 59.6"/>
        <path stroke="#47494C" stroke-linecap="round" stroke-linejoin="round" stroke-width="1.445" d="M803.8 539c-3.2-6.2-2.6-12.9 1.4-15 4-2.1 9.9 1.2 13.2 7.3 3.2 6.2 2.6 12.9-1.4 15-4.1 2.1-10-1.2-13.2-7.3zM772.5 599.4c7-.3 12.7 2.8 12.9 7 .2 4.2-5.3 7.8-12.3 8.1-7 .3-12.7-2.8-12.9-7-.1-4.2 5.4-7.8 12.3-8.1z"/>
        <path stroke="#8B9097" stroke-linecap="round" stroke-linejoin="round" stroke-width="1.445" d="M798.5 612.6s-8.4 1.7-15.6-1.4"/>
        <path stroke="#47494C" stroke-linecap="round" stroke-linejoin="round" stroke-width="1.445" d="M764.6 601.5s-21.7-17.4-27.7-40.4M734.9 552.2s-4.4-20.2 0-34.4"/>
        <path stroke="#47494C" stroke-dasharray="8" stroke-linecap="round" stroke-linejoin="round" stroke-width="1.445" d="M207.8 448.6c29.437 0 53.3-23.863 53.3-53.3 0-29.437-23.863-53.3-53.3-53.3-29.437 0-53.3 23.863-53.3 53.3 0 29.437 23.863 53.3 53.3 53.3z"/>
        <circle cx="36.8" cy="36.3" r="36" stroke="#47494C" stroke-linecap="round" stroke-linejoin="round" stroke-width="1.445" transform="translate(171 359)"/>
        <circle cx="16.8" cy="16.3" r="16.2" stroke="#47494C" stroke-linecap="round" stroke-linejoin="round" stroke-width="1.445" transform="translate(191 379)"/>
        <circle cx="5.6" cy="5.8" r="5.5" fill="#04080F" fill-rule="nonzero" stroke="#47494C" stroke-linecap="round" stroke-linejoin="round" stroke-width="1.445" transform="translate(186 358)"/>
        <circle cx="6.3" cy="5.5" r="5.5" fill="#04080F" fill-rule="nonzero" stroke="#47494C" stroke-linecap="round" stroke-linejoin="round" stroke-width="1.445" transform="translate(247 418)"/>
        <path fill="#47494C" fill-rule="nonzero" d="M198.5 382.3c.2 2.3-.8 4.5-1.7 6.7-.8 2.2-1.4 4.7-.3 6.7.7 1.3 1.9 2.2 2.6 3.4 1.2 2.3.4 5.4 2.2 7.3.9 1 2.4 1.3 3.7 1.5 1.4.2 2.8.2 4 .8.5.2.9.5 1.1.9.2.4.1 1.1-.3 1.3-.2.1-.5.2-.7.2-6.4.5-12.9-3.1-15.9-8.7-3-5.7-2.1-13.2 2.2-17.9"/>
        <circle cx="3.2" cy="2.9" r="2.3" fill="#47494C" fill-rule="nonzero" transform="translate(204 384)"/>
        <circle cx="3.2" cy="3.4" r="3" fill="#47494C" fill-rule="nonzero" transform="translate(212 391)"/>
        <path stroke="#47494C" stroke-linecap="round" stroke-linejoin="round" stroke-width="1.445" d="M952.4 48.3c4.2.6 8.4 1.2 12.6 1.9-.5-24.4-18.8-45.5-43.8-48.8-27.6-3.7-53 15.8-56.6 43.4-.2 1.8-.4 3.6-.4 5.4 28.3-5.1 58-5.9 88.2-1.9zM961.3 49.6c0 1.4 0 2.9-.1 4.3M867.8 53.8c-.1-1.4-.1-2.9-.1-4.3"/>
        <path stroke="#47494C" stroke-linecap="round" stroke-linejoin="round" stroke-width="1.445" d="M907.9 101.4c27.6 3.7 53-15.8 56.6-43.4.2-1.2.3-2.3.3-3.4-4.1-.7-8.3-1.4-12.5-1.9-30.1-4-59.8-3.2-88.2 1.9 1.5 23.5 19.5 43.6 43.8 46.8zM881.3 37.3c12.1-1 24.5-1.3 37-.8M865.6 39c3.3-.5 6.6-.9 10-1.2M907.2 29c3.9 0 7.8.1 11.8.3M868.1 31.6c11.1-1.5 22.4-2.4 33.9-2.5M893.1 22.1c3.9-.2 7.9-.3 11.8-.3M872.2 23.9c4.9-.6 9.9-1.1 14.9-1.4M878.6 16c7.2-.7 14.5-1.2 21.8-1.4M908.4 60.2c3.1-.1 6.2-.1 9.3 0M866.1 63.6c12.1-1.8 24.3-2.9 36.7-3.3M893.9 69c7.8-.5 15.6-.7 23.5-.6M868.7 71.5c5.8-.8 11.7-1.5 17.6-2M899.7 77c5.8-.2 11.6-.3 17.5-.3M885.6 77.9c2.7-.2 5.3-.4 8-.6M872.7 79.2c2.8-.3 5.6-.7 8.4-.9M893.3 85.6c1.7-.1 3.5-.2 5.2-.3M878.6 86.8c3.1-.3 6.3-.6 9.4-.9"/>
        <path fill="#47494C" fill-rule="nonzero" d="M961.2 53.9s-42.9-8.8-93.4-.1l-.1-4.3s39.6-8.9 93.6.1l-.1 4.3z"/>
    </g>
</svg>
