<svg width="1440" height="192" viewBox="0 0 1440 192" fill="none" xmlns="http://www.w3.org/2000/svg">
<g opacity="0.16">
<path fill-rule="evenodd" clip-rule="evenodd" d="M1424.65 151.318C1424.65 93.7078 1377.94 47.006 1320.32 47.006C1262.71 47.006 1216 93.7078 1216 151.318C1216 208.928 1262.71 255.63 1320.32 255.63C1377.94 255.63 1424.65 208.928 1424.65 151.318Z" stroke="white" stroke-width="3.658"/>
<path d="M1320.32 469.472V151.318" stroke="white" stroke-width="3.658" stroke-linecap="round" stroke-linejoin="round"/>
</g>
<g opacity="0.16">
<path fill-rule="evenodd" clip-rule="evenodd" d="M518.201 -83.7711H518.2V255.495H518.201C594.135 255.495 655.692 193.945 655.692 118.02V53.7045C655.692 -22.2207 594.135 -83.7711 518.201 -83.7711Z" stroke="white" stroke-width="3.658"/>
<path fill-rule="evenodd" clip-rule="evenodd" d="M590.75 -83.7711L90.8826 -83.7711C19.151 -83.7711 -38.9996 -25.6273 -38.9996 46.0967L590.75 46.0967C626.617 46.0967 655.692 17.0248 655.692 -18.8368C655.692 -54.6992 626.617 -83.7711 590.75 -83.7711Z" stroke="white" stroke-width="3.658"/>
<path fill-rule="evenodd" clip-rule="evenodd" d="M139.497 569.034V569.034C40.9161 569.034 -38.9999 489.128 -38.9999 390.558L-38.9999 46.0966H27.8694C89.5196 46.0966 139.497 96.0682 139.497 157.711L139.497 569.034Z" stroke="white" stroke-width="3.658"/>
<path fill-rule="evenodd" clip-rule="evenodd" d="M240.375 46.0968C240.375 101.804 195.21 146.963 139.497 146.963C83.784 146.963 38.6204 101.804 38.6204 46.0968C38.6204 -9.61001 83.784 -54.7683 139.497 -54.7683C195.21 -54.7683 240.375 -9.61001 240.375 46.0968Z" stroke="white" stroke-width="3.658"/>
<path fill-rule="evenodd" clip-rule="evenodd" d="M513.845 190.978L290.131 190.978C254.495 190.978 225.607 219.862 225.607 255.495C225.607 291.127 254.495 320.012 290.131 320.012H513.845C549.482 320.012 578.37 291.127 578.37 255.495C578.37 219.862 549.482 190.978 513.845 190.978Z" stroke="white" stroke-width="3.658"/>
<path fill-rule="evenodd" clip-rule="evenodd" d="M449.321 255.495C449.321 219.863 478.209 190.978 513.845 190.978C549.482 190.978 578.37 219.863 578.37 255.495C578.37 291.126 549.482 320.011 513.845 320.011C478.209 320.011 449.321 291.126 449.321 255.495Z" stroke="white" stroke-width="3.658"/>
<path d="M655.692 89.4722V-228.682" stroke="white" stroke-width="3.658" stroke-linecap="round" stroke-linejoin="round"/>
<path fill-rule="evenodd" clip-rule="evenodd" d="M462.892 46.0968H518.201V190.978H317.995C317.995 110.963 382.867 46.0968 462.892 46.0968Z" stroke="white" stroke-width="3.658"/>
<path fill-rule="evenodd" clip-rule="evenodd" d="M654.084 -13.9949C654.084 -13.9949 653.218 -5.77079 649.829 -5.3189C645.306 -4.7155 640.448 -12.2817 640.448 -12.2817L648.202 8.83441L655.692 30.7158L654.484 -6.31012L654.084 -13.9949Z" fill="white"/>
<path fill-rule="evenodd" clip-rule="evenodd" d="M90.8525 63.8875C90.8525 63.8875 81.6733 58.0596 81.6733 52.9009C81.6733 47.7422 99.7642 47.5405 99.7642 47.5405L97.352 46.4688H50.249L54.5789 49.3126C54.5789 49.3126 82.772 59.9702 88.7122 64.1187L90.8525 63.8875Z" fill="white"/>
<path fill-rule="evenodd" clip-rule="evenodd" d="M457.898 220.825C457.898 220.825 466.34 209.167 462.219 200.726C458.098 192.284 440.108 192.385 440.108 192.385L446.54 190.977L503.326 191.38C503.326 191.38 471.717 198.515 457.898 220.825Z" fill="white"/>
<path fill-rule="evenodd" clip-rule="evenodd" d="M541.25 44.7271C541.25 44.7271 519.608 44.5843 519.608 22.4761L517.799 25.7675L518.2 46.0967L539.843 45.7314L541.25 44.7271Z" fill="white"/>
</g>
</svg>
