<svg xmlns="http://www.w3.org/2000/svg" width="40" height="40" viewBox="0 0 40 40">
    <g fill="none" fill-rule="evenodd">
        <rect width="40" height="40" fill="#0089B4" rx="10"/>
        <path fill="#FFF" fill-rule="nonzero" d="M30.569 29.438a2.409 2.409 0 0 1 2.083-1.188c1.328 0 2.404 1.064 2.404 2.375 0 1.312-1.076 2.375-2.404 2.375-.89 0-1.667-.478-2.083-1.187H9.487A2.409 2.409 0 0 1 7.404 33C6.077 33 5 31.937 5 30.625c0-1.311 1.077-2.375 2.404-2.375.89 0 1.668.478 2.083 1.188H30.57zm-10.012-17.48c1.457 0 2.626.421 3.506 1.262.88.84 1.32 2.087 1.32 3.74v6.54h-2.705v-6.198c0-.997-.238-1.749-.714-2.255-.476-.506-1.154-.759-2.035-.759-.995 0-1.781.296-2.358.887-.577.592-.866 1.443-.866 2.555v5.77H14V7.642h2.705v5.771c.447-.47 1-.83 1.656-1.08.656-.249 1.388-.373 2.196-.373z"/>
    </g>
</svg>
