<svg xmlns="http://www.w3.org/2000/svg" width="40" height="40" viewBox="0 0 40 40">
    <g fill="none" fill-rule="evenodd">
        <rect width="40" height="40" fill="#53CEC1" rx="10"/>
        <g fill-rule="nonzero" transform="translate(10 11.818)">
            <path fill="#575B5A" d="M2.883.488a1.709 1.709 0 0 0-1.67-.421A1.67 1.67 0 0 0 .04 1.306c-.132.593.078 1.21.545 1.607l8.266 7.563.024.02.064.052.07.053.067.047.073.045.068.037.081.039.066.029.09.033.064.022.102.025.057.014.116.017H10V6.998L2.883.488z"/>
            <path fill="#3B3F3E" d="M10.164 10.897h.043l.118-.017.056-.014.104-.025.062-.02.093-.033.064-.028.086-.04.066-.038.076-.047.065-.045.07-.055.064-.052.024-.02L19.46 2.88a1.64 1.64 0 0 0 .085-2.35 1.72 1.72 0 0 0-2.397-.084L10 6.974v3.935a1.94 1.94 0 0 0 .164-.012z"/>
            <path fill="#FFF" d="M19.091 6.364c-.53.026-.935.383-.908.8v7.577c0 .394.407.714.908.714.501 0 .908-.32.908-.714V7.163c.026-.417-.378-.773-.908-.8z"/>
            <rect width="1.818" height="7.273" x="14.545" y="9.091" fill="#FFF" rx=".909" transform="rotate(-180 15.455 12.727)"/>
            <rect width="1.818" height="4.545" x="10.909" y="11.818" fill="#FFF" rx=".909" transform="rotate(180 11.818 14.09)"/>
            <path fill="#FFF" d="M.909 6.364c.53.026.935.383.908.8v7.577c0 .394-.407.714-.908.714-.501 0-.908-.32-.908-.714V7.163c-.026-.417.378-.773.908-.8z"/>
            <rect width="1.818" height="7.273" x="3.636" y="9.091" fill="#FFF" rx=".909"/>
            <rect width="1.818" height="4.545" x="7.273" y="11.818" fill="#FFF" rx=".909"/>
        </g>
    </g>
</svg>
