<svg xmlns="http://www.w3.org/2000/svg" xmlns:xlink="http://www.w3.org/1999/xlink" width="40" height="40" viewBox="0 0 40 40">
    <defs>
        <path id="a" d="M.032.03h8.656v20.527H.032z"/>
    </defs>
    <g fill="none" fill-rule="evenodd">
        <rect width="40" height="40" fill="#33A4A4" rx="10"/>
        <path fill="#FFF" d="M12.24 16.344a4.424 4.424 0 0 0-1.798-1.322 5.32 5.32 0 0 0-2.003-.373H5.345a.345.345 0 0 0-.345.345v10.691c0 .19.155.345.345.345h3.094a5.32 5.32 0 0 0 2.003-.373 4.424 4.424 0 0 0 1.798-1.322c1.092-1.34 1.255-3.036 1.256-3.928 0-.759-.123-2.673-1.256-4.063m-.824 7.32c-.878 1.078-2.103 1.305-2.977 1.305H6.062V15.71H8.44c.874 0 2.099.226 2.977 1.304.945 1.158 1.018 2.89 1.018 3.393 0 .75-.132 2.172-1.018 3.258M33.856 20.344a3.396 3.396 0 0 0-.594-.388l-.058-.03.049-.041c.409-.36.896-1.037.896-2.207 0-1.069-.368-1.871-1.094-2.384-.615-.434-1.466-.645-2.601-.645H27.19a.345.345 0 0 0-.345.344v10.692c0 .19.155.345.344.345h3.728c1.174 0 2.114-.252 2.795-.747.395-.288.7-.656.905-1.095.21-.45.317-.977.317-1.567 0-.9-.383-1.708-1.078-2.277zm-5.95-4.634h2.548c.895 0 1.565.152 1.988.451.278.196.645.566.645 1.517 0 1.705-1.342 1.837-1.753 1.837h-3.427V15.71zm3.01 9.258h-3.01v-4.391h3.428c1.494 0 2.538.84 2.538 2.044 0 .58 0 2.347-2.955 2.347z"/>
        <g transform="translate(15.605 10.044)">
            <mask id="b" fill="#fff">
                <use xlink:href="#a"/>
            </mask>
            <path fill="#FFF" d="M8.688.03v15.68a.325.325 0 0 1-.326.327.328.328 0 0 1-.264-.133l-7.001-8.92v13.573H.032V4.847a.326.326 0 0 1 .59-.192l7.002 8.925V.03h1.064z" mask="url(#b)"/>
        </g>
    </g>
</svg>
