<svg width="343" height="209" viewBox="0 0 343 209" fill="none" xmlns="http://www.w3.org/2000/svg">
    <g opacity="0.2">
        <path fill-rule="evenodd" clip-rule="evenodd" d="M38.8958 -77.3864L76.179 -77.3864L76.179 -40.9094L40.1292 -40.9094C29.471 -40.9094 20.8001 -32.238 20.8001 -21.58L20.8001 -20.5357C20.8001 -13.3666 24.7265 -7.10119 30.5386 -3.76425C13.9913 -7.56851 1.61299 -22.417 1.61298 -40.103C1.61298 -60.6613 18.3382 -77.3864 38.8958 -77.3864ZM78.6959 -39.2969C78.3612 -38.2183 78.0617 -37.1248 77.7911 -36.02L77.7911 -39.2969L78.6959 -39.2969ZM131.751 -77.3816L131.751 -39.2978L131.751 -29.2999C128.765 -36.1266 121.95 -40.9106 114.035 -40.9106L80.9369 -40.9106C88.3953 -61.9024 108.313 -77.0421 131.751 -77.3816ZM159.555 -77.3874C147.009 -73.6493 137.098 -63.7388 133.359 -51.1922L133.359 -77.3874L159.555 -77.3874ZM133.372 -40.919C133.802 -60.8302 149.918 -76.9468 169.829 -77.3767C169.399 -57.4663 153.282 -41.3496 133.372 -40.919ZM207.927 -40.1045C207.927 -19.5462 191.202 -2.8207 170.644 -2.8207C150.352 -2.8207 133.796 -19.1163 133.371 -39.309C154.171 -39.7392 171.009 -56.5776 171.44 -77.3783C191.632 -76.9525 207.927 -60.3964 207.927 -40.1045ZM209.541 -77.388L337.187 -77.388L337.187 -2.8207L214.38 -2.82069L209.542 -2.82069L209.541 -77.388ZM338.798 -77.3867L413.359 -77.3867C412.928 -36.4635 379.72 -3.25486 338.798 -2.82383L338.798 -77.3867ZM419.009 79.811C419.009 114.836 396.667 144.738 365.488 156.023L365.488 140.363C365.488 125.976 353.784 114.272 339.397 114.272C325.01 114.272 313.306 125.976 313.306 140.363L313.306 156.979C280.909 146.59 257.332 116.329 256.985 80.6069C301.9 80.1694 338.35 43.7178 338.788 -1.19793C383.096 -0.768521 419.009 35.4033 419.009 79.811ZM363.876 156.59C355.745 159.338 347.041 160.83 337.994 160.83C329.98 160.83 322.236 159.655 314.92 157.477L314.92 140.364C314.92 126.866 325.901 115.885 339.398 115.885C352.895 115.885 363.876 126.866 363.876 140.364L363.876 156.59ZM363.876 182.908C363.876 196.406 352.895 207.387 339.398 207.387C325.901 207.387 314.92 196.406 314.92 182.908L314.92 159.159C322.246 161.293 329.988 162.442 337.994 162.442C347.03 162.442 355.731 160.979 363.876 158.285L363.876 182.908ZM132.554 134.575C102.627 134.575 78.2344 110.444 77.8009 80.6171L131.748 80.6171L133.361 80.6171L187.308 80.6171C186.875 110.444 162.482 134.575 132.554 134.575ZM77.7935 -1.20667L114.035 -1.20667L131.751 -1.20667L131.751 23.4443C105.636 23.8128 83.7613 42.0249 77.7935 66.4141L77.7935 -1.20667ZM131.751 -20.5373C131.751 -10.7683 123.803 -2.8207 114.035 -2.8207L77.7935 -2.82069L77.7935 -22.6234C77.7935 -28.4361 78.7072 -34.0379 80.3926 -39.2981L114.035 -39.2981C123.803 -39.2981 131.751 -31.3505 131.751 -21.5816L131.751 -20.5373ZM131.751 -2.8207L121.753 -2.8207C126.214 -4.77182 129.8 -8.35796 131.751 -12.8186L131.751 -2.8207ZM151.723 28.5121C172.255 36.2093 186.973 55.8972 187.308 79.0058L133.365 79.0058C133.553 59.8676 140.414 42.2994 151.723 28.5121ZM133.362 25.0574C139.211 25.1425 144.843 26.1452 150.115 27.9343C141.892 38.1008 136.027 50.2478 133.362 63.5388L133.362 25.0574ZM77.8036 79.0058C78.2334 49.4475 102.193 25.4868 131.751 25.0574L131.751 79.0058L77.8036 79.0058ZM337.181 -1.19637C336.743 42.8291 301.01 78.5578 256.985 78.9957C257.423 34.9669 293.153 -0.761723 337.181 -1.19637ZM255.374 79.0058L188.923 79.0058C188.59 55.4065 173.687 35.2695 152.822 27.2041C167.693 9.82786 189.771 -1.20632 214.38 -1.20633L321.721 -1.20634C284.18 6.32156 255.756 39.3697 255.374 79.0058ZM133.36 -21.5803L133.36 -29.0151C138.146 -12.9529 153.048 -1.20661 170.644 -1.20661C188.239 -1.20661 203.141 -12.9529 207.927 -29.0151L207.927 -2.56904C185.228 -0.807841 165.076 10.1683 151.208 26.6099C145.607 24.6402 139.605 23.5326 133.36 23.4443L133.36 -1.20661L133.36 -2.81943L133.36 -20.536L133.36 -21.5803ZM40.1292 -2.82071C30.3604 -2.82071 22.4129 -10.7683 22.4129 -20.5373L22.4129 -21.5816C22.4129 -31.3505 30.3604 -39.2981 40.1292 -39.2981L76.179 -39.2981L76.179 -22.6235L76.179 -2.82071L40.1292 -2.82071ZM38.8952 -1.20718L40.1286 -1.20718L76.1784 -1.20718L76.1784 80.6178L76.1885 80.6178C76.6219 111.334 101.738 136.189 132.555 136.189C163.372 136.189 188.488 111.334 188.921 80.6178L255.372 80.6178C255.725 117.234 280.009 148.23 313.306 158.675L313.306 182.909C313.306 197.296 325.01 209 339.397 209C353.783 209 365.488 197.296 365.488 182.909L365.488 157.733C397.573 146.377 420.622 115.738 420.622 79.8114C420.622 38.0882 389.537 3.49419 349.312 -2.04144C386.413 -7.53274 414.977 -39.5886 414.977 -78.1937L414.977 -79.0001L338.798 -79.0001L337.186 -79.0001L207.928 -79.0001L207.928 -51.1921C203.215 -67.0083 188.694 -78.6376 171.451 -78.99L171.451 -79.0001L133.361 -79.0001L132.555 -79.0001L131.748 -79.0001L131.748 -78.99C107.41 -78.6465 86.7535 -62.8065 79.2246 -40.9103L77.7912 -40.9103L77.7912 -79.0001L38.8952 -79.0001C17.4482 -79.0001 -0.000389863 -61.5513 -0.000387988 -40.1034C-0.000386113 -18.656 17.4482 -1.20718 38.8952 -1.20718Z" fill="white"/>
    </g>
</svg> 