<svg width="286" height="123" viewBox="0 0 286 123" fill="none" xmlns="http://www.w3.org/2000/svg">
    <g opacity="0.2">
        <path fill-rule="evenodd" clip-rule="evenodd" d="M-96.1042 286.386L-58.821 286.386L-58.821 249.909L-94.8708 249.909C-105.529 249.909 -114.2 241.238 -114.2 230.58L-114.2 229.536C-114.2 222.367 -110.274 216.101 -104.461 212.764C-121.009 216.569 -133.387 231.417 -133.387 249.103C-133.387 269.661 -116.662 286.386 -96.1042 286.386ZM-56.3041 248.297C-56.6388 247.218 -56.9383 246.125 -57.2089 245.02L-57.2089 248.297L-56.3041 248.297ZM-3.24932 286.382L-3.24932 248.298L-3.24932 238.3C-6.23461 245.127 -13.0503 249.911 -20.9652 249.911L-54.0631 249.911C-46.6047 270.902 -26.687 286.042 -3.24932 286.382ZM24.5546 286.387C12.0086 282.649 2.09791 272.739 -1.64059 260.192L-1.64059 286.387L24.5546 286.387ZM-1.62807 249.919C-1.19827 269.83 14.9177 285.947 34.8294 286.377C34.3987 266.466 18.282 250.35 -1.62807 249.919ZM72.9269 249.105C72.9269 228.546 56.2017 211.821 35.6437 211.821C15.3518 211.821 -1.20403 228.116 -1.62942 248.309C19.1705 248.739 36.009 265.578 36.4396 286.378C56.6319 285.952 72.9269 269.396 72.9269 249.105ZM74.5415 286.388L202.187 286.388L202.187 211.821L79.3799 211.821L74.5415 211.821L74.5415 286.388ZM203.798 286.387L278.359 286.387C277.928 245.463 244.72 212.255 203.798 211.824L203.798 286.387ZM284.009 129.189C284.009 94.164 261.667 64.2616 230.488 52.9775L230.488 68.6369C230.488 83.0237 218.784 94.728 204.397 94.728C190.01 94.728 178.306 83.0237 178.306 68.6368L178.306 52.0211C145.909 62.4097 122.332 92.6713 121.985 128.393C166.9 128.831 203.35 165.282 203.788 210.198C248.096 209.769 284.009 173.597 284.009 129.189ZM228.876 52.4101C220.745 49.6618 212.041 48.17 202.994 48.17C194.98 48.17 187.236 49.3453 179.92 51.523L179.92 68.6364C179.92 82.1338 190.901 93.1148 204.398 93.1148C217.895 93.1148 228.876 82.1338 228.876 68.6364L228.876 52.4101ZM228.876 26.0918C228.876 12.5944 217.895 1.61341 204.398 1.61341C190.901 1.61341 179.92 12.5944 179.92 26.0918L179.92 49.8407C187.246 47.7069 194.988 46.5578 202.994 46.5578C212.03 46.5578 220.731 48.021 228.876 50.7149L228.876 26.0918ZM-2.44559 74.4248C-32.3728 74.4248 -56.7656 98.5564 -57.1991 128.383L-3.25199 128.383L-1.6392 128.383L52.3083 128.383C51.8752 98.5564 27.4824 74.4248 -2.44559 74.4248ZM-57.2065 210.207L-20.9652 210.207L-3.24935 210.207L-3.24934 185.556C-29.3643 185.187 -51.2387 166.975 -57.2065 142.586L-57.2065 210.207ZM-3.24932 229.537C-3.24932 219.768 -11.1968 211.821 -20.9652 211.821L-57.2065 211.821L-57.2065 231.623C-57.2065 237.436 -56.2928 243.038 -54.6074 248.298L-20.9652 248.298C-11.1968 248.298 -3.24932 240.35 -3.24932 230.582L-3.24932 229.537ZM-3.24932 211.821L-13.2467 211.821C-8.78606 213.772 -5.2 217.358 -3.24932 221.819L-3.24932 211.821ZM16.7229 180.488C37.2552 172.791 51.9728 153.103 52.3083 129.994L-1.63517 129.994C-1.44688 149.132 5.41438 166.701 16.7229 180.488ZM-1.63829 183.943C4.21132 183.858 9.84285 182.855 15.1151 181.066C6.89223 170.899 1.02684 158.752 -1.63829 145.461L-1.63829 183.943ZM-57.1964 129.994C-56.7666 159.553 -32.8068 183.513 -3.24934 183.943L-3.24934 129.994L-57.1964 129.994ZM202.181 210.196C201.743 166.171 166.01 130.442 121.985 130.004C122.423 174.033 158.153 209.762 202.181 210.196ZM120.374 129.994L53.9231 129.994C53.5904 153.594 38.6873 173.731 17.8217 181.796C32.6929 199.172 54.7706 210.206 79.3804 210.206L186.721 210.206C149.18 202.678 120.756 169.63 120.374 129.994ZM-1.63952 230.58L-1.63952 238.015C3.1461 221.953 18.0476 210.207 35.6437 210.207C53.2394 210.207 68.1413 221.953 72.9269 238.015L72.9269 211.569C50.2283 209.808 30.0763 198.832 16.2078 182.39C10.6073 184.36 4.60527 185.467 -1.63951 185.556L-1.63951 210.207L-1.63951 211.819L-1.63952 229.536L-1.63952 230.58ZM-94.8708 211.821C-104.64 211.821 -112.587 219.768 -112.587 229.537L-112.587 230.582C-112.587 240.35 -104.64 248.298 -94.8708 248.298L-58.821 248.298L-58.821 231.623L-58.821 211.821L-94.8708 211.821ZM-96.1048 210.207L-94.8714 210.207L-58.8216 210.207L-58.8216 128.382L-58.8115 128.382C-58.3781 97.6662 -33.2619 72.8113 -2.44526 72.8113C28.3718 72.8113 53.4884 97.6662 53.9214 128.382L120.372 128.382C120.725 91.7661 145.009 60.7703 178.306 50.3248L178.306 26.0912C178.306 11.7043 190.01 -8.35869e-06 204.397 -7.10093e-06C218.783 -5.84322e-06 230.488 11.7043 230.488 26.0912L230.488 51.2671C262.573 62.6226 285.622 93.262 285.622 129.189C285.622 170.912 254.537 205.506 214.312 211.041C251.413 216.533 279.977 248.589 279.977 287.194L279.977 288L203.798 288L202.186 288L72.9275 288L72.9275 260.192C68.2153 276.008 53.694 287.638 36.4507 287.99L36.4507 288L-1.63885 288L-2.44528 288L-3.25167 288L-3.25167 287.99C-27.5897 287.646 -48.2465 271.806 -55.7754 249.91L-57.2088 249.91L-57.2088 288L-96.1048 288C-117.552 288 -135 270.551 -135 249.103C-135 227.656 -117.552 210.207 -96.1048 210.207Z" fill="white"/>
    </g>
</svg>