<svg width="204" height="514" viewBox="0 0 204 514" fill="none" xmlns="http://www.w3.org/2000/svg">
<g clip-path="url(#clip0)">
<path d="M158.089 130.439C183.474 130.439 204.052 110.167 204.052 85.1614C204.052 60.1552 183.474 39.8838 158.089 39.8838C132.704 39.8838 112.125 60.1552 112.125 85.1614C112.125 110.167 132.704 130.439 158.089 130.439Z" fill="#94E0FF"/>
<path d="M15.5771 306.806L15.5771 171.025C15.5771 152.331 30.9931 137.291 49.8349 137.291C68.8195 137.291 84.0928 152.472 84.0928 171.025L84.0928 306.806C84.2355 325.36 68.8195 340.54 49.9777 340.54C30.9931 340.54 15.5771 325.36 15.5771 306.806Z" fill="#0066FF"/>
<path d="M49.8354 137.289C30.9151 137.289 15.5771 152.398 15.5771 171.036C15.5771 189.674 30.9151 204.783 49.8354 204.783C68.7558 204.783 84.0938 189.674 84.0938 171.036C84.0938 152.398 68.7558 137.289 49.8354 137.289Z" fill="#001A64"/>
<path d="M49.8354 273.046C30.9151 273.046 15.5771 288.155 15.5771 306.793C15.5771 325.431 30.9151 340.54 49.8354 340.54C68.7558 340.54 84.0938 325.431 84.0938 306.793C84.0938 288.155 68.7558 273.046 49.8354 273.046Z" fill="#94E0FF"/>
<path d="M84.0969 371.982L-160.383 371.982C-160.383 438.473 -105.66 492.398 -38.1872 492.398C29.286 492.398 84.0969 438.473 84.0969 371.982Z" fill="#0066FF"/>
<path d="M-28.0234 513.874H183.755C183.755 456.335 136.393 409.565 77.7909 409.565C19.3382 409.713 -28.0234 456.335 -28.0234 513.874Z" fill="#20009B"/>
</g>
<defs>
<clipPath id="clip0">
<rect width="422" height="513.875" fill="white" transform="translate(-218)"/>
</clipPath>
</defs>
</svg>
