<svg width="160" height="36" viewBox="0 0 160 36" fill="none" xmlns="http://www.w3.org/2000/svg">
<path fill-rule="evenodd" clip-rule="evenodd" d="M80.282 21.8262C77.7187 21.8262 75.6408 23.9472 75.6408 26.5637C75.5876 27.8361 76.0596 29.0728 76.9417 29.9733C77.8239 30.8738 79.0356 31.3555 80.282 31.3013C82.8453 31.3013 84.9233 29.1802 84.9233 26.5637C84.9233 23.9472 82.8453 21.8262 80.282 21.8262ZM80.2787 23.9806C81.6964 23.9806 82.5403 25.1693 82.5403 26.5647H82.5445C82.5445 27.9774 81.7133 29.1833 80.2787 29.1833C78.8442 29.1833 78.0425 27.9429 78.0425 26.5647C78.0425 25.1865 78.861 23.9806 80.2787 23.9806Z" fill="#080708"/>
<path d="M86.5054 32.6014C87.1046 32.6014 87.5054 32.4334 87.7248 31.951L88.0539 31.1887L84.4844 22.084H86.9611L89.2522 28.3289L91.5475 22.084H94.0411L89.9104 32.5281C89.2522 34.2164 88.0877 34.6816 86.5772 34.6816C86.1913 34.6745 85.807 34.6298 85.4295 34.5481L85.7755 32.4334C86.0067 32.5343 86.2541 32.5913 86.5054 32.6014Z" fill="#080708"/>
<path d="M38.5977 18.665H47.1882V20.9261H41.1968V23.6179H47.0616V25.8877H41.1968V28.7646H47.1882V31.0516H38.5977V18.665Z" fill="#080708"/>
<path d="M59.1449 25.3939C59.1449 24.5584 58.7821 23.9641 57.8369 23.9641C57.1024 23.9989 56.4269 24.3851 56.0142 25.0063V31.0618H53.6851V25.3939C53.6851 24.5584 53.3223 23.9641 52.3729 23.9641C51.6378 24.0075 50.9649 24.3995 50.5544 25.0235V31.0532H48.2422V22.0863H50.5544V23.2577C51.2707 22.3896 52.3202 21.8807 53.432 21.8623C54.7231 21.8623 55.5416 22.4782 55.8707 23.4989C56.5589 22.4865 57.6846 21.8767 58.8918 21.8623C60.512 21.8623 61.4782 22.7237 61.4782 24.5756V31.0618H59.1449V25.3939Z" fill="#080708"/>
<path fill-rule="evenodd" clip-rule="evenodd" d="M62.8359 22.0863V34.4815L65.1481 34.4987V29.9291C65.7892 30.7987 66.795 31.3081 67.8612 31.303C70.1143 31.303 71.7556 29.5458 71.7556 26.5654C71.7556 23.5851 70.1143 21.8623 67.8612 21.8623C66.7989 21.8572 65.7952 22.3591 65.1481 23.219V22.0863H62.8359ZM65.1492 24.9846C65.6266 24.3577 66.3547 23.983 67.1323 23.9639C68.4614 23.9639 69.3517 25.0061 69.3517 26.5652C69.3517 28.1243 68.4614 29.1838 67.1323 29.1838C66.3566 29.157 65.6316 28.7838 65.1492 28.1631V24.9846Z" fill="#080708"/>
<path d="M72.5781 18.665H74.8903V31.0602H72.5781V18.665Z" fill="#080708"/>
<path d="M105.072 25.3939C105.072 24.5584 104.709 23.9641 103.759 23.9641C103.031 24.0029 102.362 24.3888 101.954 25.0063V31.0618H99.6245V25.3939C99.6245 24.5584 99.2616 23.9641 98.3123 23.9641C97.5679 23.9989 96.8837 24.392 96.4684 25.0235V31.0532H94.1562V22.0863H96.4684V23.2577C97.1834 22.3903 98.2314 21.8814 99.3418 21.8623C100.637 21.8623 101.451 22.4782 101.785 23.4989C102.472 22.4848 103.598 21.8745 104.806 21.8623C106.426 21.8623 107.388 22.7237 107.388 24.5756V31.0618H105.059L105.072 25.3939Z" fill="#080708"/>
<path fill-rule="evenodd" clip-rule="evenodd" d="M117.162 26.8062C117.162 23.8689 115.381 21.8619 112.757 21.8619C111.538 21.8427 110.364 22.3318 109.506 23.2162C108.648 24.1006 108.181 25.3037 108.212 26.5477C108.212 29.4463 110.233 31.2853 112.909 31.2853C114.223 31.3328 115.51 30.8904 116.529 30.0406L115.512 28.516C114.858 29.0901 114.024 29.4063 113.162 29.4075C111.668 29.4075 110.774 28.46 110.63 27.3273H117.162V26.8062ZM114.928 25.7373H110.595V25.7286C110.684 24.5852 111.636 23.714 112.759 23.7475C113.307 23.7111 113.846 23.9017 114.254 24.2762C114.663 24.6507 114.905 25.1775 114.928 25.7373Z" fill="#080708"/>
<path d="M123.858 25.6345C123.858 24.3898 123.221 23.9634 122.238 23.9634C121.444 23.9762 120.702 24.3685 120.234 25.0229V31.0525H117.922V22.0856H120.234V23.2571C121.011 22.3562 122.134 21.8465 123.31 21.8617C125.242 21.8617 126.171 22.9771 126.171 24.7257V31.0611H123.858V25.6345Z" fill="#080708"/>
<path d="M128.003 28.8309V24.1493H126.547V22.0864H128.003V19.6357H130.336V22.0864H132.116V24.1493H130.336V28.2021C130.336 28.7577 130.627 29.1841 131.133 29.1841C131.422 29.1937 131.704 29.1025 131.935 28.9257L132.429 30.7087C131.874 31.133 131.187 31.3381 130.496 31.2858C128.876 31.2858 128.003 30.4288 128.003 28.8309Z" fill="#080708"/>
<path d="M134.445 28.2471C135.258 28.2471 135.918 28.92 135.918 29.7502C135.918 30.5803 135.258 31.2533 134.445 31.2533C133.632 31.2533 132.973 30.5803 132.973 29.7502C132.982 28.9239 133.636 28.2564 134.445 28.2471V28.2471Z" fill="#080708"/>
<path fill-rule="evenodd" clip-rule="evenodd" d="M140.552 21.8252C137.988 21.8252 135.91 23.9463 135.91 26.5628C135.857 27.8351 136.329 29.0719 137.211 29.9723C138.093 30.8728 139.305 31.3545 140.552 31.3003C143.115 31.3003 145.193 29.1792 145.193 26.5628C145.193 23.9463 143.115 21.8252 140.552 21.8252ZM140.553 23.9795C141.987 23.9795 142.81 25.1682 142.81 26.5636C142.81 27.9763 141.991 29.1822 140.553 29.1822C139.114 29.1822 138.312 27.9418 138.312 26.5636C138.312 25.1854 139.118 23.9795 140.553 23.9795Z" fill="#080708"/>
<path d="M146.012 22.0862H148.324V23.3137C149.008 22.4419 150.032 21.9194 151.126 21.8838V24.188C150.916 24.146 150.702 24.1272 150.488 24.132C149.725 24.132 148.704 24.5627 148.324 25.1355V31.0617H146.012V22.0862Z" fill="#080708"/>
<path fill-rule="evenodd" clip-rule="evenodd" d="M155.247 32.7707C154.214 32.8332 153.208 32.4246 152.5 31.6552L151.449 33.365C152.493 34.3038 153.858 34.785 155.247 34.7044C157.416 34.7044 159.998 33.8689 159.998 30.4493V22.0853H157.669V23.2396C157.029 22.3683 156.023 21.8573 154.956 21.8614C152.736 21.8614 151.078 23.4463 151.078 26.4352C151.078 29.4242 152.753 31.0048 154.956 31.0048C156.027 30.9927 157.03 30.47 157.669 29.5922V30.5052C157.669 32.2667 156.357 32.7707 155.247 32.7707ZM155.686 23.9641C156.466 23.9705 157.2 24.3478 157.669 24.9848V27.8833C157.195 28.5153 156.465 28.8926 155.686 28.9084C154.373 28.9084 153.462 27.9781 153.462 26.4362C153.462 24.8944 154.373 23.9641 155.686 23.9641Z" fill="#080708"/>
<path d="M11.4555 22.2407L0 13.7432H14.1601L18.5355 0L22.9109 13.7432H27.1429L22.9194 16.8743H20.6831L18.5355 10.1341L16.3879 16.8743H9.44285L15.063 21.0434L14.371 23.214L10.1517 26.3451L11.4555 22.2407Z" fill="#3D56F5"/>
<path d="M25.6175 22.2387L29.993 35.9819L18.5375 27.4887L7.08203 35.9819L8.69381 30.917L12.9174 27.7859L18.5375 23.6169L24.1576 27.7859L22.0142 21.0414L31.8579 13.7412H37.073L25.6175 22.2387Z" fill="#F15946"/>
</svg>
