<svg width="202" height="64" viewBox="0 0 202 64" fill="none" xmlns="http://www.w3.org/2000/svg">
<path d="M122.343 43.36C125.973 43.36 128.523 41.59 128.973 38.65C129.873 32.86 120.993 34.96 121.473 31.9C121.623 30.91 122.673 30.25 124.263 30.25C125.883 30.25 126.783 30.97 126.603 32.08L126.573 32.26H129.663L129.693 32.05C130.083 29.44 128.133 27.64 124.593 27.64C121.233 27.64 118.743 29.26 118.293 32.14C117.393 37.87 126.273 35.86 125.793 38.95C125.613 40.03 124.473 40.75 122.763 40.75C120.963 40.75 120.003 39.94 120.153 38.71L120.183 38.44H117.123L117.063 38.74C116.643 41.44 118.683 43.36 122.343 43.36ZM137.786 30.7H141.416L141.866 28H138.236L138.836 24.1H136.046L135.596 26.98C135.476 27.64 135.056 28 134.426 28H132.596L132.176 30.7H134.786L133.466 39.07C133.076 41.44 134.516 43 137.036 43H139.286L139.736 40.24H138.236C137.036 40.24 136.406 39.49 136.586 38.29L137.786 30.7ZM154.104 28L152.514 37.99C152.094 39.43 150.744 40.54 148.974 40.54C147.234 40.54 146.244 39.4 146.544 37.69L148.074 28H145.074L143.364 38.77C142.914 41.53 144.534 43.36 147.294 43.36C149.364 43.36 151.074 42.28 151.884 40.75H152.064L151.704 43H154.704L157.104 28H154.104ZM171.385 22L170.065 30.31H169.885C169.555 28.75 168.085 27.64 165.955 27.64C162.985 27.64 160.675 29.62 160.195 32.59L159.265 38.41C158.815 41.38 160.525 43.36 163.495 43.36C165.625 43.36 167.425 42.25 168.235 40.69H168.415L168.055 43H171.055L174.385 22H171.385ZM165.145 40.54C163.195 40.54 162.115 39.37 162.415 37.54L163.045 33.46C163.345 31.63 164.785 30.46 166.735 30.46C168.625 30.46 169.705 31.69 169.615 33.19L168.835 38.02C168.385 39.4 166.975 40.54 165.145 40.54ZM179.753 25.45C180.863 25.45 181.733 24.7 181.913 23.59C182.093 22.51 181.433 21.79 180.323 21.79C179.153 21.79 178.313 22.51 178.133 23.59C177.923 24.7 178.553 25.45 179.753 25.45ZM175.433 43H178.433L180.833 28H177.833L175.433 43ZM188.425 43.36C192.175 43.36 195.025 41.08 195.565 37.63L196.255 33.37C196.795 29.92 194.635 27.64 190.885 27.64C187.105 27.64 184.255 29.92 183.715 33.37L183.025 37.63C182.485 41.08 184.645 43.36 188.425 43.36ZM188.845 40.6C186.865 40.6 185.755 39.4 186.025 37.6L186.715 33.4C186.985 31.6 188.485 30.4 190.465 30.4C192.415 30.4 193.525 31.6 193.225 33.4L192.565 37.6C192.265 39.4 190.825 40.6 188.845 40.6Z" fill="black"/>
<path d="M48.3813 21.4838C48.3813 20.8763 47.8888 20.3838 47.2813 20.3838H40.9013C40.2938 20.3838 39.8013 20.8763 39.8013 21.4838V42.3838C39.8013 42.9913 40.2938 43.4838 40.9013 43.4838H56.1913C56.7988 43.4838 57.2913 42.9913 57.2913 42.3838V36.9938C57.2913 36.3863 56.7988 35.8938 56.1913 35.8938H48.3813V21.4838Z" fill="black"/>
<path d="M67.6853 35.2336H75.1653C75.7728 35.2336 76.2653 34.7411 76.2653 34.1336V29.7336C76.2653 29.1261 75.7728 28.6336 75.1653 28.6336H67.6853V26.9836H76.7796H76.9253H83.0496V42.3836C83.0496 42.9911 83.5421 43.4836 84.1496 43.4836H90.5296C91.1371 43.4836 91.6296 42.9911 91.6296 42.3836V26.9836H96.7996C97.4071 26.9836 97.8996 26.4911 97.8996 25.8836V21.4836C97.8996 20.8761 97.4071 20.3836 96.7996 20.3836H76.9253H60.2053C59.5977 20.3836 59.1053 20.8761 59.1053 21.4836V42.3836C59.1053 42.9911 59.5977 43.4836 60.2053 43.4836H76.4853C77.0928 43.4836 77.5853 42.9911 77.5853 42.3836V37.9836C77.5853 37.3761 77.0928 36.8836 76.4853 36.8836H67.6853V35.2336Z" fill="black"/>
<path d="M27.5709 42.964C27.764 43.3162 28.1338 43.5351 28.5354 43.5351H36.3541C36.9616 43.5351 37.4541 43.0426 37.4541 42.4351V21.5351C37.4541 20.9276 36.9616 20.4351 36.3541 20.4351H29.9741C29.3666 20.4351 28.8741 20.9276 28.8741 21.5351V30.6651L23.5773 21.0062C23.3841 20.654 23.0144 20.4351 22.6128 20.4351H14.7941C14.1866 20.4351 13.6941 20.9276 13.6941 21.5351V42.4351C13.6941 43.0426 14.1866 43.5351 14.7941 43.5351H21.1741C21.7816 43.5351 22.2741 43.0426 22.2741 42.4351V33.3051L27.5709 42.964Z" fill="#54CCB1"/>
<path fill-rule="evenodd" clip-rule="evenodd" d="M4.56924 36.2348C3.96173 36.2348 3.46924 35.7423 3.46924 35.1348V21.5612C3.46924 20.9537 3.96173 20.4612 4.56924 20.4612H10.2892C10.8968 20.4612 11.3892 20.9537 11.3892 21.5612V35.1348C11.3892 35.7423 10.8968 36.2348 10.2892 36.2348H4.56924Z" fill="#54CCB1"/>
<path d="M3.46924 42.5684C3.46924 43.1759 3.96173 43.6684 4.56924 43.6684H10.2892C10.8968 43.6684 11.3892 43.1759 11.3892 42.5684V38.4984C11.3892 37.8909 10.8968 37.3984 10.2892 37.3984H4.56924C3.96173 37.3984 3.46924 37.8909 3.46924 38.4984V42.5684Z" fill="#54CCB1"/>
</svg>
