<svg width="14" height="15" viewBox="0 0 14 15" fill="none" xmlns="http://www.w3.org/2000/svg">
<path fill-rule="evenodd" clip-rule="evenodd" d="M2.33333 0.785156H11.6667C12.9578 0.785156 14 1.82738 14 3.11849V12.4518C14 13.7429 12.9578 14.7852 11.6667 14.7852H2.33333C1.04222 14.7852 0 13.7429 0 12.4518V3.11849C0 1.82738 1.04222 0.785156 2.33333 0.785156ZM11.6667 13.2296C12.1022 13.2296 12.4444 12.8874 12.4444 12.4518V7.00738H10.0022C10.08 7.25627 10.1111 7.52071 10.1111 7.78516C10.1111 9.49627 8.71111 10.8963 7 10.8963C5.28889 10.8963 3.88889 9.49627 3.88889 7.78516C3.88889 7.52071 3.93556 7.25627 3.99778 7.00738H1.55556V12.4518C1.55556 12.8874 1.89778 13.2296 2.33333 13.2296H11.6667ZM5.44444 7.78516C5.44444 6.9296 6.14444 6.2296 7 6.2296C7.85556 6.2296 8.55556 6.9296 8.55556 7.78516C8.55556 8.64071 7.85556 9.34071 7 9.34071C6.14444 9.34071 5.44444 8.64071 5.44444 7.78516ZM9.05333 5.45182H12.4444V3.11849C12.4444 2.68293 12.1022 2.34071 11.6667 2.34071H2.33333C1.89778 2.34071 1.55556 2.68293 1.55556 3.11849V5.45182H4.94667C5.49111 4.9696 6.20667 4.67405 7 4.67405C7.79333 4.67405 8.50889 4.9696 9.05333 5.45182Z" fill="#0066FF"/>
</svg>
