<svg width="141" height="24" viewBox="0 0 141 24" fill="none" xmlns="http://www.w3.org/2000/svg">
<path d="M138.365 0.81167V5.14144C136.205 4.29464 134.282 3.86648 132.598 3.86648C131.601 3.86648 130.808 4.0582 130.211 4.42887C129.614 4.80272 129.309 5.26289 129.309 5.80611C129.309 6.52827 129.983 7.17051 131.34 7.74574L135.26 9.72689C138.43 11.2959 140.002 13.3792 140.002 15.9963C140.002 18.1724 139.168 19.9075 137.485 21.192C135.814 22.4894 133.565 23.1317 130.764 23.1317C129.472 23.1317 128.312 23.0742 127.281 22.9527C126.25 22.8377 125.066 22.6012 123.752 22.2625V17.7314C126.161 18.5782 128.355 19.0064 130.331 19.0064C132.688 19.0064 133.86 18.297 133.86 16.8655C133.86 16.1529 133.38 15.5777 132.405 15.1271L128.05 13.2003C126.444 12.4462 125.25 11.5323 124.469 10.4491C123.699 9.35623 123.309 8.10363 123.309 6.67208C123.309 4.6685 124.121 3.05481 125.727 1.82776C127.346 0.610294 129.494 0 132.165 0C133.032 0 134.032 0.0798522 135.14 0.226855C136.257 0.383439 137.331 0.575159 138.365 0.81167Z" fill="#009999"/>
<path d="M15.0471 0.81167V5.14144C12.8869 4.29464 10.9668 3.86648 9.28365 3.86648C8.28357 3.86648 7.4928 4.0582 6.8958 4.42887C6.29887 4.80272 5.99422 5.26289 5.99422 5.80611C5.99422 6.52827 6.67734 7.17051 8.03436 7.74574L11.9546 9.72689C15.1117 11.2959 16.6872 13.3792 16.6872 15.9963C16.6872 18.1724 15.8503 19.9075 14.1794 21.192C12.4962 22.4894 10.2591 23.1317 7.44974 23.1317C6.15731 23.1317 4.99415 23.0742 3.96332 22.9527C2.93248 22.8377 1.76009 22.6012 0.436983 22.2625V17.7314C2.85559 18.5782 5.04959 19.0064 7.01275 19.0064C9.36984 19.0064 10.5422 18.297 10.5422 16.8655C10.5422 16.1529 10.0653 15.5777 9.09902 15.1271L4.74494 13.2003C3.12633 12.4462 1.93241 11.5323 1.16316 10.4491C0.381546 9.35623 0 8.10363 0 6.67208C0 4.6685 0.806226 3.05481 2.42168 1.82776C4.02798 0.610294 6.17884 0 8.84981 0C9.72678 0 10.7146 0.0798522 11.8346 0.226855C12.9424 0.383439 14.0163 0.575159 15.0471 0.81167Z" fill="#009999"/>
<path d="M19.5352 0.40625H25.9202V22.7263H19.5352V0.40625Z" fill="#009999"/>
<path d="M46.495 0.40625V4.5316H37.0082V9.48125H45.2365V13.2007H37.0082V18.3966H46.6889V22.7263H30.8633V0.40625H46.495Z" fill="#009999"/>
<path d="M76.2995 0.40625V22.7263H70.3388V8.00499L64.1542 22.9308H60.474L54.5259 8.00499V22.7263H50.2148V0.40625H58.0091L63.3295 14.0699L68.896 0.40625H76.2995Z" fill="#009999"/>
<path d="M96.866 0.40625V4.5316H87.4311V9.48125H95.6593V13.2007H87.4311V18.3966H97.0599V22.7263H81.2344V0.40625H96.866Z" fill="#009999"/>
<path d="M119.267 0.40625V22.7263H112.494L104.894 8.41079V22.7263H100.586V0.40625H107.556L114.959 14.4758V0.40625H119.267Z" fill="#009999"/>
</svg>
