<svg width="206" height="31" viewBox="0 0 206 31" fill="none" xmlns="http://www.w3.org/2000/svg">
<path fill-rule="evenodd" clip-rule="evenodd" d="M166.468 12.1136V23.3272H167.496H168.523V18.3612C168.523 14.4921 168.622 13.2067 168.969 12.5409C170.097 10.3783 173.991 10.0014 175.75 11.885C176.437 12.6195 176.452 12.7492 176.452 17.9814V23.3272H177.48H178.508V17.8363C178.508 12.6073 178.476 12.2986 177.84 11.3627C176.048 8.72478 172.047 8.06274 169.361 9.96002L168.523 10.5513V5.72566V0.900024H167.496H166.468V12.1136ZM4.19146 3.63847C0.60363 5.29546 -0.422973 9.66032 2.06983 12.6597C2.62688 13.3302 3.76449 14.0925 5.20044 14.7571C6.44111 15.3312 7.74463 15.9391 8.09731 16.108C9.53179 16.7945 9.59346 18.7958 8.20273 19.5341C6.82139 20.2675 3.21918 19.6279 1.17596 18.2866L0.0917969 17.5751L0.308511 19.5047C0.42744 20.5658 0.531686 21.6472 0.540202 21.9079C0.563694 22.6529 3.33928 23.6875 5.73694 23.8448C8.64467 24.0356 10.5143 23.5331 12.1227 22.129C13.7054 20.7472 14.1668 19.5093 14.0103 17.0671C13.8191 14.0892 12.3364 12.4462 8.49226 10.9518C7.46772 10.5536 6.38591 10.0092 6.08844 9.74216C5.39748 9.12177 5.39542 8.11663 6.08433 7.49857C6.82492 6.83391 9.46161 6.87439 11.0159 7.57459L12.2266 8.11983L12.4219 6.22808C12.6518 4.00051 12.4821 3.70896 10.6941 3.26245C8.47905 2.70934 5.87789 2.85964 4.19146 3.63847ZM19.7893 5.69274L18.0274 6.36643L17.9378 7.7109L17.8483 9.05536H16.6898H15.5314V10.9311V12.8065L16.6326 12.8971L17.7337 12.9874L17.8806 16.8262C18.0063 20.1093 18.1152 20.7816 18.6329 21.4684C19.8116 23.0325 20.6938 23.4554 23.0209 23.5719C25.4615 23.6942 25.3781 23.7755 25.5839 21.0699L25.6779 19.8321H24.6251C22.6759 19.8321 22.4322 19.4057 22.4322 15.997V12.9874L24.5356 12.9024L26.6393 12.8173L26.738 11.0566C26.7923 10.0885 26.782 9.24206 26.7145 9.17566C26.6472 9.10954 25.6233 9.05536 24.4387 9.05536H22.2853V7.01653C22.2853 4.68527 22.3429 4.71585 19.7893 5.69274ZM59.6524 5.75857L57.8171 6.48498V7.77002V9.05536H56.6425H55.4679V10.9486V12.8418H56.6425H57.8171L57.8235 16.2641C57.8338 21.757 58.9835 23.3729 63.025 23.5754C65.4077 23.6945 65.3108 23.7792 65.5601 21.3612L65.7181 19.8321H64.5781C62.7513 19.8321 62.5155 19.38 62.5155 15.8793V12.8418H64.5346H66.5538L66.7003 11.167C66.7808 10.2458 66.7893 9.3941 66.7194 9.27381C66.6492 9.15352 65.6417 9.05566 64.4803 9.05595L62.3687 9.05682L62.4662 7.01711C62.5807 4.62235 62.554 4.61041 59.6524 5.75857ZM143.335 5.72245C142.81 6.08682 142.682 6.45789 142.682 7.61566V9.05536H141.214C139.778 9.05536 139.746 9.07488 139.746 9.92915C139.746 10.782 139.78 10.8029 141.196 10.8029H142.646L142.737 16.1863L142.829 21.5697L143.756 22.4887C144.491 23.2174 144.999 23.4376 146.21 23.5529C147.804 23.705 148.248 23.451 148.257 22.3806C148.261 21.9842 148.015 21.8709 147.152 21.8709C146.542 21.8709 145.749 21.6667 145.391 21.4174C144.758 20.9785 144.738 20.8034 144.738 15.8834V10.8029H147.056C148.898 10.8029 149.41 10.7086 149.552 10.3422C150.009 9.15993 149.821 9.05536 147.234 9.05536H144.738V7.16216C144.738 5.12129 144.521 4.89847 143.335 5.72245ZM31.829 8.94556C31.506 9.02682 30.7953 9.23158 30.2497 9.40051L29.2581 9.7075L29.4243 11.3054C29.5156 12.1841 29.6319 12.944 29.6824 12.9941C29.7329 13.0442 30.4967 12.8994 31.3794 12.6723C32.2624 12.4451 33.3892 12.2592 33.8831 12.2592C34.9907 12.2592 36.0869 12.9816 36.0869 13.7112C36.0869 14.1592 35.7865 14.2888 34.3984 14.4399C30.5202 14.8617 28.7336 16.1759 28.5172 18.766C28.2664 21.7631 29.8794 23.5468 33.0843 23.8165C34.4865 23.9345 35.0075 23.8343 36.2235 23.2136C37.6732 22.4735 37.6847 22.4726 38.2931 23.0394C38.6297 23.3528 39.2956 23.6869 39.7731 23.7819C40.5883 23.9435 40.6893 23.8564 41.4361 22.3459C42.1755 20.8512 42.194 20.7262 41.6998 20.5707C40.8103 20.2908 40.4917 19.0713 40.4917 15.9481C40.4917 12.2173 39.8821 10.7525 37.877 9.6641C36.5946 8.96799 33.2961 8.57624 31.829 8.94556ZM91.5699 9.02333C91.1564 9.15701 90.5359 9.41653 90.1906 9.59973C89.6841 9.86857 89.5132 9.84498 89.3055 9.47711C89.1106 9.13138 88.663 9.04313 87.4547 9.11129L85.8607 9.201L85.7838 20.0505L85.7069 30.9H87.9128H90.1187V27.1288V23.3575L91.0269 23.6715C92.2755 24.1031 95.0576 23.8058 96.4736 23.0892C97.1187 22.7627 98.1174 21.979 98.6927 21.3475C101.293 18.4923 101.18 13.6984 98.4478 10.9882C96.739 9.29362 93.55 8.38255 91.5699 9.02333ZM108.236 9.04546C107.622 9.16342 106.739 9.53915 106.274 9.88022L105.428 10.5003L105.335 9.85051C105.262 9.34342 105.048 9.201 104.361 9.201H103.48L103.401 16.2641L103.322 23.3272H104.338H105.353L105.444 17.8005C105.529 12.6388 105.576 12.2336 106.152 11.663C107.53 10.2985 110.82 10.3876 112.069 11.8232C112.703 12.552 112.73 12.8033 112.73 17.9552V23.3272H113.758H114.785V17.8439C114.785 12.4305 114.794 12.3525 115.491 11.7032C116.902 10.3888 119.747 10.3136 121.097 11.555C121.833 12.2313 121.833 12.2322 121.833 17.7792V23.3272H122.861H123.889V17.6907C123.889 12.3251 123.857 12.0073 123.227 11.0802C122.206 9.57731 120.872 8.94468 118.765 8.96449C116.869 8.98197 114.619 9.84235 114.298 10.6725C114.169 11.0065 113.921 10.9127 113.146 10.2385C112.603 9.76546 111.659 9.2409 111.049 9.07284C109.832 8.7376 109.839 8.7376 108.236 9.04546ZM130.936 8.95371C129.334 9.22051 127.738 9.96469 127.869 10.3841C128.306 11.7839 128.226 11.7262 129.101 11.2771C129.905 10.8653 131.505 10.6509 133.025 10.752C134.277 10.835 135.341 12.1264 135.341 13.5626V14.7868L132.673 15.1127C131.174 15.2957 129.603 15.6717 129.086 15.9708C126.501 17.4682 126.303 21.3379 128.731 22.9154C130.557 24.1017 133.415 23.9394 134.91 22.5644L135.669 21.8668L136.412 22.7426C137.247 23.7268 137.841 23.8372 138.606 23.1501C139.102 22.7051 139.086 22.6465 138.282 21.9755L137.436 21.2694L137.343 16.5458C137.257 12.2074 137.196 11.7481 136.595 10.9116C135.571 9.48847 133.022 8.60624 130.936 8.95371ZM157.125 9.07546C151.714 10.1316 149.308 16.8559 152.865 20.9788C154.823 23.2468 157.346 24.1194 160.483 23.6129C162.342 23.3126 162.775 23.0059 163.064 21.7829C163.242 21.0268 163.212 20.9904 162.646 21.2907C162.311 21.4687 161.334 21.7279 160.475 21.8665C157.497 22.3474 155.015 21.2403 153.807 18.8925C152.884 17.0974 153.111 14.4219 154.313 12.9254C154.801 12.3187 155.709 11.5722 156.33 11.266C157.705 10.5892 160.299 10.5507 161.828 11.1848C162.96 11.6537 163.238 11.4848 163.238 10.3273C163.238 9.38333 159.486 8.61469 157.125 9.07546ZM186.939 9.18265C183.828 10.0028 181.733 12.8799 181.744 16.3162C181.759 20.6365 184.825 23.6732 189.206 23.7059C192.295 23.7289 193.777 22.8894 193.777 21.1171C193.777 20.7501 193.685 20.7527 193.096 21.1349C192.031 21.8275 189.706 22.1587 188.175 21.8362C185.822 21.3402 183.793 19.1354 183.793 17.0744V16.3369H188.587C193.219 16.3369 193.403 16.3142 194.02 15.6629C194.772 14.869 194.831 13.8152 194.207 12.3332C193.628 10.9605 193.002 10.2839 191.722 9.64779C190.256 8.91964 188.563 8.75478 186.939 9.18265ZM44.5171 9.23769C44.4025 9.351 44.3092 12.5674 44.3092 16.3856V23.3272H46.629H48.9485L49.0516 19.6002C49.1338 16.6192 49.2604 15.713 49.6841 15.0717C50.3516 14.0622 51.7326 13.2195 53.094 12.9918L54.1465 12.8153L53.9996 11.0109C53.881 9.55371 53.7483 9.18672 53.3095 9.104C52.2477 8.90362 50.7425 9.3877 49.7549 10.2478L48.753 11.1204L48.6602 10.1607L48.5671 9.201L46.646 9.11624C45.5892 9.06964 44.6313 9.12439 44.5171 9.23769ZM69.0325 14.9534C69.1185 20.5896 69.1529 20.8937 69.8066 21.8025C70.8152 23.2055 72.0421 23.7428 74.2615 23.7542C75.7421 23.7618 76.4084 23.617 77.2327 23.1088C78.4854 22.336 78.6663 22.3084 78.6663 22.8903C78.6663 23.2372 79.0909 23.3272 80.7271 23.3272H82.788L82.7093 16.2641L82.6306 9.201H80.4282H78.2258L78.1545 13.4243C78.1154 15.7471 78.0114 17.9511 77.9239 18.3222C77.7005 19.2673 76.0657 19.918 74.9143 19.5198C73.59 19.062 73.3806 18.2281 73.3806 13.4106V9.05536H71.1615H68.9423L69.0325 14.9534ZM198.098 9.23624C197.983 9.35041 197.889 12.5674 197.889 16.3856V23.3272H198.89H199.892L199.991 18.8855C200.082 14.8477 200.154 14.3342 200.786 13.2402C201.543 11.931 203.244 10.8029 204.462 10.8029C205.088 10.8029 205.23 10.6663 205.23 10.0658C205.23 8.5442 202.783 8.79236 201.074 10.4872L199.973 11.5794L199.885 10.3902C199.809 9.36148 199.697 9.18935 199.052 9.11478C198.642 9.06731 198.213 9.12206 198.098 9.23624ZM190.91 11.3336C191.771 11.8305 192.603 13.2731 192.603 14.2692C192.603 14.862 192.474 14.8806 188.345 14.8806C183.599 14.8806 183.52 14.8395 184.68 12.9792C186.075 10.7394 188.685 10.05 190.91 11.3336ZM94.786 13.5886C96.4756 14.9989 96.5943 17.442 95.0479 18.9758C94.3376 19.6803 93.9402 19.8321 92.8044 19.8321C92.0303 19.8321 91.1373 19.6328 90.7715 19.3786C90.18 18.9679 90.1187 18.6816 90.1187 16.3296C90.1187 13.7977 90.1384 13.7234 90.9262 13.2996C92.2045 12.6117 93.7547 12.7279 94.786 13.5886ZM135.34 18.0117C135.339 19.7543 134.582 21.0265 133.145 21.7028C130.297 23.0429 127.581 20.1976 129.546 17.9322C130.292 17.0712 131.525 16.7019 133.799 16.6579L135.341 16.6282L135.34 18.0117ZM36.0869 18.3545C36.0869 19.2434 35.9146 19.6331 35.3132 20.1021C34.2836 20.9054 33.274 20.8725 32.7088 20.017C32.0789 19.0631 32.5505 17.8722 33.654 17.6301C34.1039 17.5317 34.604 17.4073 34.7655 17.3537C35.803 17.0106 36.0869 17.2256 36.0869 18.3545Z" fill="#0D0D0D"/>
</svg>
