<svg width="313" height="394" viewBox="0 0 313 394" fill="none" xmlns="http://www.w3.org/2000/svg">
<path fill-rule="evenodd" clip-rule="evenodd" d="M53.0821 390.84H103.963V341.059H54.7653C40.2198 341.059 28.3865 329.225 28.3865 314.68V313.255C28.3865 303.471 33.7449 294.92 41.6769 290.366C19.0944 295.558 2.20148 315.822 2.20148 339.959C2.20148 368.015 25.0267 390.84 53.0821 390.84ZM107.399 338.857C106.942 337.385 106.533 335.893 106.164 334.385V338.857H107.399ZM179.802 390.829V338.856V325.211C175.727 334.528 166.426 341.057 155.624 341.057H110.455C120.634 369.705 147.816 390.366 179.802 390.829ZM217.749 390.839C200.628 385.738 187.102 372.213 182 355.09V390.839H217.749ZM182.016 341.069C182.602 368.243 204.596 390.237 231.77 390.824C231.182 363.652 209.187 341.657 182.016 341.069ZM283.763 339.958C283.763 311.902 260.938 289.076 232.882 289.076C205.19 289.076 182.595 311.315 182.015 338.872C210.401 339.459 233.381 362.439 233.969 390.826C261.525 390.245 283.763 367.651 283.763 339.958ZM285.964 390.839H460.165V289.076H292.568H285.964V390.839ZM462.366 390.84H564.121C563.534 334.991 518.214 289.67 462.366 289.082V390.84ZM571.832 176.308C571.832 128.509 541.341 87.7004 498.79 72.3006V93.6713C498.79 113.305 482.817 129.279 463.183 129.279C443.549 129.279 427.576 113.305 427.576 93.6713V70.9954C383.363 85.173 351.186 126.472 350.714 175.222C412.01 175.819 461.755 225.565 462.352 286.863C522.819 286.277 571.832 236.912 571.832 176.308ZM496.589 71.5254C485.493 67.7748 473.613 65.7388 461.266 65.7388C450.33 65.7388 439.762 67.3428 429.777 70.3148V93.6698C429.777 112.09 444.763 127.076 463.183 127.076C481.603 127.076 496.589 112.09 496.589 93.6698V71.5254ZM496.589 35.6078C496.589 17.1877 481.603 2.20169 463.183 2.20169C444.763 2.20169 429.777 17.1877 429.777 35.6078V68.0185C439.775 65.1065 450.341 63.5383 461.266 63.5383C473.599 63.5383 485.473 65.5352 496.589 69.2115V35.6078ZM180.902 101.568C140.059 101.568 106.77 134.501 106.178 175.206H179.801H182.002H255.625C255.034 134.501 221.745 101.568 180.902 101.568ZM106.165 286.873H155.624H179.802V253.232C144.162 252.729 114.309 227.874 106.165 194.59V286.873ZM179.802 313.254C179.802 299.922 168.955 289.076 155.624 289.076H106.165V316.101C106.165 324.034 107.412 331.679 109.712 338.857H155.624C168.955 338.857 179.802 328.011 179.802 314.679V313.254ZM179.802 289.076H166.158C172.245 291.739 177.139 296.633 179.802 302.72V289.076ZM207.061 246.317C235.082 235.813 255.168 208.944 255.625 177.407H182.008C182.265 203.526 191.628 227.501 207.061 246.317ZM182.002 251.032C189.985 250.916 197.671 249.548 204.866 247.106C193.644 233.232 185.639 216.655 182.002 198.516V251.032ZM106.179 177.407C106.765 217.746 139.464 250.446 179.802 251.032V177.407H106.179ZM460.16 286.862C459.562 226.78 410.796 178.02 350.714 177.423C351.312 237.51 400.074 286.269 460.16 286.862ZM348.513 177.407H257.826C257.372 209.614 237.033 237.095 208.558 248.102C228.853 271.816 258.983 286.875 292.568 286.875H439.058C387.825 276.601 349.034 231.5 348.513 177.407ZM182.001 314.68V324.826C188.532 302.906 208.869 286.875 232.882 286.875C256.896 286.875 277.232 302.906 283.763 324.826V288.735C252.786 286.331 225.284 271.352 206.358 248.913C198.715 251.601 190.523 253.113 182.001 253.234V286.875V289.076V313.254V314.68ZM54.7653 289.076C41.4337 289.076 30.5876 299.922 30.5876 313.254V314.679C30.5876 328.011 41.4337 338.857 54.7653 338.857H103.963V316.101V289.076H54.7653ZM53.0818 286.874H54.7651H103.963V175.206H103.977C104.568 133.287 138.845 99.3671 180.901 99.3671C222.958 99.3671 257.235 133.287 257.826 175.206H348.513C348.994 125.235 382.135 82.9345 427.576 68.6793V35.6072C427.576 15.9731 443.549 0 463.183 0C482.817 0 498.789 15.9731 498.789 35.6072V69.9653C542.577 85.4624 574.033 127.277 574.033 176.306C574.033 233.247 531.611 280.458 476.714 288.013C527.347 295.507 566.329 339.254 566.329 391.939V393.04H462.366H460.165H283.764V355.09C277.333 376.674 257.516 392.545 233.983 393.026V393.04H182.002H180.901H179.801V393.026C146.586 392.557 118.395 370.94 108.12 341.058H106.164V393.04H53.0818C23.8126 393.04 0.000183105 369.227 0.000183105 339.957C0.000183105 310.687 23.8126 286.874 53.0818 286.874Z" fill="#009BF1"/>
</svg>
