<svg width="1204" height="700" viewBox="0 0 1204 700" fill="none" xmlns="http://www.w3.org/2000/svg">
<rect width="1204" height="700" rx="8" fill="#F5F7FC"/>
<g clip-path="url(#clip0)">
<path d="M539.3 391.4L528 379.1C525.2 379.8 522.4 380.2 519.4 380.2C513.5 380.2 508.1 378.8 503.3 376C498.5 373.2 494.8 369.3 492 364.4C489.2 359.4 487.9 353.9 487.9 347.6C487.9 341.3 489.3 335.8 492 330.8C494.8 325.9 498.5 322 503.3 319.2C508.1 316.4 513.4 315.1 519.4 315.1C525.3 315.1 530.6 316.5 535.4 319.2C540.2 322 543.9 325.8 546.6 330.8C549.3 335.7 550.7 341.3 550.7 347.6C550.7 353.6 549.4 359 546.8 363.9C544.2 368.8 540.7 372.6 536.3 375.4L552.1 391.4H539.3ZM501 359.7C502.8 363.2 505.2 365.9 508.4 367.7C511.6 369.6 515.2 370.5 519.3 370.5C523.3 370.5 526.9 369.6 530.1 367.7C533.3 365.8 535.7 363.2 537.5 359.7C539.3 356.2 540.2 352.2 540.2 347.5C540.2 342.9 539.3 338.8 537.5 335.3C535.7 331.8 533.3 329.2 530.1 327.3C527 325.4 523.4 324.5 519.3 324.5C515.2 324.5 511.6 325.4 508.4 327.3C505.2 329.2 502.7 331.8 501 335.3C499.2 338.8 498.3 342.8 498.3 347.5C498.3 352.2 499.2 356.2 501 359.7Z" fill="#0F1822"/>
<path d="M601.2 334.6C604.7 338.3 606.4 343.6 606.4 350.5V379.4H596.1V351.6C596.1 347.2 595 343.7 592.7 341.3C590.4 338.9 587.3 337.7 583.3 337.7C579.2 337.7 575.9 339 573.5 341.6C571 344.2 569.8 348 569.8 353.1V379.5H559.5V329.8H569.8V340.7C571.1 337 573.3 334.1 576.5 332.1C579.6 330.1 583.2 329 587.3 329C593.1 329 597.8 330.9 601.2 334.6Z" fill="#0F1822"/>
<path d="M648.4 332.5C651.6 334.7 653.8 337.7 655.2 341.3V329.8H665.5V379.4H655.2V367.9C653.9 371.6 651.6 374.5 648.4 376.7C645.2 378.9 641.4 380 636.9 380C632.6 380 628.7 379 625.3 376.9C621.9 374.9 619.3 371.9 617.3 368.1C615.4 364.3 614.4 359.7 614.4 354.5C614.4 349.3 615.4 344.8 617.3 341C619.2 337.2 621.9 334.2 625.3 332.2C628.7 330.2 632.5 329.1 636.9 329.1C641.3 329.2 645.2 330.3 648.4 332.5ZM629.1 342.6C626.4 345.5 625 349.5 625 354.6C625 359.7 626.4 363.7 629.1 366.6C631.8 369.5 635.5 371 640 371C642.9 371 645.5 370.3 647.7 369C650 367.7 651.8 365.7 653.1 363.3C654.4 360.8 655.1 358 655.1 354.7C655.1 351.5 654.4 348.6 653.1 346.1C651.8 343.6 650 341.7 647.7 340.3C645.4 339 642.8 338.3 640 338.3C635.4 338.2 631.8 339.7 629.1 342.6Z" fill="#0F1822"/>
<path d="M716.2 332.299C719.6 334.299 722.2 337.299 724.2 341.099C726.1 344.899 727.1 349.399 727.1 354.599C727.1 359.799 726.1 364.399 724.2 368.199C722.3 371.999 719.6 374.999 716.2 376.999C712.8 378.999 709 380.099 704.6 380.099C700.1 380.099 696.3 378.999 693.1 376.799C689.9 374.599 687.7 371.599 686.4 367.999V402.999H676.1V329.799H686.4V341.299C687.7 337.599 689.9 334.699 693.1 332.499C696.3 330.299 700.1 329.199 704.6 329.199C709 329.199 712.9 330.199 716.2 332.299ZM693.8 340.199C691.5 341.599 689.7 343.499 688.4 345.999C687.1 348.499 686.4 351.399 686.4 354.599C686.4 357.899 687.1 360.799 688.4 363.199C689.7 365.699 691.5 367.599 693.8 368.899C696.1 370.199 698.7 370.899 701.5 370.899C706.1 370.899 709.7 369.399 712.5 366.499C715.3 363.599 716.6 359.599 716.6 354.499C716.6 349.499 715.2 345.499 712.5 342.499C709.7 339.599 706.1 338.099 701.5 338.099C698.6 338.199 696.1 338.899 693.8 340.199Z" fill="#0F1822"/>
<path d="M775.5 332.299C778.9 334.299 781.5 337.299 783.5 341.099C785.4 344.899 786.4 349.399 786.4 354.599C786.4 359.799 785.4 364.399 783.5 368.199C781.6 371.999 778.9 374.999 775.5 376.999C772.1 378.999 768.3 380.099 763.9 380.099C759.4 380.099 755.6 378.999 752.4 376.799C749.2 374.599 747 371.599 745.7 367.999V402.999H735.4V329.799H745.7V341.299C747 337.599 749.2 334.699 752.4 332.499C755.6 330.299 759.4 329.199 763.9 329.199C768.3 329.199 772.2 330.199 775.5 332.299ZM753.1 340.199C750.8 341.599 749 343.499 747.7 345.999C746.4 348.499 745.7 351.399 745.7 354.599C745.7 357.899 746.4 360.799 747.7 363.199C749 365.699 750.8 367.599 753.1 368.899C755.4 370.199 758 370.899 760.8 370.899C765.4 370.899 769 369.399 771.8 366.499C774.6 363.599 775.9 359.599 775.9 354.499C775.9 349.499 774.5 345.499 771.8 342.499C769 339.599 765.4 338.099 760.8 338.099C757.9 338.199 755.4 338.899 753.1 340.199Z" fill="#0F1822"/>
<path d="M840.6 356.699H802.4C802.6 361.799 804 365.599 806.6 367.999C809.2 370.499 812.5 371.699 816.4 371.699C819.8 371.699 822.7 370.799 825.1 369.099C827.5 367.399 828.9 364.999 829.5 362.199H840.5C839.8 365.699 838.5 368.799 836.4 371.499C834.3 374.199 831.6 376.299 828.2 377.799C824.8 379.299 821.1 380.099 817 380.099C812.2 380.099 808 379.099 804.3 376.999C800.6 374.999 797.7 371.999 795.6 368.199C793.5 364.399 792.5 359.799 792.5 354.599C792.5 349.399 793.5 344.899 795.6 341.099C797.7 337.299 800.6 334.299 804.3 332.299C808 330.299 812.2 329.199 817 329.199C821.9 329.199 826.1 330.199 829.7 332.199C833.3 334.199 836.1 336.999 838.1 340.499C840 343.999 841 347.899 841 352.199C841 353.899 840.8 355.399 840.6 356.699ZM828.9 343.799C827.7 341.599 826 339.999 823.9 338.899C821.8 337.899 819.4 337.299 816.9 337.299C812.9 337.299 809.5 338.499 806.8 340.999C804.1 343.499 802.6 347.099 802.4 351.899H830.6C830.7 348.699 830.2 345.999 828.9 343.799Z" fill="#0F1822"/>
<path d="M891.001 334.6C894.501 338.3 896.201 343.6 896.201 350.5V379.4H885.901V351.6C885.901 347.2 884.801 343.7 882.501 341.3C880.201 338.9 877.101 337.7 873.101 337.7C869.001 337.7 865.701 339 863.301 341.6C860.801 344.2 859.601 348 859.601 353.1V379.5H849.301V329.8H859.601V340.7C860.901 337 863.101 334.1 866.301 332.1C869.401 330.1 873.001 329 877.101 329C882.901 329 887.501 330.9 891.001 334.6Z" fill="#0F1822"/>
<path d="M437.8 373L414.3 363C419.3 348.3 416 331.4 404.3 319.7C387.9 303.3 361.3 303.3 344.9 319.7C328.5 336.1 328.5 362.7 344.9 379.1C356.6 390.8 373.5 394.2 388.2 389.2L398.2 412.7C374.2 421.6 346.2 416.4 326.9 397.1C300.5 370.7 300.5 328 326.9 301.6C353.3 275.2 396 275.2 422.4 301.6C441.5 321 446.7 349.1 437.8 373Z" fill="#0F1822"/>
<path d="M411.2 369.9L434.8 379.9C431.6 386.1 427.5 392 422.2 397.2C417 402.4 411.1 406.6 404.9 409.8L394.9 386.2L383 358L411.2 369.9Z" fill="#4285FF"/>
</g>
<defs>
<clipPath id="clip0">
<rect width="589.2" height="135" fill="white" transform="translate(307 282)"/>
</clipPath>
</defs>
</svg>
