<svg width="158" height="160" viewBox="0 0 158 160" fill="none" xmlns="http://www.w3.org/2000/svg">
<path fill-rule="evenodd" clip-rule="evenodd" d="M67.1675 102.849H67.0449V27.2109H121.47V48.5462C121.47 78.5365 97.1581 102.849 67.1675 102.849Z" fill="#C2D8DA"/>
<path fill-rule="evenodd" clip-rule="evenodd" d="M67.0449 27.2127C67.0449 12.1834 79.2283 0 94.2576 0C109.287 0 121.47 12.1834 121.47 27.2127C121.47 42.2416 109.287 54.4254 94.2576 54.4254C79.2283 54.4254 67.0449 42.2416 67.0449 27.2127Z" fill="#005D63"/>
<mask id="mask0" mask-type="alpha" maskUnits="userSpaceOnUse" x="0" y="27" width="68" height="111">
<path fill-rule="evenodd" clip-rule="evenodd" d="M0 27.2109H67.0452V137.199H0V27.2109Z" fill="white"/>
</mask>
<g mask="url(#mask0)">
<path fill-rule="evenodd" clip-rule="evenodd" d="M67.0452 27.2109V137.199H0V77.46C0 49.7082 22.4972 27.2109 50.2491 27.2109H67.0452Z" fill="#2F7B80"/>
</g>
<mask id="mask1" mask-type="alpha" maskUnits="userSpaceOnUse" x="0" y="78" width="68" height="35">
<path fill-rule="evenodd" clip-rule="evenodd" d="M0 78.6606H67.0452V112.183H0V78.6606Z" fill="white"/>
</mask>
<g mask="url(#mask1)">
<path fill-rule="evenodd" clip-rule="evenodd" d="M67.0452 78.6606H0C0 97.1748 15.0088 112.183 33.5226 112.183C52.0368 112.183 67.0452 97.1748 67.0452 78.6606Z" fill="#003C40"/>
</g>
<path fill-rule="evenodd" clip-rule="evenodd" d="M107.569 159.708C85.188 159.708 67.0449 141.565 67.0449 119.185V78.6606H107.569C129.949 78.6606 148.092 96.8037 148.092 119.184V119.185C148.092 141.565 129.949 159.708 107.569 159.708Z" fill="#005D63"/>
<mask id="mask2" mask-type="alpha" maskUnits="userSpaceOnUse" x="0" y="33" width="91" height="105">
<path fill-rule="evenodd" clip-rule="evenodd" d="M0 33.5078H90.4946V137.183H0V33.5078Z" fill="white"/>
</mask>
<g mask="url(#mask2)">
<path fill-rule="evenodd" clip-rule="evenodd" d="M27.9688 100.134H62.5271L45.2478 54.8867L27.9688 100.134ZM66.6254 111.706H23.8693L13.9841 137.183H0L39.5411 33.5078H51.0338L90.4946 137.183H76.5106L66.6254 111.706Z" fill="white"/>
</g>
<mask id="mask3" mask-type="alpha" maskUnits="userSpaceOnUse" x="97" y="62" width="61" height="76">
<path fill-rule="evenodd" clip-rule="evenodd" d="M97.8887 62.2808H157.12V137.987H97.8887V62.2808Z" fill="white"/>
</mask>
<g mask="url(#mask3)">
<path fill-rule="evenodd" clip-rule="evenodd" d="M122.562 126.495C125.83 126.495 128.844 125.972 131.603 124.928C134.362 123.883 136.707 122.544 138.635 120.909C140.564 119.275 142.078 117.44 143.176 115.404C144.275 113.368 144.824 111.305 144.824 109.216V103.429C137.376 103.429 131.402 103.737 126.902 104.353C122.401 104.97 118.905 105.853 116.414 107.006C113.922 108.158 112.275 109.524 111.471 111.104C110.667 112.685 110.266 114.52 110.266 116.61C110.266 119.128 111.377 121.405 113.601 123.441C115.824 125.477 118.811 126.495 122.562 126.495ZM129.152 62.2808C133.224 62.2808 136.988 62.964 140.444 64.3302C143.9 65.6964 146.86 67.5315 149.324 69.8352C151.789 72.139 153.705 74.8317 155.071 77.9123C156.437 80.993 157.12 84.3016 157.12 87.8378V137.184H148.119L144.824 128.986C143.163 130.755 141.288 132.281 139.198 133.567C137.323 134.799 135.019 135.844 132.286 136.702C129.554 137.559 126.312 137.987 122.562 137.987C118.811 137.987 115.436 137.411 112.435 136.26C109.435 135.107 106.863 133.514 104.72 131.478C102.577 129.442 100.903 127.084 99.6971 124.405C98.4916 121.726 97.8887 118.86 97.8887 115.806C97.8887 112.27 98.5986 109.055 100.019 106.162C101.438 103.268 103.903 100.75 107.413 98.6069C110.922 96.4639 115.731 94.8164 121.839 93.6645C127.947 92.5126 135.608 91.9364 144.824 91.9364V87.8378C144.824 84.0873 143.364 80.819 140.444 78.0326C137.524 75.2466 133.76 73.8538 129.152 73.8538C124.544 73.8538 121.142 74.805 118.945 76.7068C116.749 78.6089 115.222 81.2206 114.364 84.5426H101.184C101.613 81.4886 102.55 78.6089 103.997 75.9032C105.443 73.1972 107.345 70.8265 109.703 68.7907C112.06 66.7546 114.846 65.1604 118.061 64.0086C121.276 62.8567 124.973 62.2808 129.152 62.2808Z" fill="white"/>
</g>
</svg>
