<svg width="40" height="40" viewBox="0 0 40 40" fill="none" xmlns="http://www.w3.org/2000/svg">
<rect opacity="0.195126" width="40" height="40" rx="15" fill="#DC8B24"/>
<path fill-rule="evenodd" clip-rule="evenodd" d="M26.575 18.3333C28.1336 18.9499 29.1599 20.453 29.1667 22.1291V29.1666C29.1667 29.6268 28.7936 29.9999 28.3334 29.9999H19.1667C18.9188 30.0003 18.6837 29.8904 18.525 29.6999C18.4959 29.6624 15.2334 25.7791 12.3417 24.4583C11.4314 24.0649 10.8396 23.1707 10.8334 22.1791V22.0499C10.8384 21.2682 11.2089 20.5338 11.8346 20.0651C12.4603 19.5964 13.2692 19.4474 14.0209 19.6624C14.9476 19.9314 15.8366 20.3164 16.6667 20.8083V12.5874C16.6522 11.3443 17.5294 10.2689 18.75 10.0333C19.4759 9.91058 20.219 10.1141 20.7811 10.5894C21.3432 11.0648 21.6672 11.7638 21.6667 12.4999V16.8291C23.3337 17.2235 24.9733 17.726 26.575 18.3333ZM19.55 28.3333H27.5V22.1291C27.496 21.1429 26.8921 20.2586 25.975 19.8958C24.2485 19.2432 22.4755 18.7209 20.6709 18.3333C20.2749 18.2546 19.9923 17.9035 20 17.4999V12.4999C20.004 12.2499 19.8954 12.0112 19.7042 11.8499C19.515 11.6904 19.2646 11.6232 19.0209 11.6666C18.6001 11.7683 18.3113 12.1551 18.3334 12.5874V22.4999C18.3341 22.8369 18.1318 23.1411 17.8209 23.2708C17.5089 23.3992 17.1503 23.3268 16.9125 23.0874C15.9452 22.2234 14.7896 21.597 13.5375 21.2583C13.2962 21.1875 13.0356 21.2338 12.8334 21.3833C12.6235 21.5407 12.5 21.7876 12.5 22.0499V22.1791C12.5061 22.5181 12.717 22.8196 13.0334 22.9416C15.8 24.2041 18.6834 27.3416 19.55 28.3333Z" fill="black"/>
<path d="M10.8333 15.8332C11.2936 15.8332 11.6667 15.4601 11.6667 14.9998V13.3332H13.3333C13.7936 13.3332 14.1667 12.9601 14.1667 12.4998C14.1667 12.0396 13.7936 11.6665 13.3333 11.6665H11.6667C10.7462 11.6665 10 12.4127 10 13.3332V14.9998C10 15.4601 10.3731 15.8332 10.8333 15.8332Z" fill="black"/>
<path d="M27.5 15.8332C27.9602 15.8332 28.3333 15.4601 28.3333 14.9998V13.3332C28.3333 12.4127 27.5871 11.6665 26.6666 11.6665H25C24.5397 11.6665 24.1666 12.0396 24.1666 12.4998C24.1666 12.9601 24.5397 13.3332 25 13.3332H26.6666V14.9998C26.6666 15.4601 27.0397 15.8332 27.5 15.8332Z" fill="black"/>
</svg>
