<svg width="40" height="40" viewBox="0 0 40 40" fill="none" xmlns="http://www.w3.org/2000/svg">
<g id="Group 22 Copy">
<rect id="Rectangle Copy 27" opacity="0.195126" width="40" height="40" rx="15" fill="#79DFE9"/>
<path id="Shape" fill-rule="evenodd" clip-rule="evenodd" d="M19.6765 10.5451C19.9571 10.1014 20.4987 9.89879 21.0016 10.0492C21.4998 10.2006 21.839 10.6619 21.835 11.1826V17.4995H26.8352C27.1396 17.5 27.4196 17.6665 27.5654 17.9338C27.7112 18.2011 27.6996 18.5266 27.5352 18.7829L20.6599 29.4541C20.4465 29.7938 20.0735 29.9999 19.6724 30C19.5581 29.9994 19.4444 29.9826 19.3349 29.95C18.8366 29.7986 18.4975 29.3373 18.5015 28.8166V22.4997H13.5013C13.1955 22.5002 12.9139 22.3331 12.7678 22.0644C12.6218 21.7957 12.6346 21.4686 12.8013 21.2121L19.6765 10.5451ZM20.1682 27.1624L25.3101 19.1662H21.0016C20.5413 19.1662 20.1682 18.7931 20.1682 18.3329V12.8368L15.0264 20.833H19.3349C19.7951 20.833 20.1682 21.2061 20.1682 21.6663V27.1624Z" fill="black"/>
</g>
</svg>
