<svg xmlns="http://www.w3.org/2000/svg" width="55" height="55" viewBox="0 0 55 55">
    <g fill="#06F" fill-rule="evenodd">
        <path d="M17.947 0h19.106c6.24 0 8.503.65 10.785 1.87 2.281 1.22 4.072 3.01 5.292 5.292C54.35 9.444 55 11.707 55 17.947v19.106c0 6.24-.65 8.503-1.87 10.785-1.22 2.281-3.01 4.072-5.292 5.292C45.556 54.35 43.293 55 37.053 55H17.947c-6.24 0-8.503-.65-10.785-1.87-2.281-1.22-4.072-3.01-5.292-5.292C.65 45.556 0 43.293 0 37.053V17.947c0-6.24.65-8.503 1.87-10.785C3.09 4.881 4.88 3.09 7.162 1.87 9.444.65 11.707 0 17.947 0z" opacity=".195"/>
        <path fill-rule="nonzero" d="M40.957 37.307c-2.998 4.152-7.853 6.63-12.988 6.63-4.266 0-8.276-1.66-11.292-4.676C13.661 36.244 12 32.234 12 27.969c0-4.266 1.661-8.276 4.677-11.292C19.693 13.661 23.703 12 27.97 12c5.135 0 9.99 2.479 12.988 6.63.403.559.277 1.339-.281 1.742-.559.403-1.339.277-1.742-.281-2.53-3.504-6.629-5.596-10.965-5.596-7.43 0-13.474 6.044-13.474 13.474 0 7.43 6.044 13.473 13.474 13.473 4.336 0 8.435-2.091 10.965-5.595.403-.559 1.183-.685 1.742-.282.558.404.684 1.184.28 1.742zM27.969 22.043c1.594 0 3.092.64 4.219 1.804.48.494 1.269.507 1.764.028.495-.48.507-1.27.028-1.764-1.6-1.653-3.736-2.563-6.011-2.563-4.644 0-8.421 3.777-8.421 8.42 0 4.644 3.777 8.422 8.42 8.422 2.276 0 4.411-.91 6.012-2.563.48-.495.467-1.285-.028-1.764-.495-.48-1.285-.467-1.764.028-1.127 1.163-2.625 1.804-4.22 1.804-3.267 0-5.925-2.659-5.925-5.926 0-3.268 2.658-5.926 5.926-5.926zm14.128 7.195c-.342-.34-.53-.79-.53-1.27 0-.478.188-.929.53-1.268l1.473-1.464c.488-.486.49-1.276.005-1.765-.486-.488-1.276-.49-1.765-.005l-1.473 1.465c-.51.508-.878 1.12-1.08 1.79H27.968c-.69 0-1.248.559-1.248 1.248s.559 1.247 1.248 1.247h11.287c.203.67.57 1.283 1.081 1.791l1.473 1.465c.244.241.562.362.88.362.32 0 .641-.122.885-.368.486-.488.483-1.278-.005-1.764l-1.473-1.464z"/>
    </g>
</svg>
