<svg width="256" height="116" viewBox="0 0 256 116" fill="none" xmlns="http://www.w3.org/2000/svg">
<path d="M202.357 49.394L197.046 47.27C172.085 103.434 72.7861 69.289 66.8111 85.997C65.8151 97.283 121.038 88.143 160.517 90.056C172.556 90.639 178.593 99.727 173.481 114.54L183.55 114.571C195.165 78.362 232.233 96.841 233.782 84.891C231.237 77.034 191.181 84.891 202.357 49.394Z" fill="white"/>
<path d="M176.332 108.348C177.925 103.037 177.394 97.7263 174.739 94.5393C172.083 91.3523 168.365 89.2283 163.585 88.6973L71.17 87.6343C70.639 87.6343 70.108 87.1033 69.577 87.1033C69.046 86.5723 69.046 86.0413 69.577 85.5103C70.108 84.4483 70.639 83.9163 71.701 83.9163L164.647 82.8543C175.801 82.3233 187.486 73.2943 191.734 62.6723L197.046 48.8633C197.046 48.3313 197.577 47.8003 197.046 47.2693C191.203 20.1823 166.772 -0.000732422 138.091 -0.000732422C111.535 -0.000732422 88.697 16.9953 80.73 40.8963C75.419 37.1783 69.046 35.0533 61.61 35.5853C48.863 36.6473 38.772 47.2693 37.178 60.0163C36.647 63.2033 37.178 66.3903 37.71 69.5763C16.996 70.1073 0 87.1033 0 108.348C0 110.472 0 112.066 0.531 114.19C0.531 115.253 1.593 115.784 2.125 115.784H172.614C173.676 115.784 174.739 115.253 174.739 114.19L176.332 108.348Z" fill="#F4811F"/>
<path d="M205.544 48.8628H202.888C202.357 48.8628 201.826 49.3938 201.295 49.9248L197.577 62.6718C195.984 67.9828 196.515 73.2948 199.171 76.4808C201.826 79.6678 205.544 81.7918 210.324 82.3238L229.976 83.3858C230.507 83.3858 231.038 83.9168 231.569 83.9168C232.1 84.4478 232.1 84.9788 231.569 85.5098C231.038 86.5728 230.507 87.1038 229.444 87.1038L209.262 88.1658C198.108 88.6968 186.424 97.7258 182.175 108.348L181.112 113.129C180.581 113.66 181.112 114.722 182.175 114.722H252.283C253.345 114.722 253.876 114.191 253.876 113.129C254.938 108.88 256 104.1 256 99.3188C256 71.7008 233.162 48.8628 205.544 48.8628Z" fill="#FAAD3F"/>
</svg>
