<svg width="50" height="50" viewBox="0 0 50 50" fill="none" xmlns="http://www.w3.org/2000/svg">
<g id="Group 148">
<rect id="Rectangle Copy 24" opacity="0.195126" width="50" height="50" rx="16" fill="#CC0000"/>
<g id="Ruby_On_Rails_Logo">
<path id="Path" fill-rule="evenodd" clip-rule="evenodd" d="M11.8401 33.7517H21.3201C21.3201 33.7517 19.5081 25.4837 25.5081 22.1357C26.8161 21.4997 30.9801 19.1237 37.7961 24.1637C38.0121 23.9837 38.2161 23.8397 38.2161 23.8397C38.2161 23.8397 31.9761 17.6117 25.0281 18.3077C21.5361 18.6197 17.2401 21.7997 14.7201 25.9997C12.2001 30.1997 11.8401 33.7517 11.8401 33.7517Z" fill="#CC0000"/>
<path id="Path_2" fill-rule="evenodd" clip-rule="evenodd" d="M11.8401 33.7517H21.3201C21.3201 33.7517 19.5081 25.4837 25.5081 22.1357C26.8161 21.4997 30.9801 19.1237 37.7961 24.1637C38.0121 23.9837 38.2161 23.8397 38.2161 23.8397C38.2161 23.8397 31.9761 17.6117 25.0281 18.3077C21.5361 18.6197 17.2401 21.7997 14.7201 25.9997C12.2001 30.1997 11.8401 33.7517 11.8401 33.7517Z" fill="#CC0000"/>
<path id="Shape" fill-rule="evenodd" clip-rule="evenodd" d="M11.8401 33.7519H21.3201C21.3201 33.7519 19.5081 25.4839 25.5081 22.1359C26.8161 21.4999 30.9801 19.1239 37.7961 24.1639C38.0121 23.9839 38.2161 23.8399 38.2161 23.8399C38.2161 23.8399 31.9761 17.6119 25.0281 18.3079C21.5241 18.6199 17.2281 21.7999 14.7081 25.9999C12.1881 30.1999 11.8401 33.7519 11.8401 33.7519ZM31.5921 18.9799L31.6401 18.1759C31.5321 18.1159 31.2321 17.9719 30.4761 17.7559L30.4281 18.5479C30.8241 18.6799 31.2081 18.8239 31.5921 18.9799Z" fill="#CC0000"/>
<path id="Shape_2" fill-rule="evenodd" clip-rule="evenodd" d="M30.452 21.5239L30.404 22.2799C30.8 22.2919 31.196 22.3399 31.592 22.4239L31.64 21.6799C31.232 21.5959 30.836 21.5479 30.452 21.5239ZM26.012 17.7799H26.132L25.892 17.0479C25.52 17.0479 25.136 17.0719 24.74 17.1199L24.968 17.8279C25.316 17.7919 25.664 17.7799 26.012 17.7799ZM26.588 22.1959L26.864 23.0239C27.212 22.8559 27.56 22.7119 27.908 22.6039L27.644 21.8119C27.236 21.9319 26.888 22.0639 26.588 22.1959ZM21.14 19.0399L20.6 18.2119C20.3 18.3679 19.988 18.5359 19.664 18.7279L20.216 19.5679C20.528 19.3759 20.828 19.1959 21.14 19.0399ZM23.6 24.4399L24.176 25.3039C24.38 25.0039 24.62 24.7279 24.884 24.4519L24.344 23.6359C24.068 23.8879 23.816 24.1639 23.6 24.4399ZM21.86 28.3039L22.832 29.0719C22.88 28.6039 22.964 28.1359 23.084 27.6679L22.22 26.9839C22.064 27.4279 21.956 27.8719 21.86 28.3039ZM16.604 22.6039L15.752 21.8599C15.44 22.1599 15.14 22.4599 14.864 22.7599L15.788 23.5519C16.04 23.2279 16.316 22.9039 16.604 22.6039ZM12.98 27.9679L11.6 27.4639C11.372 27.9799 11.12 28.5799 11 28.9039L12.38 29.4079C12.536 28.9999 12.788 28.4119 12.98 27.9679ZM21.68 31.3519C21.704 31.9879 21.764 32.5039 21.824 32.8639L23.264 33.3799C23.156 32.9119 23.048 32.3839 22.976 31.8199L21.68 31.3519Z" fill="#CC0000"/>
</g>
</g>
</svg>
